<svg xmlns="http://www.w3.org/2000/svg" viewBox="0 0 800 400" width="100%" style="max-width:800px;">
  <rect width="800" height="400" fill="#0d1117" rx="6"/>
  <text x="400.0" y="25" text-anchor="middle" font-size="16" font-weight="bold" fill="#c9d1d9">Son 90 Gün - Günlük Ortalama</text>

  <!-- Y grid -->
  <line x1="60" y1="320.0" x2="760" y2="320.0" stroke="#333" stroke-width="1" stroke-dasharray="4,4" opacity="0.5"/>
  <text x="50" y="320.0" text-anchor="end" dominant-baseline="middle" font-size="10" fill="#888">0%</text>
  <line x1="60" y1="264.0" x2="760" y2="264.0" stroke="#333" stroke-width="1" stroke-dasharray="4,4" opacity="0.5"/>
  <text x="50" y="264.0" text-anchor="end" dominant-baseline="middle" font-size="10" fill="#888">20%</text>
  <line x1="60" y1="208.0" x2="760" y2="208.0" stroke="#333" stroke-width="1" stroke-dasharray="4,4" opacity="0.5"/>
  <text x="50" y="208.0" text-anchor="end" dominant-baseline="middle" font-size="10" fill="#888">40%</text>
  <line x1="60" y1="152.0" x2="760" y2="152.0" stroke="#333" stroke-width="1" stroke-dasharray="4,4" opacity="0.5"/>
  <text x="50" y="152.0" text-anchor="end" dominant-baseline="middle" font-size="10" fill="#888">60%</text>
  <line x1="60" y1="96.0" x2="760" y2="96.0" stroke="#333" stroke-width="1" stroke-dasharray="4,4" opacity="0.5"/>
  <text x="50" y="96.0" text-anchor="end" dominant-baseline="middle" font-size="10" fill="#888">80%</text>
  <line x1="60" y1="40.0" x2="760" y2="40.0" stroke="#333" stroke-width="1" stroke-dasharray="4,4" opacity="0.5"/>
  <text x="50" y="40.0" text-anchor="end" dominant-baseline="middle" font-size="10" fill="#888">100%</text>

  <!-- Referans çizgileri -->
  <line x1="60" y1="236.0" x2="760" y2="236.0" stroke="#ef4444" stroke-width="1" stroke-dasharray="2,2" opacity="0.7"/>
  <text x="745" y="236.0" dominant-baseline="middle" font-size="9" fill="#ef4444">Kritik (30%)</text>
  <line x1="60" y1="180.0" x2="760" y2="180.0" stroke="#eab308" stroke-width="1" stroke-dasharray="2,2" opacity="0.7"/>
  <text x="745" y="180.0" dominant-baseline="middle" font-size="9" fill="#eab308">Normal (50%)</text>

  <!-- Toplam doluluk -->
  <polyline points="60.0,193.2 75.9,192.5 91.8,192.0 107.7,191.6 123.6,191.1 139.5,190.8 155.5,190.4 171.4,190.1 187.3,189.6 203.2,188.8 219.1,187.8 235.0,187.0 250.9,186.2 266.8,185.6 282.7,185.0 298.6,184.3 314.5,183.6 330.5,183.2 346.4,182.9 362.3,182.7 378.2,182.7 394.1,182.4 410.0,182.3 425.9,182.3 441.8,182.2 457.7,182.2 473.6,182.2 489.5,182.2 505.5,182.3 521.4,182.4 537.3,182.5 553.2,182.6 569.1,182.7 585.0,182.9 600.9,183.1 616.8,183.2 632.7,183.3 648.6,183.4 664.5,183.5 680.5,183.7 696.4,183.9 712.3,184.2 728.2,184.4 744.1,184.7 760.0,185.0" fill="none" stroke="#22c55e" stroke-width="2.5" stroke-linecap="round" stroke-linejoin="round"/>
  <polyline points="60.0,193.2 75.9,192.5 91.8,192.0 107.7,191.6 123.6,191.1 139.5,190.8 155.5,190.4 171.4,190.1 187.3,189.6 203.2,188.8 219.1,187.8 235.0,187.0 250.9,186.2 266.8,185.6 282.7,185.0 298.6,184.3 314.5,183.6 330.5,183.2 346.4,182.9 362.3,182.7 378.2,182.7 394.1,182.4 410.0,182.3 425.9,182.3 441.8,182.2 457.7,182.2 473.6,182.2 489.5,182.2 505.5,182.3 521.4,182.4 537.3,182.5 553.2,182.6 569.1,182.7 585.0,182.9 600.9,183.1 616.8,183.2 632.7,183.3 648.6,183.4 664.5,183.5 680.5,183.7 696.4,183.9 712.3,184.2 728.2,184.4 744.1,184.7 760.0,185.0" fill="none" stroke="#22c55e" stroke-width="5" opacity="0.1" stroke-linecap="round" stroke-linejoin="round"/>

  <!-- Aktif doluluk -->
  <polyline points="60.0,211.1 75.9,210.2 91.8,209.7 107.7,209.2 123.6,208.7 139.5,208.3 155.5,207.9 171.4,207.5 187.3,207.0 203.2,206.2 219.1,205.0 235.0,204.1 250.9,203.2 266.8,202.5 282.7,201.9 298.6,201.0 314.5,200.3 330.5,199.9 346.4,199.6 362.3,199.4 378.2,199.3 394.1,199.0 410.0,198.9 425.9,198.9 441.8,198.7 457.7,198.7 473.6,198.8 489.5,198.8 505.5,198.8 521.4,198.9 537.3,199.0 553.2,199.2 569.1,199.4 585.0,199.5 600.9,199.7 616.8,199.8 632.7,200.0 648.6,200.1 664.5,200.2 680.5,200.4 696.4,200.7 712.3,201.0 728.2,201.3 744.1,201.6 760.0,201.8" fill="none" stroke="#3b82f6" stroke-width="2.5" stroke-linecap="round" stroke-linejoin="round"/>
  <polyline points="60.0,211.1 75.9,210.2 91.8,209.7 107.7,209.2 123.6,208.7 139.5,208.3 155.5,207.9 171.4,207.5 187.3,207.0 203.2,206.2 219.1,205.0 235.0,204.1 250.9,203.2 266.8,202.5 282.7,201.9 298.6,201.0 314.5,200.3 330.5,199.9 346.4,199.6 362.3,199.4 378.2,199.3 394.1,199.0 410.0,198.9 425.9,198.9 441.8,198.7 457.7,198.7 473.6,198.8 489.5,198.8 505.5,198.8 521.4,198.9 537.3,199.0 553.2,199.2 569.1,199.4 585.0,199.5 600.9,199.7 616.8,199.8 632.7,200.0 648.6,200.1 664.5,200.2 680.5,200.4 696.4,200.7 712.3,201.0 728.2,201.3 744.1,201.6 760.0,201.8" fill="none" stroke="#3b82f6" stroke-width="5" opacity="0.1" stroke-linecap="round" stroke-linejoin="round"/>

  <!-- Noktalar -->
  <circle cx="60.0" cy="193.2" r="3" fill="#22c55e"/><circle cx="75.9" cy="192.5" r="3" fill="#22c55e"/><circle cx="91.8" cy="192.0" r="3" fill="#22c55e"/><circle cx="107.7" cy="191.6" r="3" fill="#22c55e"/><circle cx="123.6" cy="191.1" r="3" fill="#22c55e"/><circle cx="139.5" cy="190.8" r="3" fill="#22c55e"/><circle cx="155.5" cy="190.4" r="3" fill="#22c55e"/><circle cx="171.4" cy="190.1" r="3" fill="#22c55e"/><circle cx="187.3" cy="189.6" r="3" fill="#22c55e"/><circle cx="203.2" cy="188.8" r="3" fill="#22c55e"/><circle cx="219.1" cy="187.8" r="3" fill="#22c55e"/><circle cx="235.0" cy="187.0" r="3" fill="#22c55e"/><circle cx="250.9" cy="186.2" r="3" fill="#22c55e"/><circle cx="266.8" cy="185.6" r="3" fill="#22c55e"/><circle cx="282.7" cy="185.0" r="3" fill="#22c55e"/><circle cx="298.6" cy="184.3" r="3" fill="#22c55e"/><circle cx="314.5" cy="183.6" r="3" fill="#22c55e"/><circle cx="330.5" cy="183.2" r="3" fill="#22c55e"/><circle cx="346.4" cy="182.9" r="3" fill="#22c55e"/><circle cx="362.3" cy="182.7" r="3" fill="#22c55e"/><circle cx="378.2" cy="182.7" r="3" fill="#22c55e"/><circle cx="394.1" cy="182.4" r="3" fill="#22c55e"/><circle cx="410.0" cy="182.3" r="3" fill="#22c55e"/><circle cx="425.9" cy="182.3" r="3" fill="#22c55e"/><circle cx="441.8" cy="182.2" r="3" fill="#22c55e"/><circle cx="457.7" cy="182.2" r="3" fill="#22c55e"/><circle cx="473.6" cy="182.2" r="3" fill="#22c55e"/><circle cx="489.5" cy="182.2" r="3" fill="#22c55e"/><circle cx="505.5" cy="182.3" r="3" fill="#22c55e"/><circle cx="521.4" cy="182.4" r="3" fill="#22c55e"/><circle cx="537.3" cy="182.5" r="3" fill="#22c55e"/><circle cx="553.2" cy="182.6" r="3" fill="#22c55e"/><circle cx="569.1" cy="182.7" r="3" fill="#22c55e"/><circle cx="585.0" cy="182.9" r="3" fill="#22c55e"/><circle cx="600.9" cy="183.1" r="3" fill="#22c55e"/><circle cx="616.8" cy="183.2" r="3" fill="#22c55e"/><circle cx="632.7" cy="183.3" r="3" fill="#22c55e"/><circle cx="648.6" cy="183.4" r="3" fill="#22c55e"/><circle cx="664.5" cy="183.5" r="3" fill="#22c55e"/><circle cx="680.5" cy="183.7" r="3" fill="#22c55e"/><circle cx="696.4" cy="183.9" r="3" fill="#22c55e"/><circle cx="712.3" cy="184.2" r="3" fill="#22c55e"/><circle cx="728.2" cy="184.4" r="3" fill="#22c55e"/><circle cx="744.1" cy="184.7" r="3" fill="#22c55e"/><circle cx="760.0" cy="185.0" r="3" fill="#22c55e"/>
  <circle cx="60.0" cy="211.1" r="3" fill="#3b82f6"/><circle cx="75.9" cy="210.2" r="3" fill="#3b82f6"/><circle cx="91.8" cy="209.7" r="3" fill="#3b82f6"/><circle cx="107.7" cy="209.2" r="3" fill="#3b82f6"/><circle cx="123.6" cy="208.7" r="3" fill="#3b82f6"/><circle cx="139.5" cy="208.3" r="3" fill="#3b82f6"/><circle cx="155.5" cy="207.9" r="3" fill="#3b82f6"/><circle cx="171.4" cy="207.5" r="3" fill="#3b82f6"/><circle cx="187.3" cy="207.0" r="3" fill="#3b82f6"/><circle cx="203.2" cy="206.2" r="3" fill="#3b82f6"/><circle cx="219.1" cy="205.0" r="3" fill="#3b82f6"/><circle cx="235.0" cy="204.1" r="3" fill="#3b82f6"/><circle cx="250.9" cy="203.2" r="3" fill="#3b82f6"/><circle cx="266.8" cy="202.5" r="3" fill="#3b82f6"/><circle cx="282.7" cy="201.9" r="3" fill="#3b82f6"/><circle cx="298.6" cy="201.0" r="3" fill="#3b82f6"/><circle cx="314.5" cy="200.3" r="3" fill="#3b82f6"/><circle cx="330.5" cy="199.9" r="3" fill="#3b82f6"/><circle cx="346.4" cy="199.6" r="3" fill="#3b82f6"/><circle cx="362.3" cy="199.4" r="3" fill="#3b82f6"/><circle cx="378.2" cy="199.3" r="3" fill="#3b82f6"/><circle cx="394.1" cy="199.0" r="3" fill="#3b82f6"/><circle cx="410.0" cy="198.9" r="3" fill="#3b82f6"/><circle cx="425.9" cy="198.9" r="3" fill="#3b82f6"/><circle cx="441.8" cy="198.7" r="3" fill="#3b82f6"/><circle cx="457.7" cy="198.7" r="3" fill="#3b82f6"/><circle cx="473.6" cy="198.8" r="3" fill="#3b82f6"/><circle cx="489.5" cy="198.8" r="3" fill="#3b82f6"/><circle cx="505.5" cy="198.8" r="3" fill="#3b82f6"/><circle cx="521.4" cy="198.9" r="3" fill="#3b82f6"/><circle cx="537.3" cy="199.0" r="3" fill="#3b82f6"/><circle cx="553.2" cy="199.2" r="3" fill="#3b82f6"/><circle cx="569.1" cy="199.4" r="3" fill="#3b82f6"/><circle cx="585.0" cy="199.5" r="3" fill="#3b82f6"/><circle cx="600.9" cy="199.7" r="3" fill="#3b82f6"/><circle cx="616.8" cy="199.8" r="3" fill="#3b82f6"/><circle cx="632.7" cy="200.0" r="3" fill="#3b82f6"/><circle cx="648.6" cy="200.1" r="3" fill="#3b82f6"/><circle cx="664.5" cy="200.2" r="3" fill="#3b82f6"/><circle cx="680.5" cy="200.4" r="3" fill="#3b82f6"/><circle cx="696.4" cy="200.7" r="3" fill="#3b82f6"/><circle cx="712.3" cy="201.0" r="3" fill="#3b82f6"/><circle cx="728.2" cy="201.3" r="3" fill="#3b82f6"/><circle cx="744.1" cy="201.6" r="3" fill="#3b82f6"/><circle cx="760.0" cy="201.8" r="3" fill="#3b82f6"/>

  <!-- X ekseni -->
  <text x="60.0" y="380" text-anchor="middle" font-size="10" fill="#888">14.05.2026</text>
  <text x="171.4" y="380" text-anchor="middle" font-size="10" fill="#888">21.05.2026</text>
  <text x="282.7" y="380" text-anchor="middle" font-size="10" fill="#888">28.05.2026</text>
  <text x="394.1" y="380" text-anchor="middle" font-size="10" fill="#888">04.06.2026</text>
  <text x="505.5" y="380" text-anchor="middle" font-size="10" fill="#888">11.06.2026</text>
  <text x="616.8" y="380" text-anchor="middle" font-size="10" fill="#888">18.06.2026</text>
  <text x="728.2" y="380" text-anchor="middle" font-size="10" fill="#888">25.06.2026</text>

  <!-- Legend -->
  <g transform="translate(60, 345)">
    <rect x="0" y="0" width="12" height="12" fill="#22c55e" rx="2"/>
    <text x="18" y="10" font-size="11" fill="#c9d1d9">Toplam Doluluk</text>
    <rect x="140" y="0" width="12" height="12" fill="#3b82f6" rx="2"/>
    <text x="158" y="10" font-size="11" fill="#c9d1d9">Aktif Doluluk</text>
  </g>
</svg>