<svg xmlns="http://www.w3.org/2000/svg" viewBox="0 0 800 400" width="100%" style="max-width:800px;">
  <rect width="800" height="400" fill="#0d1117" rx="6"/>
  <text x="400.0" y="25" text-anchor="middle" font-size="16" font-weight="bold" fill="#c9d1d9">Son 90 Gün - Günlük Ortalama</text>

  <!-- Y grid -->
  <line x1="60" y1="320.0" x2="760" y2="320.0" stroke="#333" stroke-width="1" stroke-dasharray="4,4" opacity="0.5"/>
  <text x="50" y="320.0" text-anchor="end" dominant-baseline="middle" font-size="10" fill="#888">0%</text>
  <line x1="60" y1="264.0" x2="760" y2="264.0" stroke="#333" stroke-width="1" stroke-dasharray="4,4" opacity="0.5"/>
  <text x="50" y="264.0" text-anchor="end" dominant-baseline="middle" font-size="10" fill="#888">20%</text>
  <line x1="60" y1="208.0" x2="760" y2="208.0" stroke="#333" stroke-width="1" stroke-dasharray="4,4" opacity="0.5"/>
  <text x="50" y="208.0" text-anchor="end" dominant-baseline="middle" font-size="10" fill="#888">40%</text>
  <line x1="60" y1="152.0" x2="760" y2="152.0" stroke="#333" stroke-width="1" stroke-dasharray="4,4" opacity="0.5"/>
  <text x="50" y="152.0" text-anchor="end" dominant-baseline="middle" font-size="10" fill="#888">60%</text>
  <line x1="60" y1="96.0" x2="760" y2="96.0" stroke="#333" stroke-width="1" stroke-dasharray="4,4" opacity="0.5"/>
  <text x="50" y="96.0" text-anchor="end" dominant-baseline="middle" font-size="10" fill="#888">80%</text>
  <line x1="60" y1="40.0" x2="760" y2="40.0" stroke="#333" stroke-width="1" stroke-dasharray="4,4" opacity="0.5"/>
  <text x="50" y="40.0" text-anchor="end" dominant-baseline="middle" font-size="10" fill="#888">100%</text>

  <!-- Referans çizgileri -->
  <line x1="60" y1="236.0" x2="760" y2="236.0" stroke="#ef4444" stroke-width="1" stroke-dasharray="2,2" opacity="0.7"/>
  <text x="745" y="236.0" dominant-baseline="middle" font-size="9" fill="#ef4444">Kritik (30%)</text>
  <line x1="60" y1="180.0" x2="760" y2="180.0" stroke="#eab308" stroke-width="1" stroke-dasharray="2,2" opacity="0.7"/>
  <text x="745" y="180.0" dominant-baseline="middle" font-size="9" fill="#eab308">Normal (50%)</text>

  <!-- Toplam doluluk -->
  <polyline points="60.0,193.2 73.0,192.5 85.9,192.0 98.9,191.6 111.9,191.1 124.8,190.8 137.8,190.4 150.7,190.1 163.7,189.6 176.7,188.8 189.6,187.8 202.6,187.0 215.6,186.2 228.5,185.6 241.5,185.0 254.4,184.3 267.4,183.6 280.4,183.2 293.3,182.9 306.3,182.7 319.3,182.7 332.2,182.4 345.2,182.3 358.1,182.3 371.1,182.2 384.1,182.2 397.0,182.2 410.0,182.2 423.0,182.3 435.9,182.4 448.9,182.5 461.9,182.6 474.8,182.7 487.8,182.9 500.7,183.1 513.7,183.2 526.7,183.3 539.6,183.4 552.6,183.5 565.6,183.7 578.5,183.9 591.5,184.2 604.4,184.4 617.4,184.7 630.4,185.0 643.3,185.3 656.3,185.6 669.3,186.0 682.2,186.3 695.2,186.6 708.1,187.0 721.1,187.3 734.1,187.6 747.0,188.0 760.0,188.3" fill="none" stroke="#22c55e" stroke-width="2.5" stroke-linecap="round" stroke-linejoin="round"/>
  <polyline points="60.0,193.2 73.0,192.5 85.9,192.0 98.9,191.6 111.9,191.1 124.8,190.8 137.8,190.4 150.7,190.1 163.7,189.6 176.7,188.8 189.6,187.8 202.6,187.0 215.6,186.2 228.5,185.6 241.5,185.0 254.4,184.3 267.4,183.6 280.4,183.2 293.3,182.9 306.3,182.7 319.3,182.7 332.2,182.4 345.2,182.3 358.1,182.3 371.1,182.2 384.1,182.2 397.0,182.2 410.0,182.2 423.0,182.3 435.9,182.4 448.9,182.5 461.9,182.6 474.8,182.7 487.8,182.9 500.7,183.1 513.7,183.2 526.7,183.3 539.6,183.4 552.6,183.5 565.6,183.7 578.5,183.9 591.5,184.2 604.4,184.4 617.4,184.7 630.4,185.0 643.3,185.3 656.3,185.6 669.3,186.0 682.2,186.3 695.2,186.6 708.1,187.0 721.1,187.3 734.1,187.6 747.0,188.0 760.0,188.3" fill="none" stroke="#22c55e" stroke-width="5" opacity="0.1" stroke-linecap="round" stroke-linejoin="round"/>

  <!-- Aktif doluluk -->
  <polyline points="60.0,211.1 73.0,210.2 85.9,209.7 98.9,209.2 111.9,208.7 124.8,208.3 137.8,207.9 150.7,207.5 163.7,207.0 176.7,206.2 189.6,205.0 202.6,204.1 215.6,203.2 228.5,202.5 241.5,201.9 254.4,201.0 267.4,200.3 280.4,199.9 293.3,199.6 306.3,199.4 319.3,199.3 332.2,199.0 345.2,198.9 358.1,198.9 371.1,198.7 384.1,198.7 397.0,198.8 410.0,198.8 423.0,198.8 435.9,198.9 448.9,199.0 461.9,199.2 474.8,199.4 487.8,199.5 500.7,199.7 513.7,199.8 526.7,200.0 539.6,200.1 552.6,200.2 565.6,200.4 578.5,200.7 591.5,201.0 604.4,201.3 617.4,201.6 630.4,201.8 643.3,202.2 656.3,202.6 669.3,203.0 682.2,203.3 695.2,203.7 708.1,204.1 721.1,204.4 734.1,204.8 747.0,205.2 760.0,205.5" fill="none" stroke="#3b82f6" stroke-width="2.5" stroke-linecap="round" stroke-linejoin="round"/>
  <polyline points="60.0,211.1 73.0,210.2 85.9,209.7 98.9,209.2 111.9,208.7 124.8,208.3 137.8,207.9 150.7,207.5 163.7,207.0 176.7,206.2 189.6,205.0 202.6,204.1 215.6,203.2 228.5,202.5 241.5,201.9 254.4,201.0 267.4,200.3 280.4,199.9 293.3,199.6 306.3,199.4 319.3,199.3 332.2,199.0 345.2,198.9 358.1,198.9 371.1,198.7 384.1,198.7 397.0,198.8 410.0,198.8 423.0,198.8 435.9,198.9 448.9,199.0 461.9,199.2 474.8,199.4 487.8,199.5 500.7,199.7 513.7,199.8 526.7,200.0 539.6,200.1 552.6,200.2 565.6,200.4 578.5,200.7 591.5,201.0 604.4,201.3 617.4,201.6 630.4,201.8 643.3,202.2 656.3,202.6 669.3,203.0 682.2,203.3 695.2,203.7 708.1,204.1 721.1,204.4 734.1,204.8 747.0,205.2 760.0,205.5" fill="none" stroke="#3b82f6" stroke-width="5" opacity="0.1" stroke-linecap="round" stroke-linejoin="round"/>

  <!-- Noktalar -->
  <circle cx="60.0" cy="193.2" r="3" fill="#22c55e"/><circle cx="73.0" cy="192.5" r="3" fill="#22c55e"/><circle cx="85.9" cy="192.0" r="3" fill="#22c55e"/><circle cx="98.9" cy="191.6" r="3" fill="#22c55e"/><circle cx="111.9" cy="191.1" r="3" fill="#22c55e"/><circle cx="124.8" cy="190.8" r="3" fill="#22c55e"/><circle cx="137.8" cy="190.4" r="3" fill="#22c55e"/><circle cx="150.7" cy="190.1" r="3" fill="#22c55e"/><circle cx="163.7" cy="189.6" r="3" fill="#22c55e"/><circle cx="176.7" cy="188.8" r="3" fill="#22c55e"/><circle cx="189.6" cy="187.8" r="3" fill="#22c55e"/><circle cx="202.6" cy="187.0" r="3" fill="#22c55e"/><circle cx="215.6" cy="186.2" r="3" fill="#22c55e"/><circle cx="228.5" cy="185.6" r="3" fill="#22c55e"/><circle cx="241.5" cy="185.0" r="3" fill="#22c55e"/><circle cx="254.4" cy="184.3" r="3" fill="#22c55e"/><circle cx="267.4" cy="183.6" r="3" fill="#22c55e"/><circle cx="280.4" cy="183.2" r="3" fill="#22c55e"/><circle cx="293.3" cy="182.9" r="3" fill="#22c55e"/><circle cx="306.3" cy="182.7" r="3" fill="#22c55e"/><circle cx="319.3" cy="182.7" r="3" fill="#22c55e"/><circle cx="332.2" cy="182.4" r="3" fill="#22c55e"/><circle cx="345.2" cy="182.3" r="3" fill="#22c55e"/><circle cx="358.1" cy="182.3" r="3" fill="#22c55e"/><circle cx="371.1" cy="182.2" r="3" fill="#22c55e"/><circle cx="384.1" cy="182.2" r="3" fill="#22c55e"/><circle cx="397.0" cy="182.2" r="3" fill="#22c55e"/><circle cx="410.0" cy="182.2" r="3" fill="#22c55e"/><circle cx="423.0" cy="182.3" r="3" fill="#22c55e"/><circle cx="435.9" cy="182.4" r="3" fill="#22c55e"/><circle cx="448.9" cy="182.5" r="3" fill="#22c55e"/><circle cx="461.9" cy="182.6" r="3" fill="#22c55e"/><circle cx="474.8" cy="182.7" r="3" fill="#22c55e"/><circle cx="487.8" cy="182.9" r="3" fill="#22c55e"/><circle cx="500.7" cy="183.1" r="3" fill="#22c55e"/><circle cx="513.7" cy="183.2" r="3" fill="#22c55e"/><circle cx="526.7" cy="183.3" r="3" fill="#22c55e"/><circle cx="539.6" cy="183.4" r="3" fill="#22c55e"/><circle cx="552.6" cy="183.5" r="3" fill="#22c55e"/><circle cx="565.6" cy="183.7" r="3" fill="#22c55e"/><circle cx="578.5" cy="183.9" r="3" fill="#22c55e"/><circle cx="591.5" cy="184.2" r="3" fill="#22c55e"/><circle cx="604.4" cy="184.4" r="3" fill="#22c55e"/><circle cx="617.4" cy="184.7" r="3" fill="#22c55e"/><circle cx="630.4" cy="185.0" r="3" fill="#22c55e"/><circle cx="643.3" cy="185.3" r="3" fill="#22c55e"/><circle cx="656.3" cy="185.6" r="3" fill="#22c55e"/><circle cx="669.3" cy="186.0" r="3" fill="#22c55e"/><circle cx="682.2" cy="186.3" r="3" fill="#22c55e"/><circle cx="695.2" cy="186.6" r="3" fill="#22c55e"/><circle cx="708.1" cy="187.0" r="3" fill="#22c55e"/><circle cx="721.1" cy="187.3" r="3" fill="#22c55e"/><circle cx="734.1" cy="187.6" r="3" fill="#22c55e"/><circle cx="747.0" cy="188.0" r="3" fill="#22c55e"/><circle cx="760.0" cy="188.3" r="3" fill="#22c55e"/>
  <circle cx="60.0" cy="211.1" r="3" fill="#3b82f6"/><circle cx="73.0" cy="210.2" r="3" fill="#3b82f6"/><circle cx="85.9" cy="209.7" r="3" fill="#3b82f6"/><circle cx="98.9" cy="209.2" r="3" fill="#3b82f6"/><circle cx="111.9" cy="208.7" r="3" fill="#3b82f6"/><circle cx="124.8" cy="208.3" r="3" fill="#3b82f6"/><circle cx="137.8" cy="207.9" r="3" fill="#3b82f6"/><circle cx="150.7" cy="207.5" r="3" fill="#3b82f6"/><circle cx="163.7" cy="207.0" r="3" fill="#3b82f6"/><circle cx="176.7" cy="206.2" r="3" fill="#3b82f6"/><circle cx="189.6" cy="205.0" r="3" fill="#3b82f6"/><circle cx="202.6" cy="204.1" r="3" fill="#3b82f6"/><circle cx="215.6" cy="203.2" r="3" fill="#3b82f6"/><circle cx="228.5" cy="202.5" r="3" fill="#3b82f6"/><circle cx="241.5" cy="201.9" r="3" fill="#3b82f6"/><circle cx="254.4" cy="201.0" r="3" fill="#3b82f6"/><circle cx="267.4" cy="200.3" r="3" fill="#3b82f6"/><circle cx="280.4" cy="199.9" r="3" fill="#3b82f6"/><circle cx="293.3" cy="199.6" r="3" fill="#3b82f6"/><circle cx="306.3" cy="199.4" r="3" fill="#3b82f6"/><circle cx="319.3" cy="199.3" r="3" fill="#3b82f6"/><circle cx="332.2" cy="199.0" r="3" fill="#3b82f6"/><circle cx="345.2" cy="198.9" r="3" fill="#3b82f6"/><circle cx="358.1" cy="198.9" r="3" fill="#3b82f6"/><circle cx="371.1" cy="198.7" r="3" fill="#3b82f6"/><circle cx="384.1" cy="198.7" r="3" fill="#3b82f6"/><circle cx="397.0" cy="198.8" r="3" fill="#3b82f6"/><circle cx="410.0" cy="198.8" r="3" fill="#3b82f6"/><circle cx="423.0" cy="198.8" r="3" fill="#3b82f6"/><circle cx="435.9" cy="198.9" r="3" fill="#3b82f6"/><circle cx="448.9" cy="199.0" r="3" fill="#3b82f6"/><circle cx="461.9" cy="199.2" r="3" fill="#3b82f6"/><circle cx="474.8" cy="199.4" r="3" fill="#3b82f6"/><circle cx="487.8" cy="199.5" r="3" fill="#3b82f6"/><circle cx="500.7" cy="199.7" r="3" fill="#3b82f6"/><circle cx="513.7" cy="199.8" r="3" fill="#3b82f6"/><circle cx="526.7" cy="200.0" r="3" fill="#3b82f6"/><circle cx="539.6" cy="200.1" r="3" fill="#3b82f6"/><circle cx="552.6" cy="200.2" r="3" fill="#3b82f6"/><circle cx="565.6" cy="200.4" r="3" fill="#3b82f6"/><circle cx="578.5" cy="200.7" r="3" fill="#3b82f6"/><circle cx="591.5" cy="201.0" r="3" fill="#3b82f6"/><circle cx="604.4" cy="201.3" r="3" fill="#3b82f6"/><circle cx="617.4" cy="201.6" r="3" fill="#3b82f6"/><circle cx="630.4" cy="201.8" r="3" fill="#3b82f6"/><circle cx="643.3" cy="202.2" r="3" fill="#3b82f6"/><circle cx="656.3" cy="202.6" r="3" fill="#3b82f6"/><circle cx="669.3" cy="203.0" r="3" fill="#3b82f6"/><circle cx="682.2" cy="203.3" r="3" fill="#3b82f6"/><circle cx="695.2" cy="203.7" r="3" fill="#3b82f6"/><circle cx="708.1" cy="204.1" r="3" fill="#3b82f6"/><circle cx="721.1" cy="204.4" r="3" fill="#3b82f6"/><circle cx="734.1" cy="204.8" r="3" fill="#3b82f6"/><circle cx="747.0" cy="205.2" r="3" fill="#3b82f6"/><circle cx="760.0" cy="205.5" r="3" fill="#3b82f6"/>

  <!-- X ekseni -->
  <text x="60.0" y="380" text-anchor="middle" font-size="10" fill="#888">14.05.2026</text>
  <text x="176.7" y="380" text-anchor="middle" font-size="10" fill="#888">23.05.2026</text>
  <text x="293.3" y="380" text-anchor="middle" font-size="10" fill="#888">01.06.2026</text>
  <text x="410.0" y="380" text-anchor="middle" font-size="10" fill="#888">10.06.2026</text>
  <text x="526.7" y="380" text-anchor="middle" font-size="10" fill="#888">19.06.2026</text>
  <text x="643.3" y="380" text-anchor="middle" font-size="10" fill="#888">28.06.2026</text>
  <text x="760.0" y="380" text-anchor="middle" font-size="10" fill="#888">07.07.2026</text>

  <!-- Legend -->
  <g transform="translate(60, 345)">
    <rect x="0" y="0" width="12" height="12" fill="#22c55e" rx="2"/>
    <text x="18" y="10" font-size="11" fill="#c9d1d9">Toplam Doluluk</text>
    <rect x="140" y="0" width="12" height="12" fill="#3b82f6" rx="2"/>
    <text x="158" y="10" font-size="11" fill="#c9d1d9">Aktif Doluluk</text>
  </g>
</svg>