<svg xmlns="http://www.w3.org/2000/svg" viewBox="0 0 900 400" width="100%" style="max-width:900px;">
  <rect width="900" height="400" fill="#0d1117" rx="6"/>
  <text x="450.0" y="25" text-anchor="middle" font-size="16" font-weight="bold" fill="#c9d1d9">Son 360 Gün - Günlük Ortalama</text>

  <!-- Y grid -->
  <line x1="60" y1="320.0" x2="860" y2="320.0" stroke="#333" stroke-width="1" stroke-dasharray="4,4" opacity="0.5"/>
  <text x="50" y="320.0" text-anchor="end" dominant-baseline="middle" font-size="10" fill="#888">0%</text>
  <line x1="60" y1="264.0" x2="860" y2="264.0" stroke="#333" stroke-width="1" stroke-dasharray="4,4" opacity="0.5"/>
  <text x="50" y="264.0" text-anchor="end" dominant-baseline="middle" font-size="10" fill="#888">20%</text>
  <line x1="60" y1="208.0" x2="860" y2="208.0" stroke="#333" stroke-width="1" stroke-dasharray="4,4" opacity="0.5"/>
  <text x="50" y="208.0" text-anchor="end" dominant-baseline="middle" font-size="10" fill="#888">40%</text>
  <line x1="60" y1="152.0" x2="860" y2="152.0" stroke="#333" stroke-width="1" stroke-dasharray="4,4" opacity="0.5"/>
  <text x="50" y="152.0" text-anchor="end" dominant-baseline="middle" font-size="10" fill="#888">60%</text>
  <line x1="60" y1="96.0" x2="860" y2="96.0" stroke="#333" stroke-width="1" stroke-dasharray="4,4" opacity="0.5"/>
  <text x="50" y="96.0" text-anchor="end" dominant-baseline="middle" font-size="10" fill="#888">80%</text>
  <line x1="60" y1="40.0" x2="860" y2="40.0" stroke="#333" stroke-width="1" stroke-dasharray="4,4" opacity="0.5"/>
  <text x="50" y="40.0" text-anchor="end" dominant-baseline="middle" font-size="10" fill="#888">100%</text>

  <!-- Referans çizgileri -->
  <line x1="60" y1="236.0" x2="860" y2="236.0" stroke="#ef4444" stroke-width="1" stroke-dasharray="2,2" opacity="0.7"/>
  <text x="845" y="236.0" dominant-baseline="middle" font-size="9" fill="#ef4444">Kritik (30%)</text>
  <line x1="60" y1="180.0" x2="860" y2="180.0" stroke="#eab308" stroke-width="1" stroke-dasharray="2,2" opacity="0.7"/>
  <text x="845" y="180.0" dominant-baseline="middle" font-size="9" fill="#eab308">Normal (50%)</text>

  <!-- Toplam doluluk -->
  <polyline points="60.0,193.2 102.1,192.5 144.2,192.0 186.3,191.6 228.4,191.1 270.5,190.8 312.6,190.4 354.7,190.1 396.8,189.6 438.9,188.8 481.1,187.8 523.2,187.0 565.3,186.2 607.4,185.6 649.5,185.0 691.6,184.3 733.7,183.6 775.8,183.2 817.9,182.9 860.0,182.7" fill="none" stroke="#22c55e" stroke-width="2.5" stroke-linecap="round" stroke-linejoin="round"/>
  <polyline points="60.0,193.2 102.1,192.5 144.2,192.0 186.3,191.6 228.4,191.1 270.5,190.8 312.6,190.4 354.7,190.1 396.8,189.6 438.9,188.8 481.1,187.8 523.2,187.0 565.3,186.2 607.4,185.6 649.5,185.0 691.6,184.3 733.7,183.6 775.8,183.2 817.9,182.9 860.0,182.7" fill="none" stroke="#22c55e" stroke-width="5" opacity="0.1" stroke-linecap="round" stroke-linejoin="round"/>

  <!-- Aktif doluluk -->
  <polyline points="60.0,211.1 102.1,210.2 144.2,209.7 186.3,209.2 228.4,208.7 270.5,208.3 312.6,207.9 354.7,207.5 396.8,207.0 438.9,206.2 481.1,205.0 523.2,204.1 565.3,203.2 607.4,202.5 649.5,201.9 691.6,201.0 733.7,200.3 775.8,199.9 817.9,199.6 860.0,199.4" fill="none" stroke="#3b82f6" stroke-width="2.5" stroke-linecap="round" stroke-linejoin="round"/>
  <polyline points="60.0,211.1 102.1,210.2 144.2,209.7 186.3,209.2 228.4,208.7 270.5,208.3 312.6,207.9 354.7,207.5 396.8,207.0 438.9,206.2 481.1,205.0 523.2,204.1 565.3,203.2 607.4,202.5 649.5,201.9 691.6,201.0 733.7,200.3 775.8,199.9 817.9,199.6 860.0,199.4" fill="none" stroke="#3b82f6" stroke-width="5" opacity="0.1" stroke-linecap="round" stroke-linejoin="round"/>

  <!-- Noktalar -->
  <circle cx="60.0" cy="193.2" r="3" fill="#22c55e"/><circle cx="102.1" cy="192.5" r="3" fill="#22c55e"/><circle cx="144.2" cy="192.0" r="3" fill="#22c55e"/><circle cx="186.3" cy="191.6" r="3" fill="#22c55e"/><circle cx="228.4" cy="191.1" r="3" fill="#22c55e"/><circle cx="270.5" cy="190.8" r="3" fill="#22c55e"/><circle cx="312.6" cy="190.4" r="3" fill="#22c55e"/><circle cx="354.7" cy="190.1" r="3" fill="#22c55e"/><circle cx="396.8" cy="189.6" r="3" fill="#22c55e"/><circle cx="438.9" cy="188.8" r="3" fill="#22c55e"/><circle cx="481.1" cy="187.8" r="3" fill="#22c55e"/><circle cx="523.2" cy="187.0" r="3" fill="#22c55e"/><circle cx="565.3" cy="186.2" r="3" fill="#22c55e"/><circle cx="607.4" cy="185.6" r="3" fill="#22c55e"/><circle cx="649.5" cy="185.0" r="3" fill="#22c55e"/><circle cx="691.6" cy="184.3" r="3" fill="#22c55e"/><circle cx="733.7" cy="183.6" r="3" fill="#22c55e"/><circle cx="775.8" cy="183.2" r="3" fill="#22c55e"/><circle cx="817.9" cy="182.9" r="3" fill="#22c55e"/><circle cx="860.0" cy="182.7" r="3" fill="#22c55e"/>
  <circle cx="60.0" cy="211.1" r="3" fill="#3b82f6"/><circle cx="102.1" cy="210.2" r="3" fill="#3b82f6"/><circle cx="144.2" cy="209.7" r="3" fill="#3b82f6"/><circle cx="186.3" cy="209.2" r="3" fill="#3b82f6"/><circle cx="228.4" cy="208.7" r="3" fill="#3b82f6"/><circle cx="270.5" cy="208.3" r="3" fill="#3b82f6"/><circle cx="312.6" cy="207.9" r="3" fill="#3b82f6"/><circle cx="354.7" cy="207.5" r="3" fill="#3b82f6"/><circle cx="396.8" cy="207.0" r="3" fill="#3b82f6"/><circle cx="438.9" cy="206.2" r="3" fill="#3b82f6"/><circle cx="481.1" cy="205.0" r="3" fill="#3b82f6"/><circle cx="523.2" cy="204.1" r="3" fill="#3b82f6"/><circle cx="565.3" cy="203.2" r="3" fill="#3b82f6"/><circle cx="607.4" cy="202.5" r="3" fill="#3b82f6"/><circle cx="649.5" cy="201.9" r="3" fill="#3b82f6"/><circle cx="691.6" cy="201.0" r="3" fill="#3b82f6"/><circle cx="733.7" cy="200.3" r="3" fill="#3b82f6"/><circle cx="775.8" cy="199.9" r="3" fill="#3b82f6"/><circle cx="817.9" cy="199.6" r="3" fill="#3b82f6"/><circle cx="860.0" cy="199.4" r="3" fill="#3b82f6"/>

  <!-- X ekseni -->
  <text x="60.0" y="380" text-anchor="middle" font-size="10" fill="#888">14.05 00:00</text>
  <text x="186.3" y="380" text-anchor="middle" font-size="10" fill="#888">17.05 00:00</text>
  <text x="312.6" y="380" text-anchor="middle" font-size="10" fill="#888">20.05 00:00</text>
  <text x="438.9" y="380" text-anchor="middle" font-size="10" fill="#888">23.05 00:00</text>
  <text x="565.3" y="380" text-anchor="middle" font-size="10" fill="#888">26.05 00:00</text>
  <text x="691.6" y="380" text-anchor="middle" font-size="10" fill="#888">29.05 00:00</text>
  <text x="817.9" y="380" text-anchor="middle" font-size="10" fill="#888">01.06 00:00</text>

  <!-- Legend -->
  <g transform="translate(60, 345)">
    <rect x="0" y="0" width="12" height="12" fill="#22c55e" rx="2"/>
    <text x="18" y="10" font-size="11" fill="#c9d1d9">Toplam Doluluk</text>
    <rect x="140" y="0" width="12" height="12" fill="#3b82f6" rx="2"/>
    <text x="158" y="10" font-size="11" fill="#c9d1d9">Aktif Doluluk</text>
  </g>
</svg>