<svg xmlns="http://www.w3.org/2000/svg" viewBox="0 0 800 400" width="100%" style="max-width:800px;">
  <rect width="800" height="400" fill="#0d1117" rx="6"/>
  <text x="400.0" y="25" text-anchor="middle" font-size="16" font-weight="bold" fill="#c9d1d9">Son 90 Gün - Günlük Ortalama</text>

  <!-- Y grid -->
  <line x1="60" y1="320.0" x2="760" y2="320.0" stroke="#333" stroke-width="1" stroke-dasharray="4,4" opacity="0.5"/>
  <text x="50" y="320.0" text-anchor="end" dominant-baseline="middle" font-size="10" fill="#888">0%</text>
  <line x1="60" y1="264.0" x2="760" y2="264.0" stroke="#333" stroke-width="1" stroke-dasharray="4,4" opacity="0.5"/>
  <text x="50" y="264.0" text-anchor="end" dominant-baseline="middle" font-size="10" fill="#888">20%</text>
  <line x1="60" y1="208.0" x2="760" y2="208.0" stroke="#333" stroke-width="1" stroke-dasharray="4,4" opacity="0.5"/>
  <text x="50" y="208.0" text-anchor="end" dominant-baseline="middle" font-size="10" fill="#888">40%</text>
  <line x1="60" y1="152.0" x2="760" y2="152.0" stroke="#333" stroke-width="1" stroke-dasharray="4,4" opacity="0.5"/>
  <text x="50" y="152.0" text-anchor="end" dominant-baseline="middle" font-size="10" fill="#888">60%</text>
  <line x1="60" y1="96.0" x2="760" y2="96.0" stroke="#333" stroke-width="1" stroke-dasharray="4,4" opacity="0.5"/>
  <text x="50" y="96.0" text-anchor="end" dominant-baseline="middle" font-size="10" fill="#888">80%</text>
  <line x1="60" y1="40.0" x2="760" y2="40.0" stroke="#333" stroke-width="1" stroke-dasharray="4,4" opacity="0.5"/>
  <text x="50" y="40.0" text-anchor="end" dominant-baseline="middle" font-size="10" fill="#888">100%</text>

  <!-- Referans çizgileri -->
  <line x1="60" y1="236.0" x2="760" y2="236.0" stroke="#ef4444" stroke-width="1" stroke-dasharray="2,2" opacity="0.7"/>
  <text x="745" y="236.0" dominant-baseline="middle" font-size="9" fill="#ef4444">Kritik (30%)</text>
  <line x1="60" y1="180.0" x2="760" y2="180.0" stroke="#eab308" stroke-width="1" stroke-dasharray="2,2" opacity="0.7"/>
  <text x="745" y="180.0" dominant-baseline="middle" font-size="9" fill="#eab308">Normal (50%)</text>

  <!-- Toplam doluluk -->
  <polyline points="60.0,193.2 74.9,192.5 89.8,192.0 104.7,191.6 119.6,191.1 134.5,190.8 149.4,190.4 164.3,190.1 179.1,189.6 194.0,188.8 208.9,187.8 223.8,187.0 238.7,186.2 253.6,185.6 268.5,185.0 283.4,184.3 298.3,183.6 313.2,183.2 328.1,182.9 343.0,182.7 357.9,182.7 372.8,182.4 387.7,182.3 402.6,182.3 417.4,182.2 432.3,182.2 447.2,182.2 462.1,182.2 477.0,182.3 491.9,182.4 506.8,182.5 521.7,182.6 536.6,182.7 551.5,182.9 566.4,183.1 581.3,183.2 596.2,183.3 611.1,183.4 626.0,183.5 640.9,183.7 655.7,183.9 670.6,184.2 685.5,184.4 700.4,184.7 715.3,185.0 730.2,185.3 745.1,185.6 760.0,186.0" fill="none" stroke="#22c55e" stroke-width="2.5" stroke-linecap="round" stroke-linejoin="round"/>
  <polyline points="60.0,193.2 74.9,192.5 89.8,192.0 104.7,191.6 119.6,191.1 134.5,190.8 149.4,190.4 164.3,190.1 179.1,189.6 194.0,188.8 208.9,187.8 223.8,187.0 238.7,186.2 253.6,185.6 268.5,185.0 283.4,184.3 298.3,183.6 313.2,183.2 328.1,182.9 343.0,182.7 357.9,182.7 372.8,182.4 387.7,182.3 402.6,182.3 417.4,182.2 432.3,182.2 447.2,182.2 462.1,182.2 477.0,182.3 491.9,182.4 506.8,182.5 521.7,182.6 536.6,182.7 551.5,182.9 566.4,183.1 581.3,183.2 596.2,183.3 611.1,183.4 626.0,183.5 640.9,183.7 655.7,183.9 670.6,184.2 685.5,184.4 700.4,184.7 715.3,185.0 730.2,185.3 745.1,185.6 760.0,186.0" fill="none" stroke="#22c55e" stroke-width="5" opacity="0.1" stroke-linecap="round" stroke-linejoin="round"/>

  <!-- Aktif doluluk -->
  <polyline points="60.0,211.1 74.9,210.2 89.8,209.7 104.7,209.2 119.6,208.7 134.5,208.3 149.4,207.9 164.3,207.5 179.1,207.0 194.0,206.2 208.9,205.0 223.8,204.1 238.7,203.2 253.6,202.5 268.5,201.9 283.4,201.0 298.3,200.3 313.2,199.9 328.1,199.6 343.0,199.4 357.9,199.3 372.8,199.0 387.7,198.9 402.6,198.9 417.4,198.7 432.3,198.7 447.2,198.8 462.1,198.8 477.0,198.8 491.9,198.9 506.8,199.0 521.7,199.2 536.6,199.4 551.5,199.5 566.4,199.7 581.3,199.8 596.2,200.0 611.1,200.1 626.0,200.2 640.9,200.4 655.7,200.7 670.6,201.0 685.5,201.3 700.4,201.6 715.3,201.8 730.2,202.2 745.1,202.6 760.0,203.0" fill="none" stroke="#3b82f6" stroke-width="2.5" stroke-linecap="round" stroke-linejoin="round"/>
  <polyline points="60.0,211.1 74.9,210.2 89.8,209.7 104.7,209.2 119.6,208.7 134.5,208.3 149.4,207.9 164.3,207.5 179.1,207.0 194.0,206.2 208.9,205.0 223.8,204.1 238.7,203.2 253.6,202.5 268.5,201.9 283.4,201.0 298.3,200.3 313.2,199.9 328.1,199.6 343.0,199.4 357.9,199.3 372.8,199.0 387.7,198.9 402.6,198.9 417.4,198.7 432.3,198.7 447.2,198.8 462.1,198.8 477.0,198.8 491.9,198.9 506.8,199.0 521.7,199.2 536.6,199.4 551.5,199.5 566.4,199.7 581.3,199.8 596.2,200.0 611.1,200.1 626.0,200.2 640.9,200.4 655.7,200.7 670.6,201.0 685.5,201.3 700.4,201.6 715.3,201.8 730.2,202.2 745.1,202.6 760.0,203.0" fill="none" stroke="#3b82f6" stroke-width="5" opacity="0.1" stroke-linecap="round" stroke-linejoin="round"/>

  <!-- Noktalar -->
  <circle cx="60.0" cy="193.2" r="3" fill="#22c55e"/><circle cx="74.9" cy="192.5" r="3" fill="#22c55e"/><circle cx="89.8" cy="192.0" r="3" fill="#22c55e"/><circle cx="104.7" cy="191.6" r="3" fill="#22c55e"/><circle cx="119.6" cy="191.1" r="3" fill="#22c55e"/><circle cx="134.5" cy="190.8" r="3" fill="#22c55e"/><circle cx="149.4" cy="190.4" r="3" fill="#22c55e"/><circle cx="164.3" cy="190.1" r="3" fill="#22c55e"/><circle cx="179.1" cy="189.6" r="3" fill="#22c55e"/><circle cx="194.0" cy="188.8" r="3" fill="#22c55e"/><circle cx="208.9" cy="187.8" r="3" fill="#22c55e"/><circle cx="223.8" cy="187.0" r="3" fill="#22c55e"/><circle cx="238.7" cy="186.2" r="3" fill="#22c55e"/><circle cx="253.6" cy="185.6" r="3" fill="#22c55e"/><circle cx="268.5" cy="185.0" r="3" fill="#22c55e"/><circle cx="283.4" cy="184.3" r="3" fill="#22c55e"/><circle cx="298.3" cy="183.6" r="3" fill="#22c55e"/><circle cx="313.2" cy="183.2" r="3" fill="#22c55e"/><circle cx="328.1" cy="182.9" r="3" fill="#22c55e"/><circle cx="343.0" cy="182.7" r="3" fill="#22c55e"/><circle cx="357.9" cy="182.7" r="3" fill="#22c55e"/><circle cx="372.8" cy="182.4" r="3" fill="#22c55e"/><circle cx="387.7" cy="182.3" r="3" fill="#22c55e"/><circle cx="402.6" cy="182.3" r="3" fill="#22c55e"/><circle cx="417.4" cy="182.2" r="3" fill="#22c55e"/><circle cx="432.3" cy="182.2" r="3" fill="#22c55e"/><circle cx="447.2" cy="182.2" r="3" fill="#22c55e"/><circle cx="462.1" cy="182.2" r="3" fill="#22c55e"/><circle cx="477.0" cy="182.3" r="3" fill="#22c55e"/><circle cx="491.9" cy="182.4" r="3" fill="#22c55e"/><circle cx="506.8" cy="182.5" r="3" fill="#22c55e"/><circle cx="521.7" cy="182.6" r="3" fill="#22c55e"/><circle cx="536.6" cy="182.7" r="3" fill="#22c55e"/><circle cx="551.5" cy="182.9" r="3" fill="#22c55e"/><circle cx="566.4" cy="183.1" r="3" fill="#22c55e"/><circle cx="581.3" cy="183.2" r="3" fill="#22c55e"/><circle cx="596.2" cy="183.3" r="3" fill="#22c55e"/><circle cx="611.1" cy="183.4" r="3" fill="#22c55e"/><circle cx="626.0" cy="183.5" r="3" fill="#22c55e"/><circle cx="640.9" cy="183.7" r="3" fill="#22c55e"/><circle cx="655.7" cy="183.9" r="3" fill="#22c55e"/><circle cx="670.6" cy="184.2" r="3" fill="#22c55e"/><circle cx="685.5" cy="184.4" r="3" fill="#22c55e"/><circle cx="700.4" cy="184.7" r="3" fill="#22c55e"/><circle cx="715.3" cy="185.0" r="3" fill="#22c55e"/><circle cx="730.2" cy="185.3" r="3" fill="#22c55e"/><circle cx="745.1" cy="185.6" r="3" fill="#22c55e"/><circle cx="760.0" cy="186.0" r="3" fill="#22c55e"/>
  <circle cx="60.0" cy="211.1" r="3" fill="#3b82f6"/><circle cx="74.9" cy="210.2" r="3" fill="#3b82f6"/><circle cx="89.8" cy="209.7" r="3" fill="#3b82f6"/><circle cx="104.7" cy="209.2" r="3" fill="#3b82f6"/><circle cx="119.6" cy="208.7" r="3" fill="#3b82f6"/><circle cx="134.5" cy="208.3" r="3" fill="#3b82f6"/><circle cx="149.4" cy="207.9" r="3" fill="#3b82f6"/><circle cx="164.3" cy="207.5" r="3" fill="#3b82f6"/><circle cx="179.1" cy="207.0" r="3" fill="#3b82f6"/><circle cx="194.0" cy="206.2" r="3" fill="#3b82f6"/><circle cx="208.9" cy="205.0" r="3" fill="#3b82f6"/><circle cx="223.8" cy="204.1" r="3" fill="#3b82f6"/><circle cx="238.7" cy="203.2" r="3" fill="#3b82f6"/><circle cx="253.6" cy="202.5" r="3" fill="#3b82f6"/><circle cx="268.5" cy="201.9" r="3" fill="#3b82f6"/><circle cx="283.4" cy="201.0" r="3" fill="#3b82f6"/><circle cx="298.3" cy="200.3" r="3" fill="#3b82f6"/><circle cx="313.2" cy="199.9" r="3" fill="#3b82f6"/><circle cx="328.1" cy="199.6" r="3" fill="#3b82f6"/><circle cx="343.0" cy="199.4" r="3" fill="#3b82f6"/><circle cx="357.9" cy="199.3" r="3" fill="#3b82f6"/><circle cx="372.8" cy="199.0" r="3" fill="#3b82f6"/><circle cx="387.7" cy="198.9" r="3" fill="#3b82f6"/><circle cx="402.6" cy="198.9" r="3" fill="#3b82f6"/><circle cx="417.4" cy="198.7" r="3" fill="#3b82f6"/><circle cx="432.3" cy="198.7" r="3" fill="#3b82f6"/><circle cx="447.2" cy="198.8" r="3" fill="#3b82f6"/><circle cx="462.1" cy="198.8" r="3" fill="#3b82f6"/><circle cx="477.0" cy="198.8" r="3" fill="#3b82f6"/><circle cx="491.9" cy="198.9" r="3" fill="#3b82f6"/><circle cx="506.8" cy="199.0" r="3" fill="#3b82f6"/><circle cx="521.7" cy="199.2" r="3" fill="#3b82f6"/><circle cx="536.6" cy="199.4" r="3" fill="#3b82f6"/><circle cx="551.5" cy="199.5" r="3" fill="#3b82f6"/><circle cx="566.4" cy="199.7" r="3" fill="#3b82f6"/><circle cx="581.3" cy="199.8" r="3" fill="#3b82f6"/><circle cx="596.2" cy="200.0" r="3" fill="#3b82f6"/><circle cx="611.1" cy="200.1" r="3" fill="#3b82f6"/><circle cx="626.0" cy="200.2" r="3" fill="#3b82f6"/><circle cx="640.9" cy="200.4" r="3" fill="#3b82f6"/><circle cx="655.7" cy="200.7" r="3" fill="#3b82f6"/><circle cx="670.6" cy="201.0" r="3" fill="#3b82f6"/><circle cx="685.5" cy="201.3" r="3" fill="#3b82f6"/><circle cx="700.4" cy="201.6" r="3" fill="#3b82f6"/><circle cx="715.3" cy="201.8" r="3" fill="#3b82f6"/><circle cx="730.2" cy="202.2" r="3" fill="#3b82f6"/><circle cx="745.1" cy="202.6" r="3" fill="#3b82f6"/><circle cx="760.0" cy="203.0" r="3" fill="#3b82f6"/>

  <!-- X ekseni -->
  <text x="60.0" y="380" text-anchor="middle" font-size="10" fill="#888">14.05.2026</text>
  <text x="179.1" y="380" text-anchor="middle" font-size="10" fill="#888">22.05.2026</text>
  <text x="298.3" y="380" text-anchor="middle" font-size="10" fill="#888">30.05.2026</text>
  <text x="417.4" y="380" text-anchor="middle" font-size="10" fill="#888">07.06.2026</text>
  <text x="536.6" y="380" text-anchor="middle" font-size="10" fill="#888">15.06.2026</text>
  <text x="655.7" y="380" text-anchor="middle" font-size="10" fill="#888">23.06.2026</text>

  <!-- Legend -->
  <g transform="translate(60, 345)">
    <rect x="0" y="0" width="12" height="12" fill="#22c55e" rx="2"/>
    <text x="18" y="10" font-size="11" fill="#c9d1d9">Toplam Doluluk</text>
    <rect x="140" y="0" width="12" height="12" fill="#3b82f6" rx="2"/>
    <text x="158" y="10" font-size="11" fill="#c9d1d9">Aktif Doluluk</text>
  </g>
</svg>