<svg xmlns="http://www.w3.org/2000/svg" viewBox="0 0 800 400" width="100%" style="max-width:800px;">
  <rect width="800" height="400" fill="#0d1117" rx="6"/>
  <text x="400.0" y="25" text-anchor="middle" font-size="16" font-weight="bold" fill="#c9d1d9">Son 90 Gün - Günlük Ortalama</text>

  <!-- Y grid -->
  <line x1="60" y1="320.0" x2="760" y2="320.0" stroke="#333" stroke-width="1" stroke-dasharray="4,4" opacity="0.5"/>
  <text x="50" y="320.0" text-anchor="end" dominant-baseline="middle" font-size="10" fill="#888">0%</text>
  <line x1="60" y1="264.0" x2="760" y2="264.0" stroke="#333" stroke-width="1" stroke-dasharray="4,4" opacity="0.5"/>
  <text x="50" y="264.0" text-anchor="end" dominant-baseline="middle" font-size="10" fill="#888">20%</text>
  <line x1="60" y1="208.0" x2="760" y2="208.0" stroke="#333" stroke-width="1" stroke-dasharray="4,4" opacity="0.5"/>
  <text x="50" y="208.0" text-anchor="end" dominant-baseline="middle" font-size="10" fill="#888">40%</text>
  <line x1="60" y1="152.0" x2="760" y2="152.0" stroke="#333" stroke-width="1" stroke-dasharray="4,4" opacity="0.5"/>
  <text x="50" y="152.0" text-anchor="end" dominant-baseline="middle" font-size="10" fill="#888">60%</text>
  <line x1="60" y1="96.0" x2="760" y2="96.0" stroke="#333" stroke-width="1" stroke-dasharray="4,4" opacity="0.5"/>
  <text x="50" y="96.0" text-anchor="end" dominant-baseline="middle" font-size="10" fill="#888">80%</text>
  <line x1="60" y1="40.0" x2="760" y2="40.0" stroke="#333" stroke-width="1" stroke-dasharray="4,4" opacity="0.5"/>
  <text x="50" y="40.0" text-anchor="end" dominant-baseline="middle" font-size="10" fill="#888">100%</text>

  <!-- Referans çizgileri -->
  <line x1="60" y1="236.0" x2="760" y2="236.0" stroke="#ef4444" stroke-width="1" stroke-dasharray="2,2" opacity="0.7"/>
  <text x="745" y="236.0" dominant-baseline="middle" font-size="9" fill="#ef4444">Kritik (30%)</text>
  <line x1="60" y1="180.0" x2="760" y2="180.0" stroke="#eab308" stroke-width="1" stroke-dasharray="2,2" opacity="0.7"/>
  <text x="745" y="180.0" dominant-baseline="middle" font-size="9" fill="#eab308">Normal (50%)</text>

  <!-- Toplam doluluk -->
  <polyline points="60.0,193.2 82.6,192.5 105.2,192.0 127.7,191.6 150.3,191.1 172.9,190.8 195.5,190.4 218.1,190.1 240.6,189.6 263.2,188.8 285.8,187.8 308.4,187.0 331.0,186.2 353.5,185.6 376.1,185.0 398.7,184.3 421.3,183.6 443.9,183.2 466.5,182.9 489.0,182.7 511.6,182.7 534.2,182.4 556.8,182.3 579.4,182.3 601.9,182.2 624.5,182.2 647.1,182.2 669.7,182.2 692.3,182.3 714.8,182.4 737.4,182.5 760.0,182.6" fill="none" stroke="#22c55e" stroke-width="2.5" stroke-linecap="round" stroke-linejoin="round"/>
  <polyline points="60.0,193.2 82.6,192.5 105.2,192.0 127.7,191.6 150.3,191.1 172.9,190.8 195.5,190.4 218.1,190.1 240.6,189.6 263.2,188.8 285.8,187.8 308.4,187.0 331.0,186.2 353.5,185.6 376.1,185.0 398.7,184.3 421.3,183.6 443.9,183.2 466.5,182.9 489.0,182.7 511.6,182.7 534.2,182.4 556.8,182.3 579.4,182.3 601.9,182.2 624.5,182.2 647.1,182.2 669.7,182.2 692.3,182.3 714.8,182.4 737.4,182.5 760.0,182.6" fill="none" stroke="#22c55e" stroke-width="5" opacity="0.1" stroke-linecap="round" stroke-linejoin="round"/>

  <!-- Aktif doluluk -->
  <polyline points="60.0,211.1 82.6,210.2 105.2,209.7 127.7,209.2 150.3,208.7 172.9,208.3 195.5,207.9 218.1,207.5 240.6,207.0 263.2,206.2 285.8,205.0 308.4,204.1 331.0,203.2 353.5,202.5 376.1,201.9 398.7,201.0 421.3,200.3 443.9,199.9 466.5,199.6 489.0,199.4 511.6,199.3 534.2,199.0 556.8,198.9 579.4,198.9 601.9,198.7 624.5,198.7 647.1,198.8 669.7,198.8 692.3,198.8 714.8,198.9 737.4,199.0 760.0,199.2" fill="none" stroke="#3b82f6" stroke-width="2.5" stroke-linecap="round" stroke-linejoin="round"/>
  <polyline points="60.0,211.1 82.6,210.2 105.2,209.7 127.7,209.2 150.3,208.7 172.9,208.3 195.5,207.9 218.1,207.5 240.6,207.0 263.2,206.2 285.8,205.0 308.4,204.1 331.0,203.2 353.5,202.5 376.1,201.9 398.7,201.0 421.3,200.3 443.9,199.9 466.5,199.6 489.0,199.4 511.6,199.3 534.2,199.0 556.8,198.9 579.4,198.9 601.9,198.7 624.5,198.7 647.1,198.8 669.7,198.8 692.3,198.8 714.8,198.9 737.4,199.0 760.0,199.2" fill="none" stroke="#3b82f6" stroke-width="5" opacity="0.1" stroke-linecap="round" stroke-linejoin="round"/>

  <!-- Noktalar -->
  <circle cx="60.0" cy="193.2" r="3" fill="#22c55e"/><circle cx="82.6" cy="192.5" r="3" fill="#22c55e"/><circle cx="105.2" cy="192.0" r="3" fill="#22c55e"/><circle cx="127.7" cy="191.6" r="3" fill="#22c55e"/><circle cx="150.3" cy="191.1" r="3" fill="#22c55e"/><circle cx="172.9" cy="190.8" r="3" fill="#22c55e"/><circle cx="195.5" cy="190.4" r="3" fill="#22c55e"/><circle cx="218.1" cy="190.1" r="3" fill="#22c55e"/><circle cx="240.6" cy="189.6" r="3" fill="#22c55e"/><circle cx="263.2" cy="188.8" r="3" fill="#22c55e"/><circle cx="285.8" cy="187.8" r="3" fill="#22c55e"/><circle cx="308.4" cy="187.0" r="3" fill="#22c55e"/><circle cx="331.0" cy="186.2" r="3" fill="#22c55e"/><circle cx="353.5" cy="185.6" r="3" fill="#22c55e"/><circle cx="376.1" cy="185.0" r="3" fill="#22c55e"/><circle cx="398.7" cy="184.3" r="3" fill="#22c55e"/><circle cx="421.3" cy="183.6" r="3" fill="#22c55e"/><circle cx="443.9" cy="183.2" r="3" fill="#22c55e"/><circle cx="466.5" cy="182.9" r="3" fill="#22c55e"/><circle cx="489.0" cy="182.7" r="3" fill="#22c55e"/><circle cx="511.6" cy="182.7" r="3" fill="#22c55e"/><circle cx="534.2" cy="182.4" r="3" fill="#22c55e"/><circle cx="556.8" cy="182.3" r="3" fill="#22c55e"/><circle cx="579.4" cy="182.3" r="3" fill="#22c55e"/><circle cx="601.9" cy="182.2" r="3" fill="#22c55e"/><circle cx="624.5" cy="182.2" r="3" fill="#22c55e"/><circle cx="647.1" cy="182.2" r="3" fill="#22c55e"/><circle cx="669.7" cy="182.2" r="3" fill="#22c55e"/><circle cx="692.3" cy="182.3" r="3" fill="#22c55e"/><circle cx="714.8" cy="182.4" r="3" fill="#22c55e"/><circle cx="737.4" cy="182.5" r="3" fill="#22c55e"/><circle cx="760.0" cy="182.6" r="3" fill="#22c55e"/>
  <circle cx="60.0" cy="211.1" r="3" fill="#3b82f6"/><circle cx="82.6" cy="210.2" r="3" fill="#3b82f6"/><circle cx="105.2" cy="209.7" r="3" fill="#3b82f6"/><circle cx="127.7" cy="209.2" r="3" fill="#3b82f6"/><circle cx="150.3" cy="208.7" r="3" fill="#3b82f6"/><circle cx="172.9" cy="208.3" r="3" fill="#3b82f6"/><circle cx="195.5" cy="207.9" r="3" fill="#3b82f6"/><circle cx="218.1" cy="207.5" r="3" fill="#3b82f6"/><circle cx="240.6" cy="207.0" r="3" fill="#3b82f6"/><circle cx="263.2" cy="206.2" r="3" fill="#3b82f6"/><circle cx="285.8" cy="205.0" r="3" fill="#3b82f6"/><circle cx="308.4" cy="204.1" r="3" fill="#3b82f6"/><circle cx="331.0" cy="203.2" r="3" fill="#3b82f6"/><circle cx="353.5" cy="202.5" r="3" fill="#3b82f6"/><circle cx="376.1" cy="201.9" r="3" fill="#3b82f6"/><circle cx="398.7" cy="201.0" r="3" fill="#3b82f6"/><circle cx="421.3" cy="200.3" r="3" fill="#3b82f6"/><circle cx="443.9" cy="199.9" r="3" fill="#3b82f6"/><circle cx="466.5" cy="199.6" r="3" fill="#3b82f6"/><circle cx="489.0" cy="199.4" r="3" fill="#3b82f6"/><circle cx="511.6" cy="199.3" r="3" fill="#3b82f6"/><circle cx="534.2" cy="199.0" r="3" fill="#3b82f6"/><circle cx="556.8" cy="198.9" r="3" fill="#3b82f6"/><circle cx="579.4" cy="198.9" r="3" fill="#3b82f6"/><circle cx="601.9" cy="198.7" r="3" fill="#3b82f6"/><circle cx="624.5" cy="198.7" r="3" fill="#3b82f6"/><circle cx="647.1" cy="198.8" r="3" fill="#3b82f6"/><circle cx="669.7" cy="198.8" r="3" fill="#3b82f6"/><circle cx="692.3" cy="198.8" r="3" fill="#3b82f6"/><circle cx="714.8" cy="198.9" r="3" fill="#3b82f6"/><circle cx="737.4" cy="199.0" r="3" fill="#3b82f6"/><circle cx="760.0" cy="199.2" r="3" fill="#3b82f6"/>

  <!-- X ekseni -->
  <text x="60.0" y="380" text-anchor="middle" font-size="10" fill="#888">14.05.2026</text>
  <text x="172.9" y="380" text-anchor="middle" font-size="10" fill="#888">19.05.2026</text>
  <text x="285.8" y="380" text-anchor="middle" font-size="10" fill="#888">24.05.2026</text>
  <text x="398.7" y="380" text-anchor="middle" font-size="10" fill="#888">29.05.2026</text>
  <text x="511.6" y="380" text-anchor="middle" font-size="10" fill="#888">03.06.2026</text>
  <text x="624.5" y="380" text-anchor="middle" font-size="10" fill="#888">08.06.2026</text>
  <text x="737.4" y="380" text-anchor="middle" font-size="10" fill="#888">13.06.2026</text>

  <!-- Legend -->
  <g transform="translate(60, 345)">
    <rect x="0" y="0" width="12" height="12" fill="#22c55e" rx="2"/>
    <text x="18" y="10" font-size="11" fill="#c9d1d9">Toplam Doluluk</text>
    <rect x="140" y="0" width="12" height="12" fill="#3b82f6" rx="2"/>
    <text x="158" y="10" font-size="11" fill="#c9d1d9">Aktif Doluluk</text>
  </g>
</svg>