<svg xmlns="http://www.w3.org/2000/svg" viewBox="0 0 900 400" width="100%" style="max-width:900px;">
  <rect width="900" height="400" fill="#0d1117" rx="6"/>
  <text x="450.0" y="25" text-anchor="middle" font-size="16" font-weight="bold" fill="#c9d1d9">Son 180 Gün - Günlük Ortalama</text>

  <!-- Y grid -->
  <line x1="60" y1="320.0" x2="860" y2="320.0" stroke="#333" stroke-width="1" stroke-dasharray="4,4" opacity="0.5"/>
  <text x="50" y="320.0" text-anchor="end" dominant-baseline="middle" font-size="10" fill="#888">0%</text>
  <line x1="60" y1="264.0" x2="860" y2="264.0" stroke="#333" stroke-width="1" stroke-dasharray="4,4" opacity="0.5"/>
  <text x="50" y="264.0" text-anchor="end" dominant-baseline="middle" font-size="10" fill="#888">20%</text>
  <line x1="60" y1="208.0" x2="860" y2="208.0" stroke="#333" stroke-width="1" stroke-dasharray="4,4" opacity="0.5"/>
  <text x="50" y="208.0" text-anchor="end" dominant-baseline="middle" font-size="10" fill="#888">40%</text>
  <line x1="60" y1="152.0" x2="860" y2="152.0" stroke="#333" stroke-width="1" stroke-dasharray="4,4" opacity="0.5"/>
  <text x="50" y="152.0" text-anchor="end" dominant-baseline="middle" font-size="10" fill="#888">60%</text>
  <line x1="60" y1="96.0" x2="860" y2="96.0" stroke="#333" stroke-width="1" stroke-dasharray="4,4" opacity="0.5"/>
  <text x="50" y="96.0" text-anchor="end" dominant-baseline="middle" font-size="10" fill="#888">80%</text>
  <line x1="60" y1="40.0" x2="860" y2="40.0" stroke="#333" stroke-width="1" stroke-dasharray="4,4" opacity="0.5"/>
  <text x="50" y="40.0" text-anchor="end" dominant-baseline="middle" font-size="10" fill="#888">100%</text>

  <!-- Referans çizgileri -->
  <line x1="60" y1="236.0" x2="860" y2="236.0" stroke="#ef4444" stroke-width="1" stroke-dasharray="2,2" opacity="0.7"/>
  <text x="845" y="236.0" dominant-baseline="middle" font-size="9" fill="#ef4444">Kritik (30%)</text>
  <line x1="60" y1="180.0" x2="860" y2="180.0" stroke="#eab308" stroke-width="1" stroke-dasharray="2,2" opacity="0.7"/>
  <text x="845" y="180.0" dominant-baseline="middle" font-size="9" fill="#eab308">Normal (50%)</text>

  <!-- Toplam doluluk -->
  <polyline points="60.0,193.2 72.7,192.5 85.4,192.0 98.1,191.6 110.8,191.1 123.5,190.8 136.2,190.4 148.9,190.1 161.6,189.6 174.3,188.8 187.0,187.8 199.7,187.0 212.4,186.2 225.1,185.6 237.8,185.0 250.5,184.3 263.2,183.6 275.9,183.2 288.6,182.9 301.3,182.7 314.0,182.7 326.7,182.4 339.4,182.3 352.1,182.3 364.8,182.2 377.5,182.2 390.2,182.2 402.9,182.2 415.6,182.3 428.3,182.4 441.0,182.5 453.7,182.6 466.3,182.7 479.0,182.9 491.7,183.1 504.4,183.2 517.1,183.3 529.8,183.4 542.5,183.5 555.2,183.7 567.9,183.9 580.6,184.2 593.3,184.4 606.0,184.7 618.7,185.0 631.4,185.3 644.1,185.6 656.8,186.0 669.5,186.3 682.2,186.6 694.9,187.0 707.6,187.3 720.3,187.6 733.0,188.0 745.7,188.3 758.4,188.6 771.1,189.0 783.8,189.3 796.5,189.6 809.2,189.9 821.9,190.2 834.6,190.5 847.3,190.8 860.0,191.1" fill="none" stroke="#22c55e" stroke-width="2.5" stroke-linecap="round" stroke-linejoin="round"/>
  <polyline points="60.0,193.2 72.7,192.5 85.4,192.0 98.1,191.6 110.8,191.1 123.5,190.8 136.2,190.4 148.9,190.1 161.6,189.6 174.3,188.8 187.0,187.8 199.7,187.0 212.4,186.2 225.1,185.6 237.8,185.0 250.5,184.3 263.2,183.6 275.9,183.2 288.6,182.9 301.3,182.7 314.0,182.7 326.7,182.4 339.4,182.3 352.1,182.3 364.8,182.2 377.5,182.2 390.2,182.2 402.9,182.2 415.6,182.3 428.3,182.4 441.0,182.5 453.7,182.6 466.3,182.7 479.0,182.9 491.7,183.1 504.4,183.2 517.1,183.3 529.8,183.4 542.5,183.5 555.2,183.7 567.9,183.9 580.6,184.2 593.3,184.4 606.0,184.7 618.7,185.0 631.4,185.3 644.1,185.6 656.8,186.0 669.5,186.3 682.2,186.6 694.9,187.0 707.6,187.3 720.3,187.6 733.0,188.0 745.7,188.3 758.4,188.6 771.1,189.0 783.8,189.3 796.5,189.6 809.2,189.9 821.9,190.2 834.6,190.5 847.3,190.8 860.0,191.1" fill="none" stroke="#22c55e" stroke-width="5" opacity="0.1" stroke-linecap="round" stroke-linejoin="round"/>

  <!-- Aktif doluluk -->
  <polyline points="60.0,211.1 72.7,210.2 85.4,209.7 98.1,209.2 110.8,208.7 123.5,208.3 136.2,207.9 148.9,207.5 161.6,207.0 174.3,206.2 187.0,205.0 199.7,204.1 212.4,203.2 225.1,202.5 237.8,201.9 250.5,201.0 263.2,200.3 275.9,199.9 288.6,199.6 301.3,199.4 314.0,199.3 326.7,199.0 339.4,198.9 352.1,198.9 364.8,198.7 377.5,198.7 390.2,198.8 402.9,198.8 415.6,198.8 428.3,198.9 441.0,199.0 453.7,199.2 466.3,199.4 479.0,199.5 491.7,199.7 504.4,199.8 517.1,200.0 529.8,200.1 542.5,200.2 555.2,200.4 567.9,200.7 580.6,201.0 593.3,201.3 606.0,201.6 618.7,201.8 631.4,202.2 644.1,202.6 656.8,203.0 669.5,203.3 682.2,203.7 694.9,204.1 707.6,204.4 720.3,204.8 733.0,205.2 745.7,205.5 758.4,205.9 771.1,206.3 783.8,206.7 796.5,207.0 809.2,207.4 821.9,207.7 834.6,208.0 847.3,208.3 860.0,208.7" fill="none" stroke="#3b82f6" stroke-width="2.5" stroke-linecap="round" stroke-linejoin="round"/>
  <polyline points="60.0,211.1 72.7,210.2 85.4,209.7 98.1,209.2 110.8,208.7 123.5,208.3 136.2,207.9 148.9,207.5 161.6,207.0 174.3,206.2 187.0,205.0 199.7,204.1 212.4,203.2 225.1,202.5 237.8,201.9 250.5,201.0 263.2,200.3 275.9,199.9 288.6,199.6 301.3,199.4 314.0,199.3 326.7,199.0 339.4,198.9 352.1,198.9 364.8,198.7 377.5,198.7 390.2,198.8 402.9,198.8 415.6,198.8 428.3,198.9 441.0,199.0 453.7,199.2 466.3,199.4 479.0,199.5 491.7,199.7 504.4,199.8 517.1,200.0 529.8,200.1 542.5,200.2 555.2,200.4 567.9,200.7 580.6,201.0 593.3,201.3 606.0,201.6 618.7,201.8 631.4,202.2 644.1,202.6 656.8,203.0 669.5,203.3 682.2,203.7 694.9,204.1 707.6,204.4 720.3,204.8 733.0,205.2 745.7,205.5 758.4,205.9 771.1,206.3 783.8,206.7 796.5,207.0 809.2,207.4 821.9,207.7 834.6,208.0 847.3,208.3 860.0,208.7" fill="none" stroke="#3b82f6" stroke-width="5" opacity="0.1" stroke-linecap="round" stroke-linejoin="round"/>

  <!-- Noktalar -->
  <circle cx="60.0" cy="193.2" r="3" fill="#22c55e"/><circle cx="72.7" cy="192.5" r="3" fill="#22c55e"/><circle cx="85.4" cy="192.0" r="3" fill="#22c55e"/><circle cx="98.1" cy="191.6" r="3" fill="#22c55e"/><circle cx="110.8" cy="191.1" r="3" fill="#22c55e"/><circle cx="123.5" cy="190.8" r="3" fill="#22c55e"/><circle cx="136.2" cy="190.4" r="3" fill="#22c55e"/><circle cx="148.9" cy="190.1" r="3" fill="#22c55e"/><circle cx="161.6" cy="189.6" r="3" fill="#22c55e"/><circle cx="174.3" cy="188.8" r="3" fill="#22c55e"/><circle cx="187.0" cy="187.8" r="3" fill="#22c55e"/><circle cx="199.7" cy="187.0" r="3" fill="#22c55e"/><circle cx="212.4" cy="186.2" r="3" fill="#22c55e"/><circle cx="225.1" cy="185.6" r="3" fill="#22c55e"/><circle cx="237.8" cy="185.0" r="3" fill="#22c55e"/><circle cx="250.5" cy="184.3" r="3" fill="#22c55e"/><circle cx="263.2" cy="183.6" r="3" fill="#22c55e"/><circle cx="275.9" cy="183.2" r="3" fill="#22c55e"/><circle cx="288.6" cy="182.9" r="3" fill="#22c55e"/><circle cx="301.3" cy="182.7" r="3" fill="#22c55e"/><circle cx="314.0" cy="182.7" r="3" fill="#22c55e"/><circle cx="326.7" cy="182.4" r="3" fill="#22c55e"/><circle cx="339.4" cy="182.3" r="3" fill="#22c55e"/><circle cx="352.1" cy="182.3" r="3" fill="#22c55e"/><circle cx="364.8" cy="182.2" r="3" fill="#22c55e"/><circle cx="377.5" cy="182.2" r="3" fill="#22c55e"/><circle cx="390.2" cy="182.2" r="3" fill="#22c55e"/><circle cx="402.9" cy="182.2" r="3" fill="#22c55e"/><circle cx="415.6" cy="182.3" r="3" fill="#22c55e"/><circle cx="428.3" cy="182.4" r="3" fill="#22c55e"/><circle cx="441.0" cy="182.5" r="3" fill="#22c55e"/><circle cx="453.7" cy="182.6" r="3" fill="#22c55e"/><circle cx="466.3" cy="182.7" r="3" fill="#22c55e"/><circle cx="479.0" cy="182.9" r="3" fill="#22c55e"/><circle cx="491.7" cy="183.1" r="3" fill="#22c55e"/><circle cx="504.4" cy="183.2" r="3" fill="#22c55e"/><circle cx="517.1" cy="183.3" r="3" fill="#22c55e"/><circle cx="529.8" cy="183.4" r="3" fill="#22c55e"/><circle cx="542.5" cy="183.5" r="3" fill="#22c55e"/><circle cx="555.2" cy="183.7" r="3" fill="#22c55e"/><circle cx="567.9" cy="183.9" r="3" fill="#22c55e"/><circle cx="580.6" cy="184.2" r="3" fill="#22c55e"/><circle cx="593.3" cy="184.4" r="3" fill="#22c55e"/><circle cx="606.0" cy="184.7" r="3" fill="#22c55e"/><circle cx="618.7" cy="185.0" r="3" fill="#22c55e"/><circle cx="631.4" cy="185.3" r="3" fill="#22c55e"/><circle cx="644.1" cy="185.6" r="3" fill="#22c55e"/><circle cx="656.8" cy="186.0" r="3" fill="#22c55e"/><circle cx="669.5" cy="186.3" r="3" fill="#22c55e"/><circle cx="682.2" cy="186.6" r="3" fill="#22c55e"/><circle cx="694.9" cy="187.0" r="3" fill="#22c55e"/><circle cx="707.6" cy="187.3" r="3" fill="#22c55e"/><circle cx="720.3" cy="187.6" r="3" fill="#22c55e"/><circle cx="733.0" cy="188.0" r="3" fill="#22c55e"/><circle cx="745.7" cy="188.3" r="3" fill="#22c55e"/><circle cx="758.4" cy="188.6" r="3" fill="#22c55e"/><circle cx="771.1" cy="189.0" r="3" fill="#22c55e"/><circle cx="783.8" cy="189.3" r="3" fill="#22c55e"/><circle cx="796.5" cy="189.6" r="3" fill="#22c55e"/><circle cx="809.2" cy="189.9" r="3" fill="#22c55e"/><circle cx="821.9" cy="190.2" r="3" fill="#22c55e"/><circle cx="834.6" cy="190.5" r="3" fill="#22c55e"/><circle cx="847.3" cy="190.8" r="3" fill="#22c55e"/><circle cx="860.0" cy="191.1" r="3" fill="#22c55e"/>
  <circle cx="60.0" cy="211.1" r="3" fill="#3b82f6"/><circle cx="72.7" cy="210.2" r="3" fill="#3b82f6"/><circle cx="85.4" cy="209.7" r="3" fill="#3b82f6"/><circle cx="98.1" cy="209.2" r="3" fill="#3b82f6"/><circle cx="110.8" cy="208.7" r="3" fill="#3b82f6"/><circle cx="123.5" cy="208.3" r="3" fill="#3b82f6"/><circle cx="136.2" cy="207.9" r="3" fill="#3b82f6"/><circle cx="148.9" cy="207.5" r="3" fill="#3b82f6"/><circle cx="161.6" cy="207.0" r="3" fill="#3b82f6"/><circle cx="174.3" cy="206.2" r="3" fill="#3b82f6"/><circle cx="187.0" cy="205.0" r="3" fill="#3b82f6"/><circle cx="199.7" cy="204.1" r="3" fill="#3b82f6"/><circle cx="212.4" cy="203.2" r="3" fill="#3b82f6"/><circle cx="225.1" cy="202.5" r="3" fill="#3b82f6"/><circle cx="237.8" cy="201.9" r="3" fill="#3b82f6"/><circle cx="250.5" cy="201.0" r="3" fill="#3b82f6"/><circle cx="263.2" cy="200.3" r="3" fill="#3b82f6"/><circle cx="275.9" cy="199.9" r="3" fill="#3b82f6"/><circle cx="288.6" cy="199.6" r="3" fill="#3b82f6"/><circle cx="301.3" cy="199.4" r="3" fill="#3b82f6"/><circle cx="314.0" cy="199.3" r="3" fill="#3b82f6"/><circle cx="326.7" cy="199.0" r="3" fill="#3b82f6"/><circle cx="339.4" cy="198.9" r="3" fill="#3b82f6"/><circle cx="352.1" cy="198.9" r="3" fill="#3b82f6"/><circle cx="364.8" cy="198.7" r="3" fill="#3b82f6"/><circle cx="377.5" cy="198.7" r="3" fill="#3b82f6"/><circle cx="390.2" cy="198.8" r="3" fill="#3b82f6"/><circle cx="402.9" cy="198.8" r="3" fill="#3b82f6"/><circle cx="415.6" cy="198.8" r="3" fill="#3b82f6"/><circle cx="428.3" cy="198.9" r="3" fill="#3b82f6"/><circle cx="441.0" cy="199.0" r="3" fill="#3b82f6"/><circle cx="453.7" cy="199.2" r="3" fill="#3b82f6"/><circle cx="466.3" cy="199.4" r="3" fill="#3b82f6"/><circle cx="479.0" cy="199.5" r="3" fill="#3b82f6"/><circle cx="491.7" cy="199.7" r="3" fill="#3b82f6"/><circle cx="504.4" cy="199.8" r="3" fill="#3b82f6"/><circle cx="517.1" cy="200.0" r="3" fill="#3b82f6"/><circle cx="529.8" cy="200.1" r="3" fill="#3b82f6"/><circle cx="542.5" cy="200.2" r="3" fill="#3b82f6"/><circle cx="555.2" cy="200.4" r="3" fill="#3b82f6"/><circle cx="567.9" cy="200.7" r="3" fill="#3b82f6"/><circle cx="580.6" cy="201.0" r="3" fill="#3b82f6"/><circle cx="593.3" cy="201.3" r="3" fill="#3b82f6"/><circle cx="606.0" cy="201.6" r="3" fill="#3b82f6"/><circle cx="618.7" cy="201.8" r="3" fill="#3b82f6"/><circle cx="631.4" cy="202.2" r="3" fill="#3b82f6"/><circle cx="644.1" cy="202.6" r="3" fill="#3b82f6"/><circle cx="656.8" cy="203.0" r="3" fill="#3b82f6"/><circle cx="669.5" cy="203.3" r="3" fill="#3b82f6"/><circle cx="682.2" cy="203.7" r="3" fill="#3b82f6"/><circle cx="694.9" cy="204.1" r="3" fill="#3b82f6"/><circle cx="707.6" cy="204.4" r="3" fill="#3b82f6"/><circle cx="720.3" cy="204.8" r="3" fill="#3b82f6"/><circle cx="733.0" cy="205.2" r="3" fill="#3b82f6"/><circle cx="745.7" cy="205.5" r="3" fill="#3b82f6"/><circle cx="758.4" cy="205.9" r="3" fill="#3b82f6"/><circle cx="771.1" cy="206.3" r="3" fill="#3b82f6"/><circle cx="783.8" cy="206.7" r="3" fill="#3b82f6"/><circle cx="796.5" cy="207.0" r="3" fill="#3b82f6"/><circle cx="809.2" cy="207.4" r="3" fill="#3b82f6"/><circle cx="821.9" cy="207.7" r="3" fill="#3b82f6"/><circle cx="834.6" cy="208.0" r="3" fill="#3b82f6"/><circle cx="847.3" cy="208.3" r="3" fill="#3b82f6"/><circle cx="860.0" cy="208.7" r="3" fill="#3b82f6"/>

  <!-- X ekseni -->
  <text x="60.0" y="380" text-anchor="middle" font-size="10" fill="#888">14.05.2026</text>
  <text x="187.0" y="380" text-anchor="middle" font-size="10" fill="#888">24.05.2026</text>
  <text x="314.0" y="380" text-anchor="middle" font-size="10" fill="#888">03.06.2026</text>
  <text x="441.0" y="380" text-anchor="middle" font-size="10" fill="#888">13.06.2026</text>
  <text x="567.9" y="380" text-anchor="middle" font-size="10" fill="#888">23.06.2026</text>
  <text x="694.9" y="380" text-anchor="middle" font-size="10" fill="#888">03.07.2026</text>
  <text x="821.9" y="380" text-anchor="middle" font-size="10" fill="#888">13.07.2026</text>

  <!-- Legend -->
  <g transform="translate(60, 345)">
    <rect x="0" y="0" width="12" height="12" fill="#22c55e" rx="2"/>
    <text x="18" y="10" font-size="11" fill="#c9d1d9">Toplam Doluluk</text>
    <rect x="140" y="0" width="12" height="12" fill="#3b82f6" rx="2"/>
    <text x="158" y="10" font-size="11" fill="#c9d1d9">Aktif Doluluk</text>
  </g>
</svg>