<svg xmlns="http://www.w3.org/2000/svg" viewBox="0 0 900 400" width="100%" style="max-width:900px;">
  <rect width="900" height="400" fill="#0d1117" rx="6"/>
  <text x="450.0" y="25" text-anchor="middle" font-size="16" font-weight="bold" fill="#c9d1d9">Son 360 Gün - Günlük Ortalama</text>

  <!-- Y grid -->
  <line x1="60" y1="320.0" x2="860" y2="320.0" stroke="#333" stroke-width="1" stroke-dasharray="4,4" opacity="0.5"/>
  <text x="50" y="320.0" text-anchor="end" dominant-baseline="middle" font-size="10" fill="#888">0%</text>
  <line x1="60" y1="264.0" x2="860" y2="264.0" stroke="#333" stroke-width="1" stroke-dasharray="4,4" opacity="0.5"/>
  <text x="50" y="264.0" text-anchor="end" dominant-baseline="middle" font-size="10" fill="#888">20%</text>
  <line x1="60" y1="208.0" x2="860" y2="208.0" stroke="#333" stroke-width="1" stroke-dasharray="4,4" opacity="0.5"/>
  <text x="50" y="208.0" text-anchor="end" dominant-baseline="middle" font-size="10" fill="#888">40%</text>
  <line x1="60" y1="152.0" x2="860" y2="152.0" stroke="#333" stroke-width="1" stroke-dasharray="4,4" opacity="0.5"/>
  <text x="50" y="152.0" text-anchor="end" dominant-baseline="middle" font-size="10" fill="#888">60%</text>
  <line x1="60" y1="96.0" x2="860" y2="96.0" stroke="#333" stroke-width="1" stroke-dasharray="4,4" opacity="0.5"/>
  <text x="50" y="96.0" text-anchor="end" dominant-baseline="middle" font-size="10" fill="#888">80%</text>
  <line x1="60" y1="40.0" x2="860" y2="40.0" stroke="#333" stroke-width="1" stroke-dasharray="4,4" opacity="0.5"/>
  <text x="50" y="40.0" text-anchor="end" dominant-baseline="middle" font-size="10" fill="#888">100%</text>

  <!-- Referans çizgileri -->
  <line x1="60" y1="236.0" x2="860" y2="236.0" stroke="#ef4444" stroke-width="1" stroke-dasharray="2,2" opacity="0.7"/>
  <text x="845" y="236.0" dominant-baseline="middle" font-size="9" fill="#ef4444">Kritik (30%)</text>
  <line x1="60" y1="180.0" x2="860" y2="180.0" stroke="#eab308" stroke-width="1" stroke-dasharray="2,2" opacity="0.7"/>
  <text x="845" y="180.0" dominant-baseline="middle" font-size="9" fill="#eab308">Normal (50%)</text>

  <!-- Toplam doluluk -->
  <polyline points="60.0,193.2 73.6,192.5 87.1,192.0 100.7,191.6 114.2,191.1 127.8,190.8 141.4,190.4 154.9,190.1 168.5,189.6 182.0,188.8 195.6,187.8 209.2,187.0 222.7,186.2 236.3,185.6 249.8,185.0 263.4,184.3 276.9,183.6 290.5,183.2 304.1,182.9 317.6,182.7 331.2,182.7 344.7,182.4 358.3,182.3 371.9,182.3 385.4,182.2 399.0,182.2 412.5,182.2 426.1,182.2 439.7,182.3 453.2,182.4 466.8,182.5 480.3,182.6 493.9,182.7 507.5,182.9 521.0,183.1 534.6,183.2 548.1,183.3 561.7,183.4 575.3,183.5 588.8,183.7 602.4,183.9 615.9,184.2 629.5,184.4 643.1,184.7 656.6,185.0 670.2,185.3 683.7,185.6 697.3,186.0 710.8,186.3 724.4,186.6 738.0,187.0 751.5,187.3 765.1,187.6 778.6,188.0 792.2,188.3 805.8,188.6 819.3,189.0 832.9,189.3 846.4,189.6 860.0,189.9" fill="none" stroke="#22c55e" stroke-width="2.5" stroke-linecap="round" stroke-linejoin="round"/>
  <polyline points="60.0,193.2 73.6,192.5 87.1,192.0 100.7,191.6 114.2,191.1 127.8,190.8 141.4,190.4 154.9,190.1 168.5,189.6 182.0,188.8 195.6,187.8 209.2,187.0 222.7,186.2 236.3,185.6 249.8,185.0 263.4,184.3 276.9,183.6 290.5,183.2 304.1,182.9 317.6,182.7 331.2,182.7 344.7,182.4 358.3,182.3 371.9,182.3 385.4,182.2 399.0,182.2 412.5,182.2 426.1,182.2 439.7,182.3 453.2,182.4 466.8,182.5 480.3,182.6 493.9,182.7 507.5,182.9 521.0,183.1 534.6,183.2 548.1,183.3 561.7,183.4 575.3,183.5 588.8,183.7 602.4,183.9 615.9,184.2 629.5,184.4 643.1,184.7 656.6,185.0 670.2,185.3 683.7,185.6 697.3,186.0 710.8,186.3 724.4,186.6 738.0,187.0 751.5,187.3 765.1,187.6 778.6,188.0 792.2,188.3 805.8,188.6 819.3,189.0 832.9,189.3 846.4,189.6 860.0,189.9" fill="none" stroke="#22c55e" stroke-width="5" opacity="0.1" stroke-linecap="round" stroke-linejoin="round"/>

  <!-- Aktif doluluk -->
  <polyline points="60.0,211.1 73.6,210.2 87.1,209.7 100.7,209.2 114.2,208.7 127.8,208.3 141.4,207.9 154.9,207.5 168.5,207.0 182.0,206.2 195.6,205.0 209.2,204.1 222.7,203.2 236.3,202.5 249.8,201.9 263.4,201.0 276.9,200.3 290.5,199.9 304.1,199.6 317.6,199.4 331.2,199.3 344.7,199.0 358.3,198.9 371.9,198.9 385.4,198.7 399.0,198.7 412.5,198.8 426.1,198.8 439.7,198.8 453.2,198.9 466.8,199.0 480.3,199.2 493.9,199.4 507.5,199.5 521.0,199.7 534.6,199.8 548.1,200.0 561.7,200.1 575.3,200.2 588.8,200.4 602.4,200.7 615.9,201.0 629.5,201.3 643.1,201.6 656.6,201.8 670.2,202.2 683.7,202.6 697.3,203.0 710.8,203.3 724.4,203.7 738.0,204.1 751.5,204.4 765.1,204.8 778.6,205.2 792.2,205.5 805.8,205.9 819.3,206.3 832.9,206.7 846.4,207.0 860.0,207.4" fill="none" stroke="#3b82f6" stroke-width="2.5" stroke-linecap="round" stroke-linejoin="round"/>
  <polyline points="60.0,211.1 73.6,210.2 87.1,209.7 100.7,209.2 114.2,208.7 127.8,208.3 141.4,207.9 154.9,207.5 168.5,207.0 182.0,206.2 195.6,205.0 209.2,204.1 222.7,203.2 236.3,202.5 249.8,201.9 263.4,201.0 276.9,200.3 290.5,199.9 304.1,199.6 317.6,199.4 331.2,199.3 344.7,199.0 358.3,198.9 371.9,198.9 385.4,198.7 399.0,198.7 412.5,198.8 426.1,198.8 439.7,198.8 453.2,198.9 466.8,199.0 480.3,199.2 493.9,199.4 507.5,199.5 521.0,199.7 534.6,199.8 548.1,200.0 561.7,200.1 575.3,200.2 588.8,200.4 602.4,200.7 615.9,201.0 629.5,201.3 643.1,201.6 656.6,201.8 670.2,202.2 683.7,202.6 697.3,203.0 710.8,203.3 724.4,203.7 738.0,204.1 751.5,204.4 765.1,204.8 778.6,205.2 792.2,205.5 805.8,205.9 819.3,206.3 832.9,206.7 846.4,207.0 860.0,207.4" fill="none" stroke="#3b82f6" stroke-width="5" opacity="0.1" stroke-linecap="round" stroke-linejoin="round"/>

  <!-- Noktalar -->
  <circle cx="60.0" cy="193.2" r="3" fill="#22c55e"/><circle cx="73.6" cy="192.5" r="3" fill="#22c55e"/><circle cx="87.1" cy="192.0" r="3" fill="#22c55e"/><circle cx="100.7" cy="191.6" r="3" fill="#22c55e"/><circle cx="114.2" cy="191.1" r="3" fill="#22c55e"/><circle cx="127.8" cy="190.8" r="3" fill="#22c55e"/><circle cx="141.4" cy="190.4" r="3" fill="#22c55e"/><circle cx="154.9" cy="190.1" r="3" fill="#22c55e"/><circle cx="168.5" cy="189.6" r="3" fill="#22c55e"/><circle cx="182.0" cy="188.8" r="3" fill="#22c55e"/><circle cx="195.6" cy="187.8" r="3" fill="#22c55e"/><circle cx="209.2" cy="187.0" r="3" fill="#22c55e"/><circle cx="222.7" cy="186.2" r="3" fill="#22c55e"/><circle cx="236.3" cy="185.6" r="3" fill="#22c55e"/><circle cx="249.8" cy="185.0" r="3" fill="#22c55e"/><circle cx="263.4" cy="184.3" r="3" fill="#22c55e"/><circle cx="276.9" cy="183.6" r="3" fill="#22c55e"/><circle cx="290.5" cy="183.2" r="3" fill="#22c55e"/><circle cx="304.1" cy="182.9" r="3" fill="#22c55e"/><circle cx="317.6" cy="182.7" r="3" fill="#22c55e"/><circle cx="331.2" cy="182.7" r="3" fill="#22c55e"/><circle cx="344.7" cy="182.4" r="3" fill="#22c55e"/><circle cx="358.3" cy="182.3" r="3" fill="#22c55e"/><circle cx="371.9" cy="182.3" r="3" fill="#22c55e"/><circle cx="385.4" cy="182.2" r="3" fill="#22c55e"/><circle cx="399.0" cy="182.2" r="3" fill="#22c55e"/><circle cx="412.5" cy="182.2" r="3" fill="#22c55e"/><circle cx="426.1" cy="182.2" r="3" fill="#22c55e"/><circle cx="439.7" cy="182.3" r="3" fill="#22c55e"/><circle cx="453.2" cy="182.4" r="3" fill="#22c55e"/><circle cx="466.8" cy="182.5" r="3" fill="#22c55e"/><circle cx="480.3" cy="182.6" r="3" fill="#22c55e"/><circle cx="493.9" cy="182.7" r="3" fill="#22c55e"/><circle cx="507.5" cy="182.9" r="3" fill="#22c55e"/><circle cx="521.0" cy="183.1" r="3" fill="#22c55e"/><circle cx="534.6" cy="183.2" r="3" fill="#22c55e"/><circle cx="548.1" cy="183.3" r="3" fill="#22c55e"/><circle cx="561.7" cy="183.4" r="3" fill="#22c55e"/><circle cx="575.3" cy="183.5" r="3" fill="#22c55e"/><circle cx="588.8" cy="183.7" r="3" fill="#22c55e"/><circle cx="602.4" cy="183.9" r="3" fill="#22c55e"/><circle cx="615.9" cy="184.2" r="3" fill="#22c55e"/><circle cx="629.5" cy="184.4" r="3" fill="#22c55e"/><circle cx="643.1" cy="184.7" r="3" fill="#22c55e"/><circle cx="656.6" cy="185.0" r="3" fill="#22c55e"/><circle cx="670.2" cy="185.3" r="3" fill="#22c55e"/><circle cx="683.7" cy="185.6" r="3" fill="#22c55e"/><circle cx="697.3" cy="186.0" r="3" fill="#22c55e"/><circle cx="710.8" cy="186.3" r="3" fill="#22c55e"/><circle cx="724.4" cy="186.6" r="3" fill="#22c55e"/><circle cx="738.0" cy="187.0" r="3" fill="#22c55e"/><circle cx="751.5" cy="187.3" r="3" fill="#22c55e"/><circle cx="765.1" cy="187.6" r="3" fill="#22c55e"/><circle cx="778.6" cy="188.0" r="3" fill="#22c55e"/><circle cx="792.2" cy="188.3" r="3" fill="#22c55e"/><circle cx="805.8" cy="188.6" r="3" fill="#22c55e"/><circle cx="819.3" cy="189.0" r="3" fill="#22c55e"/><circle cx="832.9" cy="189.3" r="3" fill="#22c55e"/><circle cx="846.4" cy="189.6" r="3" fill="#22c55e"/><circle cx="860.0" cy="189.9" r="3" fill="#22c55e"/>
  <circle cx="60.0" cy="211.1" r="3" fill="#3b82f6"/><circle cx="73.6" cy="210.2" r="3" fill="#3b82f6"/><circle cx="87.1" cy="209.7" r="3" fill="#3b82f6"/><circle cx="100.7" cy="209.2" r="3" fill="#3b82f6"/><circle cx="114.2" cy="208.7" r="3" fill="#3b82f6"/><circle cx="127.8" cy="208.3" r="3" fill="#3b82f6"/><circle cx="141.4" cy="207.9" r="3" fill="#3b82f6"/><circle cx="154.9" cy="207.5" r="3" fill="#3b82f6"/><circle cx="168.5" cy="207.0" r="3" fill="#3b82f6"/><circle cx="182.0" cy="206.2" r="3" fill="#3b82f6"/><circle cx="195.6" cy="205.0" r="3" fill="#3b82f6"/><circle cx="209.2" cy="204.1" r="3" fill="#3b82f6"/><circle cx="222.7" cy="203.2" r="3" fill="#3b82f6"/><circle cx="236.3" cy="202.5" r="3" fill="#3b82f6"/><circle cx="249.8" cy="201.9" r="3" fill="#3b82f6"/><circle cx="263.4" cy="201.0" r="3" fill="#3b82f6"/><circle cx="276.9" cy="200.3" r="3" fill="#3b82f6"/><circle cx="290.5" cy="199.9" r="3" fill="#3b82f6"/><circle cx="304.1" cy="199.6" r="3" fill="#3b82f6"/><circle cx="317.6" cy="199.4" r="3" fill="#3b82f6"/><circle cx="331.2" cy="199.3" r="3" fill="#3b82f6"/><circle cx="344.7" cy="199.0" r="3" fill="#3b82f6"/><circle cx="358.3" cy="198.9" r="3" fill="#3b82f6"/><circle cx="371.9" cy="198.9" r="3" fill="#3b82f6"/><circle cx="385.4" cy="198.7" r="3" fill="#3b82f6"/><circle cx="399.0" cy="198.7" r="3" fill="#3b82f6"/><circle cx="412.5" cy="198.8" r="3" fill="#3b82f6"/><circle cx="426.1" cy="198.8" r="3" fill="#3b82f6"/><circle cx="439.7" cy="198.8" r="3" fill="#3b82f6"/><circle cx="453.2" cy="198.9" r="3" fill="#3b82f6"/><circle cx="466.8" cy="199.0" r="3" fill="#3b82f6"/><circle cx="480.3" cy="199.2" r="3" fill="#3b82f6"/><circle cx="493.9" cy="199.4" r="3" fill="#3b82f6"/><circle cx="507.5" cy="199.5" r="3" fill="#3b82f6"/><circle cx="521.0" cy="199.7" r="3" fill="#3b82f6"/><circle cx="534.6" cy="199.8" r="3" fill="#3b82f6"/><circle cx="548.1" cy="200.0" r="3" fill="#3b82f6"/><circle cx="561.7" cy="200.1" r="3" fill="#3b82f6"/><circle cx="575.3" cy="200.2" r="3" fill="#3b82f6"/><circle cx="588.8" cy="200.4" r="3" fill="#3b82f6"/><circle cx="602.4" cy="200.7" r="3" fill="#3b82f6"/><circle cx="615.9" cy="201.0" r="3" fill="#3b82f6"/><circle cx="629.5" cy="201.3" r="3" fill="#3b82f6"/><circle cx="643.1" cy="201.6" r="3" fill="#3b82f6"/><circle cx="656.6" cy="201.8" r="3" fill="#3b82f6"/><circle cx="670.2" cy="202.2" r="3" fill="#3b82f6"/><circle cx="683.7" cy="202.6" r="3" fill="#3b82f6"/><circle cx="697.3" cy="203.0" r="3" fill="#3b82f6"/><circle cx="710.8" cy="203.3" r="3" fill="#3b82f6"/><circle cx="724.4" cy="203.7" r="3" fill="#3b82f6"/><circle cx="738.0" cy="204.1" r="3" fill="#3b82f6"/><circle cx="751.5" cy="204.4" r="3" fill="#3b82f6"/><circle cx="765.1" cy="204.8" r="3" fill="#3b82f6"/><circle cx="778.6" cy="205.2" r="3" fill="#3b82f6"/><circle cx="792.2" cy="205.5" r="3" fill="#3b82f6"/><circle cx="805.8" cy="205.9" r="3" fill="#3b82f6"/><circle cx="819.3" cy="206.3" r="3" fill="#3b82f6"/><circle cx="832.9" cy="206.7" r="3" fill="#3b82f6"/><circle cx="846.4" cy="207.0" r="3" fill="#3b82f6"/><circle cx="860.0" cy="207.4" r="3" fill="#3b82f6"/>

  <!-- X ekseni -->
  <text x="60.0" y="380" text-anchor="middle" font-size="10" fill="#888">14.05.2026</text>
  <text x="195.6" y="380" text-anchor="middle" font-size="10" fill="#888">24.05.2026</text>
  <text x="331.2" y="380" text-anchor="middle" font-size="10" fill="#888">03.06.2026</text>
  <text x="466.8" y="380" text-anchor="middle" font-size="10" fill="#888">13.06.2026</text>
  <text x="602.4" y="380" text-anchor="middle" font-size="10" fill="#888">23.06.2026</text>
  <text x="738.0" y="380" text-anchor="middle" font-size="10" fill="#888">03.07.2026</text>

  <!-- Legend -->
  <g transform="translate(60, 345)">
    <rect x="0" y="0" width="12" height="12" fill="#22c55e" rx="2"/>
    <text x="18" y="10" font-size="11" fill="#c9d1d9">Toplam Doluluk</text>
    <rect x="140" y="0" width="12" height="12" fill="#3b82f6" rx="2"/>
    <text x="158" y="10" font-size="11" fill="#c9d1d9">Aktif Doluluk</text>
  </g>
</svg>