<svg xmlns="http://www.w3.org/2000/svg" viewBox="0 0 900 400" width="100%" style="max-width:900px;">
  <rect width="900" height="400" fill="#0d1117" rx="6"/>
  <text x="450.0" y="25" text-anchor="middle" font-size="16" font-weight="bold" fill="#c9d1d9">Son 360 Gün - Günlük Ortalama</text>

  <!-- Y grid -->
  <line x1="60" y1="320.0" x2="860" y2="320.0" stroke="#333" stroke-width="1" stroke-dasharray="4,4" opacity="0.5"/>
  <text x="50" y="320.0" text-anchor="end" dominant-baseline="middle" font-size="10" fill="#888">0%</text>
  <line x1="60" y1="264.0" x2="860" y2="264.0" stroke="#333" stroke-width="1" stroke-dasharray="4,4" opacity="0.5"/>
  <text x="50" y="264.0" text-anchor="end" dominant-baseline="middle" font-size="10" fill="#888">20%</text>
  <line x1="60" y1="208.0" x2="860" y2="208.0" stroke="#333" stroke-width="1" stroke-dasharray="4,4" opacity="0.5"/>
  <text x="50" y="208.0" text-anchor="end" dominant-baseline="middle" font-size="10" fill="#888">40%</text>
  <line x1="60" y1="152.0" x2="860" y2="152.0" stroke="#333" stroke-width="1" stroke-dasharray="4,4" opacity="0.5"/>
  <text x="50" y="152.0" text-anchor="end" dominant-baseline="middle" font-size="10" fill="#888">60%</text>
  <line x1="60" y1="96.0" x2="860" y2="96.0" stroke="#333" stroke-width="1" stroke-dasharray="4,4" opacity="0.5"/>
  <text x="50" y="96.0" text-anchor="end" dominant-baseline="middle" font-size="10" fill="#888">80%</text>
  <line x1="60" y1="40.0" x2="860" y2="40.0" stroke="#333" stroke-width="1" stroke-dasharray="4,4" opacity="0.5"/>
  <text x="50" y="40.0" text-anchor="end" dominant-baseline="middle" font-size="10" fill="#888">100%</text>

  <!-- Referans çizgileri -->
  <line x1="60" y1="236.0" x2="860" y2="236.0" stroke="#ef4444" stroke-width="1" stroke-dasharray="2,2" opacity="0.7"/>
  <text x="845" y="236.0" dominant-baseline="middle" font-size="9" fill="#ef4444">Kritik (30%)</text>
  <line x1="60" y1="180.0" x2="860" y2="180.0" stroke="#eab308" stroke-width="1" stroke-dasharray="2,2" opacity="0.7"/>
  <text x="845" y="180.0" dominant-baseline="middle" font-size="9" fill="#eab308">Normal (50%)</text>

  <!-- Toplam doluluk -->
  <polyline points="60.0,193.2 80.0,192.5 100.0,192.0 120.0,191.6 140.0,191.1 160.0,190.8 180.0,190.4 200.0,190.1 220.0,189.6 240.0,188.8 260.0,187.8 280.0,187.0 300.0,186.2 320.0,185.6 340.0,185.0 360.0,184.3 380.0,183.6 400.0,183.2 420.0,182.9 440.0,182.7 460.0,182.7 480.0,182.4 500.0,182.3 520.0,182.3 540.0,182.2 560.0,182.2 580.0,182.2 600.0,182.2 620.0,182.3 640.0,182.4 660.0,182.5 680.0,182.6 700.0,182.7 720.0,182.9 740.0,183.1 760.0,183.2 780.0,183.3 800.0,183.4 820.0,183.5 840.0,183.7 860.0,183.9" fill="none" stroke="#22c55e" stroke-width="2.5" stroke-linecap="round" stroke-linejoin="round"/>
  <polyline points="60.0,193.2 80.0,192.5 100.0,192.0 120.0,191.6 140.0,191.1 160.0,190.8 180.0,190.4 200.0,190.1 220.0,189.6 240.0,188.8 260.0,187.8 280.0,187.0 300.0,186.2 320.0,185.6 340.0,185.0 360.0,184.3 380.0,183.6 400.0,183.2 420.0,182.9 440.0,182.7 460.0,182.7 480.0,182.4 500.0,182.3 520.0,182.3 540.0,182.2 560.0,182.2 580.0,182.2 600.0,182.2 620.0,182.3 640.0,182.4 660.0,182.5 680.0,182.6 700.0,182.7 720.0,182.9 740.0,183.1 760.0,183.2 780.0,183.3 800.0,183.4 820.0,183.5 840.0,183.7 860.0,183.9" fill="none" stroke="#22c55e" stroke-width="5" opacity="0.1" stroke-linecap="round" stroke-linejoin="round"/>

  <!-- Aktif doluluk -->
  <polyline points="60.0,211.1 80.0,210.2 100.0,209.7 120.0,209.2 140.0,208.7 160.0,208.3 180.0,207.9 200.0,207.5 220.0,207.0 240.0,206.2 260.0,205.0 280.0,204.1 300.0,203.2 320.0,202.5 340.0,201.9 360.0,201.0 380.0,200.3 400.0,199.9 420.0,199.6 440.0,199.4 460.0,199.3 480.0,199.0 500.0,198.9 520.0,198.9 540.0,198.7 560.0,198.7 580.0,198.8 600.0,198.8 620.0,198.8 640.0,198.9 660.0,199.0 680.0,199.2 700.0,199.4 720.0,199.5 740.0,199.7 760.0,199.8 780.0,200.0 800.0,200.1 820.0,200.2 840.0,200.4 860.0,200.7" fill="none" stroke="#3b82f6" stroke-width="2.5" stroke-linecap="round" stroke-linejoin="round"/>
  <polyline points="60.0,211.1 80.0,210.2 100.0,209.7 120.0,209.2 140.0,208.7 160.0,208.3 180.0,207.9 200.0,207.5 220.0,207.0 240.0,206.2 260.0,205.0 280.0,204.1 300.0,203.2 320.0,202.5 340.0,201.9 360.0,201.0 380.0,200.3 400.0,199.9 420.0,199.6 440.0,199.4 460.0,199.3 480.0,199.0 500.0,198.9 520.0,198.9 540.0,198.7 560.0,198.7 580.0,198.8 600.0,198.8 620.0,198.8 640.0,198.9 660.0,199.0 680.0,199.2 700.0,199.4 720.0,199.5 740.0,199.7 760.0,199.8 780.0,200.0 800.0,200.1 820.0,200.2 840.0,200.4 860.0,200.7" fill="none" stroke="#3b82f6" stroke-width="5" opacity="0.1" stroke-linecap="round" stroke-linejoin="round"/>

  <!-- Noktalar -->
  <circle cx="60.0" cy="193.2" r="3" fill="#22c55e"/><circle cx="80.0" cy="192.5" r="3" fill="#22c55e"/><circle cx="100.0" cy="192.0" r="3" fill="#22c55e"/><circle cx="120.0" cy="191.6" r="3" fill="#22c55e"/><circle cx="140.0" cy="191.1" r="3" fill="#22c55e"/><circle cx="160.0" cy="190.8" r="3" fill="#22c55e"/><circle cx="180.0" cy="190.4" r="3" fill="#22c55e"/><circle cx="200.0" cy="190.1" r="3" fill="#22c55e"/><circle cx="220.0" cy="189.6" r="3" fill="#22c55e"/><circle cx="240.0" cy="188.8" r="3" fill="#22c55e"/><circle cx="260.0" cy="187.8" r="3" fill="#22c55e"/><circle cx="280.0" cy="187.0" r="3" fill="#22c55e"/><circle cx="300.0" cy="186.2" r="3" fill="#22c55e"/><circle cx="320.0" cy="185.6" r="3" fill="#22c55e"/><circle cx="340.0" cy="185.0" r="3" fill="#22c55e"/><circle cx="360.0" cy="184.3" r="3" fill="#22c55e"/><circle cx="380.0" cy="183.6" r="3" fill="#22c55e"/><circle cx="400.0" cy="183.2" r="3" fill="#22c55e"/><circle cx="420.0" cy="182.9" r="3" fill="#22c55e"/><circle cx="440.0" cy="182.7" r="3" fill="#22c55e"/><circle cx="460.0" cy="182.7" r="3" fill="#22c55e"/><circle cx="480.0" cy="182.4" r="3" fill="#22c55e"/><circle cx="500.0" cy="182.3" r="3" fill="#22c55e"/><circle cx="520.0" cy="182.3" r="3" fill="#22c55e"/><circle cx="540.0" cy="182.2" r="3" fill="#22c55e"/><circle cx="560.0" cy="182.2" r="3" fill="#22c55e"/><circle cx="580.0" cy="182.2" r="3" fill="#22c55e"/><circle cx="600.0" cy="182.2" r="3" fill="#22c55e"/><circle cx="620.0" cy="182.3" r="3" fill="#22c55e"/><circle cx="640.0" cy="182.4" r="3" fill="#22c55e"/><circle cx="660.0" cy="182.5" r="3" fill="#22c55e"/><circle cx="680.0" cy="182.6" r="3" fill="#22c55e"/><circle cx="700.0" cy="182.7" r="3" fill="#22c55e"/><circle cx="720.0" cy="182.9" r="3" fill="#22c55e"/><circle cx="740.0" cy="183.1" r="3" fill="#22c55e"/><circle cx="760.0" cy="183.2" r="3" fill="#22c55e"/><circle cx="780.0" cy="183.3" r="3" fill="#22c55e"/><circle cx="800.0" cy="183.4" r="3" fill="#22c55e"/><circle cx="820.0" cy="183.5" r="3" fill="#22c55e"/><circle cx="840.0" cy="183.7" r="3" fill="#22c55e"/><circle cx="860.0" cy="183.9" r="3" fill="#22c55e"/>
  <circle cx="60.0" cy="211.1" r="3" fill="#3b82f6"/><circle cx="80.0" cy="210.2" r="3" fill="#3b82f6"/><circle cx="100.0" cy="209.7" r="3" fill="#3b82f6"/><circle cx="120.0" cy="209.2" r="3" fill="#3b82f6"/><circle cx="140.0" cy="208.7" r="3" fill="#3b82f6"/><circle cx="160.0" cy="208.3" r="3" fill="#3b82f6"/><circle cx="180.0" cy="207.9" r="3" fill="#3b82f6"/><circle cx="200.0" cy="207.5" r="3" fill="#3b82f6"/><circle cx="220.0" cy="207.0" r="3" fill="#3b82f6"/><circle cx="240.0" cy="206.2" r="3" fill="#3b82f6"/><circle cx="260.0" cy="205.0" r="3" fill="#3b82f6"/><circle cx="280.0" cy="204.1" r="3" fill="#3b82f6"/><circle cx="300.0" cy="203.2" r="3" fill="#3b82f6"/><circle cx="320.0" cy="202.5" r="3" fill="#3b82f6"/><circle cx="340.0" cy="201.9" r="3" fill="#3b82f6"/><circle cx="360.0" cy="201.0" r="3" fill="#3b82f6"/><circle cx="380.0" cy="200.3" r="3" fill="#3b82f6"/><circle cx="400.0" cy="199.9" r="3" fill="#3b82f6"/><circle cx="420.0" cy="199.6" r="3" fill="#3b82f6"/><circle cx="440.0" cy="199.4" r="3" fill="#3b82f6"/><circle cx="460.0" cy="199.3" r="3" fill="#3b82f6"/><circle cx="480.0" cy="199.0" r="3" fill="#3b82f6"/><circle cx="500.0" cy="198.9" r="3" fill="#3b82f6"/><circle cx="520.0" cy="198.9" r="3" fill="#3b82f6"/><circle cx="540.0" cy="198.7" r="3" fill="#3b82f6"/><circle cx="560.0" cy="198.7" r="3" fill="#3b82f6"/><circle cx="580.0" cy="198.8" r="3" fill="#3b82f6"/><circle cx="600.0" cy="198.8" r="3" fill="#3b82f6"/><circle cx="620.0" cy="198.8" r="3" fill="#3b82f6"/><circle cx="640.0" cy="198.9" r="3" fill="#3b82f6"/><circle cx="660.0" cy="199.0" r="3" fill="#3b82f6"/><circle cx="680.0" cy="199.2" r="3" fill="#3b82f6"/><circle cx="700.0" cy="199.4" r="3" fill="#3b82f6"/><circle cx="720.0" cy="199.5" r="3" fill="#3b82f6"/><circle cx="740.0" cy="199.7" r="3" fill="#3b82f6"/><circle cx="760.0" cy="199.8" r="3" fill="#3b82f6"/><circle cx="780.0" cy="200.0" r="3" fill="#3b82f6"/><circle cx="800.0" cy="200.1" r="3" fill="#3b82f6"/><circle cx="820.0" cy="200.2" r="3" fill="#3b82f6"/><circle cx="840.0" cy="200.4" r="3" fill="#3b82f6"/><circle cx="860.0" cy="200.7" r="3" fill="#3b82f6"/>

  <!-- X ekseni -->
  <text x="60.0" y="380" text-anchor="middle" font-size="10" fill="#888">14.05.2026</text>
  <text x="180.0" y="380" text-anchor="middle" font-size="10" fill="#888">20.05.2026</text>
  <text x="300.0" y="380" text-anchor="middle" font-size="10" fill="#888">26.05.2026</text>
  <text x="420.0" y="380" text-anchor="middle" font-size="10" fill="#888">01.06.2026</text>
  <text x="540.0" y="380" text-anchor="middle" font-size="10" fill="#888">07.06.2026</text>
  <text x="660.0" y="380" text-anchor="middle" font-size="10" fill="#888">13.06.2026</text>
  <text x="780.0" y="380" text-anchor="middle" font-size="10" fill="#888">19.06.2026</text>

  <!-- Legend -->
  <g transform="translate(60, 345)">
    <rect x="0" y="0" width="12" height="12" fill="#22c55e" rx="2"/>
    <text x="18" y="10" font-size="11" fill="#c9d1d9">Toplam Doluluk</text>
    <rect x="140" y="0" width="12" height="12" fill="#3b82f6" rx="2"/>
    <text x="158" y="10" font-size="11" fill="#c9d1d9">Aktif Doluluk</text>
  </g>
</svg>