<svg xmlns="http://www.w3.org/2000/svg" viewBox="0 0 800 400" width="100%" style="max-width:800px;">
  <rect width="800" height="400" fill="#0d1117" rx="6"/>
  <text x="400.0" y="25" text-anchor="middle" font-size="16" font-weight="bold" fill="#c9d1d9">Son 30 Gün - Günlük Ortalama</text>

  <!-- Y grid -->
  <line x1="60" y1="320.0" x2="760" y2="320.0" stroke="#333" stroke-width="1" stroke-dasharray="4,4" opacity="0.5"/>
  <text x="50" y="320.0" text-anchor="end" dominant-baseline="middle" font-size="10" fill="#888">0%</text>
  <line x1="60" y1="264.0" x2="760" y2="264.0" stroke="#333" stroke-width="1" stroke-dasharray="4,4" opacity="0.5"/>
  <text x="50" y="264.0" text-anchor="end" dominant-baseline="middle" font-size="10" fill="#888">20%</text>
  <line x1="60" y1="208.0" x2="760" y2="208.0" stroke="#333" stroke-width="1" stroke-dasharray="4,4" opacity="0.5"/>
  <text x="50" y="208.0" text-anchor="end" dominant-baseline="middle" font-size="10" fill="#888">40%</text>
  <line x1="60" y1="152.0" x2="760" y2="152.0" stroke="#333" stroke-width="1" stroke-dasharray="4,4" opacity="0.5"/>
  <text x="50" y="152.0" text-anchor="end" dominant-baseline="middle" font-size="10" fill="#888">60%</text>
  <line x1="60" y1="96.0" x2="760" y2="96.0" stroke="#333" stroke-width="1" stroke-dasharray="4,4" opacity="0.5"/>
  <text x="50" y="96.0" text-anchor="end" dominant-baseline="middle" font-size="10" fill="#888">80%</text>
  <line x1="60" y1="40.0" x2="760" y2="40.0" stroke="#333" stroke-width="1" stroke-dasharray="4,4" opacity="0.5"/>
  <text x="50" y="40.0" text-anchor="end" dominant-baseline="middle" font-size="10" fill="#888">100%</text>

  <!-- Referans çizgileri -->
  <line x1="60" y1="236.0" x2="760" y2="236.0" stroke="#ef4444" stroke-width="1" stroke-dasharray="2,2" opacity="0.7"/>
  <text x="745" y="236.0" dominant-baseline="middle" font-size="9" fill="#ef4444">Kritik (30%)</text>
  <line x1="60" y1="180.0" x2="760" y2="180.0" stroke="#eab308" stroke-width="1" stroke-dasharray="2,2" opacity="0.7"/>
  <text x="745" y="180.0" dominant-baseline="middle" font-size="9" fill="#eab308">Normal (50%)</text>

  <!-- Toplam doluluk -->
  <polyline points="60.0,182.2 84.1,182.2 108.3,182.2 132.4,182.2 156.6,182.3 180.7,182.4 204.8,182.5 229.0,182.6 253.1,182.7 277.2,182.9 301.4,183.1 325.5,183.2 349.7,183.3 373.8,183.4 397.9,183.5 422.1,183.7 446.2,183.9 470.3,184.2 494.5,184.4 518.6,184.7 542.8,185.0 566.9,185.3 591.0,185.6 615.2,186.0 639.3,186.3 663.4,186.6 687.6,187.0 711.7,187.3 735.9,187.6 760.0,188.0" fill="none" stroke="#22c55e" stroke-width="2.5" stroke-linecap="round" stroke-linejoin="round"/>
  <polyline points="60.0,182.2 84.1,182.2 108.3,182.2 132.4,182.2 156.6,182.3 180.7,182.4 204.8,182.5 229.0,182.6 253.1,182.7 277.2,182.9 301.4,183.1 325.5,183.2 349.7,183.3 373.8,183.4 397.9,183.5 422.1,183.7 446.2,183.9 470.3,184.2 494.5,184.4 518.6,184.7 542.8,185.0 566.9,185.3 591.0,185.6 615.2,186.0 639.3,186.3 663.4,186.6 687.6,187.0 711.7,187.3 735.9,187.6 760.0,188.0" fill="none" stroke="#22c55e" stroke-width="5" opacity="0.1" stroke-linecap="round" stroke-linejoin="round"/>

  <!-- Aktif doluluk -->
  <polyline points="60.0,198.7 84.1,198.7 108.3,198.8 132.4,198.8 156.6,198.8 180.7,198.9 204.8,199.0 229.0,199.2 253.1,199.4 277.2,199.5 301.4,199.7 325.5,199.8 349.7,200.0 373.8,200.1 397.9,200.2 422.1,200.4 446.2,200.7 470.3,201.0 494.5,201.3 518.6,201.6 542.8,201.8 566.9,202.2 591.0,202.6 615.2,203.0 639.3,203.3 663.4,203.7 687.6,204.1 711.7,204.4 735.9,204.8 760.0,205.2" fill="none" stroke="#3b82f6" stroke-width="2.5" stroke-linecap="round" stroke-linejoin="round"/>
  <polyline points="60.0,198.7 84.1,198.7 108.3,198.8 132.4,198.8 156.6,198.8 180.7,198.9 204.8,199.0 229.0,199.2 253.1,199.4 277.2,199.5 301.4,199.7 325.5,199.8 349.7,200.0 373.8,200.1 397.9,200.2 422.1,200.4 446.2,200.7 470.3,201.0 494.5,201.3 518.6,201.6 542.8,201.8 566.9,202.2 591.0,202.6 615.2,203.0 639.3,203.3 663.4,203.7 687.6,204.1 711.7,204.4 735.9,204.8 760.0,205.2" fill="none" stroke="#3b82f6" stroke-width="5" opacity="0.1" stroke-linecap="round" stroke-linejoin="round"/>

  <!-- Noktalar -->
  <circle cx="60.0" cy="182.2" r="3" fill="#22c55e"/><circle cx="84.1" cy="182.2" r="3" fill="#22c55e"/><circle cx="108.3" cy="182.2" r="3" fill="#22c55e"/><circle cx="132.4" cy="182.2" r="3" fill="#22c55e"/><circle cx="156.6" cy="182.3" r="3" fill="#22c55e"/><circle cx="180.7" cy="182.4" r="3" fill="#22c55e"/><circle cx="204.8" cy="182.5" r="3" fill="#22c55e"/><circle cx="229.0" cy="182.6" r="3" fill="#22c55e"/><circle cx="253.1" cy="182.7" r="3" fill="#22c55e"/><circle cx="277.2" cy="182.9" r="3" fill="#22c55e"/><circle cx="301.4" cy="183.1" r="3" fill="#22c55e"/><circle cx="325.5" cy="183.2" r="3" fill="#22c55e"/><circle cx="349.7" cy="183.3" r="3" fill="#22c55e"/><circle cx="373.8" cy="183.4" r="3" fill="#22c55e"/><circle cx="397.9" cy="183.5" r="3" fill="#22c55e"/><circle cx="422.1" cy="183.7" r="3" fill="#22c55e"/><circle cx="446.2" cy="183.9" r="3" fill="#22c55e"/><circle cx="470.3" cy="184.2" r="3" fill="#22c55e"/><circle cx="494.5" cy="184.4" r="3" fill="#22c55e"/><circle cx="518.6" cy="184.7" r="3" fill="#22c55e"/><circle cx="542.8" cy="185.0" r="3" fill="#22c55e"/><circle cx="566.9" cy="185.3" r="3" fill="#22c55e"/><circle cx="591.0" cy="185.6" r="3" fill="#22c55e"/><circle cx="615.2" cy="186.0" r="3" fill="#22c55e"/><circle cx="639.3" cy="186.3" r="3" fill="#22c55e"/><circle cx="663.4" cy="186.6" r="3" fill="#22c55e"/><circle cx="687.6" cy="187.0" r="3" fill="#22c55e"/><circle cx="711.7" cy="187.3" r="3" fill="#22c55e"/><circle cx="735.9" cy="187.6" r="3" fill="#22c55e"/><circle cx="760.0" cy="188.0" r="3" fill="#22c55e"/>
  <circle cx="60.0" cy="198.7" r="3" fill="#3b82f6"/><circle cx="84.1" cy="198.7" r="3" fill="#3b82f6"/><circle cx="108.3" cy="198.8" r="3" fill="#3b82f6"/><circle cx="132.4" cy="198.8" r="3" fill="#3b82f6"/><circle cx="156.6" cy="198.8" r="3" fill="#3b82f6"/><circle cx="180.7" cy="198.9" r="3" fill="#3b82f6"/><circle cx="204.8" cy="199.0" r="3" fill="#3b82f6"/><circle cx="229.0" cy="199.2" r="3" fill="#3b82f6"/><circle cx="253.1" cy="199.4" r="3" fill="#3b82f6"/><circle cx="277.2" cy="199.5" r="3" fill="#3b82f6"/><circle cx="301.4" cy="199.7" r="3" fill="#3b82f6"/><circle cx="325.5" cy="199.8" r="3" fill="#3b82f6"/><circle cx="349.7" cy="200.0" r="3" fill="#3b82f6"/><circle cx="373.8" cy="200.1" r="3" fill="#3b82f6"/><circle cx="397.9" cy="200.2" r="3" fill="#3b82f6"/><circle cx="422.1" cy="200.4" r="3" fill="#3b82f6"/><circle cx="446.2" cy="200.7" r="3" fill="#3b82f6"/><circle cx="470.3" cy="201.0" r="3" fill="#3b82f6"/><circle cx="494.5" cy="201.3" r="3" fill="#3b82f6"/><circle cx="518.6" cy="201.6" r="3" fill="#3b82f6"/><circle cx="542.8" cy="201.8" r="3" fill="#3b82f6"/><circle cx="566.9" cy="202.2" r="3" fill="#3b82f6"/><circle cx="591.0" cy="202.6" r="3" fill="#3b82f6"/><circle cx="615.2" cy="203.0" r="3" fill="#3b82f6"/><circle cx="639.3" cy="203.3" r="3" fill="#3b82f6"/><circle cx="663.4" cy="203.7" r="3" fill="#3b82f6"/><circle cx="687.6" cy="204.1" r="3" fill="#3b82f6"/><circle cx="711.7" cy="204.4" r="3" fill="#3b82f6"/><circle cx="735.9" cy="204.8" r="3" fill="#3b82f6"/><circle cx="760.0" cy="205.2" r="3" fill="#3b82f6"/>

  <!-- X ekseni -->
  <text x="60.0" y="380" text-anchor="middle" font-size="10" fill="#888">07.06 00:00</text>
  <text x="180.7" y="380" text-anchor="middle" font-size="10" fill="#888">12.06 00:00</text>
  <text x="301.4" y="380" text-anchor="middle" font-size="10" fill="#888">17.06 00:00</text>
  <text x="422.1" y="380" text-anchor="middle" font-size="10" fill="#888">22.06 00:00</text>
  <text x="542.8" y="380" text-anchor="middle" font-size="10" fill="#888">27.06 00:00</text>
  <text x="663.4" y="380" text-anchor="middle" font-size="10" fill="#888">02.07 00:00</text>

  <!-- Legend -->
  <g transform="translate(60, 345)">
    <rect x="0" y="0" width="12" height="12" fill="#22c55e" rx="2"/>
    <text x="18" y="10" font-size="11" fill="#c9d1d9">Toplam Doluluk</text>
    <rect x="140" y="0" width="12" height="12" fill="#3b82f6" rx="2"/>
    <text x="158" y="10" font-size="11" fill="#c9d1d9">Aktif Doluluk</text>
  </g>
</svg>