<svg xmlns="http://www.w3.org/2000/svg" viewBox="0 0 900 400" width="100%" style="max-width:900px;">
  <rect width="900" height="400" fill="#0d1117" rx="6"/>
  <text x="450.0" y="25" text-anchor="middle" font-size="16" font-weight="bold" fill="#c9d1d9">Son 360 Gün - Günlük Ortalama</text>

  <!-- Y grid -->
  <line x1="60" y1="320.0" x2="860" y2="320.0" stroke="#333" stroke-width="1" stroke-dasharray="4,4" opacity="0.5"/>
  <text x="50" y="320.0" text-anchor="end" dominant-baseline="middle" font-size="10" fill="#888">0%</text>
  <line x1="60" y1="264.0" x2="860" y2="264.0" stroke="#333" stroke-width="1" stroke-dasharray="4,4" opacity="0.5"/>
  <text x="50" y="264.0" text-anchor="end" dominant-baseline="middle" font-size="10" fill="#888">20%</text>
  <line x1="60" y1="208.0" x2="860" y2="208.0" stroke="#333" stroke-width="1" stroke-dasharray="4,4" opacity="0.5"/>
  <text x="50" y="208.0" text-anchor="end" dominant-baseline="middle" font-size="10" fill="#888">40%</text>
  <line x1="60" y1="152.0" x2="860" y2="152.0" stroke="#333" stroke-width="1" stroke-dasharray="4,4" opacity="0.5"/>
  <text x="50" y="152.0" text-anchor="end" dominant-baseline="middle" font-size="10" fill="#888">60%</text>
  <line x1="60" y1="96.0" x2="860" y2="96.0" stroke="#333" stroke-width="1" stroke-dasharray="4,4" opacity="0.5"/>
  <text x="50" y="96.0" text-anchor="end" dominant-baseline="middle" font-size="10" fill="#888">80%</text>
  <line x1="60" y1="40.0" x2="860" y2="40.0" stroke="#333" stroke-width="1" stroke-dasharray="4,4" opacity="0.5"/>
  <text x="50" y="40.0" text-anchor="end" dominant-baseline="middle" font-size="10" fill="#888">100%</text>

  <!-- Referans çizgileri -->
  <line x1="60" y1="236.0" x2="860" y2="236.0" stroke="#ef4444" stroke-width="1" stroke-dasharray="2,2" opacity="0.7"/>
  <text x="845" y="236.0" dominant-baseline="middle" font-size="9" fill="#ef4444">Kritik (30%)</text>
  <line x1="60" y1="180.0" x2="860" y2="180.0" stroke="#eab308" stroke-width="1" stroke-dasharray="2,2" opacity="0.7"/>
  <text x="845" y="180.0" dominant-baseline="middle" font-size="9" fill="#eab308">Normal (50%)</text>

  <!-- Toplam doluluk -->
  <polyline points="60.0,193.2 73.3,192.5 86.7,192.0 100.0,191.6 113.3,191.1 126.7,190.8 140.0,190.4 153.3,190.1 166.7,189.6 180.0,188.8 193.3,187.8 206.7,187.0 220.0,186.2 233.3,185.6 246.7,185.0 260.0,184.3 273.3,183.6 286.7,183.2 300.0,182.9 313.3,182.7 326.7,182.7 340.0,182.4 353.3,182.3 366.7,182.3 380.0,182.2 393.3,182.2 406.7,182.2 420.0,182.2 433.3,182.3 446.7,182.4 460.0,182.5 473.3,182.6 486.7,182.7 500.0,182.9 513.3,183.1 526.7,183.2 540.0,183.3 553.3,183.4 566.7,183.5 580.0,183.7 593.3,183.9 606.7,184.2 620.0,184.4 633.3,184.7 646.7,185.0 660.0,185.3 673.3,185.6 686.7,186.0 700.0,186.3 713.3,186.6 726.7,187.0 740.0,187.3 753.3,187.6 766.7,188.0 780.0,188.3 793.3,188.6 806.7,189.0 820.0,189.3 833.3,189.6 846.7,189.9 860.0,190.2" fill="none" stroke="#22c55e" stroke-width="2.5" stroke-linecap="round" stroke-linejoin="round"/>
  <polyline points="60.0,193.2 73.3,192.5 86.7,192.0 100.0,191.6 113.3,191.1 126.7,190.8 140.0,190.4 153.3,190.1 166.7,189.6 180.0,188.8 193.3,187.8 206.7,187.0 220.0,186.2 233.3,185.6 246.7,185.0 260.0,184.3 273.3,183.6 286.7,183.2 300.0,182.9 313.3,182.7 326.7,182.7 340.0,182.4 353.3,182.3 366.7,182.3 380.0,182.2 393.3,182.2 406.7,182.2 420.0,182.2 433.3,182.3 446.7,182.4 460.0,182.5 473.3,182.6 486.7,182.7 500.0,182.9 513.3,183.1 526.7,183.2 540.0,183.3 553.3,183.4 566.7,183.5 580.0,183.7 593.3,183.9 606.7,184.2 620.0,184.4 633.3,184.7 646.7,185.0 660.0,185.3 673.3,185.6 686.7,186.0 700.0,186.3 713.3,186.6 726.7,187.0 740.0,187.3 753.3,187.6 766.7,188.0 780.0,188.3 793.3,188.6 806.7,189.0 820.0,189.3 833.3,189.6 846.7,189.9 860.0,190.2" fill="none" stroke="#22c55e" stroke-width="5" opacity="0.1" stroke-linecap="round" stroke-linejoin="round"/>

  <!-- Aktif doluluk -->
  <polyline points="60.0,211.1 73.3,210.2 86.7,209.7 100.0,209.2 113.3,208.7 126.7,208.3 140.0,207.9 153.3,207.5 166.7,207.0 180.0,206.2 193.3,205.0 206.7,204.1 220.0,203.2 233.3,202.5 246.7,201.9 260.0,201.0 273.3,200.3 286.7,199.9 300.0,199.6 313.3,199.4 326.7,199.3 340.0,199.0 353.3,198.9 366.7,198.9 380.0,198.7 393.3,198.7 406.7,198.8 420.0,198.8 433.3,198.8 446.7,198.9 460.0,199.0 473.3,199.2 486.7,199.4 500.0,199.5 513.3,199.7 526.7,199.8 540.0,200.0 553.3,200.1 566.7,200.2 580.0,200.4 593.3,200.7 606.7,201.0 620.0,201.3 633.3,201.6 646.7,201.8 660.0,202.2 673.3,202.6 686.7,203.0 700.0,203.3 713.3,203.7 726.7,204.1 740.0,204.4 753.3,204.8 766.7,205.2 780.0,205.5 793.3,205.9 806.7,206.3 820.0,206.7 833.3,207.0 846.7,207.4 860.0,207.7" fill="none" stroke="#3b82f6" stroke-width="2.5" stroke-linecap="round" stroke-linejoin="round"/>
  <polyline points="60.0,211.1 73.3,210.2 86.7,209.7 100.0,209.2 113.3,208.7 126.7,208.3 140.0,207.9 153.3,207.5 166.7,207.0 180.0,206.2 193.3,205.0 206.7,204.1 220.0,203.2 233.3,202.5 246.7,201.9 260.0,201.0 273.3,200.3 286.7,199.9 300.0,199.6 313.3,199.4 326.7,199.3 340.0,199.0 353.3,198.9 366.7,198.9 380.0,198.7 393.3,198.7 406.7,198.8 420.0,198.8 433.3,198.8 446.7,198.9 460.0,199.0 473.3,199.2 486.7,199.4 500.0,199.5 513.3,199.7 526.7,199.8 540.0,200.0 553.3,200.1 566.7,200.2 580.0,200.4 593.3,200.7 606.7,201.0 620.0,201.3 633.3,201.6 646.7,201.8 660.0,202.2 673.3,202.6 686.7,203.0 700.0,203.3 713.3,203.7 726.7,204.1 740.0,204.4 753.3,204.8 766.7,205.2 780.0,205.5 793.3,205.9 806.7,206.3 820.0,206.7 833.3,207.0 846.7,207.4 860.0,207.7" fill="none" stroke="#3b82f6" stroke-width="5" opacity="0.1" stroke-linecap="round" stroke-linejoin="round"/>

  <!-- Noktalar -->
  <circle cx="60.0" cy="193.2" r="3" fill="#22c55e"/><circle cx="73.3" cy="192.5" r="3" fill="#22c55e"/><circle cx="86.7" cy="192.0" r="3" fill="#22c55e"/><circle cx="100.0" cy="191.6" r="3" fill="#22c55e"/><circle cx="113.3" cy="191.1" r="3" fill="#22c55e"/><circle cx="126.7" cy="190.8" r="3" fill="#22c55e"/><circle cx="140.0" cy="190.4" r="3" fill="#22c55e"/><circle cx="153.3" cy="190.1" r="3" fill="#22c55e"/><circle cx="166.7" cy="189.6" r="3" fill="#22c55e"/><circle cx="180.0" cy="188.8" r="3" fill="#22c55e"/><circle cx="193.3" cy="187.8" r="3" fill="#22c55e"/><circle cx="206.7" cy="187.0" r="3" fill="#22c55e"/><circle cx="220.0" cy="186.2" r="3" fill="#22c55e"/><circle cx="233.3" cy="185.6" r="3" fill="#22c55e"/><circle cx="246.7" cy="185.0" r="3" fill="#22c55e"/><circle cx="260.0" cy="184.3" r="3" fill="#22c55e"/><circle cx="273.3" cy="183.6" r="3" fill="#22c55e"/><circle cx="286.7" cy="183.2" r="3" fill="#22c55e"/><circle cx="300.0" cy="182.9" r="3" fill="#22c55e"/><circle cx="313.3" cy="182.7" r="3" fill="#22c55e"/><circle cx="326.7" cy="182.7" r="3" fill="#22c55e"/><circle cx="340.0" cy="182.4" r="3" fill="#22c55e"/><circle cx="353.3" cy="182.3" r="3" fill="#22c55e"/><circle cx="366.7" cy="182.3" r="3" fill="#22c55e"/><circle cx="380.0" cy="182.2" r="3" fill="#22c55e"/><circle cx="393.3" cy="182.2" r="3" fill="#22c55e"/><circle cx="406.7" cy="182.2" r="3" fill="#22c55e"/><circle cx="420.0" cy="182.2" r="3" fill="#22c55e"/><circle cx="433.3" cy="182.3" r="3" fill="#22c55e"/><circle cx="446.7" cy="182.4" r="3" fill="#22c55e"/><circle cx="460.0" cy="182.5" r="3" fill="#22c55e"/><circle cx="473.3" cy="182.6" r="3" fill="#22c55e"/><circle cx="486.7" cy="182.7" r="3" fill="#22c55e"/><circle cx="500.0" cy="182.9" r="3" fill="#22c55e"/><circle cx="513.3" cy="183.1" r="3" fill="#22c55e"/><circle cx="526.7" cy="183.2" r="3" fill="#22c55e"/><circle cx="540.0" cy="183.3" r="3" fill="#22c55e"/><circle cx="553.3" cy="183.4" r="3" fill="#22c55e"/><circle cx="566.7" cy="183.5" r="3" fill="#22c55e"/><circle cx="580.0" cy="183.7" r="3" fill="#22c55e"/><circle cx="593.3" cy="183.9" r="3" fill="#22c55e"/><circle cx="606.7" cy="184.2" r="3" fill="#22c55e"/><circle cx="620.0" cy="184.4" r="3" fill="#22c55e"/><circle cx="633.3" cy="184.7" r="3" fill="#22c55e"/><circle cx="646.7" cy="185.0" r="3" fill="#22c55e"/><circle cx="660.0" cy="185.3" r="3" fill="#22c55e"/><circle cx="673.3" cy="185.6" r="3" fill="#22c55e"/><circle cx="686.7" cy="186.0" r="3" fill="#22c55e"/><circle cx="700.0" cy="186.3" r="3" fill="#22c55e"/><circle cx="713.3" cy="186.6" r="3" fill="#22c55e"/><circle cx="726.7" cy="187.0" r="3" fill="#22c55e"/><circle cx="740.0" cy="187.3" r="3" fill="#22c55e"/><circle cx="753.3" cy="187.6" r="3" fill="#22c55e"/><circle cx="766.7" cy="188.0" r="3" fill="#22c55e"/><circle cx="780.0" cy="188.3" r="3" fill="#22c55e"/><circle cx="793.3" cy="188.6" r="3" fill="#22c55e"/><circle cx="806.7" cy="189.0" r="3" fill="#22c55e"/><circle cx="820.0" cy="189.3" r="3" fill="#22c55e"/><circle cx="833.3" cy="189.6" r="3" fill="#22c55e"/><circle cx="846.7" cy="189.9" r="3" fill="#22c55e"/><circle cx="860.0" cy="190.2" r="3" fill="#22c55e"/>
  <circle cx="60.0" cy="211.1" r="3" fill="#3b82f6"/><circle cx="73.3" cy="210.2" r="3" fill="#3b82f6"/><circle cx="86.7" cy="209.7" r="3" fill="#3b82f6"/><circle cx="100.0" cy="209.2" r="3" fill="#3b82f6"/><circle cx="113.3" cy="208.7" r="3" fill="#3b82f6"/><circle cx="126.7" cy="208.3" r="3" fill="#3b82f6"/><circle cx="140.0" cy="207.9" r="3" fill="#3b82f6"/><circle cx="153.3" cy="207.5" r="3" fill="#3b82f6"/><circle cx="166.7" cy="207.0" r="3" fill="#3b82f6"/><circle cx="180.0" cy="206.2" r="3" fill="#3b82f6"/><circle cx="193.3" cy="205.0" r="3" fill="#3b82f6"/><circle cx="206.7" cy="204.1" r="3" fill="#3b82f6"/><circle cx="220.0" cy="203.2" r="3" fill="#3b82f6"/><circle cx="233.3" cy="202.5" r="3" fill="#3b82f6"/><circle cx="246.7" cy="201.9" r="3" fill="#3b82f6"/><circle cx="260.0" cy="201.0" r="3" fill="#3b82f6"/><circle cx="273.3" cy="200.3" r="3" fill="#3b82f6"/><circle cx="286.7" cy="199.9" r="3" fill="#3b82f6"/><circle cx="300.0" cy="199.6" r="3" fill="#3b82f6"/><circle cx="313.3" cy="199.4" r="3" fill="#3b82f6"/><circle cx="326.7" cy="199.3" r="3" fill="#3b82f6"/><circle cx="340.0" cy="199.0" r="3" fill="#3b82f6"/><circle cx="353.3" cy="198.9" r="3" fill="#3b82f6"/><circle cx="366.7" cy="198.9" r="3" fill="#3b82f6"/><circle cx="380.0" cy="198.7" r="3" fill="#3b82f6"/><circle cx="393.3" cy="198.7" r="3" fill="#3b82f6"/><circle cx="406.7" cy="198.8" r="3" fill="#3b82f6"/><circle cx="420.0" cy="198.8" r="3" fill="#3b82f6"/><circle cx="433.3" cy="198.8" r="3" fill="#3b82f6"/><circle cx="446.7" cy="198.9" r="3" fill="#3b82f6"/><circle cx="460.0" cy="199.0" r="3" fill="#3b82f6"/><circle cx="473.3" cy="199.2" r="3" fill="#3b82f6"/><circle cx="486.7" cy="199.4" r="3" fill="#3b82f6"/><circle cx="500.0" cy="199.5" r="3" fill="#3b82f6"/><circle cx="513.3" cy="199.7" r="3" fill="#3b82f6"/><circle cx="526.7" cy="199.8" r="3" fill="#3b82f6"/><circle cx="540.0" cy="200.0" r="3" fill="#3b82f6"/><circle cx="553.3" cy="200.1" r="3" fill="#3b82f6"/><circle cx="566.7" cy="200.2" r="3" fill="#3b82f6"/><circle cx="580.0" cy="200.4" r="3" fill="#3b82f6"/><circle cx="593.3" cy="200.7" r="3" fill="#3b82f6"/><circle cx="606.7" cy="201.0" r="3" fill="#3b82f6"/><circle cx="620.0" cy="201.3" r="3" fill="#3b82f6"/><circle cx="633.3" cy="201.6" r="3" fill="#3b82f6"/><circle cx="646.7" cy="201.8" r="3" fill="#3b82f6"/><circle cx="660.0" cy="202.2" r="3" fill="#3b82f6"/><circle cx="673.3" cy="202.6" r="3" fill="#3b82f6"/><circle cx="686.7" cy="203.0" r="3" fill="#3b82f6"/><circle cx="700.0" cy="203.3" r="3" fill="#3b82f6"/><circle cx="713.3" cy="203.7" r="3" fill="#3b82f6"/><circle cx="726.7" cy="204.1" r="3" fill="#3b82f6"/><circle cx="740.0" cy="204.4" r="3" fill="#3b82f6"/><circle cx="753.3" cy="204.8" r="3" fill="#3b82f6"/><circle cx="766.7" cy="205.2" r="3" fill="#3b82f6"/><circle cx="780.0" cy="205.5" r="3" fill="#3b82f6"/><circle cx="793.3" cy="205.9" r="3" fill="#3b82f6"/><circle cx="806.7" cy="206.3" r="3" fill="#3b82f6"/><circle cx="820.0" cy="206.7" r="3" fill="#3b82f6"/><circle cx="833.3" cy="207.0" r="3" fill="#3b82f6"/><circle cx="846.7" cy="207.4" r="3" fill="#3b82f6"/><circle cx="860.0" cy="207.7" r="3" fill="#3b82f6"/>

  <!-- X ekseni -->
  <text x="60.0" y="380" text-anchor="middle" font-size="10" fill="#888">14.05.2026</text>
  <text x="193.3" y="380" text-anchor="middle" font-size="10" fill="#888">24.05.2026</text>
  <text x="326.7" y="380" text-anchor="middle" font-size="10" fill="#888">03.06.2026</text>
  <text x="460.0" y="380" text-anchor="middle" font-size="10" fill="#888">13.06.2026</text>
  <text x="593.3" y="380" text-anchor="middle" font-size="10" fill="#888">23.06.2026</text>
  <text x="726.7" y="380" text-anchor="middle" font-size="10" fill="#888">03.07.2026</text>
  <text x="860.0" y="380" text-anchor="middle" font-size="10" fill="#888">13.07.2026</text>

  <!-- Legend -->
  <g transform="translate(60, 345)">
    <rect x="0" y="0" width="12" height="12" fill="#22c55e" rx="2"/>
    <text x="18" y="10" font-size="11" fill="#c9d1d9">Toplam Doluluk</text>
    <rect x="140" y="0" width="12" height="12" fill="#3b82f6" rx="2"/>
    <text x="158" y="10" font-size="11" fill="#c9d1d9">Aktif Doluluk</text>
  </g>
</svg>