<svg xmlns="http://www.w3.org/2000/svg" viewBox="0 0 800 400" width="100%" style="max-width:800px;">
  <rect width="800" height="400" fill="#0d1117" rx="6"/>
  <text x="400.0" y="25" text-anchor="middle" font-size="16" font-weight="bold" fill="#c9d1d9">Son 90 Gün - Günlük Ortalama</text>

  <!-- Y grid -->
  <line x1="60" y1="320.0" x2="760" y2="320.0" stroke="#333" stroke-width="1" stroke-dasharray="4,4" opacity="0.5"/>
  <text x="50" y="320.0" text-anchor="end" dominant-baseline="middle" font-size="10" fill="#888">0%</text>
  <line x1="60" y1="264.0" x2="760" y2="264.0" stroke="#333" stroke-width="1" stroke-dasharray="4,4" opacity="0.5"/>
  <text x="50" y="264.0" text-anchor="end" dominant-baseline="middle" font-size="10" fill="#888">20%</text>
  <line x1="60" y1="208.0" x2="760" y2="208.0" stroke="#333" stroke-width="1" stroke-dasharray="4,4" opacity="0.5"/>
  <text x="50" y="208.0" text-anchor="end" dominant-baseline="middle" font-size="10" fill="#888">40%</text>
  <line x1="60" y1="152.0" x2="760" y2="152.0" stroke="#333" stroke-width="1" stroke-dasharray="4,4" opacity="0.5"/>
  <text x="50" y="152.0" text-anchor="end" dominant-baseline="middle" font-size="10" fill="#888">60%</text>
  <line x1="60" y1="96.0" x2="760" y2="96.0" stroke="#333" stroke-width="1" stroke-dasharray="4,4" opacity="0.5"/>
  <text x="50" y="96.0" text-anchor="end" dominant-baseline="middle" font-size="10" fill="#888">80%</text>
  <line x1="60" y1="40.0" x2="760" y2="40.0" stroke="#333" stroke-width="1" stroke-dasharray="4,4" opacity="0.5"/>
  <text x="50" y="40.0" text-anchor="end" dominant-baseline="middle" font-size="10" fill="#888">100%</text>

  <!-- Referans çizgileri -->
  <line x1="60" y1="236.0" x2="760" y2="236.0" stroke="#ef4444" stroke-width="1" stroke-dasharray="2,2" opacity="0.7"/>
  <text x="745" y="236.0" dominant-baseline="middle" font-size="9" fill="#ef4444">Kritik (30%)</text>
  <line x1="60" y1="180.0" x2="760" y2="180.0" stroke="#eab308" stroke-width="1" stroke-dasharray="2,2" opacity="0.7"/>
  <text x="745" y="180.0" dominant-baseline="middle" font-size="9" fill="#eab308">Normal (50%)</text>

  <!-- Toplam doluluk -->
  <polyline points="60.0,193.2 83.3,192.5 106.7,192.0 130.0,191.6 153.3,191.1 176.7,190.8 200.0,190.4 223.3,190.1 246.7,189.6 270.0,188.8 293.3,187.8 316.7,187.0 340.0,186.2 363.3,185.6 386.7,185.0 410.0,184.3 433.3,183.6 456.7,183.2 480.0,182.9 503.3,182.7 526.7,182.7 550.0,182.4 573.3,182.3 596.7,182.3 620.0,182.2 643.3,182.2 666.7,182.2 690.0,182.2 713.3,182.3 736.7,182.4 760.0,182.5" fill="none" stroke="#22c55e" stroke-width="2.5" stroke-linecap="round" stroke-linejoin="round"/>
  <polyline points="60.0,193.2 83.3,192.5 106.7,192.0 130.0,191.6 153.3,191.1 176.7,190.8 200.0,190.4 223.3,190.1 246.7,189.6 270.0,188.8 293.3,187.8 316.7,187.0 340.0,186.2 363.3,185.6 386.7,185.0 410.0,184.3 433.3,183.6 456.7,183.2 480.0,182.9 503.3,182.7 526.7,182.7 550.0,182.4 573.3,182.3 596.7,182.3 620.0,182.2 643.3,182.2 666.7,182.2 690.0,182.2 713.3,182.3 736.7,182.4 760.0,182.5" fill="none" stroke="#22c55e" stroke-width="5" opacity="0.1" stroke-linecap="round" stroke-linejoin="round"/>

  <!-- Aktif doluluk -->
  <polyline points="60.0,211.1 83.3,210.2 106.7,209.7 130.0,209.2 153.3,208.7 176.7,208.3 200.0,207.9 223.3,207.5 246.7,207.0 270.0,206.2 293.3,205.0 316.7,204.1 340.0,203.2 363.3,202.5 386.7,201.9 410.0,201.0 433.3,200.3 456.7,199.9 480.0,199.6 503.3,199.4 526.7,199.3 550.0,199.0 573.3,198.9 596.7,198.9 620.0,198.7 643.3,198.7 666.7,198.8 690.0,198.8 713.3,198.8 736.7,198.9 760.0,199.0" fill="none" stroke="#3b82f6" stroke-width="2.5" stroke-linecap="round" stroke-linejoin="round"/>
  <polyline points="60.0,211.1 83.3,210.2 106.7,209.7 130.0,209.2 153.3,208.7 176.7,208.3 200.0,207.9 223.3,207.5 246.7,207.0 270.0,206.2 293.3,205.0 316.7,204.1 340.0,203.2 363.3,202.5 386.7,201.9 410.0,201.0 433.3,200.3 456.7,199.9 480.0,199.6 503.3,199.4 526.7,199.3 550.0,199.0 573.3,198.9 596.7,198.9 620.0,198.7 643.3,198.7 666.7,198.8 690.0,198.8 713.3,198.8 736.7,198.9 760.0,199.0" fill="none" stroke="#3b82f6" stroke-width="5" opacity="0.1" stroke-linecap="round" stroke-linejoin="round"/>

  <!-- Noktalar -->
  <circle cx="60.0" cy="193.2" r="3" fill="#22c55e"/><circle cx="83.3" cy="192.5" r="3" fill="#22c55e"/><circle cx="106.7" cy="192.0" r="3" fill="#22c55e"/><circle cx="130.0" cy="191.6" r="3" fill="#22c55e"/><circle cx="153.3" cy="191.1" r="3" fill="#22c55e"/><circle cx="176.7" cy="190.8" r="3" fill="#22c55e"/><circle cx="200.0" cy="190.4" r="3" fill="#22c55e"/><circle cx="223.3" cy="190.1" r="3" fill="#22c55e"/><circle cx="246.7" cy="189.6" r="3" fill="#22c55e"/><circle cx="270.0" cy="188.8" r="3" fill="#22c55e"/><circle cx="293.3" cy="187.8" r="3" fill="#22c55e"/><circle cx="316.7" cy="187.0" r="3" fill="#22c55e"/><circle cx="340.0" cy="186.2" r="3" fill="#22c55e"/><circle cx="363.3" cy="185.6" r="3" fill="#22c55e"/><circle cx="386.7" cy="185.0" r="3" fill="#22c55e"/><circle cx="410.0" cy="184.3" r="3" fill="#22c55e"/><circle cx="433.3" cy="183.6" r="3" fill="#22c55e"/><circle cx="456.7" cy="183.2" r="3" fill="#22c55e"/><circle cx="480.0" cy="182.9" r="3" fill="#22c55e"/><circle cx="503.3" cy="182.7" r="3" fill="#22c55e"/><circle cx="526.7" cy="182.7" r="3" fill="#22c55e"/><circle cx="550.0" cy="182.4" r="3" fill="#22c55e"/><circle cx="573.3" cy="182.3" r="3" fill="#22c55e"/><circle cx="596.7" cy="182.3" r="3" fill="#22c55e"/><circle cx="620.0" cy="182.2" r="3" fill="#22c55e"/><circle cx="643.3" cy="182.2" r="3" fill="#22c55e"/><circle cx="666.7" cy="182.2" r="3" fill="#22c55e"/><circle cx="690.0" cy="182.2" r="3" fill="#22c55e"/><circle cx="713.3" cy="182.3" r="3" fill="#22c55e"/><circle cx="736.7" cy="182.4" r="3" fill="#22c55e"/><circle cx="760.0" cy="182.5" r="3" fill="#22c55e"/>
  <circle cx="60.0" cy="211.1" r="3" fill="#3b82f6"/><circle cx="83.3" cy="210.2" r="3" fill="#3b82f6"/><circle cx="106.7" cy="209.7" r="3" fill="#3b82f6"/><circle cx="130.0" cy="209.2" r="3" fill="#3b82f6"/><circle cx="153.3" cy="208.7" r="3" fill="#3b82f6"/><circle cx="176.7" cy="208.3" r="3" fill="#3b82f6"/><circle cx="200.0" cy="207.9" r="3" fill="#3b82f6"/><circle cx="223.3" cy="207.5" r="3" fill="#3b82f6"/><circle cx="246.7" cy="207.0" r="3" fill="#3b82f6"/><circle cx="270.0" cy="206.2" r="3" fill="#3b82f6"/><circle cx="293.3" cy="205.0" r="3" fill="#3b82f6"/><circle cx="316.7" cy="204.1" r="3" fill="#3b82f6"/><circle cx="340.0" cy="203.2" r="3" fill="#3b82f6"/><circle cx="363.3" cy="202.5" r="3" fill="#3b82f6"/><circle cx="386.7" cy="201.9" r="3" fill="#3b82f6"/><circle cx="410.0" cy="201.0" r="3" fill="#3b82f6"/><circle cx="433.3" cy="200.3" r="3" fill="#3b82f6"/><circle cx="456.7" cy="199.9" r="3" fill="#3b82f6"/><circle cx="480.0" cy="199.6" r="3" fill="#3b82f6"/><circle cx="503.3" cy="199.4" r="3" fill="#3b82f6"/><circle cx="526.7" cy="199.3" r="3" fill="#3b82f6"/><circle cx="550.0" cy="199.0" r="3" fill="#3b82f6"/><circle cx="573.3" cy="198.9" r="3" fill="#3b82f6"/><circle cx="596.7" cy="198.9" r="3" fill="#3b82f6"/><circle cx="620.0" cy="198.7" r="3" fill="#3b82f6"/><circle cx="643.3" cy="198.7" r="3" fill="#3b82f6"/><circle cx="666.7" cy="198.8" r="3" fill="#3b82f6"/><circle cx="690.0" cy="198.8" r="3" fill="#3b82f6"/><circle cx="713.3" cy="198.8" r="3" fill="#3b82f6"/><circle cx="736.7" cy="198.9" r="3" fill="#3b82f6"/><circle cx="760.0" cy="199.0" r="3" fill="#3b82f6"/>

  <!-- X ekseni -->
  <text x="60.0" y="380" text-anchor="middle" font-size="10" fill="#888">14.05.2026</text>
  <text x="176.7" y="380" text-anchor="middle" font-size="10" fill="#888">19.05.2026</text>
  <text x="293.3" y="380" text-anchor="middle" font-size="10" fill="#888">24.05.2026</text>
  <text x="410.0" y="380" text-anchor="middle" font-size="10" fill="#888">29.05.2026</text>
  <text x="526.7" y="380" text-anchor="middle" font-size="10" fill="#888">03.06.2026</text>
  <text x="643.3" y="380" text-anchor="middle" font-size="10" fill="#888">08.06.2026</text>
  <text x="760.0" y="380" text-anchor="middle" font-size="10" fill="#888">13.06.2026</text>

  <!-- Legend -->
  <g transform="translate(60, 345)">
    <rect x="0" y="0" width="12" height="12" fill="#22c55e" rx="2"/>
    <text x="18" y="10" font-size="11" fill="#c9d1d9">Toplam Doluluk</text>
    <rect x="140" y="0" width="12" height="12" fill="#3b82f6" rx="2"/>
    <text x="158" y="10" font-size="11" fill="#c9d1d9">Aktif Doluluk</text>
  </g>
</svg>