<svg xmlns="http://www.w3.org/2000/svg" viewBox="0 0 800 400" width="100%" style="max-width:800px;">
  <rect width="800" height="400" fill="#0d1117" rx="6"/>
  <text x="400.0" y="25" text-anchor="middle" font-size="16" font-weight="bold" fill="#c9d1d9">Son 90 Gün - Günlük Ortalama</text>

  <!-- Y grid -->
  <line x1="60" y1="320.0" x2="760" y2="320.0" stroke="#333" stroke-width="1" stroke-dasharray="4,4" opacity="0.5"/>
  <text x="50" y="320.0" text-anchor="end" dominant-baseline="middle" font-size="10" fill="#888">0%</text>
  <line x1="60" y1="264.0" x2="760" y2="264.0" stroke="#333" stroke-width="1" stroke-dasharray="4,4" opacity="0.5"/>
  <text x="50" y="264.0" text-anchor="end" dominant-baseline="middle" font-size="10" fill="#888">20%</text>
  <line x1="60" y1="208.0" x2="760" y2="208.0" stroke="#333" stroke-width="1" stroke-dasharray="4,4" opacity="0.5"/>
  <text x="50" y="208.0" text-anchor="end" dominant-baseline="middle" font-size="10" fill="#888">40%</text>
  <line x1="60" y1="152.0" x2="760" y2="152.0" stroke="#333" stroke-width="1" stroke-dasharray="4,4" opacity="0.5"/>
  <text x="50" y="152.0" text-anchor="end" dominant-baseline="middle" font-size="10" fill="#888">60%</text>
  <line x1="60" y1="96.0" x2="760" y2="96.0" stroke="#333" stroke-width="1" stroke-dasharray="4,4" opacity="0.5"/>
  <text x="50" y="96.0" text-anchor="end" dominant-baseline="middle" font-size="10" fill="#888">80%</text>
  <line x1="60" y1="40.0" x2="760" y2="40.0" stroke="#333" stroke-width="1" stroke-dasharray="4,4" opacity="0.5"/>
  <text x="50" y="40.0" text-anchor="end" dominant-baseline="middle" font-size="10" fill="#888">100%</text>

  <!-- Referans çizgileri -->
  <line x1="60" y1="236.0" x2="760" y2="236.0" stroke="#ef4444" stroke-width="1" stroke-dasharray="2,2" opacity="0.7"/>
  <text x="745" y="236.0" dominant-baseline="middle" font-size="9" fill="#ef4444">Kritik (30%)</text>
  <line x1="60" y1="180.0" x2="760" y2="180.0" stroke="#eab308" stroke-width="1" stroke-dasharray="2,2" opacity="0.7"/>
  <text x="745" y="180.0" dominant-baseline="middle" font-size="9" fill="#eab308">Normal (50%)</text>

  <!-- Toplam doluluk -->
  <polyline points="60.0,193.2 76.3,192.5 92.6,192.0 108.8,191.6 125.1,191.1 141.4,190.8 157.7,190.4 174.0,190.1 190.2,189.6 206.5,188.8 222.8,187.8 239.1,187.0 255.3,186.2 271.6,185.6 287.9,185.0 304.2,184.3 320.5,183.6 336.7,183.2 353.0,182.9 369.3,182.7 385.6,182.7 401.9,182.4 418.1,182.3 434.4,182.3 450.7,182.2 467.0,182.2 483.3,182.2 499.5,182.2 515.8,182.3 532.1,182.4 548.4,182.5 564.7,182.6 580.9,182.7 597.2,182.9 613.5,183.1 629.8,183.2 646.0,183.3 662.3,183.4 678.6,183.5 694.9,183.7 711.2,183.9 727.4,184.2 743.7,184.4 760.0,184.7" fill="none" stroke="#22c55e" stroke-width="2.5" stroke-linecap="round" stroke-linejoin="round"/>
  <polyline points="60.0,193.2 76.3,192.5 92.6,192.0 108.8,191.6 125.1,191.1 141.4,190.8 157.7,190.4 174.0,190.1 190.2,189.6 206.5,188.8 222.8,187.8 239.1,187.0 255.3,186.2 271.6,185.6 287.9,185.0 304.2,184.3 320.5,183.6 336.7,183.2 353.0,182.9 369.3,182.7 385.6,182.7 401.9,182.4 418.1,182.3 434.4,182.3 450.7,182.2 467.0,182.2 483.3,182.2 499.5,182.2 515.8,182.3 532.1,182.4 548.4,182.5 564.7,182.6 580.9,182.7 597.2,182.9 613.5,183.1 629.8,183.2 646.0,183.3 662.3,183.4 678.6,183.5 694.9,183.7 711.2,183.9 727.4,184.2 743.7,184.4 760.0,184.7" fill="none" stroke="#22c55e" stroke-width="5" opacity="0.1" stroke-linecap="round" stroke-linejoin="round"/>

  <!-- Aktif doluluk -->
  <polyline points="60.0,211.1 76.3,210.2 92.6,209.7 108.8,209.2 125.1,208.7 141.4,208.3 157.7,207.9 174.0,207.5 190.2,207.0 206.5,206.2 222.8,205.0 239.1,204.1 255.3,203.2 271.6,202.5 287.9,201.9 304.2,201.0 320.5,200.3 336.7,199.9 353.0,199.6 369.3,199.4 385.6,199.3 401.9,199.0 418.1,198.9 434.4,198.9 450.7,198.7 467.0,198.7 483.3,198.8 499.5,198.8 515.8,198.8 532.1,198.9 548.4,199.0 564.7,199.2 580.9,199.4 597.2,199.5 613.5,199.7 629.8,199.8 646.0,200.0 662.3,200.1 678.6,200.2 694.9,200.4 711.2,200.7 727.4,201.0 743.7,201.3 760.0,201.6" fill="none" stroke="#3b82f6" stroke-width="2.5" stroke-linecap="round" stroke-linejoin="round"/>
  <polyline points="60.0,211.1 76.3,210.2 92.6,209.7 108.8,209.2 125.1,208.7 141.4,208.3 157.7,207.9 174.0,207.5 190.2,207.0 206.5,206.2 222.8,205.0 239.1,204.1 255.3,203.2 271.6,202.5 287.9,201.9 304.2,201.0 320.5,200.3 336.7,199.9 353.0,199.6 369.3,199.4 385.6,199.3 401.9,199.0 418.1,198.9 434.4,198.9 450.7,198.7 467.0,198.7 483.3,198.8 499.5,198.8 515.8,198.8 532.1,198.9 548.4,199.0 564.7,199.2 580.9,199.4 597.2,199.5 613.5,199.7 629.8,199.8 646.0,200.0 662.3,200.1 678.6,200.2 694.9,200.4 711.2,200.7 727.4,201.0 743.7,201.3 760.0,201.6" fill="none" stroke="#3b82f6" stroke-width="5" opacity="0.1" stroke-linecap="round" stroke-linejoin="round"/>

  <!-- Noktalar -->
  <circle cx="60.0" cy="193.2" r="3" fill="#22c55e"/><circle cx="76.3" cy="192.5" r="3" fill="#22c55e"/><circle cx="92.6" cy="192.0" r="3" fill="#22c55e"/><circle cx="108.8" cy="191.6" r="3" fill="#22c55e"/><circle cx="125.1" cy="191.1" r="3" fill="#22c55e"/><circle cx="141.4" cy="190.8" r="3" fill="#22c55e"/><circle cx="157.7" cy="190.4" r="3" fill="#22c55e"/><circle cx="174.0" cy="190.1" r="3" fill="#22c55e"/><circle cx="190.2" cy="189.6" r="3" fill="#22c55e"/><circle cx="206.5" cy="188.8" r="3" fill="#22c55e"/><circle cx="222.8" cy="187.8" r="3" fill="#22c55e"/><circle cx="239.1" cy="187.0" r="3" fill="#22c55e"/><circle cx="255.3" cy="186.2" r="3" fill="#22c55e"/><circle cx="271.6" cy="185.6" r="3" fill="#22c55e"/><circle cx="287.9" cy="185.0" r="3" fill="#22c55e"/><circle cx="304.2" cy="184.3" r="3" fill="#22c55e"/><circle cx="320.5" cy="183.6" r="3" fill="#22c55e"/><circle cx="336.7" cy="183.2" r="3" fill="#22c55e"/><circle cx="353.0" cy="182.9" r="3" fill="#22c55e"/><circle cx="369.3" cy="182.7" r="3" fill="#22c55e"/><circle cx="385.6" cy="182.7" r="3" fill="#22c55e"/><circle cx="401.9" cy="182.4" r="3" fill="#22c55e"/><circle cx="418.1" cy="182.3" r="3" fill="#22c55e"/><circle cx="434.4" cy="182.3" r="3" fill="#22c55e"/><circle cx="450.7" cy="182.2" r="3" fill="#22c55e"/><circle cx="467.0" cy="182.2" r="3" fill="#22c55e"/><circle cx="483.3" cy="182.2" r="3" fill="#22c55e"/><circle cx="499.5" cy="182.2" r="3" fill="#22c55e"/><circle cx="515.8" cy="182.3" r="3" fill="#22c55e"/><circle cx="532.1" cy="182.4" r="3" fill="#22c55e"/><circle cx="548.4" cy="182.5" r="3" fill="#22c55e"/><circle cx="564.7" cy="182.6" r="3" fill="#22c55e"/><circle cx="580.9" cy="182.7" r="3" fill="#22c55e"/><circle cx="597.2" cy="182.9" r="3" fill="#22c55e"/><circle cx="613.5" cy="183.1" r="3" fill="#22c55e"/><circle cx="629.8" cy="183.2" r="3" fill="#22c55e"/><circle cx="646.0" cy="183.3" r="3" fill="#22c55e"/><circle cx="662.3" cy="183.4" r="3" fill="#22c55e"/><circle cx="678.6" cy="183.5" r="3" fill="#22c55e"/><circle cx="694.9" cy="183.7" r="3" fill="#22c55e"/><circle cx="711.2" cy="183.9" r="3" fill="#22c55e"/><circle cx="727.4" cy="184.2" r="3" fill="#22c55e"/><circle cx="743.7" cy="184.4" r="3" fill="#22c55e"/><circle cx="760.0" cy="184.7" r="3" fill="#22c55e"/>
  <circle cx="60.0" cy="211.1" r="3" fill="#3b82f6"/><circle cx="76.3" cy="210.2" r="3" fill="#3b82f6"/><circle cx="92.6" cy="209.7" r="3" fill="#3b82f6"/><circle cx="108.8" cy="209.2" r="3" fill="#3b82f6"/><circle cx="125.1" cy="208.7" r="3" fill="#3b82f6"/><circle cx="141.4" cy="208.3" r="3" fill="#3b82f6"/><circle cx="157.7" cy="207.9" r="3" fill="#3b82f6"/><circle cx="174.0" cy="207.5" r="3" fill="#3b82f6"/><circle cx="190.2" cy="207.0" r="3" fill="#3b82f6"/><circle cx="206.5" cy="206.2" r="3" fill="#3b82f6"/><circle cx="222.8" cy="205.0" r="3" fill="#3b82f6"/><circle cx="239.1" cy="204.1" r="3" fill="#3b82f6"/><circle cx="255.3" cy="203.2" r="3" fill="#3b82f6"/><circle cx="271.6" cy="202.5" r="3" fill="#3b82f6"/><circle cx="287.9" cy="201.9" r="3" fill="#3b82f6"/><circle cx="304.2" cy="201.0" r="3" fill="#3b82f6"/><circle cx="320.5" cy="200.3" r="3" fill="#3b82f6"/><circle cx="336.7" cy="199.9" r="3" fill="#3b82f6"/><circle cx="353.0" cy="199.6" r="3" fill="#3b82f6"/><circle cx="369.3" cy="199.4" r="3" fill="#3b82f6"/><circle cx="385.6" cy="199.3" r="3" fill="#3b82f6"/><circle cx="401.9" cy="199.0" r="3" fill="#3b82f6"/><circle cx="418.1" cy="198.9" r="3" fill="#3b82f6"/><circle cx="434.4" cy="198.9" r="3" fill="#3b82f6"/><circle cx="450.7" cy="198.7" r="3" fill="#3b82f6"/><circle cx="467.0" cy="198.7" r="3" fill="#3b82f6"/><circle cx="483.3" cy="198.8" r="3" fill="#3b82f6"/><circle cx="499.5" cy="198.8" r="3" fill="#3b82f6"/><circle cx="515.8" cy="198.8" r="3" fill="#3b82f6"/><circle cx="532.1" cy="198.9" r="3" fill="#3b82f6"/><circle cx="548.4" cy="199.0" r="3" fill="#3b82f6"/><circle cx="564.7" cy="199.2" r="3" fill="#3b82f6"/><circle cx="580.9" cy="199.4" r="3" fill="#3b82f6"/><circle cx="597.2" cy="199.5" r="3" fill="#3b82f6"/><circle cx="613.5" cy="199.7" r="3" fill="#3b82f6"/><circle cx="629.8" cy="199.8" r="3" fill="#3b82f6"/><circle cx="646.0" cy="200.0" r="3" fill="#3b82f6"/><circle cx="662.3" cy="200.1" r="3" fill="#3b82f6"/><circle cx="678.6" cy="200.2" r="3" fill="#3b82f6"/><circle cx="694.9" cy="200.4" r="3" fill="#3b82f6"/><circle cx="711.2" cy="200.7" r="3" fill="#3b82f6"/><circle cx="727.4" cy="201.0" r="3" fill="#3b82f6"/><circle cx="743.7" cy="201.3" r="3" fill="#3b82f6"/><circle cx="760.0" cy="201.6" r="3" fill="#3b82f6"/>

  <!-- X ekseni -->
  <text x="60.0" y="380" text-anchor="middle" font-size="10" fill="#888">14.05.2026</text>
  <text x="174.0" y="380" text-anchor="middle" font-size="10" fill="#888">21.05.2026</text>
  <text x="287.9" y="380" text-anchor="middle" font-size="10" fill="#888">28.05.2026</text>
  <text x="401.9" y="380" text-anchor="middle" font-size="10" fill="#888">04.06.2026</text>
  <text x="515.8" y="380" text-anchor="middle" font-size="10" fill="#888">11.06.2026</text>
  <text x="629.8" y="380" text-anchor="middle" font-size="10" fill="#888">18.06.2026</text>
  <text x="743.7" y="380" text-anchor="middle" font-size="10" fill="#888">25.06.2026</text>

  <!-- Legend -->
  <g transform="translate(60, 345)">
    <rect x="0" y="0" width="12" height="12" fill="#22c55e" rx="2"/>
    <text x="18" y="10" font-size="11" fill="#c9d1d9">Toplam Doluluk</text>
    <rect x="140" y="0" width="12" height="12" fill="#3b82f6" rx="2"/>
    <text x="158" y="10" font-size="11" fill="#c9d1d9">Aktif Doluluk</text>
  </g>
</svg>