<svg xmlns="http://www.w3.org/2000/svg" viewBox="0 0 900 400" width="100%" style="max-width:900px;">
  <rect width="900" height="400" fill="#0d1117" rx="6"/>
  <text x="450.0" y="25" text-anchor="middle" font-size="16" font-weight="bold" fill="#c9d1d9">Son 180 Gün - Günlük Ortalama</text>

  <!-- Y grid -->
  <line x1="60" y1="320.0" x2="860" y2="320.0" stroke="#333" stroke-width="1" stroke-dasharray="4,4" opacity="0.5"/>
  <text x="50" y="320.0" text-anchor="end" dominant-baseline="middle" font-size="10" fill="#888">0%</text>
  <line x1="60" y1="264.0" x2="860" y2="264.0" stroke="#333" stroke-width="1" stroke-dasharray="4,4" opacity="0.5"/>
  <text x="50" y="264.0" text-anchor="end" dominant-baseline="middle" font-size="10" fill="#888">20%</text>
  <line x1="60" y1="208.0" x2="860" y2="208.0" stroke="#333" stroke-width="1" stroke-dasharray="4,4" opacity="0.5"/>
  <text x="50" y="208.0" text-anchor="end" dominant-baseline="middle" font-size="10" fill="#888">40%</text>
  <line x1="60" y1="152.0" x2="860" y2="152.0" stroke="#333" stroke-width="1" stroke-dasharray="4,4" opacity="0.5"/>
  <text x="50" y="152.0" text-anchor="end" dominant-baseline="middle" font-size="10" fill="#888">60%</text>
  <line x1="60" y1="96.0" x2="860" y2="96.0" stroke="#333" stroke-width="1" stroke-dasharray="4,4" opacity="0.5"/>
  <text x="50" y="96.0" text-anchor="end" dominant-baseline="middle" font-size="10" fill="#888">80%</text>
  <line x1="60" y1="40.0" x2="860" y2="40.0" stroke="#333" stroke-width="1" stroke-dasharray="4,4" opacity="0.5"/>
  <text x="50" y="40.0" text-anchor="end" dominant-baseline="middle" font-size="10" fill="#888">100%</text>

  <!-- Referans çizgileri -->
  <line x1="60" y1="236.0" x2="860" y2="236.0" stroke="#ef4444" stroke-width="1" stroke-dasharray="2,2" opacity="0.7"/>
  <text x="845" y="236.0" dominant-baseline="middle" font-size="9" fill="#ef4444">Kritik (30%)</text>
  <line x1="60" y1="180.0" x2="860" y2="180.0" stroke="#eab308" stroke-width="1" stroke-dasharray="2,2" opacity="0.7"/>
  <text x="845" y="180.0" dominant-baseline="middle" font-size="9" fill="#eab308">Normal (50%)</text>

  <!-- Toplam doluluk -->
  <polyline points="60.0,193.2 77.8,192.5 95.6,192.0 113.3,191.6 131.1,191.1 148.9,190.8 166.7,190.4 184.4,190.1 202.2,189.6 220.0,188.8 237.8,187.8 255.6,187.0 273.3,186.2 291.1,185.6 308.9,185.0 326.7,184.3 344.4,183.6 362.2,183.2 380.0,182.9 397.8,182.7 415.6,182.7 433.3,182.4 451.1,182.3 468.9,182.3 486.7,182.2 504.4,182.2 522.2,182.2 540.0,182.2 557.8,182.3 575.6,182.4 593.3,182.5 611.1,182.6 628.9,182.7 646.7,182.9 664.4,183.1 682.2,183.2 700.0,183.3 717.8,183.4 735.6,183.5 753.3,183.7 771.1,183.9 788.9,184.2 806.7,184.4 824.4,184.7 842.2,185.0 860.0,185.3" fill="none" stroke="#22c55e" stroke-width="2.5" stroke-linecap="round" stroke-linejoin="round"/>
  <polyline points="60.0,193.2 77.8,192.5 95.6,192.0 113.3,191.6 131.1,191.1 148.9,190.8 166.7,190.4 184.4,190.1 202.2,189.6 220.0,188.8 237.8,187.8 255.6,187.0 273.3,186.2 291.1,185.6 308.9,185.0 326.7,184.3 344.4,183.6 362.2,183.2 380.0,182.9 397.8,182.7 415.6,182.7 433.3,182.4 451.1,182.3 468.9,182.3 486.7,182.2 504.4,182.2 522.2,182.2 540.0,182.2 557.8,182.3 575.6,182.4 593.3,182.5 611.1,182.6 628.9,182.7 646.7,182.9 664.4,183.1 682.2,183.2 700.0,183.3 717.8,183.4 735.6,183.5 753.3,183.7 771.1,183.9 788.9,184.2 806.7,184.4 824.4,184.7 842.2,185.0 860.0,185.3" fill="none" stroke="#22c55e" stroke-width="5" opacity="0.1" stroke-linecap="round" stroke-linejoin="round"/>

  <!-- Aktif doluluk -->
  <polyline points="60.0,211.1 77.8,210.2 95.6,209.7 113.3,209.2 131.1,208.7 148.9,208.3 166.7,207.9 184.4,207.5 202.2,207.0 220.0,206.2 237.8,205.0 255.6,204.1 273.3,203.2 291.1,202.5 308.9,201.9 326.7,201.0 344.4,200.3 362.2,199.9 380.0,199.6 397.8,199.4 415.6,199.3 433.3,199.0 451.1,198.9 468.9,198.9 486.7,198.7 504.4,198.7 522.2,198.8 540.0,198.8 557.8,198.8 575.6,198.9 593.3,199.0 611.1,199.2 628.9,199.4 646.7,199.5 664.4,199.7 682.2,199.8 700.0,200.0 717.8,200.1 735.6,200.2 753.3,200.4 771.1,200.7 788.9,201.0 806.7,201.3 824.4,201.6 842.2,201.8 860.0,202.2" fill="none" stroke="#3b82f6" stroke-width="2.5" stroke-linecap="round" stroke-linejoin="round"/>
  <polyline points="60.0,211.1 77.8,210.2 95.6,209.7 113.3,209.2 131.1,208.7 148.9,208.3 166.7,207.9 184.4,207.5 202.2,207.0 220.0,206.2 237.8,205.0 255.6,204.1 273.3,203.2 291.1,202.5 308.9,201.9 326.7,201.0 344.4,200.3 362.2,199.9 380.0,199.6 397.8,199.4 415.6,199.3 433.3,199.0 451.1,198.9 468.9,198.9 486.7,198.7 504.4,198.7 522.2,198.8 540.0,198.8 557.8,198.8 575.6,198.9 593.3,199.0 611.1,199.2 628.9,199.4 646.7,199.5 664.4,199.7 682.2,199.8 700.0,200.0 717.8,200.1 735.6,200.2 753.3,200.4 771.1,200.7 788.9,201.0 806.7,201.3 824.4,201.6 842.2,201.8 860.0,202.2" fill="none" stroke="#3b82f6" stroke-width="5" opacity="0.1" stroke-linecap="round" stroke-linejoin="round"/>

  <!-- Noktalar -->
  <circle cx="60.0" cy="193.2" r="3" fill="#22c55e"/><circle cx="77.8" cy="192.5" r="3" fill="#22c55e"/><circle cx="95.6" cy="192.0" r="3" fill="#22c55e"/><circle cx="113.3" cy="191.6" r="3" fill="#22c55e"/><circle cx="131.1" cy="191.1" r="3" fill="#22c55e"/><circle cx="148.9" cy="190.8" r="3" fill="#22c55e"/><circle cx="166.7" cy="190.4" r="3" fill="#22c55e"/><circle cx="184.4" cy="190.1" r="3" fill="#22c55e"/><circle cx="202.2" cy="189.6" r="3" fill="#22c55e"/><circle cx="220.0" cy="188.8" r="3" fill="#22c55e"/><circle cx="237.8" cy="187.8" r="3" fill="#22c55e"/><circle cx="255.6" cy="187.0" r="3" fill="#22c55e"/><circle cx="273.3" cy="186.2" r="3" fill="#22c55e"/><circle cx="291.1" cy="185.6" r="3" fill="#22c55e"/><circle cx="308.9" cy="185.0" r="3" fill="#22c55e"/><circle cx="326.7" cy="184.3" r="3" fill="#22c55e"/><circle cx="344.4" cy="183.6" r="3" fill="#22c55e"/><circle cx="362.2" cy="183.2" r="3" fill="#22c55e"/><circle cx="380.0" cy="182.9" r="3" fill="#22c55e"/><circle cx="397.8" cy="182.7" r="3" fill="#22c55e"/><circle cx="415.6" cy="182.7" r="3" fill="#22c55e"/><circle cx="433.3" cy="182.4" r="3" fill="#22c55e"/><circle cx="451.1" cy="182.3" r="3" fill="#22c55e"/><circle cx="468.9" cy="182.3" r="3" fill="#22c55e"/><circle cx="486.7" cy="182.2" r="3" fill="#22c55e"/><circle cx="504.4" cy="182.2" r="3" fill="#22c55e"/><circle cx="522.2" cy="182.2" r="3" fill="#22c55e"/><circle cx="540.0" cy="182.2" r="3" fill="#22c55e"/><circle cx="557.8" cy="182.3" r="3" fill="#22c55e"/><circle cx="575.6" cy="182.4" r="3" fill="#22c55e"/><circle cx="593.3" cy="182.5" r="3" fill="#22c55e"/><circle cx="611.1" cy="182.6" r="3" fill="#22c55e"/><circle cx="628.9" cy="182.7" r="3" fill="#22c55e"/><circle cx="646.7" cy="182.9" r="3" fill="#22c55e"/><circle cx="664.4" cy="183.1" r="3" fill="#22c55e"/><circle cx="682.2" cy="183.2" r="3" fill="#22c55e"/><circle cx="700.0" cy="183.3" r="3" fill="#22c55e"/><circle cx="717.8" cy="183.4" r="3" fill="#22c55e"/><circle cx="735.6" cy="183.5" r="3" fill="#22c55e"/><circle cx="753.3" cy="183.7" r="3" fill="#22c55e"/><circle cx="771.1" cy="183.9" r="3" fill="#22c55e"/><circle cx="788.9" cy="184.2" r="3" fill="#22c55e"/><circle cx="806.7" cy="184.4" r="3" fill="#22c55e"/><circle cx="824.4" cy="184.7" r="3" fill="#22c55e"/><circle cx="842.2" cy="185.0" r="3" fill="#22c55e"/><circle cx="860.0" cy="185.3" r="3" fill="#22c55e"/>
  <circle cx="60.0" cy="211.1" r="3" fill="#3b82f6"/><circle cx="77.8" cy="210.2" r="3" fill="#3b82f6"/><circle cx="95.6" cy="209.7" r="3" fill="#3b82f6"/><circle cx="113.3" cy="209.2" r="3" fill="#3b82f6"/><circle cx="131.1" cy="208.7" r="3" fill="#3b82f6"/><circle cx="148.9" cy="208.3" r="3" fill="#3b82f6"/><circle cx="166.7" cy="207.9" r="3" fill="#3b82f6"/><circle cx="184.4" cy="207.5" r="3" fill="#3b82f6"/><circle cx="202.2" cy="207.0" r="3" fill="#3b82f6"/><circle cx="220.0" cy="206.2" r="3" fill="#3b82f6"/><circle cx="237.8" cy="205.0" r="3" fill="#3b82f6"/><circle cx="255.6" cy="204.1" r="3" fill="#3b82f6"/><circle cx="273.3" cy="203.2" r="3" fill="#3b82f6"/><circle cx="291.1" cy="202.5" r="3" fill="#3b82f6"/><circle cx="308.9" cy="201.9" r="3" fill="#3b82f6"/><circle cx="326.7" cy="201.0" r="3" fill="#3b82f6"/><circle cx="344.4" cy="200.3" r="3" fill="#3b82f6"/><circle cx="362.2" cy="199.9" r="3" fill="#3b82f6"/><circle cx="380.0" cy="199.6" r="3" fill="#3b82f6"/><circle cx="397.8" cy="199.4" r="3" fill="#3b82f6"/><circle cx="415.6" cy="199.3" r="3" fill="#3b82f6"/><circle cx="433.3" cy="199.0" r="3" fill="#3b82f6"/><circle cx="451.1" cy="198.9" r="3" fill="#3b82f6"/><circle cx="468.9" cy="198.9" r="3" fill="#3b82f6"/><circle cx="486.7" cy="198.7" r="3" fill="#3b82f6"/><circle cx="504.4" cy="198.7" r="3" fill="#3b82f6"/><circle cx="522.2" cy="198.8" r="3" fill="#3b82f6"/><circle cx="540.0" cy="198.8" r="3" fill="#3b82f6"/><circle cx="557.8" cy="198.8" r="3" fill="#3b82f6"/><circle cx="575.6" cy="198.9" r="3" fill="#3b82f6"/><circle cx="593.3" cy="199.0" r="3" fill="#3b82f6"/><circle cx="611.1" cy="199.2" r="3" fill="#3b82f6"/><circle cx="628.9" cy="199.4" r="3" fill="#3b82f6"/><circle cx="646.7" cy="199.5" r="3" fill="#3b82f6"/><circle cx="664.4" cy="199.7" r="3" fill="#3b82f6"/><circle cx="682.2" cy="199.8" r="3" fill="#3b82f6"/><circle cx="700.0" cy="200.0" r="3" fill="#3b82f6"/><circle cx="717.8" cy="200.1" r="3" fill="#3b82f6"/><circle cx="735.6" cy="200.2" r="3" fill="#3b82f6"/><circle cx="753.3" cy="200.4" r="3" fill="#3b82f6"/><circle cx="771.1" cy="200.7" r="3" fill="#3b82f6"/><circle cx="788.9" cy="201.0" r="3" fill="#3b82f6"/><circle cx="806.7" cy="201.3" r="3" fill="#3b82f6"/><circle cx="824.4" cy="201.6" r="3" fill="#3b82f6"/><circle cx="842.2" cy="201.8" r="3" fill="#3b82f6"/><circle cx="860.0" cy="202.2" r="3" fill="#3b82f6"/>

  <!-- X ekseni -->
  <text x="60.0" y="380" text-anchor="middle" font-size="10" fill="#888">14.05.2026</text>
  <text x="184.4" y="380" text-anchor="middle" font-size="10" fill="#888">21.05.2026</text>
  <text x="308.9" y="380" text-anchor="middle" font-size="10" fill="#888">28.05.2026</text>
  <text x="433.3" y="380" text-anchor="middle" font-size="10" fill="#888">04.06.2026</text>
  <text x="557.8" y="380" text-anchor="middle" font-size="10" fill="#888">11.06.2026</text>
  <text x="682.2" y="380" text-anchor="middle" font-size="10" fill="#888">18.06.2026</text>
  <text x="806.7" y="380" text-anchor="middle" font-size="10" fill="#888">25.06.2026</text>

  <!-- Legend -->
  <g transform="translate(60, 345)">
    <rect x="0" y="0" width="12" height="12" fill="#22c55e" rx="2"/>
    <text x="18" y="10" font-size="11" fill="#c9d1d9">Toplam Doluluk</text>
    <rect x="140" y="0" width="12" height="12" fill="#3b82f6" rx="2"/>
    <text x="158" y="10" font-size="11" fill="#c9d1d9">Aktif Doluluk</text>
  </g>
</svg>