<svg xmlns="http://www.w3.org/2000/svg" viewBox="0 0 900 400" width="100%" style="max-width:900px;">
  <rect width="900" height="400" fill="#0d1117" rx="6"/>
  <text x="450.0" y="25" text-anchor="middle" font-size="16" font-weight="bold" fill="#c9d1d9">Son 180 Gün - Günlük Ortalama</text>

  <!-- Y grid -->
  <line x1="60" y1="320.0" x2="860" y2="320.0" stroke="#333" stroke-width="1" stroke-dasharray="4,4" opacity="0.5"/>
  <text x="50" y="320.0" text-anchor="end" dominant-baseline="middle" font-size="10" fill="#888">0%</text>
  <line x1="60" y1="264.0" x2="860" y2="264.0" stroke="#333" stroke-width="1" stroke-dasharray="4,4" opacity="0.5"/>
  <text x="50" y="264.0" text-anchor="end" dominant-baseline="middle" font-size="10" fill="#888">20%</text>
  <line x1="60" y1="208.0" x2="860" y2="208.0" stroke="#333" stroke-width="1" stroke-dasharray="4,4" opacity="0.5"/>
  <text x="50" y="208.0" text-anchor="end" dominant-baseline="middle" font-size="10" fill="#888">40%</text>
  <line x1="60" y1="152.0" x2="860" y2="152.0" stroke="#333" stroke-width="1" stroke-dasharray="4,4" opacity="0.5"/>
  <text x="50" y="152.0" text-anchor="end" dominant-baseline="middle" font-size="10" fill="#888">60%</text>
  <line x1="60" y1="96.0" x2="860" y2="96.0" stroke="#333" stroke-width="1" stroke-dasharray="4,4" opacity="0.5"/>
  <text x="50" y="96.0" text-anchor="end" dominant-baseline="middle" font-size="10" fill="#888">80%</text>
  <line x1="60" y1="40.0" x2="860" y2="40.0" stroke="#333" stroke-width="1" stroke-dasharray="4,4" opacity="0.5"/>
  <text x="50" y="40.0" text-anchor="end" dominant-baseline="middle" font-size="10" fill="#888">100%</text>

  <!-- Referans çizgileri -->
  <line x1="60" y1="236.0" x2="860" y2="236.0" stroke="#ef4444" stroke-width="1" stroke-dasharray="2,2" opacity="0.7"/>
  <text x="845" y="236.0" dominant-baseline="middle" font-size="9" fill="#ef4444">Kritik (30%)</text>
  <line x1="60" y1="180.0" x2="860" y2="180.0" stroke="#eab308" stroke-width="1" stroke-dasharray="2,2" opacity="0.7"/>
  <text x="845" y="180.0" dominant-baseline="middle" font-size="9" fill="#eab308">Normal (50%)</text>

  <!-- Toplam doluluk -->
  <polyline points="60.0,193.2 84.2,192.5 108.5,192.0 132.7,191.6 157.0,191.1 181.2,190.8 205.5,190.4 229.7,190.1 253.9,189.6 278.2,188.8 302.4,187.8 326.7,187.0 350.9,186.2 375.2,185.6 399.4,185.0 423.6,184.3 447.9,183.6 472.1,183.2 496.4,182.9 520.6,182.7 544.8,182.7 569.1,182.4 593.3,182.3 617.6,182.3 641.8,182.2 666.1,182.2 690.3,182.2 714.5,182.2 738.8,182.3 763.0,182.4 787.3,182.5 811.5,182.6 835.8,182.7 860.0,182.9" fill="none" stroke="#22c55e" stroke-width="2.5" stroke-linecap="round" stroke-linejoin="round"/>
  <polyline points="60.0,193.2 84.2,192.5 108.5,192.0 132.7,191.6 157.0,191.1 181.2,190.8 205.5,190.4 229.7,190.1 253.9,189.6 278.2,188.8 302.4,187.8 326.7,187.0 350.9,186.2 375.2,185.6 399.4,185.0 423.6,184.3 447.9,183.6 472.1,183.2 496.4,182.9 520.6,182.7 544.8,182.7 569.1,182.4 593.3,182.3 617.6,182.3 641.8,182.2 666.1,182.2 690.3,182.2 714.5,182.2 738.8,182.3 763.0,182.4 787.3,182.5 811.5,182.6 835.8,182.7 860.0,182.9" fill="none" stroke="#22c55e" stroke-width="5" opacity="0.1" stroke-linecap="round" stroke-linejoin="round"/>

  <!-- Aktif doluluk -->
  <polyline points="60.0,211.1 84.2,210.2 108.5,209.7 132.7,209.2 157.0,208.7 181.2,208.3 205.5,207.9 229.7,207.5 253.9,207.0 278.2,206.2 302.4,205.0 326.7,204.1 350.9,203.2 375.2,202.5 399.4,201.9 423.6,201.0 447.9,200.3 472.1,199.9 496.4,199.6 520.6,199.4 544.8,199.3 569.1,199.0 593.3,198.9 617.6,198.9 641.8,198.7 666.1,198.7 690.3,198.8 714.5,198.8 738.8,198.8 763.0,198.9 787.3,199.0 811.5,199.2 835.8,199.4 860.0,199.5" fill="none" stroke="#3b82f6" stroke-width="2.5" stroke-linecap="round" stroke-linejoin="round"/>
  <polyline points="60.0,211.1 84.2,210.2 108.5,209.7 132.7,209.2 157.0,208.7 181.2,208.3 205.5,207.9 229.7,207.5 253.9,207.0 278.2,206.2 302.4,205.0 326.7,204.1 350.9,203.2 375.2,202.5 399.4,201.9 423.6,201.0 447.9,200.3 472.1,199.9 496.4,199.6 520.6,199.4 544.8,199.3 569.1,199.0 593.3,198.9 617.6,198.9 641.8,198.7 666.1,198.7 690.3,198.8 714.5,198.8 738.8,198.8 763.0,198.9 787.3,199.0 811.5,199.2 835.8,199.4 860.0,199.5" fill="none" stroke="#3b82f6" stroke-width="5" opacity="0.1" stroke-linecap="round" stroke-linejoin="round"/>

  <!-- Noktalar -->
  <circle cx="60.0" cy="193.2" r="3" fill="#22c55e"/><circle cx="84.2" cy="192.5" r="3" fill="#22c55e"/><circle cx="108.5" cy="192.0" r="3" fill="#22c55e"/><circle cx="132.7" cy="191.6" r="3" fill="#22c55e"/><circle cx="157.0" cy="191.1" r="3" fill="#22c55e"/><circle cx="181.2" cy="190.8" r="3" fill="#22c55e"/><circle cx="205.5" cy="190.4" r="3" fill="#22c55e"/><circle cx="229.7" cy="190.1" r="3" fill="#22c55e"/><circle cx="253.9" cy="189.6" r="3" fill="#22c55e"/><circle cx="278.2" cy="188.8" r="3" fill="#22c55e"/><circle cx="302.4" cy="187.8" r="3" fill="#22c55e"/><circle cx="326.7" cy="187.0" r="3" fill="#22c55e"/><circle cx="350.9" cy="186.2" r="3" fill="#22c55e"/><circle cx="375.2" cy="185.6" r="3" fill="#22c55e"/><circle cx="399.4" cy="185.0" r="3" fill="#22c55e"/><circle cx="423.6" cy="184.3" r="3" fill="#22c55e"/><circle cx="447.9" cy="183.6" r="3" fill="#22c55e"/><circle cx="472.1" cy="183.2" r="3" fill="#22c55e"/><circle cx="496.4" cy="182.9" r="3" fill="#22c55e"/><circle cx="520.6" cy="182.7" r="3" fill="#22c55e"/><circle cx="544.8" cy="182.7" r="3" fill="#22c55e"/><circle cx="569.1" cy="182.4" r="3" fill="#22c55e"/><circle cx="593.3" cy="182.3" r="3" fill="#22c55e"/><circle cx="617.6" cy="182.3" r="3" fill="#22c55e"/><circle cx="641.8" cy="182.2" r="3" fill="#22c55e"/><circle cx="666.1" cy="182.2" r="3" fill="#22c55e"/><circle cx="690.3" cy="182.2" r="3" fill="#22c55e"/><circle cx="714.5" cy="182.2" r="3" fill="#22c55e"/><circle cx="738.8" cy="182.3" r="3" fill="#22c55e"/><circle cx="763.0" cy="182.4" r="3" fill="#22c55e"/><circle cx="787.3" cy="182.5" r="3" fill="#22c55e"/><circle cx="811.5" cy="182.6" r="3" fill="#22c55e"/><circle cx="835.8" cy="182.7" r="3" fill="#22c55e"/><circle cx="860.0" cy="182.9" r="3" fill="#22c55e"/>
  <circle cx="60.0" cy="211.1" r="3" fill="#3b82f6"/><circle cx="84.2" cy="210.2" r="3" fill="#3b82f6"/><circle cx="108.5" cy="209.7" r="3" fill="#3b82f6"/><circle cx="132.7" cy="209.2" r="3" fill="#3b82f6"/><circle cx="157.0" cy="208.7" r="3" fill="#3b82f6"/><circle cx="181.2" cy="208.3" r="3" fill="#3b82f6"/><circle cx="205.5" cy="207.9" r="3" fill="#3b82f6"/><circle cx="229.7" cy="207.5" r="3" fill="#3b82f6"/><circle cx="253.9" cy="207.0" r="3" fill="#3b82f6"/><circle cx="278.2" cy="206.2" r="3" fill="#3b82f6"/><circle cx="302.4" cy="205.0" r="3" fill="#3b82f6"/><circle cx="326.7" cy="204.1" r="3" fill="#3b82f6"/><circle cx="350.9" cy="203.2" r="3" fill="#3b82f6"/><circle cx="375.2" cy="202.5" r="3" fill="#3b82f6"/><circle cx="399.4" cy="201.9" r="3" fill="#3b82f6"/><circle cx="423.6" cy="201.0" r="3" fill="#3b82f6"/><circle cx="447.9" cy="200.3" r="3" fill="#3b82f6"/><circle cx="472.1" cy="199.9" r="3" fill="#3b82f6"/><circle cx="496.4" cy="199.6" r="3" fill="#3b82f6"/><circle cx="520.6" cy="199.4" r="3" fill="#3b82f6"/><circle cx="544.8" cy="199.3" r="3" fill="#3b82f6"/><circle cx="569.1" cy="199.0" r="3" fill="#3b82f6"/><circle cx="593.3" cy="198.9" r="3" fill="#3b82f6"/><circle cx="617.6" cy="198.9" r="3" fill="#3b82f6"/><circle cx="641.8" cy="198.7" r="3" fill="#3b82f6"/><circle cx="666.1" cy="198.7" r="3" fill="#3b82f6"/><circle cx="690.3" cy="198.8" r="3" fill="#3b82f6"/><circle cx="714.5" cy="198.8" r="3" fill="#3b82f6"/><circle cx="738.8" cy="198.8" r="3" fill="#3b82f6"/><circle cx="763.0" cy="198.9" r="3" fill="#3b82f6"/><circle cx="787.3" cy="199.0" r="3" fill="#3b82f6"/><circle cx="811.5" cy="199.2" r="3" fill="#3b82f6"/><circle cx="835.8" cy="199.4" r="3" fill="#3b82f6"/><circle cx="860.0" cy="199.5" r="3" fill="#3b82f6"/>

  <!-- X ekseni -->
  <text x="60.0" y="380" text-anchor="middle" font-size="10" fill="#888">14.05.2026</text>
  <text x="181.2" y="380" text-anchor="middle" font-size="10" fill="#888">19.05.2026</text>
  <text x="302.4" y="380" text-anchor="middle" font-size="10" fill="#888">24.05.2026</text>
  <text x="423.6" y="380" text-anchor="middle" font-size="10" fill="#888">29.05.2026</text>
  <text x="544.8" y="380" text-anchor="middle" font-size="10" fill="#888">03.06.2026</text>
  <text x="666.1" y="380" text-anchor="middle" font-size="10" fill="#888">08.06.2026</text>
  <text x="787.3" y="380" text-anchor="middle" font-size="10" fill="#888">13.06.2026</text>

  <!-- Legend -->
  <g transform="translate(60, 345)">
    <rect x="0" y="0" width="12" height="12" fill="#22c55e" rx="2"/>
    <text x="18" y="10" font-size="11" fill="#c9d1d9">Toplam Doluluk</text>
    <rect x="140" y="0" width="12" height="12" fill="#3b82f6" rx="2"/>
    <text x="158" y="10" font-size="11" fill="#c9d1d9">Aktif Doluluk</text>
  </g>
</svg>