<svg xmlns="http://www.w3.org/2000/svg" viewBox="0 0 900 400" width="100%" style="max-width:900px;">
  <rect width="900" height="400" fill="#0d1117" rx="6"/>
  <text x="450.0" y="25" text-anchor="middle" font-size="16" font-weight="bold" fill="#c9d1d9">Son 180 Gün - Günlük Ortalama</text>

  <!-- Y grid -->
  <line x1="60" y1="320.0" x2="860" y2="320.0" stroke="#333" stroke-width="1" stroke-dasharray="4,4" opacity="0.5"/>
  <text x="50" y="320.0" text-anchor="end" dominant-baseline="middle" font-size="10" fill="#888">0%</text>
  <line x1="60" y1="264.0" x2="860" y2="264.0" stroke="#333" stroke-width="1" stroke-dasharray="4,4" opacity="0.5"/>
  <text x="50" y="264.0" text-anchor="end" dominant-baseline="middle" font-size="10" fill="#888">20%</text>
  <line x1="60" y1="208.0" x2="860" y2="208.0" stroke="#333" stroke-width="1" stroke-dasharray="4,4" opacity="0.5"/>
  <text x="50" y="208.0" text-anchor="end" dominant-baseline="middle" font-size="10" fill="#888">40%</text>
  <line x1="60" y1="152.0" x2="860" y2="152.0" stroke="#333" stroke-width="1" stroke-dasharray="4,4" opacity="0.5"/>
  <text x="50" y="152.0" text-anchor="end" dominant-baseline="middle" font-size="10" fill="#888">60%</text>
  <line x1="60" y1="96.0" x2="860" y2="96.0" stroke="#333" stroke-width="1" stroke-dasharray="4,4" opacity="0.5"/>
  <text x="50" y="96.0" text-anchor="end" dominant-baseline="middle" font-size="10" fill="#888">80%</text>
  <line x1="60" y1="40.0" x2="860" y2="40.0" stroke="#333" stroke-width="1" stroke-dasharray="4,4" opacity="0.5"/>
  <text x="50" y="40.0" text-anchor="end" dominant-baseline="middle" font-size="10" fill="#888">100%</text>

  <!-- Referans çizgileri -->
  <line x1="60" y1="236.0" x2="860" y2="236.0" stroke="#ef4444" stroke-width="1" stroke-dasharray="2,2" opacity="0.7"/>
  <text x="845" y="236.0" dominant-baseline="middle" font-size="9" fill="#ef4444">Kritik (30%)</text>
  <line x1="60" y1="180.0" x2="860" y2="180.0" stroke="#eab308" stroke-width="1" stroke-dasharray="2,2" opacity="0.7"/>
  <text x="845" y="180.0" dominant-baseline="middle" font-size="9" fill="#eab308">Normal (50%)</text>

  <!-- Toplam doluluk -->
  <polyline points="60.0,193.2 87.6,192.5 115.2,192.0 142.8,191.6 170.3,191.1 197.9,190.8 225.5,190.4 253.1,190.1 280.7,189.6 308.3,188.8 335.9,187.8 363.4,187.0 391.0,186.2 418.6,185.6 446.2,185.0 473.8,184.3 501.4,183.6 529.0,183.2 556.6,182.9 584.1,182.7 611.7,182.7 639.3,182.4 666.9,182.3 694.5,182.3 722.1,182.2 749.7,182.2 777.2,182.2 804.8,182.2 832.4,182.3 860.0,182.4" fill="none" stroke="#22c55e" stroke-width="2.5" stroke-linecap="round" stroke-linejoin="round"/>
  <polyline points="60.0,193.2 87.6,192.5 115.2,192.0 142.8,191.6 170.3,191.1 197.9,190.8 225.5,190.4 253.1,190.1 280.7,189.6 308.3,188.8 335.9,187.8 363.4,187.0 391.0,186.2 418.6,185.6 446.2,185.0 473.8,184.3 501.4,183.6 529.0,183.2 556.6,182.9 584.1,182.7 611.7,182.7 639.3,182.4 666.9,182.3 694.5,182.3 722.1,182.2 749.7,182.2 777.2,182.2 804.8,182.2 832.4,182.3 860.0,182.4" fill="none" stroke="#22c55e" stroke-width="5" opacity="0.1" stroke-linecap="round" stroke-linejoin="round"/>

  <!-- Aktif doluluk -->
  <polyline points="60.0,211.1 87.6,210.2 115.2,209.7 142.8,209.2 170.3,208.7 197.9,208.3 225.5,207.9 253.1,207.5 280.7,207.0 308.3,206.2 335.9,205.0 363.4,204.1 391.0,203.2 418.6,202.5 446.2,201.9 473.8,201.0 501.4,200.3 529.0,199.9 556.6,199.6 584.1,199.4 611.7,199.3 639.3,199.0 666.9,198.9 694.5,198.9 722.1,198.7 749.7,198.7 777.2,198.8 804.8,198.8 832.4,198.8 860.0,198.9" fill="none" stroke="#3b82f6" stroke-width="2.5" stroke-linecap="round" stroke-linejoin="round"/>
  <polyline points="60.0,211.1 87.6,210.2 115.2,209.7 142.8,209.2 170.3,208.7 197.9,208.3 225.5,207.9 253.1,207.5 280.7,207.0 308.3,206.2 335.9,205.0 363.4,204.1 391.0,203.2 418.6,202.5 446.2,201.9 473.8,201.0 501.4,200.3 529.0,199.9 556.6,199.6 584.1,199.4 611.7,199.3 639.3,199.0 666.9,198.9 694.5,198.9 722.1,198.7 749.7,198.7 777.2,198.8 804.8,198.8 832.4,198.8 860.0,198.9" fill="none" stroke="#3b82f6" stroke-width="5" opacity="0.1" stroke-linecap="round" stroke-linejoin="round"/>

  <!-- Noktalar -->
  <circle cx="60.0" cy="193.2" r="3" fill="#22c55e"/><circle cx="87.6" cy="192.5" r="3" fill="#22c55e"/><circle cx="115.2" cy="192.0" r="3" fill="#22c55e"/><circle cx="142.8" cy="191.6" r="3" fill="#22c55e"/><circle cx="170.3" cy="191.1" r="3" fill="#22c55e"/><circle cx="197.9" cy="190.8" r="3" fill="#22c55e"/><circle cx="225.5" cy="190.4" r="3" fill="#22c55e"/><circle cx="253.1" cy="190.1" r="3" fill="#22c55e"/><circle cx="280.7" cy="189.6" r="3" fill="#22c55e"/><circle cx="308.3" cy="188.8" r="3" fill="#22c55e"/><circle cx="335.9" cy="187.8" r="3" fill="#22c55e"/><circle cx="363.4" cy="187.0" r="3" fill="#22c55e"/><circle cx="391.0" cy="186.2" r="3" fill="#22c55e"/><circle cx="418.6" cy="185.6" r="3" fill="#22c55e"/><circle cx="446.2" cy="185.0" r="3" fill="#22c55e"/><circle cx="473.8" cy="184.3" r="3" fill="#22c55e"/><circle cx="501.4" cy="183.6" r="3" fill="#22c55e"/><circle cx="529.0" cy="183.2" r="3" fill="#22c55e"/><circle cx="556.6" cy="182.9" r="3" fill="#22c55e"/><circle cx="584.1" cy="182.7" r="3" fill="#22c55e"/><circle cx="611.7" cy="182.7" r="3" fill="#22c55e"/><circle cx="639.3" cy="182.4" r="3" fill="#22c55e"/><circle cx="666.9" cy="182.3" r="3" fill="#22c55e"/><circle cx="694.5" cy="182.3" r="3" fill="#22c55e"/><circle cx="722.1" cy="182.2" r="3" fill="#22c55e"/><circle cx="749.7" cy="182.2" r="3" fill="#22c55e"/><circle cx="777.2" cy="182.2" r="3" fill="#22c55e"/><circle cx="804.8" cy="182.2" r="3" fill="#22c55e"/><circle cx="832.4" cy="182.3" r="3" fill="#22c55e"/><circle cx="860.0" cy="182.4" r="3" fill="#22c55e"/>
  <circle cx="60.0" cy="211.1" r="3" fill="#3b82f6"/><circle cx="87.6" cy="210.2" r="3" fill="#3b82f6"/><circle cx="115.2" cy="209.7" r="3" fill="#3b82f6"/><circle cx="142.8" cy="209.2" r="3" fill="#3b82f6"/><circle cx="170.3" cy="208.7" r="3" fill="#3b82f6"/><circle cx="197.9" cy="208.3" r="3" fill="#3b82f6"/><circle cx="225.5" cy="207.9" r="3" fill="#3b82f6"/><circle cx="253.1" cy="207.5" r="3" fill="#3b82f6"/><circle cx="280.7" cy="207.0" r="3" fill="#3b82f6"/><circle cx="308.3" cy="206.2" r="3" fill="#3b82f6"/><circle cx="335.9" cy="205.0" r="3" fill="#3b82f6"/><circle cx="363.4" cy="204.1" r="3" fill="#3b82f6"/><circle cx="391.0" cy="203.2" r="3" fill="#3b82f6"/><circle cx="418.6" cy="202.5" r="3" fill="#3b82f6"/><circle cx="446.2" cy="201.9" r="3" fill="#3b82f6"/><circle cx="473.8" cy="201.0" r="3" fill="#3b82f6"/><circle cx="501.4" cy="200.3" r="3" fill="#3b82f6"/><circle cx="529.0" cy="199.9" r="3" fill="#3b82f6"/><circle cx="556.6" cy="199.6" r="3" fill="#3b82f6"/><circle cx="584.1" cy="199.4" r="3" fill="#3b82f6"/><circle cx="611.7" cy="199.3" r="3" fill="#3b82f6"/><circle cx="639.3" cy="199.0" r="3" fill="#3b82f6"/><circle cx="666.9" cy="198.9" r="3" fill="#3b82f6"/><circle cx="694.5" cy="198.9" r="3" fill="#3b82f6"/><circle cx="722.1" cy="198.7" r="3" fill="#3b82f6"/><circle cx="749.7" cy="198.7" r="3" fill="#3b82f6"/><circle cx="777.2" cy="198.8" r="3" fill="#3b82f6"/><circle cx="804.8" cy="198.8" r="3" fill="#3b82f6"/><circle cx="832.4" cy="198.8" r="3" fill="#3b82f6"/><circle cx="860.0" cy="198.9" r="3" fill="#3b82f6"/>

  <!-- X ekseni -->
  <text x="60.0" y="380" text-anchor="middle" font-size="10" fill="#888">14.05 00:00</text>
  <text x="197.9" y="380" text-anchor="middle" font-size="10" fill="#888">19.05 00:00</text>
  <text x="335.9" y="380" text-anchor="middle" font-size="10" fill="#888">24.05 00:00</text>
  <text x="473.8" y="380" text-anchor="middle" font-size="10" fill="#888">29.05 00:00</text>
  <text x="611.7" y="380" text-anchor="middle" font-size="10" fill="#888">03.06 00:00</text>
  <text x="749.7" y="380" text-anchor="middle" font-size="10" fill="#888">08.06 00:00</text>

  <!-- Legend -->
  <g transform="translate(60, 345)">
    <rect x="0" y="0" width="12" height="12" fill="#22c55e" rx="2"/>
    <text x="18" y="10" font-size="11" fill="#c9d1d9">Toplam Doluluk</text>
    <rect x="140" y="0" width="12" height="12" fill="#3b82f6" rx="2"/>
    <text x="158" y="10" font-size="11" fill="#c9d1d9">Aktif Doluluk</text>
  </g>
</svg>