<svg xmlns="http://www.w3.org/2000/svg" viewBox="0 0 900 400" width="100%" style="max-width:900px;">
  <rect width="900" height="400" fill="#0d1117" rx="6"/>
  <text x="450.0" y="25" text-anchor="middle" font-size="16" font-weight="bold" fill="#c9d1d9">Son 180 Gün - Günlük Ortalama</text>

  <!-- Y grid -->
  <line x1="60" y1="320.0" x2="860" y2="320.0" stroke="#333" stroke-width="1" stroke-dasharray="4,4" opacity="0.5"/>
  <text x="50" y="320.0" text-anchor="end" dominant-baseline="middle" font-size="10" fill="#888">0%</text>
  <line x1="60" y1="264.0" x2="860" y2="264.0" stroke="#333" stroke-width="1" stroke-dasharray="4,4" opacity="0.5"/>
  <text x="50" y="264.0" text-anchor="end" dominant-baseline="middle" font-size="10" fill="#888">20%</text>
  <line x1="60" y1="208.0" x2="860" y2="208.0" stroke="#333" stroke-width="1" stroke-dasharray="4,4" opacity="0.5"/>
  <text x="50" y="208.0" text-anchor="end" dominant-baseline="middle" font-size="10" fill="#888">40%</text>
  <line x1="60" y1="152.0" x2="860" y2="152.0" stroke="#333" stroke-width="1" stroke-dasharray="4,4" opacity="0.5"/>
  <text x="50" y="152.0" text-anchor="end" dominant-baseline="middle" font-size="10" fill="#888">60%</text>
  <line x1="60" y1="96.0" x2="860" y2="96.0" stroke="#333" stroke-width="1" stroke-dasharray="4,4" opacity="0.5"/>
  <text x="50" y="96.0" text-anchor="end" dominant-baseline="middle" font-size="10" fill="#888">80%</text>
  <line x1="60" y1="40.0" x2="860" y2="40.0" stroke="#333" stroke-width="1" stroke-dasharray="4,4" opacity="0.5"/>
  <text x="50" y="40.0" text-anchor="end" dominant-baseline="middle" font-size="10" fill="#888">100%</text>

  <!-- Referans çizgileri -->
  <line x1="60" y1="236.0" x2="860" y2="236.0" stroke="#ef4444" stroke-width="1" stroke-dasharray="2,2" opacity="0.7"/>
  <text x="845" y="236.0" dominant-baseline="middle" font-size="9" fill="#ef4444">Kritik (30%)</text>
  <line x1="60" y1="180.0" x2="860" y2="180.0" stroke="#eab308" stroke-width="1" stroke-dasharray="2,2" opacity="0.7"/>
  <text x="845" y="180.0" dominant-baseline="middle" font-size="9" fill="#eab308">Normal (50%)</text>

  <!-- Toplam doluluk -->
  <polyline points="60.0,193.2 96.4,192.5 132.7,192.0 169.1,191.6 205.5,191.1 241.8,190.8 278.2,190.4 314.5,190.1 350.9,189.6 387.3,188.8 423.6,187.8 460.0,187.0 496.4,186.2 532.7,185.6 569.1,185.0 605.5,184.3 641.8,183.6 678.2,183.2 714.5,182.9 750.9,182.7 787.3,182.7 823.6,182.4 860.0,182.3" fill="none" stroke="#22c55e" stroke-width="2.5" stroke-linecap="round" stroke-linejoin="round"/>
  <polyline points="60.0,193.2 96.4,192.5 132.7,192.0 169.1,191.6 205.5,191.1 241.8,190.8 278.2,190.4 314.5,190.1 350.9,189.6 387.3,188.8 423.6,187.8 460.0,187.0 496.4,186.2 532.7,185.6 569.1,185.0 605.5,184.3 641.8,183.6 678.2,183.2 714.5,182.9 750.9,182.7 787.3,182.7 823.6,182.4 860.0,182.3" fill="none" stroke="#22c55e" stroke-width="5" opacity="0.1" stroke-linecap="round" stroke-linejoin="round"/>

  <!-- Aktif doluluk -->
  <polyline points="60.0,211.1 96.4,210.2 132.7,209.7 169.1,209.2 205.5,208.7 241.8,208.3 278.2,207.9 314.5,207.5 350.9,207.0 387.3,206.2 423.6,205.0 460.0,204.1 496.4,203.2 532.7,202.5 569.1,201.9 605.5,201.0 641.8,200.3 678.2,199.9 714.5,199.6 750.9,199.4 787.3,199.3 823.6,199.0 860.0,198.9" fill="none" stroke="#3b82f6" stroke-width="2.5" stroke-linecap="round" stroke-linejoin="round"/>
  <polyline points="60.0,211.1 96.4,210.2 132.7,209.7 169.1,209.2 205.5,208.7 241.8,208.3 278.2,207.9 314.5,207.5 350.9,207.0 387.3,206.2 423.6,205.0 460.0,204.1 496.4,203.2 532.7,202.5 569.1,201.9 605.5,201.0 641.8,200.3 678.2,199.9 714.5,199.6 750.9,199.4 787.3,199.3 823.6,199.0 860.0,198.9" fill="none" stroke="#3b82f6" stroke-width="5" opacity="0.1" stroke-linecap="round" stroke-linejoin="round"/>

  <!-- Noktalar -->
  <circle cx="60.0" cy="193.2" r="3" fill="#22c55e"/><circle cx="96.4" cy="192.5" r="3" fill="#22c55e"/><circle cx="132.7" cy="192.0" r="3" fill="#22c55e"/><circle cx="169.1" cy="191.6" r="3" fill="#22c55e"/><circle cx="205.5" cy="191.1" r="3" fill="#22c55e"/><circle cx="241.8" cy="190.8" r="3" fill="#22c55e"/><circle cx="278.2" cy="190.4" r="3" fill="#22c55e"/><circle cx="314.5" cy="190.1" r="3" fill="#22c55e"/><circle cx="350.9" cy="189.6" r="3" fill="#22c55e"/><circle cx="387.3" cy="188.8" r="3" fill="#22c55e"/><circle cx="423.6" cy="187.8" r="3" fill="#22c55e"/><circle cx="460.0" cy="187.0" r="3" fill="#22c55e"/><circle cx="496.4" cy="186.2" r="3" fill="#22c55e"/><circle cx="532.7" cy="185.6" r="3" fill="#22c55e"/><circle cx="569.1" cy="185.0" r="3" fill="#22c55e"/><circle cx="605.5" cy="184.3" r="3" fill="#22c55e"/><circle cx="641.8" cy="183.6" r="3" fill="#22c55e"/><circle cx="678.2" cy="183.2" r="3" fill="#22c55e"/><circle cx="714.5" cy="182.9" r="3" fill="#22c55e"/><circle cx="750.9" cy="182.7" r="3" fill="#22c55e"/><circle cx="787.3" cy="182.7" r="3" fill="#22c55e"/><circle cx="823.6" cy="182.4" r="3" fill="#22c55e"/><circle cx="860.0" cy="182.3" r="3" fill="#22c55e"/>
  <circle cx="60.0" cy="211.1" r="3" fill="#3b82f6"/><circle cx="96.4" cy="210.2" r="3" fill="#3b82f6"/><circle cx="132.7" cy="209.7" r="3" fill="#3b82f6"/><circle cx="169.1" cy="209.2" r="3" fill="#3b82f6"/><circle cx="205.5" cy="208.7" r="3" fill="#3b82f6"/><circle cx="241.8" cy="208.3" r="3" fill="#3b82f6"/><circle cx="278.2" cy="207.9" r="3" fill="#3b82f6"/><circle cx="314.5" cy="207.5" r="3" fill="#3b82f6"/><circle cx="350.9" cy="207.0" r="3" fill="#3b82f6"/><circle cx="387.3" cy="206.2" r="3" fill="#3b82f6"/><circle cx="423.6" cy="205.0" r="3" fill="#3b82f6"/><circle cx="460.0" cy="204.1" r="3" fill="#3b82f6"/><circle cx="496.4" cy="203.2" r="3" fill="#3b82f6"/><circle cx="532.7" cy="202.5" r="3" fill="#3b82f6"/><circle cx="569.1" cy="201.9" r="3" fill="#3b82f6"/><circle cx="605.5" cy="201.0" r="3" fill="#3b82f6"/><circle cx="641.8" cy="200.3" r="3" fill="#3b82f6"/><circle cx="678.2" cy="199.9" r="3" fill="#3b82f6"/><circle cx="714.5" cy="199.6" r="3" fill="#3b82f6"/><circle cx="750.9" cy="199.4" r="3" fill="#3b82f6"/><circle cx="787.3" cy="199.3" r="3" fill="#3b82f6"/><circle cx="823.6" cy="199.0" r="3" fill="#3b82f6"/><circle cx="860.0" cy="198.9" r="3" fill="#3b82f6"/>

  <!-- X ekseni -->
  <text x="60.0" y="380" text-anchor="middle" font-size="10" fill="#888">14.05 00:00</text>
  <text x="169.1" y="380" text-anchor="middle" font-size="10" fill="#888">17.05 00:00</text>
  <text x="278.2" y="380" text-anchor="middle" font-size="10" fill="#888">20.05 00:00</text>
  <text x="387.3" y="380" text-anchor="middle" font-size="10" fill="#888">23.05 00:00</text>
  <text x="496.4" y="380" text-anchor="middle" font-size="10" fill="#888">26.05 00:00</text>
  <text x="605.5" y="380" text-anchor="middle" font-size="10" fill="#888">29.05 00:00</text>
  <text x="714.5" y="380" text-anchor="middle" font-size="10" fill="#888">01.06 00:00</text>
  <text x="823.6" y="380" text-anchor="middle" font-size="10" fill="#888">04.06 00:00</text>

  <!-- Legend -->
  <g transform="translate(60, 345)">
    <rect x="0" y="0" width="12" height="12" fill="#22c55e" rx="2"/>
    <text x="18" y="10" font-size="11" fill="#c9d1d9">Toplam Doluluk</text>
    <rect x="140" y="0" width="12" height="12" fill="#3b82f6" rx="2"/>
    <text x="158" y="10" font-size="11" fill="#c9d1d9">Aktif Doluluk</text>
  </g>
</svg>