<svg xmlns="http://www.w3.org/2000/svg" viewBox="0 0 900 400" width="100%" style="max-width:900px;">
  <rect width="900" height="400" fill="#0d1117" rx="6"/>
  <text x="450.0" y="25" text-anchor="middle" font-size="16" font-weight="bold" fill="#c9d1d9">Son 180 Gün - Günlük Ortalama</text>

  <!-- Y grid -->
  <line x1="60" y1="320.0" x2="860" y2="320.0" stroke="#333" stroke-width="1" stroke-dasharray="4,4" opacity="0.5"/>
  <text x="50" y="320.0" text-anchor="end" dominant-baseline="middle" font-size="10" fill="#888">0%</text>
  <line x1="60" y1="264.0" x2="860" y2="264.0" stroke="#333" stroke-width="1" stroke-dasharray="4,4" opacity="0.5"/>
  <text x="50" y="264.0" text-anchor="end" dominant-baseline="middle" font-size="10" fill="#888">20%</text>
  <line x1="60" y1="208.0" x2="860" y2="208.0" stroke="#333" stroke-width="1" stroke-dasharray="4,4" opacity="0.5"/>
  <text x="50" y="208.0" text-anchor="end" dominant-baseline="middle" font-size="10" fill="#888">40%</text>
  <line x1="60" y1="152.0" x2="860" y2="152.0" stroke="#333" stroke-width="1" stroke-dasharray="4,4" opacity="0.5"/>
  <text x="50" y="152.0" text-anchor="end" dominant-baseline="middle" font-size="10" fill="#888">60%</text>
  <line x1="60" y1="96.0" x2="860" y2="96.0" stroke="#333" stroke-width="1" stroke-dasharray="4,4" opacity="0.5"/>
  <text x="50" y="96.0" text-anchor="end" dominant-baseline="middle" font-size="10" fill="#888">80%</text>
  <line x1="60" y1="40.0" x2="860" y2="40.0" stroke="#333" stroke-width="1" stroke-dasharray="4,4" opacity="0.5"/>
  <text x="50" y="40.0" text-anchor="end" dominant-baseline="middle" font-size="10" fill="#888">100%</text>

  <!-- Referans çizgileri -->
  <line x1="60" y1="236.0" x2="860" y2="236.0" stroke="#ef4444" stroke-width="1" stroke-dasharray="2,2" opacity="0.7"/>
  <text x="845" y="236.0" dominant-baseline="middle" font-size="9" fill="#ef4444">Kritik (30%)</text>
  <line x1="60" y1="180.0" x2="860" y2="180.0" stroke="#eab308" stroke-width="1" stroke-dasharray="2,2" opacity="0.7"/>
  <text x="845" y="180.0" dominant-baseline="middle" font-size="9" fill="#eab308">Normal (50%)</text>

  <!-- Toplam doluluk -->
  <polyline points="60.0,193.2 117.1,192.5 174.3,192.0 231.4,191.6 288.6,191.1 345.7,190.8 402.9,190.4 460.0,190.1 517.1,189.6 574.3,188.8 631.4,187.8 688.6,187.0 745.7,186.2 802.9,185.6 860.0,185.0" fill="none" stroke="#22c55e" stroke-width="2.5" stroke-linecap="round" stroke-linejoin="round"/>
  <polyline points="60.0,193.2 117.1,192.5 174.3,192.0 231.4,191.6 288.6,191.1 345.7,190.8 402.9,190.4 460.0,190.1 517.1,189.6 574.3,188.8 631.4,187.8 688.6,187.0 745.7,186.2 802.9,185.6 860.0,185.0" fill="none" stroke="#22c55e" stroke-width="5" opacity="0.1" stroke-linecap="round" stroke-linejoin="round"/>

  <!-- Aktif doluluk -->
  <polyline points="60.0,211.1 117.1,210.2 174.3,209.7 231.4,209.2 288.6,208.7 345.7,208.3 402.9,207.9 460.0,207.5 517.1,207.0 574.3,206.2 631.4,205.0 688.6,204.1 745.7,203.2 802.9,202.5 860.0,201.9" fill="none" stroke="#3b82f6" stroke-width="2.5" stroke-linecap="round" stroke-linejoin="round"/>
  <polyline points="60.0,211.1 117.1,210.2 174.3,209.7 231.4,209.2 288.6,208.7 345.7,208.3 402.9,207.9 460.0,207.5 517.1,207.0 574.3,206.2 631.4,205.0 688.6,204.1 745.7,203.2 802.9,202.5 860.0,201.9" fill="none" stroke="#3b82f6" stroke-width="5" opacity="0.1" stroke-linecap="round" stroke-linejoin="round"/>

  <!-- Noktalar -->
  <circle cx="60.0" cy="193.2" r="3" fill="#22c55e"/><circle cx="117.1" cy="192.5" r="3" fill="#22c55e"/><circle cx="174.3" cy="192.0" r="3" fill="#22c55e"/><circle cx="231.4" cy="191.6" r="3" fill="#22c55e"/><circle cx="288.6" cy="191.1" r="3" fill="#22c55e"/><circle cx="345.7" cy="190.8" r="3" fill="#22c55e"/><circle cx="402.9" cy="190.4" r="3" fill="#22c55e"/><circle cx="460.0" cy="190.1" r="3" fill="#22c55e"/><circle cx="517.1" cy="189.6" r="3" fill="#22c55e"/><circle cx="574.3" cy="188.8" r="3" fill="#22c55e"/><circle cx="631.4" cy="187.8" r="3" fill="#22c55e"/><circle cx="688.6" cy="187.0" r="3" fill="#22c55e"/><circle cx="745.7" cy="186.2" r="3" fill="#22c55e"/><circle cx="802.9" cy="185.6" r="3" fill="#22c55e"/><circle cx="860.0" cy="185.0" r="3" fill="#22c55e"/>
  <circle cx="60.0" cy="211.1" r="3" fill="#3b82f6"/><circle cx="117.1" cy="210.2" r="3" fill="#3b82f6"/><circle cx="174.3" cy="209.7" r="3" fill="#3b82f6"/><circle cx="231.4" cy="209.2" r="3" fill="#3b82f6"/><circle cx="288.6" cy="208.7" r="3" fill="#3b82f6"/><circle cx="345.7" cy="208.3" r="3" fill="#3b82f6"/><circle cx="402.9" cy="207.9" r="3" fill="#3b82f6"/><circle cx="460.0" cy="207.5" r="3" fill="#3b82f6"/><circle cx="517.1" cy="207.0" r="3" fill="#3b82f6"/><circle cx="574.3" cy="206.2" r="3" fill="#3b82f6"/><circle cx="631.4" cy="205.0" r="3" fill="#3b82f6"/><circle cx="688.6" cy="204.1" r="3" fill="#3b82f6"/><circle cx="745.7" cy="203.2" r="3" fill="#3b82f6"/><circle cx="802.9" cy="202.5" r="3" fill="#3b82f6"/><circle cx="860.0" cy="201.9" r="3" fill="#3b82f6"/>

  <!-- X ekseni -->
  <text x="60.0" y="380" text-anchor="middle" font-size="10" fill="#888">14.05 00:00</text>
  <text x="174.3" y="380" text-anchor="middle" font-size="10" fill="#888">16.05 00:00</text>
  <text x="288.6" y="380" text-anchor="middle" font-size="10" fill="#888">18.05 00:00</text>
  <text x="402.9" y="380" text-anchor="middle" font-size="10" fill="#888">20.05 00:00</text>
  <text x="517.1" y="380" text-anchor="middle" font-size="10" fill="#888">22.05 00:00</text>
  <text x="631.4" y="380" text-anchor="middle" font-size="10" fill="#888">24.05 00:00</text>
  <text x="745.7" y="380" text-anchor="middle" font-size="10" fill="#888">26.05 00:00</text>
  <text x="860.0" y="380" text-anchor="middle" font-size="10" fill="#888">28.05 00:00</text>

  <!-- Legend -->
  <g transform="translate(60, 345)">
    <rect x="0" y="0" width="12" height="12" fill="#22c55e" rx="2"/>
    <text x="18" y="10" font-size="11" fill="#c9d1d9">Toplam Doluluk</text>
    <rect x="140" y="0" width="12" height="12" fill="#3b82f6" rx="2"/>
    <text x="158" y="10" font-size="11" fill="#c9d1d9">Aktif Doluluk</text>
  </g>
</svg>