<svg xmlns="http://www.w3.org/2000/svg" viewBox="0 0 900 400" width="100%" style="max-width:900px;">
  <rect width="900" height="400" fill="#0d1117" rx="6"/>
  <text x="450.0" y="25" text-anchor="middle" font-size="16" font-weight="bold" fill="#c9d1d9">Son 360 Gün - Günlük Ortalama</text>

  <!-- Y grid -->
  <line x1="60" y1="320.0" x2="860" y2="320.0" stroke="#333" stroke-width="1" stroke-dasharray="4,4" opacity="0.5"/>
  <text x="50" y="320.0" text-anchor="end" dominant-baseline="middle" font-size="10" fill="#888">0%</text>
  <line x1="60" y1="264.0" x2="860" y2="264.0" stroke="#333" stroke-width="1" stroke-dasharray="4,4" opacity="0.5"/>
  <text x="50" y="264.0" text-anchor="end" dominant-baseline="middle" font-size="10" fill="#888">20%</text>
  <line x1="60" y1="208.0" x2="860" y2="208.0" stroke="#333" stroke-width="1" stroke-dasharray="4,4" opacity="0.5"/>
  <text x="50" y="208.0" text-anchor="end" dominant-baseline="middle" font-size="10" fill="#888">40%</text>
  <line x1="60" y1="152.0" x2="860" y2="152.0" stroke="#333" stroke-width="1" stroke-dasharray="4,4" opacity="0.5"/>
  <text x="50" y="152.0" text-anchor="end" dominant-baseline="middle" font-size="10" fill="#888">60%</text>
  <line x1="60" y1="96.0" x2="860" y2="96.0" stroke="#333" stroke-width="1" stroke-dasharray="4,4" opacity="0.5"/>
  <text x="50" y="96.0" text-anchor="end" dominant-baseline="middle" font-size="10" fill="#888">80%</text>
  <line x1="60" y1="40.0" x2="860" y2="40.0" stroke="#333" stroke-width="1" stroke-dasharray="4,4" opacity="0.5"/>
  <text x="50" y="40.0" text-anchor="end" dominant-baseline="middle" font-size="10" fill="#888">100%</text>

  <!-- Referans çizgileri -->
  <line x1="60" y1="236.0" x2="860" y2="236.0" stroke="#ef4444" stroke-width="1" stroke-dasharray="2,2" opacity="0.7"/>
  <text x="845" y="236.0" dominant-baseline="middle" font-size="9" fill="#ef4444">Kritik (30%)</text>
  <line x1="60" y1="180.0" x2="860" y2="180.0" stroke="#eab308" stroke-width="1" stroke-dasharray="2,2" opacity="0.7"/>
  <text x="845" y="180.0" dominant-baseline="middle" font-size="9" fill="#eab308">Normal (50%)</text>

  <!-- Toplam doluluk -->
  <polyline points="60.0,193.2 72.3,192.5 84.6,192.0 96.9,191.6 109.2,191.1 121.5,190.8 133.8,190.4 146.2,190.1 158.5,189.6 170.8,188.8 183.1,187.8 195.4,187.0 207.7,186.2 220.0,185.6 232.3,185.0 244.6,184.3 256.9,183.6 269.2,183.2 281.5,182.9 293.8,182.7 306.2,182.7 318.5,182.4 330.8,182.3 343.1,182.3 355.4,182.2 367.7,182.2 380.0,182.2 392.3,182.2 404.6,182.3 416.9,182.4 429.2,182.5 441.5,182.6 453.8,182.7 466.2,182.9 478.5,183.1 490.8,183.2 503.1,183.3 515.4,183.4 527.7,183.5 540.0,183.7 552.3,183.9 564.6,184.2 576.9,184.4 589.2,184.7 601.5,185.0 613.8,185.3 626.2,185.6 638.5,186.0 650.8,186.3 663.1,186.6 675.4,187.0 687.7,187.3 700.0,187.6 712.3,188.0 724.6,188.3 736.9,188.6 749.2,189.0 761.5,189.3 773.8,189.6 786.2,189.9 798.5,190.2 810.8,190.5 823.1,190.8 835.4,191.1 847.7,191.4 860.0,191.6" fill="none" stroke="#22c55e" stroke-width="2.5" stroke-linecap="round" stroke-linejoin="round"/>
  <polyline points="60.0,193.2 72.3,192.5 84.6,192.0 96.9,191.6 109.2,191.1 121.5,190.8 133.8,190.4 146.2,190.1 158.5,189.6 170.8,188.8 183.1,187.8 195.4,187.0 207.7,186.2 220.0,185.6 232.3,185.0 244.6,184.3 256.9,183.6 269.2,183.2 281.5,182.9 293.8,182.7 306.2,182.7 318.5,182.4 330.8,182.3 343.1,182.3 355.4,182.2 367.7,182.2 380.0,182.2 392.3,182.2 404.6,182.3 416.9,182.4 429.2,182.5 441.5,182.6 453.8,182.7 466.2,182.9 478.5,183.1 490.8,183.2 503.1,183.3 515.4,183.4 527.7,183.5 540.0,183.7 552.3,183.9 564.6,184.2 576.9,184.4 589.2,184.7 601.5,185.0 613.8,185.3 626.2,185.6 638.5,186.0 650.8,186.3 663.1,186.6 675.4,187.0 687.7,187.3 700.0,187.6 712.3,188.0 724.6,188.3 736.9,188.6 749.2,189.0 761.5,189.3 773.8,189.6 786.2,189.9 798.5,190.2 810.8,190.5 823.1,190.8 835.4,191.1 847.7,191.4 860.0,191.6" fill="none" stroke="#22c55e" stroke-width="5" opacity="0.1" stroke-linecap="round" stroke-linejoin="round"/>

  <!-- Aktif doluluk -->
  <polyline points="60.0,211.1 72.3,210.2 84.6,209.7 96.9,209.2 109.2,208.7 121.5,208.3 133.8,207.9 146.2,207.5 158.5,207.0 170.8,206.2 183.1,205.0 195.4,204.1 207.7,203.2 220.0,202.5 232.3,201.9 244.6,201.0 256.9,200.3 269.2,199.9 281.5,199.6 293.8,199.4 306.2,199.3 318.5,199.0 330.8,198.9 343.1,198.9 355.4,198.7 367.7,198.7 380.0,198.8 392.3,198.8 404.6,198.8 416.9,198.9 429.2,199.0 441.5,199.2 453.8,199.4 466.2,199.5 478.5,199.7 490.8,199.8 503.1,200.0 515.4,200.1 527.7,200.2 540.0,200.4 552.3,200.7 564.6,201.0 576.9,201.3 589.2,201.6 601.5,201.8 613.8,202.2 626.2,202.6 638.5,203.0 650.8,203.3 663.1,203.7 675.4,204.1 687.7,204.4 700.0,204.8 712.3,205.2 724.6,205.5 736.9,205.9 749.2,206.3 761.5,206.7 773.8,207.0 786.2,207.4 798.5,207.7 810.8,208.0 823.1,208.3 835.4,208.7 847.7,209.0 860.0,209.3" fill="none" stroke="#3b82f6" stroke-width="2.5" stroke-linecap="round" stroke-linejoin="round"/>
  <polyline points="60.0,211.1 72.3,210.2 84.6,209.7 96.9,209.2 109.2,208.7 121.5,208.3 133.8,207.9 146.2,207.5 158.5,207.0 170.8,206.2 183.1,205.0 195.4,204.1 207.7,203.2 220.0,202.5 232.3,201.9 244.6,201.0 256.9,200.3 269.2,199.9 281.5,199.6 293.8,199.4 306.2,199.3 318.5,199.0 330.8,198.9 343.1,198.9 355.4,198.7 367.7,198.7 380.0,198.8 392.3,198.8 404.6,198.8 416.9,198.9 429.2,199.0 441.5,199.2 453.8,199.4 466.2,199.5 478.5,199.7 490.8,199.8 503.1,200.0 515.4,200.1 527.7,200.2 540.0,200.4 552.3,200.7 564.6,201.0 576.9,201.3 589.2,201.6 601.5,201.8 613.8,202.2 626.2,202.6 638.5,203.0 650.8,203.3 663.1,203.7 675.4,204.1 687.7,204.4 700.0,204.8 712.3,205.2 724.6,205.5 736.9,205.9 749.2,206.3 761.5,206.7 773.8,207.0 786.2,207.4 798.5,207.7 810.8,208.0 823.1,208.3 835.4,208.7 847.7,209.0 860.0,209.3" fill="none" stroke="#3b82f6" stroke-width="5" opacity="0.1" stroke-linecap="round" stroke-linejoin="round"/>

  <!-- Noktalar -->
  <circle cx="60.0" cy="193.2" r="3" fill="#22c55e"/><circle cx="72.3" cy="192.5" r="3" fill="#22c55e"/><circle cx="84.6" cy="192.0" r="3" fill="#22c55e"/><circle cx="96.9" cy="191.6" r="3" fill="#22c55e"/><circle cx="109.2" cy="191.1" r="3" fill="#22c55e"/><circle cx="121.5" cy="190.8" r="3" fill="#22c55e"/><circle cx="133.8" cy="190.4" r="3" fill="#22c55e"/><circle cx="146.2" cy="190.1" r="3" fill="#22c55e"/><circle cx="158.5" cy="189.6" r="3" fill="#22c55e"/><circle cx="170.8" cy="188.8" r="3" fill="#22c55e"/><circle cx="183.1" cy="187.8" r="3" fill="#22c55e"/><circle cx="195.4" cy="187.0" r="3" fill="#22c55e"/><circle cx="207.7" cy="186.2" r="3" fill="#22c55e"/><circle cx="220.0" cy="185.6" r="3" fill="#22c55e"/><circle cx="232.3" cy="185.0" r="3" fill="#22c55e"/><circle cx="244.6" cy="184.3" r="3" fill="#22c55e"/><circle cx="256.9" cy="183.6" r="3" fill="#22c55e"/><circle cx="269.2" cy="183.2" r="3" fill="#22c55e"/><circle cx="281.5" cy="182.9" r="3" fill="#22c55e"/><circle cx="293.8" cy="182.7" r="3" fill="#22c55e"/><circle cx="306.2" cy="182.7" r="3" fill="#22c55e"/><circle cx="318.5" cy="182.4" r="3" fill="#22c55e"/><circle cx="330.8" cy="182.3" r="3" fill="#22c55e"/><circle cx="343.1" cy="182.3" r="3" fill="#22c55e"/><circle cx="355.4" cy="182.2" r="3" fill="#22c55e"/><circle cx="367.7" cy="182.2" r="3" fill="#22c55e"/><circle cx="380.0" cy="182.2" r="3" fill="#22c55e"/><circle cx="392.3" cy="182.2" r="3" fill="#22c55e"/><circle cx="404.6" cy="182.3" r="3" fill="#22c55e"/><circle cx="416.9" cy="182.4" r="3" fill="#22c55e"/><circle cx="429.2" cy="182.5" r="3" fill="#22c55e"/><circle cx="441.5" cy="182.6" r="3" fill="#22c55e"/><circle cx="453.8" cy="182.7" r="3" fill="#22c55e"/><circle cx="466.2" cy="182.9" r="3" fill="#22c55e"/><circle cx="478.5" cy="183.1" r="3" fill="#22c55e"/><circle cx="490.8" cy="183.2" r="3" fill="#22c55e"/><circle cx="503.1" cy="183.3" r="3" fill="#22c55e"/><circle cx="515.4" cy="183.4" r="3" fill="#22c55e"/><circle cx="527.7" cy="183.5" r="3" fill="#22c55e"/><circle cx="540.0" cy="183.7" r="3" fill="#22c55e"/><circle cx="552.3" cy="183.9" r="3" fill="#22c55e"/><circle cx="564.6" cy="184.2" r="3" fill="#22c55e"/><circle cx="576.9" cy="184.4" r="3" fill="#22c55e"/><circle cx="589.2" cy="184.7" r="3" fill="#22c55e"/><circle cx="601.5" cy="185.0" r="3" fill="#22c55e"/><circle cx="613.8" cy="185.3" r="3" fill="#22c55e"/><circle cx="626.2" cy="185.6" r="3" fill="#22c55e"/><circle cx="638.5" cy="186.0" r="3" fill="#22c55e"/><circle cx="650.8" cy="186.3" r="3" fill="#22c55e"/><circle cx="663.1" cy="186.6" r="3" fill="#22c55e"/><circle cx="675.4" cy="187.0" r="3" fill="#22c55e"/><circle cx="687.7" cy="187.3" r="3" fill="#22c55e"/><circle cx="700.0" cy="187.6" r="3" fill="#22c55e"/><circle cx="712.3" cy="188.0" r="3" fill="#22c55e"/><circle cx="724.6" cy="188.3" r="3" fill="#22c55e"/><circle cx="736.9" cy="188.6" r="3" fill="#22c55e"/><circle cx="749.2" cy="189.0" r="3" fill="#22c55e"/><circle cx="761.5" cy="189.3" r="3" fill="#22c55e"/><circle cx="773.8" cy="189.6" r="3" fill="#22c55e"/><circle cx="786.2" cy="189.9" r="3" fill="#22c55e"/><circle cx="798.5" cy="190.2" r="3" fill="#22c55e"/><circle cx="810.8" cy="190.5" r="3" fill="#22c55e"/><circle cx="823.1" cy="190.8" r="3" fill="#22c55e"/><circle cx="835.4" cy="191.1" r="3" fill="#22c55e"/><circle cx="847.7" cy="191.4" r="3" fill="#22c55e"/><circle cx="860.0" cy="191.6" r="3" fill="#22c55e"/>
  <circle cx="60.0" cy="211.1" r="3" fill="#3b82f6"/><circle cx="72.3" cy="210.2" r="3" fill="#3b82f6"/><circle cx="84.6" cy="209.7" r="3" fill="#3b82f6"/><circle cx="96.9" cy="209.2" r="3" fill="#3b82f6"/><circle cx="109.2" cy="208.7" r="3" fill="#3b82f6"/><circle cx="121.5" cy="208.3" r="3" fill="#3b82f6"/><circle cx="133.8" cy="207.9" r="3" fill="#3b82f6"/><circle cx="146.2" cy="207.5" r="3" fill="#3b82f6"/><circle cx="158.5" cy="207.0" r="3" fill="#3b82f6"/><circle cx="170.8" cy="206.2" r="3" fill="#3b82f6"/><circle cx="183.1" cy="205.0" r="3" fill="#3b82f6"/><circle cx="195.4" cy="204.1" r="3" fill="#3b82f6"/><circle cx="207.7" cy="203.2" r="3" fill="#3b82f6"/><circle cx="220.0" cy="202.5" r="3" fill="#3b82f6"/><circle cx="232.3" cy="201.9" r="3" fill="#3b82f6"/><circle cx="244.6" cy="201.0" r="3" fill="#3b82f6"/><circle cx="256.9" cy="200.3" r="3" fill="#3b82f6"/><circle cx="269.2" cy="199.9" r="3" fill="#3b82f6"/><circle cx="281.5" cy="199.6" r="3" fill="#3b82f6"/><circle cx="293.8" cy="199.4" r="3" fill="#3b82f6"/><circle cx="306.2" cy="199.3" r="3" fill="#3b82f6"/><circle cx="318.5" cy="199.0" r="3" fill="#3b82f6"/><circle cx="330.8" cy="198.9" r="3" fill="#3b82f6"/><circle cx="343.1" cy="198.9" r="3" fill="#3b82f6"/><circle cx="355.4" cy="198.7" r="3" fill="#3b82f6"/><circle cx="367.7" cy="198.7" r="3" fill="#3b82f6"/><circle cx="380.0" cy="198.8" r="3" fill="#3b82f6"/><circle cx="392.3" cy="198.8" r="3" fill="#3b82f6"/><circle cx="404.6" cy="198.8" r="3" fill="#3b82f6"/><circle cx="416.9" cy="198.9" r="3" fill="#3b82f6"/><circle cx="429.2" cy="199.0" r="3" fill="#3b82f6"/><circle cx="441.5" cy="199.2" r="3" fill="#3b82f6"/><circle cx="453.8" cy="199.4" r="3" fill="#3b82f6"/><circle cx="466.2" cy="199.5" r="3" fill="#3b82f6"/><circle cx="478.5" cy="199.7" r="3" fill="#3b82f6"/><circle cx="490.8" cy="199.8" r="3" fill="#3b82f6"/><circle cx="503.1" cy="200.0" r="3" fill="#3b82f6"/><circle cx="515.4" cy="200.1" r="3" fill="#3b82f6"/><circle cx="527.7" cy="200.2" r="3" fill="#3b82f6"/><circle cx="540.0" cy="200.4" r="3" fill="#3b82f6"/><circle cx="552.3" cy="200.7" r="3" fill="#3b82f6"/><circle cx="564.6" cy="201.0" r="3" fill="#3b82f6"/><circle cx="576.9" cy="201.3" r="3" fill="#3b82f6"/><circle cx="589.2" cy="201.6" r="3" fill="#3b82f6"/><circle cx="601.5" cy="201.8" r="3" fill="#3b82f6"/><circle cx="613.8" cy="202.2" r="3" fill="#3b82f6"/><circle cx="626.2" cy="202.6" r="3" fill="#3b82f6"/><circle cx="638.5" cy="203.0" r="3" fill="#3b82f6"/><circle cx="650.8" cy="203.3" r="3" fill="#3b82f6"/><circle cx="663.1" cy="203.7" r="3" fill="#3b82f6"/><circle cx="675.4" cy="204.1" r="3" fill="#3b82f6"/><circle cx="687.7" cy="204.4" r="3" fill="#3b82f6"/><circle cx="700.0" cy="204.8" r="3" fill="#3b82f6"/><circle cx="712.3" cy="205.2" r="3" fill="#3b82f6"/><circle cx="724.6" cy="205.5" r="3" fill="#3b82f6"/><circle cx="736.9" cy="205.9" r="3" fill="#3b82f6"/><circle cx="749.2" cy="206.3" r="3" fill="#3b82f6"/><circle cx="761.5" cy="206.7" r="3" fill="#3b82f6"/><circle cx="773.8" cy="207.0" r="3" fill="#3b82f6"/><circle cx="786.2" cy="207.4" r="3" fill="#3b82f6"/><circle cx="798.5" cy="207.7" r="3" fill="#3b82f6"/><circle cx="810.8" cy="208.0" r="3" fill="#3b82f6"/><circle cx="823.1" cy="208.3" r="3" fill="#3b82f6"/><circle cx="835.4" cy="208.7" r="3" fill="#3b82f6"/><circle cx="847.7" cy="209.0" r="3" fill="#3b82f6"/><circle cx="860.0" cy="209.3" r="3" fill="#3b82f6"/>

  <!-- X ekseni -->
  <text x="60.0" y="380" text-anchor="middle" font-size="10" fill="#888">14.05.2026</text>
  <text x="195.4" y="380" text-anchor="middle" font-size="10" fill="#888">25.05.2026</text>
  <text x="330.8" y="380" text-anchor="middle" font-size="10" fill="#888">05.06.2026</text>
  <text x="466.2" y="380" text-anchor="middle" font-size="10" fill="#888">16.06.2026</text>
  <text x="601.5" y="380" text-anchor="middle" font-size="10" fill="#888">27.06.2026</text>
  <text x="736.9" y="380" text-anchor="middle" font-size="10" fill="#888">08.07.2026</text>

  <!-- Legend -->
  <g transform="translate(60, 345)">
    <rect x="0" y="0" width="12" height="12" fill="#22c55e" rx="2"/>
    <text x="18" y="10" font-size="11" fill="#c9d1d9">Toplam Doluluk</text>
    <rect x="140" y="0" width="12" height="12" fill="#3b82f6" rx="2"/>
    <text x="158" y="10" font-size="11" fill="#c9d1d9">Aktif Doluluk</text>
  </g>
</svg>