<svg xmlns="http://www.w3.org/2000/svg" viewBox="0 0 900 400" width="100%" style="max-width:900px;">
  <rect width="900" height="400" fill="#0d1117" rx="6"/>
  <text x="450.0" y="25" text-anchor="middle" font-size="16" font-weight="bold" fill="#c9d1d9">Son 360 Gün - Günlük Ortalama</text>

  <!-- Y grid -->
  <line x1="60" y1="320.0" x2="860" y2="320.0" stroke="#333" stroke-width="1" stroke-dasharray="4,4" opacity="0.5"/>
  <text x="50" y="320.0" text-anchor="end" dominant-baseline="middle" font-size="10" fill="#888">0%</text>
  <line x1="60" y1="264.0" x2="860" y2="264.0" stroke="#333" stroke-width="1" stroke-dasharray="4,4" opacity="0.5"/>
  <text x="50" y="264.0" text-anchor="end" dominant-baseline="middle" font-size="10" fill="#888">20%</text>
  <line x1="60" y1="208.0" x2="860" y2="208.0" stroke="#333" stroke-width="1" stroke-dasharray="4,4" opacity="0.5"/>
  <text x="50" y="208.0" text-anchor="end" dominant-baseline="middle" font-size="10" fill="#888">40%</text>
  <line x1="60" y1="152.0" x2="860" y2="152.0" stroke="#333" stroke-width="1" stroke-dasharray="4,4" opacity="0.5"/>
  <text x="50" y="152.0" text-anchor="end" dominant-baseline="middle" font-size="10" fill="#888">60%</text>
  <line x1="60" y1="96.0" x2="860" y2="96.0" stroke="#333" stroke-width="1" stroke-dasharray="4,4" opacity="0.5"/>
  <text x="50" y="96.0" text-anchor="end" dominant-baseline="middle" font-size="10" fill="#888">80%</text>
  <line x1="60" y1="40.0" x2="860" y2="40.0" stroke="#333" stroke-width="1" stroke-dasharray="4,4" opacity="0.5"/>
  <text x="50" y="40.0" text-anchor="end" dominant-baseline="middle" font-size="10" fill="#888">100%</text>

  <!-- Referans çizgileri -->
  <line x1="60" y1="236.0" x2="860" y2="236.0" stroke="#ef4444" stroke-width="1" stroke-dasharray="2,2" opacity="0.7"/>
  <text x="845" y="236.0" dominant-baseline="middle" font-size="9" fill="#ef4444">Kritik (30%)</text>
  <line x1="60" y1="180.0" x2="860" y2="180.0" stroke="#eab308" stroke-width="1" stroke-dasharray="2,2" opacity="0.7"/>
  <text x="845" y="180.0" dominant-baseline="middle" font-size="9" fill="#eab308">Normal (50%)</text>

  <!-- Toplam doluluk -->
  <polyline points="60.0,193.2 76.0,192.5 92.0,192.0 108.0,191.6 124.0,191.1 140.0,190.8 156.0,190.4 172.0,190.1 188.0,189.6 204.0,188.8 220.0,187.8 236.0,187.0 252.0,186.2 268.0,185.6 284.0,185.0 300.0,184.3 316.0,183.6 332.0,183.2 348.0,182.9 364.0,182.7 380.0,182.7 396.0,182.4 412.0,182.3 428.0,182.3 444.0,182.2 460.0,182.2 476.0,182.2 492.0,182.2 508.0,182.3 524.0,182.4 540.0,182.5 556.0,182.6 572.0,182.7 588.0,182.9 604.0,183.1 620.0,183.2 636.0,183.3 652.0,183.4 668.0,183.5 684.0,183.7 700.0,183.9 716.0,184.2 732.0,184.4 748.0,184.7 764.0,185.0 780.0,185.3 796.0,185.6 812.0,186.0 828.0,186.3 844.0,186.6 860.0,187.0" fill="none" stroke="#22c55e" stroke-width="2.5" stroke-linecap="round" stroke-linejoin="round"/>
  <polyline points="60.0,193.2 76.0,192.5 92.0,192.0 108.0,191.6 124.0,191.1 140.0,190.8 156.0,190.4 172.0,190.1 188.0,189.6 204.0,188.8 220.0,187.8 236.0,187.0 252.0,186.2 268.0,185.6 284.0,185.0 300.0,184.3 316.0,183.6 332.0,183.2 348.0,182.9 364.0,182.7 380.0,182.7 396.0,182.4 412.0,182.3 428.0,182.3 444.0,182.2 460.0,182.2 476.0,182.2 492.0,182.2 508.0,182.3 524.0,182.4 540.0,182.5 556.0,182.6 572.0,182.7 588.0,182.9 604.0,183.1 620.0,183.2 636.0,183.3 652.0,183.4 668.0,183.5 684.0,183.7 700.0,183.9 716.0,184.2 732.0,184.4 748.0,184.7 764.0,185.0 780.0,185.3 796.0,185.6 812.0,186.0 828.0,186.3 844.0,186.6 860.0,187.0" fill="none" stroke="#22c55e" stroke-width="5" opacity="0.1" stroke-linecap="round" stroke-linejoin="round"/>

  <!-- Aktif doluluk -->
  <polyline points="60.0,211.1 76.0,210.2 92.0,209.7 108.0,209.2 124.0,208.7 140.0,208.3 156.0,207.9 172.0,207.5 188.0,207.0 204.0,206.2 220.0,205.0 236.0,204.1 252.0,203.2 268.0,202.5 284.0,201.9 300.0,201.0 316.0,200.3 332.0,199.9 348.0,199.6 364.0,199.4 380.0,199.3 396.0,199.0 412.0,198.9 428.0,198.9 444.0,198.7 460.0,198.7 476.0,198.8 492.0,198.8 508.0,198.8 524.0,198.9 540.0,199.0 556.0,199.2 572.0,199.4 588.0,199.5 604.0,199.7 620.0,199.8 636.0,200.0 652.0,200.1 668.0,200.2 684.0,200.4 700.0,200.7 716.0,201.0 732.0,201.3 748.0,201.6 764.0,201.8 780.0,202.2 796.0,202.6 812.0,203.0 828.0,203.3 844.0,203.7 860.0,204.1" fill="none" stroke="#3b82f6" stroke-width="2.5" stroke-linecap="round" stroke-linejoin="round"/>
  <polyline points="60.0,211.1 76.0,210.2 92.0,209.7 108.0,209.2 124.0,208.7 140.0,208.3 156.0,207.9 172.0,207.5 188.0,207.0 204.0,206.2 220.0,205.0 236.0,204.1 252.0,203.2 268.0,202.5 284.0,201.9 300.0,201.0 316.0,200.3 332.0,199.9 348.0,199.6 364.0,199.4 380.0,199.3 396.0,199.0 412.0,198.9 428.0,198.9 444.0,198.7 460.0,198.7 476.0,198.8 492.0,198.8 508.0,198.8 524.0,198.9 540.0,199.0 556.0,199.2 572.0,199.4 588.0,199.5 604.0,199.7 620.0,199.8 636.0,200.0 652.0,200.1 668.0,200.2 684.0,200.4 700.0,200.7 716.0,201.0 732.0,201.3 748.0,201.6 764.0,201.8 780.0,202.2 796.0,202.6 812.0,203.0 828.0,203.3 844.0,203.7 860.0,204.1" fill="none" stroke="#3b82f6" stroke-width="5" opacity="0.1" stroke-linecap="round" stroke-linejoin="round"/>

  <!-- Noktalar -->
  <circle cx="60.0" cy="193.2" r="3" fill="#22c55e"/><circle cx="76.0" cy="192.5" r="3" fill="#22c55e"/><circle cx="92.0" cy="192.0" r="3" fill="#22c55e"/><circle cx="108.0" cy="191.6" r="3" fill="#22c55e"/><circle cx="124.0" cy="191.1" r="3" fill="#22c55e"/><circle cx="140.0" cy="190.8" r="3" fill="#22c55e"/><circle cx="156.0" cy="190.4" r="3" fill="#22c55e"/><circle cx="172.0" cy="190.1" r="3" fill="#22c55e"/><circle cx="188.0" cy="189.6" r="3" fill="#22c55e"/><circle cx="204.0" cy="188.8" r="3" fill="#22c55e"/><circle cx="220.0" cy="187.8" r="3" fill="#22c55e"/><circle cx="236.0" cy="187.0" r="3" fill="#22c55e"/><circle cx="252.0" cy="186.2" r="3" fill="#22c55e"/><circle cx="268.0" cy="185.6" r="3" fill="#22c55e"/><circle cx="284.0" cy="185.0" r="3" fill="#22c55e"/><circle cx="300.0" cy="184.3" r="3" fill="#22c55e"/><circle cx="316.0" cy="183.6" r="3" fill="#22c55e"/><circle cx="332.0" cy="183.2" r="3" fill="#22c55e"/><circle cx="348.0" cy="182.9" r="3" fill="#22c55e"/><circle cx="364.0" cy="182.7" r="3" fill="#22c55e"/><circle cx="380.0" cy="182.7" r="3" fill="#22c55e"/><circle cx="396.0" cy="182.4" r="3" fill="#22c55e"/><circle cx="412.0" cy="182.3" r="3" fill="#22c55e"/><circle cx="428.0" cy="182.3" r="3" fill="#22c55e"/><circle cx="444.0" cy="182.2" r="3" fill="#22c55e"/><circle cx="460.0" cy="182.2" r="3" fill="#22c55e"/><circle cx="476.0" cy="182.2" r="3" fill="#22c55e"/><circle cx="492.0" cy="182.2" r="3" fill="#22c55e"/><circle cx="508.0" cy="182.3" r="3" fill="#22c55e"/><circle cx="524.0" cy="182.4" r="3" fill="#22c55e"/><circle cx="540.0" cy="182.5" r="3" fill="#22c55e"/><circle cx="556.0" cy="182.6" r="3" fill="#22c55e"/><circle cx="572.0" cy="182.7" r="3" fill="#22c55e"/><circle cx="588.0" cy="182.9" r="3" fill="#22c55e"/><circle cx="604.0" cy="183.1" r="3" fill="#22c55e"/><circle cx="620.0" cy="183.2" r="3" fill="#22c55e"/><circle cx="636.0" cy="183.3" r="3" fill="#22c55e"/><circle cx="652.0" cy="183.4" r="3" fill="#22c55e"/><circle cx="668.0" cy="183.5" r="3" fill="#22c55e"/><circle cx="684.0" cy="183.7" r="3" fill="#22c55e"/><circle cx="700.0" cy="183.9" r="3" fill="#22c55e"/><circle cx="716.0" cy="184.2" r="3" fill="#22c55e"/><circle cx="732.0" cy="184.4" r="3" fill="#22c55e"/><circle cx="748.0" cy="184.7" r="3" fill="#22c55e"/><circle cx="764.0" cy="185.0" r="3" fill="#22c55e"/><circle cx="780.0" cy="185.3" r="3" fill="#22c55e"/><circle cx="796.0" cy="185.6" r="3" fill="#22c55e"/><circle cx="812.0" cy="186.0" r="3" fill="#22c55e"/><circle cx="828.0" cy="186.3" r="3" fill="#22c55e"/><circle cx="844.0" cy="186.6" r="3" fill="#22c55e"/><circle cx="860.0" cy="187.0" r="3" fill="#22c55e"/>
  <circle cx="60.0" cy="211.1" r="3" fill="#3b82f6"/><circle cx="76.0" cy="210.2" r="3" fill="#3b82f6"/><circle cx="92.0" cy="209.7" r="3" fill="#3b82f6"/><circle cx="108.0" cy="209.2" r="3" fill="#3b82f6"/><circle cx="124.0" cy="208.7" r="3" fill="#3b82f6"/><circle cx="140.0" cy="208.3" r="3" fill="#3b82f6"/><circle cx="156.0" cy="207.9" r="3" fill="#3b82f6"/><circle cx="172.0" cy="207.5" r="3" fill="#3b82f6"/><circle cx="188.0" cy="207.0" r="3" fill="#3b82f6"/><circle cx="204.0" cy="206.2" r="3" fill="#3b82f6"/><circle cx="220.0" cy="205.0" r="3" fill="#3b82f6"/><circle cx="236.0" cy="204.1" r="3" fill="#3b82f6"/><circle cx="252.0" cy="203.2" r="3" fill="#3b82f6"/><circle cx="268.0" cy="202.5" r="3" fill="#3b82f6"/><circle cx="284.0" cy="201.9" r="3" fill="#3b82f6"/><circle cx="300.0" cy="201.0" r="3" fill="#3b82f6"/><circle cx="316.0" cy="200.3" r="3" fill="#3b82f6"/><circle cx="332.0" cy="199.9" r="3" fill="#3b82f6"/><circle cx="348.0" cy="199.6" r="3" fill="#3b82f6"/><circle cx="364.0" cy="199.4" r="3" fill="#3b82f6"/><circle cx="380.0" cy="199.3" r="3" fill="#3b82f6"/><circle cx="396.0" cy="199.0" r="3" fill="#3b82f6"/><circle cx="412.0" cy="198.9" r="3" fill="#3b82f6"/><circle cx="428.0" cy="198.9" r="3" fill="#3b82f6"/><circle cx="444.0" cy="198.7" r="3" fill="#3b82f6"/><circle cx="460.0" cy="198.7" r="3" fill="#3b82f6"/><circle cx="476.0" cy="198.8" r="3" fill="#3b82f6"/><circle cx="492.0" cy="198.8" r="3" fill="#3b82f6"/><circle cx="508.0" cy="198.8" r="3" fill="#3b82f6"/><circle cx="524.0" cy="198.9" r="3" fill="#3b82f6"/><circle cx="540.0" cy="199.0" r="3" fill="#3b82f6"/><circle cx="556.0" cy="199.2" r="3" fill="#3b82f6"/><circle cx="572.0" cy="199.4" r="3" fill="#3b82f6"/><circle cx="588.0" cy="199.5" r="3" fill="#3b82f6"/><circle cx="604.0" cy="199.7" r="3" fill="#3b82f6"/><circle cx="620.0" cy="199.8" r="3" fill="#3b82f6"/><circle cx="636.0" cy="200.0" r="3" fill="#3b82f6"/><circle cx="652.0" cy="200.1" r="3" fill="#3b82f6"/><circle cx="668.0" cy="200.2" r="3" fill="#3b82f6"/><circle cx="684.0" cy="200.4" r="3" fill="#3b82f6"/><circle cx="700.0" cy="200.7" r="3" fill="#3b82f6"/><circle cx="716.0" cy="201.0" r="3" fill="#3b82f6"/><circle cx="732.0" cy="201.3" r="3" fill="#3b82f6"/><circle cx="748.0" cy="201.6" r="3" fill="#3b82f6"/><circle cx="764.0" cy="201.8" r="3" fill="#3b82f6"/><circle cx="780.0" cy="202.2" r="3" fill="#3b82f6"/><circle cx="796.0" cy="202.6" r="3" fill="#3b82f6"/><circle cx="812.0" cy="203.0" r="3" fill="#3b82f6"/><circle cx="828.0" cy="203.3" r="3" fill="#3b82f6"/><circle cx="844.0" cy="203.7" r="3" fill="#3b82f6"/><circle cx="860.0" cy="204.1" r="3" fill="#3b82f6"/>

  <!-- X ekseni -->
  <text x="60.0" y="380" text-anchor="middle" font-size="10" fill="#888">14.05.2026</text>
  <text x="188.0" y="380" text-anchor="middle" font-size="10" fill="#888">22.05.2026</text>
  <text x="316.0" y="380" text-anchor="middle" font-size="10" fill="#888">30.05.2026</text>
  <text x="444.0" y="380" text-anchor="middle" font-size="10" fill="#888">07.06.2026</text>
  <text x="572.0" y="380" text-anchor="middle" font-size="10" fill="#888">15.06.2026</text>
  <text x="700.0" y="380" text-anchor="middle" font-size="10" fill="#888">23.06.2026</text>
  <text x="828.0" y="380" text-anchor="middle" font-size="10" fill="#888">01.07.2026</text>

  <!-- Legend -->
  <g transform="translate(60, 345)">
    <rect x="0" y="0" width="12" height="12" fill="#22c55e" rx="2"/>
    <text x="18" y="10" font-size="11" fill="#c9d1d9">Toplam Doluluk</text>
    <rect x="140" y="0" width="12" height="12" fill="#3b82f6" rx="2"/>
    <text x="158" y="10" font-size="11" fill="#c9d1d9">Aktif Doluluk</text>
  </g>
</svg>