<svg xmlns="http://www.w3.org/2000/svg" viewBox="0 0 800 400" width="100%" style="max-width:800px;">
  <rect width="800" height="400" fill="#0d1117" rx="6"/>
  <text x="400.0" y="25" text-anchor="middle" font-size="16" font-weight="bold" fill="#c9d1d9">Son 90 Gün - Günlük Ortalama</text>

  <!-- Y grid -->
  <line x1="60" y1="320.0" x2="760" y2="320.0" stroke="#333" stroke-width="1" stroke-dasharray="4,4" opacity="0.5"/>
  <text x="50" y="320.0" text-anchor="end" dominant-baseline="middle" font-size="10" fill="#888">0%</text>
  <line x1="60" y1="264.0" x2="760" y2="264.0" stroke="#333" stroke-width="1" stroke-dasharray="4,4" opacity="0.5"/>
  <text x="50" y="264.0" text-anchor="end" dominant-baseline="middle" font-size="10" fill="#888">20%</text>
  <line x1="60" y1="208.0" x2="760" y2="208.0" stroke="#333" stroke-width="1" stroke-dasharray="4,4" opacity="0.5"/>
  <text x="50" y="208.0" text-anchor="end" dominant-baseline="middle" font-size="10" fill="#888">40%</text>
  <line x1="60" y1="152.0" x2="760" y2="152.0" stroke="#333" stroke-width="1" stroke-dasharray="4,4" opacity="0.5"/>
  <text x="50" y="152.0" text-anchor="end" dominant-baseline="middle" font-size="10" fill="#888">60%</text>
  <line x1="60" y1="96.0" x2="760" y2="96.0" stroke="#333" stroke-width="1" stroke-dasharray="4,4" opacity="0.5"/>
  <text x="50" y="96.0" text-anchor="end" dominant-baseline="middle" font-size="10" fill="#888">80%</text>
  <line x1="60" y1="40.0" x2="760" y2="40.0" stroke="#333" stroke-width="1" stroke-dasharray="4,4" opacity="0.5"/>
  <text x="50" y="40.0" text-anchor="end" dominant-baseline="middle" font-size="10" fill="#888">100%</text>

  <!-- Referans çizgileri -->
  <line x1="60" y1="236.0" x2="760" y2="236.0" stroke="#ef4444" stroke-width="1" stroke-dasharray="2,2" opacity="0.7"/>
  <text x="745" y="236.0" dominant-baseline="middle" font-size="9" fill="#ef4444">Kritik (30%)</text>
  <line x1="60" y1="180.0" x2="760" y2="180.0" stroke="#eab308" stroke-width="1" stroke-dasharray="2,2" opacity="0.7"/>
  <text x="745" y="180.0" dominant-baseline="middle" font-size="9" fill="#eab308">Normal (50%)</text>

  <!-- Toplam doluluk -->
  <polyline points="60.0,193.2 75.2,192.5 90.4,192.0 105.7,191.6 120.9,191.1 136.1,190.8 151.3,190.4 166.5,190.1 181.7,189.6 197.0,188.8 212.2,187.8 227.4,187.0 242.6,186.2 257.8,185.6 273.0,185.0 288.3,184.3 303.5,183.6 318.7,183.2 333.9,182.9 349.1,182.7 364.3,182.7 379.6,182.4 394.8,182.3 410.0,182.3 425.2,182.2 440.4,182.2 455.7,182.2 470.9,182.2 486.1,182.3 501.3,182.4 516.5,182.5 531.7,182.6 547.0,182.7 562.2,182.9 577.4,183.1 592.6,183.2 607.8,183.3 623.0,183.4 638.3,183.5 653.5,183.7 668.7,183.9 683.9,184.2 699.1,184.4 714.3,184.7 729.6,185.0 744.8,185.3 760.0,185.6" fill="none" stroke="#22c55e" stroke-width="2.5" stroke-linecap="round" stroke-linejoin="round"/>
  <polyline points="60.0,193.2 75.2,192.5 90.4,192.0 105.7,191.6 120.9,191.1 136.1,190.8 151.3,190.4 166.5,190.1 181.7,189.6 197.0,188.8 212.2,187.8 227.4,187.0 242.6,186.2 257.8,185.6 273.0,185.0 288.3,184.3 303.5,183.6 318.7,183.2 333.9,182.9 349.1,182.7 364.3,182.7 379.6,182.4 394.8,182.3 410.0,182.3 425.2,182.2 440.4,182.2 455.7,182.2 470.9,182.2 486.1,182.3 501.3,182.4 516.5,182.5 531.7,182.6 547.0,182.7 562.2,182.9 577.4,183.1 592.6,183.2 607.8,183.3 623.0,183.4 638.3,183.5 653.5,183.7 668.7,183.9 683.9,184.2 699.1,184.4 714.3,184.7 729.6,185.0 744.8,185.3 760.0,185.6" fill="none" stroke="#22c55e" stroke-width="5" opacity="0.1" stroke-linecap="round" stroke-linejoin="round"/>

  <!-- Aktif doluluk -->
  <polyline points="60.0,211.1 75.2,210.2 90.4,209.7 105.7,209.2 120.9,208.7 136.1,208.3 151.3,207.9 166.5,207.5 181.7,207.0 197.0,206.2 212.2,205.0 227.4,204.1 242.6,203.2 257.8,202.5 273.0,201.9 288.3,201.0 303.5,200.3 318.7,199.9 333.9,199.6 349.1,199.4 364.3,199.3 379.6,199.0 394.8,198.9 410.0,198.9 425.2,198.7 440.4,198.7 455.7,198.8 470.9,198.8 486.1,198.8 501.3,198.9 516.5,199.0 531.7,199.2 547.0,199.4 562.2,199.5 577.4,199.7 592.6,199.8 607.8,200.0 623.0,200.1 638.3,200.2 653.5,200.4 668.7,200.7 683.9,201.0 699.1,201.3 714.3,201.6 729.6,201.8 744.8,202.2 760.0,202.6" fill="none" stroke="#3b82f6" stroke-width="2.5" stroke-linecap="round" stroke-linejoin="round"/>
  <polyline points="60.0,211.1 75.2,210.2 90.4,209.7 105.7,209.2 120.9,208.7 136.1,208.3 151.3,207.9 166.5,207.5 181.7,207.0 197.0,206.2 212.2,205.0 227.4,204.1 242.6,203.2 257.8,202.5 273.0,201.9 288.3,201.0 303.5,200.3 318.7,199.9 333.9,199.6 349.1,199.4 364.3,199.3 379.6,199.0 394.8,198.9 410.0,198.9 425.2,198.7 440.4,198.7 455.7,198.8 470.9,198.8 486.1,198.8 501.3,198.9 516.5,199.0 531.7,199.2 547.0,199.4 562.2,199.5 577.4,199.7 592.6,199.8 607.8,200.0 623.0,200.1 638.3,200.2 653.5,200.4 668.7,200.7 683.9,201.0 699.1,201.3 714.3,201.6 729.6,201.8 744.8,202.2 760.0,202.6" fill="none" stroke="#3b82f6" stroke-width="5" opacity="0.1" stroke-linecap="round" stroke-linejoin="round"/>

  <!-- Noktalar -->
  <circle cx="60.0" cy="193.2" r="3" fill="#22c55e"/><circle cx="75.2" cy="192.5" r="3" fill="#22c55e"/><circle cx="90.4" cy="192.0" r="3" fill="#22c55e"/><circle cx="105.7" cy="191.6" r="3" fill="#22c55e"/><circle cx="120.9" cy="191.1" r="3" fill="#22c55e"/><circle cx="136.1" cy="190.8" r="3" fill="#22c55e"/><circle cx="151.3" cy="190.4" r="3" fill="#22c55e"/><circle cx="166.5" cy="190.1" r="3" fill="#22c55e"/><circle cx="181.7" cy="189.6" r="3" fill="#22c55e"/><circle cx="197.0" cy="188.8" r="3" fill="#22c55e"/><circle cx="212.2" cy="187.8" r="3" fill="#22c55e"/><circle cx="227.4" cy="187.0" r="3" fill="#22c55e"/><circle cx="242.6" cy="186.2" r="3" fill="#22c55e"/><circle cx="257.8" cy="185.6" r="3" fill="#22c55e"/><circle cx="273.0" cy="185.0" r="3" fill="#22c55e"/><circle cx="288.3" cy="184.3" r="3" fill="#22c55e"/><circle cx="303.5" cy="183.6" r="3" fill="#22c55e"/><circle cx="318.7" cy="183.2" r="3" fill="#22c55e"/><circle cx="333.9" cy="182.9" r="3" fill="#22c55e"/><circle cx="349.1" cy="182.7" r="3" fill="#22c55e"/><circle cx="364.3" cy="182.7" r="3" fill="#22c55e"/><circle cx="379.6" cy="182.4" r="3" fill="#22c55e"/><circle cx="394.8" cy="182.3" r="3" fill="#22c55e"/><circle cx="410.0" cy="182.3" r="3" fill="#22c55e"/><circle cx="425.2" cy="182.2" r="3" fill="#22c55e"/><circle cx="440.4" cy="182.2" r="3" fill="#22c55e"/><circle cx="455.7" cy="182.2" r="3" fill="#22c55e"/><circle cx="470.9" cy="182.2" r="3" fill="#22c55e"/><circle cx="486.1" cy="182.3" r="3" fill="#22c55e"/><circle cx="501.3" cy="182.4" r="3" fill="#22c55e"/><circle cx="516.5" cy="182.5" r="3" fill="#22c55e"/><circle cx="531.7" cy="182.6" r="3" fill="#22c55e"/><circle cx="547.0" cy="182.7" r="3" fill="#22c55e"/><circle cx="562.2" cy="182.9" r="3" fill="#22c55e"/><circle cx="577.4" cy="183.1" r="3" fill="#22c55e"/><circle cx="592.6" cy="183.2" r="3" fill="#22c55e"/><circle cx="607.8" cy="183.3" r="3" fill="#22c55e"/><circle cx="623.0" cy="183.4" r="3" fill="#22c55e"/><circle cx="638.3" cy="183.5" r="3" fill="#22c55e"/><circle cx="653.5" cy="183.7" r="3" fill="#22c55e"/><circle cx="668.7" cy="183.9" r="3" fill="#22c55e"/><circle cx="683.9" cy="184.2" r="3" fill="#22c55e"/><circle cx="699.1" cy="184.4" r="3" fill="#22c55e"/><circle cx="714.3" cy="184.7" r="3" fill="#22c55e"/><circle cx="729.6" cy="185.0" r="3" fill="#22c55e"/><circle cx="744.8" cy="185.3" r="3" fill="#22c55e"/><circle cx="760.0" cy="185.6" r="3" fill="#22c55e"/>
  <circle cx="60.0" cy="211.1" r="3" fill="#3b82f6"/><circle cx="75.2" cy="210.2" r="3" fill="#3b82f6"/><circle cx="90.4" cy="209.7" r="3" fill="#3b82f6"/><circle cx="105.7" cy="209.2" r="3" fill="#3b82f6"/><circle cx="120.9" cy="208.7" r="3" fill="#3b82f6"/><circle cx="136.1" cy="208.3" r="3" fill="#3b82f6"/><circle cx="151.3" cy="207.9" r="3" fill="#3b82f6"/><circle cx="166.5" cy="207.5" r="3" fill="#3b82f6"/><circle cx="181.7" cy="207.0" r="3" fill="#3b82f6"/><circle cx="197.0" cy="206.2" r="3" fill="#3b82f6"/><circle cx="212.2" cy="205.0" r="3" fill="#3b82f6"/><circle cx="227.4" cy="204.1" r="3" fill="#3b82f6"/><circle cx="242.6" cy="203.2" r="3" fill="#3b82f6"/><circle cx="257.8" cy="202.5" r="3" fill="#3b82f6"/><circle cx="273.0" cy="201.9" r="3" fill="#3b82f6"/><circle cx="288.3" cy="201.0" r="3" fill="#3b82f6"/><circle cx="303.5" cy="200.3" r="3" fill="#3b82f6"/><circle cx="318.7" cy="199.9" r="3" fill="#3b82f6"/><circle cx="333.9" cy="199.6" r="3" fill="#3b82f6"/><circle cx="349.1" cy="199.4" r="3" fill="#3b82f6"/><circle cx="364.3" cy="199.3" r="3" fill="#3b82f6"/><circle cx="379.6" cy="199.0" r="3" fill="#3b82f6"/><circle cx="394.8" cy="198.9" r="3" fill="#3b82f6"/><circle cx="410.0" cy="198.9" r="3" fill="#3b82f6"/><circle cx="425.2" cy="198.7" r="3" fill="#3b82f6"/><circle cx="440.4" cy="198.7" r="3" fill="#3b82f6"/><circle cx="455.7" cy="198.8" r="3" fill="#3b82f6"/><circle cx="470.9" cy="198.8" r="3" fill="#3b82f6"/><circle cx="486.1" cy="198.8" r="3" fill="#3b82f6"/><circle cx="501.3" cy="198.9" r="3" fill="#3b82f6"/><circle cx="516.5" cy="199.0" r="3" fill="#3b82f6"/><circle cx="531.7" cy="199.2" r="3" fill="#3b82f6"/><circle cx="547.0" cy="199.4" r="3" fill="#3b82f6"/><circle cx="562.2" cy="199.5" r="3" fill="#3b82f6"/><circle cx="577.4" cy="199.7" r="3" fill="#3b82f6"/><circle cx="592.6" cy="199.8" r="3" fill="#3b82f6"/><circle cx="607.8" cy="200.0" r="3" fill="#3b82f6"/><circle cx="623.0" cy="200.1" r="3" fill="#3b82f6"/><circle cx="638.3" cy="200.2" r="3" fill="#3b82f6"/><circle cx="653.5" cy="200.4" r="3" fill="#3b82f6"/><circle cx="668.7" cy="200.7" r="3" fill="#3b82f6"/><circle cx="683.9" cy="201.0" r="3" fill="#3b82f6"/><circle cx="699.1" cy="201.3" r="3" fill="#3b82f6"/><circle cx="714.3" cy="201.6" r="3" fill="#3b82f6"/><circle cx="729.6" cy="201.8" r="3" fill="#3b82f6"/><circle cx="744.8" cy="202.2" r="3" fill="#3b82f6"/><circle cx="760.0" cy="202.6" r="3" fill="#3b82f6"/>

  <!-- X ekseni -->
  <text x="60.0" y="380" text-anchor="middle" font-size="10" fill="#888">14.05.2026</text>
  <text x="166.5" y="380" text-anchor="middle" font-size="10" fill="#888">21.05.2026</text>
  <text x="273.0" y="380" text-anchor="middle" font-size="10" fill="#888">28.05.2026</text>
  <text x="379.6" y="380" text-anchor="middle" font-size="10" fill="#888">04.06.2026</text>
  <text x="486.1" y="380" text-anchor="middle" font-size="10" fill="#888">11.06.2026</text>
  <text x="592.6" y="380" text-anchor="middle" font-size="10" fill="#888">18.06.2026</text>
  <text x="699.1" y="380" text-anchor="middle" font-size="10" fill="#888">25.06.2026</text>

  <!-- Legend -->
  <g transform="translate(60, 345)">
    <rect x="0" y="0" width="12" height="12" fill="#22c55e" rx="2"/>
    <text x="18" y="10" font-size="11" fill="#c9d1d9">Toplam Doluluk</text>
    <rect x="140" y="0" width="12" height="12" fill="#3b82f6" rx="2"/>
    <text x="158" y="10" font-size="11" fill="#c9d1d9">Aktif Doluluk</text>
  </g>
</svg>