<svg xmlns="http://www.w3.org/2000/svg" viewBox="0 0 800 400" width="100%" style="max-width:800px;">
  <rect width="800" height="400" fill="#0d1117" rx="6"/>
  <text x="400.0" y="25" text-anchor="middle" font-size="16" font-weight="bold" fill="#c9d1d9">Son 90 Gün - Günlük Ortalama</text>

  <!-- Y grid -->
  <line x1="60" y1="320.0" x2="760" y2="320.0" stroke="#333" stroke-width="1" stroke-dasharray="4,4" opacity="0.5"/>
  <text x="50" y="320.0" text-anchor="end" dominant-baseline="middle" font-size="10" fill="#888">0%</text>
  <line x1="60" y1="264.0" x2="760" y2="264.0" stroke="#333" stroke-width="1" stroke-dasharray="4,4" opacity="0.5"/>
  <text x="50" y="264.0" text-anchor="end" dominant-baseline="middle" font-size="10" fill="#888">20%</text>
  <line x1="60" y1="208.0" x2="760" y2="208.0" stroke="#333" stroke-width="1" stroke-dasharray="4,4" opacity="0.5"/>
  <text x="50" y="208.0" text-anchor="end" dominant-baseline="middle" font-size="10" fill="#888">40%</text>
  <line x1="60" y1="152.0" x2="760" y2="152.0" stroke="#333" stroke-width="1" stroke-dasharray="4,4" opacity="0.5"/>
  <text x="50" y="152.0" text-anchor="end" dominant-baseline="middle" font-size="10" fill="#888">60%</text>
  <line x1="60" y1="96.0" x2="760" y2="96.0" stroke="#333" stroke-width="1" stroke-dasharray="4,4" opacity="0.5"/>
  <text x="50" y="96.0" text-anchor="end" dominant-baseline="middle" font-size="10" fill="#888">80%</text>
  <line x1="60" y1="40.0" x2="760" y2="40.0" stroke="#333" stroke-width="1" stroke-dasharray="4,4" opacity="0.5"/>
  <text x="50" y="40.0" text-anchor="end" dominant-baseline="middle" font-size="10" fill="#888">100%</text>

  <!-- Referans çizgileri -->
  <line x1="60" y1="236.0" x2="760" y2="236.0" stroke="#ef4444" stroke-width="1" stroke-dasharray="2,2" opacity="0.7"/>
  <text x="745" y="236.0" dominant-baseline="middle" font-size="9" fill="#ef4444">Kritik (30%)</text>
  <line x1="60" y1="180.0" x2="760" y2="180.0" stroke="#eab308" stroke-width="1" stroke-dasharray="2,2" opacity="0.7"/>
  <text x="745" y="180.0" dominant-baseline="middle" font-size="9" fill="#eab308">Normal (50%)</text>

  <!-- Toplam doluluk -->
  <polyline points="60.0,193.2 73.7,192.5 87.5,192.0 101.2,191.6 114.9,191.1 128.6,190.8 142.4,190.4 156.1,190.1 169.8,189.6 183.5,188.8 197.3,187.8 211.0,187.0 224.7,186.2 238.4,185.6 252.2,185.0 265.9,184.3 279.6,183.6 293.3,183.2 307.1,182.9 320.8,182.7 334.5,182.7 348.2,182.4 362.0,182.3 375.7,182.3 389.4,182.2 403.1,182.2 416.9,182.2 430.6,182.2 444.3,182.3 458.0,182.4 471.8,182.5 485.5,182.6 499.2,182.7 512.9,182.9 526.7,183.1 540.4,183.2 554.1,183.3 567.8,183.4 581.6,183.5 595.3,183.7 609.0,183.9 622.7,184.2 636.5,184.4 650.2,184.7 663.9,185.0 677.6,185.3 691.4,185.6 705.1,186.0 718.8,186.3 732.5,186.6 746.3,187.0 760.0,187.3" fill="none" stroke="#22c55e" stroke-width="2.5" stroke-linecap="round" stroke-linejoin="round"/>
  <polyline points="60.0,193.2 73.7,192.5 87.5,192.0 101.2,191.6 114.9,191.1 128.6,190.8 142.4,190.4 156.1,190.1 169.8,189.6 183.5,188.8 197.3,187.8 211.0,187.0 224.7,186.2 238.4,185.6 252.2,185.0 265.9,184.3 279.6,183.6 293.3,183.2 307.1,182.9 320.8,182.7 334.5,182.7 348.2,182.4 362.0,182.3 375.7,182.3 389.4,182.2 403.1,182.2 416.9,182.2 430.6,182.2 444.3,182.3 458.0,182.4 471.8,182.5 485.5,182.6 499.2,182.7 512.9,182.9 526.7,183.1 540.4,183.2 554.1,183.3 567.8,183.4 581.6,183.5 595.3,183.7 609.0,183.9 622.7,184.2 636.5,184.4 650.2,184.7 663.9,185.0 677.6,185.3 691.4,185.6 705.1,186.0 718.8,186.3 732.5,186.6 746.3,187.0 760.0,187.3" fill="none" stroke="#22c55e" stroke-width="5" opacity="0.1" stroke-linecap="round" stroke-linejoin="round"/>

  <!-- Aktif doluluk -->
  <polyline points="60.0,211.1 73.7,210.2 87.5,209.7 101.2,209.2 114.9,208.7 128.6,208.3 142.4,207.9 156.1,207.5 169.8,207.0 183.5,206.2 197.3,205.0 211.0,204.1 224.7,203.2 238.4,202.5 252.2,201.9 265.9,201.0 279.6,200.3 293.3,199.9 307.1,199.6 320.8,199.4 334.5,199.3 348.2,199.0 362.0,198.9 375.7,198.9 389.4,198.7 403.1,198.7 416.9,198.8 430.6,198.8 444.3,198.8 458.0,198.9 471.8,199.0 485.5,199.2 499.2,199.4 512.9,199.5 526.7,199.7 540.4,199.8 554.1,200.0 567.8,200.1 581.6,200.2 595.3,200.4 609.0,200.7 622.7,201.0 636.5,201.3 650.2,201.6 663.9,201.8 677.6,202.2 691.4,202.6 705.1,203.0 718.8,203.3 732.5,203.7 746.3,204.1 760.0,204.4" fill="none" stroke="#3b82f6" stroke-width="2.5" stroke-linecap="round" stroke-linejoin="round"/>
  <polyline points="60.0,211.1 73.7,210.2 87.5,209.7 101.2,209.2 114.9,208.7 128.6,208.3 142.4,207.9 156.1,207.5 169.8,207.0 183.5,206.2 197.3,205.0 211.0,204.1 224.7,203.2 238.4,202.5 252.2,201.9 265.9,201.0 279.6,200.3 293.3,199.9 307.1,199.6 320.8,199.4 334.5,199.3 348.2,199.0 362.0,198.9 375.7,198.9 389.4,198.7 403.1,198.7 416.9,198.8 430.6,198.8 444.3,198.8 458.0,198.9 471.8,199.0 485.5,199.2 499.2,199.4 512.9,199.5 526.7,199.7 540.4,199.8 554.1,200.0 567.8,200.1 581.6,200.2 595.3,200.4 609.0,200.7 622.7,201.0 636.5,201.3 650.2,201.6 663.9,201.8 677.6,202.2 691.4,202.6 705.1,203.0 718.8,203.3 732.5,203.7 746.3,204.1 760.0,204.4" fill="none" stroke="#3b82f6" stroke-width="5" opacity="0.1" stroke-linecap="round" stroke-linejoin="round"/>

  <!-- Noktalar -->
  <circle cx="60.0" cy="193.2" r="3" fill="#22c55e"/><circle cx="73.7" cy="192.5" r="3" fill="#22c55e"/><circle cx="87.5" cy="192.0" r="3" fill="#22c55e"/><circle cx="101.2" cy="191.6" r="3" fill="#22c55e"/><circle cx="114.9" cy="191.1" r="3" fill="#22c55e"/><circle cx="128.6" cy="190.8" r="3" fill="#22c55e"/><circle cx="142.4" cy="190.4" r="3" fill="#22c55e"/><circle cx="156.1" cy="190.1" r="3" fill="#22c55e"/><circle cx="169.8" cy="189.6" r="3" fill="#22c55e"/><circle cx="183.5" cy="188.8" r="3" fill="#22c55e"/><circle cx="197.3" cy="187.8" r="3" fill="#22c55e"/><circle cx="211.0" cy="187.0" r="3" fill="#22c55e"/><circle cx="224.7" cy="186.2" r="3" fill="#22c55e"/><circle cx="238.4" cy="185.6" r="3" fill="#22c55e"/><circle cx="252.2" cy="185.0" r="3" fill="#22c55e"/><circle cx="265.9" cy="184.3" r="3" fill="#22c55e"/><circle cx="279.6" cy="183.6" r="3" fill="#22c55e"/><circle cx="293.3" cy="183.2" r="3" fill="#22c55e"/><circle cx="307.1" cy="182.9" r="3" fill="#22c55e"/><circle cx="320.8" cy="182.7" r="3" fill="#22c55e"/><circle cx="334.5" cy="182.7" r="3" fill="#22c55e"/><circle cx="348.2" cy="182.4" r="3" fill="#22c55e"/><circle cx="362.0" cy="182.3" r="3" fill="#22c55e"/><circle cx="375.7" cy="182.3" r="3" fill="#22c55e"/><circle cx="389.4" cy="182.2" r="3" fill="#22c55e"/><circle cx="403.1" cy="182.2" r="3" fill="#22c55e"/><circle cx="416.9" cy="182.2" r="3" fill="#22c55e"/><circle cx="430.6" cy="182.2" r="3" fill="#22c55e"/><circle cx="444.3" cy="182.3" r="3" fill="#22c55e"/><circle cx="458.0" cy="182.4" r="3" fill="#22c55e"/><circle cx="471.8" cy="182.5" r="3" fill="#22c55e"/><circle cx="485.5" cy="182.6" r="3" fill="#22c55e"/><circle cx="499.2" cy="182.7" r="3" fill="#22c55e"/><circle cx="512.9" cy="182.9" r="3" fill="#22c55e"/><circle cx="526.7" cy="183.1" r="3" fill="#22c55e"/><circle cx="540.4" cy="183.2" r="3" fill="#22c55e"/><circle cx="554.1" cy="183.3" r="3" fill="#22c55e"/><circle cx="567.8" cy="183.4" r="3" fill="#22c55e"/><circle cx="581.6" cy="183.5" r="3" fill="#22c55e"/><circle cx="595.3" cy="183.7" r="3" fill="#22c55e"/><circle cx="609.0" cy="183.9" r="3" fill="#22c55e"/><circle cx="622.7" cy="184.2" r="3" fill="#22c55e"/><circle cx="636.5" cy="184.4" r="3" fill="#22c55e"/><circle cx="650.2" cy="184.7" r="3" fill="#22c55e"/><circle cx="663.9" cy="185.0" r="3" fill="#22c55e"/><circle cx="677.6" cy="185.3" r="3" fill="#22c55e"/><circle cx="691.4" cy="185.6" r="3" fill="#22c55e"/><circle cx="705.1" cy="186.0" r="3" fill="#22c55e"/><circle cx="718.8" cy="186.3" r="3" fill="#22c55e"/><circle cx="732.5" cy="186.6" r="3" fill="#22c55e"/><circle cx="746.3" cy="187.0" r="3" fill="#22c55e"/><circle cx="760.0" cy="187.3" r="3" fill="#22c55e"/>
  <circle cx="60.0" cy="211.1" r="3" fill="#3b82f6"/><circle cx="73.7" cy="210.2" r="3" fill="#3b82f6"/><circle cx="87.5" cy="209.7" r="3" fill="#3b82f6"/><circle cx="101.2" cy="209.2" r="3" fill="#3b82f6"/><circle cx="114.9" cy="208.7" r="3" fill="#3b82f6"/><circle cx="128.6" cy="208.3" r="3" fill="#3b82f6"/><circle cx="142.4" cy="207.9" r="3" fill="#3b82f6"/><circle cx="156.1" cy="207.5" r="3" fill="#3b82f6"/><circle cx="169.8" cy="207.0" r="3" fill="#3b82f6"/><circle cx="183.5" cy="206.2" r="3" fill="#3b82f6"/><circle cx="197.3" cy="205.0" r="3" fill="#3b82f6"/><circle cx="211.0" cy="204.1" r="3" fill="#3b82f6"/><circle cx="224.7" cy="203.2" r="3" fill="#3b82f6"/><circle cx="238.4" cy="202.5" r="3" fill="#3b82f6"/><circle cx="252.2" cy="201.9" r="3" fill="#3b82f6"/><circle cx="265.9" cy="201.0" r="3" fill="#3b82f6"/><circle cx="279.6" cy="200.3" r="3" fill="#3b82f6"/><circle cx="293.3" cy="199.9" r="3" fill="#3b82f6"/><circle cx="307.1" cy="199.6" r="3" fill="#3b82f6"/><circle cx="320.8" cy="199.4" r="3" fill="#3b82f6"/><circle cx="334.5" cy="199.3" r="3" fill="#3b82f6"/><circle cx="348.2" cy="199.0" r="3" fill="#3b82f6"/><circle cx="362.0" cy="198.9" r="3" fill="#3b82f6"/><circle cx="375.7" cy="198.9" r="3" fill="#3b82f6"/><circle cx="389.4" cy="198.7" r="3" fill="#3b82f6"/><circle cx="403.1" cy="198.7" r="3" fill="#3b82f6"/><circle cx="416.9" cy="198.8" r="3" fill="#3b82f6"/><circle cx="430.6" cy="198.8" r="3" fill="#3b82f6"/><circle cx="444.3" cy="198.8" r="3" fill="#3b82f6"/><circle cx="458.0" cy="198.9" r="3" fill="#3b82f6"/><circle cx="471.8" cy="199.0" r="3" fill="#3b82f6"/><circle cx="485.5" cy="199.2" r="3" fill="#3b82f6"/><circle cx="499.2" cy="199.4" r="3" fill="#3b82f6"/><circle cx="512.9" cy="199.5" r="3" fill="#3b82f6"/><circle cx="526.7" cy="199.7" r="3" fill="#3b82f6"/><circle cx="540.4" cy="199.8" r="3" fill="#3b82f6"/><circle cx="554.1" cy="200.0" r="3" fill="#3b82f6"/><circle cx="567.8" cy="200.1" r="3" fill="#3b82f6"/><circle cx="581.6" cy="200.2" r="3" fill="#3b82f6"/><circle cx="595.3" cy="200.4" r="3" fill="#3b82f6"/><circle cx="609.0" cy="200.7" r="3" fill="#3b82f6"/><circle cx="622.7" cy="201.0" r="3" fill="#3b82f6"/><circle cx="636.5" cy="201.3" r="3" fill="#3b82f6"/><circle cx="650.2" cy="201.6" r="3" fill="#3b82f6"/><circle cx="663.9" cy="201.8" r="3" fill="#3b82f6"/><circle cx="677.6" cy="202.2" r="3" fill="#3b82f6"/><circle cx="691.4" cy="202.6" r="3" fill="#3b82f6"/><circle cx="705.1" cy="203.0" r="3" fill="#3b82f6"/><circle cx="718.8" cy="203.3" r="3" fill="#3b82f6"/><circle cx="732.5" cy="203.7" r="3" fill="#3b82f6"/><circle cx="746.3" cy="204.1" r="3" fill="#3b82f6"/><circle cx="760.0" cy="204.4" r="3" fill="#3b82f6"/>

  <!-- X ekseni -->
  <text x="60.0" y="380" text-anchor="middle" font-size="10" fill="#888">14.05.2026</text>
  <text x="169.8" y="380" text-anchor="middle" font-size="10" fill="#888">22.05.2026</text>
  <text x="279.6" y="380" text-anchor="middle" font-size="10" fill="#888">30.05.2026</text>
  <text x="389.4" y="380" text-anchor="middle" font-size="10" fill="#888">07.06.2026</text>
  <text x="499.2" y="380" text-anchor="middle" font-size="10" fill="#888">15.06.2026</text>
  <text x="609.0" y="380" text-anchor="middle" font-size="10" fill="#888">23.06.2026</text>
  <text x="718.8" y="380" text-anchor="middle" font-size="10" fill="#888">01.07.2026</text>

  <!-- Legend -->
  <g transform="translate(60, 345)">
    <rect x="0" y="0" width="12" height="12" fill="#22c55e" rx="2"/>
    <text x="18" y="10" font-size="11" fill="#c9d1d9">Toplam Doluluk</text>
    <rect x="140" y="0" width="12" height="12" fill="#3b82f6" rx="2"/>
    <text x="158" y="10" font-size="11" fill="#c9d1d9">Aktif Doluluk</text>
  </g>
</svg>