<svg xmlns="http://www.w3.org/2000/svg" viewBox="0 0 900 400" width="100%" style="max-width:900px;">
  <rect width="900" height="400" fill="#0d1117" rx="6"/>
  <text x="450.0" y="25" text-anchor="middle" font-size="16" font-weight="bold" fill="#c9d1d9">Son 180 Gün - Günlük Ortalama</text>

  <!-- Y grid -->
  <line x1="60" y1="320.0" x2="860" y2="320.0" stroke="#333" stroke-width="1" stroke-dasharray="4,4" opacity="0.5"/>
  <text x="50" y="320.0" text-anchor="end" dominant-baseline="middle" font-size="10" fill="#888">0%</text>
  <line x1="60" y1="264.0" x2="860" y2="264.0" stroke="#333" stroke-width="1" stroke-dasharray="4,4" opacity="0.5"/>
  <text x="50" y="264.0" text-anchor="end" dominant-baseline="middle" font-size="10" fill="#888">20%</text>
  <line x1="60" y1="208.0" x2="860" y2="208.0" stroke="#333" stroke-width="1" stroke-dasharray="4,4" opacity="0.5"/>
  <text x="50" y="208.0" text-anchor="end" dominant-baseline="middle" font-size="10" fill="#888">40%</text>
  <line x1="60" y1="152.0" x2="860" y2="152.0" stroke="#333" stroke-width="1" stroke-dasharray="4,4" opacity="0.5"/>
  <text x="50" y="152.0" text-anchor="end" dominant-baseline="middle" font-size="10" fill="#888">60%</text>
  <line x1="60" y1="96.0" x2="860" y2="96.0" stroke="#333" stroke-width="1" stroke-dasharray="4,4" opacity="0.5"/>
  <text x="50" y="96.0" text-anchor="end" dominant-baseline="middle" font-size="10" fill="#888">80%</text>
  <line x1="60" y1="40.0" x2="860" y2="40.0" stroke="#333" stroke-width="1" stroke-dasharray="4,4" opacity="0.5"/>
  <text x="50" y="40.0" text-anchor="end" dominant-baseline="middle" font-size="10" fill="#888">100%</text>

  <!-- Referans çizgileri -->
  <line x1="60" y1="236.0" x2="860" y2="236.0" stroke="#ef4444" stroke-width="1" stroke-dasharray="2,2" opacity="0.7"/>
  <text x="845" y="236.0" dominant-baseline="middle" font-size="9" fill="#ef4444">Kritik (30%)</text>
  <line x1="60" y1="180.0" x2="860" y2="180.0" stroke="#eab308" stroke-width="1" stroke-dasharray="2,2" opacity="0.7"/>
  <text x="845" y="180.0" dominant-baseline="middle" font-size="9" fill="#eab308">Normal (50%)</text>

  <!-- Toplam doluluk -->
  <polyline points="60.0,193.2 80.5,192.5 101.0,192.0 121.5,191.6 142.1,191.1 162.6,190.8 183.1,190.4 203.6,190.1 224.1,189.6 244.6,188.8 265.1,187.8 285.6,187.0 306.2,186.2 326.7,185.6 347.2,185.0 367.7,184.3 388.2,183.6 408.7,183.2 429.2,182.9 449.7,182.7 470.3,182.7 490.8,182.4 511.3,182.3 531.8,182.3 552.3,182.2 572.8,182.2 593.3,182.2 613.8,182.2 634.4,182.3 654.9,182.4 675.4,182.5 695.9,182.6 716.4,182.7 736.9,182.9 757.4,183.1 777.9,183.2 798.5,183.3 819.0,183.4 839.5,183.5 860.0,183.7" fill="none" stroke="#22c55e" stroke-width="2.5" stroke-linecap="round" stroke-linejoin="round"/>
  <polyline points="60.0,193.2 80.5,192.5 101.0,192.0 121.5,191.6 142.1,191.1 162.6,190.8 183.1,190.4 203.6,190.1 224.1,189.6 244.6,188.8 265.1,187.8 285.6,187.0 306.2,186.2 326.7,185.6 347.2,185.0 367.7,184.3 388.2,183.6 408.7,183.2 429.2,182.9 449.7,182.7 470.3,182.7 490.8,182.4 511.3,182.3 531.8,182.3 552.3,182.2 572.8,182.2 593.3,182.2 613.8,182.2 634.4,182.3 654.9,182.4 675.4,182.5 695.9,182.6 716.4,182.7 736.9,182.9 757.4,183.1 777.9,183.2 798.5,183.3 819.0,183.4 839.5,183.5 860.0,183.7" fill="none" stroke="#22c55e" stroke-width="5" opacity="0.1" stroke-linecap="round" stroke-linejoin="round"/>

  <!-- Aktif doluluk -->
  <polyline points="60.0,211.1 80.5,210.2 101.0,209.7 121.5,209.2 142.1,208.7 162.6,208.3 183.1,207.9 203.6,207.5 224.1,207.0 244.6,206.2 265.1,205.0 285.6,204.1 306.2,203.2 326.7,202.5 347.2,201.9 367.7,201.0 388.2,200.3 408.7,199.9 429.2,199.6 449.7,199.4 470.3,199.3 490.8,199.0 511.3,198.9 531.8,198.9 552.3,198.7 572.8,198.7 593.3,198.8 613.8,198.8 634.4,198.8 654.9,198.9 675.4,199.0 695.9,199.2 716.4,199.4 736.9,199.5 757.4,199.7 777.9,199.8 798.5,200.0 819.0,200.1 839.5,200.2 860.0,200.4" fill="none" stroke="#3b82f6" stroke-width="2.5" stroke-linecap="round" stroke-linejoin="round"/>
  <polyline points="60.0,211.1 80.5,210.2 101.0,209.7 121.5,209.2 142.1,208.7 162.6,208.3 183.1,207.9 203.6,207.5 224.1,207.0 244.6,206.2 265.1,205.0 285.6,204.1 306.2,203.2 326.7,202.5 347.2,201.9 367.7,201.0 388.2,200.3 408.7,199.9 429.2,199.6 449.7,199.4 470.3,199.3 490.8,199.0 511.3,198.9 531.8,198.9 552.3,198.7 572.8,198.7 593.3,198.8 613.8,198.8 634.4,198.8 654.9,198.9 675.4,199.0 695.9,199.2 716.4,199.4 736.9,199.5 757.4,199.7 777.9,199.8 798.5,200.0 819.0,200.1 839.5,200.2 860.0,200.4" fill="none" stroke="#3b82f6" stroke-width="5" opacity="0.1" stroke-linecap="round" stroke-linejoin="round"/>

  <!-- Noktalar -->
  <circle cx="60.0" cy="193.2" r="3" fill="#22c55e"/><circle cx="80.5" cy="192.5" r="3" fill="#22c55e"/><circle cx="101.0" cy="192.0" r="3" fill="#22c55e"/><circle cx="121.5" cy="191.6" r="3" fill="#22c55e"/><circle cx="142.1" cy="191.1" r="3" fill="#22c55e"/><circle cx="162.6" cy="190.8" r="3" fill="#22c55e"/><circle cx="183.1" cy="190.4" r="3" fill="#22c55e"/><circle cx="203.6" cy="190.1" r="3" fill="#22c55e"/><circle cx="224.1" cy="189.6" r="3" fill="#22c55e"/><circle cx="244.6" cy="188.8" r="3" fill="#22c55e"/><circle cx="265.1" cy="187.8" r="3" fill="#22c55e"/><circle cx="285.6" cy="187.0" r="3" fill="#22c55e"/><circle cx="306.2" cy="186.2" r="3" fill="#22c55e"/><circle cx="326.7" cy="185.6" r="3" fill="#22c55e"/><circle cx="347.2" cy="185.0" r="3" fill="#22c55e"/><circle cx="367.7" cy="184.3" r="3" fill="#22c55e"/><circle cx="388.2" cy="183.6" r="3" fill="#22c55e"/><circle cx="408.7" cy="183.2" r="3" fill="#22c55e"/><circle cx="429.2" cy="182.9" r="3" fill="#22c55e"/><circle cx="449.7" cy="182.7" r="3" fill="#22c55e"/><circle cx="470.3" cy="182.7" r="3" fill="#22c55e"/><circle cx="490.8" cy="182.4" r="3" fill="#22c55e"/><circle cx="511.3" cy="182.3" r="3" fill="#22c55e"/><circle cx="531.8" cy="182.3" r="3" fill="#22c55e"/><circle cx="552.3" cy="182.2" r="3" fill="#22c55e"/><circle cx="572.8" cy="182.2" r="3" fill="#22c55e"/><circle cx="593.3" cy="182.2" r="3" fill="#22c55e"/><circle cx="613.8" cy="182.2" r="3" fill="#22c55e"/><circle cx="634.4" cy="182.3" r="3" fill="#22c55e"/><circle cx="654.9" cy="182.4" r="3" fill="#22c55e"/><circle cx="675.4" cy="182.5" r="3" fill="#22c55e"/><circle cx="695.9" cy="182.6" r="3" fill="#22c55e"/><circle cx="716.4" cy="182.7" r="3" fill="#22c55e"/><circle cx="736.9" cy="182.9" r="3" fill="#22c55e"/><circle cx="757.4" cy="183.1" r="3" fill="#22c55e"/><circle cx="777.9" cy="183.2" r="3" fill="#22c55e"/><circle cx="798.5" cy="183.3" r="3" fill="#22c55e"/><circle cx="819.0" cy="183.4" r="3" fill="#22c55e"/><circle cx="839.5" cy="183.5" r="3" fill="#22c55e"/><circle cx="860.0" cy="183.7" r="3" fill="#22c55e"/>
  <circle cx="60.0" cy="211.1" r="3" fill="#3b82f6"/><circle cx="80.5" cy="210.2" r="3" fill="#3b82f6"/><circle cx="101.0" cy="209.7" r="3" fill="#3b82f6"/><circle cx="121.5" cy="209.2" r="3" fill="#3b82f6"/><circle cx="142.1" cy="208.7" r="3" fill="#3b82f6"/><circle cx="162.6" cy="208.3" r="3" fill="#3b82f6"/><circle cx="183.1" cy="207.9" r="3" fill="#3b82f6"/><circle cx="203.6" cy="207.5" r="3" fill="#3b82f6"/><circle cx="224.1" cy="207.0" r="3" fill="#3b82f6"/><circle cx="244.6" cy="206.2" r="3" fill="#3b82f6"/><circle cx="265.1" cy="205.0" r="3" fill="#3b82f6"/><circle cx="285.6" cy="204.1" r="3" fill="#3b82f6"/><circle cx="306.2" cy="203.2" r="3" fill="#3b82f6"/><circle cx="326.7" cy="202.5" r="3" fill="#3b82f6"/><circle cx="347.2" cy="201.9" r="3" fill="#3b82f6"/><circle cx="367.7" cy="201.0" r="3" fill="#3b82f6"/><circle cx="388.2" cy="200.3" r="3" fill="#3b82f6"/><circle cx="408.7" cy="199.9" r="3" fill="#3b82f6"/><circle cx="429.2" cy="199.6" r="3" fill="#3b82f6"/><circle cx="449.7" cy="199.4" r="3" fill="#3b82f6"/><circle cx="470.3" cy="199.3" r="3" fill="#3b82f6"/><circle cx="490.8" cy="199.0" r="3" fill="#3b82f6"/><circle cx="511.3" cy="198.9" r="3" fill="#3b82f6"/><circle cx="531.8" cy="198.9" r="3" fill="#3b82f6"/><circle cx="552.3" cy="198.7" r="3" fill="#3b82f6"/><circle cx="572.8" cy="198.7" r="3" fill="#3b82f6"/><circle cx="593.3" cy="198.8" r="3" fill="#3b82f6"/><circle cx="613.8" cy="198.8" r="3" fill="#3b82f6"/><circle cx="634.4" cy="198.8" r="3" fill="#3b82f6"/><circle cx="654.9" cy="198.9" r="3" fill="#3b82f6"/><circle cx="675.4" cy="199.0" r="3" fill="#3b82f6"/><circle cx="695.9" cy="199.2" r="3" fill="#3b82f6"/><circle cx="716.4" cy="199.4" r="3" fill="#3b82f6"/><circle cx="736.9" cy="199.5" r="3" fill="#3b82f6"/><circle cx="757.4" cy="199.7" r="3" fill="#3b82f6"/><circle cx="777.9" cy="199.8" r="3" fill="#3b82f6"/><circle cx="798.5" cy="200.0" r="3" fill="#3b82f6"/><circle cx="819.0" cy="200.1" r="3" fill="#3b82f6"/><circle cx="839.5" cy="200.2" r="3" fill="#3b82f6"/><circle cx="860.0" cy="200.4" r="3" fill="#3b82f6"/>

  <!-- X ekseni -->
  <text x="60.0" y="380" text-anchor="middle" font-size="10" fill="#888">14.05.2026</text>
  <text x="183.1" y="380" text-anchor="middle" font-size="10" fill="#888">20.05.2026</text>
  <text x="306.2" y="380" text-anchor="middle" font-size="10" fill="#888">26.05.2026</text>
  <text x="429.2" y="380" text-anchor="middle" font-size="10" fill="#888">01.06.2026</text>
  <text x="552.3" y="380" text-anchor="middle" font-size="10" fill="#888">07.06.2026</text>
  <text x="675.4" y="380" text-anchor="middle" font-size="10" fill="#888">13.06.2026</text>
  <text x="798.5" y="380" text-anchor="middle" font-size="10" fill="#888">19.06.2026</text>

  <!-- Legend -->
  <g transform="translate(60, 345)">
    <rect x="0" y="0" width="12" height="12" fill="#22c55e" rx="2"/>
    <text x="18" y="10" font-size="11" fill="#c9d1d9">Toplam Doluluk</text>
    <rect x="140" y="0" width="12" height="12" fill="#3b82f6" rx="2"/>
    <text x="158" y="10" font-size="11" fill="#c9d1d9">Aktif Doluluk</text>
  </g>
</svg>