<svg xmlns="http://www.w3.org/2000/svg" viewBox="0 0 900 400" width="100%" style="max-width:900px;">
  <rect width="900" height="400" fill="#0d1117" rx="6"/>
  <text x="450.0" y="25" text-anchor="middle" font-size="16" font-weight="bold" fill="#c9d1d9">Son 360 Gün - Günlük Ortalama</text>

  <!-- Y grid -->
  <line x1="60" y1="320.0" x2="860" y2="320.0" stroke="#333" stroke-width="1" stroke-dasharray="4,4" opacity="0.5"/>
  <text x="50" y="320.0" text-anchor="end" dominant-baseline="middle" font-size="10" fill="#888">0%</text>
  <line x1="60" y1="264.0" x2="860" y2="264.0" stroke="#333" stroke-width="1" stroke-dasharray="4,4" opacity="0.5"/>
  <text x="50" y="264.0" text-anchor="end" dominant-baseline="middle" font-size="10" fill="#888">20%</text>
  <line x1="60" y1="208.0" x2="860" y2="208.0" stroke="#333" stroke-width="1" stroke-dasharray="4,4" opacity="0.5"/>
  <text x="50" y="208.0" text-anchor="end" dominant-baseline="middle" font-size="10" fill="#888">40%</text>
  <line x1="60" y1="152.0" x2="860" y2="152.0" stroke="#333" stroke-width="1" stroke-dasharray="4,4" opacity="0.5"/>
  <text x="50" y="152.0" text-anchor="end" dominant-baseline="middle" font-size="10" fill="#888">60%</text>
  <line x1="60" y1="96.0" x2="860" y2="96.0" stroke="#333" stroke-width="1" stroke-dasharray="4,4" opacity="0.5"/>
  <text x="50" y="96.0" text-anchor="end" dominant-baseline="middle" font-size="10" fill="#888">80%</text>
  <line x1="60" y1="40.0" x2="860" y2="40.0" stroke="#333" stroke-width="1" stroke-dasharray="4,4" opacity="0.5"/>
  <text x="50" y="40.0" text-anchor="end" dominant-baseline="middle" font-size="10" fill="#888">100%</text>

  <!-- Referans çizgileri -->
  <line x1="60" y1="236.0" x2="860" y2="236.0" stroke="#ef4444" stroke-width="1" stroke-dasharray="2,2" opacity="0.7"/>
  <text x="845" y="236.0" dominant-baseline="middle" font-size="9" fill="#ef4444">Kritik (30%)</text>
  <line x1="60" y1="180.0" x2="860" y2="180.0" stroke="#eab308" stroke-width="1" stroke-dasharray="2,2" opacity="0.7"/>
  <text x="845" y="180.0" dominant-baseline="middle" font-size="9" fill="#eab308">Normal (50%)</text>

  <!-- Toplam doluluk -->
  <polyline points="60.0,193.2 88.6,192.5 117.1,192.0 145.7,191.6 174.3,191.1 202.9,190.8 231.4,190.4 260.0,190.1 288.6,189.6 317.1,188.8 345.7,187.8 374.3,187.0 402.9,186.2 431.4,185.6 460.0,185.0 488.6,184.3 517.1,183.6 545.7,183.2 574.3,182.9 602.9,182.7 631.4,182.7 660.0,182.4 688.6,182.3 717.1,182.3 745.7,182.2 774.3,182.2 802.9,182.2 831.4,182.2 860.0,182.3" fill="none" stroke="#22c55e" stroke-width="2.5" stroke-linecap="round" stroke-linejoin="round"/>
  <polyline points="60.0,193.2 88.6,192.5 117.1,192.0 145.7,191.6 174.3,191.1 202.9,190.8 231.4,190.4 260.0,190.1 288.6,189.6 317.1,188.8 345.7,187.8 374.3,187.0 402.9,186.2 431.4,185.6 460.0,185.0 488.6,184.3 517.1,183.6 545.7,183.2 574.3,182.9 602.9,182.7 631.4,182.7 660.0,182.4 688.6,182.3 717.1,182.3 745.7,182.2 774.3,182.2 802.9,182.2 831.4,182.2 860.0,182.3" fill="none" stroke="#22c55e" stroke-width="5" opacity="0.1" stroke-linecap="round" stroke-linejoin="round"/>

  <!-- Aktif doluluk -->
  <polyline points="60.0,211.1 88.6,210.2 117.1,209.7 145.7,209.2 174.3,208.7 202.9,208.3 231.4,207.9 260.0,207.5 288.6,207.0 317.1,206.2 345.7,205.0 374.3,204.1 402.9,203.2 431.4,202.5 460.0,201.9 488.6,201.0 517.1,200.3 545.7,199.9 574.3,199.6 602.9,199.4 631.4,199.3 660.0,199.0 688.6,198.9 717.1,198.9 745.7,198.7 774.3,198.7 802.9,198.8 831.4,198.8 860.0,198.8" fill="none" stroke="#3b82f6" stroke-width="2.5" stroke-linecap="round" stroke-linejoin="round"/>
  <polyline points="60.0,211.1 88.6,210.2 117.1,209.7 145.7,209.2 174.3,208.7 202.9,208.3 231.4,207.9 260.0,207.5 288.6,207.0 317.1,206.2 345.7,205.0 374.3,204.1 402.9,203.2 431.4,202.5 460.0,201.9 488.6,201.0 517.1,200.3 545.7,199.9 574.3,199.6 602.9,199.4 631.4,199.3 660.0,199.0 688.6,198.9 717.1,198.9 745.7,198.7 774.3,198.7 802.9,198.8 831.4,198.8 860.0,198.8" fill="none" stroke="#3b82f6" stroke-width="5" opacity="0.1" stroke-linecap="round" stroke-linejoin="round"/>

  <!-- Noktalar -->
  <circle cx="60.0" cy="193.2" r="3" fill="#22c55e"/><circle cx="88.6" cy="192.5" r="3" fill="#22c55e"/><circle cx="117.1" cy="192.0" r="3" fill="#22c55e"/><circle cx="145.7" cy="191.6" r="3" fill="#22c55e"/><circle cx="174.3" cy="191.1" r="3" fill="#22c55e"/><circle cx="202.9" cy="190.8" r="3" fill="#22c55e"/><circle cx="231.4" cy="190.4" r="3" fill="#22c55e"/><circle cx="260.0" cy="190.1" r="3" fill="#22c55e"/><circle cx="288.6" cy="189.6" r="3" fill="#22c55e"/><circle cx="317.1" cy="188.8" r="3" fill="#22c55e"/><circle cx="345.7" cy="187.8" r="3" fill="#22c55e"/><circle cx="374.3" cy="187.0" r="3" fill="#22c55e"/><circle cx="402.9" cy="186.2" r="3" fill="#22c55e"/><circle cx="431.4" cy="185.6" r="3" fill="#22c55e"/><circle cx="460.0" cy="185.0" r="3" fill="#22c55e"/><circle cx="488.6" cy="184.3" r="3" fill="#22c55e"/><circle cx="517.1" cy="183.6" r="3" fill="#22c55e"/><circle cx="545.7" cy="183.2" r="3" fill="#22c55e"/><circle cx="574.3" cy="182.9" r="3" fill="#22c55e"/><circle cx="602.9" cy="182.7" r="3" fill="#22c55e"/><circle cx="631.4" cy="182.7" r="3" fill="#22c55e"/><circle cx="660.0" cy="182.4" r="3" fill="#22c55e"/><circle cx="688.6" cy="182.3" r="3" fill="#22c55e"/><circle cx="717.1" cy="182.3" r="3" fill="#22c55e"/><circle cx="745.7" cy="182.2" r="3" fill="#22c55e"/><circle cx="774.3" cy="182.2" r="3" fill="#22c55e"/><circle cx="802.9" cy="182.2" r="3" fill="#22c55e"/><circle cx="831.4" cy="182.2" r="3" fill="#22c55e"/><circle cx="860.0" cy="182.3" r="3" fill="#22c55e"/>
  <circle cx="60.0" cy="211.1" r="3" fill="#3b82f6"/><circle cx="88.6" cy="210.2" r="3" fill="#3b82f6"/><circle cx="117.1" cy="209.7" r="3" fill="#3b82f6"/><circle cx="145.7" cy="209.2" r="3" fill="#3b82f6"/><circle cx="174.3" cy="208.7" r="3" fill="#3b82f6"/><circle cx="202.9" cy="208.3" r="3" fill="#3b82f6"/><circle cx="231.4" cy="207.9" r="3" fill="#3b82f6"/><circle cx="260.0" cy="207.5" r="3" fill="#3b82f6"/><circle cx="288.6" cy="207.0" r="3" fill="#3b82f6"/><circle cx="317.1" cy="206.2" r="3" fill="#3b82f6"/><circle cx="345.7" cy="205.0" r="3" fill="#3b82f6"/><circle cx="374.3" cy="204.1" r="3" fill="#3b82f6"/><circle cx="402.9" cy="203.2" r="3" fill="#3b82f6"/><circle cx="431.4" cy="202.5" r="3" fill="#3b82f6"/><circle cx="460.0" cy="201.9" r="3" fill="#3b82f6"/><circle cx="488.6" cy="201.0" r="3" fill="#3b82f6"/><circle cx="517.1" cy="200.3" r="3" fill="#3b82f6"/><circle cx="545.7" cy="199.9" r="3" fill="#3b82f6"/><circle cx="574.3" cy="199.6" r="3" fill="#3b82f6"/><circle cx="602.9" cy="199.4" r="3" fill="#3b82f6"/><circle cx="631.4" cy="199.3" r="3" fill="#3b82f6"/><circle cx="660.0" cy="199.0" r="3" fill="#3b82f6"/><circle cx="688.6" cy="198.9" r="3" fill="#3b82f6"/><circle cx="717.1" cy="198.9" r="3" fill="#3b82f6"/><circle cx="745.7" cy="198.7" r="3" fill="#3b82f6"/><circle cx="774.3" cy="198.7" r="3" fill="#3b82f6"/><circle cx="802.9" cy="198.8" r="3" fill="#3b82f6"/><circle cx="831.4" cy="198.8" r="3" fill="#3b82f6"/><circle cx="860.0" cy="198.8" r="3" fill="#3b82f6"/>

  <!-- X ekseni -->
  <text x="60.0" y="380" text-anchor="middle" font-size="10" fill="#888">14.05 00:00</text>
  <text x="174.3" y="380" text-anchor="middle" font-size="10" fill="#888">18.05 00:00</text>
  <text x="288.6" y="380" text-anchor="middle" font-size="10" fill="#888">22.05 00:00</text>
  <text x="402.9" y="380" text-anchor="middle" font-size="10" fill="#888">26.05 00:00</text>
  <text x="517.1" y="380" text-anchor="middle" font-size="10" fill="#888">30.05 00:00</text>
  <text x="631.4" y="380" text-anchor="middle" font-size="10" fill="#888">03.06 00:00</text>
  <text x="745.7" y="380" text-anchor="middle" font-size="10" fill="#888">07.06 00:00</text>
  <text x="860.0" y="380" text-anchor="middle" font-size="10" fill="#888">11.06 00:00</text>

  <!-- Legend -->
  <g transform="translate(60, 345)">
    <rect x="0" y="0" width="12" height="12" fill="#22c55e" rx="2"/>
    <text x="18" y="10" font-size="11" fill="#c9d1d9">Toplam Doluluk</text>
    <rect x="140" y="0" width="12" height="12" fill="#3b82f6" rx="2"/>
    <text x="158" y="10" font-size="11" fill="#c9d1d9">Aktif Doluluk</text>
  </g>
</svg>