<svg xmlns="http://www.w3.org/2000/svg" viewBox="0 0 800 400" width="100%" style="max-width:800px;">
  <rect width="800" height="400" fill="#0d1117" rx="6"/>
  <text x="400.0" y="25" text-anchor="middle" font-size="16" font-weight="bold" fill="#c9d1d9">Son 90 Gün - Günlük Ortalama</text>

  <!-- Y grid -->
  <line x1="60" y1="320.0" x2="760" y2="320.0" stroke="#333" stroke-width="1" stroke-dasharray="4,4" opacity="0.5"/>
  <text x="50" y="320.0" text-anchor="end" dominant-baseline="middle" font-size="10" fill="#888">0%</text>
  <line x1="60" y1="264.0" x2="760" y2="264.0" stroke="#333" stroke-width="1" stroke-dasharray="4,4" opacity="0.5"/>
  <text x="50" y="264.0" text-anchor="end" dominant-baseline="middle" font-size="10" fill="#888">20%</text>
  <line x1="60" y1="208.0" x2="760" y2="208.0" stroke="#333" stroke-width="1" stroke-dasharray="4,4" opacity="0.5"/>
  <text x="50" y="208.0" text-anchor="end" dominant-baseline="middle" font-size="10" fill="#888">40%</text>
  <line x1="60" y1="152.0" x2="760" y2="152.0" stroke="#333" stroke-width="1" stroke-dasharray="4,4" opacity="0.5"/>
  <text x="50" y="152.0" text-anchor="end" dominant-baseline="middle" font-size="10" fill="#888">60%</text>
  <line x1="60" y1="96.0" x2="760" y2="96.0" stroke="#333" stroke-width="1" stroke-dasharray="4,4" opacity="0.5"/>
  <text x="50" y="96.0" text-anchor="end" dominant-baseline="middle" font-size="10" fill="#888">80%</text>
  <line x1="60" y1="40.0" x2="760" y2="40.0" stroke="#333" stroke-width="1" stroke-dasharray="4,4" opacity="0.5"/>
  <text x="50" y="40.0" text-anchor="end" dominant-baseline="middle" font-size="10" fill="#888">100%</text>

  <!-- Referans çizgileri -->
  <line x1="60" y1="236.0" x2="760" y2="236.0" stroke="#ef4444" stroke-width="1" stroke-dasharray="2,2" opacity="0.7"/>
  <text x="745" y="236.0" dominant-baseline="middle" font-size="9" fill="#ef4444">Kritik (30%)</text>
  <line x1="60" y1="180.0" x2="760" y2="180.0" stroke="#eab308" stroke-width="1" stroke-dasharray="2,2" opacity="0.7"/>
  <text x="745" y="180.0" dominant-baseline="middle" font-size="9" fill="#eab308">Normal (50%)</text>

  <!-- Toplam doluluk -->
  <polyline points="60.0,193.2 70.9,192.5 81.9,192.0 92.8,191.6 103.8,191.1 114.7,190.8 125.6,190.4 136.6,190.1 147.5,189.6 158.4,188.8 169.4,187.8 180.3,187.0 191.2,186.2 202.2,185.6 213.1,185.0 224.1,184.3 235.0,183.6 245.9,183.2 256.9,182.9 267.8,182.7 278.8,182.7 289.7,182.4 300.6,182.3 311.6,182.3 322.5,182.2 333.4,182.2 344.4,182.2 355.3,182.2 366.2,182.3 377.2,182.4 388.1,182.5 399.1,182.6 410.0,182.7 420.9,182.9 431.9,183.1 442.8,183.2 453.8,183.3 464.7,183.4 475.6,183.5 486.6,183.7 497.5,183.9 508.4,184.2 519.4,184.4 530.3,184.7 541.2,185.0 552.2,185.3 563.1,185.6 574.1,186.0 585.0,186.3 595.9,186.6 606.9,187.0 617.8,187.3 628.8,187.6 639.7,188.0 650.6,188.3 661.6,188.6 672.5,189.0 683.4,189.3 694.4,189.6 705.3,189.9 716.2,190.2 727.2,190.5 738.1,190.8 749.1,191.1 760.0,191.4" fill="none" stroke="#22c55e" stroke-width="2.5" stroke-linecap="round" stroke-linejoin="round"/>
  <polyline points="60.0,193.2 70.9,192.5 81.9,192.0 92.8,191.6 103.8,191.1 114.7,190.8 125.6,190.4 136.6,190.1 147.5,189.6 158.4,188.8 169.4,187.8 180.3,187.0 191.2,186.2 202.2,185.6 213.1,185.0 224.1,184.3 235.0,183.6 245.9,183.2 256.9,182.9 267.8,182.7 278.8,182.7 289.7,182.4 300.6,182.3 311.6,182.3 322.5,182.2 333.4,182.2 344.4,182.2 355.3,182.2 366.2,182.3 377.2,182.4 388.1,182.5 399.1,182.6 410.0,182.7 420.9,182.9 431.9,183.1 442.8,183.2 453.8,183.3 464.7,183.4 475.6,183.5 486.6,183.7 497.5,183.9 508.4,184.2 519.4,184.4 530.3,184.7 541.2,185.0 552.2,185.3 563.1,185.6 574.1,186.0 585.0,186.3 595.9,186.6 606.9,187.0 617.8,187.3 628.8,187.6 639.7,188.0 650.6,188.3 661.6,188.6 672.5,189.0 683.4,189.3 694.4,189.6 705.3,189.9 716.2,190.2 727.2,190.5 738.1,190.8 749.1,191.1 760.0,191.4" fill="none" stroke="#22c55e" stroke-width="5" opacity="0.1" stroke-linecap="round" stroke-linejoin="round"/>

  <!-- Aktif doluluk -->
  <polyline points="60.0,211.1 70.9,210.2 81.9,209.7 92.8,209.2 103.8,208.7 114.7,208.3 125.6,207.9 136.6,207.5 147.5,207.0 158.4,206.2 169.4,205.0 180.3,204.1 191.2,203.2 202.2,202.5 213.1,201.9 224.1,201.0 235.0,200.3 245.9,199.9 256.9,199.6 267.8,199.4 278.8,199.3 289.7,199.0 300.6,198.9 311.6,198.9 322.5,198.7 333.4,198.7 344.4,198.8 355.3,198.8 366.2,198.8 377.2,198.9 388.1,199.0 399.1,199.2 410.0,199.4 420.9,199.5 431.9,199.7 442.8,199.8 453.8,200.0 464.7,200.1 475.6,200.2 486.6,200.4 497.5,200.7 508.4,201.0 519.4,201.3 530.3,201.6 541.2,201.8 552.2,202.2 563.1,202.6 574.1,203.0 585.0,203.3 595.9,203.7 606.9,204.1 617.8,204.4 628.8,204.8 639.7,205.2 650.6,205.5 661.6,205.9 672.5,206.3 683.4,206.7 694.4,207.0 705.3,207.4 716.2,207.7 727.2,208.0 738.1,208.3 749.1,208.7 760.0,209.0" fill="none" stroke="#3b82f6" stroke-width="2.5" stroke-linecap="round" stroke-linejoin="round"/>
  <polyline points="60.0,211.1 70.9,210.2 81.9,209.7 92.8,209.2 103.8,208.7 114.7,208.3 125.6,207.9 136.6,207.5 147.5,207.0 158.4,206.2 169.4,205.0 180.3,204.1 191.2,203.2 202.2,202.5 213.1,201.9 224.1,201.0 235.0,200.3 245.9,199.9 256.9,199.6 267.8,199.4 278.8,199.3 289.7,199.0 300.6,198.9 311.6,198.9 322.5,198.7 333.4,198.7 344.4,198.8 355.3,198.8 366.2,198.8 377.2,198.9 388.1,199.0 399.1,199.2 410.0,199.4 420.9,199.5 431.9,199.7 442.8,199.8 453.8,200.0 464.7,200.1 475.6,200.2 486.6,200.4 497.5,200.7 508.4,201.0 519.4,201.3 530.3,201.6 541.2,201.8 552.2,202.2 563.1,202.6 574.1,203.0 585.0,203.3 595.9,203.7 606.9,204.1 617.8,204.4 628.8,204.8 639.7,205.2 650.6,205.5 661.6,205.9 672.5,206.3 683.4,206.7 694.4,207.0 705.3,207.4 716.2,207.7 727.2,208.0 738.1,208.3 749.1,208.7 760.0,209.0" fill="none" stroke="#3b82f6" stroke-width="5" opacity="0.1" stroke-linecap="round" stroke-linejoin="round"/>

  <!-- Noktalar -->
  <circle cx="60.0" cy="193.2" r="3" fill="#22c55e"/><circle cx="70.9" cy="192.5" r="3" fill="#22c55e"/><circle cx="81.9" cy="192.0" r="3" fill="#22c55e"/><circle cx="92.8" cy="191.6" r="3" fill="#22c55e"/><circle cx="103.8" cy="191.1" r="3" fill="#22c55e"/><circle cx="114.7" cy="190.8" r="3" fill="#22c55e"/><circle cx="125.6" cy="190.4" r="3" fill="#22c55e"/><circle cx="136.6" cy="190.1" r="3" fill="#22c55e"/><circle cx="147.5" cy="189.6" r="3" fill="#22c55e"/><circle cx="158.4" cy="188.8" r="3" fill="#22c55e"/><circle cx="169.4" cy="187.8" r="3" fill="#22c55e"/><circle cx="180.3" cy="187.0" r="3" fill="#22c55e"/><circle cx="191.2" cy="186.2" r="3" fill="#22c55e"/><circle cx="202.2" cy="185.6" r="3" fill="#22c55e"/><circle cx="213.1" cy="185.0" r="3" fill="#22c55e"/><circle cx="224.1" cy="184.3" r="3" fill="#22c55e"/><circle cx="235.0" cy="183.6" r="3" fill="#22c55e"/><circle cx="245.9" cy="183.2" r="3" fill="#22c55e"/><circle cx="256.9" cy="182.9" r="3" fill="#22c55e"/><circle cx="267.8" cy="182.7" r="3" fill="#22c55e"/><circle cx="278.8" cy="182.7" r="3" fill="#22c55e"/><circle cx="289.7" cy="182.4" r="3" fill="#22c55e"/><circle cx="300.6" cy="182.3" r="3" fill="#22c55e"/><circle cx="311.6" cy="182.3" r="3" fill="#22c55e"/><circle cx="322.5" cy="182.2" r="3" fill="#22c55e"/><circle cx="333.4" cy="182.2" r="3" fill="#22c55e"/><circle cx="344.4" cy="182.2" r="3" fill="#22c55e"/><circle cx="355.3" cy="182.2" r="3" fill="#22c55e"/><circle cx="366.2" cy="182.3" r="3" fill="#22c55e"/><circle cx="377.2" cy="182.4" r="3" fill="#22c55e"/><circle cx="388.1" cy="182.5" r="3" fill="#22c55e"/><circle cx="399.1" cy="182.6" r="3" fill="#22c55e"/><circle cx="410.0" cy="182.7" r="3" fill="#22c55e"/><circle cx="420.9" cy="182.9" r="3" fill="#22c55e"/><circle cx="431.9" cy="183.1" r="3" fill="#22c55e"/><circle cx="442.8" cy="183.2" r="3" fill="#22c55e"/><circle cx="453.8" cy="183.3" r="3" fill="#22c55e"/><circle cx="464.7" cy="183.4" r="3" fill="#22c55e"/><circle cx="475.6" cy="183.5" r="3" fill="#22c55e"/><circle cx="486.6" cy="183.7" r="3" fill="#22c55e"/><circle cx="497.5" cy="183.9" r="3" fill="#22c55e"/><circle cx="508.4" cy="184.2" r="3" fill="#22c55e"/><circle cx="519.4" cy="184.4" r="3" fill="#22c55e"/><circle cx="530.3" cy="184.7" r="3" fill="#22c55e"/><circle cx="541.2" cy="185.0" r="3" fill="#22c55e"/><circle cx="552.2" cy="185.3" r="3" fill="#22c55e"/><circle cx="563.1" cy="185.6" r="3" fill="#22c55e"/><circle cx="574.1" cy="186.0" r="3" fill="#22c55e"/><circle cx="585.0" cy="186.3" r="3" fill="#22c55e"/><circle cx="595.9" cy="186.6" r="3" fill="#22c55e"/><circle cx="606.9" cy="187.0" r="3" fill="#22c55e"/><circle cx="617.8" cy="187.3" r="3" fill="#22c55e"/><circle cx="628.8" cy="187.6" r="3" fill="#22c55e"/><circle cx="639.7" cy="188.0" r="3" fill="#22c55e"/><circle cx="650.6" cy="188.3" r="3" fill="#22c55e"/><circle cx="661.6" cy="188.6" r="3" fill="#22c55e"/><circle cx="672.5" cy="189.0" r="3" fill="#22c55e"/><circle cx="683.4" cy="189.3" r="3" fill="#22c55e"/><circle cx="694.4" cy="189.6" r="3" fill="#22c55e"/><circle cx="705.3" cy="189.9" r="3" fill="#22c55e"/><circle cx="716.2" cy="190.2" r="3" fill="#22c55e"/><circle cx="727.2" cy="190.5" r="3" fill="#22c55e"/><circle cx="738.1" cy="190.8" r="3" fill="#22c55e"/><circle cx="749.1" cy="191.1" r="3" fill="#22c55e"/><circle cx="760.0" cy="191.4" r="3" fill="#22c55e"/>
  <circle cx="60.0" cy="211.1" r="3" fill="#3b82f6"/><circle cx="70.9" cy="210.2" r="3" fill="#3b82f6"/><circle cx="81.9" cy="209.7" r="3" fill="#3b82f6"/><circle cx="92.8" cy="209.2" r="3" fill="#3b82f6"/><circle cx="103.8" cy="208.7" r="3" fill="#3b82f6"/><circle cx="114.7" cy="208.3" r="3" fill="#3b82f6"/><circle cx="125.6" cy="207.9" r="3" fill="#3b82f6"/><circle cx="136.6" cy="207.5" r="3" fill="#3b82f6"/><circle cx="147.5" cy="207.0" r="3" fill="#3b82f6"/><circle cx="158.4" cy="206.2" r="3" fill="#3b82f6"/><circle cx="169.4" cy="205.0" r="3" fill="#3b82f6"/><circle cx="180.3" cy="204.1" r="3" fill="#3b82f6"/><circle cx="191.2" cy="203.2" r="3" fill="#3b82f6"/><circle cx="202.2" cy="202.5" r="3" fill="#3b82f6"/><circle cx="213.1" cy="201.9" r="3" fill="#3b82f6"/><circle cx="224.1" cy="201.0" r="3" fill="#3b82f6"/><circle cx="235.0" cy="200.3" r="3" fill="#3b82f6"/><circle cx="245.9" cy="199.9" r="3" fill="#3b82f6"/><circle cx="256.9" cy="199.6" r="3" fill="#3b82f6"/><circle cx="267.8" cy="199.4" r="3" fill="#3b82f6"/><circle cx="278.8" cy="199.3" r="3" fill="#3b82f6"/><circle cx="289.7" cy="199.0" r="3" fill="#3b82f6"/><circle cx="300.6" cy="198.9" r="3" fill="#3b82f6"/><circle cx="311.6" cy="198.9" r="3" fill="#3b82f6"/><circle cx="322.5" cy="198.7" r="3" fill="#3b82f6"/><circle cx="333.4" cy="198.7" r="3" fill="#3b82f6"/><circle cx="344.4" cy="198.8" r="3" fill="#3b82f6"/><circle cx="355.3" cy="198.8" r="3" fill="#3b82f6"/><circle cx="366.2" cy="198.8" r="3" fill="#3b82f6"/><circle cx="377.2" cy="198.9" r="3" fill="#3b82f6"/><circle cx="388.1" cy="199.0" r="3" fill="#3b82f6"/><circle cx="399.1" cy="199.2" r="3" fill="#3b82f6"/><circle cx="410.0" cy="199.4" r="3" fill="#3b82f6"/><circle cx="420.9" cy="199.5" r="3" fill="#3b82f6"/><circle cx="431.9" cy="199.7" r="3" fill="#3b82f6"/><circle cx="442.8" cy="199.8" r="3" fill="#3b82f6"/><circle cx="453.8" cy="200.0" r="3" fill="#3b82f6"/><circle cx="464.7" cy="200.1" r="3" fill="#3b82f6"/><circle cx="475.6" cy="200.2" r="3" fill="#3b82f6"/><circle cx="486.6" cy="200.4" r="3" fill="#3b82f6"/><circle cx="497.5" cy="200.7" r="3" fill="#3b82f6"/><circle cx="508.4" cy="201.0" r="3" fill="#3b82f6"/><circle cx="519.4" cy="201.3" r="3" fill="#3b82f6"/><circle cx="530.3" cy="201.6" r="3" fill="#3b82f6"/><circle cx="541.2" cy="201.8" r="3" fill="#3b82f6"/><circle cx="552.2" cy="202.2" r="3" fill="#3b82f6"/><circle cx="563.1" cy="202.6" r="3" fill="#3b82f6"/><circle cx="574.1" cy="203.0" r="3" fill="#3b82f6"/><circle cx="585.0" cy="203.3" r="3" fill="#3b82f6"/><circle cx="595.9" cy="203.7" r="3" fill="#3b82f6"/><circle cx="606.9" cy="204.1" r="3" fill="#3b82f6"/><circle cx="617.8" cy="204.4" r="3" fill="#3b82f6"/><circle cx="628.8" cy="204.8" r="3" fill="#3b82f6"/><circle cx="639.7" cy="205.2" r="3" fill="#3b82f6"/><circle cx="650.6" cy="205.5" r="3" fill="#3b82f6"/><circle cx="661.6" cy="205.9" r="3" fill="#3b82f6"/><circle cx="672.5" cy="206.3" r="3" fill="#3b82f6"/><circle cx="683.4" cy="206.7" r="3" fill="#3b82f6"/><circle cx="694.4" cy="207.0" r="3" fill="#3b82f6"/><circle cx="705.3" cy="207.4" r="3" fill="#3b82f6"/><circle cx="716.2" cy="207.7" r="3" fill="#3b82f6"/><circle cx="727.2" cy="208.0" r="3" fill="#3b82f6"/><circle cx="738.1" cy="208.3" r="3" fill="#3b82f6"/><circle cx="749.1" cy="208.7" r="3" fill="#3b82f6"/><circle cx="760.0" cy="209.0" r="3" fill="#3b82f6"/>

  <!-- X ekseni -->
  <text x="60.0" y="380" text-anchor="middle" font-size="10" fill="#888">14.05.2026</text>
  <text x="169.4" y="380" text-anchor="middle" font-size="10" fill="#888">24.05.2026</text>
  <text x="278.8" y="380" text-anchor="middle" font-size="10" fill="#888">03.06.2026</text>
  <text x="388.1" y="380" text-anchor="middle" font-size="10" fill="#888">13.06.2026</text>
  <text x="497.5" y="380" text-anchor="middle" font-size="10" fill="#888">23.06.2026</text>
  <text x="606.9" y="380" text-anchor="middle" font-size="10" fill="#888">03.07.2026</text>
  <text x="716.2" y="380" text-anchor="middle" font-size="10" fill="#888">13.07.2026</text>

  <!-- Legend -->
  <g transform="translate(60, 345)">
    <rect x="0" y="0" width="12" height="12" fill="#22c55e" rx="2"/>
    <text x="18" y="10" font-size="11" fill="#c9d1d9">Toplam Doluluk</text>
    <rect x="140" y="0" width="12" height="12" fill="#3b82f6" rx="2"/>
    <text x="158" y="10" font-size="11" fill="#c9d1d9">Aktif Doluluk</text>
  </g>
</svg>