<svg xmlns="http://www.w3.org/2000/svg" viewBox="0 0 800 400" width="100%" style="max-width:800px;">
  <rect width="800" height="400" fill="#0d1117" rx="6"/>
  <text x="400.0" y="25" text-anchor="middle" font-size="16" font-weight="bold" fill="#c9d1d9">Son 90 Gün - Günlük Ortalama</text>

  <!-- Y grid -->
  <line x1="60" y1="320.0" x2="760" y2="320.0" stroke="#333" stroke-width="1" stroke-dasharray="4,4" opacity="0.5"/>
  <text x="50" y="320.0" text-anchor="end" dominant-baseline="middle" font-size="10" fill="#888">0%</text>
  <line x1="60" y1="264.0" x2="760" y2="264.0" stroke="#333" stroke-width="1" stroke-dasharray="4,4" opacity="0.5"/>
  <text x="50" y="264.0" text-anchor="end" dominant-baseline="middle" font-size="10" fill="#888">20%</text>
  <line x1="60" y1="208.0" x2="760" y2="208.0" stroke="#333" stroke-width="1" stroke-dasharray="4,4" opacity="0.5"/>
  <text x="50" y="208.0" text-anchor="end" dominant-baseline="middle" font-size="10" fill="#888">40%</text>
  <line x1="60" y1="152.0" x2="760" y2="152.0" stroke="#333" stroke-width="1" stroke-dasharray="4,4" opacity="0.5"/>
  <text x="50" y="152.0" text-anchor="end" dominant-baseline="middle" font-size="10" fill="#888">60%</text>
  <line x1="60" y1="96.0" x2="760" y2="96.0" stroke="#333" stroke-width="1" stroke-dasharray="4,4" opacity="0.5"/>
  <text x="50" y="96.0" text-anchor="end" dominant-baseline="middle" font-size="10" fill="#888">80%</text>
  <line x1="60" y1="40.0" x2="760" y2="40.0" stroke="#333" stroke-width="1" stroke-dasharray="4,4" opacity="0.5"/>
  <text x="50" y="40.0" text-anchor="end" dominant-baseline="middle" font-size="10" fill="#888">100%</text>

  <!-- Referans çizgileri -->
  <line x1="60" y1="236.0" x2="760" y2="236.0" stroke="#ef4444" stroke-width="1" stroke-dasharray="2,2" opacity="0.7"/>
  <text x="745" y="236.0" dominant-baseline="middle" font-size="9" fill="#ef4444">Kritik (30%)</text>
  <line x1="60" y1="180.0" x2="760" y2="180.0" stroke="#eab308" stroke-width="1" stroke-dasharray="2,2" opacity="0.7"/>
  <text x="745" y="180.0" dominant-baseline="middle" font-size="9" fill="#eab308">Normal (50%)</text>

  <!-- Toplam doluluk -->
  <polyline points="60.0,193.2 78.9,192.5 97.8,192.0 116.8,191.6 135.7,191.1 154.6,190.8 173.5,190.4 192.4,190.1 211.4,189.6 230.3,188.8 249.2,187.8 268.1,187.0 287.0,186.2 305.9,185.6 324.9,185.0 343.8,184.3 362.7,183.6 381.6,183.2 400.5,182.9 419.5,182.7 438.4,182.7 457.3,182.4 476.2,182.3 495.1,182.3 514.1,182.2 533.0,182.2 551.9,182.2 570.8,182.2 589.7,182.3 608.6,182.4 627.6,182.5 646.5,182.6 665.4,182.7 684.3,182.9 703.2,183.1 722.2,183.2 741.1,183.3 760.0,183.4" fill="none" stroke="#22c55e" stroke-width="2.5" stroke-linecap="round" stroke-linejoin="round"/>
  <polyline points="60.0,193.2 78.9,192.5 97.8,192.0 116.8,191.6 135.7,191.1 154.6,190.8 173.5,190.4 192.4,190.1 211.4,189.6 230.3,188.8 249.2,187.8 268.1,187.0 287.0,186.2 305.9,185.6 324.9,185.0 343.8,184.3 362.7,183.6 381.6,183.2 400.5,182.9 419.5,182.7 438.4,182.7 457.3,182.4 476.2,182.3 495.1,182.3 514.1,182.2 533.0,182.2 551.9,182.2 570.8,182.2 589.7,182.3 608.6,182.4 627.6,182.5 646.5,182.6 665.4,182.7 684.3,182.9 703.2,183.1 722.2,183.2 741.1,183.3 760.0,183.4" fill="none" stroke="#22c55e" stroke-width="5" opacity="0.1" stroke-linecap="round" stroke-linejoin="round"/>

  <!-- Aktif doluluk -->
  <polyline points="60.0,211.1 78.9,210.2 97.8,209.7 116.8,209.2 135.7,208.7 154.6,208.3 173.5,207.9 192.4,207.5 211.4,207.0 230.3,206.2 249.2,205.0 268.1,204.1 287.0,203.2 305.9,202.5 324.9,201.9 343.8,201.0 362.7,200.3 381.6,199.9 400.5,199.6 419.5,199.4 438.4,199.3 457.3,199.0 476.2,198.9 495.1,198.9 514.1,198.7 533.0,198.7 551.9,198.8 570.8,198.8 589.7,198.8 608.6,198.9 627.6,199.0 646.5,199.2 665.4,199.4 684.3,199.5 703.2,199.7 722.2,199.8 741.1,200.0 760.0,200.1" fill="none" stroke="#3b82f6" stroke-width="2.5" stroke-linecap="round" stroke-linejoin="round"/>
  <polyline points="60.0,211.1 78.9,210.2 97.8,209.7 116.8,209.2 135.7,208.7 154.6,208.3 173.5,207.9 192.4,207.5 211.4,207.0 230.3,206.2 249.2,205.0 268.1,204.1 287.0,203.2 305.9,202.5 324.9,201.9 343.8,201.0 362.7,200.3 381.6,199.9 400.5,199.6 419.5,199.4 438.4,199.3 457.3,199.0 476.2,198.9 495.1,198.9 514.1,198.7 533.0,198.7 551.9,198.8 570.8,198.8 589.7,198.8 608.6,198.9 627.6,199.0 646.5,199.2 665.4,199.4 684.3,199.5 703.2,199.7 722.2,199.8 741.1,200.0 760.0,200.1" fill="none" stroke="#3b82f6" stroke-width="5" opacity="0.1" stroke-linecap="round" stroke-linejoin="round"/>

  <!-- Noktalar -->
  <circle cx="60.0" cy="193.2" r="3" fill="#22c55e"/><circle cx="78.9" cy="192.5" r="3" fill="#22c55e"/><circle cx="97.8" cy="192.0" r="3" fill="#22c55e"/><circle cx="116.8" cy="191.6" r="3" fill="#22c55e"/><circle cx="135.7" cy="191.1" r="3" fill="#22c55e"/><circle cx="154.6" cy="190.8" r="3" fill="#22c55e"/><circle cx="173.5" cy="190.4" r="3" fill="#22c55e"/><circle cx="192.4" cy="190.1" r="3" fill="#22c55e"/><circle cx="211.4" cy="189.6" r="3" fill="#22c55e"/><circle cx="230.3" cy="188.8" r="3" fill="#22c55e"/><circle cx="249.2" cy="187.8" r="3" fill="#22c55e"/><circle cx="268.1" cy="187.0" r="3" fill="#22c55e"/><circle cx="287.0" cy="186.2" r="3" fill="#22c55e"/><circle cx="305.9" cy="185.6" r="3" fill="#22c55e"/><circle cx="324.9" cy="185.0" r="3" fill="#22c55e"/><circle cx="343.8" cy="184.3" r="3" fill="#22c55e"/><circle cx="362.7" cy="183.6" r="3" fill="#22c55e"/><circle cx="381.6" cy="183.2" r="3" fill="#22c55e"/><circle cx="400.5" cy="182.9" r="3" fill="#22c55e"/><circle cx="419.5" cy="182.7" r="3" fill="#22c55e"/><circle cx="438.4" cy="182.7" r="3" fill="#22c55e"/><circle cx="457.3" cy="182.4" r="3" fill="#22c55e"/><circle cx="476.2" cy="182.3" r="3" fill="#22c55e"/><circle cx="495.1" cy="182.3" r="3" fill="#22c55e"/><circle cx="514.1" cy="182.2" r="3" fill="#22c55e"/><circle cx="533.0" cy="182.2" r="3" fill="#22c55e"/><circle cx="551.9" cy="182.2" r="3" fill="#22c55e"/><circle cx="570.8" cy="182.2" r="3" fill="#22c55e"/><circle cx="589.7" cy="182.3" r="3" fill="#22c55e"/><circle cx="608.6" cy="182.4" r="3" fill="#22c55e"/><circle cx="627.6" cy="182.5" r="3" fill="#22c55e"/><circle cx="646.5" cy="182.6" r="3" fill="#22c55e"/><circle cx="665.4" cy="182.7" r="3" fill="#22c55e"/><circle cx="684.3" cy="182.9" r="3" fill="#22c55e"/><circle cx="703.2" cy="183.1" r="3" fill="#22c55e"/><circle cx="722.2" cy="183.2" r="3" fill="#22c55e"/><circle cx="741.1" cy="183.3" r="3" fill="#22c55e"/><circle cx="760.0" cy="183.4" r="3" fill="#22c55e"/>
  <circle cx="60.0" cy="211.1" r="3" fill="#3b82f6"/><circle cx="78.9" cy="210.2" r="3" fill="#3b82f6"/><circle cx="97.8" cy="209.7" r="3" fill="#3b82f6"/><circle cx="116.8" cy="209.2" r="3" fill="#3b82f6"/><circle cx="135.7" cy="208.7" r="3" fill="#3b82f6"/><circle cx="154.6" cy="208.3" r="3" fill="#3b82f6"/><circle cx="173.5" cy="207.9" r="3" fill="#3b82f6"/><circle cx="192.4" cy="207.5" r="3" fill="#3b82f6"/><circle cx="211.4" cy="207.0" r="3" fill="#3b82f6"/><circle cx="230.3" cy="206.2" r="3" fill="#3b82f6"/><circle cx="249.2" cy="205.0" r="3" fill="#3b82f6"/><circle cx="268.1" cy="204.1" r="3" fill="#3b82f6"/><circle cx="287.0" cy="203.2" r="3" fill="#3b82f6"/><circle cx="305.9" cy="202.5" r="3" fill="#3b82f6"/><circle cx="324.9" cy="201.9" r="3" fill="#3b82f6"/><circle cx="343.8" cy="201.0" r="3" fill="#3b82f6"/><circle cx="362.7" cy="200.3" r="3" fill="#3b82f6"/><circle cx="381.6" cy="199.9" r="3" fill="#3b82f6"/><circle cx="400.5" cy="199.6" r="3" fill="#3b82f6"/><circle cx="419.5" cy="199.4" r="3" fill="#3b82f6"/><circle cx="438.4" cy="199.3" r="3" fill="#3b82f6"/><circle cx="457.3" cy="199.0" r="3" fill="#3b82f6"/><circle cx="476.2" cy="198.9" r="3" fill="#3b82f6"/><circle cx="495.1" cy="198.9" r="3" fill="#3b82f6"/><circle cx="514.1" cy="198.7" r="3" fill="#3b82f6"/><circle cx="533.0" cy="198.7" r="3" fill="#3b82f6"/><circle cx="551.9" cy="198.8" r="3" fill="#3b82f6"/><circle cx="570.8" cy="198.8" r="3" fill="#3b82f6"/><circle cx="589.7" cy="198.8" r="3" fill="#3b82f6"/><circle cx="608.6" cy="198.9" r="3" fill="#3b82f6"/><circle cx="627.6" cy="199.0" r="3" fill="#3b82f6"/><circle cx="646.5" cy="199.2" r="3" fill="#3b82f6"/><circle cx="665.4" cy="199.4" r="3" fill="#3b82f6"/><circle cx="684.3" cy="199.5" r="3" fill="#3b82f6"/><circle cx="703.2" cy="199.7" r="3" fill="#3b82f6"/><circle cx="722.2" cy="199.8" r="3" fill="#3b82f6"/><circle cx="741.1" cy="200.0" r="3" fill="#3b82f6"/><circle cx="760.0" cy="200.1" r="3" fill="#3b82f6"/>

  <!-- X ekseni -->
  <text x="60.0" y="380" text-anchor="middle" font-size="10" fill="#888">14.05.2026</text>
  <text x="173.5" y="380" text-anchor="middle" font-size="10" fill="#888">20.05.2026</text>
  <text x="287.0" y="380" text-anchor="middle" font-size="10" fill="#888">26.05.2026</text>
  <text x="400.5" y="380" text-anchor="middle" font-size="10" fill="#888">01.06.2026</text>
  <text x="514.1" y="380" text-anchor="middle" font-size="10" fill="#888">07.06.2026</text>
  <text x="627.6" y="380" text-anchor="middle" font-size="10" fill="#888">13.06.2026</text>
  <text x="741.1" y="380" text-anchor="middle" font-size="10" fill="#888">19.06.2026</text>

  <!-- Legend -->
  <g transform="translate(60, 345)">
    <rect x="0" y="0" width="12" height="12" fill="#22c55e" rx="2"/>
    <text x="18" y="10" font-size="11" fill="#c9d1d9">Toplam Doluluk</text>
    <rect x="140" y="0" width="12" height="12" fill="#3b82f6" rx="2"/>
    <text x="158" y="10" font-size="11" fill="#c9d1d9">Aktif Doluluk</text>
  </g>
</svg>