<svg xmlns="http://www.w3.org/2000/svg" viewBox="0 0 900 400" width="100%" style="max-width:900px;">
  <rect width="900" height="400" fill="#0d1117" rx="6"/>
  <text x="450.0" y="25" text-anchor="middle" font-size="16" font-weight="bold" fill="#c9d1d9">Son 180 Gün - Günlük Ortalama</text>

  <!-- Y grid -->
  <line x1="60" y1="320.0" x2="860" y2="320.0" stroke="#333" stroke-width="1" stroke-dasharray="4,4" opacity="0.5"/>
  <text x="50" y="320.0" text-anchor="end" dominant-baseline="middle" font-size="10" fill="#888">0%</text>
  <line x1="60" y1="264.0" x2="860" y2="264.0" stroke="#333" stroke-width="1" stroke-dasharray="4,4" opacity="0.5"/>
  <text x="50" y="264.0" text-anchor="end" dominant-baseline="middle" font-size="10" fill="#888">20%</text>
  <line x1="60" y1="208.0" x2="860" y2="208.0" stroke="#333" stroke-width="1" stroke-dasharray="4,4" opacity="0.5"/>
  <text x="50" y="208.0" text-anchor="end" dominant-baseline="middle" font-size="10" fill="#888">40%</text>
  <line x1="60" y1="152.0" x2="860" y2="152.0" stroke="#333" stroke-width="1" stroke-dasharray="4,4" opacity="0.5"/>
  <text x="50" y="152.0" text-anchor="end" dominant-baseline="middle" font-size="10" fill="#888">60%</text>
  <line x1="60" y1="96.0" x2="860" y2="96.0" stroke="#333" stroke-width="1" stroke-dasharray="4,4" opacity="0.5"/>
  <text x="50" y="96.0" text-anchor="end" dominant-baseline="middle" font-size="10" fill="#888">80%</text>
  <line x1="60" y1="40.0" x2="860" y2="40.0" stroke="#333" stroke-width="1" stroke-dasharray="4,4" opacity="0.5"/>
  <text x="50" y="40.0" text-anchor="end" dominant-baseline="middle" font-size="10" fill="#888">100%</text>

  <!-- Referans çizgileri -->
  <line x1="60" y1="236.0" x2="860" y2="236.0" stroke="#ef4444" stroke-width="1" stroke-dasharray="2,2" opacity="0.7"/>
  <text x="845" y="236.0" dominant-baseline="middle" font-size="9" fill="#ef4444">Kritik (30%)</text>
  <line x1="60" y1="180.0" x2="860" y2="180.0" stroke="#eab308" stroke-width="1" stroke-dasharray="2,2" opacity="0.7"/>
  <text x="845" y="180.0" dominant-baseline="middle" font-size="9" fill="#eab308">Normal (50%)</text>

  <!-- Toplam doluluk -->
  <polyline points="60.0,193.2 74.3,192.5 88.6,192.0 102.9,191.6 117.1,191.1 131.4,190.8 145.7,190.4 160.0,190.1 174.3,189.6 188.6,188.8 202.9,187.8 217.1,187.0 231.4,186.2 245.7,185.6 260.0,185.0 274.3,184.3 288.6,183.6 302.9,183.2 317.1,182.9 331.4,182.7 345.7,182.7 360.0,182.4 374.3,182.3 388.6,182.3 402.9,182.2 417.1,182.2 431.4,182.2 445.7,182.2 460.0,182.3 474.3,182.4 488.6,182.5 502.9,182.6 517.1,182.7 531.4,182.9 545.7,183.1 560.0,183.2 574.3,183.3 588.6,183.4 602.9,183.5 617.1,183.7 631.4,183.9 645.7,184.2 660.0,184.4 674.3,184.7 688.6,185.0 702.9,185.3 717.1,185.6 731.4,186.0 745.7,186.3 760.0,186.6 774.3,187.0 788.6,187.3 802.9,187.6 817.1,188.0 831.4,188.3 845.7,188.6 860.0,189.0" fill="none" stroke="#22c55e" stroke-width="2.5" stroke-linecap="round" stroke-linejoin="round"/>
  <polyline points="60.0,193.2 74.3,192.5 88.6,192.0 102.9,191.6 117.1,191.1 131.4,190.8 145.7,190.4 160.0,190.1 174.3,189.6 188.6,188.8 202.9,187.8 217.1,187.0 231.4,186.2 245.7,185.6 260.0,185.0 274.3,184.3 288.6,183.6 302.9,183.2 317.1,182.9 331.4,182.7 345.7,182.7 360.0,182.4 374.3,182.3 388.6,182.3 402.9,182.2 417.1,182.2 431.4,182.2 445.7,182.2 460.0,182.3 474.3,182.4 488.6,182.5 502.9,182.6 517.1,182.7 531.4,182.9 545.7,183.1 560.0,183.2 574.3,183.3 588.6,183.4 602.9,183.5 617.1,183.7 631.4,183.9 645.7,184.2 660.0,184.4 674.3,184.7 688.6,185.0 702.9,185.3 717.1,185.6 731.4,186.0 745.7,186.3 760.0,186.6 774.3,187.0 788.6,187.3 802.9,187.6 817.1,188.0 831.4,188.3 845.7,188.6 860.0,189.0" fill="none" stroke="#22c55e" stroke-width="5" opacity="0.1" stroke-linecap="round" stroke-linejoin="round"/>

  <!-- Aktif doluluk -->
  <polyline points="60.0,211.1 74.3,210.2 88.6,209.7 102.9,209.2 117.1,208.7 131.4,208.3 145.7,207.9 160.0,207.5 174.3,207.0 188.6,206.2 202.9,205.0 217.1,204.1 231.4,203.2 245.7,202.5 260.0,201.9 274.3,201.0 288.6,200.3 302.9,199.9 317.1,199.6 331.4,199.4 345.7,199.3 360.0,199.0 374.3,198.9 388.6,198.9 402.9,198.7 417.1,198.7 431.4,198.8 445.7,198.8 460.0,198.8 474.3,198.9 488.6,199.0 502.9,199.2 517.1,199.4 531.4,199.5 545.7,199.7 560.0,199.8 574.3,200.0 588.6,200.1 602.9,200.2 617.1,200.4 631.4,200.7 645.7,201.0 660.0,201.3 674.3,201.6 688.6,201.8 702.9,202.2 717.1,202.6 731.4,203.0 745.7,203.3 760.0,203.7 774.3,204.1 788.6,204.4 802.9,204.8 817.1,205.2 831.4,205.5 845.7,205.9 860.0,206.3" fill="none" stroke="#3b82f6" stroke-width="2.5" stroke-linecap="round" stroke-linejoin="round"/>
  <polyline points="60.0,211.1 74.3,210.2 88.6,209.7 102.9,209.2 117.1,208.7 131.4,208.3 145.7,207.9 160.0,207.5 174.3,207.0 188.6,206.2 202.9,205.0 217.1,204.1 231.4,203.2 245.7,202.5 260.0,201.9 274.3,201.0 288.6,200.3 302.9,199.9 317.1,199.6 331.4,199.4 345.7,199.3 360.0,199.0 374.3,198.9 388.6,198.9 402.9,198.7 417.1,198.7 431.4,198.8 445.7,198.8 460.0,198.8 474.3,198.9 488.6,199.0 502.9,199.2 517.1,199.4 531.4,199.5 545.7,199.7 560.0,199.8 574.3,200.0 588.6,200.1 602.9,200.2 617.1,200.4 631.4,200.7 645.7,201.0 660.0,201.3 674.3,201.6 688.6,201.8 702.9,202.2 717.1,202.6 731.4,203.0 745.7,203.3 760.0,203.7 774.3,204.1 788.6,204.4 802.9,204.8 817.1,205.2 831.4,205.5 845.7,205.9 860.0,206.3" fill="none" stroke="#3b82f6" stroke-width="5" opacity="0.1" stroke-linecap="round" stroke-linejoin="round"/>

  <!-- Noktalar -->
  <circle cx="60.0" cy="193.2" r="3" fill="#22c55e"/><circle cx="74.3" cy="192.5" r="3" fill="#22c55e"/><circle cx="88.6" cy="192.0" r="3" fill="#22c55e"/><circle cx="102.9" cy="191.6" r="3" fill="#22c55e"/><circle cx="117.1" cy="191.1" r="3" fill="#22c55e"/><circle cx="131.4" cy="190.8" r="3" fill="#22c55e"/><circle cx="145.7" cy="190.4" r="3" fill="#22c55e"/><circle cx="160.0" cy="190.1" r="3" fill="#22c55e"/><circle cx="174.3" cy="189.6" r="3" fill="#22c55e"/><circle cx="188.6" cy="188.8" r="3" fill="#22c55e"/><circle cx="202.9" cy="187.8" r="3" fill="#22c55e"/><circle cx="217.1" cy="187.0" r="3" fill="#22c55e"/><circle cx="231.4" cy="186.2" r="3" fill="#22c55e"/><circle cx="245.7" cy="185.6" r="3" fill="#22c55e"/><circle cx="260.0" cy="185.0" r="3" fill="#22c55e"/><circle cx="274.3" cy="184.3" r="3" fill="#22c55e"/><circle cx="288.6" cy="183.6" r="3" fill="#22c55e"/><circle cx="302.9" cy="183.2" r="3" fill="#22c55e"/><circle cx="317.1" cy="182.9" r="3" fill="#22c55e"/><circle cx="331.4" cy="182.7" r="3" fill="#22c55e"/><circle cx="345.7" cy="182.7" r="3" fill="#22c55e"/><circle cx="360.0" cy="182.4" r="3" fill="#22c55e"/><circle cx="374.3" cy="182.3" r="3" fill="#22c55e"/><circle cx="388.6" cy="182.3" r="3" fill="#22c55e"/><circle cx="402.9" cy="182.2" r="3" fill="#22c55e"/><circle cx="417.1" cy="182.2" r="3" fill="#22c55e"/><circle cx="431.4" cy="182.2" r="3" fill="#22c55e"/><circle cx="445.7" cy="182.2" r="3" fill="#22c55e"/><circle cx="460.0" cy="182.3" r="3" fill="#22c55e"/><circle cx="474.3" cy="182.4" r="3" fill="#22c55e"/><circle cx="488.6" cy="182.5" r="3" fill="#22c55e"/><circle cx="502.9" cy="182.6" r="3" fill="#22c55e"/><circle cx="517.1" cy="182.7" r="3" fill="#22c55e"/><circle cx="531.4" cy="182.9" r="3" fill="#22c55e"/><circle cx="545.7" cy="183.1" r="3" fill="#22c55e"/><circle cx="560.0" cy="183.2" r="3" fill="#22c55e"/><circle cx="574.3" cy="183.3" r="3" fill="#22c55e"/><circle cx="588.6" cy="183.4" r="3" fill="#22c55e"/><circle cx="602.9" cy="183.5" r="3" fill="#22c55e"/><circle cx="617.1" cy="183.7" r="3" fill="#22c55e"/><circle cx="631.4" cy="183.9" r="3" fill="#22c55e"/><circle cx="645.7" cy="184.2" r="3" fill="#22c55e"/><circle cx="660.0" cy="184.4" r="3" fill="#22c55e"/><circle cx="674.3" cy="184.7" r="3" fill="#22c55e"/><circle cx="688.6" cy="185.0" r="3" fill="#22c55e"/><circle cx="702.9" cy="185.3" r="3" fill="#22c55e"/><circle cx="717.1" cy="185.6" r="3" fill="#22c55e"/><circle cx="731.4" cy="186.0" r="3" fill="#22c55e"/><circle cx="745.7" cy="186.3" r="3" fill="#22c55e"/><circle cx="760.0" cy="186.6" r="3" fill="#22c55e"/><circle cx="774.3" cy="187.0" r="3" fill="#22c55e"/><circle cx="788.6" cy="187.3" r="3" fill="#22c55e"/><circle cx="802.9" cy="187.6" r="3" fill="#22c55e"/><circle cx="817.1" cy="188.0" r="3" fill="#22c55e"/><circle cx="831.4" cy="188.3" r="3" fill="#22c55e"/><circle cx="845.7" cy="188.6" r="3" fill="#22c55e"/><circle cx="860.0" cy="189.0" r="3" fill="#22c55e"/>
  <circle cx="60.0" cy="211.1" r="3" fill="#3b82f6"/><circle cx="74.3" cy="210.2" r="3" fill="#3b82f6"/><circle cx="88.6" cy="209.7" r="3" fill="#3b82f6"/><circle cx="102.9" cy="209.2" r="3" fill="#3b82f6"/><circle cx="117.1" cy="208.7" r="3" fill="#3b82f6"/><circle cx="131.4" cy="208.3" r="3" fill="#3b82f6"/><circle cx="145.7" cy="207.9" r="3" fill="#3b82f6"/><circle cx="160.0" cy="207.5" r="3" fill="#3b82f6"/><circle cx="174.3" cy="207.0" r="3" fill="#3b82f6"/><circle cx="188.6" cy="206.2" r="3" fill="#3b82f6"/><circle cx="202.9" cy="205.0" r="3" fill="#3b82f6"/><circle cx="217.1" cy="204.1" r="3" fill="#3b82f6"/><circle cx="231.4" cy="203.2" r="3" fill="#3b82f6"/><circle cx="245.7" cy="202.5" r="3" fill="#3b82f6"/><circle cx="260.0" cy="201.9" r="3" fill="#3b82f6"/><circle cx="274.3" cy="201.0" r="3" fill="#3b82f6"/><circle cx="288.6" cy="200.3" r="3" fill="#3b82f6"/><circle cx="302.9" cy="199.9" r="3" fill="#3b82f6"/><circle cx="317.1" cy="199.6" r="3" fill="#3b82f6"/><circle cx="331.4" cy="199.4" r="3" fill="#3b82f6"/><circle cx="345.7" cy="199.3" r="3" fill="#3b82f6"/><circle cx="360.0" cy="199.0" r="3" fill="#3b82f6"/><circle cx="374.3" cy="198.9" r="3" fill="#3b82f6"/><circle cx="388.6" cy="198.9" r="3" fill="#3b82f6"/><circle cx="402.9" cy="198.7" r="3" fill="#3b82f6"/><circle cx="417.1" cy="198.7" r="3" fill="#3b82f6"/><circle cx="431.4" cy="198.8" r="3" fill="#3b82f6"/><circle cx="445.7" cy="198.8" r="3" fill="#3b82f6"/><circle cx="460.0" cy="198.8" r="3" fill="#3b82f6"/><circle cx="474.3" cy="198.9" r="3" fill="#3b82f6"/><circle cx="488.6" cy="199.0" r="3" fill="#3b82f6"/><circle cx="502.9" cy="199.2" r="3" fill="#3b82f6"/><circle cx="517.1" cy="199.4" r="3" fill="#3b82f6"/><circle cx="531.4" cy="199.5" r="3" fill="#3b82f6"/><circle cx="545.7" cy="199.7" r="3" fill="#3b82f6"/><circle cx="560.0" cy="199.8" r="3" fill="#3b82f6"/><circle cx="574.3" cy="200.0" r="3" fill="#3b82f6"/><circle cx="588.6" cy="200.1" r="3" fill="#3b82f6"/><circle cx="602.9" cy="200.2" r="3" fill="#3b82f6"/><circle cx="617.1" cy="200.4" r="3" fill="#3b82f6"/><circle cx="631.4" cy="200.7" r="3" fill="#3b82f6"/><circle cx="645.7" cy="201.0" r="3" fill="#3b82f6"/><circle cx="660.0" cy="201.3" r="3" fill="#3b82f6"/><circle cx="674.3" cy="201.6" r="3" fill="#3b82f6"/><circle cx="688.6" cy="201.8" r="3" fill="#3b82f6"/><circle cx="702.9" cy="202.2" r="3" fill="#3b82f6"/><circle cx="717.1" cy="202.6" r="3" fill="#3b82f6"/><circle cx="731.4" cy="203.0" r="3" fill="#3b82f6"/><circle cx="745.7" cy="203.3" r="3" fill="#3b82f6"/><circle cx="760.0" cy="203.7" r="3" fill="#3b82f6"/><circle cx="774.3" cy="204.1" r="3" fill="#3b82f6"/><circle cx="788.6" cy="204.4" r="3" fill="#3b82f6"/><circle cx="802.9" cy="204.8" r="3" fill="#3b82f6"/><circle cx="817.1" cy="205.2" r="3" fill="#3b82f6"/><circle cx="831.4" cy="205.5" r="3" fill="#3b82f6"/><circle cx="845.7" cy="205.9" r="3" fill="#3b82f6"/><circle cx="860.0" cy="206.3" r="3" fill="#3b82f6"/>

  <!-- X ekseni -->
  <text x="60.0" y="380" text-anchor="middle" font-size="10" fill="#888">14.05.2026</text>
  <text x="188.6" y="380" text-anchor="middle" font-size="10" fill="#888">23.05.2026</text>
  <text x="317.1" y="380" text-anchor="middle" font-size="10" fill="#888">01.06.2026</text>
  <text x="445.7" y="380" text-anchor="middle" font-size="10" fill="#888">10.06.2026</text>
  <text x="574.3" y="380" text-anchor="middle" font-size="10" fill="#888">19.06.2026</text>
  <text x="702.9" y="380" text-anchor="middle" font-size="10" fill="#888">28.06.2026</text>
  <text x="831.4" y="380" text-anchor="middle" font-size="10" fill="#888">07.07.2026</text>

  <!-- Legend -->
  <g transform="translate(60, 345)">
    <rect x="0" y="0" width="12" height="12" fill="#22c55e" rx="2"/>
    <text x="18" y="10" font-size="11" fill="#c9d1d9">Toplam Doluluk</text>
    <rect x="140" y="0" width="12" height="12" fill="#3b82f6" rx="2"/>
    <text x="158" y="10" font-size="11" fill="#c9d1d9">Aktif Doluluk</text>
  </g>
</svg>