<svg xmlns="http://www.w3.org/2000/svg" viewBox="0 0 900 400" width="100%" style="max-width:900px;">
  <rect width="900" height="400" fill="#0d1117" rx="6"/>
  <text x="450.0" y="25" text-anchor="middle" font-size="16" font-weight="bold" fill="#c9d1d9">Son 180 Gün - Günlük Ortalama</text>

  <!-- Y grid -->
  <line x1="60" y1="320.0" x2="860" y2="320.0" stroke="#333" stroke-width="1" stroke-dasharray="4,4" opacity="0.5"/>
  <text x="50" y="320.0" text-anchor="end" dominant-baseline="middle" font-size="10" fill="#888">0%</text>
  <line x1="60" y1="264.0" x2="860" y2="264.0" stroke="#333" stroke-width="1" stroke-dasharray="4,4" opacity="0.5"/>
  <text x="50" y="264.0" text-anchor="end" dominant-baseline="middle" font-size="10" fill="#888">20%</text>
  <line x1="60" y1="208.0" x2="860" y2="208.0" stroke="#333" stroke-width="1" stroke-dasharray="4,4" opacity="0.5"/>
  <text x="50" y="208.0" text-anchor="end" dominant-baseline="middle" font-size="10" fill="#888">40%</text>
  <line x1="60" y1="152.0" x2="860" y2="152.0" stroke="#333" stroke-width="1" stroke-dasharray="4,4" opacity="0.5"/>
  <text x="50" y="152.0" text-anchor="end" dominant-baseline="middle" font-size="10" fill="#888">60%</text>
  <line x1="60" y1="96.0" x2="860" y2="96.0" stroke="#333" stroke-width="1" stroke-dasharray="4,4" opacity="0.5"/>
  <text x="50" y="96.0" text-anchor="end" dominant-baseline="middle" font-size="10" fill="#888">80%</text>
  <line x1="60" y1="40.0" x2="860" y2="40.0" stroke="#333" stroke-width="1" stroke-dasharray="4,4" opacity="0.5"/>
  <text x="50" y="40.0" text-anchor="end" dominant-baseline="middle" font-size="10" fill="#888">100%</text>

  <!-- Referans çizgileri -->
  <line x1="60" y1="236.0" x2="860" y2="236.0" stroke="#ef4444" stroke-width="1" stroke-dasharray="2,2" opacity="0.7"/>
  <text x="845" y="236.0" dominant-baseline="middle" font-size="9" fill="#ef4444">Kritik (30%)</text>
  <line x1="60" y1="180.0" x2="860" y2="180.0" stroke="#eab308" stroke-width="1" stroke-dasharray="2,2" opacity="0.7"/>
  <text x="845" y="180.0" dominant-baseline="middle" font-size="9" fill="#eab308">Normal (50%)</text>

  <!-- Toplam doluluk -->
  <polyline points="60.0,193.2 86.7,192.5 113.3,192.0 140.0,191.6 166.7,191.1 193.3,190.8 220.0,190.4 246.7,190.1 273.3,189.6 300.0,188.8 326.7,187.8 353.3,187.0 380.0,186.2 406.7,185.6 433.3,185.0 460.0,184.3 486.7,183.6 513.3,183.2 540.0,182.9 566.7,182.7 593.3,182.7 620.0,182.4 646.7,182.3 673.3,182.3 700.0,182.2 726.7,182.2 753.3,182.2 780.0,182.2 806.7,182.3 833.3,182.4 860.0,182.5" fill="none" stroke="#22c55e" stroke-width="2.5" stroke-linecap="round" stroke-linejoin="round"/>
  <polyline points="60.0,193.2 86.7,192.5 113.3,192.0 140.0,191.6 166.7,191.1 193.3,190.8 220.0,190.4 246.7,190.1 273.3,189.6 300.0,188.8 326.7,187.8 353.3,187.0 380.0,186.2 406.7,185.6 433.3,185.0 460.0,184.3 486.7,183.6 513.3,183.2 540.0,182.9 566.7,182.7 593.3,182.7 620.0,182.4 646.7,182.3 673.3,182.3 700.0,182.2 726.7,182.2 753.3,182.2 780.0,182.2 806.7,182.3 833.3,182.4 860.0,182.5" fill="none" stroke="#22c55e" stroke-width="5" opacity="0.1" stroke-linecap="round" stroke-linejoin="round"/>

  <!-- Aktif doluluk -->
  <polyline points="60.0,211.1 86.7,210.2 113.3,209.7 140.0,209.2 166.7,208.7 193.3,208.3 220.0,207.9 246.7,207.5 273.3,207.0 300.0,206.2 326.7,205.0 353.3,204.1 380.0,203.2 406.7,202.5 433.3,201.9 460.0,201.0 486.7,200.3 513.3,199.9 540.0,199.6 566.7,199.4 593.3,199.3 620.0,199.0 646.7,198.9 673.3,198.9 700.0,198.7 726.7,198.7 753.3,198.8 780.0,198.8 806.7,198.8 833.3,198.9 860.0,199.0" fill="none" stroke="#3b82f6" stroke-width="2.5" stroke-linecap="round" stroke-linejoin="round"/>
  <polyline points="60.0,211.1 86.7,210.2 113.3,209.7 140.0,209.2 166.7,208.7 193.3,208.3 220.0,207.9 246.7,207.5 273.3,207.0 300.0,206.2 326.7,205.0 353.3,204.1 380.0,203.2 406.7,202.5 433.3,201.9 460.0,201.0 486.7,200.3 513.3,199.9 540.0,199.6 566.7,199.4 593.3,199.3 620.0,199.0 646.7,198.9 673.3,198.9 700.0,198.7 726.7,198.7 753.3,198.8 780.0,198.8 806.7,198.8 833.3,198.9 860.0,199.0" fill="none" stroke="#3b82f6" stroke-width="5" opacity="0.1" stroke-linecap="round" stroke-linejoin="round"/>

  <!-- Noktalar -->
  <circle cx="60.0" cy="193.2" r="3" fill="#22c55e"/><circle cx="86.7" cy="192.5" r="3" fill="#22c55e"/><circle cx="113.3" cy="192.0" r="3" fill="#22c55e"/><circle cx="140.0" cy="191.6" r="3" fill="#22c55e"/><circle cx="166.7" cy="191.1" r="3" fill="#22c55e"/><circle cx="193.3" cy="190.8" r="3" fill="#22c55e"/><circle cx="220.0" cy="190.4" r="3" fill="#22c55e"/><circle cx="246.7" cy="190.1" r="3" fill="#22c55e"/><circle cx="273.3" cy="189.6" r="3" fill="#22c55e"/><circle cx="300.0" cy="188.8" r="3" fill="#22c55e"/><circle cx="326.7" cy="187.8" r="3" fill="#22c55e"/><circle cx="353.3" cy="187.0" r="3" fill="#22c55e"/><circle cx="380.0" cy="186.2" r="3" fill="#22c55e"/><circle cx="406.7" cy="185.6" r="3" fill="#22c55e"/><circle cx="433.3" cy="185.0" r="3" fill="#22c55e"/><circle cx="460.0" cy="184.3" r="3" fill="#22c55e"/><circle cx="486.7" cy="183.6" r="3" fill="#22c55e"/><circle cx="513.3" cy="183.2" r="3" fill="#22c55e"/><circle cx="540.0" cy="182.9" r="3" fill="#22c55e"/><circle cx="566.7" cy="182.7" r="3" fill="#22c55e"/><circle cx="593.3" cy="182.7" r="3" fill="#22c55e"/><circle cx="620.0" cy="182.4" r="3" fill="#22c55e"/><circle cx="646.7" cy="182.3" r="3" fill="#22c55e"/><circle cx="673.3" cy="182.3" r="3" fill="#22c55e"/><circle cx="700.0" cy="182.2" r="3" fill="#22c55e"/><circle cx="726.7" cy="182.2" r="3" fill="#22c55e"/><circle cx="753.3" cy="182.2" r="3" fill="#22c55e"/><circle cx="780.0" cy="182.2" r="3" fill="#22c55e"/><circle cx="806.7" cy="182.3" r="3" fill="#22c55e"/><circle cx="833.3" cy="182.4" r="3" fill="#22c55e"/><circle cx="860.0" cy="182.5" r="3" fill="#22c55e"/>
  <circle cx="60.0" cy="211.1" r="3" fill="#3b82f6"/><circle cx="86.7" cy="210.2" r="3" fill="#3b82f6"/><circle cx="113.3" cy="209.7" r="3" fill="#3b82f6"/><circle cx="140.0" cy="209.2" r="3" fill="#3b82f6"/><circle cx="166.7" cy="208.7" r="3" fill="#3b82f6"/><circle cx="193.3" cy="208.3" r="3" fill="#3b82f6"/><circle cx="220.0" cy="207.9" r="3" fill="#3b82f6"/><circle cx="246.7" cy="207.5" r="3" fill="#3b82f6"/><circle cx="273.3" cy="207.0" r="3" fill="#3b82f6"/><circle cx="300.0" cy="206.2" r="3" fill="#3b82f6"/><circle cx="326.7" cy="205.0" r="3" fill="#3b82f6"/><circle cx="353.3" cy="204.1" r="3" fill="#3b82f6"/><circle cx="380.0" cy="203.2" r="3" fill="#3b82f6"/><circle cx="406.7" cy="202.5" r="3" fill="#3b82f6"/><circle cx="433.3" cy="201.9" r="3" fill="#3b82f6"/><circle cx="460.0" cy="201.0" r="3" fill="#3b82f6"/><circle cx="486.7" cy="200.3" r="3" fill="#3b82f6"/><circle cx="513.3" cy="199.9" r="3" fill="#3b82f6"/><circle cx="540.0" cy="199.6" r="3" fill="#3b82f6"/><circle cx="566.7" cy="199.4" r="3" fill="#3b82f6"/><circle cx="593.3" cy="199.3" r="3" fill="#3b82f6"/><circle cx="620.0" cy="199.0" r="3" fill="#3b82f6"/><circle cx="646.7" cy="198.9" r="3" fill="#3b82f6"/><circle cx="673.3" cy="198.9" r="3" fill="#3b82f6"/><circle cx="700.0" cy="198.7" r="3" fill="#3b82f6"/><circle cx="726.7" cy="198.7" r="3" fill="#3b82f6"/><circle cx="753.3" cy="198.8" r="3" fill="#3b82f6"/><circle cx="780.0" cy="198.8" r="3" fill="#3b82f6"/><circle cx="806.7" cy="198.8" r="3" fill="#3b82f6"/><circle cx="833.3" cy="198.9" r="3" fill="#3b82f6"/><circle cx="860.0" cy="199.0" r="3" fill="#3b82f6"/>

  <!-- X ekseni -->
  <text x="60.0" y="380" text-anchor="middle" font-size="10" fill="#888">14.05.2026</text>
  <text x="193.3" y="380" text-anchor="middle" font-size="10" fill="#888">19.05.2026</text>
  <text x="326.7" y="380" text-anchor="middle" font-size="10" fill="#888">24.05.2026</text>
  <text x="460.0" y="380" text-anchor="middle" font-size="10" fill="#888">29.05.2026</text>
  <text x="593.3" y="380" text-anchor="middle" font-size="10" fill="#888">03.06.2026</text>
  <text x="726.7" y="380" text-anchor="middle" font-size="10" fill="#888">08.06.2026</text>
  <text x="860.0" y="380" text-anchor="middle" font-size="10" fill="#888">13.06.2026</text>

  <!-- Legend -->
  <g transform="translate(60, 345)">
    <rect x="0" y="0" width="12" height="12" fill="#22c55e" rx="2"/>
    <text x="18" y="10" font-size="11" fill="#c9d1d9">Toplam Doluluk</text>
    <rect x="140" y="0" width="12" height="12" fill="#3b82f6" rx="2"/>
    <text x="158" y="10" font-size="11" fill="#c9d1d9">Aktif Doluluk</text>
  </g>
</svg>