<svg xmlns="http://www.w3.org/2000/svg" viewBox="0 0 800 400" width="100%" style="max-width:800px;">
  <rect width="800" height="400" fill="#0d1117" rx="6"/>
  <text x="400.0" y="25" text-anchor="middle" font-size="16" font-weight="bold" fill="#c9d1d9">Son 90 Gün - Günlük Ortalama</text>

  <!-- Y grid -->
  <line x1="60" y1="320.0" x2="760" y2="320.0" stroke="#333" stroke-width="1" stroke-dasharray="4,4" opacity="0.5"/>
  <text x="50" y="320.0" text-anchor="end" dominant-baseline="middle" font-size="10" fill="#888">0%</text>
  <line x1="60" y1="264.0" x2="760" y2="264.0" stroke="#333" stroke-width="1" stroke-dasharray="4,4" opacity="0.5"/>
  <text x="50" y="264.0" text-anchor="end" dominant-baseline="middle" font-size="10" fill="#888">20%</text>
  <line x1="60" y1="208.0" x2="760" y2="208.0" stroke="#333" stroke-width="1" stroke-dasharray="4,4" opacity="0.5"/>
  <text x="50" y="208.0" text-anchor="end" dominant-baseline="middle" font-size="10" fill="#888">40%</text>
  <line x1="60" y1="152.0" x2="760" y2="152.0" stroke="#333" stroke-width="1" stroke-dasharray="4,4" opacity="0.5"/>
  <text x="50" y="152.0" text-anchor="end" dominant-baseline="middle" font-size="10" fill="#888">60%</text>
  <line x1="60" y1="96.0" x2="760" y2="96.0" stroke="#333" stroke-width="1" stroke-dasharray="4,4" opacity="0.5"/>
  <text x="50" y="96.0" text-anchor="end" dominant-baseline="middle" font-size="10" fill="#888">80%</text>
  <line x1="60" y1="40.0" x2="760" y2="40.0" stroke="#333" stroke-width="1" stroke-dasharray="4,4" opacity="0.5"/>
  <text x="50" y="40.0" text-anchor="end" dominant-baseline="middle" font-size="10" fill="#888">100%</text>

  <!-- Referans çizgileri -->
  <line x1="60" y1="236.0" x2="760" y2="236.0" stroke="#ef4444" stroke-width="1" stroke-dasharray="2,2" opacity="0.7"/>
  <text x="745" y="236.0" dominant-baseline="middle" font-size="9" fill="#ef4444">Kritik (30%)</text>
  <line x1="60" y1="180.0" x2="760" y2="180.0" stroke="#eab308" stroke-width="1" stroke-dasharray="2,2" opacity="0.7"/>
  <text x="745" y="180.0" dominant-baseline="middle" font-size="9" fill="#eab308">Normal (50%)</text>

  <!-- Toplam doluluk -->
  <polyline points="60.0,193.2 72.5,192.5 85.0,192.0 97.5,191.6 110.0,191.1 122.5,190.8 135.0,190.4 147.5,190.1 160.0,189.6 172.5,188.8 185.0,187.8 197.5,187.0 210.0,186.2 222.5,185.6 235.0,185.0 247.5,184.3 260.0,183.6 272.5,183.2 285.0,182.9 297.5,182.7 310.0,182.7 322.5,182.4 335.0,182.3 347.5,182.3 360.0,182.2 372.5,182.2 385.0,182.2 397.5,182.2 410.0,182.3 422.5,182.4 435.0,182.5 447.5,182.6 460.0,182.7 472.5,182.9 485.0,183.1 497.5,183.2 510.0,183.3 522.5,183.4 535.0,183.5 547.5,183.7 560.0,183.9 572.5,184.2 585.0,184.4 597.5,184.7 610.0,185.0 622.5,185.3 635.0,185.6 647.5,186.0 660.0,186.3 672.5,186.6 685.0,187.0 697.5,187.3 710.0,187.6 722.5,188.0 735.0,188.3 747.5,188.6 760.0,189.0" fill="none" stroke="#22c55e" stroke-width="2.5" stroke-linecap="round" stroke-linejoin="round"/>
  <polyline points="60.0,193.2 72.5,192.5 85.0,192.0 97.5,191.6 110.0,191.1 122.5,190.8 135.0,190.4 147.5,190.1 160.0,189.6 172.5,188.8 185.0,187.8 197.5,187.0 210.0,186.2 222.5,185.6 235.0,185.0 247.5,184.3 260.0,183.6 272.5,183.2 285.0,182.9 297.5,182.7 310.0,182.7 322.5,182.4 335.0,182.3 347.5,182.3 360.0,182.2 372.5,182.2 385.0,182.2 397.5,182.2 410.0,182.3 422.5,182.4 435.0,182.5 447.5,182.6 460.0,182.7 472.5,182.9 485.0,183.1 497.5,183.2 510.0,183.3 522.5,183.4 535.0,183.5 547.5,183.7 560.0,183.9 572.5,184.2 585.0,184.4 597.5,184.7 610.0,185.0 622.5,185.3 635.0,185.6 647.5,186.0 660.0,186.3 672.5,186.6 685.0,187.0 697.5,187.3 710.0,187.6 722.5,188.0 735.0,188.3 747.5,188.6 760.0,189.0" fill="none" stroke="#22c55e" stroke-width="5" opacity="0.1" stroke-linecap="round" stroke-linejoin="round"/>

  <!-- Aktif doluluk -->
  <polyline points="60.0,211.1 72.5,210.2 85.0,209.7 97.5,209.2 110.0,208.7 122.5,208.3 135.0,207.9 147.5,207.5 160.0,207.0 172.5,206.2 185.0,205.0 197.5,204.1 210.0,203.2 222.5,202.5 235.0,201.9 247.5,201.0 260.0,200.3 272.5,199.9 285.0,199.6 297.5,199.4 310.0,199.3 322.5,199.0 335.0,198.9 347.5,198.9 360.0,198.7 372.5,198.7 385.0,198.8 397.5,198.8 410.0,198.8 422.5,198.9 435.0,199.0 447.5,199.2 460.0,199.4 472.5,199.5 485.0,199.7 497.5,199.8 510.0,200.0 522.5,200.1 535.0,200.2 547.5,200.4 560.0,200.7 572.5,201.0 585.0,201.3 597.5,201.6 610.0,201.8 622.5,202.2 635.0,202.6 647.5,203.0 660.0,203.3 672.5,203.7 685.0,204.1 697.5,204.4 710.0,204.8 722.5,205.2 735.0,205.5 747.5,205.9 760.0,206.3" fill="none" stroke="#3b82f6" stroke-width="2.5" stroke-linecap="round" stroke-linejoin="round"/>
  <polyline points="60.0,211.1 72.5,210.2 85.0,209.7 97.5,209.2 110.0,208.7 122.5,208.3 135.0,207.9 147.5,207.5 160.0,207.0 172.5,206.2 185.0,205.0 197.5,204.1 210.0,203.2 222.5,202.5 235.0,201.9 247.5,201.0 260.0,200.3 272.5,199.9 285.0,199.6 297.5,199.4 310.0,199.3 322.5,199.0 335.0,198.9 347.5,198.9 360.0,198.7 372.5,198.7 385.0,198.8 397.5,198.8 410.0,198.8 422.5,198.9 435.0,199.0 447.5,199.2 460.0,199.4 472.5,199.5 485.0,199.7 497.5,199.8 510.0,200.0 522.5,200.1 535.0,200.2 547.5,200.4 560.0,200.7 572.5,201.0 585.0,201.3 597.5,201.6 610.0,201.8 622.5,202.2 635.0,202.6 647.5,203.0 660.0,203.3 672.5,203.7 685.0,204.1 697.5,204.4 710.0,204.8 722.5,205.2 735.0,205.5 747.5,205.9 760.0,206.3" fill="none" stroke="#3b82f6" stroke-width="5" opacity="0.1" stroke-linecap="round" stroke-linejoin="round"/>

  <!-- Noktalar -->
  <circle cx="60.0" cy="193.2" r="3" fill="#22c55e"/><circle cx="72.5" cy="192.5" r="3" fill="#22c55e"/><circle cx="85.0" cy="192.0" r="3" fill="#22c55e"/><circle cx="97.5" cy="191.6" r="3" fill="#22c55e"/><circle cx="110.0" cy="191.1" r="3" fill="#22c55e"/><circle cx="122.5" cy="190.8" r="3" fill="#22c55e"/><circle cx="135.0" cy="190.4" r="3" fill="#22c55e"/><circle cx="147.5" cy="190.1" r="3" fill="#22c55e"/><circle cx="160.0" cy="189.6" r="3" fill="#22c55e"/><circle cx="172.5" cy="188.8" r="3" fill="#22c55e"/><circle cx="185.0" cy="187.8" r="3" fill="#22c55e"/><circle cx="197.5" cy="187.0" r="3" fill="#22c55e"/><circle cx="210.0" cy="186.2" r="3" fill="#22c55e"/><circle cx="222.5" cy="185.6" r="3" fill="#22c55e"/><circle cx="235.0" cy="185.0" r="3" fill="#22c55e"/><circle cx="247.5" cy="184.3" r="3" fill="#22c55e"/><circle cx="260.0" cy="183.6" r="3" fill="#22c55e"/><circle cx="272.5" cy="183.2" r="3" fill="#22c55e"/><circle cx="285.0" cy="182.9" r="3" fill="#22c55e"/><circle cx="297.5" cy="182.7" r="3" fill="#22c55e"/><circle cx="310.0" cy="182.7" r="3" fill="#22c55e"/><circle cx="322.5" cy="182.4" r="3" fill="#22c55e"/><circle cx="335.0" cy="182.3" r="3" fill="#22c55e"/><circle cx="347.5" cy="182.3" r="3" fill="#22c55e"/><circle cx="360.0" cy="182.2" r="3" fill="#22c55e"/><circle cx="372.5" cy="182.2" r="3" fill="#22c55e"/><circle cx="385.0" cy="182.2" r="3" fill="#22c55e"/><circle cx="397.5" cy="182.2" r="3" fill="#22c55e"/><circle cx="410.0" cy="182.3" r="3" fill="#22c55e"/><circle cx="422.5" cy="182.4" r="3" fill="#22c55e"/><circle cx="435.0" cy="182.5" r="3" fill="#22c55e"/><circle cx="447.5" cy="182.6" r="3" fill="#22c55e"/><circle cx="460.0" cy="182.7" r="3" fill="#22c55e"/><circle cx="472.5" cy="182.9" r="3" fill="#22c55e"/><circle cx="485.0" cy="183.1" r="3" fill="#22c55e"/><circle cx="497.5" cy="183.2" r="3" fill="#22c55e"/><circle cx="510.0" cy="183.3" r="3" fill="#22c55e"/><circle cx="522.5" cy="183.4" r="3" fill="#22c55e"/><circle cx="535.0" cy="183.5" r="3" fill="#22c55e"/><circle cx="547.5" cy="183.7" r="3" fill="#22c55e"/><circle cx="560.0" cy="183.9" r="3" fill="#22c55e"/><circle cx="572.5" cy="184.2" r="3" fill="#22c55e"/><circle cx="585.0" cy="184.4" r="3" fill="#22c55e"/><circle cx="597.5" cy="184.7" r="3" fill="#22c55e"/><circle cx="610.0" cy="185.0" r="3" fill="#22c55e"/><circle cx="622.5" cy="185.3" r="3" fill="#22c55e"/><circle cx="635.0" cy="185.6" r="3" fill="#22c55e"/><circle cx="647.5" cy="186.0" r="3" fill="#22c55e"/><circle cx="660.0" cy="186.3" r="3" fill="#22c55e"/><circle cx="672.5" cy="186.6" r="3" fill="#22c55e"/><circle cx="685.0" cy="187.0" r="3" fill="#22c55e"/><circle cx="697.5" cy="187.3" r="3" fill="#22c55e"/><circle cx="710.0" cy="187.6" r="3" fill="#22c55e"/><circle cx="722.5" cy="188.0" r="3" fill="#22c55e"/><circle cx="735.0" cy="188.3" r="3" fill="#22c55e"/><circle cx="747.5" cy="188.6" r="3" fill="#22c55e"/><circle cx="760.0" cy="189.0" r="3" fill="#22c55e"/>
  <circle cx="60.0" cy="211.1" r="3" fill="#3b82f6"/><circle cx="72.5" cy="210.2" r="3" fill="#3b82f6"/><circle cx="85.0" cy="209.7" r="3" fill="#3b82f6"/><circle cx="97.5" cy="209.2" r="3" fill="#3b82f6"/><circle cx="110.0" cy="208.7" r="3" fill="#3b82f6"/><circle cx="122.5" cy="208.3" r="3" fill="#3b82f6"/><circle cx="135.0" cy="207.9" r="3" fill="#3b82f6"/><circle cx="147.5" cy="207.5" r="3" fill="#3b82f6"/><circle cx="160.0" cy="207.0" r="3" fill="#3b82f6"/><circle cx="172.5" cy="206.2" r="3" fill="#3b82f6"/><circle cx="185.0" cy="205.0" r="3" fill="#3b82f6"/><circle cx="197.5" cy="204.1" r="3" fill="#3b82f6"/><circle cx="210.0" cy="203.2" r="3" fill="#3b82f6"/><circle cx="222.5" cy="202.5" r="3" fill="#3b82f6"/><circle cx="235.0" cy="201.9" r="3" fill="#3b82f6"/><circle cx="247.5" cy="201.0" r="3" fill="#3b82f6"/><circle cx="260.0" cy="200.3" r="3" fill="#3b82f6"/><circle cx="272.5" cy="199.9" r="3" fill="#3b82f6"/><circle cx="285.0" cy="199.6" r="3" fill="#3b82f6"/><circle cx="297.5" cy="199.4" r="3" fill="#3b82f6"/><circle cx="310.0" cy="199.3" r="3" fill="#3b82f6"/><circle cx="322.5" cy="199.0" r="3" fill="#3b82f6"/><circle cx="335.0" cy="198.9" r="3" fill="#3b82f6"/><circle cx="347.5" cy="198.9" r="3" fill="#3b82f6"/><circle cx="360.0" cy="198.7" r="3" fill="#3b82f6"/><circle cx="372.5" cy="198.7" r="3" fill="#3b82f6"/><circle cx="385.0" cy="198.8" r="3" fill="#3b82f6"/><circle cx="397.5" cy="198.8" r="3" fill="#3b82f6"/><circle cx="410.0" cy="198.8" r="3" fill="#3b82f6"/><circle cx="422.5" cy="198.9" r="3" fill="#3b82f6"/><circle cx="435.0" cy="199.0" r="3" fill="#3b82f6"/><circle cx="447.5" cy="199.2" r="3" fill="#3b82f6"/><circle cx="460.0" cy="199.4" r="3" fill="#3b82f6"/><circle cx="472.5" cy="199.5" r="3" fill="#3b82f6"/><circle cx="485.0" cy="199.7" r="3" fill="#3b82f6"/><circle cx="497.5" cy="199.8" r="3" fill="#3b82f6"/><circle cx="510.0" cy="200.0" r="3" fill="#3b82f6"/><circle cx="522.5" cy="200.1" r="3" fill="#3b82f6"/><circle cx="535.0" cy="200.2" r="3" fill="#3b82f6"/><circle cx="547.5" cy="200.4" r="3" fill="#3b82f6"/><circle cx="560.0" cy="200.7" r="3" fill="#3b82f6"/><circle cx="572.5" cy="201.0" r="3" fill="#3b82f6"/><circle cx="585.0" cy="201.3" r="3" fill="#3b82f6"/><circle cx="597.5" cy="201.6" r="3" fill="#3b82f6"/><circle cx="610.0" cy="201.8" r="3" fill="#3b82f6"/><circle cx="622.5" cy="202.2" r="3" fill="#3b82f6"/><circle cx="635.0" cy="202.6" r="3" fill="#3b82f6"/><circle cx="647.5" cy="203.0" r="3" fill="#3b82f6"/><circle cx="660.0" cy="203.3" r="3" fill="#3b82f6"/><circle cx="672.5" cy="203.7" r="3" fill="#3b82f6"/><circle cx="685.0" cy="204.1" r="3" fill="#3b82f6"/><circle cx="697.5" cy="204.4" r="3" fill="#3b82f6"/><circle cx="710.0" cy="204.8" r="3" fill="#3b82f6"/><circle cx="722.5" cy="205.2" r="3" fill="#3b82f6"/><circle cx="735.0" cy="205.5" r="3" fill="#3b82f6"/><circle cx="747.5" cy="205.9" r="3" fill="#3b82f6"/><circle cx="760.0" cy="206.3" r="3" fill="#3b82f6"/>

  <!-- X ekseni -->
  <text x="60.0" y="380" text-anchor="middle" font-size="10" fill="#888">14.05.2026</text>
  <text x="172.5" y="380" text-anchor="middle" font-size="10" fill="#888">23.05.2026</text>
  <text x="285.0" y="380" text-anchor="middle" font-size="10" fill="#888">01.06.2026</text>
  <text x="397.5" y="380" text-anchor="middle" font-size="10" fill="#888">10.06.2026</text>
  <text x="510.0" y="380" text-anchor="middle" font-size="10" fill="#888">19.06.2026</text>
  <text x="622.5" y="380" text-anchor="middle" font-size="10" fill="#888">28.06.2026</text>
  <text x="735.0" y="380" text-anchor="middle" font-size="10" fill="#888">07.07.2026</text>

  <!-- Legend -->
  <g transform="translate(60, 345)">
    <rect x="0" y="0" width="12" height="12" fill="#22c55e" rx="2"/>
    <text x="18" y="10" font-size="11" fill="#c9d1d9">Toplam Doluluk</text>
    <rect x="140" y="0" width="12" height="12" fill="#3b82f6" rx="2"/>
    <text x="158" y="10" font-size="11" fill="#c9d1d9">Aktif Doluluk</text>
  </g>
</svg>