<svg xmlns="http://www.w3.org/2000/svg" viewBox="0 0 800 400" width="100%" style="max-width:800px;">
  <rect width="800" height="400" fill="#0d1117" rx="6"/>
  <text x="400.0" y="25" text-anchor="middle" font-size="16" font-weight="bold" fill="#c9d1d9">Son 90 Gün - Günlük Ortalama</text>

  <!-- Y grid -->
  <line x1="60" y1="320.0" x2="760" y2="320.0" stroke="#333" stroke-width="1" stroke-dasharray="4,4" opacity="0.5"/>
  <text x="50" y="320.0" text-anchor="end" dominant-baseline="middle" font-size="10" fill="#888">0%</text>
  <line x1="60" y1="264.0" x2="760" y2="264.0" stroke="#333" stroke-width="1" stroke-dasharray="4,4" opacity="0.5"/>
  <text x="50" y="264.0" text-anchor="end" dominant-baseline="middle" font-size="10" fill="#888">20%</text>
  <line x1="60" y1="208.0" x2="760" y2="208.0" stroke="#333" stroke-width="1" stroke-dasharray="4,4" opacity="0.5"/>
  <text x="50" y="208.0" text-anchor="end" dominant-baseline="middle" font-size="10" fill="#888">40%</text>
  <line x1="60" y1="152.0" x2="760" y2="152.0" stroke="#333" stroke-width="1" stroke-dasharray="4,4" opacity="0.5"/>
  <text x="50" y="152.0" text-anchor="end" dominant-baseline="middle" font-size="10" fill="#888">60%</text>
  <line x1="60" y1="96.0" x2="760" y2="96.0" stroke="#333" stroke-width="1" stroke-dasharray="4,4" opacity="0.5"/>
  <text x="50" y="96.0" text-anchor="end" dominant-baseline="middle" font-size="10" fill="#888">80%</text>
  <line x1="60" y1="40.0" x2="760" y2="40.0" stroke="#333" stroke-width="1" stroke-dasharray="4,4" opacity="0.5"/>
  <text x="50" y="40.0" text-anchor="end" dominant-baseline="middle" font-size="10" fill="#888">100%</text>

  <!-- Referans çizgileri -->
  <line x1="60" y1="236.0" x2="760" y2="236.0" stroke="#ef4444" stroke-width="1" stroke-dasharray="2,2" opacity="0.7"/>
  <text x="745" y="236.0" dominant-baseline="middle" font-size="9" fill="#ef4444">Kritik (30%)</text>
  <line x1="60" y1="180.0" x2="760" y2="180.0" stroke="#eab308" stroke-width="1" stroke-dasharray="2,2" opacity="0.7"/>
  <text x="745" y="180.0" dominant-baseline="middle" font-size="9" fill="#eab308">Normal (50%)</text>

  <!-- Toplam doluluk -->
  <polyline points="60.0,193.2 71.1,192.5 82.2,192.0 93.3,191.6 104.4,191.1 115.6,190.8 126.7,190.4 137.8,190.1 148.9,189.6 160.0,188.8 171.1,187.8 182.2,187.0 193.3,186.2 204.4,185.6 215.6,185.0 226.7,184.3 237.8,183.6 248.9,183.2 260.0,182.9 271.1,182.7 282.2,182.7 293.3,182.4 304.4,182.3 315.6,182.3 326.7,182.2 337.8,182.2 348.9,182.2 360.0,182.2 371.1,182.3 382.2,182.4 393.3,182.5 404.4,182.6 415.6,182.7 426.7,182.9 437.8,183.1 448.9,183.2 460.0,183.3 471.1,183.4 482.2,183.5 493.3,183.7 504.4,183.9 515.6,184.2 526.7,184.4 537.8,184.7 548.9,185.0 560.0,185.3 571.1,185.6 582.2,186.0 593.3,186.3 604.4,186.6 615.6,187.0 626.7,187.3 637.8,187.6 648.9,188.0 660.0,188.3 671.1,188.6 682.2,189.0 693.3,189.3 704.4,189.6 715.6,189.9 726.7,190.2 737.8,190.5 748.9,190.8 760.0,191.1" fill="none" stroke="#22c55e" stroke-width="2.5" stroke-linecap="round" stroke-linejoin="round"/>
  <polyline points="60.0,193.2 71.1,192.5 82.2,192.0 93.3,191.6 104.4,191.1 115.6,190.8 126.7,190.4 137.8,190.1 148.9,189.6 160.0,188.8 171.1,187.8 182.2,187.0 193.3,186.2 204.4,185.6 215.6,185.0 226.7,184.3 237.8,183.6 248.9,183.2 260.0,182.9 271.1,182.7 282.2,182.7 293.3,182.4 304.4,182.3 315.6,182.3 326.7,182.2 337.8,182.2 348.9,182.2 360.0,182.2 371.1,182.3 382.2,182.4 393.3,182.5 404.4,182.6 415.6,182.7 426.7,182.9 437.8,183.1 448.9,183.2 460.0,183.3 471.1,183.4 482.2,183.5 493.3,183.7 504.4,183.9 515.6,184.2 526.7,184.4 537.8,184.7 548.9,185.0 560.0,185.3 571.1,185.6 582.2,186.0 593.3,186.3 604.4,186.6 615.6,187.0 626.7,187.3 637.8,187.6 648.9,188.0 660.0,188.3 671.1,188.6 682.2,189.0 693.3,189.3 704.4,189.6 715.6,189.9 726.7,190.2 737.8,190.5 748.9,190.8 760.0,191.1" fill="none" stroke="#22c55e" stroke-width="5" opacity="0.1" stroke-linecap="round" stroke-linejoin="round"/>

  <!-- Aktif doluluk -->
  <polyline points="60.0,211.1 71.1,210.2 82.2,209.7 93.3,209.2 104.4,208.7 115.6,208.3 126.7,207.9 137.8,207.5 148.9,207.0 160.0,206.2 171.1,205.0 182.2,204.1 193.3,203.2 204.4,202.5 215.6,201.9 226.7,201.0 237.8,200.3 248.9,199.9 260.0,199.6 271.1,199.4 282.2,199.3 293.3,199.0 304.4,198.9 315.6,198.9 326.7,198.7 337.8,198.7 348.9,198.8 360.0,198.8 371.1,198.8 382.2,198.9 393.3,199.0 404.4,199.2 415.6,199.4 426.7,199.5 437.8,199.7 448.9,199.8 460.0,200.0 471.1,200.1 482.2,200.2 493.3,200.4 504.4,200.7 515.6,201.0 526.7,201.3 537.8,201.6 548.9,201.8 560.0,202.2 571.1,202.6 582.2,203.0 593.3,203.3 604.4,203.7 615.6,204.1 626.7,204.4 637.8,204.8 648.9,205.2 660.0,205.5 671.1,205.9 682.2,206.3 693.3,206.7 704.4,207.0 715.6,207.4 726.7,207.7 737.8,208.0 748.9,208.3 760.0,208.7" fill="none" stroke="#3b82f6" stroke-width="2.5" stroke-linecap="round" stroke-linejoin="round"/>
  <polyline points="60.0,211.1 71.1,210.2 82.2,209.7 93.3,209.2 104.4,208.7 115.6,208.3 126.7,207.9 137.8,207.5 148.9,207.0 160.0,206.2 171.1,205.0 182.2,204.1 193.3,203.2 204.4,202.5 215.6,201.9 226.7,201.0 237.8,200.3 248.9,199.9 260.0,199.6 271.1,199.4 282.2,199.3 293.3,199.0 304.4,198.9 315.6,198.9 326.7,198.7 337.8,198.7 348.9,198.8 360.0,198.8 371.1,198.8 382.2,198.9 393.3,199.0 404.4,199.2 415.6,199.4 426.7,199.5 437.8,199.7 448.9,199.8 460.0,200.0 471.1,200.1 482.2,200.2 493.3,200.4 504.4,200.7 515.6,201.0 526.7,201.3 537.8,201.6 548.9,201.8 560.0,202.2 571.1,202.6 582.2,203.0 593.3,203.3 604.4,203.7 615.6,204.1 626.7,204.4 637.8,204.8 648.9,205.2 660.0,205.5 671.1,205.9 682.2,206.3 693.3,206.7 704.4,207.0 715.6,207.4 726.7,207.7 737.8,208.0 748.9,208.3 760.0,208.7" fill="none" stroke="#3b82f6" stroke-width="5" opacity="0.1" stroke-linecap="round" stroke-linejoin="round"/>

  <!-- Noktalar -->
  <circle cx="60.0" cy="193.2" r="3" fill="#22c55e"/><circle cx="71.1" cy="192.5" r="3" fill="#22c55e"/><circle cx="82.2" cy="192.0" r="3" fill="#22c55e"/><circle cx="93.3" cy="191.6" r="3" fill="#22c55e"/><circle cx="104.4" cy="191.1" r="3" fill="#22c55e"/><circle cx="115.6" cy="190.8" r="3" fill="#22c55e"/><circle cx="126.7" cy="190.4" r="3" fill="#22c55e"/><circle cx="137.8" cy="190.1" r="3" fill="#22c55e"/><circle cx="148.9" cy="189.6" r="3" fill="#22c55e"/><circle cx="160.0" cy="188.8" r="3" fill="#22c55e"/><circle cx="171.1" cy="187.8" r="3" fill="#22c55e"/><circle cx="182.2" cy="187.0" r="3" fill="#22c55e"/><circle cx="193.3" cy="186.2" r="3" fill="#22c55e"/><circle cx="204.4" cy="185.6" r="3" fill="#22c55e"/><circle cx="215.6" cy="185.0" r="3" fill="#22c55e"/><circle cx="226.7" cy="184.3" r="3" fill="#22c55e"/><circle cx="237.8" cy="183.6" r="3" fill="#22c55e"/><circle cx="248.9" cy="183.2" r="3" fill="#22c55e"/><circle cx="260.0" cy="182.9" r="3" fill="#22c55e"/><circle cx="271.1" cy="182.7" r="3" fill="#22c55e"/><circle cx="282.2" cy="182.7" r="3" fill="#22c55e"/><circle cx="293.3" cy="182.4" r="3" fill="#22c55e"/><circle cx="304.4" cy="182.3" r="3" fill="#22c55e"/><circle cx="315.6" cy="182.3" r="3" fill="#22c55e"/><circle cx="326.7" cy="182.2" r="3" fill="#22c55e"/><circle cx="337.8" cy="182.2" r="3" fill="#22c55e"/><circle cx="348.9" cy="182.2" r="3" fill="#22c55e"/><circle cx="360.0" cy="182.2" r="3" fill="#22c55e"/><circle cx="371.1" cy="182.3" r="3" fill="#22c55e"/><circle cx="382.2" cy="182.4" r="3" fill="#22c55e"/><circle cx="393.3" cy="182.5" r="3" fill="#22c55e"/><circle cx="404.4" cy="182.6" r="3" fill="#22c55e"/><circle cx="415.6" cy="182.7" r="3" fill="#22c55e"/><circle cx="426.7" cy="182.9" r="3" fill="#22c55e"/><circle cx="437.8" cy="183.1" r="3" fill="#22c55e"/><circle cx="448.9" cy="183.2" r="3" fill="#22c55e"/><circle cx="460.0" cy="183.3" r="3" fill="#22c55e"/><circle cx="471.1" cy="183.4" r="3" fill="#22c55e"/><circle cx="482.2" cy="183.5" r="3" fill="#22c55e"/><circle cx="493.3" cy="183.7" r="3" fill="#22c55e"/><circle cx="504.4" cy="183.9" r="3" fill="#22c55e"/><circle cx="515.6" cy="184.2" r="3" fill="#22c55e"/><circle cx="526.7" cy="184.4" r="3" fill="#22c55e"/><circle cx="537.8" cy="184.7" r="3" fill="#22c55e"/><circle cx="548.9" cy="185.0" r="3" fill="#22c55e"/><circle cx="560.0" cy="185.3" r="3" fill="#22c55e"/><circle cx="571.1" cy="185.6" r="3" fill="#22c55e"/><circle cx="582.2" cy="186.0" r="3" fill="#22c55e"/><circle cx="593.3" cy="186.3" r="3" fill="#22c55e"/><circle cx="604.4" cy="186.6" r="3" fill="#22c55e"/><circle cx="615.6" cy="187.0" r="3" fill="#22c55e"/><circle cx="626.7" cy="187.3" r="3" fill="#22c55e"/><circle cx="637.8" cy="187.6" r="3" fill="#22c55e"/><circle cx="648.9" cy="188.0" r="3" fill="#22c55e"/><circle cx="660.0" cy="188.3" r="3" fill="#22c55e"/><circle cx="671.1" cy="188.6" r="3" fill="#22c55e"/><circle cx="682.2" cy="189.0" r="3" fill="#22c55e"/><circle cx="693.3" cy="189.3" r="3" fill="#22c55e"/><circle cx="704.4" cy="189.6" r="3" fill="#22c55e"/><circle cx="715.6" cy="189.9" r="3" fill="#22c55e"/><circle cx="726.7" cy="190.2" r="3" fill="#22c55e"/><circle cx="737.8" cy="190.5" r="3" fill="#22c55e"/><circle cx="748.9" cy="190.8" r="3" fill="#22c55e"/><circle cx="760.0" cy="191.1" r="3" fill="#22c55e"/>
  <circle cx="60.0" cy="211.1" r="3" fill="#3b82f6"/><circle cx="71.1" cy="210.2" r="3" fill="#3b82f6"/><circle cx="82.2" cy="209.7" r="3" fill="#3b82f6"/><circle cx="93.3" cy="209.2" r="3" fill="#3b82f6"/><circle cx="104.4" cy="208.7" r="3" fill="#3b82f6"/><circle cx="115.6" cy="208.3" r="3" fill="#3b82f6"/><circle cx="126.7" cy="207.9" r="3" fill="#3b82f6"/><circle cx="137.8" cy="207.5" r="3" fill="#3b82f6"/><circle cx="148.9" cy="207.0" r="3" fill="#3b82f6"/><circle cx="160.0" cy="206.2" r="3" fill="#3b82f6"/><circle cx="171.1" cy="205.0" r="3" fill="#3b82f6"/><circle cx="182.2" cy="204.1" r="3" fill="#3b82f6"/><circle cx="193.3" cy="203.2" r="3" fill="#3b82f6"/><circle cx="204.4" cy="202.5" r="3" fill="#3b82f6"/><circle cx="215.6" cy="201.9" r="3" fill="#3b82f6"/><circle cx="226.7" cy="201.0" r="3" fill="#3b82f6"/><circle cx="237.8" cy="200.3" r="3" fill="#3b82f6"/><circle cx="248.9" cy="199.9" r="3" fill="#3b82f6"/><circle cx="260.0" cy="199.6" r="3" fill="#3b82f6"/><circle cx="271.1" cy="199.4" r="3" fill="#3b82f6"/><circle cx="282.2" cy="199.3" r="3" fill="#3b82f6"/><circle cx="293.3" cy="199.0" r="3" fill="#3b82f6"/><circle cx="304.4" cy="198.9" r="3" fill="#3b82f6"/><circle cx="315.6" cy="198.9" r="3" fill="#3b82f6"/><circle cx="326.7" cy="198.7" r="3" fill="#3b82f6"/><circle cx="337.8" cy="198.7" r="3" fill="#3b82f6"/><circle cx="348.9" cy="198.8" r="3" fill="#3b82f6"/><circle cx="360.0" cy="198.8" r="3" fill="#3b82f6"/><circle cx="371.1" cy="198.8" r="3" fill="#3b82f6"/><circle cx="382.2" cy="198.9" r="3" fill="#3b82f6"/><circle cx="393.3" cy="199.0" r="3" fill="#3b82f6"/><circle cx="404.4" cy="199.2" r="3" fill="#3b82f6"/><circle cx="415.6" cy="199.4" r="3" fill="#3b82f6"/><circle cx="426.7" cy="199.5" r="3" fill="#3b82f6"/><circle cx="437.8" cy="199.7" r="3" fill="#3b82f6"/><circle cx="448.9" cy="199.8" r="3" fill="#3b82f6"/><circle cx="460.0" cy="200.0" r="3" fill="#3b82f6"/><circle cx="471.1" cy="200.1" r="3" fill="#3b82f6"/><circle cx="482.2" cy="200.2" r="3" fill="#3b82f6"/><circle cx="493.3" cy="200.4" r="3" fill="#3b82f6"/><circle cx="504.4" cy="200.7" r="3" fill="#3b82f6"/><circle cx="515.6" cy="201.0" r="3" fill="#3b82f6"/><circle cx="526.7" cy="201.3" r="3" fill="#3b82f6"/><circle cx="537.8" cy="201.6" r="3" fill="#3b82f6"/><circle cx="548.9" cy="201.8" r="3" fill="#3b82f6"/><circle cx="560.0" cy="202.2" r="3" fill="#3b82f6"/><circle cx="571.1" cy="202.6" r="3" fill="#3b82f6"/><circle cx="582.2" cy="203.0" r="3" fill="#3b82f6"/><circle cx="593.3" cy="203.3" r="3" fill="#3b82f6"/><circle cx="604.4" cy="203.7" r="3" fill="#3b82f6"/><circle cx="615.6" cy="204.1" r="3" fill="#3b82f6"/><circle cx="626.7" cy="204.4" r="3" fill="#3b82f6"/><circle cx="637.8" cy="204.8" r="3" fill="#3b82f6"/><circle cx="648.9" cy="205.2" r="3" fill="#3b82f6"/><circle cx="660.0" cy="205.5" r="3" fill="#3b82f6"/><circle cx="671.1" cy="205.9" r="3" fill="#3b82f6"/><circle cx="682.2" cy="206.3" r="3" fill="#3b82f6"/><circle cx="693.3" cy="206.7" r="3" fill="#3b82f6"/><circle cx="704.4" cy="207.0" r="3" fill="#3b82f6"/><circle cx="715.6" cy="207.4" r="3" fill="#3b82f6"/><circle cx="726.7" cy="207.7" r="3" fill="#3b82f6"/><circle cx="737.8" cy="208.0" r="3" fill="#3b82f6"/><circle cx="748.9" cy="208.3" r="3" fill="#3b82f6"/><circle cx="760.0" cy="208.7" r="3" fill="#3b82f6"/>

  <!-- X ekseni -->
  <text x="60.0" y="380" text-anchor="middle" font-size="10" fill="#888">14.05.2026</text>
  <text x="171.1" y="380" text-anchor="middle" font-size="10" fill="#888">24.05.2026</text>
  <text x="282.2" y="380" text-anchor="middle" font-size="10" fill="#888">03.06.2026</text>
  <text x="393.3" y="380" text-anchor="middle" font-size="10" fill="#888">13.06.2026</text>
  <text x="504.4" y="380" text-anchor="middle" font-size="10" fill="#888">23.06.2026</text>
  <text x="615.6" y="380" text-anchor="middle" font-size="10" fill="#888">03.07.2026</text>
  <text x="726.7" y="380" text-anchor="middle" font-size="10" fill="#888">13.07.2026</text>

  <!-- Legend -->
  <g transform="translate(60, 345)">
    <rect x="0" y="0" width="12" height="12" fill="#22c55e" rx="2"/>
    <text x="18" y="10" font-size="11" fill="#c9d1d9">Toplam Doluluk</text>
    <rect x="140" y="0" width="12" height="12" fill="#3b82f6" rx="2"/>
    <text x="158" y="10" font-size="11" fill="#c9d1d9">Aktif Doluluk</text>
  </g>
</svg>