<svg xmlns="http://www.w3.org/2000/svg" viewBox="0 0 900 400" width="100%" style="max-width:900px;">
  <rect width="900" height="400" fill="#0d1117" rx="6"/>
  <text x="450.0" y="25" text-anchor="middle" font-size="16" font-weight="bold" fill="#c9d1d9">Son 180 Gün - Günlük Ortalama</text>

  <!-- Y grid -->
  <line x1="60" y1="320.0" x2="860" y2="320.0" stroke="#333" stroke-width="1" stroke-dasharray="4,4" opacity="0.5"/>
  <text x="50" y="320.0" text-anchor="end" dominant-baseline="middle" font-size="10" fill="#888">0%</text>
  <line x1="60" y1="264.0" x2="860" y2="264.0" stroke="#333" stroke-width="1" stroke-dasharray="4,4" opacity="0.5"/>
  <text x="50" y="264.0" text-anchor="end" dominant-baseline="middle" font-size="10" fill="#888">20%</text>
  <line x1="60" y1="208.0" x2="860" y2="208.0" stroke="#333" stroke-width="1" stroke-dasharray="4,4" opacity="0.5"/>
  <text x="50" y="208.0" text-anchor="end" dominant-baseline="middle" font-size="10" fill="#888">40%</text>
  <line x1="60" y1="152.0" x2="860" y2="152.0" stroke="#333" stroke-width="1" stroke-dasharray="4,4" opacity="0.5"/>
  <text x="50" y="152.0" text-anchor="end" dominant-baseline="middle" font-size="10" fill="#888">60%</text>
  <line x1="60" y1="96.0" x2="860" y2="96.0" stroke="#333" stroke-width="1" stroke-dasharray="4,4" opacity="0.5"/>
  <text x="50" y="96.0" text-anchor="end" dominant-baseline="middle" font-size="10" fill="#888">80%</text>
  <line x1="60" y1="40.0" x2="860" y2="40.0" stroke="#333" stroke-width="1" stroke-dasharray="4,4" opacity="0.5"/>
  <text x="50" y="40.0" text-anchor="end" dominant-baseline="middle" font-size="10" fill="#888">100%</text>

  <!-- Referans çizgileri -->
  <line x1="60" y1="236.0" x2="860" y2="236.0" stroke="#ef4444" stroke-width="1" stroke-dasharray="2,2" opacity="0.7"/>
  <text x="845" y="236.0" dominant-baseline="middle" font-size="9" fill="#ef4444">Kritik (30%)</text>
  <line x1="60" y1="180.0" x2="860" y2="180.0" stroke="#eab308" stroke-width="1" stroke-dasharray="2,2" opacity="0.7"/>
  <text x="845" y="180.0" dominant-baseline="middle" font-size="9" fill="#eab308">Normal (50%)</text>

  <!-- Toplam doluluk -->
  <polyline points="60.0,193.2 94.8,192.5 129.6,192.0 164.3,191.6 199.1,191.1 233.9,190.8 268.7,190.4 303.5,190.1 338.3,189.6 373.0,188.8 407.8,187.8 442.6,187.0 477.4,186.2 512.2,185.6 547.0,185.0 581.7,184.3 616.5,183.6 651.3,183.2 686.1,182.9 720.9,182.7 755.7,182.7 790.4,182.4 825.2,182.3 860.0,182.3" fill="none" stroke="#22c55e" stroke-width="2.5" stroke-linecap="round" stroke-linejoin="round"/>
  <polyline points="60.0,193.2 94.8,192.5 129.6,192.0 164.3,191.6 199.1,191.1 233.9,190.8 268.7,190.4 303.5,190.1 338.3,189.6 373.0,188.8 407.8,187.8 442.6,187.0 477.4,186.2 512.2,185.6 547.0,185.0 581.7,184.3 616.5,183.6 651.3,183.2 686.1,182.9 720.9,182.7 755.7,182.7 790.4,182.4 825.2,182.3 860.0,182.3" fill="none" stroke="#22c55e" stroke-width="5" opacity="0.1" stroke-linecap="round" stroke-linejoin="round"/>

  <!-- Aktif doluluk -->
  <polyline points="60.0,211.1 94.8,210.2 129.6,209.7 164.3,209.2 199.1,208.7 233.9,208.3 268.7,207.9 303.5,207.5 338.3,207.0 373.0,206.2 407.8,205.0 442.6,204.1 477.4,203.2 512.2,202.5 547.0,201.9 581.7,201.0 616.5,200.3 651.3,199.9 686.1,199.6 720.9,199.4 755.7,199.3 790.4,199.0 825.2,198.9 860.0,198.9" fill="none" stroke="#3b82f6" stroke-width="2.5" stroke-linecap="round" stroke-linejoin="round"/>
  <polyline points="60.0,211.1 94.8,210.2 129.6,209.7 164.3,209.2 199.1,208.7 233.9,208.3 268.7,207.9 303.5,207.5 338.3,207.0 373.0,206.2 407.8,205.0 442.6,204.1 477.4,203.2 512.2,202.5 547.0,201.9 581.7,201.0 616.5,200.3 651.3,199.9 686.1,199.6 720.9,199.4 755.7,199.3 790.4,199.0 825.2,198.9 860.0,198.9" fill="none" stroke="#3b82f6" stroke-width="5" opacity="0.1" stroke-linecap="round" stroke-linejoin="round"/>

  <!-- Noktalar -->
  <circle cx="60.0" cy="193.2" r="3" fill="#22c55e"/><circle cx="94.8" cy="192.5" r="3" fill="#22c55e"/><circle cx="129.6" cy="192.0" r="3" fill="#22c55e"/><circle cx="164.3" cy="191.6" r="3" fill="#22c55e"/><circle cx="199.1" cy="191.1" r="3" fill="#22c55e"/><circle cx="233.9" cy="190.8" r="3" fill="#22c55e"/><circle cx="268.7" cy="190.4" r="3" fill="#22c55e"/><circle cx="303.5" cy="190.1" r="3" fill="#22c55e"/><circle cx="338.3" cy="189.6" r="3" fill="#22c55e"/><circle cx="373.0" cy="188.8" r="3" fill="#22c55e"/><circle cx="407.8" cy="187.8" r="3" fill="#22c55e"/><circle cx="442.6" cy="187.0" r="3" fill="#22c55e"/><circle cx="477.4" cy="186.2" r="3" fill="#22c55e"/><circle cx="512.2" cy="185.6" r="3" fill="#22c55e"/><circle cx="547.0" cy="185.0" r="3" fill="#22c55e"/><circle cx="581.7" cy="184.3" r="3" fill="#22c55e"/><circle cx="616.5" cy="183.6" r="3" fill="#22c55e"/><circle cx="651.3" cy="183.2" r="3" fill="#22c55e"/><circle cx="686.1" cy="182.9" r="3" fill="#22c55e"/><circle cx="720.9" cy="182.7" r="3" fill="#22c55e"/><circle cx="755.7" cy="182.7" r="3" fill="#22c55e"/><circle cx="790.4" cy="182.4" r="3" fill="#22c55e"/><circle cx="825.2" cy="182.3" r="3" fill="#22c55e"/><circle cx="860.0" cy="182.3" r="3" fill="#22c55e"/>
  <circle cx="60.0" cy="211.1" r="3" fill="#3b82f6"/><circle cx="94.8" cy="210.2" r="3" fill="#3b82f6"/><circle cx="129.6" cy="209.7" r="3" fill="#3b82f6"/><circle cx="164.3" cy="209.2" r="3" fill="#3b82f6"/><circle cx="199.1" cy="208.7" r="3" fill="#3b82f6"/><circle cx="233.9" cy="208.3" r="3" fill="#3b82f6"/><circle cx="268.7" cy="207.9" r="3" fill="#3b82f6"/><circle cx="303.5" cy="207.5" r="3" fill="#3b82f6"/><circle cx="338.3" cy="207.0" r="3" fill="#3b82f6"/><circle cx="373.0" cy="206.2" r="3" fill="#3b82f6"/><circle cx="407.8" cy="205.0" r="3" fill="#3b82f6"/><circle cx="442.6" cy="204.1" r="3" fill="#3b82f6"/><circle cx="477.4" cy="203.2" r="3" fill="#3b82f6"/><circle cx="512.2" cy="202.5" r="3" fill="#3b82f6"/><circle cx="547.0" cy="201.9" r="3" fill="#3b82f6"/><circle cx="581.7" cy="201.0" r="3" fill="#3b82f6"/><circle cx="616.5" cy="200.3" r="3" fill="#3b82f6"/><circle cx="651.3" cy="199.9" r="3" fill="#3b82f6"/><circle cx="686.1" cy="199.6" r="3" fill="#3b82f6"/><circle cx="720.9" cy="199.4" r="3" fill="#3b82f6"/><circle cx="755.7" cy="199.3" r="3" fill="#3b82f6"/><circle cx="790.4" cy="199.0" r="3" fill="#3b82f6"/><circle cx="825.2" cy="198.9" r="3" fill="#3b82f6"/><circle cx="860.0" cy="198.9" r="3" fill="#3b82f6"/>

  <!-- X ekseni -->
  <text x="60.0" y="380" text-anchor="middle" font-size="10" fill="#888">14.05 00:00</text>
  <text x="199.1" y="380" text-anchor="middle" font-size="10" fill="#888">18.05 00:00</text>
  <text x="338.3" y="380" text-anchor="middle" font-size="10" fill="#888">22.05 00:00</text>
  <text x="477.4" y="380" text-anchor="middle" font-size="10" fill="#888">26.05 00:00</text>
  <text x="616.5" y="380" text-anchor="middle" font-size="10" fill="#888">30.05 00:00</text>
  <text x="755.7" y="380" text-anchor="middle" font-size="10" fill="#888">03.06 00:00</text>

  <!-- Legend -->
  <g transform="translate(60, 345)">
    <rect x="0" y="0" width="12" height="12" fill="#22c55e" rx="2"/>
    <text x="18" y="10" font-size="11" fill="#c9d1d9">Toplam Doluluk</text>
    <rect x="140" y="0" width="12" height="12" fill="#3b82f6" rx="2"/>
    <text x="158" y="10" font-size="11" fill="#c9d1d9">Aktif Doluluk</text>
  </g>
</svg>