<svg xmlns="http://www.w3.org/2000/svg" viewBox="0 0 800 400" width="100%" style="max-width:800px;">
  <rect width="800" height="400" fill="#0d1117" rx="6"/>
  <text x="400.0" y="25" text-anchor="middle" font-size="16" font-weight="bold" fill="#c9d1d9">Son 90 Gün - Günlük Ortalama</text>

  <!-- Y grid -->
  <line x1="60" y1="320.0" x2="760" y2="320.0" stroke="#333" stroke-width="1" stroke-dasharray="4,4" opacity="0.5"/>
  <text x="50" y="320.0" text-anchor="end" dominant-baseline="middle" font-size="10" fill="#888">0%</text>
  <line x1="60" y1="264.0" x2="760" y2="264.0" stroke="#333" stroke-width="1" stroke-dasharray="4,4" opacity="0.5"/>
  <text x="50" y="264.0" text-anchor="end" dominant-baseline="middle" font-size="10" fill="#888">20%</text>
  <line x1="60" y1="208.0" x2="760" y2="208.0" stroke="#333" stroke-width="1" stroke-dasharray="4,4" opacity="0.5"/>
  <text x="50" y="208.0" text-anchor="end" dominant-baseline="middle" font-size="10" fill="#888">40%</text>
  <line x1="60" y1="152.0" x2="760" y2="152.0" stroke="#333" stroke-width="1" stroke-dasharray="4,4" opacity="0.5"/>
  <text x="50" y="152.0" text-anchor="end" dominant-baseline="middle" font-size="10" fill="#888">60%</text>
  <line x1="60" y1="96.0" x2="760" y2="96.0" stroke="#333" stroke-width="1" stroke-dasharray="4,4" opacity="0.5"/>
  <text x="50" y="96.0" text-anchor="end" dominant-baseline="middle" font-size="10" fill="#888">80%</text>
  <line x1="60" y1="40.0" x2="760" y2="40.0" stroke="#333" stroke-width="1" stroke-dasharray="4,4" opacity="0.5"/>
  <text x="50" y="40.0" text-anchor="end" dominant-baseline="middle" font-size="10" fill="#888">100%</text>

  <!-- Referans çizgileri -->
  <line x1="60" y1="236.0" x2="760" y2="236.0" stroke="#ef4444" stroke-width="1" stroke-dasharray="2,2" opacity="0.7"/>
  <text x="745" y="236.0" dominant-baseline="middle" font-size="9" fill="#ef4444">Kritik (30%)</text>
  <line x1="60" y1="180.0" x2="760" y2="180.0" stroke="#eab308" stroke-width="1" stroke-dasharray="2,2" opacity="0.7"/>
  <text x="745" y="180.0" dominant-baseline="middle" font-size="9" fill="#eab308">Normal (50%)</text>

  <!-- Toplam doluluk -->
  <polyline points="60.0,193.2 77.9,192.5 95.9,192.0 113.8,191.6 131.8,191.1 149.7,190.8 167.7,190.4 185.6,190.1 203.6,189.6 221.5,188.8 239.5,187.8 257.4,187.0 275.4,186.2 293.3,185.6 311.3,185.0 329.2,184.3 347.2,183.6 365.1,183.2 383.1,182.9 401.0,182.7 419.0,182.7 436.9,182.4 454.9,182.3 472.8,182.3 490.8,182.2 508.7,182.2 526.7,182.2 544.6,182.2 562.6,182.3 580.5,182.4 598.5,182.5 616.4,182.6 634.4,182.7 652.3,182.9 670.3,183.1 688.2,183.2 706.2,183.3 724.1,183.4 742.1,183.5 760.0,183.7" fill="none" stroke="#22c55e" stroke-width="2.5" stroke-linecap="round" stroke-linejoin="round"/>
  <polyline points="60.0,193.2 77.9,192.5 95.9,192.0 113.8,191.6 131.8,191.1 149.7,190.8 167.7,190.4 185.6,190.1 203.6,189.6 221.5,188.8 239.5,187.8 257.4,187.0 275.4,186.2 293.3,185.6 311.3,185.0 329.2,184.3 347.2,183.6 365.1,183.2 383.1,182.9 401.0,182.7 419.0,182.7 436.9,182.4 454.9,182.3 472.8,182.3 490.8,182.2 508.7,182.2 526.7,182.2 544.6,182.2 562.6,182.3 580.5,182.4 598.5,182.5 616.4,182.6 634.4,182.7 652.3,182.9 670.3,183.1 688.2,183.2 706.2,183.3 724.1,183.4 742.1,183.5 760.0,183.7" fill="none" stroke="#22c55e" stroke-width="5" opacity="0.1" stroke-linecap="round" stroke-linejoin="round"/>

  <!-- Aktif doluluk -->
  <polyline points="60.0,211.1 77.9,210.2 95.9,209.7 113.8,209.2 131.8,208.7 149.7,208.3 167.7,207.9 185.6,207.5 203.6,207.0 221.5,206.2 239.5,205.0 257.4,204.1 275.4,203.2 293.3,202.5 311.3,201.9 329.2,201.0 347.2,200.3 365.1,199.9 383.1,199.6 401.0,199.4 419.0,199.3 436.9,199.0 454.9,198.9 472.8,198.9 490.8,198.7 508.7,198.7 526.7,198.8 544.6,198.8 562.6,198.8 580.5,198.9 598.5,199.0 616.4,199.2 634.4,199.4 652.3,199.5 670.3,199.7 688.2,199.8 706.2,200.0 724.1,200.1 742.1,200.2 760.0,200.4" fill="none" stroke="#3b82f6" stroke-width="2.5" stroke-linecap="round" stroke-linejoin="round"/>
  <polyline points="60.0,211.1 77.9,210.2 95.9,209.7 113.8,209.2 131.8,208.7 149.7,208.3 167.7,207.9 185.6,207.5 203.6,207.0 221.5,206.2 239.5,205.0 257.4,204.1 275.4,203.2 293.3,202.5 311.3,201.9 329.2,201.0 347.2,200.3 365.1,199.9 383.1,199.6 401.0,199.4 419.0,199.3 436.9,199.0 454.9,198.9 472.8,198.9 490.8,198.7 508.7,198.7 526.7,198.8 544.6,198.8 562.6,198.8 580.5,198.9 598.5,199.0 616.4,199.2 634.4,199.4 652.3,199.5 670.3,199.7 688.2,199.8 706.2,200.0 724.1,200.1 742.1,200.2 760.0,200.4" fill="none" stroke="#3b82f6" stroke-width="5" opacity="0.1" stroke-linecap="round" stroke-linejoin="round"/>

  <!-- Noktalar -->
  <circle cx="60.0" cy="193.2" r="3" fill="#22c55e"/><circle cx="77.9" cy="192.5" r="3" fill="#22c55e"/><circle cx="95.9" cy="192.0" r="3" fill="#22c55e"/><circle cx="113.8" cy="191.6" r="3" fill="#22c55e"/><circle cx="131.8" cy="191.1" r="3" fill="#22c55e"/><circle cx="149.7" cy="190.8" r="3" fill="#22c55e"/><circle cx="167.7" cy="190.4" r="3" fill="#22c55e"/><circle cx="185.6" cy="190.1" r="3" fill="#22c55e"/><circle cx="203.6" cy="189.6" r="3" fill="#22c55e"/><circle cx="221.5" cy="188.8" r="3" fill="#22c55e"/><circle cx="239.5" cy="187.8" r="3" fill="#22c55e"/><circle cx="257.4" cy="187.0" r="3" fill="#22c55e"/><circle cx="275.4" cy="186.2" r="3" fill="#22c55e"/><circle cx="293.3" cy="185.6" r="3" fill="#22c55e"/><circle cx="311.3" cy="185.0" r="3" fill="#22c55e"/><circle cx="329.2" cy="184.3" r="3" fill="#22c55e"/><circle cx="347.2" cy="183.6" r="3" fill="#22c55e"/><circle cx="365.1" cy="183.2" r="3" fill="#22c55e"/><circle cx="383.1" cy="182.9" r="3" fill="#22c55e"/><circle cx="401.0" cy="182.7" r="3" fill="#22c55e"/><circle cx="419.0" cy="182.7" r="3" fill="#22c55e"/><circle cx="436.9" cy="182.4" r="3" fill="#22c55e"/><circle cx="454.9" cy="182.3" r="3" fill="#22c55e"/><circle cx="472.8" cy="182.3" r="3" fill="#22c55e"/><circle cx="490.8" cy="182.2" r="3" fill="#22c55e"/><circle cx="508.7" cy="182.2" r="3" fill="#22c55e"/><circle cx="526.7" cy="182.2" r="3" fill="#22c55e"/><circle cx="544.6" cy="182.2" r="3" fill="#22c55e"/><circle cx="562.6" cy="182.3" r="3" fill="#22c55e"/><circle cx="580.5" cy="182.4" r="3" fill="#22c55e"/><circle cx="598.5" cy="182.5" r="3" fill="#22c55e"/><circle cx="616.4" cy="182.6" r="3" fill="#22c55e"/><circle cx="634.4" cy="182.7" r="3" fill="#22c55e"/><circle cx="652.3" cy="182.9" r="3" fill="#22c55e"/><circle cx="670.3" cy="183.1" r="3" fill="#22c55e"/><circle cx="688.2" cy="183.2" r="3" fill="#22c55e"/><circle cx="706.2" cy="183.3" r="3" fill="#22c55e"/><circle cx="724.1" cy="183.4" r="3" fill="#22c55e"/><circle cx="742.1" cy="183.5" r="3" fill="#22c55e"/><circle cx="760.0" cy="183.7" r="3" fill="#22c55e"/>
  <circle cx="60.0" cy="211.1" r="3" fill="#3b82f6"/><circle cx="77.9" cy="210.2" r="3" fill="#3b82f6"/><circle cx="95.9" cy="209.7" r="3" fill="#3b82f6"/><circle cx="113.8" cy="209.2" r="3" fill="#3b82f6"/><circle cx="131.8" cy="208.7" r="3" fill="#3b82f6"/><circle cx="149.7" cy="208.3" r="3" fill="#3b82f6"/><circle cx="167.7" cy="207.9" r="3" fill="#3b82f6"/><circle cx="185.6" cy="207.5" r="3" fill="#3b82f6"/><circle cx="203.6" cy="207.0" r="3" fill="#3b82f6"/><circle cx="221.5" cy="206.2" r="3" fill="#3b82f6"/><circle cx="239.5" cy="205.0" r="3" fill="#3b82f6"/><circle cx="257.4" cy="204.1" r="3" fill="#3b82f6"/><circle cx="275.4" cy="203.2" r="3" fill="#3b82f6"/><circle cx="293.3" cy="202.5" r="3" fill="#3b82f6"/><circle cx="311.3" cy="201.9" r="3" fill="#3b82f6"/><circle cx="329.2" cy="201.0" r="3" fill="#3b82f6"/><circle cx="347.2" cy="200.3" r="3" fill="#3b82f6"/><circle cx="365.1" cy="199.9" r="3" fill="#3b82f6"/><circle cx="383.1" cy="199.6" r="3" fill="#3b82f6"/><circle cx="401.0" cy="199.4" r="3" fill="#3b82f6"/><circle cx="419.0" cy="199.3" r="3" fill="#3b82f6"/><circle cx="436.9" cy="199.0" r="3" fill="#3b82f6"/><circle cx="454.9" cy="198.9" r="3" fill="#3b82f6"/><circle cx="472.8" cy="198.9" r="3" fill="#3b82f6"/><circle cx="490.8" cy="198.7" r="3" fill="#3b82f6"/><circle cx="508.7" cy="198.7" r="3" fill="#3b82f6"/><circle cx="526.7" cy="198.8" r="3" fill="#3b82f6"/><circle cx="544.6" cy="198.8" r="3" fill="#3b82f6"/><circle cx="562.6" cy="198.8" r="3" fill="#3b82f6"/><circle cx="580.5" cy="198.9" r="3" fill="#3b82f6"/><circle cx="598.5" cy="199.0" r="3" fill="#3b82f6"/><circle cx="616.4" cy="199.2" r="3" fill="#3b82f6"/><circle cx="634.4" cy="199.4" r="3" fill="#3b82f6"/><circle cx="652.3" cy="199.5" r="3" fill="#3b82f6"/><circle cx="670.3" cy="199.7" r="3" fill="#3b82f6"/><circle cx="688.2" cy="199.8" r="3" fill="#3b82f6"/><circle cx="706.2" cy="200.0" r="3" fill="#3b82f6"/><circle cx="724.1" cy="200.1" r="3" fill="#3b82f6"/><circle cx="742.1" cy="200.2" r="3" fill="#3b82f6"/><circle cx="760.0" cy="200.4" r="3" fill="#3b82f6"/>

  <!-- X ekseni -->
  <text x="60.0" y="380" text-anchor="middle" font-size="10" fill="#888">14.05.2026</text>
  <text x="167.7" y="380" text-anchor="middle" font-size="10" fill="#888">20.05.2026</text>
  <text x="275.4" y="380" text-anchor="middle" font-size="10" fill="#888">26.05.2026</text>
  <text x="383.1" y="380" text-anchor="middle" font-size="10" fill="#888">01.06.2026</text>
  <text x="490.8" y="380" text-anchor="middle" font-size="10" fill="#888">07.06.2026</text>
  <text x="598.5" y="380" text-anchor="middle" font-size="10" fill="#888">13.06.2026</text>
  <text x="706.2" y="380" text-anchor="middle" font-size="10" fill="#888">19.06.2026</text>

  <!-- Legend -->
  <g transform="translate(60, 345)">
    <rect x="0" y="0" width="12" height="12" fill="#22c55e" rx="2"/>
    <text x="18" y="10" font-size="11" fill="#c9d1d9">Toplam Doluluk</text>
    <rect x="140" y="0" width="12" height="12" fill="#3b82f6" rx="2"/>
    <text x="158" y="10" font-size="11" fill="#c9d1d9">Aktif Doluluk</text>
  </g>
</svg>