<svg xmlns="http://www.w3.org/2000/svg" viewBox="0 0 900 400" width="100%" style="max-width:900px;">
  <rect width="900" height="400" fill="#0d1117" rx="6"/>
  <text x="450.0" y="25" text-anchor="middle" font-size="16" font-weight="bold" fill="#c9d1d9">Son 180 Gün - Günlük Ortalama</text>

  <!-- Y grid -->
  <line x1="60" y1="320.0" x2="860" y2="320.0" stroke="#333" stroke-width="1" stroke-dasharray="4,4" opacity="0.5"/>
  <text x="50" y="320.0" text-anchor="end" dominant-baseline="middle" font-size="10" fill="#888">0%</text>
  <line x1="60" y1="264.0" x2="860" y2="264.0" stroke="#333" stroke-width="1" stroke-dasharray="4,4" opacity="0.5"/>
  <text x="50" y="264.0" text-anchor="end" dominant-baseline="middle" font-size="10" fill="#888">20%</text>
  <line x1="60" y1="208.0" x2="860" y2="208.0" stroke="#333" stroke-width="1" stroke-dasharray="4,4" opacity="0.5"/>
  <text x="50" y="208.0" text-anchor="end" dominant-baseline="middle" font-size="10" fill="#888">40%</text>
  <line x1="60" y1="152.0" x2="860" y2="152.0" stroke="#333" stroke-width="1" stroke-dasharray="4,4" opacity="0.5"/>
  <text x="50" y="152.0" text-anchor="end" dominant-baseline="middle" font-size="10" fill="#888">60%</text>
  <line x1="60" y1="96.0" x2="860" y2="96.0" stroke="#333" stroke-width="1" stroke-dasharray="4,4" opacity="0.5"/>
  <text x="50" y="96.0" text-anchor="end" dominant-baseline="middle" font-size="10" fill="#888">80%</text>
  <line x1="60" y1="40.0" x2="860" y2="40.0" stroke="#333" stroke-width="1" stroke-dasharray="4,4" opacity="0.5"/>
  <text x="50" y="40.0" text-anchor="end" dominant-baseline="middle" font-size="10" fill="#888">100%</text>

  <!-- Referans çizgileri -->
  <line x1="60" y1="236.0" x2="860" y2="236.0" stroke="#ef4444" stroke-width="1" stroke-dasharray="2,2" opacity="0.7"/>
  <text x="845" y="236.0" dominant-baseline="middle" font-size="9" fill="#ef4444">Kritik (30%)</text>
  <line x1="60" y1="180.0" x2="860" y2="180.0" stroke="#eab308" stroke-width="1" stroke-dasharray="2,2" opacity="0.7"/>
  <text x="845" y="180.0" dominant-baseline="middle" font-size="9" fill="#eab308">Normal (50%)</text>

  <!-- Toplam doluluk -->
  <polyline points="60.0,193.2 78.2,192.5 96.4,192.0 114.5,191.6 132.7,191.1 150.9,190.8 169.1,190.4 187.3,190.1 205.5,189.6 223.6,188.8 241.8,187.8 260.0,187.0 278.2,186.2 296.4,185.6 314.5,185.0 332.7,184.3 350.9,183.6 369.1,183.2 387.3,182.9 405.5,182.7 423.6,182.7 441.8,182.4 460.0,182.3 478.2,182.3 496.4,182.2 514.5,182.2 532.7,182.2 550.9,182.2 569.1,182.3 587.3,182.4 605.5,182.5 623.6,182.6 641.8,182.7 660.0,182.9 678.2,183.1 696.4,183.2 714.5,183.3 732.7,183.4 750.9,183.5 769.1,183.7 787.3,183.9 805.5,184.2 823.6,184.4 841.8,184.7 860.0,185.0" fill="none" stroke="#22c55e" stroke-width="2.5" stroke-linecap="round" stroke-linejoin="round"/>
  <polyline points="60.0,193.2 78.2,192.5 96.4,192.0 114.5,191.6 132.7,191.1 150.9,190.8 169.1,190.4 187.3,190.1 205.5,189.6 223.6,188.8 241.8,187.8 260.0,187.0 278.2,186.2 296.4,185.6 314.5,185.0 332.7,184.3 350.9,183.6 369.1,183.2 387.3,182.9 405.5,182.7 423.6,182.7 441.8,182.4 460.0,182.3 478.2,182.3 496.4,182.2 514.5,182.2 532.7,182.2 550.9,182.2 569.1,182.3 587.3,182.4 605.5,182.5 623.6,182.6 641.8,182.7 660.0,182.9 678.2,183.1 696.4,183.2 714.5,183.3 732.7,183.4 750.9,183.5 769.1,183.7 787.3,183.9 805.5,184.2 823.6,184.4 841.8,184.7 860.0,185.0" fill="none" stroke="#22c55e" stroke-width="5" opacity="0.1" stroke-linecap="round" stroke-linejoin="round"/>

  <!-- Aktif doluluk -->
  <polyline points="60.0,211.1 78.2,210.2 96.4,209.7 114.5,209.2 132.7,208.7 150.9,208.3 169.1,207.9 187.3,207.5 205.5,207.0 223.6,206.2 241.8,205.0 260.0,204.1 278.2,203.2 296.4,202.5 314.5,201.9 332.7,201.0 350.9,200.3 369.1,199.9 387.3,199.6 405.5,199.4 423.6,199.3 441.8,199.0 460.0,198.9 478.2,198.9 496.4,198.7 514.5,198.7 532.7,198.8 550.9,198.8 569.1,198.8 587.3,198.9 605.5,199.0 623.6,199.2 641.8,199.4 660.0,199.5 678.2,199.7 696.4,199.8 714.5,200.0 732.7,200.1 750.9,200.2 769.1,200.4 787.3,200.7 805.5,201.0 823.6,201.3 841.8,201.6 860.0,201.8" fill="none" stroke="#3b82f6" stroke-width="2.5" stroke-linecap="round" stroke-linejoin="round"/>
  <polyline points="60.0,211.1 78.2,210.2 96.4,209.7 114.5,209.2 132.7,208.7 150.9,208.3 169.1,207.9 187.3,207.5 205.5,207.0 223.6,206.2 241.8,205.0 260.0,204.1 278.2,203.2 296.4,202.5 314.5,201.9 332.7,201.0 350.9,200.3 369.1,199.9 387.3,199.6 405.5,199.4 423.6,199.3 441.8,199.0 460.0,198.9 478.2,198.9 496.4,198.7 514.5,198.7 532.7,198.8 550.9,198.8 569.1,198.8 587.3,198.9 605.5,199.0 623.6,199.2 641.8,199.4 660.0,199.5 678.2,199.7 696.4,199.8 714.5,200.0 732.7,200.1 750.9,200.2 769.1,200.4 787.3,200.7 805.5,201.0 823.6,201.3 841.8,201.6 860.0,201.8" fill="none" stroke="#3b82f6" stroke-width="5" opacity="0.1" stroke-linecap="round" stroke-linejoin="round"/>

  <!-- Noktalar -->
  <circle cx="60.0" cy="193.2" r="3" fill="#22c55e"/><circle cx="78.2" cy="192.5" r="3" fill="#22c55e"/><circle cx="96.4" cy="192.0" r="3" fill="#22c55e"/><circle cx="114.5" cy="191.6" r="3" fill="#22c55e"/><circle cx="132.7" cy="191.1" r="3" fill="#22c55e"/><circle cx="150.9" cy="190.8" r="3" fill="#22c55e"/><circle cx="169.1" cy="190.4" r="3" fill="#22c55e"/><circle cx="187.3" cy="190.1" r="3" fill="#22c55e"/><circle cx="205.5" cy="189.6" r="3" fill="#22c55e"/><circle cx="223.6" cy="188.8" r="3" fill="#22c55e"/><circle cx="241.8" cy="187.8" r="3" fill="#22c55e"/><circle cx="260.0" cy="187.0" r="3" fill="#22c55e"/><circle cx="278.2" cy="186.2" r="3" fill="#22c55e"/><circle cx="296.4" cy="185.6" r="3" fill="#22c55e"/><circle cx="314.5" cy="185.0" r="3" fill="#22c55e"/><circle cx="332.7" cy="184.3" r="3" fill="#22c55e"/><circle cx="350.9" cy="183.6" r="3" fill="#22c55e"/><circle cx="369.1" cy="183.2" r="3" fill="#22c55e"/><circle cx="387.3" cy="182.9" r="3" fill="#22c55e"/><circle cx="405.5" cy="182.7" r="3" fill="#22c55e"/><circle cx="423.6" cy="182.7" r="3" fill="#22c55e"/><circle cx="441.8" cy="182.4" r="3" fill="#22c55e"/><circle cx="460.0" cy="182.3" r="3" fill="#22c55e"/><circle cx="478.2" cy="182.3" r="3" fill="#22c55e"/><circle cx="496.4" cy="182.2" r="3" fill="#22c55e"/><circle cx="514.5" cy="182.2" r="3" fill="#22c55e"/><circle cx="532.7" cy="182.2" r="3" fill="#22c55e"/><circle cx="550.9" cy="182.2" r="3" fill="#22c55e"/><circle cx="569.1" cy="182.3" r="3" fill="#22c55e"/><circle cx="587.3" cy="182.4" r="3" fill="#22c55e"/><circle cx="605.5" cy="182.5" r="3" fill="#22c55e"/><circle cx="623.6" cy="182.6" r="3" fill="#22c55e"/><circle cx="641.8" cy="182.7" r="3" fill="#22c55e"/><circle cx="660.0" cy="182.9" r="3" fill="#22c55e"/><circle cx="678.2" cy="183.1" r="3" fill="#22c55e"/><circle cx="696.4" cy="183.2" r="3" fill="#22c55e"/><circle cx="714.5" cy="183.3" r="3" fill="#22c55e"/><circle cx="732.7" cy="183.4" r="3" fill="#22c55e"/><circle cx="750.9" cy="183.5" r="3" fill="#22c55e"/><circle cx="769.1" cy="183.7" r="3" fill="#22c55e"/><circle cx="787.3" cy="183.9" r="3" fill="#22c55e"/><circle cx="805.5" cy="184.2" r="3" fill="#22c55e"/><circle cx="823.6" cy="184.4" r="3" fill="#22c55e"/><circle cx="841.8" cy="184.7" r="3" fill="#22c55e"/><circle cx="860.0" cy="185.0" r="3" fill="#22c55e"/>
  <circle cx="60.0" cy="211.1" r="3" fill="#3b82f6"/><circle cx="78.2" cy="210.2" r="3" fill="#3b82f6"/><circle cx="96.4" cy="209.7" r="3" fill="#3b82f6"/><circle cx="114.5" cy="209.2" r="3" fill="#3b82f6"/><circle cx="132.7" cy="208.7" r="3" fill="#3b82f6"/><circle cx="150.9" cy="208.3" r="3" fill="#3b82f6"/><circle cx="169.1" cy="207.9" r="3" fill="#3b82f6"/><circle cx="187.3" cy="207.5" r="3" fill="#3b82f6"/><circle cx="205.5" cy="207.0" r="3" fill="#3b82f6"/><circle cx="223.6" cy="206.2" r="3" fill="#3b82f6"/><circle cx="241.8" cy="205.0" r="3" fill="#3b82f6"/><circle cx="260.0" cy="204.1" r="3" fill="#3b82f6"/><circle cx="278.2" cy="203.2" r="3" fill="#3b82f6"/><circle cx="296.4" cy="202.5" r="3" fill="#3b82f6"/><circle cx="314.5" cy="201.9" r="3" fill="#3b82f6"/><circle cx="332.7" cy="201.0" r="3" fill="#3b82f6"/><circle cx="350.9" cy="200.3" r="3" fill="#3b82f6"/><circle cx="369.1" cy="199.9" r="3" fill="#3b82f6"/><circle cx="387.3" cy="199.6" r="3" fill="#3b82f6"/><circle cx="405.5" cy="199.4" r="3" fill="#3b82f6"/><circle cx="423.6" cy="199.3" r="3" fill="#3b82f6"/><circle cx="441.8" cy="199.0" r="3" fill="#3b82f6"/><circle cx="460.0" cy="198.9" r="3" fill="#3b82f6"/><circle cx="478.2" cy="198.9" r="3" fill="#3b82f6"/><circle cx="496.4" cy="198.7" r="3" fill="#3b82f6"/><circle cx="514.5" cy="198.7" r="3" fill="#3b82f6"/><circle cx="532.7" cy="198.8" r="3" fill="#3b82f6"/><circle cx="550.9" cy="198.8" r="3" fill="#3b82f6"/><circle cx="569.1" cy="198.8" r="3" fill="#3b82f6"/><circle cx="587.3" cy="198.9" r="3" fill="#3b82f6"/><circle cx="605.5" cy="199.0" r="3" fill="#3b82f6"/><circle cx="623.6" cy="199.2" r="3" fill="#3b82f6"/><circle cx="641.8" cy="199.4" r="3" fill="#3b82f6"/><circle cx="660.0" cy="199.5" r="3" fill="#3b82f6"/><circle cx="678.2" cy="199.7" r="3" fill="#3b82f6"/><circle cx="696.4" cy="199.8" r="3" fill="#3b82f6"/><circle cx="714.5" cy="200.0" r="3" fill="#3b82f6"/><circle cx="732.7" cy="200.1" r="3" fill="#3b82f6"/><circle cx="750.9" cy="200.2" r="3" fill="#3b82f6"/><circle cx="769.1" cy="200.4" r="3" fill="#3b82f6"/><circle cx="787.3" cy="200.7" r="3" fill="#3b82f6"/><circle cx="805.5" cy="201.0" r="3" fill="#3b82f6"/><circle cx="823.6" cy="201.3" r="3" fill="#3b82f6"/><circle cx="841.8" cy="201.6" r="3" fill="#3b82f6"/><circle cx="860.0" cy="201.8" r="3" fill="#3b82f6"/>

  <!-- X ekseni -->
  <text x="60.0" y="380" text-anchor="middle" font-size="10" fill="#888">14.05.2026</text>
  <text x="187.3" y="380" text-anchor="middle" font-size="10" fill="#888">21.05.2026</text>
  <text x="314.5" y="380" text-anchor="middle" font-size="10" fill="#888">28.05.2026</text>
  <text x="441.8" y="380" text-anchor="middle" font-size="10" fill="#888">04.06.2026</text>
  <text x="569.1" y="380" text-anchor="middle" font-size="10" fill="#888">11.06.2026</text>
  <text x="696.4" y="380" text-anchor="middle" font-size="10" fill="#888">18.06.2026</text>
  <text x="823.6" y="380" text-anchor="middle" font-size="10" fill="#888">25.06.2026</text>

  <!-- Legend -->
  <g transform="translate(60, 345)">
    <rect x="0" y="0" width="12" height="12" fill="#22c55e" rx="2"/>
    <text x="18" y="10" font-size="11" fill="#c9d1d9">Toplam Doluluk</text>
    <rect x="140" y="0" width="12" height="12" fill="#3b82f6" rx="2"/>
    <text x="158" y="10" font-size="11" fill="#c9d1d9">Aktif Doluluk</text>
  </g>
</svg>