<svg xmlns="http://www.w3.org/2000/svg" viewBox="0 0 800 400" width="100%" style="max-width:800px;">
  <rect width="800" height="400" fill="#0d1117" rx="6"/>
  <text x="400.0" y="25" text-anchor="middle" font-size="16" font-weight="bold" fill="#c9d1d9">Son 90 Gün - Günlük Ortalama</text>

  <!-- Y grid -->
  <line x1="60" y1="320.0" x2="760" y2="320.0" stroke="#333" stroke-width="1" stroke-dasharray="4,4" opacity="0.5"/>
  <text x="50" y="320.0" text-anchor="end" dominant-baseline="middle" font-size="10" fill="#888">0%</text>
  <line x1="60" y1="264.0" x2="760" y2="264.0" stroke="#333" stroke-width="1" stroke-dasharray="4,4" opacity="0.5"/>
  <text x="50" y="264.0" text-anchor="end" dominant-baseline="middle" font-size="10" fill="#888">20%</text>
  <line x1="60" y1="208.0" x2="760" y2="208.0" stroke="#333" stroke-width="1" stroke-dasharray="4,4" opacity="0.5"/>
  <text x="50" y="208.0" text-anchor="end" dominant-baseline="middle" font-size="10" fill="#888">40%</text>
  <line x1="60" y1="152.0" x2="760" y2="152.0" stroke="#333" stroke-width="1" stroke-dasharray="4,4" opacity="0.5"/>
  <text x="50" y="152.0" text-anchor="end" dominant-baseline="middle" font-size="10" fill="#888">60%</text>
  <line x1="60" y1="96.0" x2="760" y2="96.0" stroke="#333" stroke-width="1" stroke-dasharray="4,4" opacity="0.5"/>
  <text x="50" y="96.0" text-anchor="end" dominant-baseline="middle" font-size="10" fill="#888">80%</text>
  <line x1="60" y1="40.0" x2="760" y2="40.0" stroke="#333" stroke-width="1" stroke-dasharray="4,4" opacity="0.5"/>
  <text x="50" y="40.0" text-anchor="end" dominant-baseline="middle" font-size="10" fill="#888">100%</text>

  <!-- Referans çizgileri -->
  <line x1="60" y1="236.0" x2="760" y2="236.0" stroke="#ef4444" stroke-width="1" stroke-dasharray="2,2" opacity="0.7"/>
  <text x="745" y="236.0" dominant-baseline="middle" font-size="9" fill="#ef4444">Kritik (30%)</text>
  <line x1="60" y1="180.0" x2="760" y2="180.0" stroke="#eab308" stroke-width="1" stroke-dasharray="2,2" opacity="0.7"/>
  <text x="745" y="180.0" dominant-baseline="middle" font-size="9" fill="#eab308">Normal (50%)</text>

  <!-- Toplam doluluk -->
  <polyline points="60.0,193.2 79.4,192.5 98.9,192.0 118.3,191.6 137.8,191.1 157.2,190.8 176.7,190.4 196.1,190.1 215.6,189.6 235.0,188.8 254.4,187.8 273.9,187.0 293.3,186.2 312.8,185.6 332.2,185.0 351.7,184.3 371.1,183.6 390.6,183.2 410.0,182.9 429.4,182.7 448.9,182.7 468.3,182.4 487.8,182.3 507.2,182.3 526.7,182.2 546.1,182.2 565.6,182.2 585.0,182.2 604.4,182.3 623.9,182.4 643.3,182.5 662.8,182.6 682.2,182.7 701.7,182.9 721.1,183.1 740.6,183.2 760.0,183.3" fill="none" stroke="#22c55e" stroke-width="2.5" stroke-linecap="round" stroke-linejoin="round"/>
  <polyline points="60.0,193.2 79.4,192.5 98.9,192.0 118.3,191.6 137.8,191.1 157.2,190.8 176.7,190.4 196.1,190.1 215.6,189.6 235.0,188.8 254.4,187.8 273.9,187.0 293.3,186.2 312.8,185.6 332.2,185.0 351.7,184.3 371.1,183.6 390.6,183.2 410.0,182.9 429.4,182.7 448.9,182.7 468.3,182.4 487.8,182.3 507.2,182.3 526.7,182.2 546.1,182.2 565.6,182.2 585.0,182.2 604.4,182.3 623.9,182.4 643.3,182.5 662.8,182.6 682.2,182.7 701.7,182.9 721.1,183.1 740.6,183.2 760.0,183.3" fill="none" stroke="#22c55e" stroke-width="5" opacity="0.1" stroke-linecap="round" stroke-linejoin="round"/>

  <!-- Aktif doluluk -->
  <polyline points="60.0,211.1 79.4,210.2 98.9,209.7 118.3,209.2 137.8,208.7 157.2,208.3 176.7,207.9 196.1,207.5 215.6,207.0 235.0,206.2 254.4,205.0 273.9,204.1 293.3,203.2 312.8,202.5 332.2,201.9 351.7,201.0 371.1,200.3 390.6,199.9 410.0,199.6 429.4,199.4 448.9,199.3 468.3,199.0 487.8,198.9 507.2,198.9 526.7,198.7 546.1,198.7 565.6,198.8 585.0,198.8 604.4,198.8 623.9,198.9 643.3,199.0 662.8,199.2 682.2,199.4 701.7,199.5 721.1,199.7 740.6,199.8 760.0,200.0" fill="none" stroke="#3b82f6" stroke-width="2.5" stroke-linecap="round" stroke-linejoin="round"/>
  <polyline points="60.0,211.1 79.4,210.2 98.9,209.7 118.3,209.2 137.8,208.7 157.2,208.3 176.7,207.9 196.1,207.5 215.6,207.0 235.0,206.2 254.4,205.0 273.9,204.1 293.3,203.2 312.8,202.5 332.2,201.9 351.7,201.0 371.1,200.3 390.6,199.9 410.0,199.6 429.4,199.4 448.9,199.3 468.3,199.0 487.8,198.9 507.2,198.9 526.7,198.7 546.1,198.7 565.6,198.8 585.0,198.8 604.4,198.8 623.9,198.9 643.3,199.0 662.8,199.2 682.2,199.4 701.7,199.5 721.1,199.7 740.6,199.8 760.0,200.0" fill="none" stroke="#3b82f6" stroke-width="5" opacity="0.1" stroke-linecap="round" stroke-linejoin="round"/>

  <!-- Noktalar -->
  <circle cx="60.0" cy="193.2" r="3" fill="#22c55e"/><circle cx="79.4" cy="192.5" r="3" fill="#22c55e"/><circle cx="98.9" cy="192.0" r="3" fill="#22c55e"/><circle cx="118.3" cy="191.6" r="3" fill="#22c55e"/><circle cx="137.8" cy="191.1" r="3" fill="#22c55e"/><circle cx="157.2" cy="190.8" r="3" fill="#22c55e"/><circle cx="176.7" cy="190.4" r="3" fill="#22c55e"/><circle cx="196.1" cy="190.1" r="3" fill="#22c55e"/><circle cx="215.6" cy="189.6" r="3" fill="#22c55e"/><circle cx="235.0" cy="188.8" r="3" fill="#22c55e"/><circle cx="254.4" cy="187.8" r="3" fill="#22c55e"/><circle cx="273.9" cy="187.0" r="3" fill="#22c55e"/><circle cx="293.3" cy="186.2" r="3" fill="#22c55e"/><circle cx="312.8" cy="185.6" r="3" fill="#22c55e"/><circle cx="332.2" cy="185.0" r="3" fill="#22c55e"/><circle cx="351.7" cy="184.3" r="3" fill="#22c55e"/><circle cx="371.1" cy="183.6" r="3" fill="#22c55e"/><circle cx="390.6" cy="183.2" r="3" fill="#22c55e"/><circle cx="410.0" cy="182.9" r="3" fill="#22c55e"/><circle cx="429.4" cy="182.7" r="3" fill="#22c55e"/><circle cx="448.9" cy="182.7" r="3" fill="#22c55e"/><circle cx="468.3" cy="182.4" r="3" fill="#22c55e"/><circle cx="487.8" cy="182.3" r="3" fill="#22c55e"/><circle cx="507.2" cy="182.3" r="3" fill="#22c55e"/><circle cx="526.7" cy="182.2" r="3" fill="#22c55e"/><circle cx="546.1" cy="182.2" r="3" fill="#22c55e"/><circle cx="565.6" cy="182.2" r="3" fill="#22c55e"/><circle cx="585.0" cy="182.2" r="3" fill="#22c55e"/><circle cx="604.4" cy="182.3" r="3" fill="#22c55e"/><circle cx="623.9" cy="182.4" r="3" fill="#22c55e"/><circle cx="643.3" cy="182.5" r="3" fill="#22c55e"/><circle cx="662.8" cy="182.6" r="3" fill="#22c55e"/><circle cx="682.2" cy="182.7" r="3" fill="#22c55e"/><circle cx="701.7" cy="182.9" r="3" fill="#22c55e"/><circle cx="721.1" cy="183.1" r="3" fill="#22c55e"/><circle cx="740.6" cy="183.2" r="3" fill="#22c55e"/><circle cx="760.0" cy="183.3" r="3" fill="#22c55e"/>
  <circle cx="60.0" cy="211.1" r="3" fill="#3b82f6"/><circle cx="79.4" cy="210.2" r="3" fill="#3b82f6"/><circle cx="98.9" cy="209.7" r="3" fill="#3b82f6"/><circle cx="118.3" cy="209.2" r="3" fill="#3b82f6"/><circle cx="137.8" cy="208.7" r="3" fill="#3b82f6"/><circle cx="157.2" cy="208.3" r="3" fill="#3b82f6"/><circle cx="176.7" cy="207.9" r="3" fill="#3b82f6"/><circle cx="196.1" cy="207.5" r="3" fill="#3b82f6"/><circle cx="215.6" cy="207.0" r="3" fill="#3b82f6"/><circle cx="235.0" cy="206.2" r="3" fill="#3b82f6"/><circle cx="254.4" cy="205.0" r="3" fill="#3b82f6"/><circle cx="273.9" cy="204.1" r="3" fill="#3b82f6"/><circle cx="293.3" cy="203.2" r="3" fill="#3b82f6"/><circle cx="312.8" cy="202.5" r="3" fill="#3b82f6"/><circle cx="332.2" cy="201.9" r="3" fill="#3b82f6"/><circle cx="351.7" cy="201.0" r="3" fill="#3b82f6"/><circle cx="371.1" cy="200.3" r="3" fill="#3b82f6"/><circle cx="390.6" cy="199.9" r="3" fill="#3b82f6"/><circle cx="410.0" cy="199.6" r="3" fill="#3b82f6"/><circle cx="429.4" cy="199.4" r="3" fill="#3b82f6"/><circle cx="448.9" cy="199.3" r="3" fill="#3b82f6"/><circle cx="468.3" cy="199.0" r="3" fill="#3b82f6"/><circle cx="487.8" cy="198.9" r="3" fill="#3b82f6"/><circle cx="507.2" cy="198.9" r="3" fill="#3b82f6"/><circle cx="526.7" cy="198.7" r="3" fill="#3b82f6"/><circle cx="546.1" cy="198.7" r="3" fill="#3b82f6"/><circle cx="565.6" cy="198.8" r="3" fill="#3b82f6"/><circle cx="585.0" cy="198.8" r="3" fill="#3b82f6"/><circle cx="604.4" cy="198.8" r="3" fill="#3b82f6"/><circle cx="623.9" cy="198.9" r="3" fill="#3b82f6"/><circle cx="643.3" cy="199.0" r="3" fill="#3b82f6"/><circle cx="662.8" cy="199.2" r="3" fill="#3b82f6"/><circle cx="682.2" cy="199.4" r="3" fill="#3b82f6"/><circle cx="701.7" cy="199.5" r="3" fill="#3b82f6"/><circle cx="721.1" cy="199.7" r="3" fill="#3b82f6"/><circle cx="740.6" cy="199.8" r="3" fill="#3b82f6"/><circle cx="760.0" cy="200.0" r="3" fill="#3b82f6"/>

  <!-- X ekseni -->
  <text x="60.0" y="380" text-anchor="middle" font-size="10" fill="#888">14.05.2026</text>
  <text x="176.7" y="380" text-anchor="middle" font-size="10" fill="#888">20.05.2026</text>
  <text x="293.3" y="380" text-anchor="middle" font-size="10" fill="#888">26.05.2026</text>
  <text x="410.0" y="380" text-anchor="middle" font-size="10" fill="#888">01.06.2026</text>
  <text x="526.7" y="380" text-anchor="middle" font-size="10" fill="#888">07.06.2026</text>
  <text x="643.3" y="380" text-anchor="middle" font-size="10" fill="#888">13.06.2026</text>
  <text x="760.0" y="380" text-anchor="middle" font-size="10" fill="#888">19.06.2026</text>

  <!-- Legend -->
  <g transform="translate(60, 345)">
    <rect x="0" y="0" width="12" height="12" fill="#22c55e" rx="2"/>
    <text x="18" y="10" font-size="11" fill="#c9d1d9">Toplam Doluluk</text>
    <rect x="140" y="0" width="12" height="12" fill="#3b82f6" rx="2"/>
    <text x="158" y="10" font-size="11" fill="#c9d1d9">Aktif Doluluk</text>
  </g>
</svg>