<svg xmlns="http://www.w3.org/2000/svg" viewBox="0 0 800 400" width="100%" style="max-width:800px;">
  <rect width="800" height="400" fill="#0d1117" rx="6"/>
  <text x="400.0" y="25" text-anchor="middle" font-size="16" font-weight="bold" fill="#c9d1d9">Son 90 Gün - Günlük Ortalama</text>

  <!-- Y grid -->
  <line x1="60" y1="320.0" x2="760" y2="320.0" stroke="#333" stroke-width="1" stroke-dasharray="4,4" opacity="0.5"/>
  <text x="50" y="320.0" text-anchor="end" dominant-baseline="middle" font-size="10" fill="#888">0%</text>
  <line x1="60" y1="264.0" x2="760" y2="264.0" stroke="#333" stroke-width="1" stroke-dasharray="4,4" opacity="0.5"/>
  <text x="50" y="264.0" text-anchor="end" dominant-baseline="middle" font-size="10" fill="#888">20%</text>
  <line x1="60" y1="208.0" x2="760" y2="208.0" stroke="#333" stroke-width="1" stroke-dasharray="4,4" opacity="0.5"/>
  <text x="50" y="208.0" text-anchor="end" dominant-baseline="middle" font-size="10" fill="#888">40%</text>
  <line x1="60" y1="152.0" x2="760" y2="152.0" stroke="#333" stroke-width="1" stroke-dasharray="4,4" opacity="0.5"/>
  <text x="50" y="152.0" text-anchor="end" dominant-baseline="middle" font-size="10" fill="#888">60%</text>
  <line x1="60" y1="96.0" x2="760" y2="96.0" stroke="#333" stroke-width="1" stroke-dasharray="4,4" opacity="0.5"/>
  <text x="50" y="96.0" text-anchor="end" dominant-baseline="middle" font-size="10" fill="#888">80%</text>
  <line x1="60" y1="40.0" x2="760" y2="40.0" stroke="#333" stroke-width="1" stroke-dasharray="4,4" opacity="0.5"/>
  <text x="50" y="40.0" text-anchor="end" dominant-baseline="middle" font-size="10" fill="#888">100%</text>

  <!-- Referans çizgileri -->
  <line x1="60" y1="236.0" x2="760" y2="236.0" stroke="#ef4444" stroke-width="1" stroke-dasharray="2,2" opacity="0.7"/>
  <text x="745" y="236.0" dominant-baseline="middle" font-size="9" fill="#ef4444">Kritik (30%)</text>
  <line x1="60" y1="180.0" x2="760" y2="180.0" stroke="#eab308" stroke-width="1" stroke-dasharray="2,2" opacity="0.7"/>
  <text x="745" y="180.0" dominant-baseline="middle" font-size="9" fill="#eab308">Normal (50%)</text>

  <!-- Toplam doluluk -->
  <polyline points="60.0,193.2 77.5,192.5 95.0,192.0 112.5,191.6 130.0,191.1 147.5,190.8 165.0,190.4 182.5,190.1 200.0,189.6 217.5,188.8 235.0,187.8 252.5,187.0 270.0,186.2 287.5,185.6 305.0,185.0 322.5,184.3 340.0,183.6 357.5,183.2 375.0,182.9 392.5,182.7 410.0,182.7 427.5,182.4 445.0,182.3 462.5,182.3 480.0,182.2 497.5,182.2 515.0,182.2 532.5,182.2 550.0,182.3 567.5,182.4 585.0,182.5 602.5,182.6 620.0,182.7 637.5,182.9 655.0,183.1 672.5,183.2 690.0,183.3 707.5,183.4 725.0,183.5 742.5,183.7 760.0,183.9" fill="none" stroke="#22c55e" stroke-width="2.5" stroke-linecap="round" stroke-linejoin="round"/>
  <polyline points="60.0,193.2 77.5,192.5 95.0,192.0 112.5,191.6 130.0,191.1 147.5,190.8 165.0,190.4 182.5,190.1 200.0,189.6 217.5,188.8 235.0,187.8 252.5,187.0 270.0,186.2 287.5,185.6 305.0,185.0 322.5,184.3 340.0,183.6 357.5,183.2 375.0,182.9 392.5,182.7 410.0,182.7 427.5,182.4 445.0,182.3 462.5,182.3 480.0,182.2 497.5,182.2 515.0,182.2 532.5,182.2 550.0,182.3 567.5,182.4 585.0,182.5 602.5,182.6 620.0,182.7 637.5,182.9 655.0,183.1 672.5,183.2 690.0,183.3 707.5,183.4 725.0,183.5 742.5,183.7 760.0,183.9" fill="none" stroke="#22c55e" stroke-width="5" opacity="0.1" stroke-linecap="round" stroke-linejoin="round"/>

  <!-- Aktif doluluk -->
  <polyline points="60.0,211.1 77.5,210.2 95.0,209.7 112.5,209.2 130.0,208.7 147.5,208.3 165.0,207.9 182.5,207.5 200.0,207.0 217.5,206.2 235.0,205.0 252.5,204.1 270.0,203.2 287.5,202.5 305.0,201.9 322.5,201.0 340.0,200.3 357.5,199.9 375.0,199.6 392.5,199.4 410.0,199.3 427.5,199.0 445.0,198.9 462.5,198.9 480.0,198.7 497.5,198.7 515.0,198.8 532.5,198.8 550.0,198.8 567.5,198.9 585.0,199.0 602.5,199.2 620.0,199.4 637.5,199.5 655.0,199.7 672.5,199.8 690.0,200.0 707.5,200.1 725.0,200.2 742.5,200.4 760.0,200.7" fill="none" stroke="#3b82f6" stroke-width="2.5" stroke-linecap="round" stroke-linejoin="round"/>
  <polyline points="60.0,211.1 77.5,210.2 95.0,209.7 112.5,209.2 130.0,208.7 147.5,208.3 165.0,207.9 182.5,207.5 200.0,207.0 217.5,206.2 235.0,205.0 252.5,204.1 270.0,203.2 287.5,202.5 305.0,201.9 322.5,201.0 340.0,200.3 357.5,199.9 375.0,199.6 392.5,199.4 410.0,199.3 427.5,199.0 445.0,198.9 462.5,198.9 480.0,198.7 497.5,198.7 515.0,198.8 532.5,198.8 550.0,198.8 567.5,198.9 585.0,199.0 602.5,199.2 620.0,199.4 637.5,199.5 655.0,199.7 672.5,199.8 690.0,200.0 707.5,200.1 725.0,200.2 742.5,200.4 760.0,200.7" fill="none" stroke="#3b82f6" stroke-width="5" opacity="0.1" stroke-linecap="round" stroke-linejoin="round"/>

  <!-- Noktalar -->
  <circle cx="60.0" cy="193.2" r="3" fill="#22c55e"/><circle cx="77.5" cy="192.5" r="3" fill="#22c55e"/><circle cx="95.0" cy="192.0" r="3" fill="#22c55e"/><circle cx="112.5" cy="191.6" r="3" fill="#22c55e"/><circle cx="130.0" cy="191.1" r="3" fill="#22c55e"/><circle cx="147.5" cy="190.8" r="3" fill="#22c55e"/><circle cx="165.0" cy="190.4" r="3" fill="#22c55e"/><circle cx="182.5" cy="190.1" r="3" fill="#22c55e"/><circle cx="200.0" cy="189.6" r="3" fill="#22c55e"/><circle cx="217.5" cy="188.8" r="3" fill="#22c55e"/><circle cx="235.0" cy="187.8" r="3" fill="#22c55e"/><circle cx="252.5" cy="187.0" r="3" fill="#22c55e"/><circle cx="270.0" cy="186.2" r="3" fill="#22c55e"/><circle cx="287.5" cy="185.6" r="3" fill="#22c55e"/><circle cx="305.0" cy="185.0" r="3" fill="#22c55e"/><circle cx="322.5" cy="184.3" r="3" fill="#22c55e"/><circle cx="340.0" cy="183.6" r="3" fill="#22c55e"/><circle cx="357.5" cy="183.2" r="3" fill="#22c55e"/><circle cx="375.0" cy="182.9" r="3" fill="#22c55e"/><circle cx="392.5" cy="182.7" r="3" fill="#22c55e"/><circle cx="410.0" cy="182.7" r="3" fill="#22c55e"/><circle cx="427.5" cy="182.4" r="3" fill="#22c55e"/><circle cx="445.0" cy="182.3" r="3" fill="#22c55e"/><circle cx="462.5" cy="182.3" r="3" fill="#22c55e"/><circle cx="480.0" cy="182.2" r="3" fill="#22c55e"/><circle cx="497.5" cy="182.2" r="3" fill="#22c55e"/><circle cx="515.0" cy="182.2" r="3" fill="#22c55e"/><circle cx="532.5" cy="182.2" r="3" fill="#22c55e"/><circle cx="550.0" cy="182.3" r="3" fill="#22c55e"/><circle cx="567.5" cy="182.4" r="3" fill="#22c55e"/><circle cx="585.0" cy="182.5" r="3" fill="#22c55e"/><circle cx="602.5" cy="182.6" r="3" fill="#22c55e"/><circle cx="620.0" cy="182.7" r="3" fill="#22c55e"/><circle cx="637.5" cy="182.9" r="3" fill="#22c55e"/><circle cx="655.0" cy="183.1" r="3" fill="#22c55e"/><circle cx="672.5" cy="183.2" r="3" fill="#22c55e"/><circle cx="690.0" cy="183.3" r="3" fill="#22c55e"/><circle cx="707.5" cy="183.4" r="3" fill="#22c55e"/><circle cx="725.0" cy="183.5" r="3" fill="#22c55e"/><circle cx="742.5" cy="183.7" r="3" fill="#22c55e"/><circle cx="760.0" cy="183.9" r="3" fill="#22c55e"/>
  <circle cx="60.0" cy="211.1" r="3" fill="#3b82f6"/><circle cx="77.5" cy="210.2" r="3" fill="#3b82f6"/><circle cx="95.0" cy="209.7" r="3" fill="#3b82f6"/><circle cx="112.5" cy="209.2" r="3" fill="#3b82f6"/><circle cx="130.0" cy="208.7" r="3" fill="#3b82f6"/><circle cx="147.5" cy="208.3" r="3" fill="#3b82f6"/><circle cx="165.0" cy="207.9" r="3" fill="#3b82f6"/><circle cx="182.5" cy="207.5" r="3" fill="#3b82f6"/><circle cx="200.0" cy="207.0" r="3" fill="#3b82f6"/><circle cx="217.5" cy="206.2" r="3" fill="#3b82f6"/><circle cx="235.0" cy="205.0" r="3" fill="#3b82f6"/><circle cx="252.5" cy="204.1" r="3" fill="#3b82f6"/><circle cx="270.0" cy="203.2" r="3" fill="#3b82f6"/><circle cx="287.5" cy="202.5" r="3" fill="#3b82f6"/><circle cx="305.0" cy="201.9" r="3" fill="#3b82f6"/><circle cx="322.5" cy="201.0" r="3" fill="#3b82f6"/><circle cx="340.0" cy="200.3" r="3" fill="#3b82f6"/><circle cx="357.5" cy="199.9" r="3" fill="#3b82f6"/><circle cx="375.0" cy="199.6" r="3" fill="#3b82f6"/><circle cx="392.5" cy="199.4" r="3" fill="#3b82f6"/><circle cx="410.0" cy="199.3" r="3" fill="#3b82f6"/><circle cx="427.5" cy="199.0" r="3" fill="#3b82f6"/><circle cx="445.0" cy="198.9" r="3" fill="#3b82f6"/><circle cx="462.5" cy="198.9" r="3" fill="#3b82f6"/><circle cx="480.0" cy="198.7" r="3" fill="#3b82f6"/><circle cx="497.5" cy="198.7" r="3" fill="#3b82f6"/><circle cx="515.0" cy="198.8" r="3" fill="#3b82f6"/><circle cx="532.5" cy="198.8" r="3" fill="#3b82f6"/><circle cx="550.0" cy="198.8" r="3" fill="#3b82f6"/><circle cx="567.5" cy="198.9" r="3" fill="#3b82f6"/><circle cx="585.0" cy="199.0" r="3" fill="#3b82f6"/><circle cx="602.5" cy="199.2" r="3" fill="#3b82f6"/><circle cx="620.0" cy="199.4" r="3" fill="#3b82f6"/><circle cx="637.5" cy="199.5" r="3" fill="#3b82f6"/><circle cx="655.0" cy="199.7" r="3" fill="#3b82f6"/><circle cx="672.5" cy="199.8" r="3" fill="#3b82f6"/><circle cx="690.0" cy="200.0" r="3" fill="#3b82f6"/><circle cx="707.5" cy="200.1" r="3" fill="#3b82f6"/><circle cx="725.0" cy="200.2" r="3" fill="#3b82f6"/><circle cx="742.5" cy="200.4" r="3" fill="#3b82f6"/><circle cx="760.0" cy="200.7" r="3" fill="#3b82f6"/>

  <!-- X ekseni -->
  <text x="60.0" y="380" text-anchor="middle" font-size="10" fill="#888">14.05.2026</text>
  <text x="165.0" y="380" text-anchor="middle" font-size="10" fill="#888">20.05.2026</text>
  <text x="270.0" y="380" text-anchor="middle" font-size="10" fill="#888">26.05.2026</text>
  <text x="375.0" y="380" text-anchor="middle" font-size="10" fill="#888">01.06.2026</text>
  <text x="480.0" y="380" text-anchor="middle" font-size="10" fill="#888">07.06.2026</text>
  <text x="585.0" y="380" text-anchor="middle" font-size="10" fill="#888">13.06.2026</text>
  <text x="690.0" y="380" text-anchor="middle" font-size="10" fill="#888">19.06.2026</text>

  <!-- Legend -->
  <g transform="translate(60, 345)">
    <rect x="0" y="0" width="12" height="12" fill="#22c55e" rx="2"/>
    <text x="18" y="10" font-size="11" fill="#c9d1d9">Toplam Doluluk</text>
    <rect x="140" y="0" width="12" height="12" fill="#3b82f6" rx="2"/>
    <text x="158" y="10" font-size="11" fill="#c9d1d9">Aktif Doluluk</text>
  </g>
</svg>