<svg xmlns="http://www.w3.org/2000/svg" viewBox="0 0 800 400" width="100%" style="max-width:800px;">
  <rect width="800" height="400" fill="#0d1117" rx="6"/>
  <text x="400.0" y="25" text-anchor="middle" font-size="16" font-weight="bold" fill="#c9d1d9">Son 30 Gün - Günlük Ortalama</text>

  <!-- Y grid -->
  <line x1="60" y1="320.0" x2="760" y2="320.0" stroke="#333" stroke-width="1" stroke-dasharray="4,4" opacity="0.5"/>
  <text x="50" y="320.0" text-anchor="end" dominant-baseline="middle" font-size="10" fill="#888">0%</text>
  <line x1="60" y1="264.0" x2="760" y2="264.0" stroke="#333" stroke-width="1" stroke-dasharray="4,4" opacity="0.5"/>
  <text x="50" y="264.0" text-anchor="end" dominant-baseline="middle" font-size="10" fill="#888">20%</text>
  <line x1="60" y1="208.0" x2="760" y2="208.0" stroke="#333" stroke-width="1" stroke-dasharray="4,4" opacity="0.5"/>
  <text x="50" y="208.0" text-anchor="end" dominant-baseline="middle" font-size="10" fill="#888">40%</text>
  <line x1="60" y1="152.0" x2="760" y2="152.0" stroke="#333" stroke-width="1" stroke-dasharray="4,4" opacity="0.5"/>
  <text x="50" y="152.0" text-anchor="end" dominant-baseline="middle" font-size="10" fill="#888">60%</text>
  <line x1="60" y1="96.0" x2="760" y2="96.0" stroke="#333" stroke-width="1" stroke-dasharray="4,4" opacity="0.5"/>
  <text x="50" y="96.0" text-anchor="end" dominant-baseline="middle" font-size="10" fill="#888">80%</text>
  <line x1="60" y1="40.0" x2="760" y2="40.0" stroke="#333" stroke-width="1" stroke-dasharray="4,4" opacity="0.5"/>
  <text x="50" y="40.0" text-anchor="end" dominant-baseline="middle" font-size="10" fill="#888">100%</text>

  <!-- Referans çizgileri -->
  <line x1="60" y1="236.0" x2="760" y2="236.0" stroke="#ef4444" stroke-width="1" stroke-dasharray="2,2" opacity="0.7"/>
  <text x="745" y="236.0" dominant-baseline="middle" font-size="9" fill="#ef4444">Kritik (30%)</text>
  <line x1="60" y1="180.0" x2="760" y2="180.0" stroke="#eab308" stroke-width="1" stroke-dasharray="2,2" opacity="0.7"/>
  <text x="745" y="180.0" dominant-baseline="middle" font-size="9" fill="#eab308">Normal (50%)</text>

  <!-- Toplam doluluk -->
  <polyline points="60.0,193.2 90.4,192.5 120.9,192.0 151.3,191.6 181.7,191.1 212.2,190.8 242.6,190.4 273.0,190.1 303.5,189.6 333.9,188.8 364.3,187.8 394.8,187.0 425.2,186.2 455.7,185.6 486.1,185.0 516.5,184.3 547.0,183.6 577.4,183.2 607.8,182.9 638.3,182.7 668.7,182.7 699.1,182.4 729.6,182.3 760.0,182.3" fill="none" stroke="#22c55e" stroke-width="2.5" stroke-linecap="round" stroke-linejoin="round"/>
  <polyline points="60.0,193.2 90.4,192.5 120.9,192.0 151.3,191.6 181.7,191.1 212.2,190.8 242.6,190.4 273.0,190.1 303.5,189.6 333.9,188.8 364.3,187.8 394.8,187.0 425.2,186.2 455.7,185.6 486.1,185.0 516.5,184.3 547.0,183.6 577.4,183.2 607.8,182.9 638.3,182.7 668.7,182.7 699.1,182.4 729.6,182.3 760.0,182.3" fill="none" stroke="#22c55e" stroke-width="5" opacity="0.1" stroke-linecap="round" stroke-linejoin="round"/>

  <!-- Aktif doluluk -->
  <polyline points="60.0,211.1 90.4,210.2 120.9,209.7 151.3,209.2 181.7,208.7 212.2,208.3 242.6,207.9 273.0,207.5 303.5,207.0 333.9,206.2 364.3,205.0 394.8,204.1 425.2,203.2 455.7,202.5 486.1,201.9 516.5,201.0 547.0,200.3 577.4,199.9 607.8,199.6 638.3,199.4 668.7,199.3 699.1,199.0 729.6,198.9 760.0,198.9" fill="none" stroke="#3b82f6" stroke-width="2.5" stroke-linecap="round" stroke-linejoin="round"/>
  <polyline points="60.0,211.1 90.4,210.2 120.9,209.7 151.3,209.2 181.7,208.7 212.2,208.3 242.6,207.9 273.0,207.5 303.5,207.0 333.9,206.2 364.3,205.0 394.8,204.1 425.2,203.2 455.7,202.5 486.1,201.9 516.5,201.0 547.0,200.3 577.4,199.9 607.8,199.6 638.3,199.4 668.7,199.3 699.1,199.0 729.6,198.9 760.0,198.9" fill="none" stroke="#3b82f6" stroke-width="5" opacity="0.1" stroke-linecap="round" stroke-linejoin="round"/>

  <!-- Noktalar -->
  <circle cx="60.0" cy="193.2" r="3" fill="#22c55e"/><circle cx="90.4" cy="192.5" r="3" fill="#22c55e"/><circle cx="120.9" cy="192.0" r="3" fill="#22c55e"/><circle cx="151.3" cy="191.6" r="3" fill="#22c55e"/><circle cx="181.7" cy="191.1" r="3" fill="#22c55e"/><circle cx="212.2" cy="190.8" r="3" fill="#22c55e"/><circle cx="242.6" cy="190.4" r="3" fill="#22c55e"/><circle cx="273.0" cy="190.1" r="3" fill="#22c55e"/><circle cx="303.5" cy="189.6" r="3" fill="#22c55e"/><circle cx="333.9" cy="188.8" r="3" fill="#22c55e"/><circle cx="364.3" cy="187.8" r="3" fill="#22c55e"/><circle cx="394.8" cy="187.0" r="3" fill="#22c55e"/><circle cx="425.2" cy="186.2" r="3" fill="#22c55e"/><circle cx="455.7" cy="185.6" r="3" fill="#22c55e"/><circle cx="486.1" cy="185.0" r="3" fill="#22c55e"/><circle cx="516.5" cy="184.3" r="3" fill="#22c55e"/><circle cx="547.0" cy="183.6" r="3" fill="#22c55e"/><circle cx="577.4" cy="183.2" r="3" fill="#22c55e"/><circle cx="607.8" cy="182.9" r="3" fill="#22c55e"/><circle cx="638.3" cy="182.7" r="3" fill="#22c55e"/><circle cx="668.7" cy="182.7" r="3" fill="#22c55e"/><circle cx="699.1" cy="182.4" r="3" fill="#22c55e"/><circle cx="729.6" cy="182.3" r="3" fill="#22c55e"/><circle cx="760.0" cy="182.3" r="3" fill="#22c55e"/>
  <circle cx="60.0" cy="211.1" r="3" fill="#3b82f6"/><circle cx="90.4" cy="210.2" r="3" fill="#3b82f6"/><circle cx="120.9" cy="209.7" r="3" fill="#3b82f6"/><circle cx="151.3" cy="209.2" r="3" fill="#3b82f6"/><circle cx="181.7" cy="208.7" r="3" fill="#3b82f6"/><circle cx="212.2" cy="208.3" r="3" fill="#3b82f6"/><circle cx="242.6" cy="207.9" r="3" fill="#3b82f6"/><circle cx="273.0" cy="207.5" r="3" fill="#3b82f6"/><circle cx="303.5" cy="207.0" r="3" fill="#3b82f6"/><circle cx="333.9" cy="206.2" r="3" fill="#3b82f6"/><circle cx="364.3" cy="205.0" r="3" fill="#3b82f6"/><circle cx="394.8" cy="204.1" r="3" fill="#3b82f6"/><circle cx="425.2" cy="203.2" r="3" fill="#3b82f6"/><circle cx="455.7" cy="202.5" r="3" fill="#3b82f6"/><circle cx="486.1" cy="201.9" r="3" fill="#3b82f6"/><circle cx="516.5" cy="201.0" r="3" fill="#3b82f6"/><circle cx="547.0" cy="200.3" r="3" fill="#3b82f6"/><circle cx="577.4" cy="199.9" r="3" fill="#3b82f6"/><circle cx="607.8" cy="199.6" r="3" fill="#3b82f6"/><circle cx="638.3" cy="199.4" r="3" fill="#3b82f6"/><circle cx="668.7" cy="199.3" r="3" fill="#3b82f6"/><circle cx="699.1" cy="199.0" r="3" fill="#3b82f6"/><circle cx="729.6" cy="198.9" r="3" fill="#3b82f6"/><circle cx="760.0" cy="198.9" r="3" fill="#3b82f6"/>

  <!-- X ekseni -->
  <text x="60.0" y="380" text-anchor="middle" font-size="10" fill="#888">14.05 00:00</text>
  <text x="181.7" y="380" text-anchor="middle" font-size="10" fill="#888">18.05 00:00</text>
  <text x="303.5" y="380" text-anchor="middle" font-size="10" fill="#888">22.05 00:00</text>
  <text x="425.2" y="380" text-anchor="middle" font-size="10" fill="#888">26.05 00:00</text>
  <text x="547.0" y="380" text-anchor="middle" font-size="10" fill="#888">30.05 00:00</text>
  <text x="668.7" y="380" text-anchor="middle" font-size="10" fill="#888">03.06 00:00</text>

  <!-- Legend -->
  <g transform="translate(60, 345)">
    <rect x="0" y="0" width="12" height="12" fill="#22c55e" rx="2"/>
    <text x="18" y="10" font-size="11" fill="#c9d1d9">Toplam Doluluk</text>
    <rect x="140" y="0" width="12" height="12" fill="#3b82f6" rx="2"/>
    <text x="158" y="10" font-size="11" fill="#c9d1d9">Aktif Doluluk</text>
  </g>
</svg>