<svg xmlns="http://www.w3.org/2000/svg" viewBox="0 0 800 400" width="100%" style="max-width:800px;">
  <rect width="800" height="400" fill="#0d1117" rx="6"/>
  <text x="400.0" y="25" text-anchor="middle" font-size="16" font-weight="bold" fill="#c9d1d9">Son 90 Gün - Günlük Ortalama</text>

  <!-- Y grid -->
  <line x1="60" y1="320.0" x2="760" y2="320.0" stroke="#333" stroke-width="1" stroke-dasharray="4,4" opacity="0.5"/>
  <text x="50" y="320.0" text-anchor="end" dominant-baseline="middle" font-size="10" fill="#888">0%</text>
  <line x1="60" y1="264.0" x2="760" y2="264.0" stroke="#333" stroke-width="1" stroke-dasharray="4,4" opacity="0.5"/>
  <text x="50" y="264.0" text-anchor="end" dominant-baseline="middle" font-size="10" fill="#888">20%</text>
  <line x1="60" y1="208.0" x2="760" y2="208.0" stroke="#333" stroke-width="1" stroke-dasharray="4,4" opacity="0.5"/>
  <text x="50" y="208.0" text-anchor="end" dominant-baseline="middle" font-size="10" fill="#888">40%</text>
  <line x1="60" y1="152.0" x2="760" y2="152.0" stroke="#333" stroke-width="1" stroke-dasharray="4,4" opacity="0.5"/>
  <text x="50" y="152.0" text-anchor="end" dominant-baseline="middle" font-size="10" fill="#888">60%</text>
  <line x1="60" y1="96.0" x2="760" y2="96.0" stroke="#333" stroke-width="1" stroke-dasharray="4,4" opacity="0.5"/>
  <text x="50" y="96.0" text-anchor="end" dominant-baseline="middle" font-size="10" fill="#888">80%</text>
  <line x1="60" y1="40.0" x2="760" y2="40.0" stroke="#333" stroke-width="1" stroke-dasharray="4,4" opacity="0.5"/>
  <text x="50" y="40.0" text-anchor="end" dominant-baseline="middle" font-size="10" fill="#888">100%</text>

  <!-- Referans çizgileri -->
  <line x1="60" y1="236.0" x2="760" y2="236.0" stroke="#ef4444" stroke-width="1" stroke-dasharray="2,2" opacity="0.7"/>
  <text x="745" y="236.0" dominant-baseline="middle" font-size="9" fill="#ef4444">Kritik (30%)</text>
  <line x1="60" y1="180.0" x2="760" y2="180.0" stroke="#eab308" stroke-width="1" stroke-dasharray="2,2" opacity="0.7"/>
  <text x="745" y="180.0" dominant-baseline="middle" font-size="9" fill="#eab308">Normal (50%)</text>

  <!-- Toplam doluluk -->
  <polyline points="60.0,193.2 70.3,192.5 80.6,192.0 90.9,191.6 101.2,191.1 111.5,190.8 121.8,190.4 132.1,190.1 142.4,189.6 152.6,188.8 162.9,187.8 173.2,187.0 183.5,186.2 193.8,185.6 204.1,185.0 214.4,184.3 224.7,183.6 235.0,183.2 245.3,182.9 255.6,182.7 265.9,182.7 276.2,182.4 286.5,182.3 296.8,182.3 307.1,182.2 317.4,182.2 327.6,182.2 337.9,182.2 348.2,182.3 358.5,182.4 368.8,182.5 379.1,182.6 389.4,182.7 399.7,182.9 410.0,183.1 420.3,183.2 430.6,183.3 440.9,183.4 451.2,183.5 461.5,183.7 471.8,183.9 482.1,184.2 492.4,184.4 502.6,184.7 512.9,185.0 523.2,185.3 533.5,185.6 543.8,186.0 554.1,186.3 564.4,186.6 574.7,187.0 585.0,187.3 595.3,187.6 605.6,188.0 615.9,188.3 626.2,188.6 636.5,189.0 646.8,189.3 657.1,189.6 667.4,189.9 677.6,190.2 687.9,190.5 698.2,190.8 708.5,191.1 718.8,191.4 729.1,191.6 739.4,192.0 749.7,192.3 760.0,192.6" fill="none" stroke="#22c55e" stroke-width="2.5" stroke-linecap="round" stroke-linejoin="round"/>
  <polyline points="60.0,193.2 70.3,192.5 80.6,192.0 90.9,191.6 101.2,191.1 111.5,190.8 121.8,190.4 132.1,190.1 142.4,189.6 152.6,188.8 162.9,187.8 173.2,187.0 183.5,186.2 193.8,185.6 204.1,185.0 214.4,184.3 224.7,183.6 235.0,183.2 245.3,182.9 255.6,182.7 265.9,182.7 276.2,182.4 286.5,182.3 296.8,182.3 307.1,182.2 317.4,182.2 327.6,182.2 337.9,182.2 348.2,182.3 358.5,182.4 368.8,182.5 379.1,182.6 389.4,182.7 399.7,182.9 410.0,183.1 420.3,183.2 430.6,183.3 440.9,183.4 451.2,183.5 461.5,183.7 471.8,183.9 482.1,184.2 492.4,184.4 502.6,184.7 512.9,185.0 523.2,185.3 533.5,185.6 543.8,186.0 554.1,186.3 564.4,186.6 574.7,187.0 585.0,187.3 595.3,187.6 605.6,188.0 615.9,188.3 626.2,188.6 636.5,189.0 646.8,189.3 657.1,189.6 667.4,189.9 677.6,190.2 687.9,190.5 698.2,190.8 708.5,191.1 718.8,191.4 729.1,191.6 739.4,192.0 749.7,192.3 760.0,192.6" fill="none" stroke="#22c55e" stroke-width="5" opacity="0.1" stroke-linecap="round" stroke-linejoin="round"/>

  <!-- Aktif doluluk -->
  <polyline points="60.0,211.1 70.3,210.2 80.6,209.7 90.9,209.2 101.2,208.7 111.5,208.3 121.8,207.9 132.1,207.5 142.4,207.0 152.6,206.2 162.9,205.0 173.2,204.1 183.5,203.2 193.8,202.5 204.1,201.9 214.4,201.0 224.7,200.3 235.0,199.9 245.3,199.6 255.6,199.4 265.9,199.3 276.2,199.0 286.5,198.9 296.8,198.9 307.1,198.7 317.4,198.7 327.6,198.8 337.9,198.8 348.2,198.8 358.5,198.9 368.8,199.0 379.1,199.2 389.4,199.4 399.7,199.5 410.0,199.7 420.3,199.8 430.6,200.0 440.9,200.1 451.2,200.2 461.5,200.4 471.8,200.7 482.1,201.0 492.4,201.3 502.6,201.6 512.9,201.8 523.2,202.2 533.5,202.6 543.8,203.0 554.1,203.3 564.4,203.7 574.7,204.1 585.0,204.4 595.3,204.8 605.6,205.2 615.9,205.5 626.2,205.9 636.5,206.3 646.8,206.7 657.1,207.0 667.4,207.4 677.6,207.7 687.9,208.0 698.2,208.3 708.5,208.7 718.8,209.0 729.1,209.3 739.4,209.7 749.7,210.0 760.0,210.4" fill="none" stroke="#3b82f6" stroke-width="2.5" stroke-linecap="round" stroke-linejoin="round"/>
  <polyline points="60.0,211.1 70.3,210.2 80.6,209.7 90.9,209.2 101.2,208.7 111.5,208.3 121.8,207.9 132.1,207.5 142.4,207.0 152.6,206.2 162.9,205.0 173.2,204.1 183.5,203.2 193.8,202.5 204.1,201.9 214.4,201.0 224.7,200.3 235.0,199.9 245.3,199.6 255.6,199.4 265.9,199.3 276.2,199.0 286.5,198.9 296.8,198.9 307.1,198.7 317.4,198.7 327.6,198.8 337.9,198.8 348.2,198.8 358.5,198.9 368.8,199.0 379.1,199.2 389.4,199.4 399.7,199.5 410.0,199.7 420.3,199.8 430.6,200.0 440.9,200.1 451.2,200.2 461.5,200.4 471.8,200.7 482.1,201.0 492.4,201.3 502.6,201.6 512.9,201.8 523.2,202.2 533.5,202.6 543.8,203.0 554.1,203.3 564.4,203.7 574.7,204.1 585.0,204.4 595.3,204.8 605.6,205.2 615.9,205.5 626.2,205.9 636.5,206.3 646.8,206.7 657.1,207.0 667.4,207.4 677.6,207.7 687.9,208.0 698.2,208.3 708.5,208.7 718.8,209.0 729.1,209.3 739.4,209.7 749.7,210.0 760.0,210.4" fill="none" stroke="#3b82f6" stroke-width="5" opacity="0.1" stroke-linecap="round" stroke-linejoin="round"/>

  <!-- Noktalar -->
  <circle cx="60.0" cy="193.2" r="3" fill="#22c55e"/><circle cx="70.3" cy="192.5" r="3" fill="#22c55e"/><circle cx="80.6" cy="192.0" r="3" fill="#22c55e"/><circle cx="90.9" cy="191.6" r="3" fill="#22c55e"/><circle cx="101.2" cy="191.1" r="3" fill="#22c55e"/><circle cx="111.5" cy="190.8" r="3" fill="#22c55e"/><circle cx="121.8" cy="190.4" r="3" fill="#22c55e"/><circle cx="132.1" cy="190.1" r="3" fill="#22c55e"/><circle cx="142.4" cy="189.6" r="3" fill="#22c55e"/><circle cx="152.6" cy="188.8" r="3" fill="#22c55e"/><circle cx="162.9" cy="187.8" r="3" fill="#22c55e"/><circle cx="173.2" cy="187.0" r="3" fill="#22c55e"/><circle cx="183.5" cy="186.2" r="3" fill="#22c55e"/><circle cx="193.8" cy="185.6" r="3" fill="#22c55e"/><circle cx="204.1" cy="185.0" r="3" fill="#22c55e"/><circle cx="214.4" cy="184.3" r="3" fill="#22c55e"/><circle cx="224.7" cy="183.6" r="3" fill="#22c55e"/><circle cx="235.0" cy="183.2" r="3" fill="#22c55e"/><circle cx="245.3" cy="182.9" r="3" fill="#22c55e"/><circle cx="255.6" cy="182.7" r="3" fill="#22c55e"/><circle cx="265.9" cy="182.7" r="3" fill="#22c55e"/><circle cx="276.2" cy="182.4" r="3" fill="#22c55e"/><circle cx="286.5" cy="182.3" r="3" fill="#22c55e"/><circle cx="296.8" cy="182.3" r="3" fill="#22c55e"/><circle cx="307.1" cy="182.2" r="3" fill="#22c55e"/><circle cx="317.4" cy="182.2" r="3" fill="#22c55e"/><circle cx="327.6" cy="182.2" r="3" fill="#22c55e"/><circle cx="337.9" cy="182.2" r="3" fill="#22c55e"/><circle cx="348.2" cy="182.3" r="3" fill="#22c55e"/><circle cx="358.5" cy="182.4" r="3" fill="#22c55e"/><circle cx="368.8" cy="182.5" r="3" fill="#22c55e"/><circle cx="379.1" cy="182.6" r="3" fill="#22c55e"/><circle cx="389.4" cy="182.7" r="3" fill="#22c55e"/><circle cx="399.7" cy="182.9" r="3" fill="#22c55e"/><circle cx="410.0" cy="183.1" r="3" fill="#22c55e"/><circle cx="420.3" cy="183.2" r="3" fill="#22c55e"/><circle cx="430.6" cy="183.3" r="3" fill="#22c55e"/><circle cx="440.9" cy="183.4" r="3" fill="#22c55e"/><circle cx="451.2" cy="183.5" r="3" fill="#22c55e"/><circle cx="461.5" cy="183.7" r="3" fill="#22c55e"/><circle cx="471.8" cy="183.9" r="3" fill="#22c55e"/><circle cx="482.1" cy="184.2" r="3" fill="#22c55e"/><circle cx="492.4" cy="184.4" r="3" fill="#22c55e"/><circle cx="502.6" cy="184.7" r="3" fill="#22c55e"/><circle cx="512.9" cy="185.0" r="3" fill="#22c55e"/><circle cx="523.2" cy="185.3" r="3" fill="#22c55e"/><circle cx="533.5" cy="185.6" r="3" fill="#22c55e"/><circle cx="543.8" cy="186.0" r="3" fill="#22c55e"/><circle cx="554.1" cy="186.3" r="3" fill="#22c55e"/><circle cx="564.4" cy="186.6" r="3" fill="#22c55e"/><circle cx="574.7" cy="187.0" r="3" fill="#22c55e"/><circle cx="585.0" cy="187.3" r="3" fill="#22c55e"/><circle cx="595.3" cy="187.6" r="3" fill="#22c55e"/><circle cx="605.6" cy="188.0" r="3" fill="#22c55e"/><circle cx="615.9" cy="188.3" r="3" fill="#22c55e"/><circle cx="626.2" cy="188.6" r="3" fill="#22c55e"/><circle cx="636.5" cy="189.0" r="3" fill="#22c55e"/><circle cx="646.8" cy="189.3" r="3" fill="#22c55e"/><circle cx="657.1" cy="189.6" r="3" fill="#22c55e"/><circle cx="667.4" cy="189.9" r="3" fill="#22c55e"/><circle cx="677.6" cy="190.2" r="3" fill="#22c55e"/><circle cx="687.9" cy="190.5" r="3" fill="#22c55e"/><circle cx="698.2" cy="190.8" r="3" fill="#22c55e"/><circle cx="708.5" cy="191.1" r="3" fill="#22c55e"/><circle cx="718.8" cy="191.4" r="3" fill="#22c55e"/><circle cx="729.1" cy="191.6" r="3" fill="#22c55e"/><circle cx="739.4" cy="192.0" r="3" fill="#22c55e"/><circle cx="749.7" cy="192.3" r="3" fill="#22c55e"/><circle cx="760.0" cy="192.6" r="3" fill="#22c55e"/>
  <circle cx="60.0" cy="211.1" r="3" fill="#3b82f6"/><circle cx="70.3" cy="210.2" r="3" fill="#3b82f6"/><circle cx="80.6" cy="209.7" r="3" fill="#3b82f6"/><circle cx="90.9" cy="209.2" r="3" fill="#3b82f6"/><circle cx="101.2" cy="208.7" r="3" fill="#3b82f6"/><circle cx="111.5" cy="208.3" r="3" fill="#3b82f6"/><circle cx="121.8" cy="207.9" r="3" fill="#3b82f6"/><circle cx="132.1" cy="207.5" r="3" fill="#3b82f6"/><circle cx="142.4" cy="207.0" r="3" fill="#3b82f6"/><circle cx="152.6" cy="206.2" r="3" fill="#3b82f6"/><circle cx="162.9" cy="205.0" r="3" fill="#3b82f6"/><circle cx="173.2" cy="204.1" r="3" fill="#3b82f6"/><circle cx="183.5" cy="203.2" r="3" fill="#3b82f6"/><circle cx="193.8" cy="202.5" r="3" fill="#3b82f6"/><circle cx="204.1" cy="201.9" r="3" fill="#3b82f6"/><circle cx="214.4" cy="201.0" r="3" fill="#3b82f6"/><circle cx="224.7" cy="200.3" r="3" fill="#3b82f6"/><circle cx="235.0" cy="199.9" r="3" fill="#3b82f6"/><circle cx="245.3" cy="199.6" r="3" fill="#3b82f6"/><circle cx="255.6" cy="199.4" r="3" fill="#3b82f6"/><circle cx="265.9" cy="199.3" r="3" fill="#3b82f6"/><circle cx="276.2" cy="199.0" r="3" fill="#3b82f6"/><circle cx="286.5" cy="198.9" r="3" fill="#3b82f6"/><circle cx="296.8" cy="198.9" r="3" fill="#3b82f6"/><circle cx="307.1" cy="198.7" r="3" fill="#3b82f6"/><circle cx="317.4" cy="198.7" r="3" fill="#3b82f6"/><circle cx="327.6" cy="198.8" r="3" fill="#3b82f6"/><circle cx="337.9" cy="198.8" r="3" fill="#3b82f6"/><circle cx="348.2" cy="198.8" r="3" fill="#3b82f6"/><circle cx="358.5" cy="198.9" r="3" fill="#3b82f6"/><circle cx="368.8" cy="199.0" r="3" fill="#3b82f6"/><circle cx="379.1" cy="199.2" r="3" fill="#3b82f6"/><circle cx="389.4" cy="199.4" r="3" fill="#3b82f6"/><circle cx="399.7" cy="199.5" r="3" fill="#3b82f6"/><circle cx="410.0" cy="199.7" r="3" fill="#3b82f6"/><circle cx="420.3" cy="199.8" r="3" fill="#3b82f6"/><circle cx="430.6" cy="200.0" r="3" fill="#3b82f6"/><circle cx="440.9" cy="200.1" r="3" fill="#3b82f6"/><circle cx="451.2" cy="200.2" r="3" fill="#3b82f6"/><circle cx="461.5" cy="200.4" r="3" fill="#3b82f6"/><circle cx="471.8" cy="200.7" r="3" fill="#3b82f6"/><circle cx="482.1" cy="201.0" r="3" fill="#3b82f6"/><circle cx="492.4" cy="201.3" r="3" fill="#3b82f6"/><circle cx="502.6" cy="201.6" r="3" fill="#3b82f6"/><circle cx="512.9" cy="201.8" r="3" fill="#3b82f6"/><circle cx="523.2" cy="202.2" r="3" fill="#3b82f6"/><circle cx="533.5" cy="202.6" r="3" fill="#3b82f6"/><circle cx="543.8" cy="203.0" r="3" fill="#3b82f6"/><circle cx="554.1" cy="203.3" r="3" fill="#3b82f6"/><circle cx="564.4" cy="203.7" r="3" fill="#3b82f6"/><circle cx="574.7" cy="204.1" r="3" fill="#3b82f6"/><circle cx="585.0" cy="204.4" r="3" fill="#3b82f6"/><circle cx="595.3" cy="204.8" r="3" fill="#3b82f6"/><circle cx="605.6" cy="205.2" r="3" fill="#3b82f6"/><circle cx="615.9" cy="205.5" r="3" fill="#3b82f6"/><circle cx="626.2" cy="205.9" r="3" fill="#3b82f6"/><circle cx="636.5" cy="206.3" r="3" fill="#3b82f6"/><circle cx="646.8" cy="206.7" r="3" fill="#3b82f6"/><circle cx="657.1" cy="207.0" r="3" fill="#3b82f6"/><circle cx="667.4" cy="207.4" r="3" fill="#3b82f6"/><circle cx="677.6" cy="207.7" r="3" fill="#3b82f6"/><circle cx="687.9" cy="208.0" r="3" fill="#3b82f6"/><circle cx="698.2" cy="208.3" r="3" fill="#3b82f6"/><circle cx="708.5" cy="208.7" r="3" fill="#3b82f6"/><circle cx="718.8" cy="209.0" r="3" fill="#3b82f6"/><circle cx="729.1" cy="209.3" r="3" fill="#3b82f6"/><circle cx="739.4" cy="209.7" r="3" fill="#3b82f6"/><circle cx="749.7" cy="210.0" r="3" fill="#3b82f6"/><circle cx="760.0" cy="210.4" r="3" fill="#3b82f6"/>

  <!-- X ekseni -->
  <text x="60.0" y="380" text-anchor="middle" font-size="10" fill="#888">14.05.2026</text>
  <text x="173.2" y="380" text-anchor="middle" font-size="10" fill="#888">25.05.2026</text>
  <text x="286.5" y="380" text-anchor="middle" font-size="10" fill="#888">05.06.2026</text>
  <text x="399.7" y="380" text-anchor="middle" font-size="10" fill="#888">16.06.2026</text>
  <text x="512.9" y="380" text-anchor="middle" font-size="10" fill="#888">27.06.2026</text>
  <text x="626.2" y="380" text-anchor="middle" font-size="10" fill="#888">08.07.2026</text>
  <text x="739.4" y="380" text-anchor="middle" font-size="10" fill="#888">19.07.2026</text>

  <!-- Legend -->
  <g transform="translate(60, 345)">
    <rect x="0" y="0" width="12" height="12" fill="#22c55e" rx="2"/>
    <text x="18" y="10" font-size="11" fill="#c9d1d9">Toplam Doluluk</text>
    <rect x="140" y="0" width="12" height="12" fill="#3b82f6" rx="2"/>
    <text x="158" y="10" font-size="11" fill="#c9d1d9">Aktif Doluluk</text>
  </g>
</svg>