<svg xmlns="http://www.w3.org/2000/svg" viewBox="0 0 800 400" width="100%" style="max-width:800px;">
  <rect width="800" height="400" fill="#0d1117" rx="6"/>
  <text x="400.0" y="25" text-anchor="middle" font-size="16" font-weight="bold" fill="#c9d1d9">Son 90 Gün - Günlük Ortalama</text>

  <!-- Y grid -->
  <line x1="60" y1="320.0" x2="760" y2="320.0" stroke="#333" stroke-width="1" stroke-dasharray="4,4" opacity="0.5"/>
  <text x="50" y="320.0" text-anchor="end" dominant-baseline="middle" font-size="10" fill="#888">0%</text>
  <line x1="60" y1="264.0" x2="760" y2="264.0" stroke="#333" stroke-width="1" stroke-dasharray="4,4" opacity="0.5"/>
  <text x="50" y="264.0" text-anchor="end" dominant-baseline="middle" font-size="10" fill="#888">20%</text>
  <line x1="60" y1="208.0" x2="760" y2="208.0" stroke="#333" stroke-width="1" stroke-dasharray="4,4" opacity="0.5"/>
  <text x="50" y="208.0" text-anchor="end" dominant-baseline="middle" font-size="10" fill="#888">40%</text>
  <line x1="60" y1="152.0" x2="760" y2="152.0" stroke="#333" stroke-width="1" stroke-dasharray="4,4" opacity="0.5"/>
  <text x="50" y="152.0" text-anchor="end" dominant-baseline="middle" font-size="10" fill="#888">60%</text>
  <line x1="60" y1="96.0" x2="760" y2="96.0" stroke="#333" stroke-width="1" stroke-dasharray="4,4" opacity="0.5"/>
  <text x="50" y="96.0" text-anchor="end" dominant-baseline="middle" font-size="10" fill="#888">80%</text>
  <line x1="60" y1="40.0" x2="760" y2="40.0" stroke="#333" stroke-width="1" stroke-dasharray="4,4" opacity="0.5"/>
  <text x="50" y="40.0" text-anchor="end" dominant-baseline="middle" font-size="10" fill="#888">100%</text>

  <!-- Referans çizgileri -->
  <line x1="60" y1="236.0" x2="760" y2="236.0" stroke="#ef4444" stroke-width="1" stroke-dasharray="2,2" opacity="0.7"/>
  <text x="745" y="236.0" dominant-baseline="middle" font-size="9" fill="#ef4444">Kritik (30%)</text>
  <line x1="60" y1="180.0" x2="760" y2="180.0" stroke="#eab308" stroke-width="1" stroke-dasharray="2,2" opacity="0.7"/>
  <text x="745" y="180.0" dominant-baseline="middle" font-size="9" fill="#eab308">Normal (50%)</text>

  <!-- Toplam doluluk -->
  <polyline points="60.0,193.2 70.4,192.5 80.9,192.0 91.3,191.6 101.8,191.1 112.2,190.8 122.7,190.4 133.1,190.1 143.6,189.6 154.0,188.8 164.5,187.8 174.9,187.0 185.4,186.2 195.8,185.6 206.3,185.0 216.7,184.3 227.2,183.6 237.6,183.2 248.1,182.9 258.5,182.7 269.0,182.7 279.4,182.4 289.9,182.3 300.3,182.3 310.7,182.2 321.2,182.2 331.6,182.2 342.1,182.2 352.5,182.3 363.0,182.4 373.4,182.5 383.9,182.6 394.3,182.7 404.8,182.9 415.2,183.1 425.7,183.2 436.1,183.3 446.6,183.4 457.0,183.5 467.5,183.7 477.9,183.9 488.4,184.2 498.8,184.4 509.3,184.7 519.7,185.0 530.1,185.3 540.6,185.6 551.0,186.0 561.5,186.3 571.9,186.6 582.4,187.0 592.8,187.3 603.3,187.6 613.7,188.0 624.2,188.3 634.6,188.6 645.1,189.0 655.5,189.3 666.0,189.6 676.4,189.9 686.9,190.2 697.3,190.5 707.8,190.8 718.2,191.1 728.7,191.4 739.1,191.6 749.6,192.0 760.0,192.3" fill="none" stroke="#22c55e" stroke-width="2.5" stroke-linecap="round" stroke-linejoin="round"/>
  <polyline points="60.0,193.2 70.4,192.5 80.9,192.0 91.3,191.6 101.8,191.1 112.2,190.8 122.7,190.4 133.1,190.1 143.6,189.6 154.0,188.8 164.5,187.8 174.9,187.0 185.4,186.2 195.8,185.6 206.3,185.0 216.7,184.3 227.2,183.6 237.6,183.2 248.1,182.9 258.5,182.7 269.0,182.7 279.4,182.4 289.9,182.3 300.3,182.3 310.7,182.2 321.2,182.2 331.6,182.2 342.1,182.2 352.5,182.3 363.0,182.4 373.4,182.5 383.9,182.6 394.3,182.7 404.8,182.9 415.2,183.1 425.7,183.2 436.1,183.3 446.6,183.4 457.0,183.5 467.5,183.7 477.9,183.9 488.4,184.2 498.8,184.4 509.3,184.7 519.7,185.0 530.1,185.3 540.6,185.6 551.0,186.0 561.5,186.3 571.9,186.6 582.4,187.0 592.8,187.3 603.3,187.6 613.7,188.0 624.2,188.3 634.6,188.6 645.1,189.0 655.5,189.3 666.0,189.6 676.4,189.9 686.9,190.2 697.3,190.5 707.8,190.8 718.2,191.1 728.7,191.4 739.1,191.6 749.6,192.0 760.0,192.3" fill="none" stroke="#22c55e" stroke-width="5" opacity="0.1" stroke-linecap="round" stroke-linejoin="round"/>

  <!-- Aktif doluluk -->
  <polyline points="60.0,211.1 70.4,210.2 80.9,209.7 91.3,209.2 101.8,208.7 112.2,208.3 122.7,207.9 133.1,207.5 143.6,207.0 154.0,206.2 164.5,205.0 174.9,204.1 185.4,203.2 195.8,202.5 206.3,201.9 216.7,201.0 227.2,200.3 237.6,199.9 248.1,199.6 258.5,199.4 269.0,199.3 279.4,199.0 289.9,198.9 300.3,198.9 310.7,198.7 321.2,198.7 331.6,198.8 342.1,198.8 352.5,198.8 363.0,198.9 373.4,199.0 383.9,199.2 394.3,199.4 404.8,199.5 415.2,199.7 425.7,199.8 436.1,200.0 446.6,200.1 457.0,200.2 467.5,200.4 477.9,200.7 488.4,201.0 498.8,201.3 509.3,201.6 519.7,201.8 530.1,202.2 540.6,202.6 551.0,203.0 561.5,203.3 571.9,203.7 582.4,204.1 592.8,204.4 603.3,204.8 613.7,205.2 624.2,205.5 634.6,205.9 645.1,206.3 655.5,206.7 666.0,207.0 676.4,207.4 686.9,207.7 697.3,208.0 707.8,208.3 718.2,208.7 728.7,209.0 739.1,209.3 749.6,209.7 760.0,210.0" fill="none" stroke="#3b82f6" stroke-width="2.5" stroke-linecap="round" stroke-linejoin="round"/>
  <polyline points="60.0,211.1 70.4,210.2 80.9,209.7 91.3,209.2 101.8,208.7 112.2,208.3 122.7,207.9 133.1,207.5 143.6,207.0 154.0,206.2 164.5,205.0 174.9,204.1 185.4,203.2 195.8,202.5 206.3,201.9 216.7,201.0 227.2,200.3 237.6,199.9 248.1,199.6 258.5,199.4 269.0,199.3 279.4,199.0 289.9,198.9 300.3,198.9 310.7,198.7 321.2,198.7 331.6,198.8 342.1,198.8 352.5,198.8 363.0,198.9 373.4,199.0 383.9,199.2 394.3,199.4 404.8,199.5 415.2,199.7 425.7,199.8 436.1,200.0 446.6,200.1 457.0,200.2 467.5,200.4 477.9,200.7 488.4,201.0 498.8,201.3 509.3,201.6 519.7,201.8 530.1,202.2 540.6,202.6 551.0,203.0 561.5,203.3 571.9,203.7 582.4,204.1 592.8,204.4 603.3,204.8 613.7,205.2 624.2,205.5 634.6,205.9 645.1,206.3 655.5,206.7 666.0,207.0 676.4,207.4 686.9,207.7 697.3,208.0 707.8,208.3 718.2,208.7 728.7,209.0 739.1,209.3 749.6,209.7 760.0,210.0" fill="none" stroke="#3b82f6" stroke-width="5" opacity="0.1" stroke-linecap="round" stroke-linejoin="round"/>

  <!-- Noktalar -->
  <circle cx="60.0" cy="193.2" r="3" fill="#22c55e"/><circle cx="70.4" cy="192.5" r="3" fill="#22c55e"/><circle cx="80.9" cy="192.0" r="3" fill="#22c55e"/><circle cx="91.3" cy="191.6" r="3" fill="#22c55e"/><circle cx="101.8" cy="191.1" r="3" fill="#22c55e"/><circle cx="112.2" cy="190.8" r="3" fill="#22c55e"/><circle cx="122.7" cy="190.4" r="3" fill="#22c55e"/><circle cx="133.1" cy="190.1" r="3" fill="#22c55e"/><circle cx="143.6" cy="189.6" r="3" fill="#22c55e"/><circle cx="154.0" cy="188.8" r="3" fill="#22c55e"/><circle cx="164.5" cy="187.8" r="3" fill="#22c55e"/><circle cx="174.9" cy="187.0" r="3" fill="#22c55e"/><circle cx="185.4" cy="186.2" r="3" fill="#22c55e"/><circle cx="195.8" cy="185.6" r="3" fill="#22c55e"/><circle cx="206.3" cy="185.0" r="3" fill="#22c55e"/><circle cx="216.7" cy="184.3" r="3" fill="#22c55e"/><circle cx="227.2" cy="183.6" r="3" fill="#22c55e"/><circle cx="237.6" cy="183.2" r="3" fill="#22c55e"/><circle cx="248.1" cy="182.9" r="3" fill="#22c55e"/><circle cx="258.5" cy="182.7" r="3" fill="#22c55e"/><circle cx="269.0" cy="182.7" r="3" fill="#22c55e"/><circle cx="279.4" cy="182.4" r="3" fill="#22c55e"/><circle cx="289.9" cy="182.3" r="3" fill="#22c55e"/><circle cx="300.3" cy="182.3" r="3" fill="#22c55e"/><circle cx="310.7" cy="182.2" r="3" fill="#22c55e"/><circle cx="321.2" cy="182.2" r="3" fill="#22c55e"/><circle cx="331.6" cy="182.2" r="3" fill="#22c55e"/><circle cx="342.1" cy="182.2" r="3" fill="#22c55e"/><circle cx="352.5" cy="182.3" r="3" fill="#22c55e"/><circle cx="363.0" cy="182.4" r="3" fill="#22c55e"/><circle cx="373.4" cy="182.5" r="3" fill="#22c55e"/><circle cx="383.9" cy="182.6" r="3" fill="#22c55e"/><circle cx="394.3" cy="182.7" r="3" fill="#22c55e"/><circle cx="404.8" cy="182.9" r="3" fill="#22c55e"/><circle cx="415.2" cy="183.1" r="3" fill="#22c55e"/><circle cx="425.7" cy="183.2" r="3" fill="#22c55e"/><circle cx="436.1" cy="183.3" r="3" fill="#22c55e"/><circle cx="446.6" cy="183.4" r="3" fill="#22c55e"/><circle cx="457.0" cy="183.5" r="3" fill="#22c55e"/><circle cx="467.5" cy="183.7" r="3" fill="#22c55e"/><circle cx="477.9" cy="183.9" r="3" fill="#22c55e"/><circle cx="488.4" cy="184.2" r="3" fill="#22c55e"/><circle cx="498.8" cy="184.4" r="3" fill="#22c55e"/><circle cx="509.3" cy="184.7" r="3" fill="#22c55e"/><circle cx="519.7" cy="185.0" r="3" fill="#22c55e"/><circle cx="530.1" cy="185.3" r="3" fill="#22c55e"/><circle cx="540.6" cy="185.6" r="3" fill="#22c55e"/><circle cx="551.0" cy="186.0" r="3" fill="#22c55e"/><circle cx="561.5" cy="186.3" r="3" fill="#22c55e"/><circle cx="571.9" cy="186.6" r="3" fill="#22c55e"/><circle cx="582.4" cy="187.0" r="3" fill="#22c55e"/><circle cx="592.8" cy="187.3" r="3" fill="#22c55e"/><circle cx="603.3" cy="187.6" r="3" fill="#22c55e"/><circle cx="613.7" cy="188.0" r="3" fill="#22c55e"/><circle cx="624.2" cy="188.3" r="3" fill="#22c55e"/><circle cx="634.6" cy="188.6" r="3" fill="#22c55e"/><circle cx="645.1" cy="189.0" r="3" fill="#22c55e"/><circle cx="655.5" cy="189.3" r="3" fill="#22c55e"/><circle cx="666.0" cy="189.6" r="3" fill="#22c55e"/><circle cx="676.4" cy="189.9" r="3" fill="#22c55e"/><circle cx="686.9" cy="190.2" r="3" fill="#22c55e"/><circle cx="697.3" cy="190.5" r="3" fill="#22c55e"/><circle cx="707.8" cy="190.8" r="3" fill="#22c55e"/><circle cx="718.2" cy="191.1" r="3" fill="#22c55e"/><circle cx="728.7" cy="191.4" r="3" fill="#22c55e"/><circle cx="739.1" cy="191.6" r="3" fill="#22c55e"/><circle cx="749.6" cy="192.0" r="3" fill="#22c55e"/><circle cx="760.0" cy="192.3" r="3" fill="#22c55e"/>
  <circle cx="60.0" cy="211.1" r="3" fill="#3b82f6"/><circle cx="70.4" cy="210.2" r="3" fill="#3b82f6"/><circle cx="80.9" cy="209.7" r="3" fill="#3b82f6"/><circle cx="91.3" cy="209.2" r="3" fill="#3b82f6"/><circle cx="101.8" cy="208.7" r="3" fill="#3b82f6"/><circle cx="112.2" cy="208.3" r="3" fill="#3b82f6"/><circle cx="122.7" cy="207.9" r="3" fill="#3b82f6"/><circle cx="133.1" cy="207.5" r="3" fill="#3b82f6"/><circle cx="143.6" cy="207.0" r="3" fill="#3b82f6"/><circle cx="154.0" cy="206.2" r="3" fill="#3b82f6"/><circle cx="164.5" cy="205.0" r="3" fill="#3b82f6"/><circle cx="174.9" cy="204.1" r="3" fill="#3b82f6"/><circle cx="185.4" cy="203.2" r="3" fill="#3b82f6"/><circle cx="195.8" cy="202.5" r="3" fill="#3b82f6"/><circle cx="206.3" cy="201.9" r="3" fill="#3b82f6"/><circle cx="216.7" cy="201.0" r="3" fill="#3b82f6"/><circle cx="227.2" cy="200.3" r="3" fill="#3b82f6"/><circle cx="237.6" cy="199.9" r="3" fill="#3b82f6"/><circle cx="248.1" cy="199.6" r="3" fill="#3b82f6"/><circle cx="258.5" cy="199.4" r="3" fill="#3b82f6"/><circle cx="269.0" cy="199.3" r="3" fill="#3b82f6"/><circle cx="279.4" cy="199.0" r="3" fill="#3b82f6"/><circle cx="289.9" cy="198.9" r="3" fill="#3b82f6"/><circle cx="300.3" cy="198.9" r="3" fill="#3b82f6"/><circle cx="310.7" cy="198.7" r="3" fill="#3b82f6"/><circle cx="321.2" cy="198.7" r="3" fill="#3b82f6"/><circle cx="331.6" cy="198.8" r="3" fill="#3b82f6"/><circle cx="342.1" cy="198.8" r="3" fill="#3b82f6"/><circle cx="352.5" cy="198.8" r="3" fill="#3b82f6"/><circle cx="363.0" cy="198.9" r="3" fill="#3b82f6"/><circle cx="373.4" cy="199.0" r="3" fill="#3b82f6"/><circle cx="383.9" cy="199.2" r="3" fill="#3b82f6"/><circle cx="394.3" cy="199.4" r="3" fill="#3b82f6"/><circle cx="404.8" cy="199.5" r="3" fill="#3b82f6"/><circle cx="415.2" cy="199.7" r="3" fill="#3b82f6"/><circle cx="425.7" cy="199.8" r="3" fill="#3b82f6"/><circle cx="436.1" cy="200.0" r="3" fill="#3b82f6"/><circle cx="446.6" cy="200.1" r="3" fill="#3b82f6"/><circle cx="457.0" cy="200.2" r="3" fill="#3b82f6"/><circle cx="467.5" cy="200.4" r="3" fill="#3b82f6"/><circle cx="477.9" cy="200.7" r="3" fill="#3b82f6"/><circle cx="488.4" cy="201.0" r="3" fill="#3b82f6"/><circle cx="498.8" cy="201.3" r="3" fill="#3b82f6"/><circle cx="509.3" cy="201.6" r="3" fill="#3b82f6"/><circle cx="519.7" cy="201.8" r="3" fill="#3b82f6"/><circle cx="530.1" cy="202.2" r="3" fill="#3b82f6"/><circle cx="540.6" cy="202.6" r="3" fill="#3b82f6"/><circle cx="551.0" cy="203.0" r="3" fill="#3b82f6"/><circle cx="561.5" cy="203.3" r="3" fill="#3b82f6"/><circle cx="571.9" cy="203.7" r="3" fill="#3b82f6"/><circle cx="582.4" cy="204.1" r="3" fill="#3b82f6"/><circle cx="592.8" cy="204.4" r="3" fill="#3b82f6"/><circle cx="603.3" cy="204.8" r="3" fill="#3b82f6"/><circle cx="613.7" cy="205.2" r="3" fill="#3b82f6"/><circle cx="624.2" cy="205.5" r="3" fill="#3b82f6"/><circle cx="634.6" cy="205.9" r="3" fill="#3b82f6"/><circle cx="645.1" cy="206.3" r="3" fill="#3b82f6"/><circle cx="655.5" cy="206.7" r="3" fill="#3b82f6"/><circle cx="666.0" cy="207.0" r="3" fill="#3b82f6"/><circle cx="676.4" cy="207.4" r="3" fill="#3b82f6"/><circle cx="686.9" cy="207.7" r="3" fill="#3b82f6"/><circle cx="697.3" cy="208.0" r="3" fill="#3b82f6"/><circle cx="707.8" cy="208.3" r="3" fill="#3b82f6"/><circle cx="718.2" cy="208.7" r="3" fill="#3b82f6"/><circle cx="728.7" cy="209.0" r="3" fill="#3b82f6"/><circle cx="739.1" cy="209.3" r="3" fill="#3b82f6"/><circle cx="749.6" cy="209.7" r="3" fill="#3b82f6"/><circle cx="760.0" cy="210.0" r="3" fill="#3b82f6"/>

  <!-- X ekseni -->
  <text x="60.0" y="380" text-anchor="middle" font-size="10" fill="#888">14.05.2026</text>
  <text x="174.9" y="380" text-anchor="middle" font-size="10" fill="#888">25.05.2026</text>
  <text x="289.9" y="380" text-anchor="middle" font-size="10" fill="#888">05.06.2026</text>
  <text x="404.8" y="380" text-anchor="middle" font-size="10" fill="#888">16.06.2026</text>
  <text x="519.7" y="380" text-anchor="middle" font-size="10" fill="#888">27.06.2026</text>
  <text x="634.6" y="380" text-anchor="middle" font-size="10" fill="#888">08.07.2026</text>
  <text x="749.6" y="380" text-anchor="middle" font-size="10" fill="#888">19.07.2026</text>

  <!-- Legend -->
  <g transform="translate(60, 345)">
    <rect x="0" y="0" width="12" height="12" fill="#22c55e" rx="2"/>
    <text x="18" y="10" font-size="11" fill="#c9d1d9">Toplam Doluluk</text>
    <rect x="140" y="0" width="12" height="12" fill="#3b82f6" rx="2"/>
    <text x="158" y="10" font-size="11" fill="#c9d1d9">Aktif Doluluk</text>
  </g>
</svg>