<svg xmlns="http://www.w3.org/2000/svg" viewBox="0 0 800 400" width="100%" style="max-width:800px;">
  <rect width="800" height="400" fill="#0d1117" rx="6"/>
  <text x="400.0" y="25" text-anchor="middle" font-size="16" font-weight="bold" fill="#c9d1d9">Son 90 Gün - Günlük Ortalama</text>

  <!-- Y grid -->
  <line x1="60" y1="320.0" x2="760" y2="320.0" stroke="#333" stroke-width="1" stroke-dasharray="4,4" opacity="0.5"/>
  <text x="50" y="320.0" text-anchor="end" dominant-baseline="middle" font-size="10" fill="#888">0%</text>
  <line x1="60" y1="264.0" x2="760" y2="264.0" stroke="#333" stroke-width="1" stroke-dasharray="4,4" opacity="0.5"/>
  <text x="50" y="264.0" text-anchor="end" dominant-baseline="middle" font-size="10" fill="#888">20%</text>
  <line x1="60" y1="208.0" x2="760" y2="208.0" stroke="#333" stroke-width="1" stroke-dasharray="4,4" opacity="0.5"/>
  <text x="50" y="208.0" text-anchor="end" dominant-baseline="middle" font-size="10" fill="#888">40%</text>
  <line x1="60" y1="152.0" x2="760" y2="152.0" stroke="#333" stroke-width="1" stroke-dasharray="4,4" opacity="0.5"/>
  <text x="50" y="152.0" text-anchor="end" dominant-baseline="middle" font-size="10" fill="#888">60%</text>
  <line x1="60" y1="96.0" x2="760" y2="96.0" stroke="#333" stroke-width="1" stroke-dasharray="4,4" opacity="0.5"/>
  <text x="50" y="96.0" text-anchor="end" dominant-baseline="middle" font-size="10" fill="#888">80%</text>
  <line x1="60" y1="40.0" x2="760" y2="40.0" stroke="#333" stroke-width="1" stroke-dasharray="4,4" opacity="0.5"/>
  <text x="50" y="40.0" text-anchor="end" dominant-baseline="middle" font-size="10" fill="#888">100%</text>

  <!-- Referans çizgileri -->
  <line x1="60" y1="236.0" x2="760" y2="236.0" stroke="#ef4444" stroke-width="1" stroke-dasharray="2,2" opacity="0.7"/>
  <text x="745" y="236.0" dominant-baseline="middle" font-size="9" fill="#ef4444">Kritik (30%)</text>
  <line x1="60" y1="180.0" x2="760" y2="180.0" stroke="#eab308" stroke-width="1" stroke-dasharray="2,2" opacity="0.7"/>
  <text x="745" y="180.0" dominant-baseline="middle" font-size="9" fill="#eab308">Normal (50%)</text>

  <!-- Toplam doluluk -->
  <polyline points="60.0,193.2 74.0,192.5 88.0,192.0 102.0,191.6 116.0,191.1 130.0,190.8 144.0,190.4 158.0,190.1 172.0,189.6 186.0,188.8 200.0,187.8 214.0,187.0 228.0,186.2 242.0,185.6 256.0,185.0 270.0,184.3 284.0,183.6 298.0,183.2 312.0,182.9 326.0,182.7 340.0,182.7 354.0,182.4 368.0,182.3 382.0,182.3 396.0,182.2 410.0,182.2 424.0,182.2 438.0,182.2 452.0,182.3 466.0,182.4 480.0,182.5 494.0,182.6 508.0,182.7 522.0,182.9 536.0,183.1 550.0,183.2 564.0,183.3 578.0,183.4 592.0,183.5 606.0,183.7 620.0,183.9 634.0,184.2 648.0,184.4 662.0,184.7 676.0,185.0 690.0,185.3 704.0,185.6 718.0,186.0 732.0,186.3 746.0,186.6 760.0,187.0" fill="none" stroke="#22c55e" stroke-width="2.5" stroke-linecap="round" stroke-linejoin="round"/>
  <polyline points="60.0,193.2 74.0,192.5 88.0,192.0 102.0,191.6 116.0,191.1 130.0,190.8 144.0,190.4 158.0,190.1 172.0,189.6 186.0,188.8 200.0,187.8 214.0,187.0 228.0,186.2 242.0,185.6 256.0,185.0 270.0,184.3 284.0,183.6 298.0,183.2 312.0,182.9 326.0,182.7 340.0,182.7 354.0,182.4 368.0,182.3 382.0,182.3 396.0,182.2 410.0,182.2 424.0,182.2 438.0,182.2 452.0,182.3 466.0,182.4 480.0,182.5 494.0,182.6 508.0,182.7 522.0,182.9 536.0,183.1 550.0,183.2 564.0,183.3 578.0,183.4 592.0,183.5 606.0,183.7 620.0,183.9 634.0,184.2 648.0,184.4 662.0,184.7 676.0,185.0 690.0,185.3 704.0,185.6 718.0,186.0 732.0,186.3 746.0,186.6 760.0,187.0" fill="none" stroke="#22c55e" stroke-width="5" opacity="0.1" stroke-linecap="round" stroke-linejoin="round"/>

  <!-- Aktif doluluk -->
  <polyline points="60.0,211.1 74.0,210.2 88.0,209.7 102.0,209.2 116.0,208.7 130.0,208.3 144.0,207.9 158.0,207.5 172.0,207.0 186.0,206.2 200.0,205.0 214.0,204.1 228.0,203.2 242.0,202.5 256.0,201.9 270.0,201.0 284.0,200.3 298.0,199.9 312.0,199.6 326.0,199.4 340.0,199.3 354.0,199.0 368.0,198.9 382.0,198.9 396.0,198.7 410.0,198.7 424.0,198.8 438.0,198.8 452.0,198.8 466.0,198.9 480.0,199.0 494.0,199.2 508.0,199.4 522.0,199.5 536.0,199.7 550.0,199.8 564.0,200.0 578.0,200.1 592.0,200.2 606.0,200.4 620.0,200.7 634.0,201.0 648.0,201.3 662.0,201.6 676.0,201.8 690.0,202.2 704.0,202.6 718.0,203.0 732.0,203.3 746.0,203.7 760.0,204.1" fill="none" stroke="#3b82f6" stroke-width="2.5" stroke-linecap="round" stroke-linejoin="round"/>
  <polyline points="60.0,211.1 74.0,210.2 88.0,209.7 102.0,209.2 116.0,208.7 130.0,208.3 144.0,207.9 158.0,207.5 172.0,207.0 186.0,206.2 200.0,205.0 214.0,204.1 228.0,203.2 242.0,202.5 256.0,201.9 270.0,201.0 284.0,200.3 298.0,199.9 312.0,199.6 326.0,199.4 340.0,199.3 354.0,199.0 368.0,198.9 382.0,198.9 396.0,198.7 410.0,198.7 424.0,198.8 438.0,198.8 452.0,198.8 466.0,198.9 480.0,199.0 494.0,199.2 508.0,199.4 522.0,199.5 536.0,199.7 550.0,199.8 564.0,200.0 578.0,200.1 592.0,200.2 606.0,200.4 620.0,200.7 634.0,201.0 648.0,201.3 662.0,201.6 676.0,201.8 690.0,202.2 704.0,202.6 718.0,203.0 732.0,203.3 746.0,203.7 760.0,204.1" fill="none" stroke="#3b82f6" stroke-width="5" opacity="0.1" stroke-linecap="round" stroke-linejoin="round"/>

  <!-- Noktalar -->
  <circle cx="60.0" cy="193.2" r="3" fill="#22c55e"/><circle cx="74.0" cy="192.5" r="3" fill="#22c55e"/><circle cx="88.0" cy="192.0" r="3" fill="#22c55e"/><circle cx="102.0" cy="191.6" r="3" fill="#22c55e"/><circle cx="116.0" cy="191.1" r="3" fill="#22c55e"/><circle cx="130.0" cy="190.8" r="3" fill="#22c55e"/><circle cx="144.0" cy="190.4" r="3" fill="#22c55e"/><circle cx="158.0" cy="190.1" r="3" fill="#22c55e"/><circle cx="172.0" cy="189.6" r="3" fill="#22c55e"/><circle cx="186.0" cy="188.8" r="3" fill="#22c55e"/><circle cx="200.0" cy="187.8" r="3" fill="#22c55e"/><circle cx="214.0" cy="187.0" r="3" fill="#22c55e"/><circle cx="228.0" cy="186.2" r="3" fill="#22c55e"/><circle cx="242.0" cy="185.6" r="3" fill="#22c55e"/><circle cx="256.0" cy="185.0" r="3" fill="#22c55e"/><circle cx="270.0" cy="184.3" r="3" fill="#22c55e"/><circle cx="284.0" cy="183.6" r="3" fill="#22c55e"/><circle cx="298.0" cy="183.2" r="3" fill="#22c55e"/><circle cx="312.0" cy="182.9" r="3" fill="#22c55e"/><circle cx="326.0" cy="182.7" r="3" fill="#22c55e"/><circle cx="340.0" cy="182.7" r="3" fill="#22c55e"/><circle cx="354.0" cy="182.4" r="3" fill="#22c55e"/><circle cx="368.0" cy="182.3" r="3" fill="#22c55e"/><circle cx="382.0" cy="182.3" r="3" fill="#22c55e"/><circle cx="396.0" cy="182.2" r="3" fill="#22c55e"/><circle cx="410.0" cy="182.2" r="3" fill="#22c55e"/><circle cx="424.0" cy="182.2" r="3" fill="#22c55e"/><circle cx="438.0" cy="182.2" r="3" fill="#22c55e"/><circle cx="452.0" cy="182.3" r="3" fill="#22c55e"/><circle cx="466.0" cy="182.4" r="3" fill="#22c55e"/><circle cx="480.0" cy="182.5" r="3" fill="#22c55e"/><circle cx="494.0" cy="182.6" r="3" fill="#22c55e"/><circle cx="508.0" cy="182.7" r="3" fill="#22c55e"/><circle cx="522.0" cy="182.9" r="3" fill="#22c55e"/><circle cx="536.0" cy="183.1" r="3" fill="#22c55e"/><circle cx="550.0" cy="183.2" r="3" fill="#22c55e"/><circle cx="564.0" cy="183.3" r="3" fill="#22c55e"/><circle cx="578.0" cy="183.4" r="3" fill="#22c55e"/><circle cx="592.0" cy="183.5" r="3" fill="#22c55e"/><circle cx="606.0" cy="183.7" r="3" fill="#22c55e"/><circle cx="620.0" cy="183.9" r="3" fill="#22c55e"/><circle cx="634.0" cy="184.2" r="3" fill="#22c55e"/><circle cx="648.0" cy="184.4" r="3" fill="#22c55e"/><circle cx="662.0" cy="184.7" r="3" fill="#22c55e"/><circle cx="676.0" cy="185.0" r="3" fill="#22c55e"/><circle cx="690.0" cy="185.3" r="3" fill="#22c55e"/><circle cx="704.0" cy="185.6" r="3" fill="#22c55e"/><circle cx="718.0" cy="186.0" r="3" fill="#22c55e"/><circle cx="732.0" cy="186.3" r="3" fill="#22c55e"/><circle cx="746.0" cy="186.6" r="3" fill="#22c55e"/><circle cx="760.0" cy="187.0" r="3" fill="#22c55e"/>
  <circle cx="60.0" cy="211.1" r="3" fill="#3b82f6"/><circle cx="74.0" cy="210.2" r="3" fill="#3b82f6"/><circle cx="88.0" cy="209.7" r="3" fill="#3b82f6"/><circle cx="102.0" cy="209.2" r="3" fill="#3b82f6"/><circle cx="116.0" cy="208.7" r="3" fill="#3b82f6"/><circle cx="130.0" cy="208.3" r="3" fill="#3b82f6"/><circle cx="144.0" cy="207.9" r="3" fill="#3b82f6"/><circle cx="158.0" cy="207.5" r="3" fill="#3b82f6"/><circle cx="172.0" cy="207.0" r="3" fill="#3b82f6"/><circle cx="186.0" cy="206.2" r="3" fill="#3b82f6"/><circle cx="200.0" cy="205.0" r="3" fill="#3b82f6"/><circle cx="214.0" cy="204.1" r="3" fill="#3b82f6"/><circle cx="228.0" cy="203.2" r="3" fill="#3b82f6"/><circle cx="242.0" cy="202.5" r="3" fill="#3b82f6"/><circle cx="256.0" cy="201.9" r="3" fill="#3b82f6"/><circle cx="270.0" cy="201.0" r="3" fill="#3b82f6"/><circle cx="284.0" cy="200.3" r="3" fill="#3b82f6"/><circle cx="298.0" cy="199.9" r="3" fill="#3b82f6"/><circle cx="312.0" cy="199.6" r="3" fill="#3b82f6"/><circle cx="326.0" cy="199.4" r="3" fill="#3b82f6"/><circle cx="340.0" cy="199.3" r="3" fill="#3b82f6"/><circle cx="354.0" cy="199.0" r="3" fill="#3b82f6"/><circle cx="368.0" cy="198.9" r="3" fill="#3b82f6"/><circle cx="382.0" cy="198.9" r="3" fill="#3b82f6"/><circle cx="396.0" cy="198.7" r="3" fill="#3b82f6"/><circle cx="410.0" cy="198.7" r="3" fill="#3b82f6"/><circle cx="424.0" cy="198.8" r="3" fill="#3b82f6"/><circle cx="438.0" cy="198.8" r="3" fill="#3b82f6"/><circle cx="452.0" cy="198.8" r="3" fill="#3b82f6"/><circle cx="466.0" cy="198.9" r="3" fill="#3b82f6"/><circle cx="480.0" cy="199.0" r="3" fill="#3b82f6"/><circle cx="494.0" cy="199.2" r="3" fill="#3b82f6"/><circle cx="508.0" cy="199.4" r="3" fill="#3b82f6"/><circle cx="522.0" cy="199.5" r="3" fill="#3b82f6"/><circle cx="536.0" cy="199.7" r="3" fill="#3b82f6"/><circle cx="550.0" cy="199.8" r="3" fill="#3b82f6"/><circle cx="564.0" cy="200.0" r="3" fill="#3b82f6"/><circle cx="578.0" cy="200.1" r="3" fill="#3b82f6"/><circle cx="592.0" cy="200.2" r="3" fill="#3b82f6"/><circle cx="606.0" cy="200.4" r="3" fill="#3b82f6"/><circle cx="620.0" cy="200.7" r="3" fill="#3b82f6"/><circle cx="634.0" cy="201.0" r="3" fill="#3b82f6"/><circle cx="648.0" cy="201.3" r="3" fill="#3b82f6"/><circle cx="662.0" cy="201.6" r="3" fill="#3b82f6"/><circle cx="676.0" cy="201.8" r="3" fill="#3b82f6"/><circle cx="690.0" cy="202.2" r="3" fill="#3b82f6"/><circle cx="704.0" cy="202.6" r="3" fill="#3b82f6"/><circle cx="718.0" cy="203.0" r="3" fill="#3b82f6"/><circle cx="732.0" cy="203.3" r="3" fill="#3b82f6"/><circle cx="746.0" cy="203.7" r="3" fill="#3b82f6"/><circle cx="760.0" cy="204.1" r="3" fill="#3b82f6"/>

  <!-- X ekseni -->
  <text x="60.0" y="380" text-anchor="middle" font-size="10" fill="#888">14.05.2026</text>
  <text x="172.0" y="380" text-anchor="middle" font-size="10" fill="#888">22.05.2026</text>
  <text x="284.0" y="380" text-anchor="middle" font-size="10" fill="#888">30.05.2026</text>
  <text x="396.0" y="380" text-anchor="middle" font-size="10" fill="#888">07.06.2026</text>
  <text x="508.0" y="380" text-anchor="middle" font-size="10" fill="#888">15.06.2026</text>
  <text x="620.0" y="380" text-anchor="middle" font-size="10" fill="#888">23.06.2026</text>
  <text x="732.0" y="380" text-anchor="middle" font-size="10" fill="#888">01.07.2026</text>

  <!-- Legend -->
  <g transform="translate(60, 345)">
    <rect x="0" y="0" width="12" height="12" fill="#22c55e" rx="2"/>
    <text x="18" y="10" font-size="11" fill="#c9d1d9">Toplam Doluluk</text>
    <rect x="140" y="0" width="12" height="12" fill="#3b82f6" rx="2"/>
    <text x="158" y="10" font-size="11" fill="#c9d1d9">Aktif Doluluk</text>
  </g>
</svg>