<svg xmlns="http://www.w3.org/2000/svg" viewBox="0 0 800 400" width="100%" style="max-width:800px;">
  <rect width="800" height="400" fill="#0d1117" rx="6"/>
  <text x="400.0" y="25" text-anchor="middle" font-size="16" font-weight="bold" fill="#c9d1d9">Son 30 Gün - Günlük Ortalama</text>

  <!-- Y grid -->
  <line x1="60" y1="320.0" x2="760" y2="320.0" stroke="#333" stroke-width="1" stroke-dasharray="4,4" opacity="0.5"/>
  <text x="50" y="320.0" text-anchor="end" dominant-baseline="middle" font-size="10" fill="#888">0%</text>
  <line x1="60" y1="264.0" x2="760" y2="264.0" stroke="#333" stroke-width="1" stroke-dasharray="4,4" opacity="0.5"/>
  <text x="50" y="264.0" text-anchor="end" dominant-baseline="middle" font-size="10" fill="#888">20%</text>
  <line x1="60" y1="208.0" x2="760" y2="208.0" stroke="#333" stroke-width="1" stroke-dasharray="4,4" opacity="0.5"/>
  <text x="50" y="208.0" text-anchor="end" dominant-baseline="middle" font-size="10" fill="#888">40%</text>
  <line x1="60" y1="152.0" x2="760" y2="152.0" stroke="#333" stroke-width="1" stroke-dasharray="4,4" opacity="0.5"/>
  <text x="50" y="152.0" text-anchor="end" dominant-baseline="middle" font-size="10" fill="#888">60%</text>
  <line x1="60" y1="96.0" x2="760" y2="96.0" stroke="#333" stroke-width="1" stroke-dasharray="4,4" opacity="0.5"/>
  <text x="50" y="96.0" text-anchor="end" dominant-baseline="middle" font-size="10" fill="#888">80%</text>
  <line x1="60" y1="40.0" x2="760" y2="40.0" stroke="#333" stroke-width="1" stroke-dasharray="4,4" opacity="0.5"/>
  <text x="50" y="40.0" text-anchor="end" dominant-baseline="middle" font-size="10" fill="#888">100%</text>

  <!-- Referans çizgileri -->
  <line x1="60" y1="236.0" x2="760" y2="236.0" stroke="#ef4444" stroke-width="1" stroke-dasharray="2,2" opacity="0.7"/>
  <text x="745" y="236.0" dominant-baseline="middle" font-size="9" fill="#ef4444">Kritik (30%)</text>
  <line x1="60" y1="180.0" x2="760" y2="180.0" stroke="#eab308" stroke-width="1" stroke-dasharray="2,2" opacity="0.7"/>
  <text x="745" y="180.0" dominant-baseline="middle" font-size="9" fill="#eab308">Normal (50%)</text>

  <!-- Toplam doluluk -->
  <polyline points="60.0,193.2 98.9,192.5 137.8,192.0 176.7,191.6 215.6,191.1 254.4,190.8 293.3,190.4 332.2,190.1 371.1,189.6 410.0,188.8 448.9,187.8 487.8,187.0 526.7,186.2 565.6,185.6 604.4,185.0 643.3,184.3 682.2,183.6 721.1,183.2 760.0,182.9" fill="none" stroke="#22c55e" stroke-width="2.5" stroke-linecap="round" stroke-linejoin="round"/>
  <polyline points="60.0,193.2 98.9,192.5 137.8,192.0 176.7,191.6 215.6,191.1 254.4,190.8 293.3,190.4 332.2,190.1 371.1,189.6 410.0,188.8 448.9,187.8 487.8,187.0 526.7,186.2 565.6,185.6 604.4,185.0 643.3,184.3 682.2,183.6 721.1,183.2 760.0,182.9" fill="none" stroke="#22c55e" stroke-width="5" opacity="0.1" stroke-linecap="round" stroke-linejoin="round"/>

  <!-- Aktif doluluk -->
  <polyline points="60.0,211.1 98.9,210.2 137.8,209.7 176.7,209.2 215.6,208.7 254.4,208.3 293.3,207.9 332.2,207.5 371.1,207.0 410.0,206.2 448.9,205.0 487.8,204.1 526.7,203.2 565.6,202.5 604.4,201.9 643.3,201.0 682.2,200.3 721.1,199.9 760.0,199.6" fill="none" stroke="#3b82f6" stroke-width="2.5" stroke-linecap="round" stroke-linejoin="round"/>
  <polyline points="60.0,211.1 98.9,210.2 137.8,209.7 176.7,209.2 215.6,208.7 254.4,208.3 293.3,207.9 332.2,207.5 371.1,207.0 410.0,206.2 448.9,205.0 487.8,204.1 526.7,203.2 565.6,202.5 604.4,201.9 643.3,201.0 682.2,200.3 721.1,199.9 760.0,199.6" fill="none" stroke="#3b82f6" stroke-width="5" opacity="0.1" stroke-linecap="round" stroke-linejoin="round"/>

  <!-- Noktalar -->
  <circle cx="60.0" cy="193.2" r="3" fill="#22c55e"/><circle cx="98.9" cy="192.5" r="3" fill="#22c55e"/><circle cx="137.8" cy="192.0" r="3" fill="#22c55e"/><circle cx="176.7" cy="191.6" r="3" fill="#22c55e"/><circle cx="215.6" cy="191.1" r="3" fill="#22c55e"/><circle cx="254.4" cy="190.8" r="3" fill="#22c55e"/><circle cx="293.3" cy="190.4" r="3" fill="#22c55e"/><circle cx="332.2" cy="190.1" r="3" fill="#22c55e"/><circle cx="371.1" cy="189.6" r="3" fill="#22c55e"/><circle cx="410.0" cy="188.8" r="3" fill="#22c55e"/><circle cx="448.9" cy="187.8" r="3" fill="#22c55e"/><circle cx="487.8" cy="187.0" r="3" fill="#22c55e"/><circle cx="526.7" cy="186.2" r="3" fill="#22c55e"/><circle cx="565.6" cy="185.6" r="3" fill="#22c55e"/><circle cx="604.4" cy="185.0" r="3" fill="#22c55e"/><circle cx="643.3" cy="184.3" r="3" fill="#22c55e"/><circle cx="682.2" cy="183.6" r="3" fill="#22c55e"/><circle cx="721.1" cy="183.2" r="3" fill="#22c55e"/><circle cx="760.0" cy="182.9" r="3" fill="#22c55e"/>
  <circle cx="60.0" cy="211.1" r="3" fill="#3b82f6"/><circle cx="98.9" cy="210.2" r="3" fill="#3b82f6"/><circle cx="137.8" cy="209.7" r="3" fill="#3b82f6"/><circle cx="176.7" cy="209.2" r="3" fill="#3b82f6"/><circle cx="215.6" cy="208.7" r="3" fill="#3b82f6"/><circle cx="254.4" cy="208.3" r="3" fill="#3b82f6"/><circle cx="293.3" cy="207.9" r="3" fill="#3b82f6"/><circle cx="332.2" cy="207.5" r="3" fill="#3b82f6"/><circle cx="371.1" cy="207.0" r="3" fill="#3b82f6"/><circle cx="410.0" cy="206.2" r="3" fill="#3b82f6"/><circle cx="448.9" cy="205.0" r="3" fill="#3b82f6"/><circle cx="487.8" cy="204.1" r="3" fill="#3b82f6"/><circle cx="526.7" cy="203.2" r="3" fill="#3b82f6"/><circle cx="565.6" cy="202.5" r="3" fill="#3b82f6"/><circle cx="604.4" cy="201.9" r="3" fill="#3b82f6"/><circle cx="643.3" cy="201.0" r="3" fill="#3b82f6"/><circle cx="682.2" cy="200.3" r="3" fill="#3b82f6"/><circle cx="721.1" cy="199.9" r="3" fill="#3b82f6"/><circle cx="760.0" cy="199.6" r="3" fill="#3b82f6"/>

  <!-- X ekseni -->
  <text x="60.0" y="380" text-anchor="middle" font-size="10" fill="#888">14.05 00:00</text>
  <text x="176.7" y="380" text-anchor="middle" font-size="10" fill="#888">17.05 00:00</text>
  <text x="293.3" y="380" text-anchor="middle" font-size="10" fill="#888">20.05 00:00</text>
  <text x="410.0" y="380" text-anchor="middle" font-size="10" fill="#888">23.05 00:00</text>
  <text x="526.7" y="380" text-anchor="middle" font-size="10" fill="#888">26.05 00:00</text>
  <text x="643.3" y="380" text-anchor="middle" font-size="10" fill="#888">29.05 00:00</text>
  <text x="760.0" y="380" text-anchor="middle" font-size="10" fill="#888">01.06 00:00</text>

  <!-- Legend -->
  <g transform="translate(60, 345)">
    <rect x="0" y="0" width="12" height="12" fill="#22c55e" rx="2"/>
    <text x="18" y="10" font-size="11" fill="#c9d1d9">Toplam Doluluk</text>
    <rect x="140" y="0" width="12" height="12" fill="#3b82f6" rx="2"/>
    <text x="158" y="10" font-size="11" fill="#c9d1d9">Aktif Doluluk</text>
  </g>
</svg>