<svg xmlns="http://www.w3.org/2000/svg" viewBox="0 0 900 400" width="100%" style="max-width:900px;">
  <rect width="900" height="400" fill="#0d1117" rx="6"/>
  <text x="450.0" y="25" text-anchor="middle" font-size="16" font-weight="bold" fill="#c9d1d9">Son 360 Gün - Günlük Ortalama</text>

  <!-- Y grid -->
  <line x1="60" y1="320.0" x2="860" y2="320.0" stroke="#333" stroke-width="1" stroke-dasharray="4,4" opacity="0.5"/>
  <text x="50" y="320.0" text-anchor="end" dominant-baseline="middle" font-size="10" fill="#888">0%</text>
  <line x1="60" y1="264.0" x2="860" y2="264.0" stroke="#333" stroke-width="1" stroke-dasharray="4,4" opacity="0.5"/>
  <text x="50" y="264.0" text-anchor="end" dominant-baseline="middle" font-size="10" fill="#888">20%</text>
  <line x1="60" y1="208.0" x2="860" y2="208.0" stroke="#333" stroke-width="1" stroke-dasharray="4,4" opacity="0.5"/>
  <text x="50" y="208.0" text-anchor="end" dominant-baseline="middle" font-size="10" fill="#888">40%</text>
  <line x1="60" y1="152.0" x2="860" y2="152.0" stroke="#333" stroke-width="1" stroke-dasharray="4,4" opacity="0.5"/>
  <text x="50" y="152.0" text-anchor="end" dominant-baseline="middle" font-size="10" fill="#888">60%</text>
  <line x1="60" y1="96.0" x2="860" y2="96.0" stroke="#333" stroke-width="1" stroke-dasharray="4,4" opacity="0.5"/>
  <text x="50" y="96.0" text-anchor="end" dominant-baseline="middle" font-size="10" fill="#888">80%</text>
  <line x1="60" y1="40.0" x2="860" y2="40.0" stroke="#333" stroke-width="1" stroke-dasharray="4,4" opacity="0.5"/>
  <text x="50" y="40.0" text-anchor="end" dominant-baseline="middle" font-size="10" fill="#888">100%</text>

  <!-- Referans çizgileri -->
  <line x1="60" y1="236.0" x2="860" y2="236.0" stroke="#ef4444" stroke-width="1" stroke-dasharray="2,2" opacity="0.7"/>
  <text x="845" y="236.0" dominant-baseline="middle" font-size="9" fill="#ef4444">Kritik (30%)</text>
  <line x1="60" y1="180.0" x2="860" y2="180.0" stroke="#eab308" stroke-width="1" stroke-dasharray="2,2" opacity="0.7"/>
  <text x="845" y="180.0" dominant-baseline="middle" font-size="9" fill="#eab308">Normal (50%)</text>

  <!-- Toplam doluluk -->
  <polyline points="60.0,193.2 79.5,192.5 99.0,192.0 118.5,191.6 138.0,191.1 157.6,190.8 177.1,190.4 196.6,190.1 216.1,189.6 235.6,188.8 255.1,187.8 274.6,187.0 294.1,186.2 313.7,185.6 333.2,185.0 352.7,184.3 372.2,183.6 391.7,183.2 411.2,182.9 430.7,182.7 450.2,182.7 469.8,182.4 489.3,182.3 508.8,182.3 528.3,182.2 547.8,182.2 567.3,182.2 586.8,182.2 606.3,182.3 625.9,182.4 645.4,182.5 664.9,182.6 684.4,182.7 703.9,182.9 723.4,183.1 742.9,183.2 762.4,183.3 782.0,183.4 801.5,183.5 821.0,183.7 840.5,183.9 860.0,184.2" fill="none" stroke="#22c55e" stroke-width="2.5" stroke-linecap="round" stroke-linejoin="round"/>
  <polyline points="60.0,193.2 79.5,192.5 99.0,192.0 118.5,191.6 138.0,191.1 157.6,190.8 177.1,190.4 196.6,190.1 216.1,189.6 235.6,188.8 255.1,187.8 274.6,187.0 294.1,186.2 313.7,185.6 333.2,185.0 352.7,184.3 372.2,183.6 391.7,183.2 411.2,182.9 430.7,182.7 450.2,182.7 469.8,182.4 489.3,182.3 508.8,182.3 528.3,182.2 547.8,182.2 567.3,182.2 586.8,182.2 606.3,182.3 625.9,182.4 645.4,182.5 664.9,182.6 684.4,182.7 703.9,182.9 723.4,183.1 742.9,183.2 762.4,183.3 782.0,183.4 801.5,183.5 821.0,183.7 840.5,183.9 860.0,184.2" fill="none" stroke="#22c55e" stroke-width="5" opacity="0.1" stroke-linecap="round" stroke-linejoin="round"/>

  <!-- Aktif doluluk -->
  <polyline points="60.0,211.1 79.5,210.2 99.0,209.7 118.5,209.2 138.0,208.7 157.6,208.3 177.1,207.9 196.6,207.5 216.1,207.0 235.6,206.2 255.1,205.0 274.6,204.1 294.1,203.2 313.7,202.5 333.2,201.9 352.7,201.0 372.2,200.3 391.7,199.9 411.2,199.6 430.7,199.4 450.2,199.3 469.8,199.0 489.3,198.9 508.8,198.9 528.3,198.7 547.8,198.7 567.3,198.8 586.8,198.8 606.3,198.8 625.9,198.9 645.4,199.0 664.9,199.2 684.4,199.4 703.9,199.5 723.4,199.7 742.9,199.8 762.4,200.0 782.0,200.1 801.5,200.2 821.0,200.4 840.5,200.7 860.0,201.0" fill="none" stroke="#3b82f6" stroke-width="2.5" stroke-linecap="round" stroke-linejoin="round"/>
  <polyline points="60.0,211.1 79.5,210.2 99.0,209.7 118.5,209.2 138.0,208.7 157.6,208.3 177.1,207.9 196.6,207.5 216.1,207.0 235.6,206.2 255.1,205.0 274.6,204.1 294.1,203.2 313.7,202.5 333.2,201.9 352.7,201.0 372.2,200.3 391.7,199.9 411.2,199.6 430.7,199.4 450.2,199.3 469.8,199.0 489.3,198.9 508.8,198.9 528.3,198.7 547.8,198.7 567.3,198.8 586.8,198.8 606.3,198.8 625.9,198.9 645.4,199.0 664.9,199.2 684.4,199.4 703.9,199.5 723.4,199.7 742.9,199.8 762.4,200.0 782.0,200.1 801.5,200.2 821.0,200.4 840.5,200.7 860.0,201.0" fill="none" stroke="#3b82f6" stroke-width="5" opacity="0.1" stroke-linecap="round" stroke-linejoin="round"/>

  <!-- Noktalar -->
  <circle cx="60.0" cy="193.2" r="3" fill="#22c55e"/><circle cx="79.5" cy="192.5" r="3" fill="#22c55e"/><circle cx="99.0" cy="192.0" r="3" fill="#22c55e"/><circle cx="118.5" cy="191.6" r="3" fill="#22c55e"/><circle cx="138.0" cy="191.1" r="3" fill="#22c55e"/><circle cx="157.6" cy="190.8" r="3" fill="#22c55e"/><circle cx="177.1" cy="190.4" r="3" fill="#22c55e"/><circle cx="196.6" cy="190.1" r="3" fill="#22c55e"/><circle cx="216.1" cy="189.6" r="3" fill="#22c55e"/><circle cx="235.6" cy="188.8" r="3" fill="#22c55e"/><circle cx="255.1" cy="187.8" r="3" fill="#22c55e"/><circle cx="274.6" cy="187.0" r="3" fill="#22c55e"/><circle cx="294.1" cy="186.2" r="3" fill="#22c55e"/><circle cx="313.7" cy="185.6" r="3" fill="#22c55e"/><circle cx="333.2" cy="185.0" r="3" fill="#22c55e"/><circle cx="352.7" cy="184.3" r="3" fill="#22c55e"/><circle cx="372.2" cy="183.6" r="3" fill="#22c55e"/><circle cx="391.7" cy="183.2" r="3" fill="#22c55e"/><circle cx="411.2" cy="182.9" r="3" fill="#22c55e"/><circle cx="430.7" cy="182.7" r="3" fill="#22c55e"/><circle cx="450.2" cy="182.7" r="3" fill="#22c55e"/><circle cx="469.8" cy="182.4" r="3" fill="#22c55e"/><circle cx="489.3" cy="182.3" r="3" fill="#22c55e"/><circle cx="508.8" cy="182.3" r="3" fill="#22c55e"/><circle cx="528.3" cy="182.2" r="3" fill="#22c55e"/><circle cx="547.8" cy="182.2" r="3" fill="#22c55e"/><circle cx="567.3" cy="182.2" r="3" fill="#22c55e"/><circle cx="586.8" cy="182.2" r="3" fill="#22c55e"/><circle cx="606.3" cy="182.3" r="3" fill="#22c55e"/><circle cx="625.9" cy="182.4" r="3" fill="#22c55e"/><circle cx="645.4" cy="182.5" r="3" fill="#22c55e"/><circle cx="664.9" cy="182.6" r="3" fill="#22c55e"/><circle cx="684.4" cy="182.7" r="3" fill="#22c55e"/><circle cx="703.9" cy="182.9" r="3" fill="#22c55e"/><circle cx="723.4" cy="183.1" r="3" fill="#22c55e"/><circle cx="742.9" cy="183.2" r="3" fill="#22c55e"/><circle cx="762.4" cy="183.3" r="3" fill="#22c55e"/><circle cx="782.0" cy="183.4" r="3" fill="#22c55e"/><circle cx="801.5" cy="183.5" r="3" fill="#22c55e"/><circle cx="821.0" cy="183.7" r="3" fill="#22c55e"/><circle cx="840.5" cy="183.9" r="3" fill="#22c55e"/><circle cx="860.0" cy="184.2" r="3" fill="#22c55e"/>
  <circle cx="60.0" cy="211.1" r="3" fill="#3b82f6"/><circle cx="79.5" cy="210.2" r="3" fill="#3b82f6"/><circle cx="99.0" cy="209.7" r="3" fill="#3b82f6"/><circle cx="118.5" cy="209.2" r="3" fill="#3b82f6"/><circle cx="138.0" cy="208.7" r="3" fill="#3b82f6"/><circle cx="157.6" cy="208.3" r="3" fill="#3b82f6"/><circle cx="177.1" cy="207.9" r="3" fill="#3b82f6"/><circle cx="196.6" cy="207.5" r="3" fill="#3b82f6"/><circle cx="216.1" cy="207.0" r="3" fill="#3b82f6"/><circle cx="235.6" cy="206.2" r="3" fill="#3b82f6"/><circle cx="255.1" cy="205.0" r="3" fill="#3b82f6"/><circle cx="274.6" cy="204.1" r="3" fill="#3b82f6"/><circle cx="294.1" cy="203.2" r="3" fill="#3b82f6"/><circle cx="313.7" cy="202.5" r="3" fill="#3b82f6"/><circle cx="333.2" cy="201.9" r="3" fill="#3b82f6"/><circle cx="352.7" cy="201.0" r="3" fill="#3b82f6"/><circle cx="372.2" cy="200.3" r="3" fill="#3b82f6"/><circle cx="391.7" cy="199.9" r="3" fill="#3b82f6"/><circle cx="411.2" cy="199.6" r="3" fill="#3b82f6"/><circle cx="430.7" cy="199.4" r="3" fill="#3b82f6"/><circle cx="450.2" cy="199.3" r="3" fill="#3b82f6"/><circle cx="469.8" cy="199.0" r="3" fill="#3b82f6"/><circle cx="489.3" cy="198.9" r="3" fill="#3b82f6"/><circle cx="508.8" cy="198.9" r="3" fill="#3b82f6"/><circle cx="528.3" cy="198.7" r="3" fill="#3b82f6"/><circle cx="547.8" cy="198.7" r="3" fill="#3b82f6"/><circle cx="567.3" cy="198.8" r="3" fill="#3b82f6"/><circle cx="586.8" cy="198.8" r="3" fill="#3b82f6"/><circle cx="606.3" cy="198.8" r="3" fill="#3b82f6"/><circle cx="625.9" cy="198.9" r="3" fill="#3b82f6"/><circle cx="645.4" cy="199.0" r="3" fill="#3b82f6"/><circle cx="664.9" cy="199.2" r="3" fill="#3b82f6"/><circle cx="684.4" cy="199.4" r="3" fill="#3b82f6"/><circle cx="703.9" cy="199.5" r="3" fill="#3b82f6"/><circle cx="723.4" cy="199.7" r="3" fill="#3b82f6"/><circle cx="742.9" cy="199.8" r="3" fill="#3b82f6"/><circle cx="762.4" cy="200.0" r="3" fill="#3b82f6"/><circle cx="782.0" cy="200.1" r="3" fill="#3b82f6"/><circle cx="801.5" cy="200.2" r="3" fill="#3b82f6"/><circle cx="821.0" cy="200.4" r="3" fill="#3b82f6"/><circle cx="840.5" cy="200.7" r="3" fill="#3b82f6"/><circle cx="860.0" cy="201.0" r="3" fill="#3b82f6"/>

  <!-- X ekseni -->
  <text x="60.0" y="380" text-anchor="middle" font-size="10" fill="#888">14.05.2026</text>
  <text x="196.6" y="380" text-anchor="middle" font-size="10" fill="#888">21.05.2026</text>
  <text x="333.2" y="380" text-anchor="middle" font-size="10" fill="#888">28.05.2026</text>
  <text x="469.8" y="380" text-anchor="middle" font-size="10" fill="#888">04.06.2026</text>
  <text x="606.3" y="380" text-anchor="middle" font-size="10" fill="#888">11.06.2026</text>
  <text x="742.9" y="380" text-anchor="middle" font-size="10" fill="#888">18.06.2026</text>

  <!-- Legend -->
  <g transform="translate(60, 345)">
    <rect x="0" y="0" width="12" height="12" fill="#22c55e" rx="2"/>
    <text x="18" y="10" font-size="11" fill="#c9d1d9">Toplam Doluluk</text>
    <rect x="140" y="0" width="12" height="12" fill="#3b82f6" rx="2"/>
    <text x="158" y="10" font-size="11" fill="#c9d1d9">Aktif Doluluk</text>
  </g>
</svg>