<svg xmlns="http://www.w3.org/2000/svg" viewBox="0 0 800 400" width="100%" style="max-width:800px;">
  <rect width="800" height="400" fill="#0d1117" rx="6"/>
  <text x="400.0" y="25" text-anchor="middle" font-size="16" font-weight="bold" fill="#c9d1d9">Son 30 Gün - Günlük Ortalama</text>

  <!-- Y grid -->
  <line x1="60" y1="320.0" x2="760" y2="320.0" stroke="#333" stroke-width="1" stroke-dasharray="4,4" opacity="0.5"/>
  <text x="50" y="320.0" text-anchor="end" dominant-baseline="middle" font-size="10" fill="#888">0%</text>
  <line x1="60" y1="264.0" x2="760" y2="264.0" stroke="#333" stroke-width="1" stroke-dasharray="4,4" opacity="0.5"/>
  <text x="50" y="264.0" text-anchor="end" dominant-baseline="middle" font-size="10" fill="#888">20%</text>
  <line x1="60" y1="208.0" x2="760" y2="208.0" stroke="#333" stroke-width="1" stroke-dasharray="4,4" opacity="0.5"/>
  <text x="50" y="208.0" text-anchor="end" dominant-baseline="middle" font-size="10" fill="#888">40%</text>
  <line x1="60" y1="152.0" x2="760" y2="152.0" stroke="#333" stroke-width="1" stroke-dasharray="4,4" opacity="0.5"/>
  <text x="50" y="152.0" text-anchor="end" dominant-baseline="middle" font-size="10" fill="#888">60%</text>
  <line x1="60" y1="96.0" x2="760" y2="96.0" stroke="#333" stroke-width="1" stroke-dasharray="4,4" opacity="0.5"/>
  <text x="50" y="96.0" text-anchor="end" dominant-baseline="middle" font-size="10" fill="#888">80%</text>
  <line x1="60" y1="40.0" x2="760" y2="40.0" stroke="#333" stroke-width="1" stroke-dasharray="4,4" opacity="0.5"/>
  <text x="50" y="40.0" text-anchor="end" dominant-baseline="middle" font-size="10" fill="#888">100%</text>

  <!-- Referans çizgileri -->
  <line x1="60" y1="236.0" x2="760" y2="236.0" stroke="#ef4444" stroke-width="1" stroke-dasharray="2,2" opacity="0.7"/>
  <text x="745" y="236.0" dominant-baseline="middle" font-size="9" fill="#ef4444">Kritik (30%)</text>
  <line x1="60" y1="180.0" x2="760" y2="180.0" stroke="#eab308" stroke-width="1" stroke-dasharray="2,2" opacity="0.7"/>
  <text x="745" y="180.0" dominant-baseline="middle" font-size="9" fill="#eab308">Normal (50%)</text>

  <!-- Toplam doluluk -->
  <polyline points="60.0,182.7 84.1,182.9 108.3,183.1 132.4,183.2 156.6,183.3 180.7,183.4 204.8,183.5 229.0,183.7 253.1,183.9 277.2,184.2 301.4,184.4 325.5,184.7 349.7,185.0 373.8,185.3 397.9,185.6 422.1,186.0 446.2,186.3 470.3,186.6 494.5,187.0 518.6,187.3 542.8,187.6 566.9,188.0 591.0,188.3 615.2,188.6 639.3,189.0 663.4,189.3 687.6,189.6 711.7,189.9 735.9,190.2 760.0,190.5" fill="none" stroke="#22c55e" stroke-width="2.5" stroke-linecap="round" stroke-linejoin="round"/>
  <polyline points="60.0,182.7 84.1,182.9 108.3,183.1 132.4,183.2 156.6,183.3 180.7,183.4 204.8,183.5 229.0,183.7 253.1,183.9 277.2,184.2 301.4,184.4 325.5,184.7 349.7,185.0 373.8,185.3 397.9,185.6 422.1,186.0 446.2,186.3 470.3,186.6 494.5,187.0 518.6,187.3 542.8,187.6 566.9,188.0 591.0,188.3 615.2,188.6 639.3,189.0 663.4,189.3 687.6,189.6 711.7,189.9 735.9,190.2 760.0,190.5" fill="none" stroke="#22c55e" stroke-width="5" opacity="0.1" stroke-linecap="round" stroke-linejoin="round"/>

  <!-- Aktif doluluk -->
  <polyline points="60.0,199.4 84.1,199.5 108.3,199.7 132.4,199.8 156.6,200.0 180.7,200.1 204.8,200.2 229.0,200.4 253.1,200.7 277.2,201.0 301.4,201.3 325.5,201.6 349.7,201.8 373.8,202.2 397.9,202.6 422.1,203.0 446.2,203.3 470.3,203.7 494.5,204.1 518.6,204.4 542.8,204.8 566.9,205.2 591.0,205.5 615.2,205.9 639.3,206.3 663.4,206.7 687.6,207.0 711.7,207.4 735.9,207.7 760.0,208.0" fill="none" stroke="#3b82f6" stroke-width="2.5" stroke-linecap="round" stroke-linejoin="round"/>
  <polyline points="60.0,199.4 84.1,199.5 108.3,199.7 132.4,199.8 156.6,200.0 180.7,200.1 204.8,200.2 229.0,200.4 253.1,200.7 277.2,201.0 301.4,201.3 325.5,201.6 349.7,201.8 373.8,202.2 397.9,202.6 422.1,203.0 446.2,203.3 470.3,203.7 494.5,204.1 518.6,204.4 542.8,204.8 566.9,205.2 591.0,205.5 615.2,205.9 639.3,206.3 663.4,206.7 687.6,207.0 711.7,207.4 735.9,207.7 760.0,208.0" fill="none" stroke="#3b82f6" stroke-width="5" opacity="0.1" stroke-linecap="round" stroke-linejoin="round"/>

  <!-- Noktalar -->
  <circle cx="60.0" cy="182.7" r="3" fill="#22c55e"/><circle cx="84.1" cy="182.9" r="3" fill="#22c55e"/><circle cx="108.3" cy="183.1" r="3" fill="#22c55e"/><circle cx="132.4" cy="183.2" r="3" fill="#22c55e"/><circle cx="156.6" cy="183.3" r="3" fill="#22c55e"/><circle cx="180.7" cy="183.4" r="3" fill="#22c55e"/><circle cx="204.8" cy="183.5" r="3" fill="#22c55e"/><circle cx="229.0" cy="183.7" r="3" fill="#22c55e"/><circle cx="253.1" cy="183.9" r="3" fill="#22c55e"/><circle cx="277.2" cy="184.2" r="3" fill="#22c55e"/><circle cx="301.4" cy="184.4" r="3" fill="#22c55e"/><circle cx="325.5" cy="184.7" r="3" fill="#22c55e"/><circle cx="349.7" cy="185.0" r="3" fill="#22c55e"/><circle cx="373.8" cy="185.3" r="3" fill="#22c55e"/><circle cx="397.9" cy="185.6" r="3" fill="#22c55e"/><circle cx="422.1" cy="186.0" r="3" fill="#22c55e"/><circle cx="446.2" cy="186.3" r="3" fill="#22c55e"/><circle cx="470.3" cy="186.6" r="3" fill="#22c55e"/><circle cx="494.5" cy="187.0" r="3" fill="#22c55e"/><circle cx="518.6" cy="187.3" r="3" fill="#22c55e"/><circle cx="542.8" cy="187.6" r="3" fill="#22c55e"/><circle cx="566.9" cy="188.0" r="3" fill="#22c55e"/><circle cx="591.0" cy="188.3" r="3" fill="#22c55e"/><circle cx="615.2" cy="188.6" r="3" fill="#22c55e"/><circle cx="639.3" cy="189.0" r="3" fill="#22c55e"/><circle cx="663.4" cy="189.3" r="3" fill="#22c55e"/><circle cx="687.6" cy="189.6" r="3" fill="#22c55e"/><circle cx="711.7" cy="189.9" r="3" fill="#22c55e"/><circle cx="735.9" cy="190.2" r="3" fill="#22c55e"/><circle cx="760.0" cy="190.5" r="3" fill="#22c55e"/>
  <circle cx="60.0" cy="199.4" r="3" fill="#3b82f6"/><circle cx="84.1" cy="199.5" r="3" fill="#3b82f6"/><circle cx="108.3" cy="199.7" r="3" fill="#3b82f6"/><circle cx="132.4" cy="199.8" r="3" fill="#3b82f6"/><circle cx="156.6" cy="200.0" r="3" fill="#3b82f6"/><circle cx="180.7" cy="200.1" r="3" fill="#3b82f6"/><circle cx="204.8" cy="200.2" r="3" fill="#3b82f6"/><circle cx="229.0" cy="200.4" r="3" fill="#3b82f6"/><circle cx="253.1" cy="200.7" r="3" fill="#3b82f6"/><circle cx="277.2" cy="201.0" r="3" fill="#3b82f6"/><circle cx="301.4" cy="201.3" r="3" fill="#3b82f6"/><circle cx="325.5" cy="201.6" r="3" fill="#3b82f6"/><circle cx="349.7" cy="201.8" r="3" fill="#3b82f6"/><circle cx="373.8" cy="202.2" r="3" fill="#3b82f6"/><circle cx="397.9" cy="202.6" r="3" fill="#3b82f6"/><circle cx="422.1" cy="203.0" r="3" fill="#3b82f6"/><circle cx="446.2" cy="203.3" r="3" fill="#3b82f6"/><circle cx="470.3" cy="203.7" r="3" fill="#3b82f6"/><circle cx="494.5" cy="204.1" r="3" fill="#3b82f6"/><circle cx="518.6" cy="204.4" r="3" fill="#3b82f6"/><circle cx="542.8" cy="204.8" r="3" fill="#3b82f6"/><circle cx="566.9" cy="205.2" r="3" fill="#3b82f6"/><circle cx="591.0" cy="205.5" r="3" fill="#3b82f6"/><circle cx="615.2" cy="205.9" r="3" fill="#3b82f6"/><circle cx="639.3" cy="206.3" r="3" fill="#3b82f6"/><circle cx="663.4" cy="206.7" r="3" fill="#3b82f6"/><circle cx="687.6" cy="207.0" r="3" fill="#3b82f6"/><circle cx="711.7" cy="207.4" r="3" fill="#3b82f6"/><circle cx="735.9" cy="207.7" r="3" fill="#3b82f6"/><circle cx="760.0" cy="208.0" r="3" fill="#3b82f6"/>

  <!-- X ekseni -->
  <text x="60.0" y="380" text-anchor="middle" font-size="10" fill="#888">15.06 00:00</text>
  <text x="180.7" y="380" text-anchor="middle" font-size="10" fill="#888">20.06 00:00</text>
  <text x="301.4" y="380" text-anchor="middle" font-size="10" fill="#888">25.06 00:00</text>
  <text x="422.1" y="380" text-anchor="middle" font-size="10" fill="#888">30.06 00:00</text>
  <text x="542.8" y="380" text-anchor="middle" font-size="10" fill="#888">05.07 00:00</text>
  <text x="663.4" y="380" text-anchor="middle" font-size="10" fill="#888">10.07 00:00</text>

  <!-- Legend -->
  <g transform="translate(60, 345)">
    <rect x="0" y="0" width="12" height="12" fill="#22c55e" rx="2"/>
    <text x="18" y="10" font-size="11" fill="#c9d1d9">Toplam Doluluk</text>
    <rect x="140" y="0" width="12" height="12" fill="#3b82f6" rx="2"/>
    <text x="158" y="10" font-size="11" fill="#c9d1d9">Aktif Doluluk</text>
  </g>
</svg>