<svg xmlns="http://www.w3.org/2000/svg" viewBox="0 0 900 400" width="100%" style="max-width:900px;">
  <rect width="900" height="400" fill="#0d1117" rx="6"/>
  <text x="450.0" y="25" text-anchor="middle" font-size="16" font-weight="bold" fill="#c9d1d9">Son 180 Gün - Günlük Ortalama</text>

  <!-- Y grid -->
  <line x1="60" y1="320.0" x2="860" y2="320.0" stroke="#333" stroke-width="1" stroke-dasharray="4,4" opacity="0.5"/>
  <text x="50" y="320.0" text-anchor="end" dominant-baseline="middle" font-size="10" fill="#888">0%</text>
  <line x1="60" y1="264.0" x2="860" y2="264.0" stroke="#333" stroke-width="1" stroke-dasharray="4,4" opacity="0.5"/>
  <text x="50" y="264.0" text-anchor="end" dominant-baseline="middle" font-size="10" fill="#888">20%</text>
  <line x1="60" y1="208.0" x2="860" y2="208.0" stroke="#333" stroke-width="1" stroke-dasharray="4,4" opacity="0.5"/>
  <text x="50" y="208.0" text-anchor="end" dominant-baseline="middle" font-size="10" fill="#888">40%</text>
  <line x1="60" y1="152.0" x2="860" y2="152.0" stroke="#333" stroke-width="1" stroke-dasharray="4,4" opacity="0.5"/>
  <text x="50" y="152.0" text-anchor="end" dominant-baseline="middle" font-size="10" fill="#888">60%</text>
  <line x1="60" y1="96.0" x2="860" y2="96.0" stroke="#333" stroke-width="1" stroke-dasharray="4,4" opacity="0.5"/>
  <text x="50" y="96.0" text-anchor="end" dominant-baseline="middle" font-size="10" fill="#888">80%</text>
  <line x1="60" y1="40.0" x2="860" y2="40.0" stroke="#333" stroke-width="1" stroke-dasharray="4,4" opacity="0.5"/>
  <text x="50" y="40.0" text-anchor="end" dominant-baseline="middle" font-size="10" fill="#888">100%</text>

  <!-- Referans çizgileri -->
  <line x1="60" y1="236.0" x2="860" y2="236.0" stroke="#ef4444" stroke-width="1" stroke-dasharray="2,2" opacity="0.7"/>
  <text x="845" y="236.0" dominant-baseline="middle" font-size="9" fill="#ef4444">Kritik (30%)</text>
  <line x1="60" y1="180.0" x2="860" y2="180.0" stroke="#eab308" stroke-width="1" stroke-dasharray="2,2" opacity="0.7"/>
  <text x="845" y="180.0" dominant-baseline="middle" font-size="9" fill="#eab308">Normal (50%)</text>

  <!-- Toplam doluluk -->
  <polyline points="60.0,193.2 71.4,192.5 82.9,192.0 94.3,191.6 105.7,191.1 117.1,190.8 128.6,190.4 140.0,190.1 151.4,189.6 162.9,188.8 174.3,187.8 185.7,187.0 197.1,186.2 208.6,185.6 220.0,185.0 231.4,184.3 242.9,183.6 254.3,183.2 265.7,182.9 277.1,182.7 288.6,182.7 300.0,182.4 311.4,182.3 322.9,182.3 334.3,182.2 345.7,182.2 357.1,182.2 368.6,182.2 380.0,182.3 391.4,182.4 402.9,182.5 414.3,182.6 425.7,182.7 437.1,182.9 448.6,183.1 460.0,183.2 471.4,183.3 482.9,183.4 494.3,183.5 505.7,183.7 517.1,183.9 528.6,184.2 540.0,184.4 551.4,184.7 562.9,185.0 574.3,185.3 585.7,185.6 597.1,186.0 608.6,186.3 620.0,186.6 631.4,187.0 642.9,187.3 654.3,187.6 665.7,188.0 677.1,188.3 688.6,188.6 700.0,189.0 711.4,189.3 722.9,189.6 734.3,189.9 745.7,190.2 757.1,190.5 768.6,190.8 780.0,191.1 791.4,191.4 802.9,191.6 814.3,192.0 825.7,192.3 837.1,192.6 848.6,193.0 860.0,193.3" fill="none" stroke="#22c55e" stroke-width="2.5" stroke-linecap="round" stroke-linejoin="round"/>
  <polyline points="60.0,193.2 71.4,192.5 82.9,192.0 94.3,191.6 105.7,191.1 117.1,190.8 128.6,190.4 140.0,190.1 151.4,189.6 162.9,188.8 174.3,187.8 185.7,187.0 197.1,186.2 208.6,185.6 220.0,185.0 231.4,184.3 242.9,183.6 254.3,183.2 265.7,182.9 277.1,182.7 288.6,182.7 300.0,182.4 311.4,182.3 322.9,182.3 334.3,182.2 345.7,182.2 357.1,182.2 368.6,182.2 380.0,182.3 391.4,182.4 402.9,182.5 414.3,182.6 425.7,182.7 437.1,182.9 448.6,183.1 460.0,183.2 471.4,183.3 482.9,183.4 494.3,183.5 505.7,183.7 517.1,183.9 528.6,184.2 540.0,184.4 551.4,184.7 562.9,185.0 574.3,185.3 585.7,185.6 597.1,186.0 608.6,186.3 620.0,186.6 631.4,187.0 642.9,187.3 654.3,187.6 665.7,188.0 677.1,188.3 688.6,188.6 700.0,189.0 711.4,189.3 722.9,189.6 734.3,189.9 745.7,190.2 757.1,190.5 768.6,190.8 780.0,191.1 791.4,191.4 802.9,191.6 814.3,192.0 825.7,192.3 837.1,192.6 848.6,193.0 860.0,193.3" fill="none" stroke="#22c55e" stroke-width="5" opacity="0.1" stroke-linecap="round" stroke-linejoin="round"/>

  <!-- Aktif doluluk -->
  <polyline points="60.0,211.1 71.4,210.2 82.9,209.7 94.3,209.2 105.7,208.7 117.1,208.3 128.6,207.9 140.0,207.5 151.4,207.0 162.9,206.2 174.3,205.0 185.7,204.1 197.1,203.2 208.6,202.5 220.0,201.9 231.4,201.0 242.9,200.3 254.3,199.9 265.7,199.6 277.1,199.4 288.6,199.3 300.0,199.0 311.4,198.9 322.9,198.9 334.3,198.7 345.7,198.7 357.1,198.8 368.6,198.8 380.0,198.8 391.4,198.9 402.9,199.0 414.3,199.2 425.7,199.4 437.1,199.5 448.6,199.7 460.0,199.8 471.4,200.0 482.9,200.1 494.3,200.2 505.7,200.4 517.1,200.7 528.6,201.0 540.0,201.3 551.4,201.6 562.9,201.8 574.3,202.2 585.7,202.6 597.1,203.0 608.6,203.3 620.0,203.7 631.4,204.1 642.9,204.4 654.3,204.8 665.7,205.2 677.1,205.5 688.6,205.9 700.0,206.3 711.4,206.7 722.9,207.0 734.3,207.4 745.7,207.7 757.1,208.0 768.6,208.3 780.0,208.7 791.4,209.0 802.9,209.3 814.3,209.7 825.7,210.0 837.1,210.4 848.6,210.8 860.0,211.1" fill="none" stroke="#3b82f6" stroke-width="2.5" stroke-linecap="round" stroke-linejoin="round"/>
  <polyline points="60.0,211.1 71.4,210.2 82.9,209.7 94.3,209.2 105.7,208.7 117.1,208.3 128.6,207.9 140.0,207.5 151.4,207.0 162.9,206.2 174.3,205.0 185.7,204.1 197.1,203.2 208.6,202.5 220.0,201.9 231.4,201.0 242.9,200.3 254.3,199.9 265.7,199.6 277.1,199.4 288.6,199.3 300.0,199.0 311.4,198.9 322.9,198.9 334.3,198.7 345.7,198.7 357.1,198.8 368.6,198.8 380.0,198.8 391.4,198.9 402.9,199.0 414.3,199.2 425.7,199.4 437.1,199.5 448.6,199.7 460.0,199.8 471.4,200.0 482.9,200.1 494.3,200.2 505.7,200.4 517.1,200.7 528.6,201.0 540.0,201.3 551.4,201.6 562.9,201.8 574.3,202.2 585.7,202.6 597.1,203.0 608.6,203.3 620.0,203.7 631.4,204.1 642.9,204.4 654.3,204.8 665.7,205.2 677.1,205.5 688.6,205.9 700.0,206.3 711.4,206.7 722.9,207.0 734.3,207.4 745.7,207.7 757.1,208.0 768.6,208.3 780.0,208.7 791.4,209.0 802.9,209.3 814.3,209.7 825.7,210.0 837.1,210.4 848.6,210.8 860.0,211.1" fill="none" stroke="#3b82f6" stroke-width="5" opacity="0.1" stroke-linecap="round" stroke-linejoin="round"/>

  <!-- Noktalar -->
  <circle cx="60.0" cy="193.2" r="3" fill="#22c55e"/><circle cx="71.4" cy="192.5" r="3" fill="#22c55e"/><circle cx="82.9" cy="192.0" r="3" fill="#22c55e"/><circle cx="94.3" cy="191.6" r="3" fill="#22c55e"/><circle cx="105.7" cy="191.1" r="3" fill="#22c55e"/><circle cx="117.1" cy="190.8" r="3" fill="#22c55e"/><circle cx="128.6" cy="190.4" r="3" fill="#22c55e"/><circle cx="140.0" cy="190.1" r="3" fill="#22c55e"/><circle cx="151.4" cy="189.6" r="3" fill="#22c55e"/><circle cx="162.9" cy="188.8" r="3" fill="#22c55e"/><circle cx="174.3" cy="187.8" r="3" fill="#22c55e"/><circle cx="185.7" cy="187.0" r="3" fill="#22c55e"/><circle cx="197.1" cy="186.2" r="3" fill="#22c55e"/><circle cx="208.6" cy="185.6" r="3" fill="#22c55e"/><circle cx="220.0" cy="185.0" r="3" fill="#22c55e"/><circle cx="231.4" cy="184.3" r="3" fill="#22c55e"/><circle cx="242.9" cy="183.6" r="3" fill="#22c55e"/><circle cx="254.3" cy="183.2" r="3" fill="#22c55e"/><circle cx="265.7" cy="182.9" r="3" fill="#22c55e"/><circle cx="277.1" cy="182.7" r="3" fill="#22c55e"/><circle cx="288.6" cy="182.7" r="3" fill="#22c55e"/><circle cx="300.0" cy="182.4" r="3" fill="#22c55e"/><circle cx="311.4" cy="182.3" r="3" fill="#22c55e"/><circle cx="322.9" cy="182.3" r="3" fill="#22c55e"/><circle cx="334.3" cy="182.2" r="3" fill="#22c55e"/><circle cx="345.7" cy="182.2" r="3" fill="#22c55e"/><circle cx="357.1" cy="182.2" r="3" fill="#22c55e"/><circle cx="368.6" cy="182.2" r="3" fill="#22c55e"/><circle cx="380.0" cy="182.3" r="3" fill="#22c55e"/><circle cx="391.4" cy="182.4" r="3" fill="#22c55e"/><circle cx="402.9" cy="182.5" r="3" fill="#22c55e"/><circle cx="414.3" cy="182.6" r="3" fill="#22c55e"/><circle cx="425.7" cy="182.7" r="3" fill="#22c55e"/><circle cx="437.1" cy="182.9" r="3" fill="#22c55e"/><circle cx="448.6" cy="183.1" r="3" fill="#22c55e"/><circle cx="460.0" cy="183.2" r="3" fill="#22c55e"/><circle cx="471.4" cy="183.3" r="3" fill="#22c55e"/><circle cx="482.9" cy="183.4" r="3" fill="#22c55e"/><circle cx="494.3" cy="183.5" r="3" fill="#22c55e"/><circle cx="505.7" cy="183.7" r="3" fill="#22c55e"/><circle cx="517.1" cy="183.9" r="3" fill="#22c55e"/><circle cx="528.6" cy="184.2" r="3" fill="#22c55e"/><circle cx="540.0" cy="184.4" r="3" fill="#22c55e"/><circle cx="551.4" cy="184.7" r="3" fill="#22c55e"/><circle cx="562.9" cy="185.0" r="3" fill="#22c55e"/><circle cx="574.3" cy="185.3" r="3" fill="#22c55e"/><circle cx="585.7" cy="185.6" r="3" fill="#22c55e"/><circle cx="597.1" cy="186.0" r="3" fill="#22c55e"/><circle cx="608.6" cy="186.3" r="3" fill="#22c55e"/><circle cx="620.0" cy="186.6" r="3" fill="#22c55e"/><circle cx="631.4" cy="187.0" r="3" fill="#22c55e"/><circle cx="642.9" cy="187.3" r="3" fill="#22c55e"/><circle cx="654.3" cy="187.6" r="3" fill="#22c55e"/><circle cx="665.7" cy="188.0" r="3" fill="#22c55e"/><circle cx="677.1" cy="188.3" r="3" fill="#22c55e"/><circle cx="688.6" cy="188.6" r="3" fill="#22c55e"/><circle cx="700.0" cy="189.0" r="3" fill="#22c55e"/><circle cx="711.4" cy="189.3" r="3" fill="#22c55e"/><circle cx="722.9" cy="189.6" r="3" fill="#22c55e"/><circle cx="734.3" cy="189.9" r="3" fill="#22c55e"/><circle cx="745.7" cy="190.2" r="3" fill="#22c55e"/><circle cx="757.1" cy="190.5" r="3" fill="#22c55e"/><circle cx="768.6" cy="190.8" r="3" fill="#22c55e"/><circle cx="780.0" cy="191.1" r="3" fill="#22c55e"/><circle cx="791.4" cy="191.4" r="3" fill="#22c55e"/><circle cx="802.9" cy="191.6" r="3" fill="#22c55e"/><circle cx="814.3" cy="192.0" r="3" fill="#22c55e"/><circle cx="825.7" cy="192.3" r="3" fill="#22c55e"/><circle cx="837.1" cy="192.6" r="3" fill="#22c55e"/><circle cx="848.6" cy="193.0" r="3" fill="#22c55e"/><circle cx="860.0" cy="193.3" r="3" fill="#22c55e"/>
  <circle cx="60.0" cy="211.1" r="3" fill="#3b82f6"/><circle cx="71.4" cy="210.2" r="3" fill="#3b82f6"/><circle cx="82.9" cy="209.7" r="3" fill="#3b82f6"/><circle cx="94.3" cy="209.2" r="3" fill="#3b82f6"/><circle cx="105.7" cy="208.7" r="3" fill="#3b82f6"/><circle cx="117.1" cy="208.3" r="3" fill="#3b82f6"/><circle cx="128.6" cy="207.9" r="3" fill="#3b82f6"/><circle cx="140.0" cy="207.5" r="3" fill="#3b82f6"/><circle cx="151.4" cy="207.0" r="3" fill="#3b82f6"/><circle cx="162.9" cy="206.2" r="3" fill="#3b82f6"/><circle cx="174.3" cy="205.0" r="3" fill="#3b82f6"/><circle cx="185.7" cy="204.1" r="3" fill="#3b82f6"/><circle cx="197.1" cy="203.2" r="3" fill="#3b82f6"/><circle cx="208.6" cy="202.5" r="3" fill="#3b82f6"/><circle cx="220.0" cy="201.9" r="3" fill="#3b82f6"/><circle cx="231.4" cy="201.0" r="3" fill="#3b82f6"/><circle cx="242.9" cy="200.3" r="3" fill="#3b82f6"/><circle cx="254.3" cy="199.9" r="3" fill="#3b82f6"/><circle cx="265.7" cy="199.6" r="3" fill="#3b82f6"/><circle cx="277.1" cy="199.4" r="3" fill="#3b82f6"/><circle cx="288.6" cy="199.3" r="3" fill="#3b82f6"/><circle cx="300.0" cy="199.0" r="3" fill="#3b82f6"/><circle cx="311.4" cy="198.9" r="3" fill="#3b82f6"/><circle cx="322.9" cy="198.9" r="3" fill="#3b82f6"/><circle cx="334.3" cy="198.7" r="3" fill="#3b82f6"/><circle cx="345.7" cy="198.7" r="3" fill="#3b82f6"/><circle cx="357.1" cy="198.8" r="3" fill="#3b82f6"/><circle cx="368.6" cy="198.8" r="3" fill="#3b82f6"/><circle cx="380.0" cy="198.8" r="3" fill="#3b82f6"/><circle cx="391.4" cy="198.9" r="3" fill="#3b82f6"/><circle cx="402.9" cy="199.0" r="3" fill="#3b82f6"/><circle cx="414.3" cy="199.2" r="3" fill="#3b82f6"/><circle cx="425.7" cy="199.4" r="3" fill="#3b82f6"/><circle cx="437.1" cy="199.5" r="3" fill="#3b82f6"/><circle cx="448.6" cy="199.7" r="3" fill="#3b82f6"/><circle cx="460.0" cy="199.8" r="3" fill="#3b82f6"/><circle cx="471.4" cy="200.0" r="3" fill="#3b82f6"/><circle cx="482.9" cy="200.1" r="3" fill="#3b82f6"/><circle cx="494.3" cy="200.2" r="3" fill="#3b82f6"/><circle cx="505.7" cy="200.4" r="3" fill="#3b82f6"/><circle cx="517.1" cy="200.7" r="3" fill="#3b82f6"/><circle cx="528.6" cy="201.0" r="3" fill="#3b82f6"/><circle cx="540.0" cy="201.3" r="3" fill="#3b82f6"/><circle cx="551.4" cy="201.6" r="3" fill="#3b82f6"/><circle cx="562.9" cy="201.8" r="3" fill="#3b82f6"/><circle cx="574.3" cy="202.2" r="3" fill="#3b82f6"/><circle cx="585.7" cy="202.6" r="3" fill="#3b82f6"/><circle cx="597.1" cy="203.0" r="3" fill="#3b82f6"/><circle cx="608.6" cy="203.3" r="3" fill="#3b82f6"/><circle cx="620.0" cy="203.7" r="3" fill="#3b82f6"/><circle cx="631.4" cy="204.1" r="3" fill="#3b82f6"/><circle cx="642.9" cy="204.4" r="3" fill="#3b82f6"/><circle cx="654.3" cy="204.8" r="3" fill="#3b82f6"/><circle cx="665.7" cy="205.2" r="3" fill="#3b82f6"/><circle cx="677.1" cy="205.5" r="3" fill="#3b82f6"/><circle cx="688.6" cy="205.9" r="3" fill="#3b82f6"/><circle cx="700.0" cy="206.3" r="3" fill="#3b82f6"/><circle cx="711.4" cy="206.7" r="3" fill="#3b82f6"/><circle cx="722.9" cy="207.0" r="3" fill="#3b82f6"/><circle cx="734.3" cy="207.4" r="3" fill="#3b82f6"/><circle cx="745.7" cy="207.7" r="3" fill="#3b82f6"/><circle cx="757.1" cy="208.0" r="3" fill="#3b82f6"/><circle cx="768.6" cy="208.3" r="3" fill="#3b82f6"/><circle cx="780.0" cy="208.7" r="3" fill="#3b82f6"/><circle cx="791.4" cy="209.0" r="3" fill="#3b82f6"/><circle cx="802.9" cy="209.3" r="3" fill="#3b82f6"/><circle cx="814.3" cy="209.7" r="3" fill="#3b82f6"/><circle cx="825.7" cy="210.0" r="3" fill="#3b82f6"/><circle cx="837.1" cy="210.4" r="3" fill="#3b82f6"/><circle cx="848.6" cy="210.8" r="3" fill="#3b82f6"/><circle cx="860.0" cy="211.1" r="3" fill="#3b82f6"/>

  <!-- X ekseni -->
  <text x="60.0" y="380" text-anchor="middle" font-size="10" fill="#888">14.05.2026</text>
  <text x="185.7" y="380" text-anchor="middle" font-size="10" fill="#888">25.05.2026</text>
  <text x="311.4" y="380" text-anchor="middle" font-size="10" fill="#888">05.06.2026</text>
  <text x="437.1" y="380" text-anchor="middle" font-size="10" fill="#888">16.06.2026</text>
  <text x="562.9" y="380" text-anchor="middle" font-size="10" fill="#888">27.06.2026</text>
  <text x="688.6" y="380" text-anchor="middle" font-size="10" fill="#888">08.07.2026</text>
  <text x="814.3" y="380" text-anchor="middle" font-size="10" fill="#888">19.07.2026</text>

  <!-- Legend -->
  <g transform="translate(60, 345)">
    <rect x="0" y="0" width="12" height="12" fill="#22c55e" rx="2"/>
    <text x="18" y="10" font-size="11" fill="#c9d1d9">Toplam Doluluk</text>
    <rect x="140" y="0" width="12" height="12" fill="#3b82f6" rx="2"/>
    <text x="158" y="10" font-size="11" fill="#c9d1d9">Aktif Doluluk</text>
  </g>
</svg>