<svg xmlns="http://www.w3.org/2000/svg" viewBox="0 0 900 400" width="100%" style="max-width:900px;">
  <rect width="900" height="400" fill="#0d1117" rx="6"/>
  <text x="450.0" y="25" text-anchor="middle" font-size="16" font-weight="bold" fill="#c9d1d9">Son 360 Gün - Günlük Ortalama</text>

  <!-- Y grid -->
  <line x1="60" y1="320.0" x2="860" y2="320.0" stroke="#333" stroke-width="1" stroke-dasharray="4,4" opacity="0.5"/>
  <text x="50" y="320.0" text-anchor="end" dominant-baseline="middle" font-size="10" fill="#888">0%</text>
  <line x1="60" y1="264.0" x2="860" y2="264.0" stroke="#333" stroke-width="1" stroke-dasharray="4,4" opacity="0.5"/>
  <text x="50" y="264.0" text-anchor="end" dominant-baseline="middle" font-size="10" fill="#888">20%</text>
  <line x1="60" y1="208.0" x2="860" y2="208.0" stroke="#333" stroke-width="1" stroke-dasharray="4,4" opacity="0.5"/>
  <text x="50" y="208.0" text-anchor="end" dominant-baseline="middle" font-size="10" fill="#888">40%</text>
  <line x1="60" y1="152.0" x2="860" y2="152.0" stroke="#333" stroke-width="1" stroke-dasharray="4,4" opacity="0.5"/>
  <text x="50" y="152.0" text-anchor="end" dominant-baseline="middle" font-size="10" fill="#888">60%</text>
  <line x1="60" y1="96.0" x2="860" y2="96.0" stroke="#333" stroke-width="1" stroke-dasharray="4,4" opacity="0.5"/>
  <text x="50" y="96.0" text-anchor="end" dominant-baseline="middle" font-size="10" fill="#888">80%</text>
  <line x1="60" y1="40.0" x2="860" y2="40.0" stroke="#333" stroke-width="1" stroke-dasharray="4,4" opacity="0.5"/>
  <text x="50" y="40.0" text-anchor="end" dominant-baseline="middle" font-size="10" fill="#888">100%</text>

  <!-- Referans çizgileri -->
  <line x1="60" y1="236.0" x2="860" y2="236.0" stroke="#ef4444" stroke-width="1" stroke-dasharray="2,2" opacity="0.7"/>
  <text x="845" y="236.0" dominant-baseline="middle" font-size="9" fill="#ef4444">Kritik (30%)</text>
  <line x1="60" y1="180.0" x2="860" y2="180.0" stroke="#eab308" stroke-width="1" stroke-dasharray="2,2" opacity="0.7"/>
  <text x="845" y="180.0" dominant-baseline="middle" font-size="9" fill="#eab308">Normal (50%)</text>

  <!-- Toplam doluluk -->
  <polyline points="60.0,193.2 81.6,192.5 103.2,192.0 124.9,191.6 146.5,191.1 168.1,190.8 189.7,190.4 211.4,190.1 233.0,189.6 254.6,188.8 276.2,187.8 297.8,187.0 319.5,186.2 341.1,185.6 362.7,185.0 384.3,184.3 405.9,183.6 427.6,183.2 449.2,182.9 470.8,182.7 492.4,182.7 514.1,182.4 535.7,182.3 557.3,182.3 578.9,182.2 600.5,182.2 622.2,182.2 643.8,182.2 665.4,182.3 687.0,182.4 708.6,182.5 730.3,182.6 751.9,182.7 773.5,182.9 795.1,183.1 816.8,183.2 838.4,183.3 860.0,183.4" fill="none" stroke="#22c55e" stroke-width="2.5" stroke-linecap="round" stroke-linejoin="round"/>
  <polyline points="60.0,193.2 81.6,192.5 103.2,192.0 124.9,191.6 146.5,191.1 168.1,190.8 189.7,190.4 211.4,190.1 233.0,189.6 254.6,188.8 276.2,187.8 297.8,187.0 319.5,186.2 341.1,185.6 362.7,185.0 384.3,184.3 405.9,183.6 427.6,183.2 449.2,182.9 470.8,182.7 492.4,182.7 514.1,182.4 535.7,182.3 557.3,182.3 578.9,182.2 600.5,182.2 622.2,182.2 643.8,182.2 665.4,182.3 687.0,182.4 708.6,182.5 730.3,182.6 751.9,182.7 773.5,182.9 795.1,183.1 816.8,183.2 838.4,183.3 860.0,183.4" fill="none" stroke="#22c55e" stroke-width="5" opacity="0.1" stroke-linecap="round" stroke-linejoin="round"/>

  <!-- Aktif doluluk -->
  <polyline points="60.0,211.1 81.6,210.2 103.2,209.7 124.9,209.2 146.5,208.7 168.1,208.3 189.7,207.9 211.4,207.5 233.0,207.0 254.6,206.2 276.2,205.0 297.8,204.1 319.5,203.2 341.1,202.5 362.7,201.9 384.3,201.0 405.9,200.3 427.6,199.9 449.2,199.6 470.8,199.4 492.4,199.3 514.1,199.0 535.7,198.9 557.3,198.9 578.9,198.7 600.5,198.7 622.2,198.8 643.8,198.8 665.4,198.8 687.0,198.9 708.6,199.0 730.3,199.2 751.9,199.4 773.5,199.5 795.1,199.7 816.8,199.8 838.4,200.0 860.0,200.1" fill="none" stroke="#3b82f6" stroke-width="2.5" stroke-linecap="round" stroke-linejoin="round"/>
  <polyline points="60.0,211.1 81.6,210.2 103.2,209.7 124.9,209.2 146.5,208.7 168.1,208.3 189.7,207.9 211.4,207.5 233.0,207.0 254.6,206.2 276.2,205.0 297.8,204.1 319.5,203.2 341.1,202.5 362.7,201.9 384.3,201.0 405.9,200.3 427.6,199.9 449.2,199.6 470.8,199.4 492.4,199.3 514.1,199.0 535.7,198.9 557.3,198.9 578.9,198.7 600.5,198.7 622.2,198.8 643.8,198.8 665.4,198.8 687.0,198.9 708.6,199.0 730.3,199.2 751.9,199.4 773.5,199.5 795.1,199.7 816.8,199.8 838.4,200.0 860.0,200.1" fill="none" stroke="#3b82f6" stroke-width="5" opacity="0.1" stroke-linecap="round" stroke-linejoin="round"/>

  <!-- Noktalar -->
  <circle cx="60.0" cy="193.2" r="3" fill="#22c55e"/><circle cx="81.6" cy="192.5" r="3" fill="#22c55e"/><circle cx="103.2" cy="192.0" r="3" fill="#22c55e"/><circle cx="124.9" cy="191.6" r="3" fill="#22c55e"/><circle cx="146.5" cy="191.1" r="3" fill="#22c55e"/><circle cx="168.1" cy="190.8" r="3" fill="#22c55e"/><circle cx="189.7" cy="190.4" r="3" fill="#22c55e"/><circle cx="211.4" cy="190.1" r="3" fill="#22c55e"/><circle cx="233.0" cy="189.6" r="3" fill="#22c55e"/><circle cx="254.6" cy="188.8" r="3" fill="#22c55e"/><circle cx="276.2" cy="187.8" r="3" fill="#22c55e"/><circle cx="297.8" cy="187.0" r="3" fill="#22c55e"/><circle cx="319.5" cy="186.2" r="3" fill="#22c55e"/><circle cx="341.1" cy="185.6" r="3" fill="#22c55e"/><circle cx="362.7" cy="185.0" r="3" fill="#22c55e"/><circle cx="384.3" cy="184.3" r="3" fill="#22c55e"/><circle cx="405.9" cy="183.6" r="3" fill="#22c55e"/><circle cx="427.6" cy="183.2" r="3" fill="#22c55e"/><circle cx="449.2" cy="182.9" r="3" fill="#22c55e"/><circle cx="470.8" cy="182.7" r="3" fill="#22c55e"/><circle cx="492.4" cy="182.7" r="3" fill="#22c55e"/><circle cx="514.1" cy="182.4" r="3" fill="#22c55e"/><circle cx="535.7" cy="182.3" r="3" fill="#22c55e"/><circle cx="557.3" cy="182.3" r="3" fill="#22c55e"/><circle cx="578.9" cy="182.2" r="3" fill="#22c55e"/><circle cx="600.5" cy="182.2" r="3" fill="#22c55e"/><circle cx="622.2" cy="182.2" r="3" fill="#22c55e"/><circle cx="643.8" cy="182.2" r="3" fill="#22c55e"/><circle cx="665.4" cy="182.3" r="3" fill="#22c55e"/><circle cx="687.0" cy="182.4" r="3" fill="#22c55e"/><circle cx="708.6" cy="182.5" r="3" fill="#22c55e"/><circle cx="730.3" cy="182.6" r="3" fill="#22c55e"/><circle cx="751.9" cy="182.7" r="3" fill="#22c55e"/><circle cx="773.5" cy="182.9" r="3" fill="#22c55e"/><circle cx="795.1" cy="183.1" r="3" fill="#22c55e"/><circle cx="816.8" cy="183.2" r="3" fill="#22c55e"/><circle cx="838.4" cy="183.3" r="3" fill="#22c55e"/><circle cx="860.0" cy="183.4" r="3" fill="#22c55e"/>
  <circle cx="60.0" cy="211.1" r="3" fill="#3b82f6"/><circle cx="81.6" cy="210.2" r="3" fill="#3b82f6"/><circle cx="103.2" cy="209.7" r="3" fill="#3b82f6"/><circle cx="124.9" cy="209.2" r="3" fill="#3b82f6"/><circle cx="146.5" cy="208.7" r="3" fill="#3b82f6"/><circle cx="168.1" cy="208.3" r="3" fill="#3b82f6"/><circle cx="189.7" cy="207.9" r="3" fill="#3b82f6"/><circle cx="211.4" cy="207.5" r="3" fill="#3b82f6"/><circle cx="233.0" cy="207.0" r="3" fill="#3b82f6"/><circle cx="254.6" cy="206.2" r="3" fill="#3b82f6"/><circle cx="276.2" cy="205.0" r="3" fill="#3b82f6"/><circle cx="297.8" cy="204.1" r="3" fill="#3b82f6"/><circle cx="319.5" cy="203.2" r="3" fill="#3b82f6"/><circle cx="341.1" cy="202.5" r="3" fill="#3b82f6"/><circle cx="362.7" cy="201.9" r="3" fill="#3b82f6"/><circle cx="384.3" cy="201.0" r="3" fill="#3b82f6"/><circle cx="405.9" cy="200.3" r="3" fill="#3b82f6"/><circle cx="427.6" cy="199.9" r="3" fill="#3b82f6"/><circle cx="449.2" cy="199.6" r="3" fill="#3b82f6"/><circle cx="470.8" cy="199.4" r="3" fill="#3b82f6"/><circle cx="492.4" cy="199.3" r="3" fill="#3b82f6"/><circle cx="514.1" cy="199.0" r="3" fill="#3b82f6"/><circle cx="535.7" cy="198.9" r="3" fill="#3b82f6"/><circle cx="557.3" cy="198.9" r="3" fill="#3b82f6"/><circle cx="578.9" cy="198.7" r="3" fill="#3b82f6"/><circle cx="600.5" cy="198.7" r="3" fill="#3b82f6"/><circle cx="622.2" cy="198.8" r="3" fill="#3b82f6"/><circle cx="643.8" cy="198.8" r="3" fill="#3b82f6"/><circle cx="665.4" cy="198.8" r="3" fill="#3b82f6"/><circle cx="687.0" cy="198.9" r="3" fill="#3b82f6"/><circle cx="708.6" cy="199.0" r="3" fill="#3b82f6"/><circle cx="730.3" cy="199.2" r="3" fill="#3b82f6"/><circle cx="751.9" cy="199.4" r="3" fill="#3b82f6"/><circle cx="773.5" cy="199.5" r="3" fill="#3b82f6"/><circle cx="795.1" cy="199.7" r="3" fill="#3b82f6"/><circle cx="816.8" cy="199.8" r="3" fill="#3b82f6"/><circle cx="838.4" cy="200.0" r="3" fill="#3b82f6"/><circle cx="860.0" cy="200.1" r="3" fill="#3b82f6"/>

  <!-- X ekseni -->
  <text x="60.0" y="380" text-anchor="middle" font-size="10" fill="#888">14.05.2026</text>
  <text x="189.7" y="380" text-anchor="middle" font-size="10" fill="#888">20.05.2026</text>
  <text x="319.5" y="380" text-anchor="middle" font-size="10" fill="#888">26.05.2026</text>
  <text x="449.2" y="380" text-anchor="middle" font-size="10" fill="#888">01.06.2026</text>
  <text x="578.9" y="380" text-anchor="middle" font-size="10" fill="#888">07.06.2026</text>
  <text x="708.6" y="380" text-anchor="middle" font-size="10" fill="#888">13.06.2026</text>
  <text x="838.4" y="380" text-anchor="middle" font-size="10" fill="#888">19.06.2026</text>

  <!-- Legend -->
  <g transform="translate(60, 345)">
    <rect x="0" y="0" width="12" height="12" fill="#22c55e" rx="2"/>
    <text x="18" y="10" font-size="11" fill="#c9d1d9">Toplam Doluluk</text>
    <rect x="140" y="0" width="12" height="12" fill="#3b82f6" rx="2"/>
    <text x="158" y="10" font-size="11" fill="#c9d1d9">Aktif Doluluk</text>
  </g>
</svg>