<svg xmlns="http://www.w3.org/2000/svg" viewBox="0 0 900 400" width="100%" style="max-width:900px;">
  <rect width="900" height="400" fill="#0d1117" rx="6"/>
  <text x="450.0" y="25" text-anchor="middle" font-size="16" font-weight="bold" fill="#c9d1d9">Son 180 Gün - Günlük Ortalama</text>

  <!-- Y grid -->
  <line x1="60" y1="320.0" x2="860" y2="320.0" stroke="#333" stroke-width="1" stroke-dasharray="4,4" opacity="0.5"/>
  <text x="50" y="320.0" text-anchor="end" dominant-baseline="middle" font-size="10" fill="#888">0%</text>
  <line x1="60" y1="264.0" x2="860" y2="264.0" stroke="#333" stroke-width="1" stroke-dasharray="4,4" opacity="0.5"/>
  <text x="50" y="264.0" text-anchor="end" dominant-baseline="middle" font-size="10" fill="#888">20%</text>
  <line x1="60" y1="208.0" x2="860" y2="208.0" stroke="#333" stroke-width="1" stroke-dasharray="4,4" opacity="0.5"/>
  <text x="50" y="208.0" text-anchor="end" dominant-baseline="middle" font-size="10" fill="#888">40%</text>
  <line x1="60" y1="152.0" x2="860" y2="152.0" stroke="#333" stroke-width="1" stroke-dasharray="4,4" opacity="0.5"/>
  <text x="50" y="152.0" text-anchor="end" dominant-baseline="middle" font-size="10" fill="#888">60%</text>
  <line x1="60" y1="96.0" x2="860" y2="96.0" stroke="#333" stroke-width="1" stroke-dasharray="4,4" opacity="0.5"/>
  <text x="50" y="96.0" text-anchor="end" dominant-baseline="middle" font-size="10" fill="#888">80%</text>
  <line x1="60" y1="40.0" x2="860" y2="40.0" stroke="#333" stroke-width="1" stroke-dasharray="4,4" opacity="0.5"/>
  <text x="50" y="40.0" text-anchor="end" dominant-baseline="middle" font-size="10" fill="#888">100%</text>

  <!-- Referans çizgileri -->
  <line x1="60" y1="236.0" x2="860" y2="236.0" stroke="#ef4444" stroke-width="1" stroke-dasharray="2,2" opacity="0.7"/>
  <text x="845" y="236.0" dominant-baseline="middle" font-size="9" fill="#ef4444">Kritik (30%)</text>
  <line x1="60" y1="180.0" x2="860" y2="180.0" stroke="#eab308" stroke-width="1" stroke-dasharray="2,2" opacity="0.7"/>
  <text x="845" y="180.0" dominant-baseline="middle" font-size="9" fill="#eab308">Normal (50%)</text>

  <!-- Toplam doluluk -->
  <polyline points="60.0,193.2 74.0,192.5 88.1,192.0 102.1,191.6 116.1,191.1 130.2,190.8 144.2,190.4 158.2,190.1 172.3,189.6 186.3,188.8 200.4,187.8 214.4,187.0 228.4,186.2 242.5,185.6 256.5,185.0 270.5,184.3 284.6,183.6 298.6,183.2 312.6,182.9 326.7,182.7 340.7,182.7 354.7,182.4 368.8,182.3 382.8,182.3 396.8,182.2 410.9,182.2 424.9,182.2 438.9,182.2 453.0,182.3 467.0,182.4 481.1,182.5 495.1,182.6 509.1,182.7 523.2,182.9 537.2,183.1 551.2,183.2 565.3,183.3 579.3,183.4 593.3,183.5 607.4,183.7 621.4,183.9 635.4,184.2 649.5,184.4 663.5,184.7 677.5,185.0 691.6,185.3 705.6,185.6 719.6,186.0 733.7,186.3 747.7,186.6 761.8,187.0 775.8,187.3 789.8,187.6 803.9,188.0 817.9,188.3 831.9,188.6 846.0,189.0 860.0,189.3" fill="none" stroke="#22c55e" stroke-width="2.5" stroke-linecap="round" stroke-linejoin="round"/>
  <polyline points="60.0,193.2 74.0,192.5 88.1,192.0 102.1,191.6 116.1,191.1 130.2,190.8 144.2,190.4 158.2,190.1 172.3,189.6 186.3,188.8 200.4,187.8 214.4,187.0 228.4,186.2 242.5,185.6 256.5,185.0 270.5,184.3 284.6,183.6 298.6,183.2 312.6,182.9 326.7,182.7 340.7,182.7 354.7,182.4 368.8,182.3 382.8,182.3 396.8,182.2 410.9,182.2 424.9,182.2 438.9,182.2 453.0,182.3 467.0,182.4 481.1,182.5 495.1,182.6 509.1,182.7 523.2,182.9 537.2,183.1 551.2,183.2 565.3,183.3 579.3,183.4 593.3,183.5 607.4,183.7 621.4,183.9 635.4,184.2 649.5,184.4 663.5,184.7 677.5,185.0 691.6,185.3 705.6,185.6 719.6,186.0 733.7,186.3 747.7,186.6 761.8,187.0 775.8,187.3 789.8,187.6 803.9,188.0 817.9,188.3 831.9,188.6 846.0,189.0 860.0,189.3" fill="none" stroke="#22c55e" stroke-width="5" opacity="0.1" stroke-linecap="round" stroke-linejoin="round"/>

  <!-- Aktif doluluk -->
  <polyline points="60.0,211.1 74.0,210.2 88.1,209.7 102.1,209.2 116.1,208.7 130.2,208.3 144.2,207.9 158.2,207.5 172.3,207.0 186.3,206.2 200.4,205.0 214.4,204.1 228.4,203.2 242.5,202.5 256.5,201.9 270.5,201.0 284.6,200.3 298.6,199.9 312.6,199.6 326.7,199.4 340.7,199.3 354.7,199.0 368.8,198.9 382.8,198.9 396.8,198.7 410.9,198.7 424.9,198.8 438.9,198.8 453.0,198.8 467.0,198.9 481.1,199.0 495.1,199.2 509.1,199.4 523.2,199.5 537.2,199.7 551.2,199.8 565.3,200.0 579.3,200.1 593.3,200.2 607.4,200.4 621.4,200.7 635.4,201.0 649.5,201.3 663.5,201.6 677.5,201.8 691.6,202.2 705.6,202.6 719.6,203.0 733.7,203.3 747.7,203.7 761.8,204.1 775.8,204.4 789.8,204.8 803.9,205.2 817.9,205.5 831.9,205.9 846.0,206.3 860.0,206.7" fill="none" stroke="#3b82f6" stroke-width="2.5" stroke-linecap="round" stroke-linejoin="round"/>
  <polyline points="60.0,211.1 74.0,210.2 88.1,209.7 102.1,209.2 116.1,208.7 130.2,208.3 144.2,207.9 158.2,207.5 172.3,207.0 186.3,206.2 200.4,205.0 214.4,204.1 228.4,203.2 242.5,202.5 256.5,201.9 270.5,201.0 284.6,200.3 298.6,199.9 312.6,199.6 326.7,199.4 340.7,199.3 354.7,199.0 368.8,198.9 382.8,198.9 396.8,198.7 410.9,198.7 424.9,198.8 438.9,198.8 453.0,198.8 467.0,198.9 481.1,199.0 495.1,199.2 509.1,199.4 523.2,199.5 537.2,199.7 551.2,199.8 565.3,200.0 579.3,200.1 593.3,200.2 607.4,200.4 621.4,200.7 635.4,201.0 649.5,201.3 663.5,201.6 677.5,201.8 691.6,202.2 705.6,202.6 719.6,203.0 733.7,203.3 747.7,203.7 761.8,204.1 775.8,204.4 789.8,204.8 803.9,205.2 817.9,205.5 831.9,205.9 846.0,206.3 860.0,206.7" fill="none" stroke="#3b82f6" stroke-width="5" opacity="0.1" stroke-linecap="round" stroke-linejoin="round"/>

  <!-- Noktalar -->
  <circle cx="60.0" cy="193.2" r="3" fill="#22c55e"/><circle cx="74.0" cy="192.5" r="3" fill="#22c55e"/><circle cx="88.1" cy="192.0" r="3" fill="#22c55e"/><circle cx="102.1" cy="191.6" r="3" fill="#22c55e"/><circle cx="116.1" cy="191.1" r="3" fill="#22c55e"/><circle cx="130.2" cy="190.8" r="3" fill="#22c55e"/><circle cx="144.2" cy="190.4" r="3" fill="#22c55e"/><circle cx="158.2" cy="190.1" r="3" fill="#22c55e"/><circle cx="172.3" cy="189.6" r="3" fill="#22c55e"/><circle cx="186.3" cy="188.8" r="3" fill="#22c55e"/><circle cx="200.4" cy="187.8" r="3" fill="#22c55e"/><circle cx="214.4" cy="187.0" r="3" fill="#22c55e"/><circle cx="228.4" cy="186.2" r="3" fill="#22c55e"/><circle cx="242.5" cy="185.6" r="3" fill="#22c55e"/><circle cx="256.5" cy="185.0" r="3" fill="#22c55e"/><circle cx="270.5" cy="184.3" r="3" fill="#22c55e"/><circle cx="284.6" cy="183.6" r="3" fill="#22c55e"/><circle cx="298.6" cy="183.2" r="3" fill="#22c55e"/><circle cx="312.6" cy="182.9" r="3" fill="#22c55e"/><circle cx="326.7" cy="182.7" r="3" fill="#22c55e"/><circle cx="340.7" cy="182.7" r="3" fill="#22c55e"/><circle cx="354.7" cy="182.4" r="3" fill="#22c55e"/><circle cx="368.8" cy="182.3" r="3" fill="#22c55e"/><circle cx="382.8" cy="182.3" r="3" fill="#22c55e"/><circle cx="396.8" cy="182.2" r="3" fill="#22c55e"/><circle cx="410.9" cy="182.2" r="3" fill="#22c55e"/><circle cx="424.9" cy="182.2" r="3" fill="#22c55e"/><circle cx="438.9" cy="182.2" r="3" fill="#22c55e"/><circle cx="453.0" cy="182.3" r="3" fill="#22c55e"/><circle cx="467.0" cy="182.4" r="3" fill="#22c55e"/><circle cx="481.1" cy="182.5" r="3" fill="#22c55e"/><circle cx="495.1" cy="182.6" r="3" fill="#22c55e"/><circle cx="509.1" cy="182.7" r="3" fill="#22c55e"/><circle cx="523.2" cy="182.9" r="3" fill="#22c55e"/><circle cx="537.2" cy="183.1" r="3" fill="#22c55e"/><circle cx="551.2" cy="183.2" r="3" fill="#22c55e"/><circle cx="565.3" cy="183.3" r="3" fill="#22c55e"/><circle cx="579.3" cy="183.4" r="3" fill="#22c55e"/><circle cx="593.3" cy="183.5" r="3" fill="#22c55e"/><circle cx="607.4" cy="183.7" r="3" fill="#22c55e"/><circle cx="621.4" cy="183.9" r="3" fill="#22c55e"/><circle cx="635.4" cy="184.2" r="3" fill="#22c55e"/><circle cx="649.5" cy="184.4" r="3" fill="#22c55e"/><circle cx="663.5" cy="184.7" r="3" fill="#22c55e"/><circle cx="677.5" cy="185.0" r="3" fill="#22c55e"/><circle cx="691.6" cy="185.3" r="3" fill="#22c55e"/><circle cx="705.6" cy="185.6" r="3" fill="#22c55e"/><circle cx="719.6" cy="186.0" r="3" fill="#22c55e"/><circle cx="733.7" cy="186.3" r="3" fill="#22c55e"/><circle cx="747.7" cy="186.6" r="3" fill="#22c55e"/><circle cx="761.8" cy="187.0" r="3" fill="#22c55e"/><circle cx="775.8" cy="187.3" r="3" fill="#22c55e"/><circle cx="789.8" cy="187.6" r="3" fill="#22c55e"/><circle cx="803.9" cy="188.0" r="3" fill="#22c55e"/><circle cx="817.9" cy="188.3" r="3" fill="#22c55e"/><circle cx="831.9" cy="188.6" r="3" fill="#22c55e"/><circle cx="846.0" cy="189.0" r="3" fill="#22c55e"/><circle cx="860.0" cy="189.3" r="3" fill="#22c55e"/>
  <circle cx="60.0" cy="211.1" r="3" fill="#3b82f6"/><circle cx="74.0" cy="210.2" r="3" fill="#3b82f6"/><circle cx="88.1" cy="209.7" r="3" fill="#3b82f6"/><circle cx="102.1" cy="209.2" r="3" fill="#3b82f6"/><circle cx="116.1" cy="208.7" r="3" fill="#3b82f6"/><circle cx="130.2" cy="208.3" r="3" fill="#3b82f6"/><circle cx="144.2" cy="207.9" r="3" fill="#3b82f6"/><circle cx="158.2" cy="207.5" r="3" fill="#3b82f6"/><circle cx="172.3" cy="207.0" r="3" fill="#3b82f6"/><circle cx="186.3" cy="206.2" r="3" fill="#3b82f6"/><circle cx="200.4" cy="205.0" r="3" fill="#3b82f6"/><circle cx="214.4" cy="204.1" r="3" fill="#3b82f6"/><circle cx="228.4" cy="203.2" r="3" fill="#3b82f6"/><circle cx="242.5" cy="202.5" r="3" fill="#3b82f6"/><circle cx="256.5" cy="201.9" r="3" fill="#3b82f6"/><circle cx="270.5" cy="201.0" r="3" fill="#3b82f6"/><circle cx="284.6" cy="200.3" r="3" fill="#3b82f6"/><circle cx="298.6" cy="199.9" r="3" fill="#3b82f6"/><circle cx="312.6" cy="199.6" r="3" fill="#3b82f6"/><circle cx="326.7" cy="199.4" r="3" fill="#3b82f6"/><circle cx="340.7" cy="199.3" r="3" fill="#3b82f6"/><circle cx="354.7" cy="199.0" r="3" fill="#3b82f6"/><circle cx="368.8" cy="198.9" r="3" fill="#3b82f6"/><circle cx="382.8" cy="198.9" r="3" fill="#3b82f6"/><circle cx="396.8" cy="198.7" r="3" fill="#3b82f6"/><circle cx="410.9" cy="198.7" r="3" fill="#3b82f6"/><circle cx="424.9" cy="198.8" r="3" fill="#3b82f6"/><circle cx="438.9" cy="198.8" r="3" fill="#3b82f6"/><circle cx="453.0" cy="198.8" r="3" fill="#3b82f6"/><circle cx="467.0" cy="198.9" r="3" fill="#3b82f6"/><circle cx="481.1" cy="199.0" r="3" fill="#3b82f6"/><circle cx="495.1" cy="199.2" r="3" fill="#3b82f6"/><circle cx="509.1" cy="199.4" r="3" fill="#3b82f6"/><circle cx="523.2" cy="199.5" r="3" fill="#3b82f6"/><circle cx="537.2" cy="199.7" r="3" fill="#3b82f6"/><circle cx="551.2" cy="199.8" r="3" fill="#3b82f6"/><circle cx="565.3" cy="200.0" r="3" fill="#3b82f6"/><circle cx="579.3" cy="200.1" r="3" fill="#3b82f6"/><circle cx="593.3" cy="200.2" r="3" fill="#3b82f6"/><circle cx="607.4" cy="200.4" r="3" fill="#3b82f6"/><circle cx="621.4" cy="200.7" r="3" fill="#3b82f6"/><circle cx="635.4" cy="201.0" r="3" fill="#3b82f6"/><circle cx="649.5" cy="201.3" r="3" fill="#3b82f6"/><circle cx="663.5" cy="201.6" r="3" fill="#3b82f6"/><circle cx="677.5" cy="201.8" r="3" fill="#3b82f6"/><circle cx="691.6" cy="202.2" r="3" fill="#3b82f6"/><circle cx="705.6" cy="202.6" r="3" fill="#3b82f6"/><circle cx="719.6" cy="203.0" r="3" fill="#3b82f6"/><circle cx="733.7" cy="203.3" r="3" fill="#3b82f6"/><circle cx="747.7" cy="203.7" r="3" fill="#3b82f6"/><circle cx="761.8" cy="204.1" r="3" fill="#3b82f6"/><circle cx="775.8" cy="204.4" r="3" fill="#3b82f6"/><circle cx="789.8" cy="204.8" r="3" fill="#3b82f6"/><circle cx="803.9" cy="205.2" r="3" fill="#3b82f6"/><circle cx="817.9" cy="205.5" r="3" fill="#3b82f6"/><circle cx="831.9" cy="205.9" r="3" fill="#3b82f6"/><circle cx="846.0" cy="206.3" r="3" fill="#3b82f6"/><circle cx="860.0" cy="206.7" r="3" fill="#3b82f6"/>

  <!-- X ekseni -->
  <text x="60.0" y="380" text-anchor="middle" font-size="10" fill="#888">14.05.2026</text>
  <text x="186.3" y="380" text-anchor="middle" font-size="10" fill="#888">23.05.2026</text>
  <text x="312.6" y="380" text-anchor="middle" font-size="10" fill="#888">01.06.2026</text>
  <text x="438.9" y="380" text-anchor="middle" font-size="10" fill="#888">10.06.2026</text>
  <text x="565.3" y="380" text-anchor="middle" font-size="10" fill="#888">19.06.2026</text>
  <text x="691.6" y="380" text-anchor="middle" font-size="10" fill="#888">28.06.2026</text>
  <text x="817.9" y="380" text-anchor="middle" font-size="10" fill="#888">07.07.2026</text>

  <!-- Legend -->
  <g transform="translate(60, 345)">
    <rect x="0" y="0" width="12" height="12" fill="#22c55e" rx="2"/>
    <text x="18" y="10" font-size="11" fill="#c9d1d9">Toplam Doluluk</text>
    <rect x="140" y="0" width="12" height="12" fill="#3b82f6" rx="2"/>
    <text x="158" y="10" font-size="11" fill="#c9d1d9">Aktif Doluluk</text>
  </g>
</svg>