<svg xmlns="http://www.w3.org/2000/svg" viewBox="0 0 900 400" width="100%" style="max-width:900px;">
  <rect width="900" height="400" fill="#0d1117" rx="6"/>
  <text x="450.0" y="25" text-anchor="middle" font-size="16" font-weight="bold" fill="#c9d1d9">Son 360 Gün - Günlük Ortalama</text>

  <!-- Y grid -->
  <line x1="60" y1="320.0" x2="860" y2="320.0" stroke="#333" stroke-width="1" stroke-dasharray="4,4" opacity="0.5"/>
  <text x="50" y="320.0" text-anchor="end" dominant-baseline="middle" font-size="10" fill="#888">0%</text>
  <line x1="60" y1="264.0" x2="860" y2="264.0" stroke="#333" stroke-width="1" stroke-dasharray="4,4" opacity="0.5"/>
  <text x="50" y="264.0" text-anchor="end" dominant-baseline="middle" font-size="10" fill="#888">20%</text>
  <line x1="60" y1="208.0" x2="860" y2="208.0" stroke="#333" stroke-width="1" stroke-dasharray="4,4" opacity="0.5"/>
  <text x="50" y="208.0" text-anchor="end" dominant-baseline="middle" font-size="10" fill="#888">40%</text>
  <line x1="60" y1="152.0" x2="860" y2="152.0" stroke="#333" stroke-width="1" stroke-dasharray="4,4" opacity="0.5"/>
  <text x="50" y="152.0" text-anchor="end" dominant-baseline="middle" font-size="10" fill="#888">60%</text>
  <line x1="60" y1="96.0" x2="860" y2="96.0" stroke="#333" stroke-width="1" stroke-dasharray="4,4" opacity="0.5"/>
  <text x="50" y="96.0" text-anchor="end" dominant-baseline="middle" font-size="10" fill="#888">80%</text>
  <line x1="60" y1="40.0" x2="860" y2="40.0" stroke="#333" stroke-width="1" stroke-dasharray="4,4" opacity="0.5"/>
  <text x="50" y="40.0" text-anchor="end" dominant-baseline="middle" font-size="10" fill="#888">100%</text>

  <!-- Referans çizgileri -->
  <line x1="60" y1="236.0" x2="860" y2="236.0" stroke="#ef4444" stroke-width="1" stroke-dasharray="2,2" opacity="0.7"/>
  <text x="845" y="236.0" dominant-baseline="middle" font-size="9" fill="#ef4444">Kritik (30%)</text>
  <line x1="60" y1="180.0" x2="860" y2="180.0" stroke="#eab308" stroke-width="1" stroke-dasharray="2,2" opacity="0.7"/>
  <text x="845" y="180.0" dominant-baseline="middle" font-size="9" fill="#eab308">Normal (50%)</text>

  <!-- Toplam doluluk -->
  <polyline points="60.0,193.2 71.6,192.5 83.2,192.0 94.8,191.6 106.4,191.1 118.0,190.8 129.6,190.4 141.2,190.1 152.8,189.6 164.3,188.8 175.9,187.8 187.5,187.0 199.1,186.2 210.7,185.6 222.3,185.0 233.9,184.3 245.5,183.6 257.1,183.2 268.7,182.9 280.3,182.7 291.9,182.7 303.5,182.4 315.1,182.3 326.7,182.3 338.3,182.2 349.9,182.2 361.4,182.2 373.0,182.2 384.6,182.3 396.2,182.4 407.8,182.5 419.4,182.6 431.0,182.7 442.6,182.9 454.2,183.1 465.8,183.2 477.4,183.3 489.0,183.4 500.6,183.5 512.2,183.7 523.8,183.9 535.4,184.2 547.0,184.4 558.6,184.7 570.1,185.0 581.7,185.3 593.3,185.6 604.9,186.0 616.5,186.3 628.1,186.6 639.7,187.0 651.3,187.3 662.9,187.6 674.5,188.0 686.1,188.3 697.7,188.6 709.3,189.0 720.9,189.3 732.5,189.6 744.1,189.9 755.7,190.2 767.2,190.5 778.8,190.8 790.4,191.1 802.0,191.4 813.6,191.6 825.2,192.0 836.8,192.3 848.4,192.6 860.0,193.0" fill="none" stroke="#22c55e" stroke-width="2.5" stroke-linecap="round" stroke-linejoin="round"/>
  <polyline points="60.0,193.2 71.6,192.5 83.2,192.0 94.8,191.6 106.4,191.1 118.0,190.8 129.6,190.4 141.2,190.1 152.8,189.6 164.3,188.8 175.9,187.8 187.5,187.0 199.1,186.2 210.7,185.6 222.3,185.0 233.9,184.3 245.5,183.6 257.1,183.2 268.7,182.9 280.3,182.7 291.9,182.7 303.5,182.4 315.1,182.3 326.7,182.3 338.3,182.2 349.9,182.2 361.4,182.2 373.0,182.2 384.6,182.3 396.2,182.4 407.8,182.5 419.4,182.6 431.0,182.7 442.6,182.9 454.2,183.1 465.8,183.2 477.4,183.3 489.0,183.4 500.6,183.5 512.2,183.7 523.8,183.9 535.4,184.2 547.0,184.4 558.6,184.7 570.1,185.0 581.7,185.3 593.3,185.6 604.9,186.0 616.5,186.3 628.1,186.6 639.7,187.0 651.3,187.3 662.9,187.6 674.5,188.0 686.1,188.3 697.7,188.6 709.3,189.0 720.9,189.3 732.5,189.6 744.1,189.9 755.7,190.2 767.2,190.5 778.8,190.8 790.4,191.1 802.0,191.4 813.6,191.6 825.2,192.0 836.8,192.3 848.4,192.6 860.0,193.0" fill="none" stroke="#22c55e" stroke-width="5" opacity="0.1" stroke-linecap="round" stroke-linejoin="round"/>

  <!-- Aktif doluluk -->
  <polyline points="60.0,211.1 71.6,210.2 83.2,209.7 94.8,209.2 106.4,208.7 118.0,208.3 129.6,207.9 141.2,207.5 152.8,207.0 164.3,206.2 175.9,205.0 187.5,204.1 199.1,203.2 210.7,202.5 222.3,201.9 233.9,201.0 245.5,200.3 257.1,199.9 268.7,199.6 280.3,199.4 291.9,199.3 303.5,199.0 315.1,198.9 326.7,198.9 338.3,198.7 349.9,198.7 361.4,198.8 373.0,198.8 384.6,198.8 396.2,198.9 407.8,199.0 419.4,199.2 431.0,199.4 442.6,199.5 454.2,199.7 465.8,199.8 477.4,200.0 489.0,200.1 500.6,200.2 512.2,200.4 523.8,200.7 535.4,201.0 547.0,201.3 558.6,201.6 570.1,201.8 581.7,202.2 593.3,202.6 604.9,203.0 616.5,203.3 628.1,203.7 639.7,204.1 651.3,204.4 662.9,204.8 674.5,205.2 686.1,205.5 697.7,205.9 709.3,206.3 720.9,206.7 732.5,207.0 744.1,207.4 755.7,207.7 767.2,208.0 778.8,208.3 790.4,208.7 802.0,209.0 813.6,209.3 825.2,209.7 836.8,210.0 848.4,210.4 860.0,210.8" fill="none" stroke="#3b82f6" stroke-width="2.5" stroke-linecap="round" stroke-linejoin="round"/>
  <polyline points="60.0,211.1 71.6,210.2 83.2,209.7 94.8,209.2 106.4,208.7 118.0,208.3 129.6,207.9 141.2,207.5 152.8,207.0 164.3,206.2 175.9,205.0 187.5,204.1 199.1,203.2 210.7,202.5 222.3,201.9 233.9,201.0 245.5,200.3 257.1,199.9 268.7,199.6 280.3,199.4 291.9,199.3 303.5,199.0 315.1,198.9 326.7,198.9 338.3,198.7 349.9,198.7 361.4,198.8 373.0,198.8 384.6,198.8 396.2,198.9 407.8,199.0 419.4,199.2 431.0,199.4 442.6,199.5 454.2,199.7 465.8,199.8 477.4,200.0 489.0,200.1 500.6,200.2 512.2,200.4 523.8,200.7 535.4,201.0 547.0,201.3 558.6,201.6 570.1,201.8 581.7,202.2 593.3,202.6 604.9,203.0 616.5,203.3 628.1,203.7 639.7,204.1 651.3,204.4 662.9,204.8 674.5,205.2 686.1,205.5 697.7,205.9 709.3,206.3 720.9,206.7 732.5,207.0 744.1,207.4 755.7,207.7 767.2,208.0 778.8,208.3 790.4,208.7 802.0,209.0 813.6,209.3 825.2,209.7 836.8,210.0 848.4,210.4 860.0,210.8" fill="none" stroke="#3b82f6" stroke-width="5" opacity="0.1" stroke-linecap="round" stroke-linejoin="round"/>

  <!-- Noktalar -->
  <circle cx="60.0" cy="193.2" r="3" fill="#22c55e"/><circle cx="71.6" cy="192.5" r="3" fill="#22c55e"/><circle cx="83.2" cy="192.0" r="3" fill="#22c55e"/><circle cx="94.8" cy="191.6" r="3" fill="#22c55e"/><circle cx="106.4" cy="191.1" r="3" fill="#22c55e"/><circle cx="118.0" cy="190.8" r="3" fill="#22c55e"/><circle cx="129.6" cy="190.4" r="3" fill="#22c55e"/><circle cx="141.2" cy="190.1" r="3" fill="#22c55e"/><circle cx="152.8" cy="189.6" r="3" fill="#22c55e"/><circle cx="164.3" cy="188.8" r="3" fill="#22c55e"/><circle cx="175.9" cy="187.8" r="3" fill="#22c55e"/><circle cx="187.5" cy="187.0" r="3" fill="#22c55e"/><circle cx="199.1" cy="186.2" r="3" fill="#22c55e"/><circle cx="210.7" cy="185.6" r="3" fill="#22c55e"/><circle cx="222.3" cy="185.0" r="3" fill="#22c55e"/><circle cx="233.9" cy="184.3" r="3" fill="#22c55e"/><circle cx="245.5" cy="183.6" r="3" fill="#22c55e"/><circle cx="257.1" cy="183.2" r="3" fill="#22c55e"/><circle cx="268.7" cy="182.9" r="3" fill="#22c55e"/><circle cx="280.3" cy="182.7" r="3" fill="#22c55e"/><circle cx="291.9" cy="182.7" r="3" fill="#22c55e"/><circle cx="303.5" cy="182.4" r="3" fill="#22c55e"/><circle cx="315.1" cy="182.3" r="3" fill="#22c55e"/><circle cx="326.7" cy="182.3" r="3" fill="#22c55e"/><circle cx="338.3" cy="182.2" r="3" fill="#22c55e"/><circle cx="349.9" cy="182.2" r="3" fill="#22c55e"/><circle cx="361.4" cy="182.2" r="3" fill="#22c55e"/><circle cx="373.0" cy="182.2" r="3" fill="#22c55e"/><circle cx="384.6" cy="182.3" r="3" fill="#22c55e"/><circle cx="396.2" cy="182.4" r="3" fill="#22c55e"/><circle cx="407.8" cy="182.5" r="3" fill="#22c55e"/><circle cx="419.4" cy="182.6" r="3" fill="#22c55e"/><circle cx="431.0" cy="182.7" r="3" fill="#22c55e"/><circle cx="442.6" cy="182.9" r="3" fill="#22c55e"/><circle cx="454.2" cy="183.1" r="3" fill="#22c55e"/><circle cx="465.8" cy="183.2" r="3" fill="#22c55e"/><circle cx="477.4" cy="183.3" r="3" fill="#22c55e"/><circle cx="489.0" cy="183.4" r="3" fill="#22c55e"/><circle cx="500.6" cy="183.5" r="3" fill="#22c55e"/><circle cx="512.2" cy="183.7" r="3" fill="#22c55e"/><circle cx="523.8" cy="183.9" r="3" fill="#22c55e"/><circle cx="535.4" cy="184.2" r="3" fill="#22c55e"/><circle cx="547.0" cy="184.4" r="3" fill="#22c55e"/><circle cx="558.6" cy="184.7" r="3" fill="#22c55e"/><circle cx="570.1" cy="185.0" r="3" fill="#22c55e"/><circle cx="581.7" cy="185.3" r="3" fill="#22c55e"/><circle cx="593.3" cy="185.6" r="3" fill="#22c55e"/><circle cx="604.9" cy="186.0" r="3" fill="#22c55e"/><circle cx="616.5" cy="186.3" r="3" fill="#22c55e"/><circle cx="628.1" cy="186.6" r="3" fill="#22c55e"/><circle cx="639.7" cy="187.0" r="3" fill="#22c55e"/><circle cx="651.3" cy="187.3" r="3" fill="#22c55e"/><circle cx="662.9" cy="187.6" r="3" fill="#22c55e"/><circle cx="674.5" cy="188.0" r="3" fill="#22c55e"/><circle cx="686.1" cy="188.3" r="3" fill="#22c55e"/><circle cx="697.7" cy="188.6" r="3" fill="#22c55e"/><circle cx="709.3" cy="189.0" r="3" fill="#22c55e"/><circle cx="720.9" cy="189.3" r="3" fill="#22c55e"/><circle cx="732.5" cy="189.6" r="3" fill="#22c55e"/><circle cx="744.1" cy="189.9" r="3" fill="#22c55e"/><circle cx="755.7" cy="190.2" r="3" fill="#22c55e"/><circle cx="767.2" cy="190.5" r="3" fill="#22c55e"/><circle cx="778.8" cy="190.8" r="3" fill="#22c55e"/><circle cx="790.4" cy="191.1" r="3" fill="#22c55e"/><circle cx="802.0" cy="191.4" r="3" fill="#22c55e"/><circle cx="813.6" cy="191.6" r="3" fill="#22c55e"/><circle cx="825.2" cy="192.0" r="3" fill="#22c55e"/><circle cx="836.8" cy="192.3" r="3" fill="#22c55e"/><circle cx="848.4" cy="192.6" r="3" fill="#22c55e"/><circle cx="860.0" cy="193.0" r="3" fill="#22c55e"/>
  <circle cx="60.0" cy="211.1" r="3" fill="#3b82f6"/><circle cx="71.6" cy="210.2" r="3" fill="#3b82f6"/><circle cx="83.2" cy="209.7" r="3" fill="#3b82f6"/><circle cx="94.8" cy="209.2" r="3" fill="#3b82f6"/><circle cx="106.4" cy="208.7" r="3" fill="#3b82f6"/><circle cx="118.0" cy="208.3" r="3" fill="#3b82f6"/><circle cx="129.6" cy="207.9" r="3" fill="#3b82f6"/><circle cx="141.2" cy="207.5" r="3" fill="#3b82f6"/><circle cx="152.8" cy="207.0" r="3" fill="#3b82f6"/><circle cx="164.3" cy="206.2" r="3" fill="#3b82f6"/><circle cx="175.9" cy="205.0" r="3" fill="#3b82f6"/><circle cx="187.5" cy="204.1" r="3" fill="#3b82f6"/><circle cx="199.1" cy="203.2" r="3" fill="#3b82f6"/><circle cx="210.7" cy="202.5" r="3" fill="#3b82f6"/><circle cx="222.3" cy="201.9" r="3" fill="#3b82f6"/><circle cx="233.9" cy="201.0" r="3" fill="#3b82f6"/><circle cx="245.5" cy="200.3" r="3" fill="#3b82f6"/><circle cx="257.1" cy="199.9" r="3" fill="#3b82f6"/><circle cx="268.7" cy="199.6" r="3" fill="#3b82f6"/><circle cx="280.3" cy="199.4" r="3" fill="#3b82f6"/><circle cx="291.9" cy="199.3" r="3" fill="#3b82f6"/><circle cx="303.5" cy="199.0" r="3" fill="#3b82f6"/><circle cx="315.1" cy="198.9" r="3" fill="#3b82f6"/><circle cx="326.7" cy="198.9" r="3" fill="#3b82f6"/><circle cx="338.3" cy="198.7" r="3" fill="#3b82f6"/><circle cx="349.9" cy="198.7" r="3" fill="#3b82f6"/><circle cx="361.4" cy="198.8" r="3" fill="#3b82f6"/><circle cx="373.0" cy="198.8" r="3" fill="#3b82f6"/><circle cx="384.6" cy="198.8" r="3" fill="#3b82f6"/><circle cx="396.2" cy="198.9" r="3" fill="#3b82f6"/><circle cx="407.8" cy="199.0" r="3" fill="#3b82f6"/><circle cx="419.4" cy="199.2" r="3" fill="#3b82f6"/><circle cx="431.0" cy="199.4" r="3" fill="#3b82f6"/><circle cx="442.6" cy="199.5" r="3" fill="#3b82f6"/><circle cx="454.2" cy="199.7" r="3" fill="#3b82f6"/><circle cx="465.8" cy="199.8" r="3" fill="#3b82f6"/><circle cx="477.4" cy="200.0" r="3" fill="#3b82f6"/><circle cx="489.0" cy="200.1" r="3" fill="#3b82f6"/><circle cx="500.6" cy="200.2" r="3" fill="#3b82f6"/><circle cx="512.2" cy="200.4" r="3" fill="#3b82f6"/><circle cx="523.8" cy="200.7" r="3" fill="#3b82f6"/><circle cx="535.4" cy="201.0" r="3" fill="#3b82f6"/><circle cx="547.0" cy="201.3" r="3" fill="#3b82f6"/><circle cx="558.6" cy="201.6" r="3" fill="#3b82f6"/><circle cx="570.1" cy="201.8" r="3" fill="#3b82f6"/><circle cx="581.7" cy="202.2" r="3" fill="#3b82f6"/><circle cx="593.3" cy="202.6" r="3" fill="#3b82f6"/><circle cx="604.9" cy="203.0" r="3" fill="#3b82f6"/><circle cx="616.5" cy="203.3" r="3" fill="#3b82f6"/><circle cx="628.1" cy="203.7" r="3" fill="#3b82f6"/><circle cx="639.7" cy="204.1" r="3" fill="#3b82f6"/><circle cx="651.3" cy="204.4" r="3" fill="#3b82f6"/><circle cx="662.9" cy="204.8" r="3" fill="#3b82f6"/><circle cx="674.5" cy="205.2" r="3" fill="#3b82f6"/><circle cx="686.1" cy="205.5" r="3" fill="#3b82f6"/><circle cx="697.7" cy="205.9" r="3" fill="#3b82f6"/><circle cx="709.3" cy="206.3" r="3" fill="#3b82f6"/><circle cx="720.9" cy="206.7" r="3" fill="#3b82f6"/><circle cx="732.5" cy="207.0" r="3" fill="#3b82f6"/><circle cx="744.1" cy="207.4" r="3" fill="#3b82f6"/><circle cx="755.7" cy="207.7" r="3" fill="#3b82f6"/><circle cx="767.2" cy="208.0" r="3" fill="#3b82f6"/><circle cx="778.8" cy="208.3" r="3" fill="#3b82f6"/><circle cx="790.4" cy="208.7" r="3" fill="#3b82f6"/><circle cx="802.0" cy="209.0" r="3" fill="#3b82f6"/><circle cx="813.6" cy="209.3" r="3" fill="#3b82f6"/><circle cx="825.2" cy="209.7" r="3" fill="#3b82f6"/><circle cx="836.8" cy="210.0" r="3" fill="#3b82f6"/><circle cx="848.4" cy="210.4" r="3" fill="#3b82f6"/><circle cx="860.0" cy="210.8" r="3" fill="#3b82f6"/>

  <!-- X ekseni -->
  <text x="60.0" y="380" text-anchor="middle" font-size="10" fill="#888">14.05.2026</text>
  <text x="187.5" y="380" text-anchor="middle" font-size="10" fill="#888">25.05.2026</text>
  <text x="315.1" y="380" text-anchor="middle" font-size="10" fill="#888">05.06.2026</text>
  <text x="442.6" y="380" text-anchor="middle" font-size="10" fill="#888">16.06.2026</text>
  <text x="570.1" y="380" text-anchor="middle" font-size="10" fill="#888">27.06.2026</text>
  <text x="697.7" y="380" text-anchor="middle" font-size="10" fill="#888">08.07.2026</text>
  <text x="825.2" y="380" text-anchor="middle" font-size="10" fill="#888">19.07.2026</text>

  <!-- Legend -->
  <g transform="translate(60, 345)">
    <rect x="0" y="0" width="12" height="12" fill="#22c55e" rx="2"/>
    <text x="18" y="10" font-size="11" fill="#c9d1d9">Toplam Doluluk</text>
    <rect x="140" y="0" width="12" height="12" fill="#3b82f6" rx="2"/>
    <text x="158" y="10" font-size="11" fill="#c9d1d9">Aktif Doluluk</text>
  </g>
</svg>