<svg xmlns="http://www.w3.org/2000/svg" viewBox="0 0 800 400" width="100%" style="max-width:800px;">
  <rect width="800" height="400" fill="#0d1117" rx="6"/>
  <text x="400.0" y="25" text-anchor="middle" font-size="16" font-weight="bold" fill="#c9d1d9">Son 30 Gün - Günlük Ortalama</text>

  <!-- Y grid -->
  <line x1="60" y1="320.0" x2="760" y2="320.0" stroke="#333" stroke-width="1" stroke-dasharray="4,4" opacity="0.5"/>
  <text x="50" y="320.0" text-anchor="end" dominant-baseline="middle" font-size="10" fill="#888">0%</text>
  <line x1="60" y1="264.0" x2="760" y2="264.0" stroke="#333" stroke-width="1" stroke-dasharray="4,4" opacity="0.5"/>
  <text x="50" y="264.0" text-anchor="end" dominant-baseline="middle" font-size="10" fill="#888">20%</text>
  <line x1="60" y1="208.0" x2="760" y2="208.0" stroke="#333" stroke-width="1" stroke-dasharray="4,4" opacity="0.5"/>
  <text x="50" y="208.0" text-anchor="end" dominant-baseline="middle" font-size="10" fill="#888">40%</text>
  <line x1="60" y1="152.0" x2="760" y2="152.0" stroke="#333" stroke-width="1" stroke-dasharray="4,4" opacity="0.5"/>
  <text x="50" y="152.0" text-anchor="end" dominant-baseline="middle" font-size="10" fill="#888">60%</text>
  <line x1="60" y1="96.0" x2="760" y2="96.0" stroke="#333" stroke-width="1" stroke-dasharray="4,4" opacity="0.5"/>
  <text x="50" y="96.0" text-anchor="end" dominant-baseline="middle" font-size="10" fill="#888">80%</text>
  <line x1="60" y1="40.0" x2="760" y2="40.0" stroke="#333" stroke-width="1" stroke-dasharray="4,4" opacity="0.5"/>
  <text x="50" y="40.0" text-anchor="end" dominant-baseline="middle" font-size="10" fill="#888">100%</text>

  <!-- Referans çizgileri -->
  <line x1="60" y1="236.0" x2="760" y2="236.0" stroke="#ef4444" stroke-width="1" stroke-dasharray="2,2" opacity="0.7"/>
  <text x="745" y="236.0" dominant-baseline="middle" font-size="9" fill="#ef4444">Kritik (30%)</text>
  <line x1="60" y1="180.0" x2="760" y2="180.0" stroke="#eab308" stroke-width="1" stroke-dasharray="2,2" opacity="0.7"/>
  <text x="745" y="180.0" dominant-baseline="middle" font-size="9" fill="#eab308">Normal (50%)</text>

  <!-- Toplam doluluk -->
  <polyline points="60.0,193.2 101.2,192.5 142.4,192.0 183.5,191.6 224.7,191.1 265.9,190.8 307.1,190.4 348.2,190.1 389.4,189.6 430.6,188.8 471.8,187.8 512.9,187.0 554.1,186.2 595.3,185.6 636.5,185.0 677.6,184.3 718.8,183.6 760.0,183.2" fill="none" stroke="#22c55e" stroke-width="2.5" stroke-linecap="round" stroke-linejoin="round"/>
  <polyline points="60.0,193.2 101.2,192.5 142.4,192.0 183.5,191.6 224.7,191.1 265.9,190.8 307.1,190.4 348.2,190.1 389.4,189.6 430.6,188.8 471.8,187.8 512.9,187.0 554.1,186.2 595.3,185.6 636.5,185.0 677.6,184.3 718.8,183.6 760.0,183.2" fill="none" stroke="#22c55e" stroke-width="5" opacity="0.1" stroke-linecap="round" stroke-linejoin="round"/>

  <!-- Aktif doluluk -->
  <polyline points="60.0,211.1 101.2,210.2 142.4,209.7 183.5,209.2 224.7,208.7 265.9,208.3 307.1,207.9 348.2,207.5 389.4,207.0 430.6,206.2 471.8,205.0 512.9,204.1 554.1,203.2 595.3,202.5 636.5,201.9 677.6,201.0 718.8,200.3 760.0,199.9" fill="none" stroke="#3b82f6" stroke-width="2.5" stroke-linecap="round" stroke-linejoin="round"/>
  <polyline points="60.0,211.1 101.2,210.2 142.4,209.7 183.5,209.2 224.7,208.7 265.9,208.3 307.1,207.9 348.2,207.5 389.4,207.0 430.6,206.2 471.8,205.0 512.9,204.1 554.1,203.2 595.3,202.5 636.5,201.9 677.6,201.0 718.8,200.3 760.0,199.9" fill="none" stroke="#3b82f6" stroke-width="5" opacity="0.1" stroke-linecap="round" stroke-linejoin="round"/>

  <!-- Noktalar -->
  <circle cx="60.0" cy="193.2" r="3" fill="#22c55e"/><circle cx="101.2" cy="192.5" r="3" fill="#22c55e"/><circle cx="142.4" cy="192.0" r="3" fill="#22c55e"/><circle cx="183.5" cy="191.6" r="3" fill="#22c55e"/><circle cx="224.7" cy="191.1" r="3" fill="#22c55e"/><circle cx="265.9" cy="190.8" r="3" fill="#22c55e"/><circle cx="307.1" cy="190.4" r="3" fill="#22c55e"/><circle cx="348.2" cy="190.1" r="3" fill="#22c55e"/><circle cx="389.4" cy="189.6" r="3" fill="#22c55e"/><circle cx="430.6" cy="188.8" r="3" fill="#22c55e"/><circle cx="471.8" cy="187.8" r="3" fill="#22c55e"/><circle cx="512.9" cy="187.0" r="3" fill="#22c55e"/><circle cx="554.1" cy="186.2" r="3" fill="#22c55e"/><circle cx="595.3" cy="185.6" r="3" fill="#22c55e"/><circle cx="636.5" cy="185.0" r="3" fill="#22c55e"/><circle cx="677.6" cy="184.3" r="3" fill="#22c55e"/><circle cx="718.8" cy="183.6" r="3" fill="#22c55e"/><circle cx="760.0" cy="183.2" r="3" fill="#22c55e"/>
  <circle cx="60.0" cy="211.1" r="3" fill="#3b82f6"/><circle cx="101.2" cy="210.2" r="3" fill="#3b82f6"/><circle cx="142.4" cy="209.7" r="3" fill="#3b82f6"/><circle cx="183.5" cy="209.2" r="3" fill="#3b82f6"/><circle cx="224.7" cy="208.7" r="3" fill="#3b82f6"/><circle cx="265.9" cy="208.3" r="3" fill="#3b82f6"/><circle cx="307.1" cy="207.9" r="3" fill="#3b82f6"/><circle cx="348.2" cy="207.5" r="3" fill="#3b82f6"/><circle cx="389.4" cy="207.0" r="3" fill="#3b82f6"/><circle cx="430.6" cy="206.2" r="3" fill="#3b82f6"/><circle cx="471.8" cy="205.0" r="3" fill="#3b82f6"/><circle cx="512.9" cy="204.1" r="3" fill="#3b82f6"/><circle cx="554.1" cy="203.2" r="3" fill="#3b82f6"/><circle cx="595.3" cy="202.5" r="3" fill="#3b82f6"/><circle cx="636.5" cy="201.9" r="3" fill="#3b82f6"/><circle cx="677.6" cy="201.0" r="3" fill="#3b82f6"/><circle cx="718.8" cy="200.3" r="3" fill="#3b82f6"/><circle cx="760.0" cy="199.9" r="3" fill="#3b82f6"/>

  <!-- X ekseni -->
  <text x="60.0" y="380" text-anchor="middle" font-size="10" fill="#888">14.05 00:00</text>
  <text x="183.5" y="380" text-anchor="middle" font-size="10" fill="#888">17.05 00:00</text>
  <text x="307.1" y="380" text-anchor="middle" font-size="10" fill="#888">20.05 00:00</text>
  <text x="430.6" y="380" text-anchor="middle" font-size="10" fill="#888">23.05 00:00</text>
  <text x="554.1" y="380" text-anchor="middle" font-size="10" fill="#888">26.05 00:00</text>
  <text x="677.6" y="380" text-anchor="middle" font-size="10" fill="#888">29.05 00:00</text>

  <!-- Legend -->
  <g transform="translate(60, 345)">
    <rect x="0" y="0" width="12" height="12" fill="#22c55e" rx="2"/>
    <text x="18" y="10" font-size="11" fill="#c9d1d9">Toplam Doluluk</text>
    <rect x="140" y="0" width="12" height="12" fill="#3b82f6" rx="2"/>
    <text x="158" y="10" font-size="11" fill="#c9d1d9">Aktif Doluluk</text>
  </g>
</svg>