<svg xmlns="http://www.w3.org/2000/svg" viewBox="0 0 900 400" width="100%" style="max-width:900px;">
  <rect width="900" height="400" fill="#0d1117" rx="6"/>
  <text x="450.0" y="25" text-anchor="middle" font-size="16" font-weight="bold" fill="#c9d1d9">Son 180 Gün - Günlük Ortalama</text>

  <!-- Y grid -->
  <line x1="60" y1="320.0" x2="860" y2="320.0" stroke="#333" stroke-width="1" stroke-dasharray="4,4" opacity="0.5"/>
  <text x="50" y="320.0" text-anchor="end" dominant-baseline="middle" font-size="10" fill="#888">0%</text>
  <line x1="60" y1="264.0" x2="860" y2="264.0" stroke="#333" stroke-width="1" stroke-dasharray="4,4" opacity="0.5"/>
  <text x="50" y="264.0" text-anchor="end" dominant-baseline="middle" font-size="10" fill="#888">20%</text>
  <line x1="60" y1="208.0" x2="860" y2="208.0" stroke="#333" stroke-width="1" stroke-dasharray="4,4" opacity="0.5"/>
  <text x="50" y="208.0" text-anchor="end" dominant-baseline="middle" font-size="10" fill="#888">40%</text>
  <line x1="60" y1="152.0" x2="860" y2="152.0" stroke="#333" stroke-width="1" stroke-dasharray="4,4" opacity="0.5"/>
  <text x="50" y="152.0" text-anchor="end" dominant-baseline="middle" font-size="10" fill="#888">60%</text>
  <line x1="60" y1="96.0" x2="860" y2="96.0" stroke="#333" stroke-width="1" stroke-dasharray="4,4" opacity="0.5"/>
  <text x="50" y="96.0" text-anchor="end" dominant-baseline="middle" font-size="10" fill="#888">80%</text>
  <line x1="60" y1="40.0" x2="860" y2="40.0" stroke="#333" stroke-width="1" stroke-dasharray="4,4" opacity="0.5"/>
  <text x="50" y="40.0" text-anchor="end" dominant-baseline="middle" font-size="10" fill="#888">100%</text>

  <!-- Referans çizgileri -->
  <line x1="60" y1="236.0" x2="860" y2="236.0" stroke="#ef4444" stroke-width="1" stroke-dasharray="2,2" opacity="0.7"/>
  <text x="845" y="236.0" dominant-baseline="middle" font-size="9" fill="#ef4444">Kritik (30%)</text>
  <line x1="60" y1="180.0" x2="860" y2="180.0" stroke="#eab308" stroke-width="1" stroke-dasharray="2,2" opacity="0.7"/>
  <text x="845" y="180.0" dominant-baseline="middle" font-size="9" fill="#eab308">Normal (50%)</text>

  <!-- Toplam doluluk -->
  <polyline points="60.0,193.2 72.1,192.5 84.2,192.0 96.4,191.6 108.5,191.1 120.6,190.8 132.7,190.4 144.8,190.1 157.0,189.6 169.1,188.8 181.2,187.8 193.3,187.0 205.5,186.2 217.6,185.6 229.7,185.0 241.8,184.3 253.9,183.6 266.1,183.2 278.2,182.9 290.3,182.7 302.4,182.7 314.5,182.4 326.7,182.3 338.8,182.3 350.9,182.2 363.0,182.2 375.2,182.2 387.3,182.2 399.4,182.3 411.5,182.4 423.6,182.5 435.8,182.6 447.9,182.7 460.0,182.9 472.1,183.1 484.2,183.2 496.4,183.3 508.5,183.4 520.6,183.5 532.7,183.7 544.8,183.9 557.0,184.2 569.1,184.4 581.2,184.7 593.3,185.0 605.5,185.3 617.6,185.6 629.7,186.0 641.8,186.3 653.9,186.6 666.1,187.0 678.2,187.3 690.3,187.6 702.4,188.0 714.5,188.3 726.7,188.6 738.8,189.0 750.9,189.3 763.0,189.6 775.2,189.9 787.3,190.2 799.4,190.5 811.5,190.8 823.6,191.1 835.8,191.4 847.9,191.6 860.0,192.0" fill="none" stroke="#22c55e" stroke-width="2.5" stroke-linecap="round" stroke-linejoin="round"/>
  <polyline points="60.0,193.2 72.1,192.5 84.2,192.0 96.4,191.6 108.5,191.1 120.6,190.8 132.7,190.4 144.8,190.1 157.0,189.6 169.1,188.8 181.2,187.8 193.3,187.0 205.5,186.2 217.6,185.6 229.7,185.0 241.8,184.3 253.9,183.6 266.1,183.2 278.2,182.9 290.3,182.7 302.4,182.7 314.5,182.4 326.7,182.3 338.8,182.3 350.9,182.2 363.0,182.2 375.2,182.2 387.3,182.2 399.4,182.3 411.5,182.4 423.6,182.5 435.8,182.6 447.9,182.7 460.0,182.9 472.1,183.1 484.2,183.2 496.4,183.3 508.5,183.4 520.6,183.5 532.7,183.7 544.8,183.9 557.0,184.2 569.1,184.4 581.2,184.7 593.3,185.0 605.5,185.3 617.6,185.6 629.7,186.0 641.8,186.3 653.9,186.6 666.1,187.0 678.2,187.3 690.3,187.6 702.4,188.0 714.5,188.3 726.7,188.6 738.8,189.0 750.9,189.3 763.0,189.6 775.2,189.9 787.3,190.2 799.4,190.5 811.5,190.8 823.6,191.1 835.8,191.4 847.9,191.6 860.0,192.0" fill="none" stroke="#22c55e" stroke-width="5" opacity="0.1" stroke-linecap="round" stroke-linejoin="round"/>

  <!-- Aktif doluluk -->
  <polyline points="60.0,211.1 72.1,210.2 84.2,209.7 96.4,209.2 108.5,208.7 120.6,208.3 132.7,207.9 144.8,207.5 157.0,207.0 169.1,206.2 181.2,205.0 193.3,204.1 205.5,203.2 217.6,202.5 229.7,201.9 241.8,201.0 253.9,200.3 266.1,199.9 278.2,199.6 290.3,199.4 302.4,199.3 314.5,199.0 326.7,198.9 338.8,198.9 350.9,198.7 363.0,198.7 375.2,198.8 387.3,198.8 399.4,198.8 411.5,198.9 423.6,199.0 435.8,199.2 447.9,199.4 460.0,199.5 472.1,199.7 484.2,199.8 496.4,200.0 508.5,200.1 520.6,200.2 532.7,200.4 544.8,200.7 557.0,201.0 569.1,201.3 581.2,201.6 593.3,201.8 605.5,202.2 617.6,202.6 629.7,203.0 641.8,203.3 653.9,203.7 666.1,204.1 678.2,204.4 690.3,204.8 702.4,205.2 714.5,205.5 726.7,205.9 738.8,206.3 750.9,206.7 763.0,207.0 775.2,207.4 787.3,207.7 799.4,208.0 811.5,208.3 823.6,208.7 835.8,209.0 847.9,209.3 860.0,209.7" fill="none" stroke="#3b82f6" stroke-width="2.5" stroke-linecap="round" stroke-linejoin="round"/>
  <polyline points="60.0,211.1 72.1,210.2 84.2,209.7 96.4,209.2 108.5,208.7 120.6,208.3 132.7,207.9 144.8,207.5 157.0,207.0 169.1,206.2 181.2,205.0 193.3,204.1 205.5,203.2 217.6,202.5 229.7,201.9 241.8,201.0 253.9,200.3 266.1,199.9 278.2,199.6 290.3,199.4 302.4,199.3 314.5,199.0 326.7,198.9 338.8,198.9 350.9,198.7 363.0,198.7 375.2,198.8 387.3,198.8 399.4,198.8 411.5,198.9 423.6,199.0 435.8,199.2 447.9,199.4 460.0,199.5 472.1,199.7 484.2,199.8 496.4,200.0 508.5,200.1 520.6,200.2 532.7,200.4 544.8,200.7 557.0,201.0 569.1,201.3 581.2,201.6 593.3,201.8 605.5,202.2 617.6,202.6 629.7,203.0 641.8,203.3 653.9,203.7 666.1,204.1 678.2,204.4 690.3,204.8 702.4,205.2 714.5,205.5 726.7,205.9 738.8,206.3 750.9,206.7 763.0,207.0 775.2,207.4 787.3,207.7 799.4,208.0 811.5,208.3 823.6,208.7 835.8,209.0 847.9,209.3 860.0,209.7" fill="none" stroke="#3b82f6" stroke-width="5" opacity="0.1" stroke-linecap="round" stroke-linejoin="round"/>

  <!-- Noktalar -->
  <circle cx="60.0" cy="193.2" r="3" fill="#22c55e"/><circle cx="72.1" cy="192.5" r="3" fill="#22c55e"/><circle cx="84.2" cy="192.0" r="3" fill="#22c55e"/><circle cx="96.4" cy="191.6" r="3" fill="#22c55e"/><circle cx="108.5" cy="191.1" r="3" fill="#22c55e"/><circle cx="120.6" cy="190.8" r="3" fill="#22c55e"/><circle cx="132.7" cy="190.4" r="3" fill="#22c55e"/><circle cx="144.8" cy="190.1" r="3" fill="#22c55e"/><circle cx="157.0" cy="189.6" r="3" fill="#22c55e"/><circle cx="169.1" cy="188.8" r="3" fill="#22c55e"/><circle cx="181.2" cy="187.8" r="3" fill="#22c55e"/><circle cx="193.3" cy="187.0" r="3" fill="#22c55e"/><circle cx="205.5" cy="186.2" r="3" fill="#22c55e"/><circle cx="217.6" cy="185.6" r="3" fill="#22c55e"/><circle cx="229.7" cy="185.0" r="3" fill="#22c55e"/><circle cx="241.8" cy="184.3" r="3" fill="#22c55e"/><circle cx="253.9" cy="183.6" r="3" fill="#22c55e"/><circle cx="266.1" cy="183.2" r="3" fill="#22c55e"/><circle cx="278.2" cy="182.9" r="3" fill="#22c55e"/><circle cx="290.3" cy="182.7" r="3" fill="#22c55e"/><circle cx="302.4" cy="182.7" r="3" fill="#22c55e"/><circle cx="314.5" cy="182.4" r="3" fill="#22c55e"/><circle cx="326.7" cy="182.3" r="3" fill="#22c55e"/><circle cx="338.8" cy="182.3" r="3" fill="#22c55e"/><circle cx="350.9" cy="182.2" r="3" fill="#22c55e"/><circle cx="363.0" cy="182.2" r="3" fill="#22c55e"/><circle cx="375.2" cy="182.2" r="3" fill="#22c55e"/><circle cx="387.3" cy="182.2" r="3" fill="#22c55e"/><circle cx="399.4" cy="182.3" r="3" fill="#22c55e"/><circle cx="411.5" cy="182.4" r="3" fill="#22c55e"/><circle cx="423.6" cy="182.5" r="3" fill="#22c55e"/><circle cx="435.8" cy="182.6" r="3" fill="#22c55e"/><circle cx="447.9" cy="182.7" r="3" fill="#22c55e"/><circle cx="460.0" cy="182.9" r="3" fill="#22c55e"/><circle cx="472.1" cy="183.1" r="3" fill="#22c55e"/><circle cx="484.2" cy="183.2" r="3" fill="#22c55e"/><circle cx="496.4" cy="183.3" r="3" fill="#22c55e"/><circle cx="508.5" cy="183.4" r="3" fill="#22c55e"/><circle cx="520.6" cy="183.5" r="3" fill="#22c55e"/><circle cx="532.7" cy="183.7" r="3" fill="#22c55e"/><circle cx="544.8" cy="183.9" r="3" fill="#22c55e"/><circle cx="557.0" cy="184.2" r="3" fill="#22c55e"/><circle cx="569.1" cy="184.4" r="3" fill="#22c55e"/><circle cx="581.2" cy="184.7" r="3" fill="#22c55e"/><circle cx="593.3" cy="185.0" r="3" fill="#22c55e"/><circle cx="605.5" cy="185.3" r="3" fill="#22c55e"/><circle cx="617.6" cy="185.6" r="3" fill="#22c55e"/><circle cx="629.7" cy="186.0" r="3" fill="#22c55e"/><circle cx="641.8" cy="186.3" r="3" fill="#22c55e"/><circle cx="653.9" cy="186.6" r="3" fill="#22c55e"/><circle cx="666.1" cy="187.0" r="3" fill="#22c55e"/><circle cx="678.2" cy="187.3" r="3" fill="#22c55e"/><circle cx="690.3" cy="187.6" r="3" fill="#22c55e"/><circle cx="702.4" cy="188.0" r="3" fill="#22c55e"/><circle cx="714.5" cy="188.3" r="3" fill="#22c55e"/><circle cx="726.7" cy="188.6" r="3" fill="#22c55e"/><circle cx="738.8" cy="189.0" r="3" fill="#22c55e"/><circle cx="750.9" cy="189.3" r="3" fill="#22c55e"/><circle cx="763.0" cy="189.6" r="3" fill="#22c55e"/><circle cx="775.2" cy="189.9" r="3" fill="#22c55e"/><circle cx="787.3" cy="190.2" r="3" fill="#22c55e"/><circle cx="799.4" cy="190.5" r="3" fill="#22c55e"/><circle cx="811.5" cy="190.8" r="3" fill="#22c55e"/><circle cx="823.6" cy="191.1" r="3" fill="#22c55e"/><circle cx="835.8" cy="191.4" r="3" fill="#22c55e"/><circle cx="847.9" cy="191.6" r="3" fill="#22c55e"/><circle cx="860.0" cy="192.0" r="3" fill="#22c55e"/>
  <circle cx="60.0" cy="211.1" r="3" fill="#3b82f6"/><circle cx="72.1" cy="210.2" r="3" fill="#3b82f6"/><circle cx="84.2" cy="209.7" r="3" fill="#3b82f6"/><circle cx="96.4" cy="209.2" r="3" fill="#3b82f6"/><circle cx="108.5" cy="208.7" r="3" fill="#3b82f6"/><circle cx="120.6" cy="208.3" r="3" fill="#3b82f6"/><circle cx="132.7" cy="207.9" r="3" fill="#3b82f6"/><circle cx="144.8" cy="207.5" r="3" fill="#3b82f6"/><circle cx="157.0" cy="207.0" r="3" fill="#3b82f6"/><circle cx="169.1" cy="206.2" r="3" fill="#3b82f6"/><circle cx="181.2" cy="205.0" r="3" fill="#3b82f6"/><circle cx="193.3" cy="204.1" r="3" fill="#3b82f6"/><circle cx="205.5" cy="203.2" r="3" fill="#3b82f6"/><circle cx="217.6" cy="202.5" r="3" fill="#3b82f6"/><circle cx="229.7" cy="201.9" r="3" fill="#3b82f6"/><circle cx="241.8" cy="201.0" r="3" fill="#3b82f6"/><circle cx="253.9" cy="200.3" r="3" fill="#3b82f6"/><circle cx="266.1" cy="199.9" r="3" fill="#3b82f6"/><circle cx="278.2" cy="199.6" r="3" fill="#3b82f6"/><circle cx="290.3" cy="199.4" r="3" fill="#3b82f6"/><circle cx="302.4" cy="199.3" r="3" fill="#3b82f6"/><circle cx="314.5" cy="199.0" r="3" fill="#3b82f6"/><circle cx="326.7" cy="198.9" r="3" fill="#3b82f6"/><circle cx="338.8" cy="198.9" r="3" fill="#3b82f6"/><circle cx="350.9" cy="198.7" r="3" fill="#3b82f6"/><circle cx="363.0" cy="198.7" r="3" fill="#3b82f6"/><circle cx="375.2" cy="198.8" r="3" fill="#3b82f6"/><circle cx="387.3" cy="198.8" r="3" fill="#3b82f6"/><circle cx="399.4" cy="198.8" r="3" fill="#3b82f6"/><circle cx="411.5" cy="198.9" r="3" fill="#3b82f6"/><circle cx="423.6" cy="199.0" r="3" fill="#3b82f6"/><circle cx="435.8" cy="199.2" r="3" fill="#3b82f6"/><circle cx="447.9" cy="199.4" r="3" fill="#3b82f6"/><circle cx="460.0" cy="199.5" r="3" fill="#3b82f6"/><circle cx="472.1" cy="199.7" r="3" fill="#3b82f6"/><circle cx="484.2" cy="199.8" r="3" fill="#3b82f6"/><circle cx="496.4" cy="200.0" r="3" fill="#3b82f6"/><circle cx="508.5" cy="200.1" r="3" fill="#3b82f6"/><circle cx="520.6" cy="200.2" r="3" fill="#3b82f6"/><circle cx="532.7" cy="200.4" r="3" fill="#3b82f6"/><circle cx="544.8" cy="200.7" r="3" fill="#3b82f6"/><circle cx="557.0" cy="201.0" r="3" fill="#3b82f6"/><circle cx="569.1" cy="201.3" r="3" fill="#3b82f6"/><circle cx="581.2" cy="201.6" r="3" fill="#3b82f6"/><circle cx="593.3" cy="201.8" r="3" fill="#3b82f6"/><circle cx="605.5" cy="202.2" r="3" fill="#3b82f6"/><circle cx="617.6" cy="202.6" r="3" fill="#3b82f6"/><circle cx="629.7" cy="203.0" r="3" fill="#3b82f6"/><circle cx="641.8" cy="203.3" r="3" fill="#3b82f6"/><circle cx="653.9" cy="203.7" r="3" fill="#3b82f6"/><circle cx="666.1" cy="204.1" r="3" fill="#3b82f6"/><circle cx="678.2" cy="204.4" r="3" fill="#3b82f6"/><circle cx="690.3" cy="204.8" r="3" fill="#3b82f6"/><circle cx="702.4" cy="205.2" r="3" fill="#3b82f6"/><circle cx="714.5" cy="205.5" r="3" fill="#3b82f6"/><circle cx="726.7" cy="205.9" r="3" fill="#3b82f6"/><circle cx="738.8" cy="206.3" r="3" fill="#3b82f6"/><circle cx="750.9" cy="206.7" r="3" fill="#3b82f6"/><circle cx="763.0" cy="207.0" r="3" fill="#3b82f6"/><circle cx="775.2" cy="207.4" r="3" fill="#3b82f6"/><circle cx="787.3" cy="207.7" r="3" fill="#3b82f6"/><circle cx="799.4" cy="208.0" r="3" fill="#3b82f6"/><circle cx="811.5" cy="208.3" r="3" fill="#3b82f6"/><circle cx="823.6" cy="208.7" r="3" fill="#3b82f6"/><circle cx="835.8" cy="209.0" r="3" fill="#3b82f6"/><circle cx="847.9" cy="209.3" r="3" fill="#3b82f6"/><circle cx="860.0" cy="209.7" r="3" fill="#3b82f6"/>

  <!-- X ekseni -->
  <text x="60.0" y="380" text-anchor="middle" font-size="10" fill="#888">14.05.2026</text>
  <text x="193.3" y="380" text-anchor="middle" font-size="10" fill="#888">25.05.2026</text>
  <text x="326.7" y="380" text-anchor="middle" font-size="10" fill="#888">05.06.2026</text>
  <text x="460.0" y="380" text-anchor="middle" font-size="10" fill="#888">16.06.2026</text>
  <text x="593.3" y="380" text-anchor="middle" font-size="10" fill="#888">27.06.2026</text>
  <text x="726.7" y="380" text-anchor="middle" font-size="10" fill="#888">08.07.2026</text>
  <text x="860.0" y="380" text-anchor="middle" font-size="10" fill="#888">19.07.2026</text>

  <!-- Legend -->
  <g transform="translate(60, 345)">
    <rect x="0" y="0" width="12" height="12" fill="#22c55e" rx="2"/>
    <text x="18" y="10" font-size="11" fill="#c9d1d9">Toplam Doluluk</text>
    <rect x="140" y="0" width="12" height="12" fill="#3b82f6" rx="2"/>
    <text x="158" y="10" font-size="11" fill="#c9d1d9">Aktif Doluluk</text>
  </g>
</svg>