<svg xmlns="http://www.w3.org/2000/svg" viewBox="0 0 900 400" width="100%" style="max-width:900px;">
  <rect width="900" height="400" fill="#0d1117" rx="6"/>
  <text x="450.0" y="25" text-anchor="middle" font-size="16" font-weight="bold" fill="#c9d1d9">Son 180 Gün - Günlük Ortalama</text>

  <!-- Y grid -->
  <line x1="60" y1="320.0" x2="860" y2="320.0" stroke="#333" stroke-width="1" stroke-dasharray="4,4" opacity="0.5"/>
  <text x="50" y="320.0" text-anchor="end" dominant-baseline="middle" font-size="10" fill="#888">0%</text>
  <line x1="60" y1="264.0" x2="860" y2="264.0" stroke="#333" stroke-width="1" stroke-dasharray="4,4" opacity="0.5"/>
  <text x="50" y="264.0" text-anchor="end" dominant-baseline="middle" font-size="10" fill="#888">20%</text>
  <line x1="60" y1="208.0" x2="860" y2="208.0" stroke="#333" stroke-width="1" stroke-dasharray="4,4" opacity="0.5"/>
  <text x="50" y="208.0" text-anchor="end" dominant-baseline="middle" font-size="10" fill="#888">40%</text>
  <line x1="60" y1="152.0" x2="860" y2="152.0" stroke="#333" stroke-width="1" stroke-dasharray="4,4" opacity="0.5"/>
  <text x="50" y="152.0" text-anchor="end" dominant-baseline="middle" font-size="10" fill="#888">60%</text>
  <line x1="60" y1="96.0" x2="860" y2="96.0" stroke="#333" stroke-width="1" stroke-dasharray="4,4" opacity="0.5"/>
  <text x="50" y="96.0" text-anchor="end" dominant-baseline="middle" font-size="10" fill="#888">80%</text>
  <line x1="60" y1="40.0" x2="860" y2="40.0" stroke="#333" stroke-width="1" stroke-dasharray="4,4" opacity="0.5"/>
  <text x="50" y="40.0" text-anchor="end" dominant-baseline="middle" font-size="10" fill="#888">100%</text>

  <!-- Referans çizgileri -->
  <line x1="60" y1="236.0" x2="860" y2="236.0" stroke="#ef4444" stroke-width="1" stroke-dasharray="2,2" opacity="0.7"/>
  <text x="845" y="236.0" dominant-baseline="middle" font-size="9" fill="#ef4444">Kritik (30%)</text>
  <line x1="60" y1="180.0" x2="860" y2="180.0" stroke="#eab308" stroke-width="1" stroke-dasharray="2,2" opacity="0.7"/>
  <text x="845" y="180.0" dominant-baseline="middle" font-size="9" fill="#eab308">Normal (50%)</text>

  <!-- Toplam doluluk -->
  <polyline points="60.0,193.2 78.6,192.5 97.2,192.0 115.8,191.6 134.4,191.1 153.0,190.8 171.6,190.4 190.2,190.1 208.8,189.6 227.4,188.8 246.0,187.8 264.7,187.0 283.3,186.2 301.9,185.6 320.5,185.0 339.1,184.3 357.7,183.6 376.3,183.2 394.9,182.9 413.5,182.7 432.1,182.7 450.7,182.4 469.3,182.3 487.9,182.3 506.5,182.2 525.1,182.2 543.7,182.2 562.3,182.2 580.9,182.3 599.5,182.4 618.1,182.5 636.7,182.6 655.3,182.7 674.0,182.9 692.6,183.1 711.2,183.2 729.8,183.3 748.4,183.4 767.0,183.5 785.6,183.7 804.2,183.9 822.8,184.2 841.4,184.4 860.0,184.7" fill="none" stroke="#22c55e" stroke-width="2.5" stroke-linecap="round" stroke-linejoin="round"/>
  <polyline points="60.0,193.2 78.6,192.5 97.2,192.0 115.8,191.6 134.4,191.1 153.0,190.8 171.6,190.4 190.2,190.1 208.8,189.6 227.4,188.8 246.0,187.8 264.7,187.0 283.3,186.2 301.9,185.6 320.5,185.0 339.1,184.3 357.7,183.6 376.3,183.2 394.9,182.9 413.5,182.7 432.1,182.7 450.7,182.4 469.3,182.3 487.9,182.3 506.5,182.2 525.1,182.2 543.7,182.2 562.3,182.2 580.9,182.3 599.5,182.4 618.1,182.5 636.7,182.6 655.3,182.7 674.0,182.9 692.6,183.1 711.2,183.2 729.8,183.3 748.4,183.4 767.0,183.5 785.6,183.7 804.2,183.9 822.8,184.2 841.4,184.4 860.0,184.7" fill="none" stroke="#22c55e" stroke-width="5" opacity="0.1" stroke-linecap="round" stroke-linejoin="round"/>

  <!-- Aktif doluluk -->
  <polyline points="60.0,211.1 78.6,210.2 97.2,209.7 115.8,209.2 134.4,208.7 153.0,208.3 171.6,207.9 190.2,207.5 208.8,207.0 227.4,206.2 246.0,205.0 264.7,204.1 283.3,203.2 301.9,202.5 320.5,201.9 339.1,201.0 357.7,200.3 376.3,199.9 394.9,199.6 413.5,199.4 432.1,199.3 450.7,199.0 469.3,198.9 487.9,198.9 506.5,198.7 525.1,198.7 543.7,198.8 562.3,198.8 580.9,198.8 599.5,198.9 618.1,199.0 636.7,199.2 655.3,199.4 674.0,199.5 692.6,199.7 711.2,199.8 729.8,200.0 748.4,200.1 767.0,200.2 785.6,200.4 804.2,200.7 822.8,201.0 841.4,201.3 860.0,201.6" fill="none" stroke="#3b82f6" stroke-width="2.5" stroke-linecap="round" stroke-linejoin="round"/>
  <polyline points="60.0,211.1 78.6,210.2 97.2,209.7 115.8,209.2 134.4,208.7 153.0,208.3 171.6,207.9 190.2,207.5 208.8,207.0 227.4,206.2 246.0,205.0 264.7,204.1 283.3,203.2 301.9,202.5 320.5,201.9 339.1,201.0 357.7,200.3 376.3,199.9 394.9,199.6 413.5,199.4 432.1,199.3 450.7,199.0 469.3,198.9 487.9,198.9 506.5,198.7 525.1,198.7 543.7,198.8 562.3,198.8 580.9,198.8 599.5,198.9 618.1,199.0 636.7,199.2 655.3,199.4 674.0,199.5 692.6,199.7 711.2,199.8 729.8,200.0 748.4,200.1 767.0,200.2 785.6,200.4 804.2,200.7 822.8,201.0 841.4,201.3 860.0,201.6" fill="none" stroke="#3b82f6" stroke-width="5" opacity="0.1" stroke-linecap="round" stroke-linejoin="round"/>

  <!-- Noktalar -->
  <circle cx="60.0" cy="193.2" r="3" fill="#22c55e"/><circle cx="78.6" cy="192.5" r="3" fill="#22c55e"/><circle cx="97.2" cy="192.0" r="3" fill="#22c55e"/><circle cx="115.8" cy="191.6" r="3" fill="#22c55e"/><circle cx="134.4" cy="191.1" r="3" fill="#22c55e"/><circle cx="153.0" cy="190.8" r="3" fill="#22c55e"/><circle cx="171.6" cy="190.4" r="3" fill="#22c55e"/><circle cx="190.2" cy="190.1" r="3" fill="#22c55e"/><circle cx="208.8" cy="189.6" r="3" fill="#22c55e"/><circle cx="227.4" cy="188.8" r="3" fill="#22c55e"/><circle cx="246.0" cy="187.8" r="3" fill="#22c55e"/><circle cx="264.7" cy="187.0" r="3" fill="#22c55e"/><circle cx="283.3" cy="186.2" r="3" fill="#22c55e"/><circle cx="301.9" cy="185.6" r="3" fill="#22c55e"/><circle cx="320.5" cy="185.0" r="3" fill="#22c55e"/><circle cx="339.1" cy="184.3" r="3" fill="#22c55e"/><circle cx="357.7" cy="183.6" r="3" fill="#22c55e"/><circle cx="376.3" cy="183.2" r="3" fill="#22c55e"/><circle cx="394.9" cy="182.9" r="3" fill="#22c55e"/><circle cx="413.5" cy="182.7" r="3" fill="#22c55e"/><circle cx="432.1" cy="182.7" r="3" fill="#22c55e"/><circle cx="450.7" cy="182.4" r="3" fill="#22c55e"/><circle cx="469.3" cy="182.3" r="3" fill="#22c55e"/><circle cx="487.9" cy="182.3" r="3" fill="#22c55e"/><circle cx="506.5" cy="182.2" r="3" fill="#22c55e"/><circle cx="525.1" cy="182.2" r="3" fill="#22c55e"/><circle cx="543.7" cy="182.2" r="3" fill="#22c55e"/><circle cx="562.3" cy="182.2" r="3" fill="#22c55e"/><circle cx="580.9" cy="182.3" r="3" fill="#22c55e"/><circle cx="599.5" cy="182.4" r="3" fill="#22c55e"/><circle cx="618.1" cy="182.5" r="3" fill="#22c55e"/><circle cx="636.7" cy="182.6" r="3" fill="#22c55e"/><circle cx="655.3" cy="182.7" r="3" fill="#22c55e"/><circle cx="674.0" cy="182.9" r="3" fill="#22c55e"/><circle cx="692.6" cy="183.1" r="3" fill="#22c55e"/><circle cx="711.2" cy="183.2" r="3" fill="#22c55e"/><circle cx="729.8" cy="183.3" r="3" fill="#22c55e"/><circle cx="748.4" cy="183.4" r="3" fill="#22c55e"/><circle cx="767.0" cy="183.5" r="3" fill="#22c55e"/><circle cx="785.6" cy="183.7" r="3" fill="#22c55e"/><circle cx="804.2" cy="183.9" r="3" fill="#22c55e"/><circle cx="822.8" cy="184.2" r="3" fill="#22c55e"/><circle cx="841.4" cy="184.4" r="3" fill="#22c55e"/><circle cx="860.0" cy="184.7" r="3" fill="#22c55e"/>
  <circle cx="60.0" cy="211.1" r="3" fill="#3b82f6"/><circle cx="78.6" cy="210.2" r="3" fill="#3b82f6"/><circle cx="97.2" cy="209.7" r="3" fill="#3b82f6"/><circle cx="115.8" cy="209.2" r="3" fill="#3b82f6"/><circle cx="134.4" cy="208.7" r="3" fill="#3b82f6"/><circle cx="153.0" cy="208.3" r="3" fill="#3b82f6"/><circle cx="171.6" cy="207.9" r="3" fill="#3b82f6"/><circle cx="190.2" cy="207.5" r="3" fill="#3b82f6"/><circle cx="208.8" cy="207.0" r="3" fill="#3b82f6"/><circle cx="227.4" cy="206.2" r="3" fill="#3b82f6"/><circle cx="246.0" cy="205.0" r="3" fill="#3b82f6"/><circle cx="264.7" cy="204.1" r="3" fill="#3b82f6"/><circle cx="283.3" cy="203.2" r="3" fill="#3b82f6"/><circle cx="301.9" cy="202.5" r="3" fill="#3b82f6"/><circle cx="320.5" cy="201.9" r="3" fill="#3b82f6"/><circle cx="339.1" cy="201.0" r="3" fill="#3b82f6"/><circle cx="357.7" cy="200.3" r="3" fill="#3b82f6"/><circle cx="376.3" cy="199.9" r="3" fill="#3b82f6"/><circle cx="394.9" cy="199.6" r="3" fill="#3b82f6"/><circle cx="413.5" cy="199.4" r="3" fill="#3b82f6"/><circle cx="432.1" cy="199.3" r="3" fill="#3b82f6"/><circle cx="450.7" cy="199.0" r="3" fill="#3b82f6"/><circle cx="469.3" cy="198.9" r="3" fill="#3b82f6"/><circle cx="487.9" cy="198.9" r="3" fill="#3b82f6"/><circle cx="506.5" cy="198.7" r="3" fill="#3b82f6"/><circle cx="525.1" cy="198.7" r="3" fill="#3b82f6"/><circle cx="543.7" cy="198.8" r="3" fill="#3b82f6"/><circle cx="562.3" cy="198.8" r="3" fill="#3b82f6"/><circle cx="580.9" cy="198.8" r="3" fill="#3b82f6"/><circle cx="599.5" cy="198.9" r="3" fill="#3b82f6"/><circle cx="618.1" cy="199.0" r="3" fill="#3b82f6"/><circle cx="636.7" cy="199.2" r="3" fill="#3b82f6"/><circle cx="655.3" cy="199.4" r="3" fill="#3b82f6"/><circle cx="674.0" cy="199.5" r="3" fill="#3b82f6"/><circle cx="692.6" cy="199.7" r="3" fill="#3b82f6"/><circle cx="711.2" cy="199.8" r="3" fill="#3b82f6"/><circle cx="729.8" cy="200.0" r="3" fill="#3b82f6"/><circle cx="748.4" cy="200.1" r="3" fill="#3b82f6"/><circle cx="767.0" cy="200.2" r="3" fill="#3b82f6"/><circle cx="785.6" cy="200.4" r="3" fill="#3b82f6"/><circle cx="804.2" cy="200.7" r="3" fill="#3b82f6"/><circle cx="822.8" cy="201.0" r="3" fill="#3b82f6"/><circle cx="841.4" cy="201.3" r="3" fill="#3b82f6"/><circle cx="860.0" cy="201.6" r="3" fill="#3b82f6"/>

  <!-- X ekseni -->
  <text x="60.0" y="380" text-anchor="middle" font-size="10" fill="#888">14.05.2026</text>
  <text x="190.2" y="380" text-anchor="middle" font-size="10" fill="#888">21.05.2026</text>
  <text x="320.5" y="380" text-anchor="middle" font-size="10" fill="#888">28.05.2026</text>
  <text x="450.7" y="380" text-anchor="middle" font-size="10" fill="#888">04.06.2026</text>
  <text x="580.9" y="380" text-anchor="middle" font-size="10" fill="#888">11.06.2026</text>
  <text x="711.2" y="380" text-anchor="middle" font-size="10" fill="#888">18.06.2026</text>
  <text x="841.4" y="380" text-anchor="middle" font-size="10" fill="#888">25.06.2026</text>

  <!-- Legend -->
  <g transform="translate(60, 345)">
    <rect x="0" y="0" width="12" height="12" fill="#22c55e" rx="2"/>
    <text x="18" y="10" font-size="11" fill="#c9d1d9">Toplam Doluluk</text>
    <rect x="140" y="0" width="12" height="12" fill="#3b82f6" rx="2"/>
    <text x="158" y="10" font-size="11" fill="#c9d1d9">Aktif Doluluk</text>
  </g>
</svg>