<svg xmlns="http://www.w3.org/2000/svg" viewBox="0 0 800 400" width="100%" style="max-width:800px;">
  <rect width="800" height="400" fill="#0d1117" rx="6"/>
  <text x="400.0" y="25" text-anchor="middle" font-size="16" font-weight="bold" fill="#c9d1d9">Son 90 Gün - Günlük Ortalama</text>

  <!-- Y grid -->
  <line x1="60" y1="320.0" x2="760" y2="320.0" stroke="#333" stroke-width="1" stroke-dasharray="4,4" opacity="0.5"/>
  <text x="50" y="320.0" text-anchor="end" dominant-baseline="middle" font-size="10" fill="#888">0%</text>
  <line x1="60" y1="264.0" x2="760" y2="264.0" stroke="#333" stroke-width="1" stroke-dasharray="4,4" opacity="0.5"/>
  <text x="50" y="264.0" text-anchor="end" dominant-baseline="middle" font-size="10" fill="#888">20%</text>
  <line x1="60" y1="208.0" x2="760" y2="208.0" stroke="#333" stroke-width="1" stroke-dasharray="4,4" opacity="0.5"/>
  <text x="50" y="208.0" text-anchor="end" dominant-baseline="middle" font-size="10" fill="#888">40%</text>
  <line x1="60" y1="152.0" x2="760" y2="152.0" stroke="#333" stroke-width="1" stroke-dasharray="4,4" opacity="0.5"/>
  <text x="50" y="152.0" text-anchor="end" dominant-baseline="middle" font-size="10" fill="#888">60%</text>
  <line x1="60" y1="96.0" x2="760" y2="96.0" stroke="#333" stroke-width="1" stroke-dasharray="4,4" opacity="0.5"/>
  <text x="50" y="96.0" text-anchor="end" dominant-baseline="middle" font-size="10" fill="#888">80%</text>
  <line x1="60" y1="40.0" x2="760" y2="40.0" stroke="#333" stroke-width="1" stroke-dasharray="4,4" opacity="0.5"/>
  <text x="50" y="40.0" text-anchor="end" dominant-baseline="middle" font-size="10" fill="#888">100%</text>

  <!-- Referans çizgileri -->
  <line x1="60" y1="236.0" x2="760" y2="236.0" stroke="#ef4444" stroke-width="1" stroke-dasharray="2,2" opacity="0.7"/>
  <text x="745" y="236.0" dominant-baseline="middle" font-size="9" fill="#ef4444">Kritik (30%)</text>
  <line x1="60" y1="180.0" x2="760" y2="180.0" stroke="#eab308" stroke-width="1" stroke-dasharray="2,2" opacity="0.7"/>
  <text x="745" y="180.0" dominant-baseline="middle" font-size="9" fill="#eab308">Normal (50%)</text>

  <!-- Toplam doluluk -->
  <polyline points="60.0,193.2 72.3,192.5 84.6,192.0 96.8,191.6 109.1,191.1 121.4,190.8 133.7,190.4 146.0,190.1 158.2,189.6 170.5,188.8 182.8,187.8 195.1,187.0 207.4,186.2 219.6,185.6 231.9,185.0 244.2,184.3 256.5,183.6 268.8,183.2 281.1,182.9 293.3,182.7 305.6,182.7 317.9,182.4 330.2,182.3 342.5,182.3 354.7,182.2 367.0,182.2 379.3,182.2 391.6,182.2 403.9,182.3 416.1,182.4 428.4,182.5 440.7,182.6 453.0,182.7 465.3,182.9 477.5,183.1 489.8,183.2 502.1,183.3 514.4,183.4 526.7,183.5 538.9,183.7 551.2,183.9 563.5,184.2 575.8,184.4 588.1,184.7 600.4,185.0 612.6,185.3 624.9,185.6 637.2,186.0 649.5,186.3 661.8,186.6 674.0,187.0 686.3,187.3 698.6,187.6 710.9,188.0 723.2,188.3 735.4,188.6 747.7,189.0 760.0,189.3" fill="none" stroke="#22c55e" stroke-width="2.5" stroke-linecap="round" stroke-linejoin="round"/>
  <polyline points="60.0,193.2 72.3,192.5 84.6,192.0 96.8,191.6 109.1,191.1 121.4,190.8 133.7,190.4 146.0,190.1 158.2,189.6 170.5,188.8 182.8,187.8 195.1,187.0 207.4,186.2 219.6,185.6 231.9,185.0 244.2,184.3 256.5,183.6 268.8,183.2 281.1,182.9 293.3,182.7 305.6,182.7 317.9,182.4 330.2,182.3 342.5,182.3 354.7,182.2 367.0,182.2 379.3,182.2 391.6,182.2 403.9,182.3 416.1,182.4 428.4,182.5 440.7,182.6 453.0,182.7 465.3,182.9 477.5,183.1 489.8,183.2 502.1,183.3 514.4,183.4 526.7,183.5 538.9,183.7 551.2,183.9 563.5,184.2 575.8,184.4 588.1,184.7 600.4,185.0 612.6,185.3 624.9,185.6 637.2,186.0 649.5,186.3 661.8,186.6 674.0,187.0 686.3,187.3 698.6,187.6 710.9,188.0 723.2,188.3 735.4,188.6 747.7,189.0 760.0,189.3" fill="none" stroke="#22c55e" stroke-width="5" opacity="0.1" stroke-linecap="round" stroke-linejoin="round"/>

  <!-- Aktif doluluk -->
  <polyline points="60.0,211.1 72.3,210.2 84.6,209.7 96.8,209.2 109.1,208.7 121.4,208.3 133.7,207.9 146.0,207.5 158.2,207.0 170.5,206.2 182.8,205.0 195.1,204.1 207.4,203.2 219.6,202.5 231.9,201.9 244.2,201.0 256.5,200.3 268.8,199.9 281.1,199.6 293.3,199.4 305.6,199.3 317.9,199.0 330.2,198.9 342.5,198.9 354.7,198.7 367.0,198.7 379.3,198.8 391.6,198.8 403.9,198.8 416.1,198.9 428.4,199.0 440.7,199.2 453.0,199.4 465.3,199.5 477.5,199.7 489.8,199.8 502.1,200.0 514.4,200.1 526.7,200.2 538.9,200.4 551.2,200.7 563.5,201.0 575.8,201.3 588.1,201.6 600.4,201.8 612.6,202.2 624.9,202.6 637.2,203.0 649.5,203.3 661.8,203.7 674.0,204.1 686.3,204.4 698.6,204.8 710.9,205.2 723.2,205.5 735.4,205.9 747.7,206.3 760.0,206.7" fill="none" stroke="#3b82f6" stroke-width="2.5" stroke-linecap="round" stroke-linejoin="round"/>
  <polyline points="60.0,211.1 72.3,210.2 84.6,209.7 96.8,209.2 109.1,208.7 121.4,208.3 133.7,207.9 146.0,207.5 158.2,207.0 170.5,206.2 182.8,205.0 195.1,204.1 207.4,203.2 219.6,202.5 231.9,201.9 244.2,201.0 256.5,200.3 268.8,199.9 281.1,199.6 293.3,199.4 305.6,199.3 317.9,199.0 330.2,198.9 342.5,198.9 354.7,198.7 367.0,198.7 379.3,198.8 391.6,198.8 403.9,198.8 416.1,198.9 428.4,199.0 440.7,199.2 453.0,199.4 465.3,199.5 477.5,199.7 489.8,199.8 502.1,200.0 514.4,200.1 526.7,200.2 538.9,200.4 551.2,200.7 563.5,201.0 575.8,201.3 588.1,201.6 600.4,201.8 612.6,202.2 624.9,202.6 637.2,203.0 649.5,203.3 661.8,203.7 674.0,204.1 686.3,204.4 698.6,204.8 710.9,205.2 723.2,205.5 735.4,205.9 747.7,206.3 760.0,206.7" fill="none" stroke="#3b82f6" stroke-width="5" opacity="0.1" stroke-linecap="round" stroke-linejoin="round"/>

  <!-- Noktalar -->
  <circle cx="60.0" cy="193.2" r="3" fill="#22c55e"/><circle cx="72.3" cy="192.5" r="3" fill="#22c55e"/><circle cx="84.6" cy="192.0" r="3" fill="#22c55e"/><circle cx="96.8" cy="191.6" r="3" fill="#22c55e"/><circle cx="109.1" cy="191.1" r="3" fill="#22c55e"/><circle cx="121.4" cy="190.8" r="3" fill="#22c55e"/><circle cx="133.7" cy="190.4" r="3" fill="#22c55e"/><circle cx="146.0" cy="190.1" r="3" fill="#22c55e"/><circle cx="158.2" cy="189.6" r="3" fill="#22c55e"/><circle cx="170.5" cy="188.8" r="3" fill="#22c55e"/><circle cx="182.8" cy="187.8" r="3" fill="#22c55e"/><circle cx="195.1" cy="187.0" r="3" fill="#22c55e"/><circle cx="207.4" cy="186.2" r="3" fill="#22c55e"/><circle cx="219.6" cy="185.6" r="3" fill="#22c55e"/><circle cx="231.9" cy="185.0" r="3" fill="#22c55e"/><circle cx="244.2" cy="184.3" r="3" fill="#22c55e"/><circle cx="256.5" cy="183.6" r="3" fill="#22c55e"/><circle cx="268.8" cy="183.2" r="3" fill="#22c55e"/><circle cx="281.1" cy="182.9" r="3" fill="#22c55e"/><circle cx="293.3" cy="182.7" r="3" fill="#22c55e"/><circle cx="305.6" cy="182.7" r="3" fill="#22c55e"/><circle cx="317.9" cy="182.4" r="3" fill="#22c55e"/><circle cx="330.2" cy="182.3" r="3" fill="#22c55e"/><circle cx="342.5" cy="182.3" r="3" fill="#22c55e"/><circle cx="354.7" cy="182.2" r="3" fill="#22c55e"/><circle cx="367.0" cy="182.2" r="3" fill="#22c55e"/><circle cx="379.3" cy="182.2" r="3" fill="#22c55e"/><circle cx="391.6" cy="182.2" r="3" fill="#22c55e"/><circle cx="403.9" cy="182.3" r="3" fill="#22c55e"/><circle cx="416.1" cy="182.4" r="3" fill="#22c55e"/><circle cx="428.4" cy="182.5" r="3" fill="#22c55e"/><circle cx="440.7" cy="182.6" r="3" fill="#22c55e"/><circle cx="453.0" cy="182.7" r="3" fill="#22c55e"/><circle cx="465.3" cy="182.9" r="3" fill="#22c55e"/><circle cx="477.5" cy="183.1" r="3" fill="#22c55e"/><circle cx="489.8" cy="183.2" r="3" fill="#22c55e"/><circle cx="502.1" cy="183.3" r="3" fill="#22c55e"/><circle cx="514.4" cy="183.4" r="3" fill="#22c55e"/><circle cx="526.7" cy="183.5" r="3" fill="#22c55e"/><circle cx="538.9" cy="183.7" r="3" fill="#22c55e"/><circle cx="551.2" cy="183.9" r="3" fill="#22c55e"/><circle cx="563.5" cy="184.2" r="3" fill="#22c55e"/><circle cx="575.8" cy="184.4" r="3" fill="#22c55e"/><circle cx="588.1" cy="184.7" r="3" fill="#22c55e"/><circle cx="600.4" cy="185.0" r="3" fill="#22c55e"/><circle cx="612.6" cy="185.3" r="3" fill="#22c55e"/><circle cx="624.9" cy="185.6" r="3" fill="#22c55e"/><circle cx="637.2" cy="186.0" r="3" fill="#22c55e"/><circle cx="649.5" cy="186.3" r="3" fill="#22c55e"/><circle cx="661.8" cy="186.6" r="3" fill="#22c55e"/><circle cx="674.0" cy="187.0" r="3" fill="#22c55e"/><circle cx="686.3" cy="187.3" r="3" fill="#22c55e"/><circle cx="698.6" cy="187.6" r="3" fill="#22c55e"/><circle cx="710.9" cy="188.0" r="3" fill="#22c55e"/><circle cx="723.2" cy="188.3" r="3" fill="#22c55e"/><circle cx="735.4" cy="188.6" r="3" fill="#22c55e"/><circle cx="747.7" cy="189.0" r="3" fill="#22c55e"/><circle cx="760.0" cy="189.3" r="3" fill="#22c55e"/>
  <circle cx="60.0" cy="211.1" r="3" fill="#3b82f6"/><circle cx="72.3" cy="210.2" r="3" fill="#3b82f6"/><circle cx="84.6" cy="209.7" r="3" fill="#3b82f6"/><circle cx="96.8" cy="209.2" r="3" fill="#3b82f6"/><circle cx="109.1" cy="208.7" r="3" fill="#3b82f6"/><circle cx="121.4" cy="208.3" r="3" fill="#3b82f6"/><circle cx="133.7" cy="207.9" r="3" fill="#3b82f6"/><circle cx="146.0" cy="207.5" r="3" fill="#3b82f6"/><circle cx="158.2" cy="207.0" r="3" fill="#3b82f6"/><circle cx="170.5" cy="206.2" r="3" fill="#3b82f6"/><circle cx="182.8" cy="205.0" r="3" fill="#3b82f6"/><circle cx="195.1" cy="204.1" r="3" fill="#3b82f6"/><circle cx="207.4" cy="203.2" r="3" fill="#3b82f6"/><circle cx="219.6" cy="202.5" r="3" fill="#3b82f6"/><circle cx="231.9" cy="201.9" r="3" fill="#3b82f6"/><circle cx="244.2" cy="201.0" r="3" fill="#3b82f6"/><circle cx="256.5" cy="200.3" r="3" fill="#3b82f6"/><circle cx="268.8" cy="199.9" r="3" fill="#3b82f6"/><circle cx="281.1" cy="199.6" r="3" fill="#3b82f6"/><circle cx="293.3" cy="199.4" r="3" fill="#3b82f6"/><circle cx="305.6" cy="199.3" r="3" fill="#3b82f6"/><circle cx="317.9" cy="199.0" r="3" fill="#3b82f6"/><circle cx="330.2" cy="198.9" r="3" fill="#3b82f6"/><circle cx="342.5" cy="198.9" r="3" fill="#3b82f6"/><circle cx="354.7" cy="198.7" r="3" fill="#3b82f6"/><circle cx="367.0" cy="198.7" r="3" fill="#3b82f6"/><circle cx="379.3" cy="198.8" r="3" fill="#3b82f6"/><circle cx="391.6" cy="198.8" r="3" fill="#3b82f6"/><circle cx="403.9" cy="198.8" r="3" fill="#3b82f6"/><circle cx="416.1" cy="198.9" r="3" fill="#3b82f6"/><circle cx="428.4" cy="199.0" r="3" fill="#3b82f6"/><circle cx="440.7" cy="199.2" r="3" fill="#3b82f6"/><circle cx="453.0" cy="199.4" r="3" fill="#3b82f6"/><circle cx="465.3" cy="199.5" r="3" fill="#3b82f6"/><circle cx="477.5" cy="199.7" r="3" fill="#3b82f6"/><circle cx="489.8" cy="199.8" r="3" fill="#3b82f6"/><circle cx="502.1" cy="200.0" r="3" fill="#3b82f6"/><circle cx="514.4" cy="200.1" r="3" fill="#3b82f6"/><circle cx="526.7" cy="200.2" r="3" fill="#3b82f6"/><circle cx="538.9" cy="200.4" r="3" fill="#3b82f6"/><circle cx="551.2" cy="200.7" r="3" fill="#3b82f6"/><circle cx="563.5" cy="201.0" r="3" fill="#3b82f6"/><circle cx="575.8" cy="201.3" r="3" fill="#3b82f6"/><circle cx="588.1" cy="201.6" r="3" fill="#3b82f6"/><circle cx="600.4" cy="201.8" r="3" fill="#3b82f6"/><circle cx="612.6" cy="202.2" r="3" fill="#3b82f6"/><circle cx="624.9" cy="202.6" r="3" fill="#3b82f6"/><circle cx="637.2" cy="203.0" r="3" fill="#3b82f6"/><circle cx="649.5" cy="203.3" r="3" fill="#3b82f6"/><circle cx="661.8" cy="203.7" r="3" fill="#3b82f6"/><circle cx="674.0" cy="204.1" r="3" fill="#3b82f6"/><circle cx="686.3" cy="204.4" r="3" fill="#3b82f6"/><circle cx="698.6" cy="204.8" r="3" fill="#3b82f6"/><circle cx="710.9" cy="205.2" r="3" fill="#3b82f6"/><circle cx="723.2" cy="205.5" r="3" fill="#3b82f6"/><circle cx="735.4" cy="205.9" r="3" fill="#3b82f6"/><circle cx="747.7" cy="206.3" r="3" fill="#3b82f6"/><circle cx="760.0" cy="206.7" r="3" fill="#3b82f6"/>

  <!-- X ekseni -->
  <text x="60.0" y="380" text-anchor="middle" font-size="10" fill="#888">14.05.2026</text>
  <text x="170.5" y="380" text-anchor="middle" font-size="10" fill="#888">23.05.2026</text>
  <text x="281.1" y="380" text-anchor="middle" font-size="10" fill="#888">01.06.2026</text>
  <text x="391.6" y="380" text-anchor="middle" font-size="10" fill="#888">10.06.2026</text>
  <text x="502.1" y="380" text-anchor="middle" font-size="10" fill="#888">19.06.2026</text>
  <text x="612.6" y="380" text-anchor="middle" font-size="10" fill="#888">28.06.2026</text>
  <text x="723.2" y="380" text-anchor="middle" font-size="10" fill="#888">07.07.2026</text>

  <!-- Legend -->
  <g transform="translate(60, 345)">
    <rect x="0" y="0" width="12" height="12" fill="#22c55e" rx="2"/>
    <text x="18" y="10" font-size="11" fill="#c9d1d9">Toplam Doluluk</text>
    <rect x="140" y="0" width="12" height="12" fill="#3b82f6" rx="2"/>
    <text x="158" y="10" font-size="11" fill="#c9d1d9">Aktif Doluluk</text>
  </g>
</svg>