<svg xmlns="http://www.w3.org/2000/svg" viewBox="0 0 800 400" width="100%" style="max-width:800px;">
  <rect width="800" height="400" fill="#0d1117" rx="6"/>
  <text x="400.0" y="25" text-anchor="middle" font-size="16" font-weight="bold" fill="#c9d1d9">Son 30 Gün - Günlük Ortalama</text>

  <!-- Y grid -->
  <line x1="60" y1="320.0" x2="760" y2="320.0" stroke="#333" stroke-width="1" stroke-dasharray="4,4" opacity="0.5"/>
  <text x="50" y="320.0" text-anchor="end" dominant-baseline="middle" font-size="10" fill="#888">0%</text>
  <line x1="60" y1="264.0" x2="760" y2="264.0" stroke="#333" stroke-width="1" stroke-dasharray="4,4" opacity="0.5"/>
  <text x="50" y="264.0" text-anchor="end" dominant-baseline="middle" font-size="10" fill="#888">20%</text>
  <line x1="60" y1="208.0" x2="760" y2="208.0" stroke="#333" stroke-width="1" stroke-dasharray="4,4" opacity="0.5"/>
  <text x="50" y="208.0" text-anchor="end" dominant-baseline="middle" font-size="10" fill="#888">40%</text>
  <line x1="60" y1="152.0" x2="760" y2="152.0" stroke="#333" stroke-width="1" stroke-dasharray="4,4" opacity="0.5"/>
  <text x="50" y="152.0" text-anchor="end" dominant-baseline="middle" font-size="10" fill="#888">60%</text>
  <line x1="60" y1="96.0" x2="760" y2="96.0" stroke="#333" stroke-width="1" stroke-dasharray="4,4" opacity="0.5"/>
  <text x="50" y="96.0" text-anchor="end" dominant-baseline="middle" font-size="10" fill="#888">80%</text>
  <line x1="60" y1="40.0" x2="760" y2="40.0" stroke="#333" stroke-width="1" stroke-dasharray="4,4" opacity="0.5"/>
  <text x="50" y="40.0" text-anchor="end" dominant-baseline="middle" font-size="10" fill="#888">100%</text>

  <!-- Referans çizgileri -->
  <line x1="60" y1="236.0" x2="760" y2="236.0" stroke="#ef4444" stroke-width="1" stroke-dasharray="2,2" opacity="0.7"/>
  <text x="745" y="236.0" dominant-baseline="middle" font-size="9" fill="#ef4444">Kritik (30%)</text>
  <line x1="60" y1="180.0" x2="760" y2="180.0" stroke="#eab308" stroke-width="1" stroke-dasharray="2,2" opacity="0.7"/>
  <text x="745" y="180.0" dominant-baseline="middle" font-size="9" fill="#eab308">Normal (50%)</text>

  <!-- Toplam doluluk -->
  <polyline points="60.0,190.4 84.1,190.1 108.3,189.6 132.4,188.8 156.6,187.8 180.7,187.0 204.8,186.2 229.0,185.6 253.1,185.0 277.2,184.3 301.4,183.6 325.5,183.2 349.7,182.9 373.8,182.7 397.9,182.7 422.1,182.4 446.2,182.3 470.3,182.3 494.5,182.2 518.6,182.2 542.8,182.2 566.9,182.2 591.0,182.3 615.2,182.4 639.3,182.5 663.4,182.6 687.6,182.7 711.7,182.9 735.9,183.1 760.0,183.2" fill="none" stroke="#22c55e" stroke-width="2.5" stroke-linecap="round" stroke-linejoin="round"/>
  <polyline points="60.0,190.4 84.1,190.1 108.3,189.6 132.4,188.8 156.6,187.8 180.7,187.0 204.8,186.2 229.0,185.6 253.1,185.0 277.2,184.3 301.4,183.6 325.5,183.2 349.7,182.9 373.8,182.7 397.9,182.7 422.1,182.4 446.2,182.3 470.3,182.3 494.5,182.2 518.6,182.2 542.8,182.2 566.9,182.2 591.0,182.3 615.2,182.4 639.3,182.5 663.4,182.6 687.6,182.7 711.7,182.9 735.9,183.1 760.0,183.2" fill="none" stroke="#22c55e" stroke-width="5" opacity="0.1" stroke-linecap="round" stroke-linejoin="round"/>

  <!-- Aktif doluluk -->
  <polyline points="60.0,207.9 84.1,207.5 108.3,207.0 132.4,206.2 156.6,205.0 180.7,204.1 204.8,203.2 229.0,202.5 253.1,201.9 277.2,201.0 301.4,200.3 325.5,199.9 349.7,199.6 373.8,199.4 397.9,199.3 422.1,199.0 446.2,198.9 470.3,198.9 494.5,198.7 518.6,198.7 542.8,198.8 566.9,198.8 591.0,198.8 615.2,198.9 639.3,199.0 663.4,199.2 687.6,199.4 711.7,199.5 735.9,199.7 760.0,199.8" fill="none" stroke="#3b82f6" stroke-width="2.5" stroke-linecap="round" stroke-linejoin="round"/>
  <polyline points="60.0,207.9 84.1,207.5 108.3,207.0 132.4,206.2 156.6,205.0 180.7,204.1 204.8,203.2 229.0,202.5 253.1,201.9 277.2,201.0 301.4,200.3 325.5,199.9 349.7,199.6 373.8,199.4 397.9,199.3 422.1,199.0 446.2,198.9 470.3,198.9 494.5,198.7 518.6,198.7 542.8,198.8 566.9,198.8 591.0,198.8 615.2,198.9 639.3,199.0 663.4,199.2 687.6,199.4 711.7,199.5 735.9,199.7 760.0,199.8" fill="none" stroke="#3b82f6" stroke-width="5" opacity="0.1" stroke-linecap="round" stroke-linejoin="round"/>

  <!-- Noktalar -->
  <circle cx="60.0" cy="190.4" r="3" fill="#22c55e"/><circle cx="84.1" cy="190.1" r="3" fill="#22c55e"/><circle cx="108.3" cy="189.6" r="3" fill="#22c55e"/><circle cx="132.4" cy="188.8" r="3" fill="#22c55e"/><circle cx="156.6" cy="187.8" r="3" fill="#22c55e"/><circle cx="180.7" cy="187.0" r="3" fill="#22c55e"/><circle cx="204.8" cy="186.2" r="3" fill="#22c55e"/><circle cx="229.0" cy="185.6" r="3" fill="#22c55e"/><circle cx="253.1" cy="185.0" r="3" fill="#22c55e"/><circle cx="277.2" cy="184.3" r="3" fill="#22c55e"/><circle cx="301.4" cy="183.6" r="3" fill="#22c55e"/><circle cx="325.5" cy="183.2" r="3" fill="#22c55e"/><circle cx="349.7" cy="182.9" r="3" fill="#22c55e"/><circle cx="373.8" cy="182.7" r="3" fill="#22c55e"/><circle cx="397.9" cy="182.7" r="3" fill="#22c55e"/><circle cx="422.1" cy="182.4" r="3" fill="#22c55e"/><circle cx="446.2" cy="182.3" r="3" fill="#22c55e"/><circle cx="470.3" cy="182.3" r="3" fill="#22c55e"/><circle cx="494.5" cy="182.2" r="3" fill="#22c55e"/><circle cx="518.6" cy="182.2" r="3" fill="#22c55e"/><circle cx="542.8" cy="182.2" r="3" fill="#22c55e"/><circle cx="566.9" cy="182.2" r="3" fill="#22c55e"/><circle cx="591.0" cy="182.3" r="3" fill="#22c55e"/><circle cx="615.2" cy="182.4" r="3" fill="#22c55e"/><circle cx="639.3" cy="182.5" r="3" fill="#22c55e"/><circle cx="663.4" cy="182.6" r="3" fill="#22c55e"/><circle cx="687.6" cy="182.7" r="3" fill="#22c55e"/><circle cx="711.7" cy="182.9" r="3" fill="#22c55e"/><circle cx="735.9" cy="183.1" r="3" fill="#22c55e"/><circle cx="760.0" cy="183.2" r="3" fill="#22c55e"/>
  <circle cx="60.0" cy="207.9" r="3" fill="#3b82f6"/><circle cx="84.1" cy="207.5" r="3" fill="#3b82f6"/><circle cx="108.3" cy="207.0" r="3" fill="#3b82f6"/><circle cx="132.4" cy="206.2" r="3" fill="#3b82f6"/><circle cx="156.6" cy="205.0" r="3" fill="#3b82f6"/><circle cx="180.7" cy="204.1" r="3" fill="#3b82f6"/><circle cx="204.8" cy="203.2" r="3" fill="#3b82f6"/><circle cx="229.0" cy="202.5" r="3" fill="#3b82f6"/><circle cx="253.1" cy="201.9" r="3" fill="#3b82f6"/><circle cx="277.2" cy="201.0" r="3" fill="#3b82f6"/><circle cx="301.4" cy="200.3" r="3" fill="#3b82f6"/><circle cx="325.5" cy="199.9" r="3" fill="#3b82f6"/><circle cx="349.7" cy="199.6" r="3" fill="#3b82f6"/><circle cx="373.8" cy="199.4" r="3" fill="#3b82f6"/><circle cx="397.9" cy="199.3" r="3" fill="#3b82f6"/><circle cx="422.1" cy="199.0" r="3" fill="#3b82f6"/><circle cx="446.2" cy="198.9" r="3" fill="#3b82f6"/><circle cx="470.3" cy="198.9" r="3" fill="#3b82f6"/><circle cx="494.5" cy="198.7" r="3" fill="#3b82f6"/><circle cx="518.6" cy="198.7" r="3" fill="#3b82f6"/><circle cx="542.8" cy="198.8" r="3" fill="#3b82f6"/><circle cx="566.9" cy="198.8" r="3" fill="#3b82f6"/><circle cx="591.0" cy="198.8" r="3" fill="#3b82f6"/><circle cx="615.2" cy="198.9" r="3" fill="#3b82f6"/><circle cx="639.3" cy="199.0" r="3" fill="#3b82f6"/><circle cx="663.4" cy="199.2" r="3" fill="#3b82f6"/><circle cx="687.6" cy="199.4" r="3" fill="#3b82f6"/><circle cx="711.7" cy="199.5" r="3" fill="#3b82f6"/><circle cx="735.9" cy="199.7" r="3" fill="#3b82f6"/><circle cx="760.0" cy="199.8" r="3" fill="#3b82f6"/>

  <!-- X ekseni -->
  <text x="60.0" y="380" text-anchor="middle" font-size="10" fill="#888">20.05 00:00</text>
  <text x="180.7" y="380" text-anchor="middle" font-size="10" fill="#888">25.05 00:00</text>
  <text x="301.4" y="380" text-anchor="middle" font-size="10" fill="#888">30.05 00:00</text>
  <text x="422.1" y="380" text-anchor="middle" font-size="10" fill="#888">04.06 00:00</text>
  <text x="542.8" y="380" text-anchor="middle" font-size="10" fill="#888">09.06 00:00</text>
  <text x="663.4" y="380" text-anchor="middle" font-size="10" fill="#888">14.06 00:00</text>

  <!-- Legend -->
  <g transform="translate(60, 345)">
    <rect x="0" y="0" width="12" height="12" fill="#22c55e" rx="2"/>
    <text x="18" y="10" font-size="11" fill="#c9d1d9">Toplam Doluluk</text>
    <rect x="140" y="0" width="12" height="12" fill="#3b82f6" rx="2"/>
    <text x="158" y="10" font-size="11" fill="#c9d1d9">Aktif Doluluk</text>
  </g>
</svg>