<svg xmlns="http://www.w3.org/2000/svg" viewBox="0 0 900 400" width="100%" style="max-width:900px;">
  <rect width="900" height="400" fill="#0d1117" rx="6"/>
  <text x="450.0" y="25" text-anchor="middle" font-size="16" font-weight="bold" fill="#c9d1d9">Son 180 Gün - Günlük Ortalama</text>

  <!-- Y grid -->
  <line x1="60" y1="320.0" x2="860" y2="320.0" stroke="#333" stroke-width="1" stroke-dasharray="4,4" opacity="0.5"/>
  <text x="50" y="320.0" text-anchor="end" dominant-baseline="middle" font-size="10" fill="#888">0%</text>
  <line x1="60" y1="264.0" x2="860" y2="264.0" stroke="#333" stroke-width="1" stroke-dasharray="4,4" opacity="0.5"/>
  <text x="50" y="264.0" text-anchor="end" dominant-baseline="middle" font-size="10" fill="#888">20%</text>
  <line x1="60" y1="208.0" x2="860" y2="208.0" stroke="#333" stroke-width="1" stroke-dasharray="4,4" opacity="0.5"/>
  <text x="50" y="208.0" text-anchor="end" dominant-baseline="middle" font-size="10" fill="#888">40%</text>
  <line x1="60" y1="152.0" x2="860" y2="152.0" stroke="#333" stroke-width="1" stroke-dasharray="4,4" opacity="0.5"/>
  <text x="50" y="152.0" text-anchor="end" dominant-baseline="middle" font-size="10" fill="#888">60%</text>
  <line x1="60" y1="96.0" x2="860" y2="96.0" stroke="#333" stroke-width="1" stroke-dasharray="4,4" opacity="0.5"/>
  <text x="50" y="96.0" text-anchor="end" dominant-baseline="middle" font-size="10" fill="#888">80%</text>
  <line x1="60" y1="40.0" x2="860" y2="40.0" stroke="#333" stroke-width="1" stroke-dasharray="4,4" opacity="0.5"/>
  <text x="50" y="40.0" text-anchor="end" dominant-baseline="middle" font-size="10" fill="#888">100%</text>

  <!-- Referans çizgileri -->
  <line x1="60" y1="236.0" x2="860" y2="236.0" stroke="#ef4444" stroke-width="1" stroke-dasharray="2,2" opacity="0.7"/>
  <text x="845" y="236.0" dominant-baseline="middle" font-size="9" fill="#ef4444">Kritik (30%)</text>
  <line x1="60" y1="180.0" x2="860" y2="180.0" stroke="#eab308" stroke-width="1" stroke-dasharray="2,2" opacity="0.7"/>
  <text x="845" y="180.0" dominant-baseline="middle" font-size="9" fill="#eab308">Normal (50%)</text>

  <!-- Toplam doluluk -->
  <polyline points="60.0,193.2 82.9,192.5 105.7,192.0 128.6,191.6 151.4,191.1 174.3,190.8 197.1,190.4 220.0,190.1 242.9,189.6 265.7,188.8 288.6,187.8 311.4,187.0 334.3,186.2 357.1,185.6 380.0,185.0 402.9,184.3 425.7,183.6 448.6,183.2 471.4,182.9 494.3,182.7 517.1,182.7 540.0,182.4 562.9,182.3 585.7,182.3 608.6,182.2 631.4,182.2 654.3,182.2 677.1,182.2 700.0,182.3 722.9,182.4 745.7,182.5 768.6,182.6 791.4,182.7 814.3,182.9 837.1,183.1 860.0,183.2" fill="none" stroke="#22c55e" stroke-width="2.5" stroke-linecap="round" stroke-linejoin="round"/>
  <polyline points="60.0,193.2 82.9,192.5 105.7,192.0 128.6,191.6 151.4,191.1 174.3,190.8 197.1,190.4 220.0,190.1 242.9,189.6 265.7,188.8 288.6,187.8 311.4,187.0 334.3,186.2 357.1,185.6 380.0,185.0 402.9,184.3 425.7,183.6 448.6,183.2 471.4,182.9 494.3,182.7 517.1,182.7 540.0,182.4 562.9,182.3 585.7,182.3 608.6,182.2 631.4,182.2 654.3,182.2 677.1,182.2 700.0,182.3 722.9,182.4 745.7,182.5 768.6,182.6 791.4,182.7 814.3,182.9 837.1,183.1 860.0,183.2" fill="none" stroke="#22c55e" stroke-width="5" opacity="0.1" stroke-linecap="round" stroke-linejoin="round"/>

  <!-- Aktif doluluk -->
  <polyline points="60.0,211.1 82.9,210.2 105.7,209.7 128.6,209.2 151.4,208.7 174.3,208.3 197.1,207.9 220.0,207.5 242.9,207.0 265.7,206.2 288.6,205.0 311.4,204.1 334.3,203.2 357.1,202.5 380.0,201.9 402.9,201.0 425.7,200.3 448.6,199.9 471.4,199.6 494.3,199.4 517.1,199.3 540.0,199.0 562.9,198.9 585.7,198.9 608.6,198.7 631.4,198.7 654.3,198.8 677.1,198.8 700.0,198.8 722.9,198.9 745.7,199.0 768.6,199.2 791.4,199.4 814.3,199.5 837.1,199.7 860.0,199.8" fill="none" stroke="#3b82f6" stroke-width="2.5" stroke-linecap="round" stroke-linejoin="round"/>
  <polyline points="60.0,211.1 82.9,210.2 105.7,209.7 128.6,209.2 151.4,208.7 174.3,208.3 197.1,207.9 220.0,207.5 242.9,207.0 265.7,206.2 288.6,205.0 311.4,204.1 334.3,203.2 357.1,202.5 380.0,201.9 402.9,201.0 425.7,200.3 448.6,199.9 471.4,199.6 494.3,199.4 517.1,199.3 540.0,199.0 562.9,198.9 585.7,198.9 608.6,198.7 631.4,198.7 654.3,198.8 677.1,198.8 700.0,198.8 722.9,198.9 745.7,199.0 768.6,199.2 791.4,199.4 814.3,199.5 837.1,199.7 860.0,199.8" fill="none" stroke="#3b82f6" stroke-width="5" opacity="0.1" stroke-linecap="round" stroke-linejoin="round"/>

  <!-- Noktalar -->
  <circle cx="60.0" cy="193.2" r="3" fill="#22c55e"/><circle cx="82.9" cy="192.5" r="3" fill="#22c55e"/><circle cx="105.7" cy="192.0" r="3" fill="#22c55e"/><circle cx="128.6" cy="191.6" r="3" fill="#22c55e"/><circle cx="151.4" cy="191.1" r="3" fill="#22c55e"/><circle cx="174.3" cy="190.8" r="3" fill="#22c55e"/><circle cx="197.1" cy="190.4" r="3" fill="#22c55e"/><circle cx="220.0" cy="190.1" r="3" fill="#22c55e"/><circle cx="242.9" cy="189.6" r="3" fill="#22c55e"/><circle cx="265.7" cy="188.8" r="3" fill="#22c55e"/><circle cx="288.6" cy="187.8" r="3" fill="#22c55e"/><circle cx="311.4" cy="187.0" r="3" fill="#22c55e"/><circle cx="334.3" cy="186.2" r="3" fill="#22c55e"/><circle cx="357.1" cy="185.6" r="3" fill="#22c55e"/><circle cx="380.0" cy="185.0" r="3" fill="#22c55e"/><circle cx="402.9" cy="184.3" r="3" fill="#22c55e"/><circle cx="425.7" cy="183.6" r="3" fill="#22c55e"/><circle cx="448.6" cy="183.2" r="3" fill="#22c55e"/><circle cx="471.4" cy="182.9" r="3" fill="#22c55e"/><circle cx="494.3" cy="182.7" r="3" fill="#22c55e"/><circle cx="517.1" cy="182.7" r="3" fill="#22c55e"/><circle cx="540.0" cy="182.4" r="3" fill="#22c55e"/><circle cx="562.9" cy="182.3" r="3" fill="#22c55e"/><circle cx="585.7" cy="182.3" r="3" fill="#22c55e"/><circle cx="608.6" cy="182.2" r="3" fill="#22c55e"/><circle cx="631.4" cy="182.2" r="3" fill="#22c55e"/><circle cx="654.3" cy="182.2" r="3" fill="#22c55e"/><circle cx="677.1" cy="182.2" r="3" fill="#22c55e"/><circle cx="700.0" cy="182.3" r="3" fill="#22c55e"/><circle cx="722.9" cy="182.4" r="3" fill="#22c55e"/><circle cx="745.7" cy="182.5" r="3" fill="#22c55e"/><circle cx="768.6" cy="182.6" r="3" fill="#22c55e"/><circle cx="791.4" cy="182.7" r="3" fill="#22c55e"/><circle cx="814.3" cy="182.9" r="3" fill="#22c55e"/><circle cx="837.1" cy="183.1" r="3" fill="#22c55e"/><circle cx="860.0" cy="183.2" r="3" fill="#22c55e"/>
  <circle cx="60.0" cy="211.1" r="3" fill="#3b82f6"/><circle cx="82.9" cy="210.2" r="3" fill="#3b82f6"/><circle cx="105.7" cy="209.7" r="3" fill="#3b82f6"/><circle cx="128.6" cy="209.2" r="3" fill="#3b82f6"/><circle cx="151.4" cy="208.7" r="3" fill="#3b82f6"/><circle cx="174.3" cy="208.3" r="3" fill="#3b82f6"/><circle cx="197.1" cy="207.9" r="3" fill="#3b82f6"/><circle cx="220.0" cy="207.5" r="3" fill="#3b82f6"/><circle cx="242.9" cy="207.0" r="3" fill="#3b82f6"/><circle cx="265.7" cy="206.2" r="3" fill="#3b82f6"/><circle cx="288.6" cy="205.0" r="3" fill="#3b82f6"/><circle cx="311.4" cy="204.1" r="3" fill="#3b82f6"/><circle cx="334.3" cy="203.2" r="3" fill="#3b82f6"/><circle cx="357.1" cy="202.5" r="3" fill="#3b82f6"/><circle cx="380.0" cy="201.9" r="3" fill="#3b82f6"/><circle cx="402.9" cy="201.0" r="3" fill="#3b82f6"/><circle cx="425.7" cy="200.3" r="3" fill="#3b82f6"/><circle cx="448.6" cy="199.9" r="3" fill="#3b82f6"/><circle cx="471.4" cy="199.6" r="3" fill="#3b82f6"/><circle cx="494.3" cy="199.4" r="3" fill="#3b82f6"/><circle cx="517.1" cy="199.3" r="3" fill="#3b82f6"/><circle cx="540.0" cy="199.0" r="3" fill="#3b82f6"/><circle cx="562.9" cy="198.9" r="3" fill="#3b82f6"/><circle cx="585.7" cy="198.9" r="3" fill="#3b82f6"/><circle cx="608.6" cy="198.7" r="3" fill="#3b82f6"/><circle cx="631.4" cy="198.7" r="3" fill="#3b82f6"/><circle cx="654.3" cy="198.8" r="3" fill="#3b82f6"/><circle cx="677.1" cy="198.8" r="3" fill="#3b82f6"/><circle cx="700.0" cy="198.8" r="3" fill="#3b82f6"/><circle cx="722.9" cy="198.9" r="3" fill="#3b82f6"/><circle cx="745.7" cy="199.0" r="3" fill="#3b82f6"/><circle cx="768.6" cy="199.2" r="3" fill="#3b82f6"/><circle cx="791.4" cy="199.4" r="3" fill="#3b82f6"/><circle cx="814.3" cy="199.5" r="3" fill="#3b82f6"/><circle cx="837.1" cy="199.7" r="3" fill="#3b82f6"/><circle cx="860.0" cy="199.8" r="3" fill="#3b82f6"/>

  <!-- X ekseni -->
  <text x="60.0" y="380" text-anchor="middle" font-size="10" fill="#888">14.05.2026</text>
  <text x="197.1" y="380" text-anchor="middle" font-size="10" fill="#888">20.05.2026</text>
  <text x="334.3" y="380" text-anchor="middle" font-size="10" fill="#888">26.05.2026</text>
  <text x="471.4" y="380" text-anchor="middle" font-size="10" fill="#888">01.06.2026</text>
  <text x="608.6" y="380" text-anchor="middle" font-size="10" fill="#888">07.06.2026</text>
  <text x="745.7" y="380" text-anchor="middle" font-size="10" fill="#888">13.06.2026</text>

  <!-- Legend -->
  <g transform="translate(60, 345)">
    <rect x="0" y="0" width="12" height="12" fill="#22c55e" rx="2"/>
    <text x="18" y="10" font-size="11" fill="#c9d1d9">Toplam Doluluk</text>
    <rect x="140" y="0" width="12" height="12" fill="#3b82f6" rx="2"/>
    <text x="158" y="10" font-size="11" fill="#c9d1d9">Aktif Doluluk</text>
  </g>
</svg>