<svg xmlns="http://www.w3.org/2000/svg" viewBox="0 0 900 400" width="100%" style="max-width:900px;">
  <rect width="900" height="400" fill="#0d1117" rx="6"/>
  <text x="450.0" y="25" text-anchor="middle" font-size="16" font-weight="bold" fill="#c9d1d9">Son 360 Gün - Günlük Ortalama</text>

  <!-- Y grid -->
  <line x1="60" y1="320.0" x2="860" y2="320.0" stroke="#333" stroke-width="1" stroke-dasharray="4,4" opacity="0.5"/>
  <text x="50" y="320.0" text-anchor="end" dominant-baseline="middle" font-size="10" fill="#888">0%</text>
  <line x1="60" y1="264.0" x2="860" y2="264.0" stroke="#333" stroke-width="1" stroke-dasharray="4,4" opacity="0.5"/>
  <text x="50" y="264.0" text-anchor="end" dominant-baseline="middle" font-size="10" fill="#888">20%</text>
  <line x1="60" y1="208.0" x2="860" y2="208.0" stroke="#333" stroke-width="1" stroke-dasharray="4,4" opacity="0.5"/>
  <text x="50" y="208.0" text-anchor="end" dominant-baseline="middle" font-size="10" fill="#888">40%</text>
  <line x1="60" y1="152.0" x2="860" y2="152.0" stroke="#333" stroke-width="1" stroke-dasharray="4,4" opacity="0.5"/>
  <text x="50" y="152.0" text-anchor="end" dominant-baseline="middle" font-size="10" fill="#888">60%</text>
  <line x1="60" y1="96.0" x2="860" y2="96.0" stroke="#333" stroke-width="1" stroke-dasharray="4,4" opacity="0.5"/>
  <text x="50" y="96.0" text-anchor="end" dominant-baseline="middle" font-size="10" fill="#888">80%</text>
  <line x1="60" y1="40.0" x2="860" y2="40.0" stroke="#333" stroke-width="1" stroke-dasharray="4,4" opacity="0.5"/>
  <text x="50" y="40.0" text-anchor="end" dominant-baseline="middle" font-size="10" fill="#888">100%</text>

  <!-- Referans çizgileri -->
  <line x1="60" y1="236.0" x2="860" y2="236.0" stroke="#ef4444" stroke-width="1" stroke-dasharray="2,2" opacity="0.7"/>
  <text x="865" y="236.0" dominant-baseline="middle" font-size="9" fill="#ef4444">Kritik (30%)</text>
  <line x1="60" y1="180.0" x2="860" y2="180.0" stroke="#eab308" stroke-width="1" stroke-dasharray="2,2" opacity="0.7"/>
  <text x="865" y="180.0" dominant-baseline="middle" font-size="9" fill="#eab308">Normal (50%)</text>

  <!-- Toplam doluluk -->
  <polyline points="60.0,193.2 148.9,192.5 237.8,192.0 326.7,191.6 415.6,191.1 504.4,190.8 593.3,190.4 682.2,190.1 771.1,189.6 860.0,188.8" fill="none" stroke="#22c55e" stroke-width="2.5" stroke-linecap="round" stroke-linejoin="round"/>
  <polyline points="60.0,193.2 148.9,192.5 237.8,192.0 326.7,191.6 415.6,191.1 504.4,190.8 593.3,190.4 682.2,190.1 771.1,189.6 860.0,188.8" fill="none" stroke="#22c55e" stroke-width="5" opacity="0.1" stroke-linecap="round" stroke-linejoin="round"/>

  <!-- Aktif doluluk -->
  <polyline points="60.0,211.1 148.9,210.2 237.8,209.7 326.7,209.2 415.6,208.7 504.4,208.3 593.3,207.9 682.2,207.5 771.1,207.0 860.0,206.2" fill="none" stroke="#3b82f6" stroke-width="2.5" stroke-linecap="round" stroke-linejoin="round"/>
  <polyline points="60.0,211.1 148.9,210.2 237.8,209.7 326.7,209.2 415.6,208.7 504.4,208.3 593.3,207.9 682.2,207.5 771.1,207.0 860.0,206.2" fill="none" stroke="#3b82f6" stroke-width="5" opacity="0.1" stroke-linecap="round" stroke-linejoin="round"/>

  <!-- Noktalar -->
  <circle cx="60.0" cy="193.2" r="3" fill="#22c55e"/><circle cx="148.9" cy="192.5" r="3" fill="#22c55e"/><circle cx="237.8" cy="192.0" r="3" fill="#22c55e"/><circle cx="326.7" cy="191.6" r="3" fill="#22c55e"/><circle cx="415.6" cy="191.1" r="3" fill="#22c55e"/><circle cx="504.4" cy="190.8" r="3" fill="#22c55e"/><circle cx="593.3" cy="190.4" r="3" fill="#22c55e"/><circle cx="682.2" cy="190.1" r="3" fill="#22c55e"/><circle cx="771.1" cy="189.6" r="3" fill="#22c55e"/><circle cx="860.0" cy="188.8" r="3" fill="#22c55e"/>
  <circle cx="60.0" cy="211.1" r="3" fill="#3b82f6"/><circle cx="148.9" cy="210.2" r="3" fill="#3b82f6"/><circle cx="237.8" cy="209.7" r="3" fill="#3b82f6"/><circle cx="326.7" cy="209.2" r="3" fill="#3b82f6"/><circle cx="415.6" cy="208.7" r="3" fill="#3b82f6"/><circle cx="504.4" cy="208.3" r="3" fill="#3b82f6"/><circle cx="593.3" cy="207.9" r="3" fill="#3b82f6"/><circle cx="682.2" cy="207.5" r="3" fill="#3b82f6"/><circle cx="771.1" cy="207.0" r="3" fill="#3b82f6"/><circle cx="860.0" cy="206.2" r="3" fill="#3b82f6"/>

  <!-- X ekseni -->
  <text x="60.0" y="380" text-anchor="middle" font-size="10" fill="#888">14.05 00:00</text>
  <text x="148.9" y="380" text-anchor="middle" font-size="10" fill="#888">15.05 00:00</text>
  <text x="237.8" y="380" text-anchor="middle" font-size="10" fill="#888">16.05 00:00</text>
  <text x="326.7" y="380" text-anchor="middle" font-size="10" fill="#888">17.05 00:00</text>
  <text x="415.6" y="380" text-anchor="middle" font-size="10" fill="#888">18.05 00:00</text>
  <text x="504.4" y="380" text-anchor="middle" font-size="10" fill="#888">19.05 00:00</text>
  <text x="593.3" y="380" text-anchor="middle" font-size="10" fill="#888">20.05 00:00</text>
  <text x="682.2" y="380" text-anchor="middle" font-size="10" fill="#888">21.05 00:00</text>
  <text x="771.1" y="380" text-anchor="middle" font-size="10" fill="#888">22.05 00:00</text>
  <text x="860.0" y="380" text-anchor="middle" font-size="10" fill="#888">23.05 00:00</text>

  <!-- Legend -->
  <g transform="translate(60, 345)">
    <rect x="0" y="0" width="12" height="12" fill="#22c55e" rx="2"/>
    <text x="18" y="10" font-size="11" fill="#c9d1d9">Toplam Doluluk</text>
    <rect x="140" y="0" width="12" height="12" fill="#3b82f6" rx="2"/>
    <text x="158" y="10" font-size="11" fill="#c9d1d9">Aktif Doluluk</text>
  </g>
</svg>