<svg xmlns="http://www.w3.org/2000/svg" viewBox="0 0 800 400" width="100%" style="max-width:800px;">
  <rect width="800" height="400" fill="#0d1117" rx="6"/>
  <text x="400.0" y="25" text-anchor="middle" font-size="16" font-weight="bold" fill="#c9d1d9">Son 90 Gün - Günlük Ortalama</text>

  <!-- Y grid -->
  <line x1="60" y1="320.0" x2="760" y2="320.0" stroke="#333" stroke-width="1" stroke-dasharray="4,4" opacity="0.5"/>
  <text x="50" y="320.0" text-anchor="end" dominant-baseline="middle" font-size="10" fill="#888">0%</text>
  <line x1="60" y1="264.0" x2="760" y2="264.0" stroke="#333" stroke-width="1" stroke-dasharray="4,4" opacity="0.5"/>
  <text x="50" y="264.0" text-anchor="end" dominant-baseline="middle" font-size="10" fill="#888">20%</text>
  <line x1="60" y1="208.0" x2="760" y2="208.0" stroke="#333" stroke-width="1" stroke-dasharray="4,4" opacity="0.5"/>
  <text x="50" y="208.0" text-anchor="end" dominant-baseline="middle" font-size="10" fill="#888">40%</text>
  <line x1="60" y1="152.0" x2="760" y2="152.0" stroke="#333" stroke-width="1" stroke-dasharray="4,4" opacity="0.5"/>
  <text x="50" y="152.0" text-anchor="end" dominant-baseline="middle" font-size="10" fill="#888">60%</text>
  <line x1="60" y1="96.0" x2="760" y2="96.0" stroke="#333" stroke-width="1" stroke-dasharray="4,4" opacity="0.5"/>
  <text x="50" y="96.0" text-anchor="end" dominant-baseline="middle" font-size="10" fill="#888">80%</text>
  <line x1="60" y1="40.0" x2="760" y2="40.0" stroke="#333" stroke-width="1" stroke-dasharray="4,4" opacity="0.5"/>
  <text x="50" y="40.0" text-anchor="end" dominant-baseline="middle" font-size="10" fill="#888">100%</text>

  <!-- Referans çizgileri -->
  <line x1="60" y1="236.0" x2="760" y2="236.0" stroke="#ef4444" stroke-width="1" stroke-dasharray="2,2" opacity="0.7"/>
  <text x="745" y="236.0" dominant-baseline="middle" font-size="9" fill="#ef4444">Kritik (30%)</text>
  <line x1="60" y1="180.0" x2="760" y2="180.0" stroke="#eab308" stroke-width="1" stroke-dasharray="2,2" opacity="0.7"/>
  <text x="745" y="180.0" dominant-baseline="middle" font-size="9" fill="#eab308">Normal (50%)</text>

  <!-- Toplam doluluk -->
  <polyline points="60.0,193.2 72.7,192.5 85.5,192.0 98.2,191.6 110.9,191.1 123.6,190.8 136.4,190.4 149.1,190.1 161.8,189.6 174.5,188.8 187.3,187.8 200.0,187.0 212.7,186.2 225.5,185.6 238.2,185.0 250.9,184.3 263.6,183.6 276.4,183.2 289.1,182.9 301.8,182.7 314.5,182.7 327.3,182.4 340.0,182.3 352.7,182.3 365.5,182.2 378.2,182.2 390.9,182.2 403.6,182.2 416.4,182.3 429.1,182.4 441.8,182.5 454.5,182.6 467.3,182.7 480.0,182.9 492.7,183.1 505.5,183.2 518.2,183.3 530.9,183.4 543.6,183.5 556.4,183.7 569.1,183.9 581.8,184.2 594.5,184.4 607.3,184.7 620.0,185.0 632.7,185.3 645.5,185.6 658.2,186.0 670.9,186.3 683.6,186.6 696.4,187.0 709.1,187.3 721.8,187.6 734.5,188.0 747.3,188.3 760.0,188.6" fill="none" stroke="#22c55e" stroke-width="2.5" stroke-linecap="round" stroke-linejoin="round"/>
  <polyline points="60.0,193.2 72.7,192.5 85.5,192.0 98.2,191.6 110.9,191.1 123.6,190.8 136.4,190.4 149.1,190.1 161.8,189.6 174.5,188.8 187.3,187.8 200.0,187.0 212.7,186.2 225.5,185.6 238.2,185.0 250.9,184.3 263.6,183.6 276.4,183.2 289.1,182.9 301.8,182.7 314.5,182.7 327.3,182.4 340.0,182.3 352.7,182.3 365.5,182.2 378.2,182.2 390.9,182.2 403.6,182.2 416.4,182.3 429.1,182.4 441.8,182.5 454.5,182.6 467.3,182.7 480.0,182.9 492.7,183.1 505.5,183.2 518.2,183.3 530.9,183.4 543.6,183.5 556.4,183.7 569.1,183.9 581.8,184.2 594.5,184.4 607.3,184.7 620.0,185.0 632.7,185.3 645.5,185.6 658.2,186.0 670.9,186.3 683.6,186.6 696.4,187.0 709.1,187.3 721.8,187.6 734.5,188.0 747.3,188.3 760.0,188.6" fill="none" stroke="#22c55e" stroke-width="5" opacity="0.1" stroke-linecap="round" stroke-linejoin="round"/>

  <!-- Aktif doluluk -->
  <polyline points="60.0,211.1 72.7,210.2 85.5,209.7 98.2,209.2 110.9,208.7 123.6,208.3 136.4,207.9 149.1,207.5 161.8,207.0 174.5,206.2 187.3,205.0 200.0,204.1 212.7,203.2 225.5,202.5 238.2,201.9 250.9,201.0 263.6,200.3 276.4,199.9 289.1,199.6 301.8,199.4 314.5,199.3 327.3,199.0 340.0,198.9 352.7,198.9 365.5,198.7 378.2,198.7 390.9,198.8 403.6,198.8 416.4,198.8 429.1,198.9 441.8,199.0 454.5,199.2 467.3,199.4 480.0,199.5 492.7,199.7 505.5,199.8 518.2,200.0 530.9,200.1 543.6,200.2 556.4,200.4 569.1,200.7 581.8,201.0 594.5,201.3 607.3,201.6 620.0,201.8 632.7,202.2 645.5,202.6 658.2,203.0 670.9,203.3 683.6,203.7 696.4,204.1 709.1,204.4 721.8,204.8 734.5,205.2 747.3,205.5 760.0,205.9" fill="none" stroke="#3b82f6" stroke-width="2.5" stroke-linecap="round" stroke-linejoin="round"/>
  <polyline points="60.0,211.1 72.7,210.2 85.5,209.7 98.2,209.2 110.9,208.7 123.6,208.3 136.4,207.9 149.1,207.5 161.8,207.0 174.5,206.2 187.3,205.0 200.0,204.1 212.7,203.2 225.5,202.5 238.2,201.9 250.9,201.0 263.6,200.3 276.4,199.9 289.1,199.6 301.8,199.4 314.5,199.3 327.3,199.0 340.0,198.9 352.7,198.9 365.5,198.7 378.2,198.7 390.9,198.8 403.6,198.8 416.4,198.8 429.1,198.9 441.8,199.0 454.5,199.2 467.3,199.4 480.0,199.5 492.7,199.7 505.5,199.8 518.2,200.0 530.9,200.1 543.6,200.2 556.4,200.4 569.1,200.7 581.8,201.0 594.5,201.3 607.3,201.6 620.0,201.8 632.7,202.2 645.5,202.6 658.2,203.0 670.9,203.3 683.6,203.7 696.4,204.1 709.1,204.4 721.8,204.8 734.5,205.2 747.3,205.5 760.0,205.9" fill="none" stroke="#3b82f6" stroke-width="5" opacity="0.1" stroke-linecap="round" stroke-linejoin="round"/>

  <!-- Noktalar -->
  <circle cx="60.0" cy="193.2" r="3" fill="#22c55e"/><circle cx="72.7" cy="192.5" r="3" fill="#22c55e"/><circle cx="85.5" cy="192.0" r="3" fill="#22c55e"/><circle cx="98.2" cy="191.6" r="3" fill="#22c55e"/><circle cx="110.9" cy="191.1" r="3" fill="#22c55e"/><circle cx="123.6" cy="190.8" r="3" fill="#22c55e"/><circle cx="136.4" cy="190.4" r="3" fill="#22c55e"/><circle cx="149.1" cy="190.1" r="3" fill="#22c55e"/><circle cx="161.8" cy="189.6" r="3" fill="#22c55e"/><circle cx="174.5" cy="188.8" r="3" fill="#22c55e"/><circle cx="187.3" cy="187.8" r="3" fill="#22c55e"/><circle cx="200.0" cy="187.0" r="3" fill="#22c55e"/><circle cx="212.7" cy="186.2" r="3" fill="#22c55e"/><circle cx="225.5" cy="185.6" r="3" fill="#22c55e"/><circle cx="238.2" cy="185.0" r="3" fill="#22c55e"/><circle cx="250.9" cy="184.3" r="3" fill="#22c55e"/><circle cx="263.6" cy="183.6" r="3" fill="#22c55e"/><circle cx="276.4" cy="183.2" r="3" fill="#22c55e"/><circle cx="289.1" cy="182.9" r="3" fill="#22c55e"/><circle cx="301.8" cy="182.7" r="3" fill="#22c55e"/><circle cx="314.5" cy="182.7" r="3" fill="#22c55e"/><circle cx="327.3" cy="182.4" r="3" fill="#22c55e"/><circle cx="340.0" cy="182.3" r="3" fill="#22c55e"/><circle cx="352.7" cy="182.3" r="3" fill="#22c55e"/><circle cx="365.5" cy="182.2" r="3" fill="#22c55e"/><circle cx="378.2" cy="182.2" r="3" fill="#22c55e"/><circle cx="390.9" cy="182.2" r="3" fill="#22c55e"/><circle cx="403.6" cy="182.2" r="3" fill="#22c55e"/><circle cx="416.4" cy="182.3" r="3" fill="#22c55e"/><circle cx="429.1" cy="182.4" r="3" fill="#22c55e"/><circle cx="441.8" cy="182.5" r="3" fill="#22c55e"/><circle cx="454.5" cy="182.6" r="3" fill="#22c55e"/><circle cx="467.3" cy="182.7" r="3" fill="#22c55e"/><circle cx="480.0" cy="182.9" r="3" fill="#22c55e"/><circle cx="492.7" cy="183.1" r="3" fill="#22c55e"/><circle cx="505.5" cy="183.2" r="3" fill="#22c55e"/><circle cx="518.2" cy="183.3" r="3" fill="#22c55e"/><circle cx="530.9" cy="183.4" r="3" fill="#22c55e"/><circle cx="543.6" cy="183.5" r="3" fill="#22c55e"/><circle cx="556.4" cy="183.7" r="3" fill="#22c55e"/><circle cx="569.1" cy="183.9" r="3" fill="#22c55e"/><circle cx="581.8" cy="184.2" r="3" fill="#22c55e"/><circle cx="594.5" cy="184.4" r="3" fill="#22c55e"/><circle cx="607.3" cy="184.7" r="3" fill="#22c55e"/><circle cx="620.0" cy="185.0" r="3" fill="#22c55e"/><circle cx="632.7" cy="185.3" r="3" fill="#22c55e"/><circle cx="645.5" cy="185.6" r="3" fill="#22c55e"/><circle cx="658.2" cy="186.0" r="3" fill="#22c55e"/><circle cx="670.9" cy="186.3" r="3" fill="#22c55e"/><circle cx="683.6" cy="186.6" r="3" fill="#22c55e"/><circle cx="696.4" cy="187.0" r="3" fill="#22c55e"/><circle cx="709.1" cy="187.3" r="3" fill="#22c55e"/><circle cx="721.8" cy="187.6" r="3" fill="#22c55e"/><circle cx="734.5" cy="188.0" r="3" fill="#22c55e"/><circle cx="747.3" cy="188.3" r="3" fill="#22c55e"/><circle cx="760.0" cy="188.6" r="3" fill="#22c55e"/>
  <circle cx="60.0" cy="211.1" r="3" fill="#3b82f6"/><circle cx="72.7" cy="210.2" r="3" fill="#3b82f6"/><circle cx="85.5" cy="209.7" r="3" fill="#3b82f6"/><circle cx="98.2" cy="209.2" r="3" fill="#3b82f6"/><circle cx="110.9" cy="208.7" r="3" fill="#3b82f6"/><circle cx="123.6" cy="208.3" r="3" fill="#3b82f6"/><circle cx="136.4" cy="207.9" r="3" fill="#3b82f6"/><circle cx="149.1" cy="207.5" r="3" fill="#3b82f6"/><circle cx="161.8" cy="207.0" r="3" fill="#3b82f6"/><circle cx="174.5" cy="206.2" r="3" fill="#3b82f6"/><circle cx="187.3" cy="205.0" r="3" fill="#3b82f6"/><circle cx="200.0" cy="204.1" r="3" fill="#3b82f6"/><circle cx="212.7" cy="203.2" r="3" fill="#3b82f6"/><circle cx="225.5" cy="202.5" r="3" fill="#3b82f6"/><circle cx="238.2" cy="201.9" r="3" fill="#3b82f6"/><circle cx="250.9" cy="201.0" r="3" fill="#3b82f6"/><circle cx="263.6" cy="200.3" r="3" fill="#3b82f6"/><circle cx="276.4" cy="199.9" r="3" fill="#3b82f6"/><circle cx="289.1" cy="199.6" r="3" fill="#3b82f6"/><circle cx="301.8" cy="199.4" r="3" fill="#3b82f6"/><circle cx="314.5" cy="199.3" r="3" fill="#3b82f6"/><circle cx="327.3" cy="199.0" r="3" fill="#3b82f6"/><circle cx="340.0" cy="198.9" r="3" fill="#3b82f6"/><circle cx="352.7" cy="198.9" r="3" fill="#3b82f6"/><circle cx="365.5" cy="198.7" r="3" fill="#3b82f6"/><circle cx="378.2" cy="198.7" r="3" fill="#3b82f6"/><circle cx="390.9" cy="198.8" r="3" fill="#3b82f6"/><circle cx="403.6" cy="198.8" r="3" fill="#3b82f6"/><circle cx="416.4" cy="198.8" r="3" fill="#3b82f6"/><circle cx="429.1" cy="198.9" r="3" fill="#3b82f6"/><circle cx="441.8" cy="199.0" r="3" fill="#3b82f6"/><circle cx="454.5" cy="199.2" r="3" fill="#3b82f6"/><circle cx="467.3" cy="199.4" r="3" fill="#3b82f6"/><circle cx="480.0" cy="199.5" r="3" fill="#3b82f6"/><circle cx="492.7" cy="199.7" r="3" fill="#3b82f6"/><circle cx="505.5" cy="199.8" r="3" fill="#3b82f6"/><circle cx="518.2" cy="200.0" r="3" fill="#3b82f6"/><circle cx="530.9" cy="200.1" r="3" fill="#3b82f6"/><circle cx="543.6" cy="200.2" r="3" fill="#3b82f6"/><circle cx="556.4" cy="200.4" r="3" fill="#3b82f6"/><circle cx="569.1" cy="200.7" r="3" fill="#3b82f6"/><circle cx="581.8" cy="201.0" r="3" fill="#3b82f6"/><circle cx="594.5" cy="201.3" r="3" fill="#3b82f6"/><circle cx="607.3" cy="201.6" r="3" fill="#3b82f6"/><circle cx="620.0" cy="201.8" r="3" fill="#3b82f6"/><circle cx="632.7" cy="202.2" r="3" fill="#3b82f6"/><circle cx="645.5" cy="202.6" r="3" fill="#3b82f6"/><circle cx="658.2" cy="203.0" r="3" fill="#3b82f6"/><circle cx="670.9" cy="203.3" r="3" fill="#3b82f6"/><circle cx="683.6" cy="203.7" r="3" fill="#3b82f6"/><circle cx="696.4" cy="204.1" r="3" fill="#3b82f6"/><circle cx="709.1" cy="204.4" r="3" fill="#3b82f6"/><circle cx="721.8" cy="204.8" r="3" fill="#3b82f6"/><circle cx="734.5" cy="205.2" r="3" fill="#3b82f6"/><circle cx="747.3" cy="205.5" r="3" fill="#3b82f6"/><circle cx="760.0" cy="205.9" r="3" fill="#3b82f6"/>

  <!-- X ekseni -->
  <text x="60.0" y="380" text-anchor="middle" font-size="10" fill="#888">14.05.2026</text>
  <text x="174.5" y="380" text-anchor="middle" font-size="10" fill="#888">23.05.2026</text>
  <text x="289.1" y="380" text-anchor="middle" font-size="10" fill="#888">01.06.2026</text>
  <text x="403.6" y="380" text-anchor="middle" font-size="10" fill="#888">10.06.2026</text>
  <text x="518.2" y="380" text-anchor="middle" font-size="10" fill="#888">19.06.2026</text>
  <text x="632.7" y="380" text-anchor="middle" font-size="10" fill="#888">28.06.2026</text>
  <text x="747.3" y="380" text-anchor="middle" font-size="10" fill="#888">07.07.2026</text>

  <!-- Legend -->
  <g transform="translate(60, 345)">
    <rect x="0" y="0" width="12" height="12" fill="#22c55e" rx="2"/>
    <text x="18" y="10" font-size="11" fill="#c9d1d9">Toplam Doluluk</text>
    <rect x="140" y="0" width="12" height="12" fill="#3b82f6" rx="2"/>
    <text x="158" y="10" font-size="11" fill="#c9d1d9">Aktif Doluluk</text>
  </g>
</svg>