<svg xmlns="http://www.w3.org/2000/svg" viewBox="0 0 900 400" width="100%" style="max-width:900px;">
  <rect width="900" height="400" fill="#0d1117" rx="6"/>
  <text x="450.0" y="25" text-anchor="middle" font-size="16" font-weight="bold" fill="#c9d1d9">Son 360 Gün - Günlük Ortalama</text>

  <!-- Y grid -->
  <line x1="60" y1="320.0" x2="860" y2="320.0" stroke="#333" stroke-width="1" stroke-dasharray="4,4" opacity="0.5"/>
  <text x="50" y="320.0" text-anchor="end" dominant-baseline="middle" font-size="10" fill="#888">0%</text>
  <line x1="60" y1="264.0" x2="860" y2="264.0" stroke="#333" stroke-width="1" stroke-dasharray="4,4" opacity="0.5"/>
  <text x="50" y="264.0" text-anchor="end" dominant-baseline="middle" font-size="10" fill="#888">20%</text>
  <line x1="60" y1="208.0" x2="860" y2="208.0" stroke="#333" stroke-width="1" stroke-dasharray="4,4" opacity="0.5"/>
  <text x="50" y="208.0" text-anchor="end" dominant-baseline="middle" font-size="10" fill="#888">40%</text>
  <line x1="60" y1="152.0" x2="860" y2="152.0" stroke="#333" stroke-width="1" stroke-dasharray="4,4" opacity="0.5"/>
  <text x="50" y="152.0" text-anchor="end" dominant-baseline="middle" font-size="10" fill="#888">60%</text>
  <line x1="60" y1="96.0" x2="860" y2="96.0" stroke="#333" stroke-width="1" stroke-dasharray="4,4" opacity="0.5"/>
  <text x="50" y="96.0" text-anchor="end" dominant-baseline="middle" font-size="10" fill="#888">80%</text>
  <line x1="60" y1="40.0" x2="860" y2="40.0" stroke="#333" stroke-width="1" stroke-dasharray="4,4" opacity="0.5"/>
  <text x="50" y="40.0" text-anchor="end" dominant-baseline="middle" font-size="10" fill="#888">100%</text>

  <!-- Referans çizgileri -->
  <line x1="60" y1="236.0" x2="860" y2="236.0" stroke="#ef4444" stroke-width="1" stroke-dasharray="2,2" opacity="0.7"/>
  <text x="845" y="236.0" dominant-baseline="middle" font-size="9" fill="#ef4444">Kritik (30%)</text>
  <line x1="60" y1="180.0" x2="860" y2="180.0" stroke="#eab308" stroke-width="1" stroke-dasharray="2,2" opacity="0.7"/>
  <text x="845" y="180.0" dominant-baseline="middle" font-size="9" fill="#eab308">Normal (50%)</text>

  <!-- Toplam doluluk -->
  <polyline points="60.0,193.2 75.1,192.5 90.2,192.0 105.3,191.6 120.4,191.1 135.5,190.8 150.6,190.4 165.7,190.1 180.8,189.6 195.8,188.8 210.9,187.8 226.0,187.0 241.1,186.2 256.2,185.6 271.3,185.0 286.4,184.3 301.5,183.6 316.6,183.2 331.7,182.9 346.8,182.7 361.9,182.7 377.0,182.4 392.1,182.3 407.2,182.3 422.3,182.2 437.4,182.2 452.5,182.2 467.5,182.2 482.6,182.3 497.7,182.4 512.8,182.5 527.9,182.6 543.0,182.7 558.1,182.9 573.2,183.1 588.3,183.2 603.4,183.3 618.5,183.4 633.6,183.5 648.7,183.7 663.8,183.9 678.9,184.2 694.0,184.4 709.1,184.7 724.2,185.0 739.2,185.3 754.3,185.6 769.4,186.0 784.5,186.3 799.6,186.6 814.7,187.0 829.8,187.3 844.9,187.6 860.0,188.0" fill="none" stroke="#22c55e" stroke-width="2.5" stroke-linecap="round" stroke-linejoin="round"/>
  <polyline points="60.0,193.2 75.1,192.5 90.2,192.0 105.3,191.6 120.4,191.1 135.5,190.8 150.6,190.4 165.7,190.1 180.8,189.6 195.8,188.8 210.9,187.8 226.0,187.0 241.1,186.2 256.2,185.6 271.3,185.0 286.4,184.3 301.5,183.6 316.6,183.2 331.7,182.9 346.8,182.7 361.9,182.7 377.0,182.4 392.1,182.3 407.2,182.3 422.3,182.2 437.4,182.2 452.5,182.2 467.5,182.2 482.6,182.3 497.7,182.4 512.8,182.5 527.9,182.6 543.0,182.7 558.1,182.9 573.2,183.1 588.3,183.2 603.4,183.3 618.5,183.4 633.6,183.5 648.7,183.7 663.8,183.9 678.9,184.2 694.0,184.4 709.1,184.7 724.2,185.0 739.2,185.3 754.3,185.6 769.4,186.0 784.5,186.3 799.6,186.6 814.7,187.0 829.8,187.3 844.9,187.6 860.0,188.0" fill="none" stroke="#22c55e" stroke-width="5" opacity="0.1" stroke-linecap="round" stroke-linejoin="round"/>

  <!-- Aktif doluluk -->
  <polyline points="60.0,211.1 75.1,210.2 90.2,209.7 105.3,209.2 120.4,208.7 135.5,208.3 150.6,207.9 165.7,207.5 180.8,207.0 195.8,206.2 210.9,205.0 226.0,204.1 241.1,203.2 256.2,202.5 271.3,201.9 286.4,201.0 301.5,200.3 316.6,199.9 331.7,199.6 346.8,199.4 361.9,199.3 377.0,199.0 392.1,198.9 407.2,198.9 422.3,198.7 437.4,198.7 452.5,198.8 467.5,198.8 482.6,198.8 497.7,198.9 512.8,199.0 527.9,199.2 543.0,199.4 558.1,199.5 573.2,199.7 588.3,199.8 603.4,200.0 618.5,200.1 633.6,200.2 648.7,200.4 663.8,200.7 678.9,201.0 694.0,201.3 709.1,201.6 724.2,201.8 739.2,202.2 754.3,202.6 769.4,203.0 784.5,203.3 799.6,203.7 814.7,204.1 829.8,204.4 844.9,204.8 860.0,205.2" fill="none" stroke="#3b82f6" stroke-width="2.5" stroke-linecap="round" stroke-linejoin="round"/>
  <polyline points="60.0,211.1 75.1,210.2 90.2,209.7 105.3,209.2 120.4,208.7 135.5,208.3 150.6,207.9 165.7,207.5 180.8,207.0 195.8,206.2 210.9,205.0 226.0,204.1 241.1,203.2 256.2,202.5 271.3,201.9 286.4,201.0 301.5,200.3 316.6,199.9 331.7,199.6 346.8,199.4 361.9,199.3 377.0,199.0 392.1,198.9 407.2,198.9 422.3,198.7 437.4,198.7 452.5,198.8 467.5,198.8 482.6,198.8 497.7,198.9 512.8,199.0 527.9,199.2 543.0,199.4 558.1,199.5 573.2,199.7 588.3,199.8 603.4,200.0 618.5,200.1 633.6,200.2 648.7,200.4 663.8,200.7 678.9,201.0 694.0,201.3 709.1,201.6 724.2,201.8 739.2,202.2 754.3,202.6 769.4,203.0 784.5,203.3 799.6,203.7 814.7,204.1 829.8,204.4 844.9,204.8 860.0,205.2" fill="none" stroke="#3b82f6" stroke-width="5" opacity="0.1" stroke-linecap="round" stroke-linejoin="round"/>

  <!-- Noktalar -->
  <circle cx="60.0" cy="193.2" r="3" fill="#22c55e"/><circle cx="75.1" cy="192.5" r="3" fill="#22c55e"/><circle cx="90.2" cy="192.0" r="3" fill="#22c55e"/><circle cx="105.3" cy="191.6" r="3" fill="#22c55e"/><circle cx="120.4" cy="191.1" r="3" fill="#22c55e"/><circle cx="135.5" cy="190.8" r="3" fill="#22c55e"/><circle cx="150.6" cy="190.4" r="3" fill="#22c55e"/><circle cx="165.7" cy="190.1" r="3" fill="#22c55e"/><circle cx="180.8" cy="189.6" r="3" fill="#22c55e"/><circle cx="195.8" cy="188.8" r="3" fill="#22c55e"/><circle cx="210.9" cy="187.8" r="3" fill="#22c55e"/><circle cx="226.0" cy="187.0" r="3" fill="#22c55e"/><circle cx="241.1" cy="186.2" r="3" fill="#22c55e"/><circle cx="256.2" cy="185.6" r="3" fill="#22c55e"/><circle cx="271.3" cy="185.0" r="3" fill="#22c55e"/><circle cx="286.4" cy="184.3" r="3" fill="#22c55e"/><circle cx="301.5" cy="183.6" r="3" fill="#22c55e"/><circle cx="316.6" cy="183.2" r="3" fill="#22c55e"/><circle cx="331.7" cy="182.9" r="3" fill="#22c55e"/><circle cx="346.8" cy="182.7" r="3" fill="#22c55e"/><circle cx="361.9" cy="182.7" r="3" fill="#22c55e"/><circle cx="377.0" cy="182.4" r="3" fill="#22c55e"/><circle cx="392.1" cy="182.3" r="3" fill="#22c55e"/><circle cx="407.2" cy="182.3" r="3" fill="#22c55e"/><circle cx="422.3" cy="182.2" r="3" fill="#22c55e"/><circle cx="437.4" cy="182.2" r="3" fill="#22c55e"/><circle cx="452.5" cy="182.2" r="3" fill="#22c55e"/><circle cx="467.5" cy="182.2" r="3" fill="#22c55e"/><circle cx="482.6" cy="182.3" r="3" fill="#22c55e"/><circle cx="497.7" cy="182.4" r="3" fill="#22c55e"/><circle cx="512.8" cy="182.5" r="3" fill="#22c55e"/><circle cx="527.9" cy="182.6" r="3" fill="#22c55e"/><circle cx="543.0" cy="182.7" r="3" fill="#22c55e"/><circle cx="558.1" cy="182.9" r="3" fill="#22c55e"/><circle cx="573.2" cy="183.1" r="3" fill="#22c55e"/><circle cx="588.3" cy="183.2" r="3" fill="#22c55e"/><circle cx="603.4" cy="183.3" r="3" fill="#22c55e"/><circle cx="618.5" cy="183.4" r="3" fill="#22c55e"/><circle cx="633.6" cy="183.5" r="3" fill="#22c55e"/><circle cx="648.7" cy="183.7" r="3" fill="#22c55e"/><circle cx="663.8" cy="183.9" r="3" fill="#22c55e"/><circle cx="678.9" cy="184.2" r="3" fill="#22c55e"/><circle cx="694.0" cy="184.4" r="3" fill="#22c55e"/><circle cx="709.1" cy="184.7" r="3" fill="#22c55e"/><circle cx="724.2" cy="185.0" r="3" fill="#22c55e"/><circle cx="739.2" cy="185.3" r="3" fill="#22c55e"/><circle cx="754.3" cy="185.6" r="3" fill="#22c55e"/><circle cx="769.4" cy="186.0" r="3" fill="#22c55e"/><circle cx="784.5" cy="186.3" r="3" fill="#22c55e"/><circle cx="799.6" cy="186.6" r="3" fill="#22c55e"/><circle cx="814.7" cy="187.0" r="3" fill="#22c55e"/><circle cx="829.8" cy="187.3" r="3" fill="#22c55e"/><circle cx="844.9" cy="187.6" r="3" fill="#22c55e"/><circle cx="860.0" cy="188.0" r="3" fill="#22c55e"/>
  <circle cx="60.0" cy="211.1" r="3" fill="#3b82f6"/><circle cx="75.1" cy="210.2" r="3" fill="#3b82f6"/><circle cx="90.2" cy="209.7" r="3" fill="#3b82f6"/><circle cx="105.3" cy="209.2" r="3" fill="#3b82f6"/><circle cx="120.4" cy="208.7" r="3" fill="#3b82f6"/><circle cx="135.5" cy="208.3" r="3" fill="#3b82f6"/><circle cx="150.6" cy="207.9" r="3" fill="#3b82f6"/><circle cx="165.7" cy="207.5" r="3" fill="#3b82f6"/><circle cx="180.8" cy="207.0" r="3" fill="#3b82f6"/><circle cx="195.8" cy="206.2" r="3" fill="#3b82f6"/><circle cx="210.9" cy="205.0" r="3" fill="#3b82f6"/><circle cx="226.0" cy="204.1" r="3" fill="#3b82f6"/><circle cx="241.1" cy="203.2" r="3" fill="#3b82f6"/><circle cx="256.2" cy="202.5" r="3" fill="#3b82f6"/><circle cx="271.3" cy="201.9" r="3" fill="#3b82f6"/><circle cx="286.4" cy="201.0" r="3" fill="#3b82f6"/><circle cx="301.5" cy="200.3" r="3" fill="#3b82f6"/><circle cx="316.6" cy="199.9" r="3" fill="#3b82f6"/><circle cx="331.7" cy="199.6" r="3" fill="#3b82f6"/><circle cx="346.8" cy="199.4" r="3" fill="#3b82f6"/><circle cx="361.9" cy="199.3" r="3" fill="#3b82f6"/><circle cx="377.0" cy="199.0" r="3" fill="#3b82f6"/><circle cx="392.1" cy="198.9" r="3" fill="#3b82f6"/><circle cx="407.2" cy="198.9" r="3" fill="#3b82f6"/><circle cx="422.3" cy="198.7" r="3" fill="#3b82f6"/><circle cx="437.4" cy="198.7" r="3" fill="#3b82f6"/><circle cx="452.5" cy="198.8" r="3" fill="#3b82f6"/><circle cx="467.5" cy="198.8" r="3" fill="#3b82f6"/><circle cx="482.6" cy="198.8" r="3" fill="#3b82f6"/><circle cx="497.7" cy="198.9" r="3" fill="#3b82f6"/><circle cx="512.8" cy="199.0" r="3" fill="#3b82f6"/><circle cx="527.9" cy="199.2" r="3" fill="#3b82f6"/><circle cx="543.0" cy="199.4" r="3" fill="#3b82f6"/><circle cx="558.1" cy="199.5" r="3" fill="#3b82f6"/><circle cx="573.2" cy="199.7" r="3" fill="#3b82f6"/><circle cx="588.3" cy="199.8" r="3" fill="#3b82f6"/><circle cx="603.4" cy="200.0" r="3" fill="#3b82f6"/><circle cx="618.5" cy="200.1" r="3" fill="#3b82f6"/><circle cx="633.6" cy="200.2" r="3" fill="#3b82f6"/><circle cx="648.7" cy="200.4" r="3" fill="#3b82f6"/><circle cx="663.8" cy="200.7" r="3" fill="#3b82f6"/><circle cx="678.9" cy="201.0" r="3" fill="#3b82f6"/><circle cx="694.0" cy="201.3" r="3" fill="#3b82f6"/><circle cx="709.1" cy="201.6" r="3" fill="#3b82f6"/><circle cx="724.2" cy="201.8" r="3" fill="#3b82f6"/><circle cx="739.2" cy="202.2" r="3" fill="#3b82f6"/><circle cx="754.3" cy="202.6" r="3" fill="#3b82f6"/><circle cx="769.4" cy="203.0" r="3" fill="#3b82f6"/><circle cx="784.5" cy="203.3" r="3" fill="#3b82f6"/><circle cx="799.6" cy="203.7" r="3" fill="#3b82f6"/><circle cx="814.7" cy="204.1" r="3" fill="#3b82f6"/><circle cx="829.8" cy="204.4" r="3" fill="#3b82f6"/><circle cx="844.9" cy="204.8" r="3" fill="#3b82f6"/><circle cx="860.0" cy="205.2" r="3" fill="#3b82f6"/>

  <!-- X ekseni -->
  <text x="60.0" y="380" text-anchor="middle" font-size="10" fill="#888">14.05.2026</text>
  <text x="195.8" y="380" text-anchor="middle" font-size="10" fill="#888">23.05.2026</text>
  <text x="331.7" y="380" text-anchor="middle" font-size="10" fill="#888">01.06.2026</text>
  <text x="467.5" y="380" text-anchor="middle" font-size="10" fill="#888">10.06.2026</text>
  <text x="603.4" y="380" text-anchor="middle" font-size="10" fill="#888">19.06.2026</text>
  <text x="739.2" y="380" text-anchor="middle" font-size="10" fill="#888">28.06.2026</text>

  <!-- Legend -->
  <g transform="translate(60, 345)">
    <rect x="0" y="0" width="12" height="12" fill="#22c55e" rx="2"/>
    <text x="18" y="10" font-size="11" fill="#c9d1d9">Toplam Doluluk</text>
    <rect x="140" y="0" width="12" height="12" fill="#3b82f6" rx="2"/>
    <text x="158" y="10" font-size="11" fill="#c9d1d9">Aktif Doluluk</text>
  </g>
</svg>