<svg xmlns="http://www.w3.org/2000/svg" viewBox="0 0 800 400" width="100%" style="max-width:800px;">
  <rect width="800" height="400" fill="#0d1117" rx="6"/>
  <text x="400.0" y="25" text-anchor="middle" font-size="16" font-weight="bold" fill="#c9d1d9">Son 90 Gün - Günlük Ortalama</text>

  <!-- Y grid -->
  <line x1="60" y1="320.0" x2="760" y2="320.0" stroke="#333" stroke-width="1" stroke-dasharray="4,4" opacity="0.5"/>
  <text x="50" y="320.0" text-anchor="end" dominant-baseline="middle" font-size="10" fill="#888">0%</text>
  <line x1="60" y1="264.0" x2="760" y2="264.0" stroke="#333" stroke-width="1" stroke-dasharray="4,4" opacity="0.5"/>
  <text x="50" y="264.0" text-anchor="end" dominant-baseline="middle" font-size="10" fill="#888">20%</text>
  <line x1="60" y1="208.0" x2="760" y2="208.0" stroke="#333" stroke-width="1" stroke-dasharray="4,4" opacity="0.5"/>
  <text x="50" y="208.0" text-anchor="end" dominant-baseline="middle" font-size="10" fill="#888">40%</text>
  <line x1="60" y1="152.0" x2="760" y2="152.0" stroke="#333" stroke-width="1" stroke-dasharray="4,4" opacity="0.5"/>
  <text x="50" y="152.0" text-anchor="end" dominant-baseline="middle" font-size="10" fill="#888">60%</text>
  <line x1="60" y1="96.0" x2="760" y2="96.0" stroke="#333" stroke-width="1" stroke-dasharray="4,4" opacity="0.5"/>
  <text x="50" y="96.0" text-anchor="end" dominant-baseline="middle" font-size="10" fill="#888">80%</text>
  <line x1="60" y1="40.0" x2="760" y2="40.0" stroke="#333" stroke-width="1" stroke-dasharray="4,4" opacity="0.5"/>
  <text x="50" y="40.0" text-anchor="end" dominant-baseline="middle" font-size="10" fill="#888">100%</text>

  <!-- Referans çizgileri -->
  <line x1="60" y1="236.0" x2="760" y2="236.0" stroke="#ef4444" stroke-width="1" stroke-dasharray="2,2" opacity="0.7"/>
  <text x="745" y="236.0" dominant-baseline="middle" font-size="9" fill="#ef4444">Kritik (30%)</text>
  <line x1="60" y1="180.0" x2="760" y2="180.0" stroke="#eab308" stroke-width="1" stroke-dasharray="2,2" opacity="0.7"/>
  <text x="745" y="180.0" dominant-baseline="middle" font-size="9" fill="#eab308">Normal (50%)</text>

  <!-- Toplam doluluk -->
  <polyline points="60.0,193.2 71.7,192.5 83.3,192.0 95.0,191.6 106.7,191.1 118.3,190.8 130.0,190.4 141.7,190.1 153.3,189.6 165.0,188.8 176.7,187.8 188.3,187.0 200.0,186.2 211.7,185.6 223.3,185.0 235.0,184.3 246.7,183.6 258.3,183.2 270.0,182.9 281.7,182.7 293.3,182.7 305.0,182.4 316.7,182.3 328.3,182.3 340.0,182.2 351.7,182.2 363.3,182.2 375.0,182.2 386.7,182.3 398.3,182.4 410.0,182.5 421.7,182.6 433.3,182.7 445.0,182.9 456.7,183.1 468.3,183.2 480.0,183.3 491.7,183.4 503.3,183.5 515.0,183.7 526.7,183.9 538.3,184.2 550.0,184.4 561.7,184.7 573.3,185.0 585.0,185.3 596.7,185.6 608.3,186.0 620.0,186.3 631.7,186.6 643.3,187.0 655.0,187.3 666.7,187.6 678.3,188.0 690.0,188.3 701.7,188.6 713.3,189.0 725.0,189.3 736.7,189.6 748.3,189.9 760.0,190.2" fill="none" stroke="#22c55e" stroke-width="2.5" stroke-linecap="round" stroke-linejoin="round"/>
  <polyline points="60.0,193.2 71.7,192.5 83.3,192.0 95.0,191.6 106.7,191.1 118.3,190.8 130.0,190.4 141.7,190.1 153.3,189.6 165.0,188.8 176.7,187.8 188.3,187.0 200.0,186.2 211.7,185.6 223.3,185.0 235.0,184.3 246.7,183.6 258.3,183.2 270.0,182.9 281.7,182.7 293.3,182.7 305.0,182.4 316.7,182.3 328.3,182.3 340.0,182.2 351.7,182.2 363.3,182.2 375.0,182.2 386.7,182.3 398.3,182.4 410.0,182.5 421.7,182.6 433.3,182.7 445.0,182.9 456.7,183.1 468.3,183.2 480.0,183.3 491.7,183.4 503.3,183.5 515.0,183.7 526.7,183.9 538.3,184.2 550.0,184.4 561.7,184.7 573.3,185.0 585.0,185.3 596.7,185.6 608.3,186.0 620.0,186.3 631.7,186.6 643.3,187.0 655.0,187.3 666.7,187.6 678.3,188.0 690.0,188.3 701.7,188.6 713.3,189.0 725.0,189.3 736.7,189.6 748.3,189.9 760.0,190.2" fill="none" stroke="#22c55e" stroke-width="5" opacity="0.1" stroke-linecap="round" stroke-linejoin="round"/>

  <!-- Aktif doluluk -->
  <polyline points="60.0,211.1 71.7,210.2 83.3,209.7 95.0,209.2 106.7,208.7 118.3,208.3 130.0,207.9 141.7,207.5 153.3,207.0 165.0,206.2 176.7,205.0 188.3,204.1 200.0,203.2 211.7,202.5 223.3,201.9 235.0,201.0 246.7,200.3 258.3,199.9 270.0,199.6 281.7,199.4 293.3,199.3 305.0,199.0 316.7,198.9 328.3,198.9 340.0,198.7 351.7,198.7 363.3,198.8 375.0,198.8 386.7,198.8 398.3,198.9 410.0,199.0 421.7,199.2 433.3,199.4 445.0,199.5 456.7,199.7 468.3,199.8 480.0,200.0 491.7,200.1 503.3,200.2 515.0,200.4 526.7,200.7 538.3,201.0 550.0,201.3 561.7,201.6 573.3,201.8 585.0,202.2 596.7,202.6 608.3,203.0 620.0,203.3 631.7,203.7 643.3,204.1 655.0,204.4 666.7,204.8 678.3,205.2 690.0,205.5 701.7,205.9 713.3,206.3 725.0,206.7 736.7,207.0 748.3,207.4 760.0,207.7" fill="none" stroke="#3b82f6" stroke-width="2.5" stroke-linecap="round" stroke-linejoin="round"/>
  <polyline points="60.0,211.1 71.7,210.2 83.3,209.7 95.0,209.2 106.7,208.7 118.3,208.3 130.0,207.9 141.7,207.5 153.3,207.0 165.0,206.2 176.7,205.0 188.3,204.1 200.0,203.2 211.7,202.5 223.3,201.9 235.0,201.0 246.7,200.3 258.3,199.9 270.0,199.6 281.7,199.4 293.3,199.3 305.0,199.0 316.7,198.9 328.3,198.9 340.0,198.7 351.7,198.7 363.3,198.8 375.0,198.8 386.7,198.8 398.3,198.9 410.0,199.0 421.7,199.2 433.3,199.4 445.0,199.5 456.7,199.7 468.3,199.8 480.0,200.0 491.7,200.1 503.3,200.2 515.0,200.4 526.7,200.7 538.3,201.0 550.0,201.3 561.7,201.6 573.3,201.8 585.0,202.2 596.7,202.6 608.3,203.0 620.0,203.3 631.7,203.7 643.3,204.1 655.0,204.4 666.7,204.8 678.3,205.2 690.0,205.5 701.7,205.9 713.3,206.3 725.0,206.7 736.7,207.0 748.3,207.4 760.0,207.7" fill="none" stroke="#3b82f6" stroke-width="5" opacity="0.1" stroke-linecap="round" stroke-linejoin="round"/>

  <!-- Noktalar -->
  <circle cx="60.0" cy="193.2" r="3" fill="#22c55e"/><circle cx="71.7" cy="192.5" r="3" fill="#22c55e"/><circle cx="83.3" cy="192.0" r="3" fill="#22c55e"/><circle cx="95.0" cy="191.6" r="3" fill="#22c55e"/><circle cx="106.7" cy="191.1" r="3" fill="#22c55e"/><circle cx="118.3" cy="190.8" r="3" fill="#22c55e"/><circle cx="130.0" cy="190.4" r="3" fill="#22c55e"/><circle cx="141.7" cy="190.1" r="3" fill="#22c55e"/><circle cx="153.3" cy="189.6" r="3" fill="#22c55e"/><circle cx="165.0" cy="188.8" r="3" fill="#22c55e"/><circle cx="176.7" cy="187.8" r="3" fill="#22c55e"/><circle cx="188.3" cy="187.0" r="3" fill="#22c55e"/><circle cx="200.0" cy="186.2" r="3" fill="#22c55e"/><circle cx="211.7" cy="185.6" r="3" fill="#22c55e"/><circle cx="223.3" cy="185.0" r="3" fill="#22c55e"/><circle cx="235.0" cy="184.3" r="3" fill="#22c55e"/><circle cx="246.7" cy="183.6" r="3" fill="#22c55e"/><circle cx="258.3" cy="183.2" r="3" fill="#22c55e"/><circle cx="270.0" cy="182.9" r="3" fill="#22c55e"/><circle cx="281.7" cy="182.7" r="3" fill="#22c55e"/><circle cx="293.3" cy="182.7" r="3" fill="#22c55e"/><circle cx="305.0" cy="182.4" r="3" fill="#22c55e"/><circle cx="316.7" cy="182.3" r="3" fill="#22c55e"/><circle cx="328.3" cy="182.3" r="3" fill="#22c55e"/><circle cx="340.0" cy="182.2" r="3" fill="#22c55e"/><circle cx="351.7" cy="182.2" r="3" fill="#22c55e"/><circle cx="363.3" cy="182.2" r="3" fill="#22c55e"/><circle cx="375.0" cy="182.2" r="3" fill="#22c55e"/><circle cx="386.7" cy="182.3" r="3" fill="#22c55e"/><circle cx="398.3" cy="182.4" r="3" fill="#22c55e"/><circle cx="410.0" cy="182.5" r="3" fill="#22c55e"/><circle cx="421.7" cy="182.6" r="3" fill="#22c55e"/><circle cx="433.3" cy="182.7" r="3" fill="#22c55e"/><circle cx="445.0" cy="182.9" r="3" fill="#22c55e"/><circle cx="456.7" cy="183.1" r="3" fill="#22c55e"/><circle cx="468.3" cy="183.2" r="3" fill="#22c55e"/><circle cx="480.0" cy="183.3" r="3" fill="#22c55e"/><circle cx="491.7" cy="183.4" r="3" fill="#22c55e"/><circle cx="503.3" cy="183.5" r="3" fill="#22c55e"/><circle cx="515.0" cy="183.7" r="3" fill="#22c55e"/><circle cx="526.7" cy="183.9" r="3" fill="#22c55e"/><circle cx="538.3" cy="184.2" r="3" fill="#22c55e"/><circle cx="550.0" cy="184.4" r="3" fill="#22c55e"/><circle cx="561.7" cy="184.7" r="3" fill="#22c55e"/><circle cx="573.3" cy="185.0" r="3" fill="#22c55e"/><circle cx="585.0" cy="185.3" r="3" fill="#22c55e"/><circle cx="596.7" cy="185.6" r="3" fill="#22c55e"/><circle cx="608.3" cy="186.0" r="3" fill="#22c55e"/><circle cx="620.0" cy="186.3" r="3" fill="#22c55e"/><circle cx="631.7" cy="186.6" r="3" fill="#22c55e"/><circle cx="643.3" cy="187.0" r="3" fill="#22c55e"/><circle cx="655.0" cy="187.3" r="3" fill="#22c55e"/><circle cx="666.7" cy="187.6" r="3" fill="#22c55e"/><circle cx="678.3" cy="188.0" r="3" fill="#22c55e"/><circle cx="690.0" cy="188.3" r="3" fill="#22c55e"/><circle cx="701.7" cy="188.6" r="3" fill="#22c55e"/><circle cx="713.3" cy="189.0" r="3" fill="#22c55e"/><circle cx="725.0" cy="189.3" r="3" fill="#22c55e"/><circle cx="736.7" cy="189.6" r="3" fill="#22c55e"/><circle cx="748.3" cy="189.9" r="3" fill="#22c55e"/><circle cx="760.0" cy="190.2" r="3" fill="#22c55e"/>
  <circle cx="60.0" cy="211.1" r="3" fill="#3b82f6"/><circle cx="71.7" cy="210.2" r="3" fill="#3b82f6"/><circle cx="83.3" cy="209.7" r="3" fill="#3b82f6"/><circle cx="95.0" cy="209.2" r="3" fill="#3b82f6"/><circle cx="106.7" cy="208.7" r="3" fill="#3b82f6"/><circle cx="118.3" cy="208.3" r="3" fill="#3b82f6"/><circle cx="130.0" cy="207.9" r="3" fill="#3b82f6"/><circle cx="141.7" cy="207.5" r="3" fill="#3b82f6"/><circle cx="153.3" cy="207.0" r="3" fill="#3b82f6"/><circle cx="165.0" cy="206.2" r="3" fill="#3b82f6"/><circle cx="176.7" cy="205.0" r="3" fill="#3b82f6"/><circle cx="188.3" cy="204.1" r="3" fill="#3b82f6"/><circle cx="200.0" cy="203.2" r="3" fill="#3b82f6"/><circle cx="211.7" cy="202.5" r="3" fill="#3b82f6"/><circle cx="223.3" cy="201.9" r="3" fill="#3b82f6"/><circle cx="235.0" cy="201.0" r="3" fill="#3b82f6"/><circle cx="246.7" cy="200.3" r="3" fill="#3b82f6"/><circle cx="258.3" cy="199.9" r="3" fill="#3b82f6"/><circle cx="270.0" cy="199.6" r="3" fill="#3b82f6"/><circle cx="281.7" cy="199.4" r="3" fill="#3b82f6"/><circle cx="293.3" cy="199.3" r="3" fill="#3b82f6"/><circle cx="305.0" cy="199.0" r="3" fill="#3b82f6"/><circle cx="316.7" cy="198.9" r="3" fill="#3b82f6"/><circle cx="328.3" cy="198.9" r="3" fill="#3b82f6"/><circle cx="340.0" cy="198.7" r="3" fill="#3b82f6"/><circle cx="351.7" cy="198.7" r="3" fill="#3b82f6"/><circle cx="363.3" cy="198.8" r="3" fill="#3b82f6"/><circle cx="375.0" cy="198.8" r="3" fill="#3b82f6"/><circle cx="386.7" cy="198.8" r="3" fill="#3b82f6"/><circle cx="398.3" cy="198.9" r="3" fill="#3b82f6"/><circle cx="410.0" cy="199.0" r="3" fill="#3b82f6"/><circle cx="421.7" cy="199.2" r="3" fill="#3b82f6"/><circle cx="433.3" cy="199.4" r="3" fill="#3b82f6"/><circle cx="445.0" cy="199.5" r="3" fill="#3b82f6"/><circle cx="456.7" cy="199.7" r="3" fill="#3b82f6"/><circle cx="468.3" cy="199.8" r="3" fill="#3b82f6"/><circle cx="480.0" cy="200.0" r="3" fill="#3b82f6"/><circle cx="491.7" cy="200.1" r="3" fill="#3b82f6"/><circle cx="503.3" cy="200.2" r="3" fill="#3b82f6"/><circle cx="515.0" cy="200.4" r="3" fill="#3b82f6"/><circle cx="526.7" cy="200.7" r="3" fill="#3b82f6"/><circle cx="538.3" cy="201.0" r="3" fill="#3b82f6"/><circle cx="550.0" cy="201.3" r="3" fill="#3b82f6"/><circle cx="561.7" cy="201.6" r="3" fill="#3b82f6"/><circle cx="573.3" cy="201.8" r="3" fill="#3b82f6"/><circle cx="585.0" cy="202.2" r="3" fill="#3b82f6"/><circle cx="596.7" cy="202.6" r="3" fill="#3b82f6"/><circle cx="608.3" cy="203.0" r="3" fill="#3b82f6"/><circle cx="620.0" cy="203.3" r="3" fill="#3b82f6"/><circle cx="631.7" cy="203.7" r="3" fill="#3b82f6"/><circle cx="643.3" cy="204.1" r="3" fill="#3b82f6"/><circle cx="655.0" cy="204.4" r="3" fill="#3b82f6"/><circle cx="666.7" cy="204.8" r="3" fill="#3b82f6"/><circle cx="678.3" cy="205.2" r="3" fill="#3b82f6"/><circle cx="690.0" cy="205.5" r="3" fill="#3b82f6"/><circle cx="701.7" cy="205.9" r="3" fill="#3b82f6"/><circle cx="713.3" cy="206.3" r="3" fill="#3b82f6"/><circle cx="725.0" cy="206.7" r="3" fill="#3b82f6"/><circle cx="736.7" cy="207.0" r="3" fill="#3b82f6"/><circle cx="748.3" cy="207.4" r="3" fill="#3b82f6"/><circle cx="760.0" cy="207.7" r="3" fill="#3b82f6"/>

  <!-- X ekseni -->
  <text x="60.0" y="380" text-anchor="middle" font-size="10" fill="#888">14.05.2026</text>
  <text x="176.7" y="380" text-anchor="middle" font-size="10" fill="#888">24.05.2026</text>
  <text x="293.3" y="380" text-anchor="middle" font-size="10" fill="#888">03.06.2026</text>
  <text x="410.0" y="380" text-anchor="middle" font-size="10" fill="#888">13.06.2026</text>
  <text x="526.7" y="380" text-anchor="middle" font-size="10" fill="#888">23.06.2026</text>
  <text x="643.3" y="380" text-anchor="middle" font-size="10" fill="#888">03.07.2026</text>
  <text x="760.0" y="380" text-anchor="middle" font-size="10" fill="#888">13.07.2026</text>

  <!-- Legend -->
  <g transform="translate(60, 345)">
    <rect x="0" y="0" width="12" height="12" fill="#22c55e" rx="2"/>
    <text x="18" y="10" font-size="11" fill="#c9d1d9">Toplam Doluluk</text>
    <rect x="140" y="0" width="12" height="12" fill="#3b82f6" rx="2"/>
    <text x="158" y="10" font-size="11" fill="#c9d1d9">Aktif Doluluk</text>
  </g>
</svg>