<svg xmlns="http://www.w3.org/2000/svg" viewBox="0 0 900 400" width="100%" style="max-width:900px;">
  <rect width="900" height="400" fill="#0d1117" rx="6"/>
  <text x="450.0" y="25" text-anchor="middle" font-size="16" font-weight="bold" fill="#c9d1d9">Son 360 Gün - Günlük Ortalama</text>

  <!-- Y grid -->
  <line x1="60" y1="320.0" x2="860" y2="320.0" stroke="#333" stroke-width="1" stroke-dasharray="4,4" opacity="0.5"/>
  <text x="50" y="320.0" text-anchor="end" dominant-baseline="middle" font-size="10" fill="#888">0%</text>
  <line x1="60" y1="264.0" x2="860" y2="264.0" stroke="#333" stroke-width="1" stroke-dasharray="4,4" opacity="0.5"/>
  <text x="50" y="264.0" text-anchor="end" dominant-baseline="middle" font-size="10" fill="#888">20%</text>
  <line x1="60" y1="208.0" x2="860" y2="208.0" stroke="#333" stroke-width="1" stroke-dasharray="4,4" opacity="0.5"/>
  <text x="50" y="208.0" text-anchor="end" dominant-baseline="middle" font-size="10" fill="#888">40%</text>
  <line x1="60" y1="152.0" x2="860" y2="152.0" stroke="#333" stroke-width="1" stroke-dasharray="4,4" opacity="0.5"/>
  <text x="50" y="152.0" text-anchor="end" dominant-baseline="middle" font-size="10" fill="#888">60%</text>
  <line x1="60" y1="96.0" x2="860" y2="96.0" stroke="#333" stroke-width="1" stroke-dasharray="4,4" opacity="0.5"/>
  <text x="50" y="96.0" text-anchor="end" dominant-baseline="middle" font-size="10" fill="#888">80%</text>
  <line x1="60" y1="40.0" x2="860" y2="40.0" stroke="#333" stroke-width="1" stroke-dasharray="4,4" opacity="0.5"/>
  <text x="50" y="40.0" text-anchor="end" dominant-baseline="middle" font-size="10" fill="#888">100%</text>

  <!-- Referans çizgileri -->
  <line x1="60" y1="236.0" x2="860" y2="236.0" stroke="#ef4444" stroke-width="1" stroke-dasharray="2,2" opacity="0.7"/>
  <text x="845" y="236.0" dominant-baseline="middle" font-size="9" fill="#ef4444">Kritik (30%)</text>
  <line x1="60" y1="180.0" x2="860" y2="180.0" stroke="#eab308" stroke-width="1" stroke-dasharray="2,2" opacity="0.7"/>
  <text x="845" y="180.0" dominant-baseline="middle" font-size="9" fill="#eab308">Normal (50%)</text>

  <!-- Toplam doluluk -->
  <polyline points="60.0,193.2 76.3,192.5 92.7,192.0 109.0,191.6 125.3,191.1 141.6,190.8 158.0,190.4 174.3,190.1 190.6,189.6 206.9,188.8 223.3,187.8 239.6,187.0 255.9,186.2 272.2,185.6 288.6,185.0 304.9,184.3 321.2,183.6 337.6,183.2 353.9,182.9 370.2,182.7 386.5,182.7 402.9,182.4 419.2,182.3 435.5,182.3 451.8,182.2 468.2,182.2 484.5,182.2 500.8,182.2 517.1,182.3 533.5,182.4 549.8,182.5 566.1,182.6 582.4,182.7 598.8,182.9 615.1,183.1 631.4,183.2 647.8,183.3 664.1,183.4 680.4,183.5 696.7,183.7 713.1,183.9 729.4,184.2 745.7,184.4 762.0,184.7 778.4,185.0 794.7,185.3 811.0,185.6 827.3,186.0 843.7,186.3 860.0,186.6" fill="none" stroke="#22c55e" stroke-width="2.5" stroke-linecap="round" stroke-linejoin="round"/>
  <polyline points="60.0,193.2 76.3,192.5 92.7,192.0 109.0,191.6 125.3,191.1 141.6,190.8 158.0,190.4 174.3,190.1 190.6,189.6 206.9,188.8 223.3,187.8 239.6,187.0 255.9,186.2 272.2,185.6 288.6,185.0 304.9,184.3 321.2,183.6 337.6,183.2 353.9,182.9 370.2,182.7 386.5,182.7 402.9,182.4 419.2,182.3 435.5,182.3 451.8,182.2 468.2,182.2 484.5,182.2 500.8,182.2 517.1,182.3 533.5,182.4 549.8,182.5 566.1,182.6 582.4,182.7 598.8,182.9 615.1,183.1 631.4,183.2 647.8,183.3 664.1,183.4 680.4,183.5 696.7,183.7 713.1,183.9 729.4,184.2 745.7,184.4 762.0,184.7 778.4,185.0 794.7,185.3 811.0,185.6 827.3,186.0 843.7,186.3 860.0,186.6" fill="none" stroke="#22c55e" stroke-width="5" opacity="0.1" stroke-linecap="round" stroke-linejoin="round"/>

  <!-- Aktif doluluk -->
  <polyline points="60.0,211.1 76.3,210.2 92.7,209.7 109.0,209.2 125.3,208.7 141.6,208.3 158.0,207.9 174.3,207.5 190.6,207.0 206.9,206.2 223.3,205.0 239.6,204.1 255.9,203.2 272.2,202.5 288.6,201.9 304.9,201.0 321.2,200.3 337.6,199.9 353.9,199.6 370.2,199.4 386.5,199.3 402.9,199.0 419.2,198.9 435.5,198.9 451.8,198.7 468.2,198.7 484.5,198.8 500.8,198.8 517.1,198.8 533.5,198.9 549.8,199.0 566.1,199.2 582.4,199.4 598.8,199.5 615.1,199.7 631.4,199.8 647.8,200.0 664.1,200.1 680.4,200.2 696.7,200.4 713.1,200.7 729.4,201.0 745.7,201.3 762.0,201.6 778.4,201.8 794.7,202.2 811.0,202.6 827.3,203.0 843.7,203.3 860.0,203.7" fill="none" stroke="#3b82f6" stroke-width="2.5" stroke-linecap="round" stroke-linejoin="round"/>
  <polyline points="60.0,211.1 76.3,210.2 92.7,209.7 109.0,209.2 125.3,208.7 141.6,208.3 158.0,207.9 174.3,207.5 190.6,207.0 206.9,206.2 223.3,205.0 239.6,204.1 255.9,203.2 272.2,202.5 288.6,201.9 304.9,201.0 321.2,200.3 337.6,199.9 353.9,199.6 370.2,199.4 386.5,199.3 402.9,199.0 419.2,198.9 435.5,198.9 451.8,198.7 468.2,198.7 484.5,198.8 500.8,198.8 517.1,198.8 533.5,198.9 549.8,199.0 566.1,199.2 582.4,199.4 598.8,199.5 615.1,199.7 631.4,199.8 647.8,200.0 664.1,200.1 680.4,200.2 696.7,200.4 713.1,200.7 729.4,201.0 745.7,201.3 762.0,201.6 778.4,201.8 794.7,202.2 811.0,202.6 827.3,203.0 843.7,203.3 860.0,203.7" fill="none" stroke="#3b82f6" stroke-width="5" opacity="0.1" stroke-linecap="round" stroke-linejoin="round"/>

  <!-- Noktalar -->
  <circle cx="60.0" cy="193.2" r="3" fill="#22c55e"/><circle cx="76.3" cy="192.5" r="3" fill="#22c55e"/><circle cx="92.7" cy="192.0" r="3" fill="#22c55e"/><circle cx="109.0" cy="191.6" r="3" fill="#22c55e"/><circle cx="125.3" cy="191.1" r="3" fill="#22c55e"/><circle cx="141.6" cy="190.8" r="3" fill="#22c55e"/><circle cx="158.0" cy="190.4" r="3" fill="#22c55e"/><circle cx="174.3" cy="190.1" r="3" fill="#22c55e"/><circle cx="190.6" cy="189.6" r="3" fill="#22c55e"/><circle cx="206.9" cy="188.8" r="3" fill="#22c55e"/><circle cx="223.3" cy="187.8" r="3" fill="#22c55e"/><circle cx="239.6" cy="187.0" r="3" fill="#22c55e"/><circle cx="255.9" cy="186.2" r="3" fill="#22c55e"/><circle cx="272.2" cy="185.6" r="3" fill="#22c55e"/><circle cx="288.6" cy="185.0" r="3" fill="#22c55e"/><circle cx="304.9" cy="184.3" r="3" fill="#22c55e"/><circle cx="321.2" cy="183.6" r="3" fill="#22c55e"/><circle cx="337.6" cy="183.2" r="3" fill="#22c55e"/><circle cx="353.9" cy="182.9" r="3" fill="#22c55e"/><circle cx="370.2" cy="182.7" r="3" fill="#22c55e"/><circle cx="386.5" cy="182.7" r="3" fill="#22c55e"/><circle cx="402.9" cy="182.4" r="3" fill="#22c55e"/><circle cx="419.2" cy="182.3" r="3" fill="#22c55e"/><circle cx="435.5" cy="182.3" r="3" fill="#22c55e"/><circle cx="451.8" cy="182.2" r="3" fill="#22c55e"/><circle cx="468.2" cy="182.2" r="3" fill="#22c55e"/><circle cx="484.5" cy="182.2" r="3" fill="#22c55e"/><circle cx="500.8" cy="182.2" r="3" fill="#22c55e"/><circle cx="517.1" cy="182.3" r="3" fill="#22c55e"/><circle cx="533.5" cy="182.4" r="3" fill="#22c55e"/><circle cx="549.8" cy="182.5" r="3" fill="#22c55e"/><circle cx="566.1" cy="182.6" r="3" fill="#22c55e"/><circle cx="582.4" cy="182.7" r="3" fill="#22c55e"/><circle cx="598.8" cy="182.9" r="3" fill="#22c55e"/><circle cx="615.1" cy="183.1" r="3" fill="#22c55e"/><circle cx="631.4" cy="183.2" r="3" fill="#22c55e"/><circle cx="647.8" cy="183.3" r="3" fill="#22c55e"/><circle cx="664.1" cy="183.4" r="3" fill="#22c55e"/><circle cx="680.4" cy="183.5" r="3" fill="#22c55e"/><circle cx="696.7" cy="183.7" r="3" fill="#22c55e"/><circle cx="713.1" cy="183.9" r="3" fill="#22c55e"/><circle cx="729.4" cy="184.2" r="3" fill="#22c55e"/><circle cx="745.7" cy="184.4" r="3" fill="#22c55e"/><circle cx="762.0" cy="184.7" r="3" fill="#22c55e"/><circle cx="778.4" cy="185.0" r="3" fill="#22c55e"/><circle cx="794.7" cy="185.3" r="3" fill="#22c55e"/><circle cx="811.0" cy="185.6" r="3" fill="#22c55e"/><circle cx="827.3" cy="186.0" r="3" fill="#22c55e"/><circle cx="843.7" cy="186.3" r="3" fill="#22c55e"/><circle cx="860.0" cy="186.6" r="3" fill="#22c55e"/>
  <circle cx="60.0" cy="211.1" r="3" fill="#3b82f6"/><circle cx="76.3" cy="210.2" r="3" fill="#3b82f6"/><circle cx="92.7" cy="209.7" r="3" fill="#3b82f6"/><circle cx="109.0" cy="209.2" r="3" fill="#3b82f6"/><circle cx="125.3" cy="208.7" r="3" fill="#3b82f6"/><circle cx="141.6" cy="208.3" r="3" fill="#3b82f6"/><circle cx="158.0" cy="207.9" r="3" fill="#3b82f6"/><circle cx="174.3" cy="207.5" r="3" fill="#3b82f6"/><circle cx="190.6" cy="207.0" r="3" fill="#3b82f6"/><circle cx="206.9" cy="206.2" r="3" fill="#3b82f6"/><circle cx="223.3" cy="205.0" r="3" fill="#3b82f6"/><circle cx="239.6" cy="204.1" r="3" fill="#3b82f6"/><circle cx="255.9" cy="203.2" r="3" fill="#3b82f6"/><circle cx="272.2" cy="202.5" r="3" fill="#3b82f6"/><circle cx="288.6" cy="201.9" r="3" fill="#3b82f6"/><circle cx="304.9" cy="201.0" r="3" fill="#3b82f6"/><circle cx="321.2" cy="200.3" r="3" fill="#3b82f6"/><circle cx="337.6" cy="199.9" r="3" fill="#3b82f6"/><circle cx="353.9" cy="199.6" r="3" fill="#3b82f6"/><circle cx="370.2" cy="199.4" r="3" fill="#3b82f6"/><circle cx="386.5" cy="199.3" r="3" fill="#3b82f6"/><circle cx="402.9" cy="199.0" r="3" fill="#3b82f6"/><circle cx="419.2" cy="198.9" r="3" fill="#3b82f6"/><circle cx="435.5" cy="198.9" r="3" fill="#3b82f6"/><circle cx="451.8" cy="198.7" r="3" fill="#3b82f6"/><circle cx="468.2" cy="198.7" r="3" fill="#3b82f6"/><circle cx="484.5" cy="198.8" r="3" fill="#3b82f6"/><circle cx="500.8" cy="198.8" r="3" fill="#3b82f6"/><circle cx="517.1" cy="198.8" r="3" fill="#3b82f6"/><circle cx="533.5" cy="198.9" r="3" fill="#3b82f6"/><circle cx="549.8" cy="199.0" r="3" fill="#3b82f6"/><circle cx="566.1" cy="199.2" r="3" fill="#3b82f6"/><circle cx="582.4" cy="199.4" r="3" fill="#3b82f6"/><circle cx="598.8" cy="199.5" r="3" fill="#3b82f6"/><circle cx="615.1" cy="199.7" r="3" fill="#3b82f6"/><circle cx="631.4" cy="199.8" r="3" fill="#3b82f6"/><circle cx="647.8" cy="200.0" r="3" fill="#3b82f6"/><circle cx="664.1" cy="200.1" r="3" fill="#3b82f6"/><circle cx="680.4" cy="200.2" r="3" fill="#3b82f6"/><circle cx="696.7" cy="200.4" r="3" fill="#3b82f6"/><circle cx="713.1" cy="200.7" r="3" fill="#3b82f6"/><circle cx="729.4" cy="201.0" r="3" fill="#3b82f6"/><circle cx="745.7" cy="201.3" r="3" fill="#3b82f6"/><circle cx="762.0" cy="201.6" r="3" fill="#3b82f6"/><circle cx="778.4" cy="201.8" r="3" fill="#3b82f6"/><circle cx="794.7" cy="202.2" r="3" fill="#3b82f6"/><circle cx="811.0" cy="202.6" r="3" fill="#3b82f6"/><circle cx="827.3" cy="203.0" r="3" fill="#3b82f6"/><circle cx="843.7" cy="203.3" r="3" fill="#3b82f6"/><circle cx="860.0" cy="203.7" r="3" fill="#3b82f6"/>

  <!-- X ekseni -->
  <text x="60.0" y="380" text-anchor="middle" font-size="10" fill="#888">14.05.2026</text>
  <text x="190.6" y="380" text-anchor="middle" font-size="10" fill="#888">22.05.2026</text>
  <text x="321.2" y="380" text-anchor="middle" font-size="10" fill="#888">30.05.2026</text>
  <text x="451.8" y="380" text-anchor="middle" font-size="10" fill="#888">07.06.2026</text>
  <text x="582.4" y="380" text-anchor="middle" font-size="10" fill="#888">15.06.2026</text>
  <text x="713.1" y="380" text-anchor="middle" font-size="10" fill="#888">23.06.2026</text>
  <text x="843.7" y="380" text-anchor="middle" font-size="10" fill="#888">01.07.2026</text>

  <!-- Legend -->
  <g transform="translate(60, 345)">
    <rect x="0" y="0" width="12" height="12" fill="#22c55e" rx="2"/>
    <text x="18" y="10" font-size="11" fill="#c9d1d9">Toplam Doluluk</text>
    <rect x="140" y="0" width="12" height="12" fill="#3b82f6" rx="2"/>
    <text x="158" y="10" font-size="11" fill="#c9d1d9">Aktif Doluluk</text>
  </g>
</svg>