<svg xmlns="http://www.w3.org/2000/svg" viewBox="0 0 900 400" width="100%" style="max-width:900px;">
  <rect width="900" height="400" fill="#0d1117" rx="6"/>
  <text x="450.0" y="25" text-anchor="middle" font-size="16" font-weight="bold" fill="#c9d1d9">Son 360 Gün - Günlük Ortalama</text>

  <!-- Y grid -->
  <line x1="60" y1="320.0" x2="860" y2="320.0" stroke="#333" stroke-width="1" stroke-dasharray="4,4" opacity="0.5"/>
  <text x="50" y="320.0" text-anchor="end" dominant-baseline="middle" font-size="10" fill="#888">0%</text>
  <line x1="60" y1="264.0" x2="860" y2="264.0" stroke="#333" stroke-width="1" stroke-dasharray="4,4" opacity="0.5"/>
  <text x="50" y="264.0" text-anchor="end" dominant-baseline="middle" font-size="10" fill="#888">20%</text>
  <line x1="60" y1="208.0" x2="860" y2="208.0" stroke="#333" stroke-width="1" stroke-dasharray="4,4" opacity="0.5"/>
  <text x="50" y="208.0" text-anchor="end" dominant-baseline="middle" font-size="10" fill="#888">40%</text>
  <line x1="60" y1="152.0" x2="860" y2="152.0" stroke="#333" stroke-width="1" stroke-dasharray="4,4" opacity="0.5"/>
  <text x="50" y="152.0" text-anchor="end" dominant-baseline="middle" font-size="10" fill="#888">60%</text>
  <line x1="60" y1="96.0" x2="860" y2="96.0" stroke="#333" stroke-width="1" stroke-dasharray="4,4" opacity="0.5"/>
  <text x="50" y="96.0" text-anchor="end" dominant-baseline="middle" font-size="10" fill="#888">80%</text>
  <line x1="60" y1="40.0" x2="860" y2="40.0" stroke="#333" stroke-width="1" stroke-dasharray="4,4" opacity="0.5"/>
  <text x="50" y="40.0" text-anchor="end" dominant-baseline="middle" font-size="10" fill="#888">100%</text>

  <!-- Referans çizgileri -->
  <line x1="60" y1="236.0" x2="860" y2="236.0" stroke="#ef4444" stroke-width="1" stroke-dasharray="2,2" opacity="0.7"/>
  <text x="845" y="236.0" dominant-baseline="middle" font-size="9" fill="#ef4444">Kritik (30%)</text>
  <line x1="60" y1="180.0" x2="860" y2="180.0" stroke="#eab308" stroke-width="1" stroke-dasharray="2,2" opacity="0.7"/>
  <text x="845" y="180.0" dominant-baseline="middle" font-size="9" fill="#eab308">Normal (50%)</text>

  <!-- Toplam doluluk -->
  <polyline points="60.0,193.2 81.1,192.5 102.1,192.0 123.2,191.6 144.2,191.1 165.3,190.8 186.3,190.4 207.4,190.1 228.4,189.6 249.5,188.8 270.5,187.8 291.6,187.0 312.6,186.2 333.7,185.6 354.7,185.0 375.8,184.3 396.8,183.6 417.9,183.2 438.9,182.9 460.0,182.7 481.1,182.7 502.1,182.4 523.2,182.3 544.2,182.3 565.3,182.2 586.3,182.2 607.4,182.2 628.4,182.2 649.5,182.3 670.5,182.4 691.6,182.5 712.6,182.6 733.7,182.7 754.7,182.9 775.8,183.1 796.8,183.2 817.9,183.3 838.9,183.4 860.0,183.5" fill="none" stroke="#22c55e" stroke-width="2.5" stroke-linecap="round" stroke-linejoin="round"/>
  <polyline points="60.0,193.2 81.1,192.5 102.1,192.0 123.2,191.6 144.2,191.1 165.3,190.8 186.3,190.4 207.4,190.1 228.4,189.6 249.5,188.8 270.5,187.8 291.6,187.0 312.6,186.2 333.7,185.6 354.7,185.0 375.8,184.3 396.8,183.6 417.9,183.2 438.9,182.9 460.0,182.7 481.1,182.7 502.1,182.4 523.2,182.3 544.2,182.3 565.3,182.2 586.3,182.2 607.4,182.2 628.4,182.2 649.5,182.3 670.5,182.4 691.6,182.5 712.6,182.6 733.7,182.7 754.7,182.9 775.8,183.1 796.8,183.2 817.9,183.3 838.9,183.4 860.0,183.5" fill="none" stroke="#22c55e" stroke-width="5" opacity="0.1" stroke-linecap="round" stroke-linejoin="round"/>

  <!-- Aktif doluluk -->
  <polyline points="60.0,211.1 81.1,210.2 102.1,209.7 123.2,209.2 144.2,208.7 165.3,208.3 186.3,207.9 207.4,207.5 228.4,207.0 249.5,206.2 270.5,205.0 291.6,204.1 312.6,203.2 333.7,202.5 354.7,201.9 375.8,201.0 396.8,200.3 417.9,199.9 438.9,199.6 460.0,199.4 481.1,199.3 502.1,199.0 523.2,198.9 544.2,198.9 565.3,198.7 586.3,198.7 607.4,198.8 628.4,198.8 649.5,198.8 670.5,198.9 691.6,199.0 712.6,199.2 733.7,199.4 754.7,199.5 775.8,199.7 796.8,199.8 817.9,200.0 838.9,200.1 860.0,200.2" fill="none" stroke="#3b82f6" stroke-width="2.5" stroke-linecap="round" stroke-linejoin="round"/>
  <polyline points="60.0,211.1 81.1,210.2 102.1,209.7 123.2,209.2 144.2,208.7 165.3,208.3 186.3,207.9 207.4,207.5 228.4,207.0 249.5,206.2 270.5,205.0 291.6,204.1 312.6,203.2 333.7,202.5 354.7,201.9 375.8,201.0 396.8,200.3 417.9,199.9 438.9,199.6 460.0,199.4 481.1,199.3 502.1,199.0 523.2,198.9 544.2,198.9 565.3,198.7 586.3,198.7 607.4,198.8 628.4,198.8 649.5,198.8 670.5,198.9 691.6,199.0 712.6,199.2 733.7,199.4 754.7,199.5 775.8,199.7 796.8,199.8 817.9,200.0 838.9,200.1 860.0,200.2" fill="none" stroke="#3b82f6" stroke-width="5" opacity="0.1" stroke-linecap="round" stroke-linejoin="round"/>

  <!-- Noktalar -->
  <circle cx="60.0" cy="193.2" r="3" fill="#22c55e"/><circle cx="81.1" cy="192.5" r="3" fill="#22c55e"/><circle cx="102.1" cy="192.0" r="3" fill="#22c55e"/><circle cx="123.2" cy="191.6" r="3" fill="#22c55e"/><circle cx="144.2" cy="191.1" r="3" fill="#22c55e"/><circle cx="165.3" cy="190.8" r="3" fill="#22c55e"/><circle cx="186.3" cy="190.4" r="3" fill="#22c55e"/><circle cx="207.4" cy="190.1" r="3" fill="#22c55e"/><circle cx="228.4" cy="189.6" r="3" fill="#22c55e"/><circle cx="249.5" cy="188.8" r="3" fill="#22c55e"/><circle cx="270.5" cy="187.8" r="3" fill="#22c55e"/><circle cx="291.6" cy="187.0" r="3" fill="#22c55e"/><circle cx="312.6" cy="186.2" r="3" fill="#22c55e"/><circle cx="333.7" cy="185.6" r="3" fill="#22c55e"/><circle cx="354.7" cy="185.0" r="3" fill="#22c55e"/><circle cx="375.8" cy="184.3" r="3" fill="#22c55e"/><circle cx="396.8" cy="183.6" r="3" fill="#22c55e"/><circle cx="417.9" cy="183.2" r="3" fill="#22c55e"/><circle cx="438.9" cy="182.9" r="3" fill="#22c55e"/><circle cx="460.0" cy="182.7" r="3" fill="#22c55e"/><circle cx="481.1" cy="182.7" r="3" fill="#22c55e"/><circle cx="502.1" cy="182.4" r="3" fill="#22c55e"/><circle cx="523.2" cy="182.3" r="3" fill="#22c55e"/><circle cx="544.2" cy="182.3" r="3" fill="#22c55e"/><circle cx="565.3" cy="182.2" r="3" fill="#22c55e"/><circle cx="586.3" cy="182.2" r="3" fill="#22c55e"/><circle cx="607.4" cy="182.2" r="3" fill="#22c55e"/><circle cx="628.4" cy="182.2" r="3" fill="#22c55e"/><circle cx="649.5" cy="182.3" r="3" fill="#22c55e"/><circle cx="670.5" cy="182.4" r="3" fill="#22c55e"/><circle cx="691.6" cy="182.5" r="3" fill="#22c55e"/><circle cx="712.6" cy="182.6" r="3" fill="#22c55e"/><circle cx="733.7" cy="182.7" r="3" fill="#22c55e"/><circle cx="754.7" cy="182.9" r="3" fill="#22c55e"/><circle cx="775.8" cy="183.1" r="3" fill="#22c55e"/><circle cx="796.8" cy="183.2" r="3" fill="#22c55e"/><circle cx="817.9" cy="183.3" r="3" fill="#22c55e"/><circle cx="838.9" cy="183.4" r="3" fill="#22c55e"/><circle cx="860.0" cy="183.5" r="3" fill="#22c55e"/>
  <circle cx="60.0" cy="211.1" r="3" fill="#3b82f6"/><circle cx="81.1" cy="210.2" r="3" fill="#3b82f6"/><circle cx="102.1" cy="209.7" r="3" fill="#3b82f6"/><circle cx="123.2" cy="209.2" r="3" fill="#3b82f6"/><circle cx="144.2" cy="208.7" r="3" fill="#3b82f6"/><circle cx="165.3" cy="208.3" r="3" fill="#3b82f6"/><circle cx="186.3" cy="207.9" r="3" fill="#3b82f6"/><circle cx="207.4" cy="207.5" r="3" fill="#3b82f6"/><circle cx="228.4" cy="207.0" r="3" fill="#3b82f6"/><circle cx="249.5" cy="206.2" r="3" fill="#3b82f6"/><circle cx="270.5" cy="205.0" r="3" fill="#3b82f6"/><circle cx="291.6" cy="204.1" r="3" fill="#3b82f6"/><circle cx="312.6" cy="203.2" r="3" fill="#3b82f6"/><circle cx="333.7" cy="202.5" r="3" fill="#3b82f6"/><circle cx="354.7" cy="201.9" r="3" fill="#3b82f6"/><circle cx="375.8" cy="201.0" r="3" fill="#3b82f6"/><circle cx="396.8" cy="200.3" r="3" fill="#3b82f6"/><circle cx="417.9" cy="199.9" r="3" fill="#3b82f6"/><circle cx="438.9" cy="199.6" r="3" fill="#3b82f6"/><circle cx="460.0" cy="199.4" r="3" fill="#3b82f6"/><circle cx="481.1" cy="199.3" r="3" fill="#3b82f6"/><circle cx="502.1" cy="199.0" r="3" fill="#3b82f6"/><circle cx="523.2" cy="198.9" r="3" fill="#3b82f6"/><circle cx="544.2" cy="198.9" r="3" fill="#3b82f6"/><circle cx="565.3" cy="198.7" r="3" fill="#3b82f6"/><circle cx="586.3" cy="198.7" r="3" fill="#3b82f6"/><circle cx="607.4" cy="198.8" r="3" fill="#3b82f6"/><circle cx="628.4" cy="198.8" r="3" fill="#3b82f6"/><circle cx="649.5" cy="198.8" r="3" fill="#3b82f6"/><circle cx="670.5" cy="198.9" r="3" fill="#3b82f6"/><circle cx="691.6" cy="199.0" r="3" fill="#3b82f6"/><circle cx="712.6" cy="199.2" r="3" fill="#3b82f6"/><circle cx="733.7" cy="199.4" r="3" fill="#3b82f6"/><circle cx="754.7" cy="199.5" r="3" fill="#3b82f6"/><circle cx="775.8" cy="199.7" r="3" fill="#3b82f6"/><circle cx="796.8" cy="199.8" r="3" fill="#3b82f6"/><circle cx="817.9" cy="200.0" r="3" fill="#3b82f6"/><circle cx="838.9" cy="200.1" r="3" fill="#3b82f6"/><circle cx="860.0" cy="200.2" r="3" fill="#3b82f6"/>

  <!-- X ekseni -->
  <text x="60.0" y="380" text-anchor="middle" font-size="10" fill="#888">14.05.2026</text>
  <text x="186.3" y="380" text-anchor="middle" font-size="10" fill="#888">20.05.2026</text>
  <text x="312.6" y="380" text-anchor="middle" font-size="10" fill="#888">26.05.2026</text>
  <text x="438.9" y="380" text-anchor="middle" font-size="10" fill="#888">01.06.2026</text>
  <text x="565.3" y="380" text-anchor="middle" font-size="10" fill="#888">07.06.2026</text>
  <text x="691.6" y="380" text-anchor="middle" font-size="10" fill="#888">13.06.2026</text>
  <text x="817.9" y="380" text-anchor="middle" font-size="10" fill="#888">19.06.2026</text>

  <!-- Legend -->
  <g transform="translate(60, 345)">
    <rect x="0" y="0" width="12" height="12" fill="#22c55e" rx="2"/>
    <text x="18" y="10" font-size="11" fill="#c9d1d9">Toplam Doluluk</text>
    <rect x="140" y="0" width="12" height="12" fill="#3b82f6" rx="2"/>
    <text x="158" y="10" font-size="11" fill="#c9d1d9">Aktif Doluluk</text>
  </g>
</svg>