<svg xmlns="http://www.w3.org/2000/svg" viewBox="0 0 900 400" width="100%" style="max-width:900px;">
  <rect width="900" height="400" fill="#0d1117" rx="6"/>
  <text x="450.0" y="25" text-anchor="middle" font-size="16" font-weight="bold" fill="#c9d1d9">Son 180 Gün - Günlük Ortalama</text>

  <!-- Y grid -->
  <line x1="60" y1="320.0" x2="860" y2="320.0" stroke="#333" stroke-width="1" stroke-dasharray="4,4" opacity="0.5"/>
  <text x="50" y="320.0" text-anchor="end" dominant-baseline="middle" font-size="10" fill="#888">0%</text>
  <line x1="60" y1="264.0" x2="860" y2="264.0" stroke="#333" stroke-width="1" stroke-dasharray="4,4" opacity="0.5"/>
  <text x="50" y="264.0" text-anchor="end" dominant-baseline="middle" font-size="10" fill="#888">20%</text>
  <line x1="60" y1="208.0" x2="860" y2="208.0" stroke="#333" stroke-width="1" stroke-dasharray="4,4" opacity="0.5"/>
  <text x="50" y="208.0" text-anchor="end" dominant-baseline="middle" font-size="10" fill="#888">40%</text>
  <line x1="60" y1="152.0" x2="860" y2="152.0" stroke="#333" stroke-width="1" stroke-dasharray="4,4" opacity="0.5"/>
  <text x="50" y="152.0" text-anchor="end" dominant-baseline="middle" font-size="10" fill="#888">60%</text>
  <line x1="60" y1="96.0" x2="860" y2="96.0" stroke="#333" stroke-width="1" stroke-dasharray="4,4" opacity="0.5"/>
  <text x="50" y="96.0" text-anchor="end" dominant-baseline="middle" font-size="10" fill="#888">80%</text>
  <line x1="60" y1="40.0" x2="860" y2="40.0" stroke="#333" stroke-width="1" stroke-dasharray="4,4" opacity="0.5"/>
  <text x="50" y="40.0" text-anchor="end" dominant-baseline="middle" font-size="10" fill="#888">100%</text>

  <!-- Referans çizgileri -->
  <line x1="60" y1="236.0" x2="860" y2="236.0" stroke="#ef4444" stroke-width="1" stroke-dasharray="2,2" opacity="0.7"/>
  <text x="845" y="236.0" dominant-baseline="middle" font-size="9" fill="#ef4444">Kritik (30%)</text>
  <line x1="60" y1="180.0" x2="860" y2="180.0" stroke="#eab308" stroke-width="1" stroke-dasharray="2,2" opacity="0.7"/>
  <text x="845" y="180.0" dominant-baseline="middle" font-size="9" fill="#eab308">Normal (50%)</text>

  <!-- Toplam doluluk -->
  <polyline points="60.0,193.2 90.8,192.5 121.5,192.0 152.3,191.6 183.1,191.1 213.8,190.8 244.6,190.4 275.4,190.1 306.2,189.6 336.9,188.8 367.7,187.8 398.5,187.0 429.2,186.2 460.0,185.6 490.8,185.0 521.5,184.3 552.3,183.6 583.1,183.2 613.8,182.9 644.6,182.7 675.4,182.7 706.2,182.4 736.9,182.3 767.7,182.3 798.5,182.2 829.2,182.2 860.0,182.2" fill="none" stroke="#22c55e" stroke-width="2.5" stroke-linecap="round" stroke-linejoin="round"/>
  <polyline points="60.0,193.2 90.8,192.5 121.5,192.0 152.3,191.6 183.1,191.1 213.8,190.8 244.6,190.4 275.4,190.1 306.2,189.6 336.9,188.8 367.7,187.8 398.5,187.0 429.2,186.2 460.0,185.6 490.8,185.0 521.5,184.3 552.3,183.6 583.1,183.2 613.8,182.9 644.6,182.7 675.4,182.7 706.2,182.4 736.9,182.3 767.7,182.3 798.5,182.2 829.2,182.2 860.0,182.2" fill="none" stroke="#22c55e" stroke-width="5" opacity="0.1" stroke-linecap="round" stroke-linejoin="round"/>

  <!-- Aktif doluluk -->
  <polyline points="60.0,211.1 90.8,210.2 121.5,209.7 152.3,209.2 183.1,208.7 213.8,208.3 244.6,207.9 275.4,207.5 306.2,207.0 336.9,206.2 367.7,205.0 398.5,204.1 429.2,203.2 460.0,202.5 490.8,201.9 521.5,201.0 552.3,200.3 583.1,199.9 613.8,199.6 644.6,199.4 675.4,199.3 706.2,199.0 736.9,198.9 767.7,198.9 798.5,198.7 829.2,198.7 860.0,198.8" fill="none" stroke="#3b82f6" stroke-width="2.5" stroke-linecap="round" stroke-linejoin="round"/>
  <polyline points="60.0,211.1 90.8,210.2 121.5,209.7 152.3,209.2 183.1,208.7 213.8,208.3 244.6,207.9 275.4,207.5 306.2,207.0 336.9,206.2 367.7,205.0 398.5,204.1 429.2,203.2 460.0,202.5 490.8,201.9 521.5,201.0 552.3,200.3 583.1,199.9 613.8,199.6 644.6,199.4 675.4,199.3 706.2,199.0 736.9,198.9 767.7,198.9 798.5,198.7 829.2,198.7 860.0,198.8" fill="none" stroke="#3b82f6" stroke-width="5" opacity="0.1" stroke-linecap="round" stroke-linejoin="round"/>

  <!-- Noktalar -->
  <circle cx="60.0" cy="193.2" r="3" fill="#22c55e"/><circle cx="90.8" cy="192.5" r="3" fill="#22c55e"/><circle cx="121.5" cy="192.0" r="3" fill="#22c55e"/><circle cx="152.3" cy="191.6" r="3" fill="#22c55e"/><circle cx="183.1" cy="191.1" r="3" fill="#22c55e"/><circle cx="213.8" cy="190.8" r="3" fill="#22c55e"/><circle cx="244.6" cy="190.4" r="3" fill="#22c55e"/><circle cx="275.4" cy="190.1" r="3" fill="#22c55e"/><circle cx="306.2" cy="189.6" r="3" fill="#22c55e"/><circle cx="336.9" cy="188.8" r="3" fill="#22c55e"/><circle cx="367.7" cy="187.8" r="3" fill="#22c55e"/><circle cx="398.5" cy="187.0" r="3" fill="#22c55e"/><circle cx="429.2" cy="186.2" r="3" fill="#22c55e"/><circle cx="460.0" cy="185.6" r="3" fill="#22c55e"/><circle cx="490.8" cy="185.0" r="3" fill="#22c55e"/><circle cx="521.5" cy="184.3" r="3" fill="#22c55e"/><circle cx="552.3" cy="183.6" r="3" fill="#22c55e"/><circle cx="583.1" cy="183.2" r="3" fill="#22c55e"/><circle cx="613.8" cy="182.9" r="3" fill="#22c55e"/><circle cx="644.6" cy="182.7" r="3" fill="#22c55e"/><circle cx="675.4" cy="182.7" r="3" fill="#22c55e"/><circle cx="706.2" cy="182.4" r="3" fill="#22c55e"/><circle cx="736.9" cy="182.3" r="3" fill="#22c55e"/><circle cx="767.7" cy="182.3" r="3" fill="#22c55e"/><circle cx="798.5" cy="182.2" r="3" fill="#22c55e"/><circle cx="829.2" cy="182.2" r="3" fill="#22c55e"/><circle cx="860.0" cy="182.2" r="3" fill="#22c55e"/>
  <circle cx="60.0" cy="211.1" r="3" fill="#3b82f6"/><circle cx="90.8" cy="210.2" r="3" fill="#3b82f6"/><circle cx="121.5" cy="209.7" r="3" fill="#3b82f6"/><circle cx="152.3" cy="209.2" r="3" fill="#3b82f6"/><circle cx="183.1" cy="208.7" r="3" fill="#3b82f6"/><circle cx="213.8" cy="208.3" r="3" fill="#3b82f6"/><circle cx="244.6" cy="207.9" r="3" fill="#3b82f6"/><circle cx="275.4" cy="207.5" r="3" fill="#3b82f6"/><circle cx="306.2" cy="207.0" r="3" fill="#3b82f6"/><circle cx="336.9" cy="206.2" r="3" fill="#3b82f6"/><circle cx="367.7" cy="205.0" r="3" fill="#3b82f6"/><circle cx="398.5" cy="204.1" r="3" fill="#3b82f6"/><circle cx="429.2" cy="203.2" r="3" fill="#3b82f6"/><circle cx="460.0" cy="202.5" r="3" fill="#3b82f6"/><circle cx="490.8" cy="201.9" r="3" fill="#3b82f6"/><circle cx="521.5" cy="201.0" r="3" fill="#3b82f6"/><circle cx="552.3" cy="200.3" r="3" fill="#3b82f6"/><circle cx="583.1" cy="199.9" r="3" fill="#3b82f6"/><circle cx="613.8" cy="199.6" r="3" fill="#3b82f6"/><circle cx="644.6" cy="199.4" r="3" fill="#3b82f6"/><circle cx="675.4" cy="199.3" r="3" fill="#3b82f6"/><circle cx="706.2" cy="199.0" r="3" fill="#3b82f6"/><circle cx="736.9" cy="198.9" r="3" fill="#3b82f6"/><circle cx="767.7" cy="198.9" r="3" fill="#3b82f6"/><circle cx="798.5" cy="198.7" r="3" fill="#3b82f6"/><circle cx="829.2" cy="198.7" r="3" fill="#3b82f6"/><circle cx="860.0" cy="198.8" r="3" fill="#3b82f6"/>

  <!-- X ekseni -->
  <text x="60.0" y="380" text-anchor="middle" font-size="10" fill="#888">14.05 00:00</text>
  <text x="183.1" y="380" text-anchor="middle" font-size="10" fill="#888">18.05 00:00</text>
  <text x="306.2" y="380" text-anchor="middle" font-size="10" fill="#888">22.05 00:00</text>
  <text x="429.2" y="380" text-anchor="middle" font-size="10" fill="#888">26.05 00:00</text>
  <text x="552.3" y="380" text-anchor="middle" font-size="10" fill="#888">30.05 00:00</text>
  <text x="675.4" y="380" text-anchor="middle" font-size="10" fill="#888">03.06 00:00</text>
  <text x="798.5" y="380" text-anchor="middle" font-size="10" fill="#888">07.06 00:00</text>

  <!-- Legend -->
  <g transform="translate(60, 345)">
    <rect x="0" y="0" width="12" height="12" fill="#22c55e" rx="2"/>
    <text x="18" y="10" font-size="11" fill="#c9d1d9">Toplam Doluluk</text>
    <rect x="140" y="0" width="12" height="12" fill="#3b82f6" rx="2"/>
    <text x="158" y="10" font-size="11" fill="#c9d1d9">Aktif Doluluk</text>
  </g>
</svg>