<svg xmlns="http://www.w3.org/2000/svg" viewBox="0 0 800 400" width="100%" style="max-width:800px;">
  <rect width="800" height="400" fill="#0d1117" rx="6"/>
  <text x="400.0" y="25" text-anchor="middle" font-size="16" font-weight="bold" fill="#c9d1d9">Son 90 Gün - Günlük Ortalama</text>

  <!-- Y grid -->
  <line x1="60" y1="320.0" x2="760" y2="320.0" stroke="#333" stroke-width="1" stroke-dasharray="4,4" opacity="0.5"/>
  <text x="50" y="320.0" text-anchor="end" dominant-baseline="middle" font-size="10" fill="#888">0%</text>
  <line x1="60" y1="264.0" x2="760" y2="264.0" stroke="#333" stroke-width="1" stroke-dasharray="4,4" opacity="0.5"/>
  <text x="50" y="264.0" text-anchor="end" dominant-baseline="middle" font-size="10" fill="#888">20%</text>
  <line x1="60" y1="208.0" x2="760" y2="208.0" stroke="#333" stroke-width="1" stroke-dasharray="4,4" opacity="0.5"/>
  <text x="50" y="208.0" text-anchor="end" dominant-baseline="middle" font-size="10" fill="#888">40%</text>
  <line x1="60" y1="152.0" x2="760" y2="152.0" stroke="#333" stroke-width="1" stroke-dasharray="4,4" opacity="0.5"/>
  <text x="50" y="152.0" text-anchor="end" dominant-baseline="middle" font-size="10" fill="#888">60%</text>
  <line x1="60" y1="96.0" x2="760" y2="96.0" stroke="#333" stroke-width="1" stroke-dasharray="4,4" opacity="0.5"/>
  <text x="50" y="96.0" text-anchor="end" dominant-baseline="middle" font-size="10" fill="#888">80%</text>
  <line x1="60" y1="40.0" x2="760" y2="40.0" stroke="#333" stroke-width="1" stroke-dasharray="4,4" opacity="0.5"/>
  <text x="50" y="40.0" text-anchor="end" dominant-baseline="middle" font-size="10" fill="#888">100%</text>

  <!-- Referans çizgileri -->
  <line x1="60" y1="236.0" x2="760" y2="236.0" stroke="#ef4444" stroke-width="1" stroke-dasharray="2,2" opacity="0.7"/>
  <text x="745" y="236.0" dominant-baseline="middle" font-size="9" fill="#ef4444">Kritik (30%)</text>
  <line x1="60" y1="180.0" x2="760" y2="180.0" stroke="#eab308" stroke-width="1" stroke-dasharray="2,2" opacity="0.7"/>
  <text x="745" y="180.0" dominant-baseline="middle" font-size="9" fill="#eab308">Normal (50%)</text>

  <!-- Toplam doluluk -->
  <polyline points="60.0,193.2 80.6,192.5 101.2,192.0 121.8,191.6 142.4,191.1 162.9,190.8 183.5,190.4 204.1,190.1 224.7,189.6 245.3,188.8 265.9,187.8 286.5,187.0 307.1,186.2 327.6,185.6 348.2,185.0 368.8,184.3 389.4,183.6 410.0,183.2 430.6,182.9 451.2,182.7 471.8,182.7 492.4,182.4 512.9,182.3 533.5,182.3 554.1,182.2 574.7,182.2 595.3,182.2 615.9,182.2 636.5,182.3 657.1,182.4 677.6,182.5 698.2,182.6 718.8,182.7 739.4,182.9 760.0,183.1" fill="none" stroke="#22c55e" stroke-width="2.5" stroke-linecap="round" stroke-linejoin="round"/>
  <polyline points="60.0,193.2 80.6,192.5 101.2,192.0 121.8,191.6 142.4,191.1 162.9,190.8 183.5,190.4 204.1,190.1 224.7,189.6 245.3,188.8 265.9,187.8 286.5,187.0 307.1,186.2 327.6,185.6 348.2,185.0 368.8,184.3 389.4,183.6 410.0,183.2 430.6,182.9 451.2,182.7 471.8,182.7 492.4,182.4 512.9,182.3 533.5,182.3 554.1,182.2 574.7,182.2 595.3,182.2 615.9,182.2 636.5,182.3 657.1,182.4 677.6,182.5 698.2,182.6 718.8,182.7 739.4,182.9 760.0,183.1" fill="none" stroke="#22c55e" stroke-width="5" opacity="0.1" stroke-linecap="round" stroke-linejoin="round"/>

  <!-- Aktif doluluk -->
  <polyline points="60.0,211.1 80.6,210.2 101.2,209.7 121.8,209.2 142.4,208.7 162.9,208.3 183.5,207.9 204.1,207.5 224.7,207.0 245.3,206.2 265.9,205.0 286.5,204.1 307.1,203.2 327.6,202.5 348.2,201.9 368.8,201.0 389.4,200.3 410.0,199.9 430.6,199.6 451.2,199.4 471.8,199.3 492.4,199.0 512.9,198.9 533.5,198.9 554.1,198.7 574.7,198.7 595.3,198.8 615.9,198.8 636.5,198.8 657.1,198.9 677.6,199.0 698.2,199.2 718.8,199.4 739.4,199.5 760.0,199.7" fill="none" stroke="#3b82f6" stroke-width="2.5" stroke-linecap="round" stroke-linejoin="round"/>
  <polyline points="60.0,211.1 80.6,210.2 101.2,209.7 121.8,209.2 142.4,208.7 162.9,208.3 183.5,207.9 204.1,207.5 224.7,207.0 245.3,206.2 265.9,205.0 286.5,204.1 307.1,203.2 327.6,202.5 348.2,201.9 368.8,201.0 389.4,200.3 410.0,199.9 430.6,199.6 451.2,199.4 471.8,199.3 492.4,199.0 512.9,198.9 533.5,198.9 554.1,198.7 574.7,198.7 595.3,198.8 615.9,198.8 636.5,198.8 657.1,198.9 677.6,199.0 698.2,199.2 718.8,199.4 739.4,199.5 760.0,199.7" fill="none" stroke="#3b82f6" stroke-width="5" opacity="0.1" stroke-linecap="round" stroke-linejoin="round"/>

  <!-- Noktalar -->
  <circle cx="60.0" cy="193.2" r="3" fill="#22c55e"/><circle cx="80.6" cy="192.5" r="3" fill="#22c55e"/><circle cx="101.2" cy="192.0" r="3" fill="#22c55e"/><circle cx="121.8" cy="191.6" r="3" fill="#22c55e"/><circle cx="142.4" cy="191.1" r="3" fill="#22c55e"/><circle cx="162.9" cy="190.8" r="3" fill="#22c55e"/><circle cx="183.5" cy="190.4" r="3" fill="#22c55e"/><circle cx="204.1" cy="190.1" r="3" fill="#22c55e"/><circle cx="224.7" cy="189.6" r="3" fill="#22c55e"/><circle cx="245.3" cy="188.8" r="3" fill="#22c55e"/><circle cx="265.9" cy="187.8" r="3" fill="#22c55e"/><circle cx="286.5" cy="187.0" r="3" fill="#22c55e"/><circle cx="307.1" cy="186.2" r="3" fill="#22c55e"/><circle cx="327.6" cy="185.6" r="3" fill="#22c55e"/><circle cx="348.2" cy="185.0" r="3" fill="#22c55e"/><circle cx="368.8" cy="184.3" r="3" fill="#22c55e"/><circle cx="389.4" cy="183.6" r="3" fill="#22c55e"/><circle cx="410.0" cy="183.2" r="3" fill="#22c55e"/><circle cx="430.6" cy="182.9" r="3" fill="#22c55e"/><circle cx="451.2" cy="182.7" r="3" fill="#22c55e"/><circle cx="471.8" cy="182.7" r="3" fill="#22c55e"/><circle cx="492.4" cy="182.4" r="3" fill="#22c55e"/><circle cx="512.9" cy="182.3" r="3" fill="#22c55e"/><circle cx="533.5" cy="182.3" r="3" fill="#22c55e"/><circle cx="554.1" cy="182.2" r="3" fill="#22c55e"/><circle cx="574.7" cy="182.2" r="3" fill="#22c55e"/><circle cx="595.3" cy="182.2" r="3" fill="#22c55e"/><circle cx="615.9" cy="182.2" r="3" fill="#22c55e"/><circle cx="636.5" cy="182.3" r="3" fill="#22c55e"/><circle cx="657.1" cy="182.4" r="3" fill="#22c55e"/><circle cx="677.6" cy="182.5" r="3" fill="#22c55e"/><circle cx="698.2" cy="182.6" r="3" fill="#22c55e"/><circle cx="718.8" cy="182.7" r="3" fill="#22c55e"/><circle cx="739.4" cy="182.9" r="3" fill="#22c55e"/><circle cx="760.0" cy="183.1" r="3" fill="#22c55e"/>
  <circle cx="60.0" cy="211.1" r="3" fill="#3b82f6"/><circle cx="80.6" cy="210.2" r="3" fill="#3b82f6"/><circle cx="101.2" cy="209.7" r="3" fill="#3b82f6"/><circle cx="121.8" cy="209.2" r="3" fill="#3b82f6"/><circle cx="142.4" cy="208.7" r="3" fill="#3b82f6"/><circle cx="162.9" cy="208.3" r="3" fill="#3b82f6"/><circle cx="183.5" cy="207.9" r="3" fill="#3b82f6"/><circle cx="204.1" cy="207.5" r="3" fill="#3b82f6"/><circle cx="224.7" cy="207.0" r="3" fill="#3b82f6"/><circle cx="245.3" cy="206.2" r="3" fill="#3b82f6"/><circle cx="265.9" cy="205.0" r="3" fill="#3b82f6"/><circle cx="286.5" cy="204.1" r="3" fill="#3b82f6"/><circle cx="307.1" cy="203.2" r="3" fill="#3b82f6"/><circle cx="327.6" cy="202.5" r="3" fill="#3b82f6"/><circle cx="348.2" cy="201.9" r="3" fill="#3b82f6"/><circle cx="368.8" cy="201.0" r="3" fill="#3b82f6"/><circle cx="389.4" cy="200.3" r="3" fill="#3b82f6"/><circle cx="410.0" cy="199.9" r="3" fill="#3b82f6"/><circle cx="430.6" cy="199.6" r="3" fill="#3b82f6"/><circle cx="451.2" cy="199.4" r="3" fill="#3b82f6"/><circle cx="471.8" cy="199.3" r="3" fill="#3b82f6"/><circle cx="492.4" cy="199.0" r="3" fill="#3b82f6"/><circle cx="512.9" cy="198.9" r="3" fill="#3b82f6"/><circle cx="533.5" cy="198.9" r="3" fill="#3b82f6"/><circle cx="554.1" cy="198.7" r="3" fill="#3b82f6"/><circle cx="574.7" cy="198.7" r="3" fill="#3b82f6"/><circle cx="595.3" cy="198.8" r="3" fill="#3b82f6"/><circle cx="615.9" cy="198.8" r="3" fill="#3b82f6"/><circle cx="636.5" cy="198.8" r="3" fill="#3b82f6"/><circle cx="657.1" cy="198.9" r="3" fill="#3b82f6"/><circle cx="677.6" cy="199.0" r="3" fill="#3b82f6"/><circle cx="698.2" cy="199.2" r="3" fill="#3b82f6"/><circle cx="718.8" cy="199.4" r="3" fill="#3b82f6"/><circle cx="739.4" cy="199.5" r="3" fill="#3b82f6"/><circle cx="760.0" cy="199.7" r="3" fill="#3b82f6"/>

  <!-- X ekseni -->
  <text x="60.0" y="380" text-anchor="middle" font-size="10" fill="#888">14.05.2026</text>
  <text x="162.9" y="380" text-anchor="middle" font-size="10" fill="#888">19.05.2026</text>
  <text x="265.9" y="380" text-anchor="middle" font-size="10" fill="#888">24.05.2026</text>
  <text x="368.8" y="380" text-anchor="middle" font-size="10" fill="#888">29.05.2026</text>
  <text x="471.8" y="380" text-anchor="middle" font-size="10" fill="#888">03.06.2026</text>
  <text x="574.7" y="380" text-anchor="middle" font-size="10" fill="#888">08.06.2026</text>
  <text x="677.6" y="380" text-anchor="middle" font-size="10" fill="#888">13.06.2026</text>

  <!-- Legend -->
  <g transform="translate(60, 345)">
    <rect x="0" y="0" width="12" height="12" fill="#22c55e" rx="2"/>
    <text x="18" y="10" font-size="11" fill="#c9d1d9">Toplam Doluluk</text>
    <rect x="140" y="0" width="12" height="12" fill="#3b82f6" rx="2"/>
    <text x="158" y="10" font-size="11" fill="#c9d1d9">Aktif Doluluk</text>
  </g>
</svg>