<svg xmlns="http://www.w3.org/2000/svg" viewBox="0 0 900 400" width="100%" style="max-width:900px;">
  <rect width="900" height="400" fill="#0d1117" rx="6"/>
  <text x="450.0" y="25" text-anchor="middle" font-size="16" font-weight="bold" fill="#c9d1d9">Son 180 Gün - Günlük Ortalama</text>

  <!-- Y grid -->
  <line x1="60" y1="320.0" x2="860" y2="320.0" stroke="#333" stroke-width="1" stroke-dasharray="4,4" opacity="0.5"/>
  <text x="50" y="320.0" text-anchor="end" dominant-baseline="middle" font-size="10" fill="#888">0%</text>
  <line x1="60" y1="264.0" x2="860" y2="264.0" stroke="#333" stroke-width="1" stroke-dasharray="4,4" opacity="0.5"/>
  <text x="50" y="264.0" text-anchor="end" dominant-baseline="middle" font-size="10" fill="#888">20%</text>
  <line x1="60" y1="208.0" x2="860" y2="208.0" stroke="#333" stroke-width="1" stroke-dasharray="4,4" opacity="0.5"/>
  <text x="50" y="208.0" text-anchor="end" dominant-baseline="middle" font-size="10" fill="#888">40%</text>
  <line x1="60" y1="152.0" x2="860" y2="152.0" stroke="#333" stroke-width="1" stroke-dasharray="4,4" opacity="0.5"/>
  <text x="50" y="152.0" text-anchor="end" dominant-baseline="middle" font-size="10" fill="#888">60%</text>
  <line x1="60" y1="96.0" x2="860" y2="96.0" stroke="#333" stroke-width="1" stroke-dasharray="4,4" opacity="0.5"/>
  <text x="50" y="96.0" text-anchor="end" dominant-baseline="middle" font-size="10" fill="#888">80%</text>
  <line x1="60" y1="40.0" x2="860" y2="40.0" stroke="#333" stroke-width="1" stroke-dasharray="4,4" opacity="0.5"/>
  <text x="50" y="40.0" text-anchor="end" dominant-baseline="middle" font-size="10" fill="#888">100%</text>

  <!-- Referans çizgileri -->
  <line x1="60" y1="236.0" x2="860" y2="236.0" stroke="#ef4444" stroke-width="1" stroke-dasharray="2,2" opacity="0.7"/>
  <text x="845" y="236.0" dominant-baseline="middle" font-size="9" fill="#ef4444">Kritik (30%)</text>
  <line x1="60" y1="180.0" x2="860" y2="180.0" stroke="#eab308" stroke-width="1" stroke-dasharray="2,2" opacity="0.7"/>
  <text x="845" y="180.0" dominant-baseline="middle" font-size="9" fill="#eab308">Normal (50%)</text>

  <!-- Toplam doluluk -->
  <polyline points="60.0,193.2 74.8,192.5 89.6,192.0 104.4,191.6 119.3,191.1 134.1,190.8 148.9,190.4 163.7,190.1 178.5,189.6 193.3,188.8 208.1,187.8 223.0,187.0 237.8,186.2 252.6,185.6 267.4,185.0 282.2,184.3 297.0,183.6 311.9,183.2 326.7,182.9 341.5,182.7 356.3,182.7 371.1,182.4 385.9,182.3 400.7,182.3 415.6,182.2 430.4,182.2 445.2,182.2 460.0,182.2 474.8,182.3 489.6,182.4 504.4,182.5 519.3,182.6 534.1,182.7 548.9,182.9 563.7,183.1 578.5,183.2 593.3,183.3 608.1,183.4 623.0,183.5 637.8,183.7 652.6,183.9 667.4,184.2 682.2,184.4 697.0,184.7 711.9,185.0 726.7,185.3 741.5,185.6 756.3,186.0 771.1,186.3 785.9,186.6 800.7,187.0 815.6,187.3 830.4,187.6 845.2,188.0 860.0,188.3" fill="none" stroke="#22c55e" stroke-width="2.5" stroke-linecap="round" stroke-linejoin="round"/>
  <polyline points="60.0,193.2 74.8,192.5 89.6,192.0 104.4,191.6 119.3,191.1 134.1,190.8 148.9,190.4 163.7,190.1 178.5,189.6 193.3,188.8 208.1,187.8 223.0,187.0 237.8,186.2 252.6,185.6 267.4,185.0 282.2,184.3 297.0,183.6 311.9,183.2 326.7,182.9 341.5,182.7 356.3,182.7 371.1,182.4 385.9,182.3 400.7,182.3 415.6,182.2 430.4,182.2 445.2,182.2 460.0,182.2 474.8,182.3 489.6,182.4 504.4,182.5 519.3,182.6 534.1,182.7 548.9,182.9 563.7,183.1 578.5,183.2 593.3,183.3 608.1,183.4 623.0,183.5 637.8,183.7 652.6,183.9 667.4,184.2 682.2,184.4 697.0,184.7 711.9,185.0 726.7,185.3 741.5,185.6 756.3,186.0 771.1,186.3 785.9,186.6 800.7,187.0 815.6,187.3 830.4,187.6 845.2,188.0 860.0,188.3" fill="none" stroke="#22c55e" stroke-width="5" opacity="0.1" stroke-linecap="round" stroke-linejoin="round"/>

  <!-- Aktif doluluk -->
  <polyline points="60.0,211.1 74.8,210.2 89.6,209.7 104.4,209.2 119.3,208.7 134.1,208.3 148.9,207.9 163.7,207.5 178.5,207.0 193.3,206.2 208.1,205.0 223.0,204.1 237.8,203.2 252.6,202.5 267.4,201.9 282.2,201.0 297.0,200.3 311.9,199.9 326.7,199.6 341.5,199.4 356.3,199.3 371.1,199.0 385.9,198.9 400.7,198.9 415.6,198.7 430.4,198.7 445.2,198.8 460.0,198.8 474.8,198.8 489.6,198.9 504.4,199.0 519.3,199.2 534.1,199.4 548.9,199.5 563.7,199.7 578.5,199.8 593.3,200.0 608.1,200.1 623.0,200.2 637.8,200.4 652.6,200.7 667.4,201.0 682.2,201.3 697.0,201.6 711.9,201.8 726.7,202.2 741.5,202.6 756.3,203.0 771.1,203.3 785.9,203.7 800.7,204.1 815.6,204.4 830.4,204.8 845.2,205.2 860.0,205.5" fill="none" stroke="#3b82f6" stroke-width="2.5" stroke-linecap="round" stroke-linejoin="round"/>
  <polyline points="60.0,211.1 74.8,210.2 89.6,209.7 104.4,209.2 119.3,208.7 134.1,208.3 148.9,207.9 163.7,207.5 178.5,207.0 193.3,206.2 208.1,205.0 223.0,204.1 237.8,203.2 252.6,202.5 267.4,201.9 282.2,201.0 297.0,200.3 311.9,199.9 326.7,199.6 341.5,199.4 356.3,199.3 371.1,199.0 385.9,198.9 400.7,198.9 415.6,198.7 430.4,198.7 445.2,198.8 460.0,198.8 474.8,198.8 489.6,198.9 504.4,199.0 519.3,199.2 534.1,199.4 548.9,199.5 563.7,199.7 578.5,199.8 593.3,200.0 608.1,200.1 623.0,200.2 637.8,200.4 652.6,200.7 667.4,201.0 682.2,201.3 697.0,201.6 711.9,201.8 726.7,202.2 741.5,202.6 756.3,203.0 771.1,203.3 785.9,203.7 800.7,204.1 815.6,204.4 830.4,204.8 845.2,205.2 860.0,205.5" fill="none" stroke="#3b82f6" stroke-width="5" opacity="0.1" stroke-linecap="round" stroke-linejoin="round"/>

  <!-- Noktalar -->
  <circle cx="60.0" cy="193.2" r="3" fill="#22c55e"/><circle cx="74.8" cy="192.5" r="3" fill="#22c55e"/><circle cx="89.6" cy="192.0" r="3" fill="#22c55e"/><circle cx="104.4" cy="191.6" r="3" fill="#22c55e"/><circle cx="119.3" cy="191.1" r="3" fill="#22c55e"/><circle cx="134.1" cy="190.8" r="3" fill="#22c55e"/><circle cx="148.9" cy="190.4" r="3" fill="#22c55e"/><circle cx="163.7" cy="190.1" r="3" fill="#22c55e"/><circle cx="178.5" cy="189.6" r="3" fill="#22c55e"/><circle cx="193.3" cy="188.8" r="3" fill="#22c55e"/><circle cx="208.1" cy="187.8" r="3" fill="#22c55e"/><circle cx="223.0" cy="187.0" r="3" fill="#22c55e"/><circle cx="237.8" cy="186.2" r="3" fill="#22c55e"/><circle cx="252.6" cy="185.6" r="3" fill="#22c55e"/><circle cx="267.4" cy="185.0" r="3" fill="#22c55e"/><circle cx="282.2" cy="184.3" r="3" fill="#22c55e"/><circle cx="297.0" cy="183.6" r="3" fill="#22c55e"/><circle cx="311.9" cy="183.2" r="3" fill="#22c55e"/><circle cx="326.7" cy="182.9" r="3" fill="#22c55e"/><circle cx="341.5" cy="182.7" r="3" fill="#22c55e"/><circle cx="356.3" cy="182.7" r="3" fill="#22c55e"/><circle cx="371.1" cy="182.4" r="3" fill="#22c55e"/><circle cx="385.9" cy="182.3" r="3" fill="#22c55e"/><circle cx="400.7" cy="182.3" r="3" fill="#22c55e"/><circle cx="415.6" cy="182.2" r="3" fill="#22c55e"/><circle cx="430.4" cy="182.2" r="3" fill="#22c55e"/><circle cx="445.2" cy="182.2" r="3" fill="#22c55e"/><circle cx="460.0" cy="182.2" r="3" fill="#22c55e"/><circle cx="474.8" cy="182.3" r="3" fill="#22c55e"/><circle cx="489.6" cy="182.4" r="3" fill="#22c55e"/><circle cx="504.4" cy="182.5" r="3" fill="#22c55e"/><circle cx="519.3" cy="182.6" r="3" fill="#22c55e"/><circle cx="534.1" cy="182.7" r="3" fill="#22c55e"/><circle cx="548.9" cy="182.9" r="3" fill="#22c55e"/><circle cx="563.7" cy="183.1" r="3" fill="#22c55e"/><circle cx="578.5" cy="183.2" r="3" fill="#22c55e"/><circle cx="593.3" cy="183.3" r="3" fill="#22c55e"/><circle cx="608.1" cy="183.4" r="3" fill="#22c55e"/><circle cx="623.0" cy="183.5" r="3" fill="#22c55e"/><circle cx="637.8" cy="183.7" r="3" fill="#22c55e"/><circle cx="652.6" cy="183.9" r="3" fill="#22c55e"/><circle cx="667.4" cy="184.2" r="3" fill="#22c55e"/><circle cx="682.2" cy="184.4" r="3" fill="#22c55e"/><circle cx="697.0" cy="184.7" r="3" fill="#22c55e"/><circle cx="711.9" cy="185.0" r="3" fill="#22c55e"/><circle cx="726.7" cy="185.3" r="3" fill="#22c55e"/><circle cx="741.5" cy="185.6" r="3" fill="#22c55e"/><circle cx="756.3" cy="186.0" r="3" fill="#22c55e"/><circle cx="771.1" cy="186.3" r="3" fill="#22c55e"/><circle cx="785.9" cy="186.6" r="3" fill="#22c55e"/><circle cx="800.7" cy="187.0" r="3" fill="#22c55e"/><circle cx="815.6" cy="187.3" r="3" fill="#22c55e"/><circle cx="830.4" cy="187.6" r="3" fill="#22c55e"/><circle cx="845.2" cy="188.0" r="3" fill="#22c55e"/><circle cx="860.0" cy="188.3" r="3" fill="#22c55e"/>
  <circle cx="60.0" cy="211.1" r="3" fill="#3b82f6"/><circle cx="74.8" cy="210.2" r="3" fill="#3b82f6"/><circle cx="89.6" cy="209.7" r="3" fill="#3b82f6"/><circle cx="104.4" cy="209.2" r="3" fill="#3b82f6"/><circle cx="119.3" cy="208.7" r="3" fill="#3b82f6"/><circle cx="134.1" cy="208.3" r="3" fill="#3b82f6"/><circle cx="148.9" cy="207.9" r="3" fill="#3b82f6"/><circle cx="163.7" cy="207.5" r="3" fill="#3b82f6"/><circle cx="178.5" cy="207.0" r="3" fill="#3b82f6"/><circle cx="193.3" cy="206.2" r="3" fill="#3b82f6"/><circle cx="208.1" cy="205.0" r="3" fill="#3b82f6"/><circle cx="223.0" cy="204.1" r="3" fill="#3b82f6"/><circle cx="237.8" cy="203.2" r="3" fill="#3b82f6"/><circle cx="252.6" cy="202.5" r="3" fill="#3b82f6"/><circle cx="267.4" cy="201.9" r="3" fill="#3b82f6"/><circle cx="282.2" cy="201.0" r="3" fill="#3b82f6"/><circle cx="297.0" cy="200.3" r="3" fill="#3b82f6"/><circle cx="311.9" cy="199.9" r="3" fill="#3b82f6"/><circle cx="326.7" cy="199.6" r="3" fill="#3b82f6"/><circle cx="341.5" cy="199.4" r="3" fill="#3b82f6"/><circle cx="356.3" cy="199.3" r="3" fill="#3b82f6"/><circle cx="371.1" cy="199.0" r="3" fill="#3b82f6"/><circle cx="385.9" cy="198.9" r="3" fill="#3b82f6"/><circle cx="400.7" cy="198.9" r="3" fill="#3b82f6"/><circle cx="415.6" cy="198.7" r="3" fill="#3b82f6"/><circle cx="430.4" cy="198.7" r="3" fill="#3b82f6"/><circle cx="445.2" cy="198.8" r="3" fill="#3b82f6"/><circle cx="460.0" cy="198.8" r="3" fill="#3b82f6"/><circle cx="474.8" cy="198.8" r="3" fill="#3b82f6"/><circle cx="489.6" cy="198.9" r="3" fill="#3b82f6"/><circle cx="504.4" cy="199.0" r="3" fill="#3b82f6"/><circle cx="519.3" cy="199.2" r="3" fill="#3b82f6"/><circle cx="534.1" cy="199.4" r="3" fill="#3b82f6"/><circle cx="548.9" cy="199.5" r="3" fill="#3b82f6"/><circle cx="563.7" cy="199.7" r="3" fill="#3b82f6"/><circle cx="578.5" cy="199.8" r="3" fill="#3b82f6"/><circle cx="593.3" cy="200.0" r="3" fill="#3b82f6"/><circle cx="608.1" cy="200.1" r="3" fill="#3b82f6"/><circle cx="623.0" cy="200.2" r="3" fill="#3b82f6"/><circle cx="637.8" cy="200.4" r="3" fill="#3b82f6"/><circle cx="652.6" cy="200.7" r="3" fill="#3b82f6"/><circle cx="667.4" cy="201.0" r="3" fill="#3b82f6"/><circle cx="682.2" cy="201.3" r="3" fill="#3b82f6"/><circle cx="697.0" cy="201.6" r="3" fill="#3b82f6"/><circle cx="711.9" cy="201.8" r="3" fill="#3b82f6"/><circle cx="726.7" cy="202.2" r="3" fill="#3b82f6"/><circle cx="741.5" cy="202.6" r="3" fill="#3b82f6"/><circle cx="756.3" cy="203.0" r="3" fill="#3b82f6"/><circle cx="771.1" cy="203.3" r="3" fill="#3b82f6"/><circle cx="785.9" cy="203.7" r="3" fill="#3b82f6"/><circle cx="800.7" cy="204.1" r="3" fill="#3b82f6"/><circle cx="815.6" cy="204.4" r="3" fill="#3b82f6"/><circle cx="830.4" cy="204.8" r="3" fill="#3b82f6"/><circle cx="845.2" cy="205.2" r="3" fill="#3b82f6"/><circle cx="860.0" cy="205.5" r="3" fill="#3b82f6"/>

  <!-- X ekseni -->
  <text x="60.0" y="380" text-anchor="middle" font-size="10" fill="#888">14.05.2026</text>
  <text x="193.3" y="380" text-anchor="middle" font-size="10" fill="#888">23.05.2026</text>
  <text x="326.7" y="380" text-anchor="middle" font-size="10" fill="#888">01.06.2026</text>
  <text x="460.0" y="380" text-anchor="middle" font-size="10" fill="#888">10.06.2026</text>
  <text x="593.3" y="380" text-anchor="middle" font-size="10" fill="#888">19.06.2026</text>
  <text x="726.7" y="380" text-anchor="middle" font-size="10" fill="#888">28.06.2026</text>
  <text x="860.0" y="380" text-anchor="middle" font-size="10" fill="#888">07.07.2026</text>

  <!-- Legend -->
  <g transform="translate(60, 345)">
    <rect x="0" y="0" width="12" height="12" fill="#22c55e" rx="2"/>
    <text x="18" y="10" font-size="11" fill="#c9d1d9">Toplam Doluluk</text>
    <rect x="140" y="0" width="12" height="12" fill="#3b82f6" rx="2"/>
    <text x="158" y="10" font-size="11" fill="#c9d1d9">Aktif Doluluk</text>
  </g>
</svg>