<svg xmlns="http://www.w3.org/2000/svg" viewBox="0 0 900 400" width="100%" style="max-width:900px;">
  <rect width="900" height="400" fill="#0d1117" rx="6"/>
  <text x="450.0" y="25" text-anchor="middle" font-size="16" font-weight="bold" fill="#c9d1d9">Son 180 Gün - Günlük Ortalama</text>

  <!-- Y grid -->
  <line x1="60" y1="320.0" x2="860" y2="320.0" stroke="#333" stroke-width="1" stroke-dasharray="4,4" opacity="0.5"/>
  <text x="50" y="320.0" text-anchor="end" dominant-baseline="middle" font-size="10" fill="#888">0%</text>
  <line x1="60" y1="264.0" x2="860" y2="264.0" stroke="#333" stroke-width="1" stroke-dasharray="4,4" opacity="0.5"/>
  <text x="50" y="264.0" text-anchor="end" dominant-baseline="middle" font-size="10" fill="#888">20%</text>
  <line x1="60" y1="208.0" x2="860" y2="208.0" stroke="#333" stroke-width="1" stroke-dasharray="4,4" opacity="0.5"/>
  <text x="50" y="208.0" text-anchor="end" dominant-baseline="middle" font-size="10" fill="#888">40%</text>
  <line x1="60" y1="152.0" x2="860" y2="152.0" stroke="#333" stroke-width="1" stroke-dasharray="4,4" opacity="0.5"/>
  <text x="50" y="152.0" text-anchor="end" dominant-baseline="middle" font-size="10" fill="#888">60%</text>
  <line x1="60" y1="96.0" x2="860" y2="96.0" stroke="#333" stroke-width="1" stroke-dasharray="4,4" opacity="0.5"/>
  <text x="50" y="96.0" text-anchor="end" dominant-baseline="middle" font-size="10" fill="#888">80%</text>
  <line x1="60" y1="40.0" x2="860" y2="40.0" stroke="#333" stroke-width="1" stroke-dasharray="4,4" opacity="0.5"/>
  <text x="50" y="40.0" text-anchor="end" dominant-baseline="middle" font-size="10" fill="#888">100%</text>

  <!-- Referans çizgileri -->
  <line x1="60" y1="236.0" x2="860" y2="236.0" stroke="#ef4444" stroke-width="1" stroke-dasharray="2,2" opacity="0.7"/>
  <text x="865" y="236.0" dominant-baseline="middle" font-size="9" fill="#ef4444">Kritik (30%)</text>
  <line x1="60" y1="180.0" x2="860" y2="180.0" stroke="#eab308" stroke-width="1" stroke-dasharray="2,2" opacity="0.7"/>
  <text x="865" y="180.0" dominant-baseline="middle" font-size="9" fill="#eab308">Normal (50%)</text>

  <!-- Toplam doluluk -->
  <polyline points="60.0,193.2 132.7,192.5 205.5,192.0 278.2,191.6 350.9,191.1 423.6,190.8 496.4,190.4 569.1,190.1 641.8,189.6 714.5,188.8 787.3,187.8 860.0,187.0" fill="none" stroke="#22c55e" stroke-width="2.5" stroke-linecap="round" stroke-linejoin="round"/>
  <polyline points="60.0,193.2 132.7,192.5 205.5,192.0 278.2,191.6 350.9,191.1 423.6,190.8 496.4,190.4 569.1,190.1 641.8,189.6 714.5,188.8 787.3,187.8 860.0,187.0" fill="none" stroke="#22c55e" stroke-width="5" opacity="0.1" stroke-linecap="round" stroke-linejoin="round"/>

  <!-- Aktif doluluk -->
  <polyline points="60.0,211.1 132.7,210.2 205.5,209.7 278.2,209.2 350.9,208.7 423.6,208.3 496.4,207.9 569.1,207.5 641.8,207.0 714.5,206.2 787.3,205.0 860.0,204.1" fill="none" stroke="#3b82f6" stroke-width="2.5" stroke-linecap="round" stroke-linejoin="round"/>
  <polyline points="60.0,211.1 132.7,210.2 205.5,209.7 278.2,209.2 350.9,208.7 423.6,208.3 496.4,207.9 569.1,207.5 641.8,207.0 714.5,206.2 787.3,205.0 860.0,204.1" fill="none" stroke="#3b82f6" stroke-width="5" opacity="0.1" stroke-linecap="round" stroke-linejoin="round"/>

  <!-- Noktalar -->
  <circle cx="60.0" cy="193.2" r="3" fill="#22c55e"/><circle cx="132.7" cy="192.5" r="3" fill="#22c55e"/><circle cx="205.5" cy="192.0" r="3" fill="#22c55e"/><circle cx="278.2" cy="191.6" r="3" fill="#22c55e"/><circle cx="350.9" cy="191.1" r="3" fill="#22c55e"/><circle cx="423.6" cy="190.8" r="3" fill="#22c55e"/><circle cx="496.4" cy="190.4" r="3" fill="#22c55e"/><circle cx="569.1" cy="190.1" r="3" fill="#22c55e"/><circle cx="641.8" cy="189.6" r="3" fill="#22c55e"/><circle cx="714.5" cy="188.8" r="3" fill="#22c55e"/><circle cx="787.3" cy="187.8" r="3" fill="#22c55e"/><circle cx="860.0" cy="187.0" r="3" fill="#22c55e"/>
  <circle cx="60.0" cy="211.1" r="3" fill="#3b82f6"/><circle cx="132.7" cy="210.2" r="3" fill="#3b82f6"/><circle cx="205.5" cy="209.7" r="3" fill="#3b82f6"/><circle cx="278.2" cy="209.2" r="3" fill="#3b82f6"/><circle cx="350.9" cy="208.7" r="3" fill="#3b82f6"/><circle cx="423.6" cy="208.3" r="3" fill="#3b82f6"/><circle cx="496.4" cy="207.9" r="3" fill="#3b82f6"/><circle cx="569.1" cy="207.5" r="3" fill="#3b82f6"/><circle cx="641.8" cy="207.0" r="3" fill="#3b82f6"/><circle cx="714.5" cy="206.2" r="3" fill="#3b82f6"/><circle cx="787.3" cy="205.0" r="3" fill="#3b82f6"/><circle cx="860.0" cy="204.1" r="3" fill="#3b82f6"/>

  <!-- X ekseni -->
  <text x="60.0" y="380" text-anchor="middle" font-size="10" fill="#888">14.05 00:00</text>
  <text x="205.5" y="380" text-anchor="middle" font-size="10" fill="#888">16.05 00:00</text>
  <text x="350.9" y="380" text-anchor="middle" font-size="10" fill="#888">18.05 00:00</text>
  <text x="496.4" y="380" text-anchor="middle" font-size="10" fill="#888">20.05 00:00</text>
  <text x="641.8" y="380" text-anchor="middle" font-size="10" fill="#888">22.05 00:00</text>
  <text x="787.3" y="380" text-anchor="middle" font-size="10" fill="#888">24.05 00:00</text>

  <!-- Legend -->
  <g transform="translate(60, 345)">
    <rect x="0" y="0" width="12" height="12" fill="#22c55e" rx="2"/>
    <text x="18" y="10" font-size="11" fill="#c9d1d9">Toplam Doluluk</text>
    <rect x="140" y="0" width="12" height="12" fill="#3b82f6" rx="2"/>
    <text x="158" y="10" font-size="11" fill="#c9d1d9">Aktif Doluluk</text>
  </g>
</svg>