<svg xmlns="http://www.w3.org/2000/svg" viewBox="0 0 800 400" width="100%" style="max-width:800px;">
  <rect width="800" height="400" fill="#0d1117" rx="6"/>
  <text x="400.0" y="25" text-anchor="middle" font-size="16" font-weight="bold" fill="#c9d1d9">Son 90 Gün - Günlük Ortalama</text>

  <!-- Y grid -->
  <line x1="60" y1="320.0" x2="760" y2="320.0" stroke="#333" stroke-width="1" stroke-dasharray="4,4" opacity="0.5"/>
  <text x="50" y="320.0" text-anchor="end" dominant-baseline="middle" font-size="10" fill="#888">0%</text>
  <line x1="60" y1="264.0" x2="760" y2="264.0" stroke="#333" stroke-width="1" stroke-dasharray="4,4" opacity="0.5"/>
  <text x="50" y="264.0" text-anchor="end" dominant-baseline="middle" font-size="10" fill="#888">20%</text>
  <line x1="60" y1="208.0" x2="760" y2="208.0" stroke="#333" stroke-width="1" stroke-dasharray="4,4" opacity="0.5"/>
  <text x="50" y="208.0" text-anchor="end" dominant-baseline="middle" font-size="10" fill="#888">40%</text>
  <line x1="60" y1="152.0" x2="760" y2="152.0" stroke="#333" stroke-width="1" stroke-dasharray="4,4" opacity="0.5"/>
  <text x="50" y="152.0" text-anchor="end" dominant-baseline="middle" font-size="10" fill="#888">60%</text>
  <line x1="60" y1="96.0" x2="760" y2="96.0" stroke="#333" stroke-width="1" stroke-dasharray="4,4" opacity="0.5"/>
  <text x="50" y="96.0" text-anchor="end" dominant-baseline="middle" font-size="10" fill="#888">80%</text>
  <line x1="60" y1="40.0" x2="760" y2="40.0" stroke="#333" stroke-width="1" stroke-dasharray="4,4" opacity="0.5"/>
  <text x="50" y="40.0" text-anchor="end" dominant-baseline="middle" font-size="10" fill="#888">100%</text>

  <!-- Referans çizgileri -->
  <line x1="60" y1="236.0" x2="760" y2="236.0" stroke="#ef4444" stroke-width="1" stroke-dasharray="2,2" opacity="0.7"/>
  <text x="745" y="236.0" dominant-baseline="middle" font-size="9" fill="#ef4444">Kritik (30%)</text>
  <line x1="60" y1="180.0" x2="760" y2="180.0" stroke="#eab308" stroke-width="1" stroke-dasharray="2,2" opacity="0.7"/>
  <text x="745" y="180.0" dominant-baseline="middle" font-size="9" fill="#eab308">Normal (50%)</text>

  <!-- Toplam doluluk -->
  <polyline points="60.0,193.2 70.8,192.5 81.5,192.0 92.3,191.6 103.1,191.1 113.8,190.8 124.6,190.4 135.4,190.1 146.2,189.6 156.9,188.8 167.7,187.8 178.5,187.0 189.2,186.2 200.0,185.6 210.8,185.0 221.5,184.3 232.3,183.6 243.1,183.2 253.8,182.9 264.6,182.7 275.4,182.7 286.2,182.4 296.9,182.3 307.7,182.3 318.5,182.2 329.2,182.2 340.0,182.2 350.8,182.2 361.5,182.3 372.3,182.4 383.1,182.5 393.8,182.6 404.6,182.7 415.4,182.9 426.2,183.1 436.9,183.2 447.7,183.3 458.5,183.4 469.2,183.5 480.0,183.7 490.8,183.9 501.5,184.2 512.3,184.4 523.1,184.7 533.8,185.0 544.6,185.3 555.4,185.6 566.2,186.0 576.9,186.3 587.7,186.6 598.5,187.0 609.2,187.3 620.0,187.6 630.8,188.0 641.5,188.3 652.3,188.6 663.1,189.0 673.8,189.3 684.6,189.6 695.4,189.9 706.2,190.2 716.9,190.5 727.7,190.8 738.5,191.1 749.2,191.4 760.0,191.6" fill="none" stroke="#22c55e" stroke-width="2.5" stroke-linecap="round" stroke-linejoin="round"/>
  <polyline points="60.0,193.2 70.8,192.5 81.5,192.0 92.3,191.6 103.1,191.1 113.8,190.8 124.6,190.4 135.4,190.1 146.2,189.6 156.9,188.8 167.7,187.8 178.5,187.0 189.2,186.2 200.0,185.6 210.8,185.0 221.5,184.3 232.3,183.6 243.1,183.2 253.8,182.9 264.6,182.7 275.4,182.7 286.2,182.4 296.9,182.3 307.7,182.3 318.5,182.2 329.2,182.2 340.0,182.2 350.8,182.2 361.5,182.3 372.3,182.4 383.1,182.5 393.8,182.6 404.6,182.7 415.4,182.9 426.2,183.1 436.9,183.2 447.7,183.3 458.5,183.4 469.2,183.5 480.0,183.7 490.8,183.9 501.5,184.2 512.3,184.4 523.1,184.7 533.8,185.0 544.6,185.3 555.4,185.6 566.2,186.0 576.9,186.3 587.7,186.6 598.5,187.0 609.2,187.3 620.0,187.6 630.8,188.0 641.5,188.3 652.3,188.6 663.1,189.0 673.8,189.3 684.6,189.6 695.4,189.9 706.2,190.2 716.9,190.5 727.7,190.8 738.5,191.1 749.2,191.4 760.0,191.6" fill="none" stroke="#22c55e" stroke-width="5" opacity="0.1" stroke-linecap="round" stroke-linejoin="round"/>

  <!-- Aktif doluluk -->
  <polyline points="60.0,211.1 70.8,210.2 81.5,209.7 92.3,209.2 103.1,208.7 113.8,208.3 124.6,207.9 135.4,207.5 146.2,207.0 156.9,206.2 167.7,205.0 178.5,204.1 189.2,203.2 200.0,202.5 210.8,201.9 221.5,201.0 232.3,200.3 243.1,199.9 253.8,199.6 264.6,199.4 275.4,199.3 286.2,199.0 296.9,198.9 307.7,198.9 318.5,198.7 329.2,198.7 340.0,198.8 350.8,198.8 361.5,198.8 372.3,198.9 383.1,199.0 393.8,199.2 404.6,199.4 415.4,199.5 426.2,199.7 436.9,199.8 447.7,200.0 458.5,200.1 469.2,200.2 480.0,200.4 490.8,200.7 501.5,201.0 512.3,201.3 523.1,201.6 533.8,201.8 544.6,202.2 555.4,202.6 566.2,203.0 576.9,203.3 587.7,203.7 598.5,204.1 609.2,204.4 620.0,204.8 630.8,205.2 641.5,205.5 652.3,205.9 663.1,206.3 673.8,206.7 684.6,207.0 695.4,207.4 706.2,207.7 716.9,208.0 727.7,208.3 738.5,208.7 749.2,209.0 760.0,209.3" fill="none" stroke="#3b82f6" stroke-width="2.5" stroke-linecap="round" stroke-linejoin="round"/>
  <polyline points="60.0,211.1 70.8,210.2 81.5,209.7 92.3,209.2 103.1,208.7 113.8,208.3 124.6,207.9 135.4,207.5 146.2,207.0 156.9,206.2 167.7,205.0 178.5,204.1 189.2,203.2 200.0,202.5 210.8,201.9 221.5,201.0 232.3,200.3 243.1,199.9 253.8,199.6 264.6,199.4 275.4,199.3 286.2,199.0 296.9,198.9 307.7,198.9 318.5,198.7 329.2,198.7 340.0,198.8 350.8,198.8 361.5,198.8 372.3,198.9 383.1,199.0 393.8,199.2 404.6,199.4 415.4,199.5 426.2,199.7 436.9,199.8 447.7,200.0 458.5,200.1 469.2,200.2 480.0,200.4 490.8,200.7 501.5,201.0 512.3,201.3 523.1,201.6 533.8,201.8 544.6,202.2 555.4,202.6 566.2,203.0 576.9,203.3 587.7,203.7 598.5,204.1 609.2,204.4 620.0,204.8 630.8,205.2 641.5,205.5 652.3,205.9 663.1,206.3 673.8,206.7 684.6,207.0 695.4,207.4 706.2,207.7 716.9,208.0 727.7,208.3 738.5,208.7 749.2,209.0 760.0,209.3" fill="none" stroke="#3b82f6" stroke-width="5" opacity="0.1" stroke-linecap="round" stroke-linejoin="round"/>

  <!-- Noktalar -->
  <circle cx="60.0" cy="193.2" r="3" fill="#22c55e"/><circle cx="70.8" cy="192.5" r="3" fill="#22c55e"/><circle cx="81.5" cy="192.0" r="3" fill="#22c55e"/><circle cx="92.3" cy="191.6" r="3" fill="#22c55e"/><circle cx="103.1" cy="191.1" r="3" fill="#22c55e"/><circle cx="113.8" cy="190.8" r="3" fill="#22c55e"/><circle cx="124.6" cy="190.4" r="3" fill="#22c55e"/><circle cx="135.4" cy="190.1" r="3" fill="#22c55e"/><circle cx="146.2" cy="189.6" r="3" fill="#22c55e"/><circle cx="156.9" cy="188.8" r="3" fill="#22c55e"/><circle cx="167.7" cy="187.8" r="3" fill="#22c55e"/><circle cx="178.5" cy="187.0" r="3" fill="#22c55e"/><circle cx="189.2" cy="186.2" r="3" fill="#22c55e"/><circle cx="200.0" cy="185.6" r="3" fill="#22c55e"/><circle cx="210.8" cy="185.0" r="3" fill="#22c55e"/><circle cx="221.5" cy="184.3" r="3" fill="#22c55e"/><circle cx="232.3" cy="183.6" r="3" fill="#22c55e"/><circle cx="243.1" cy="183.2" r="3" fill="#22c55e"/><circle cx="253.8" cy="182.9" r="3" fill="#22c55e"/><circle cx="264.6" cy="182.7" r="3" fill="#22c55e"/><circle cx="275.4" cy="182.7" r="3" fill="#22c55e"/><circle cx="286.2" cy="182.4" r="3" fill="#22c55e"/><circle cx="296.9" cy="182.3" r="3" fill="#22c55e"/><circle cx="307.7" cy="182.3" r="3" fill="#22c55e"/><circle cx="318.5" cy="182.2" r="3" fill="#22c55e"/><circle cx="329.2" cy="182.2" r="3" fill="#22c55e"/><circle cx="340.0" cy="182.2" r="3" fill="#22c55e"/><circle cx="350.8" cy="182.2" r="3" fill="#22c55e"/><circle cx="361.5" cy="182.3" r="3" fill="#22c55e"/><circle cx="372.3" cy="182.4" r="3" fill="#22c55e"/><circle cx="383.1" cy="182.5" r="3" fill="#22c55e"/><circle cx="393.8" cy="182.6" r="3" fill="#22c55e"/><circle cx="404.6" cy="182.7" r="3" fill="#22c55e"/><circle cx="415.4" cy="182.9" r="3" fill="#22c55e"/><circle cx="426.2" cy="183.1" r="3" fill="#22c55e"/><circle cx="436.9" cy="183.2" r="3" fill="#22c55e"/><circle cx="447.7" cy="183.3" r="3" fill="#22c55e"/><circle cx="458.5" cy="183.4" r="3" fill="#22c55e"/><circle cx="469.2" cy="183.5" r="3" fill="#22c55e"/><circle cx="480.0" cy="183.7" r="3" fill="#22c55e"/><circle cx="490.8" cy="183.9" r="3" fill="#22c55e"/><circle cx="501.5" cy="184.2" r="3" fill="#22c55e"/><circle cx="512.3" cy="184.4" r="3" fill="#22c55e"/><circle cx="523.1" cy="184.7" r="3" fill="#22c55e"/><circle cx="533.8" cy="185.0" r="3" fill="#22c55e"/><circle cx="544.6" cy="185.3" r="3" fill="#22c55e"/><circle cx="555.4" cy="185.6" r="3" fill="#22c55e"/><circle cx="566.2" cy="186.0" r="3" fill="#22c55e"/><circle cx="576.9" cy="186.3" r="3" fill="#22c55e"/><circle cx="587.7" cy="186.6" r="3" fill="#22c55e"/><circle cx="598.5" cy="187.0" r="3" fill="#22c55e"/><circle cx="609.2" cy="187.3" r="3" fill="#22c55e"/><circle cx="620.0" cy="187.6" r="3" fill="#22c55e"/><circle cx="630.8" cy="188.0" r="3" fill="#22c55e"/><circle cx="641.5" cy="188.3" r="3" fill="#22c55e"/><circle cx="652.3" cy="188.6" r="3" fill="#22c55e"/><circle cx="663.1" cy="189.0" r="3" fill="#22c55e"/><circle cx="673.8" cy="189.3" r="3" fill="#22c55e"/><circle cx="684.6" cy="189.6" r="3" fill="#22c55e"/><circle cx="695.4" cy="189.9" r="3" fill="#22c55e"/><circle cx="706.2" cy="190.2" r="3" fill="#22c55e"/><circle cx="716.9" cy="190.5" r="3" fill="#22c55e"/><circle cx="727.7" cy="190.8" r="3" fill="#22c55e"/><circle cx="738.5" cy="191.1" r="3" fill="#22c55e"/><circle cx="749.2" cy="191.4" r="3" fill="#22c55e"/><circle cx="760.0" cy="191.6" r="3" fill="#22c55e"/>
  <circle cx="60.0" cy="211.1" r="3" fill="#3b82f6"/><circle cx="70.8" cy="210.2" r="3" fill="#3b82f6"/><circle cx="81.5" cy="209.7" r="3" fill="#3b82f6"/><circle cx="92.3" cy="209.2" r="3" fill="#3b82f6"/><circle cx="103.1" cy="208.7" r="3" fill="#3b82f6"/><circle cx="113.8" cy="208.3" r="3" fill="#3b82f6"/><circle cx="124.6" cy="207.9" r="3" fill="#3b82f6"/><circle cx="135.4" cy="207.5" r="3" fill="#3b82f6"/><circle cx="146.2" cy="207.0" r="3" fill="#3b82f6"/><circle cx="156.9" cy="206.2" r="3" fill="#3b82f6"/><circle cx="167.7" cy="205.0" r="3" fill="#3b82f6"/><circle cx="178.5" cy="204.1" r="3" fill="#3b82f6"/><circle cx="189.2" cy="203.2" r="3" fill="#3b82f6"/><circle cx="200.0" cy="202.5" r="3" fill="#3b82f6"/><circle cx="210.8" cy="201.9" r="3" fill="#3b82f6"/><circle cx="221.5" cy="201.0" r="3" fill="#3b82f6"/><circle cx="232.3" cy="200.3" r="3" fill="#3b82f6"/><circle cx="243.1" cy="199.9" r="3" fill="#3b82f6"/><circle cx="253.8" cy="199.6" r="3" fill="#3b82f6"/><circle cx="264.6" cy="199.4" r="3" fill="#3b82f6"/><circle cx="275.4" cy="199.3" r="3" fill="#3b82f6"/><circle cx="286.2" cy="199.0" r="3" fill="#3b82f6"/><circle cx="296.9" cy="198.9" r="3" fill="#3b82f6"/><circle cx="307.7" cy="198.9" r="3" fill="#3b82f6"/><circle cx="318.5" cy="198.7" r="3" fill="#3b82f6"/><circle cx="329.2" cy="198.7" r="3" fill="#3b82f6"/><circle cx="340.0" cy="198.8" r="3" fill="#3b82f6"/><circle cx="350.8" cy="198.8" r="3" fill="#3b82f6"/><circle cx="361.5" cy="198.8" r="3" fill="#3b82f6"/><circle cx="372.3" cy="198.9" r="3" fill="#3b82f6"/><circle cx="383.1" cy="199.0" r="3" fill="#3b82f6"/><circle cx="393.8" cy="199.2" r="3" fill="#3b82f6"/><circle cx="404.6" cy="199.4" r="3" fill="#3b82f6"/><circle cx="415.4" cy="199.5" r="3" fill="#3b82f6"/><circle cx="426.2" cy="199.7" r="3" fill="#3b82f6"/><circle cx="436.9" cy="199.8" r="3" fill="#3b82f6"/><circle cx="447.7" cy="200.0" r="3" fill="#3b82f6"/><circle cx="458.5" cy="200.1" r="3" fill="#3b82f6"/><circle cx="469.2" cy="200.2" r="3" fill="#3b82f6"/><circle cx="480.0" cy="200.4" r="3" fill="#3b82f6"/><circle cx="490.8" cy="200.7" r="3" fill="#3b82f6"/><circle cx="501.5" cy="201.0" r="3" fill="#3b82f6"/><circle cx="512.3" cy="201.3" r="3" fill="#3b82f6"/><circle cx="523.1" cy="201.6" r="3" fill="#3b82f6"/><circle cx="533.8" cy="201.8" r="3" fill="#3b82f6"/><circle cx="544.6" cy="202.2" r="3" fill="#3b82f6"/><circle cx="555.4" cy="202.6" r="3" fill="#3b82f6"/><circle cx="566.2" cy="203.0" r="3" fill="#3b82f6"/><circle cx="576.9" cy="203.3" r="3" fill="#3b82f6"/><circle cx="587.7" cy="203.7" r="3" fill="#3b82f6"/><circle cx="598.5" cy="204.1" r="3" fill="#3b82f6"/><circle cx="609.2" cy="204.4" r="3" fill="#3b82f6"/><circle cx="620.0" cy="204.8" r="3" fill="#3b82f6"/><circle cx="630.8" cy="205.2" r="3" fill="#3b82f6"/><circle cx="641.5" cy="205.5" r="3" fill="#3b82f6"/><circle cx="652.3" cy="205.9" r="3" fill="#3b82f6"/><circle cx="663.1" cy="206.3" r="3" fill="#3b82f6"/><circle cx="673.8" cy="206.7" r="3" fill="#3b82f6"/><circle cx="684.6" cy="207.0" r="3" fill="#3b82f6"/><circle cx="695.4" cy="207.4" r="3" fill="#3b82f6"/><circle cx="706.2" cy="207.7" r="3" fill="#3b82f6"/><circle cx="716.9" cy="208.0" r="3" fill="#3b82f6"/><circle cx="727.7" cy="208.3" r="3" fill="#3b82f6"/><circle cx="738.5" cy="208.7" r="3" fill="#3b82f6"/><circle cx="749.2" cy="209.0" r="3" fill="#3b82f6"/><circle cx="760.0" cy="209.3" r="3" fill="#3b82f6"/>

  <!-- X ekseni -->
  <text x="60.0" y="380" text-anchor="middle" font-size="10" fill="#888">14.05.2026</text>
  <text x="178.5" y="380" text-anchor="middle" font-size="10" fill="#888">25.05.2026</text>
  <text x="296.9" y="380" text-anchor="middle" font-size="10" fill="#888">05.06.2026</text>
  <text x="415.4" y="380" text-anchor="middle" font-size="10" fill="#888">16.06.2026</text>
  <text x="533.8" y="380" text-anchor="middle" font-size="10" fill="#888">27.06.2026</text>
  <text x="652.3" y="380" text-anchor="middle" font-size="10" fill="#888">08.07.2026</text>

  <!-- Legend -->
  <g transform="translate(60, 345)">
    <rect x="0" y="0" width="12" height="12" fill="#22c55e" rx="2"/>
    <text x="18" y="10" font-size="11" fill="#c9d1d9">Toplam Doluluk</text>
    <rect x="140" y="0" width="12" height="12" fill="#3b82f6" rx="2"/>
    <text x="158" y="10" font-size="11" fill="#c9d1d9">Aktif Doluluk</text>
  </g>
</svg>