<svg xmlns="http://www.w3.org/2000/svg" viewBox="0 0 800 400" width="100%" style="max-width:800px;">
  <rect width="800" height="400" fill="#0d1117" rx="6"/>
  <text x="400.0" y="25" text-anchor="middle" font-size="16" font-weight="bold" fill="#c9d1d9">Son 90 Gün - Günlük Ortalama</text>

  <!-- Y grid -->
  <line x1="60" y1="320.0" x2="760" y2="320.0" stroke="#333" stroke-width="1" stroke-dasharray="4,4" opacity="0.5"/>
  <text x="50" y="320.0" text-anchor="end" dominant-baseline="middle" font-size="10" fill="#888">0%</text>
  <line x1="60" y1="264.0" x2="760" y2="264.0" stroke="#333" stroke-width="1" stroke-dasharray="4,4" opacity="0.5"/>
  <text x="50" y="264.0" text-anchor="end" dominant-baseline="middle" font-size="10" fill="#888">20%</text>
  <line x1="60" y1="208.0" x2="760" y2="208.0" stroke="#333" stroke-width="1" stroke-dasharray="4,4" opacity="0.5"/>
  <text x="50" y="208.0" text-anchor="end" dominant-baseline="middle" font-size="10" fill="#888">40%</text>
  <line x1="60" y1="152.0" x2="760" y2="152.0" stroke="#333" stroke-width="1" stroke-dasharray="4,4" opacity="0.5"/>
  <text x="50" y="152.0" text-anchor="end" dominant-baseline="middle" font-size="10" fill="#888">60%</text>
  <line x1="60" y1="96.0" x2="760" y2="96.0" stroke="#333" stroke-width="1" stroke-dasharray="4,4" opacity="0.5"/>
  <text x="50" y="96.0" text-anchor="end" dominant-baseline="middle" font-size="10" fill="#888">80%</text>
  <line x1="60" y1="40.0" x2="760" y2="40.0" stroke="#333" stroke-width="1" stroke-dasharray="4,4" opacity="0.5"/>
  <text x="50" y="40.0" text-anchor="end" dominant-baseline="middle" font-size="10" fill="#888">100%</text>

  <!-- Referans çizgileri -->
  <line x1="60" y1="236.0" x2="760" y2="236.0" stroke="#ef4444" stroke-width="1" stroke-dasharray="2,2" opacity="0.7"/>
  <text x="745" y="236.0" dominant-baseline="middle" font-size="9" fill="#ef4444">Kritik (30%)</text>
  <line x1="60" y1="180.0" x2="760" y2="180.0" stroke="#eab308" stroke-width="1" stroke-dasharray="2,2" opacity="0.7"/>
  <text x="745" y="180.0" dominant-baseline="middle" font-size="9" fill="#eab308">Normal (50%)</text>

  <!-- Toplam doluluk -->
  <polyline points="60.0,193.2 73.2,192.5 86.4,192.0 99.6,191.6 112.8,191.1 126.0,190.8 139.2,190.4 152.5,190.1 165.7,189.6 178.9,188.8 192.1,187.8 205.3,187.0 218.5,186.2 231.7,185.6 244.9,185.0 258.1,184.3 271.3,183.6 284.5,183.2 297.7,182.9 310.9,182.7 324.2,182.7 337.4,182.4 350.6,182.3 363.8,182.3 377.0,182.2 390.2,182.2 403.4,182.2 416.6,182.2 429.8,182.3 443.0,182.4 456.2,182.5 469.4,182.6 482.6,182.7 495.8,182.9 509.1,183.1 522.3,183.2 535.5,183.3 548.7,183.4 561.9,183.5 575.1,183.7 588.3,183.9 601.5,184.2 614.7,184.4 627.9,184.7 641.1,185.0 654.3,185.3 667.5,185.6 680.8,186.0 694.0,186.3 707.2,186.6 720.4,187.0 733.6,187.3 746.8,187.6 760.0,188.0" fill="none" stroke="#22c55e" stroke-width="2.5" stroke-linecap="round" stroke-linejoin="round"/>
  <polyline points="60.0,193.2 73.2,192.5 86.4,192.0 99.6,191.6 112.8,191.1 126.0,190.8 139.2,190.4 152.5,190.1 165.7,189.6 178.9,188.8 192.1,187.8 205.3,187.0 218.5,186.2 231.7,185.6 244.9,185.0 258.1,184.3 271.3,183.6 284.5,183.2 297.7,182.9 310.9,182.7 324.2,182.7 337.4,182.4 350.6,182.3 363.8,182.3 377.0,182.2 390.2,182.2 403.4,182.2 416.6,182.2 429.8,182.3 443.0,182.4 456.2,182.5 469.4,182.6 482.6,182.7 495.8,182.9 509.1,183.1 522.3,183.2 535.5,183.3 548.7,183.4 561.9,183.5 575.1,183.7 588.3,183.9 601.5,184.2 614.7,184.4 627.9,184.7 641.1,185.0 654.3,185.3 667.5,185.6 680.8,186.0 694.0,186.3 707.2,186.6 720.4,187.0 733.6,187.3 746.8,187.6 760.0,188.0" fill="none" stroke="#22c55e" stroke-width="5" opacity="0.1" stroke-linecap="round" stroke-linejoin="round"/>

  <!-- Aktif doluluk -->
  <polyline points="60.0,211.1 73.2,210.2 86.4,209.7 99.6,209.2 112.8,208.7 126.0,208.3 139.2,207.9 152.5,207.5 165.7,207.0 178.9,206.2 192.1,205.0 205.3,204.1 218.5,203.2 231.7,202.5 244.9,201.9 258.1,201.0 271.3,200.3 284.5,199.9 297.7,199.6 310.9,199.4 324.2,199.3 337.4,199.0 350.6,198.9 363.8,198.9 377.0,198.7 390.2,198.7 403.4,198.8 416.6,198.8 429.8,198.8 443.0,198.9 456.2,199.0 469.4,199.2 482.6,199.4 495.8,199.5 509.1,199.7 522.3,199.8 535.5,200.0 548.7,200.1 561.9,200.2 575.1,200.4 588.3,200.7 601.5,201.0 614.7,201.3 627.9,201.6 641.1,201.8 654.3,202.2 667.5,202.6 680.8,203.0 694.0,203.3 707.2,203.7 720.4,204.1 733.6,204.4 746.8,204.8 760.0,205.2" fill="none" stroke="#3b82f6" stroke-width="2.5" stroke-linecap="round" stroke-linejoin="round"/>
  <polyline points="60.0,211.1 73.2,210.2 86.4,209.7 99.6,209.2 112.8,208.7 126.0,208.3 139.2,207.9 152.5,207.5 165.7,207.0 178.9,206.2 192.1,205.0 205.3,204.1 218.5,203.2 231.7,202.5 244.9,201.9 258.1,201.0 271.3,200.3 284.5,199.9 297.7,199.6 310.9,199.4 324.2,199.3 337.4,199.0 350.6,198.9 363.8,198.9 377.0,198.7 390.2,198.7 403.4,198.8 416.6,198.8 429.8,198.8 443.0,198.9 456.2,199.0 469.4,199.2 482.6,199.4 495.8,199.5 509.1,199.7 522.3,199.8 535.5,200.0 548.7,200.1 561.9,200.2 575.1,200.4 588.3,200.7 601.5,201.0 614.7,201.3 627.9,201.6 641.1,201.8 654.3,202.2 667.5,202.6 680.8,203.0 694.0,203.3 707.2,203.7 720.4,204.1 733.6,204.4 746.8,204.8 760.0,205.2" fill="none" stroke="#3b82f6" stroke-width="5" opacity="0.1" stroke-linecap="round" stroke-linejoin="round"/>

  <!-- Noktalar -->
  <circle cx="60.0" cy="193.2" r="3" fill="#22c55e"/><circle cx="73.2" cy="192.5" r="3" fill="#22c55e"/><circle cx="86.4" cy="192.0" r="3" fill="#22c55e"/><circle cx="99.6" cy="191.6" r="3" fill="#22c55e"/><circle cx="112.8" cy="191.1" r="3" fill="#22c55e"/><circle cx="126.0" cy="190.8" r="3" fill="#22c55e"/><circle cx="139.2" cy="190.4" r="3" fill="#22c55e"/><circle cx="152.5" cy="190.1" r="3" fill="#22c55e"/><circle cx="165.7" cy="189.6" r="3" fill="#22c55e"/><circle cx="178.9" cy="188.8" r="3" fill="#22c55e"/><circle cx="192.1" cy="187.8" r="3" fill="#22c55e"/><circle cx="205.3" cy="187.0" r="3" fill="#22c55e"/><circle cx="218.5" cy="186.2" r="3" fill="#22c55e"/><circle cx="231.7" cy="185.6" r="3" fill="#22c55e"/><circle cx="244.9" cy="185.0" r="3" fill="#22c55e"/><circle cx="258.1" cy="184.3" r="3" fill="#22c55e"/><circle cx="271.3" cy="183.6" r="3" fill="#22c55e"/><circle cx="284.5" cy="183.2" r="3" fill="#22c55e"/><circle cx="297.7" cy="182.9" r="3" fill="#22c55e"/><circle cx="310.9" cy="182.7" r="3" fill="#22c55e"/><circle cx="324.2" cy="182.7" r="3" fill="#22c55e"/><circle cx="337.4" cy="182.4" r="3" fill="#22c55e"/><circle cx="350.6" cy="182.3" r="3" fill="#22c55e"/><circle cx="363.8" cy="182.3" r="3" fill="#22c55e"/><circle cx="377.0" cy="182.2" r="3" fill="#22c55e"/><circle cx="390.2" cy="182.2" r="3" fill="#22c55e"/><circle cx="403.4" cy="182.2" r="3" fill="#22c55e"/><circle cx="416.6" cy="182.2" r="3" fill="#22c55e"/><circle cx="429.8" cy="182.3" r="3" fill="#22c55e"/><circle cx="443.0" cy="182.4" r="3" fill="#22c55e"/><circle cx="456.2" cy="182.5" r="3" fill="#22c55e"/><circle cx="469.4" cy="182.6" r="3" fill="#22c55e"/><circle cx="482.6" cy="182.7" r="3" fill="#22c55e"/><circle cx="495.8" cy="182.9" r="3" fill="#22c55e"/><circle cx="509.1" cy="183.1" r="3" fill="#22c55e"/><circle cx="522.3" cy="183.2" r="3" fill="#22c55e"/><circle cx="535.5" cy="183.3" r="3" fill="#22c55e"/><circle cx="548.7" cy="183.4" r="3" fill="#22c55e"/><circle cx="561.9" cy="183.5" r="3" fill="#22c55e"/><circle cx="575.1" cy="183.7" r="3" fill="#22c55e"/><circle cx="588.3" cy="183.9" r="3" fill="#22c55e"/><circle cx="601.5" cy="184.2" r="3" fill="#22c55e"/><circle cx="614.7" cy="184.4" r="3" fill="#22c55e"/><circle cx="627.9" cy="184.7" r="3" fill="#22c55e"/><circle cx="641.1" cy="185.0" r="3" fill="#22c55e"/><circle cx="654.3" cy="185.3" r="3" fill="#22c55e"/><circle cx="667.5" cy="185.6" r="3" fill="#22c55e"/><circle cx="680.8" cy="186.0" r="3" fill="#22c55e"/><circle cx="694.0" cy="186.3" r="3" fill="#22c55e"/><circle cx="707.2" cy="186.6" r="3" fill="#22c55e"/><circle cx="720.4" cy="187.0" r="3" fill="#22c55e"/><circle cx="733.6" cy="187.3" r="3" fill="#22c55e"/><circle cx="746.8" cy="187.6" r="3" fill="#22c55e"/><circle cx="760.0" cy="188.0" r="3" fill="#22c55e"/>
  <circle cx="60.0" cy="211.1" r="3" fill="#3b82f6"/><circle cx="73.2" cy="210.2" r="3" fill="#3b82f6"/><circle cx="86.4" cy="209.7" r="3" fill="#3b82f6"/><circle cx="99.6" cy="209.2" r="3" fill="#3b82f6"/><circle cx="112.8" cy="208.7" r="3" fill="#3b82f6"/><circle cx="126.0" cy="208.3" r="3" fill="#3b82f6"/><circle cx="139.2" cy="207.9" r="3" fill="#3b82f6"/><circle cx="152.5" cy="207.5" r="3" fill="#3b82f6"/><circle cx="165.7" cy="207.0" r="3" fill="#3b82f6"/><circle cx="178.9" cy="206.2" r="3" fill="#3b82f6"/><circle cx="192.1" cy="205.0" r="3" fill="#3b82f6"/><circle cx="205.3" cy="204.1" r="3" fill="#3b82f6"/><circle cx="218.5" cy="203.2" r="3" fill="#3b82f6"/><circle cx="231.7" cy="202.5" r="3" fill="#3b82f6"/><circle cx="244.9" cy="201.9" r="3" fill="#3b82f6"/><circle cx="258.1" cy="201.0" r="3" fill="#3b82f6"/><circle cx="271.3" cy="200.3" r="3" fill="#3b82f6"/><circle cx="284.5" cy="199.9" r="3" fill="#3b82f6"/><circle cx="297.7" cy="199.6" r="3" fill="#3b82f6"/><circle cx="310.9" cy="199.4" r="3" fill="#3b82f6"/><circle cx="324.2" cy="199.3" r="3" fill="#3b82f6"/><circle cx="337.4" cy="199.0" r="3" fill="#3b82f6"/><circle cx="350.6" cy="198.9" r="3" fill="#3b82f6"/><circle cx="363.8" cy="198.9" r="3" fill="#3b82f6"/><circle cx="377.0" cy="198.7" r="3" fill="#3b82f6"/><circle cx="390.2" cy="198.7" r="3" fill="#3b82f6"/><circle cx="403.4" cy="198.8" r="3" fill="#3b82f6"/><circle cx="416.6" cy="198.8" r="3" fill="#3b82f6"/><circle cx="429.8" cy="198.8" r="3" fill="#3b82f6"/><circle cx="443.0" cy="198.9" r="3" fill="#3b82f6"/><circle cx="456.2" cy="199.0" r="3" fill="#3b82f6"/><circle cx="469.4" cy="199.2" r="3" fill="#3b82f6"/><circle cx="482.6" cy="199.4" r="3" fill="#3b82f6"/><circle cx="495.8" cy="199.5" r="3" fill="#3b82f6"/><circle cx="509.1" cy="199.7" r="3" fill="#3b82f6"/><circle cx="522.3" cy="199.8" r="3" fill="#3b82f6"/><circle cx="535.5" cy="200.0" r="3" fill="#3b82f6"/><circle cx="548.7" cy="200.1" r="3" fill="#3b82f6"/><circle cx="561.9" cy="200.2" r="3" fill="#3b82f6"/><circle cx="575.1" cy="200.4" r="3" fill="#3b82f6"/><circle cx="588.3" cy="200.7" r="3" fill="#3b82f6"/><circle cx="601.5" cy="201.0" r="3" fill="#3b82f6"/><circle cx="614.7" cy="201.3" r="3" fill="#3b82f6"/><circle cx="627.9" cy="201.6" r="3" fill="#3b82f6"/><circle cx="641.1" cy="201.8" r="3" fill="#3b82f6"/><circle cx="654.3" cy="202.2" r="3" fill="#3b82f6"/><circle cx="667.5" cy="202.6" r="3" fill="#3b82f6"/><circle cx="680.8" cy="203.0" r="3" fill="#3b82f6"/><circle cx="694.0" cy="203.3" r="3" fill="#3b82f6"/><circle cx="707.2" cy="203.7" r="3" fill="#3b82f6"/><circle cx="720.4" cy="204.1" r="3" fill="#3b82f6"/><circle cx="733.6" cy="204.4" r="3" fill="#3b82f6"/><circle cx="746.8" cy="204.8" r="3" fill="#3b82f6"/><circle cx="760.0" cy="205.2" r="3" fill="#3b82f6"/>

  <!-- X ekseni -->
  <text x="60.0" y="380" text-anchor="middle" font-size="10" fill="#888">14.05.2026</text>
  <text x="178.9" y="380" text-anchor="middle" font-size="10" fill="#888">23.05.2026</text>
  <text x="297.7" y="380" text-anchor="middle" font-size="10" fill="#888">01.06.2026</text>
  <text x="416.6" y="380" text-anchor="middle" font-size="10" fill="#888">10.06.2026</text>
  <text x="535.5" y="380" text-anchor="middle" font-size="10" fill="#888">19.06.2026</text>
  <text x="654.3" y="380" text-anchor="middle" font-size="10" fill="#888">28.06.2026</text>

  <!-- Legend -->
  <g transform="translate(60, 345)">
    <rect x="0" y="0" width="12" height="12" fill="#22c55e" rx="2"/>
    <text x="18" y="10" font-size="11" fill="#c9d1d9">Toplam Doluluk</text>
    <rect x="140" y="0" width="12" height="12" fill="#3b82f6" rx="2"/>
    <text x="158" y="10" font-size="11" fill="#c9d1d9">Aktif Doluluk</text>
  </g>
</svg>