<svg xmlns="http://www.w3.org/2000/svg" viewBox="0 0 800 400" width="100%" style="max-width:800px;">
  <rect width="800" height="400" fill="#0d1117" rx="6"/>
  <text x="400.0" y="25" text-anchor="middle" font-size="16" font-weight="bold" fill="#c9d1d9">Son 90 Gün - Günlük Ortalama</text>

  <!-- Y grid -->
  <line x1="60" y1="320.0" x2="760" y2="320.0" stroke="#333" stroke-width="1" stroke-dasharray="4,4" opacity="0.5"/>
  <text x="50" y="320.0" text-anchor="end" dominant-baseline="middle" font-size="10" fill="#888">0%</text>
  <line x1="60" y1="264.0" x2="760" y2="264.0" stroke="#333" stroke-width="1" stroke-dasharray="4,4" opacity="0.5"/>
  <text x="50" y="264.0" text-anchor="end" dominant-baseline="middle" font-size="10" fill="#888">20%</text>
  <line x1="60" y1="208.0" x2="760" y2="208.0" stroke="#333" stroke-width="1" stroke-dasharray="4,4" opacity="0.5"/>
  <text x="50" y="208.0" text-anchor="end" dominant-baseline="middle" font-size="10" fill="#888">40%</text>
  <line x1="60" y1="152.0" x2="760" y2="152.0" stroke="#333" stroke-width="1" stroke-dasharray="4,4" opacity="0.5"/>
  <text x="50" y="152.0" text-anchor="end" dominant-baseline="middle" font-size="10" fill="#888">60%</text>
  <line x1="60" y1="96.0" x2="760" y2="96.0" stroke="#333" stroke-width="1" stroke-dasharray="4,4" opacity="0.5"/>
  <text x="50" y="96.0" text-anchor="end" dominant-baseline="middle" font-size="10" fill="#888">80%</text>
  <line x1="60" y1="40.0" x2="760" y2="40.0" stroke="#333" stroke-width="1" stroke-dasharray="4,4" opacity="0.5"/>
  <text x="50" y="40.0" text-anchor="end" dominant-baseline="middle" font-size="10" fill="#888">100%</text>

  <!-- Referans çizgileri -->
  <line x1="60" y1="236.0" x2="760" y2="236.0" stroke="#ef4444" stroke-width="1" stroke-dasharray="2,2" opacity="0.7"/>
  <text x="745" y="236.0" dominant-baseline="middle" font-size="9" fill="#ef4444">Kritik (30%)</text>
  <line x1="60" y1="180.0" x2="760" y2="180.0" stroke="#eab308" stroke-width="1" stroke-dasharray="2,2" opacity="0.7"/>
  <text x="745" y="180.0" dominant-baseline="middle" font-size="9" fill="#eab308">Normal (50%)</text>

  <!-- Toplam doluluk -->
  <polyline points="60.0,193.2 78.4,192.5 96.8,192.0 115.3,191.6 133.7,191.1 152.1,190.8 170.5,190.4 188.9,190.1 207.4,189.6 225.8,188.8 244.2,187.8 262.6,187.0 281.1,186.2 299.5,185.6 317.9,185.0 336.3,184.3 354.7,183.6 373.2,183.2 391.6,182.9 410.0,182.7 428.4,182.7 446.8,182.4 465.3,182.3 483.7,182.3 502.1,182.2 520.5,182.2 538.9,182.2 557.4,182.2 575.8,182.3 594.2,182.4 612.6,182.5 631.1,182.6 649.5,182.7 667.9,182.9 686.3,183.1 704.7,183.2 723.2,183.3 741.6,183.4 760.0,183.5" fill="none" stroke="#22c55e" stroke-width="2.5" stroke-linecap="round" stroke-linejoin="round"/>
  <polyline points="60.0,193.2 78.4,192.5 96.8,192.0 115.3,191.6 133.7,191.1 152.1,190.8 170.5,190.4 188.9,190.1 207.4,189.6 225.8,188.8 244.2,187.8 262.6,187.0 281.1,186.2 299.5,185.6 317.9,185.0 336.3,184.3 354.7,183.6 373.2,183.2 391.6,182.9 410.0,182.7 428.4,182.7 446.8,182.4 465.3,182.3 483.7,182.3 502.1,182.2 520.5,182.2 538.9,182.2 557.4,182.2 575.8,182.3 594.2,182.4 612.6,182.5 631.1,182.6 649.5,182.7 667.9,182.9 686.3,183.1 704.7,183.2 723.2,183.3 741.6,183.4 760.0,183.5" fill="none" stroke="#22c55e" stroke-width="5" opacity="0.1" stroke-linecap="round" stroke-linejoin="round"/>

  <!-- Aktif doluluk -->
  <polyline points="60.0,211.1 78.4,210.2 96.8,209.7 115.3,209.2 133.7,208.7 152.1,208.3 170.5,207.9 188.9,207.5 207.4,207.0 225.8,206.2 244.2,205.0 262.6,204.1 281.1,203.2 299.5,202.5 317.9,201.9 336.3,201.0 354.7,200.3 373.2,199.9 391.6,199.6 410.0,199.4 428.4,199.3 446.8,199.0 465.3,198.9 483.7,198.9 502.1,198.7 520.5,198.7 538.9,198.8 557.4,198.8 575.8,198.8 594.2,198.9 612.6,199.0 631.1,199.2 649.5,199.4 667.9,199.5 686.3,199.7 704.7,199.8 723.2,200.0 741.6,200.1 760.0,200.2" fill="none" stroke="#3b82f6" stroke-width="2.5" stroke-linecap="round" stroke-linejoin="round"/>
  <polyline points="60.0,211.1 78.4,210.2 96.8,209.7 115.3,209.2 133.7,208.7 152.1,208.3 170.5,207.9 188.9,207.5 207.4,207.0 225.8,206.2 244.2,205.0 262.6,204.1 281.1,203.2 299.5,202.5 317.9,201.9 336.3,201.0 354.7,200.3 373.2,199.9 391.6,199.6 410.0,199.4 428.4,199.3 446.8,199.0 465.3,198.9 483.7,198.9 502.1,198.7 520.5,198.7 538.9,198.8 557.4,198.8 575.8,198.8 594.2,198.9 612.6,199.0 631.1,199.2 649.5,199.4 667.9,199.5 686.3,199.7 704.7,199.8 723.2,200.0 741.6,200.1 760.0,200.2" fill="none" stroke="#3b82f6" stroke-width="5" opacity="0.1" stroke-linecap="round" stroke-linejoin="round"/>

  <!-- Noktalar -->
  <circle cx="60.0" cy="193.2" r="3" fill="#22c55e"/><circle cx="78.4" cy="192.5" r="3" fill="#22c55e"/><circle cx="96.8" cy="192.0" r="3" fill="#22c55e"/><circle cx="115.3" cy="191.6" r="3" fill="#22c55e"/><circle cx="133.7" cy="191.1" r="3" fill="#22c55e"/><circle cx="152.1" cy="190.8" r="3" fill="#22c55e"/><circle cx="170.5" cy="190.4" r="3" fill="#22c55e"/><circle cx="188.9" cy="190.1" r="3" fill="#22c55e"/><circle cx="207.4" cy="189.6" r="3" fill="#22c55e"/><circle cx="225.8" cy="188.8" r="3" fill="#22c55e"/><circle cx="244.2" cy="187.8" r="3" fill="#22c55e"/><circle cx="262.6" cy="187.0" r="3" fill="#22c55e"/><circle cx="281.1" cy="186.2" r="3" fill="#22c55e"/><circle cx="299.5" cy="185.6" r="3" fill="#22c55e"/><circle cx="317.9" cy="185.0" r="3" fill="#22c55e"/><circle cx="336.3" cy="184.3" r="3" fill="#22c55e"/><circle cx="354.7" cy="183.6" r="3" fill="#22c55e"/><circle cx="373.2" cy="183.2" r="3" fill="#22c55e"/><circle cx="391.6" cy="182.9" r="3" fill="#22c55e"/><circle cx="410.0" cy="182.7" r="3" fill="#22c55e"/><circle cx="428.4" cy="182.7" r="3" fill="#22c55e"/><circle cx="446.8" cy="182.4" r="3" fill="#22c55e"/><circle cx="465.3" cy="182.3" r="3" fill="#22c55e"/><circle cx="483.7" cy="182.3" r="3" fill="#22c55e"/><circle cx="502.1" cy="182.2" r="3" fill="#22c55e"/><circle cx="520.5" cy="182.2" r="3" fill="#22c55e"/><circle cx="538.9" cy="182.2" r="3" fill="#22c55e"/><circle cx="557.4" cy="182.2" r="3" fill="#22c55e"/><circle cx="575.8" cy="182.3" r="3" fill="#22c55e"/><circle cx="594.2" cy="182.4" r="3" fill="#22c55e"/><circle cx="612.6" cy="182.5" r="3" fill="#22c55e"/><circle cx="631.1" cy="182.6" r="3" fill="#22c55e"/><circle cx="649.5" cy="182.7" r="3" fill="#22c55e"/><circle cx="667.9" cy="182.9" r="3" fill="#22c55e"/><circle cx="686.3" cy="183.1" r="3" fill="#22c55e"/><circle cx="704.7" cy="183.2" r="3" fill="#22c55e"/><circle cx="723.2" cy="183.3" r="3" fill="#22c55e"/><circle cx="741.6" cy="183.4" r="3" fill="#22c55e"/><circle cx="760.0" cy="183.5" r="3" fill="#22c55e"/>
  <circle cx="60.0" cy="211.1" r="3" fill="#3b82f6"/><circle cx="78.4" cy="210.2" r="3" fill="#3b82f6"/><circle cx="96.8" cy="209.7" r="3" fill="#3b82f6"/><circle cx="115.3" cy="209.2" r="3" fill="#3b82f6"/><circle cx="133.7" cy="208.7" r="3" fill="#3b82f6"/><circle cx="152.1" cy="208.3" r="3" fill="#3b82f6"/><circle cx="170.5" cy="207.9" r="3" fill="#3b82f6"/><circle cx="188.9" cy="207.5" r="3" fill="#3b82f6"/><circle cx="207.4" cy="207.0" r="3" fill="#3b82f6"/><circle cx="225.8" cy="206.2" r="3" fill="#3b82f6"/><circle cx="244.2" cy="205.0" r="3" fill="#3b82f6"/><circle cx="262.6" cy="204.1" r="3" fill="#3b82f6"/><circle cx="281.1" cy="203.2" r="3" fill="#3b82f6"/><circle cx="299.5" cy="202.5" r="3" fill="#3b82f6"/><circle cx="317.9" cy="201.9" r="3" fill="#3b82f6"/><circle cx="336.3" cy="201.0" r="3" fill="#3b82f6"/><circle cx="354.7" cy="200.3" r="3" fill="#3b82f6"/><circle cx="373.2" cy="199.9" r="3" fill="#3b82f6"/><circle cx="391.6" cy="199.6" r="3" fill="#3b82f6"/><circle cx="410.0" cy="199.4" r="3" fill="#3b82f6"/><circle cx="428.4" cy="199.3" r="3" fill="#3b82f6"/><circle cx="446.8" cy="199.0" r="3" fill="#3b82f6"/><circle cx="465.3" cy="198.9" r="3" fill="#3b82f6"/><circle cx="483.7" cy="198.9" r="3" fill="#3b82f6"/><circle cx="502.1" cy="198.7" r="3" fill="#3b82f6"/><circle cx="520.5" cy="198.7" r="3" fill="#3b82f6"/><circle cx="538.9" cy="198.8" r="3" fill="#3b82f6"/><circle cx="557.4" cy="198.8" r="3" fill="#3b82f6"/><circle cx="575.8" cy="198.8" r="3" fill="#3b82f6"/><circle cx="594.2" cy="198.9" r="3" fill="#3b82f6"/><circle cx="612.6" cy="199.0" r="3" fill="#3b82f6"/><circle cx="631.1" cy="199.2" r="3" fill="#3b82f6"/><circle cx="649.5" cy="199.4" r="3" fill="#3b82f6"/><circle cx="667.9" cy="199.5" r="3" fill="#3b82f6"/><circle cx="686.3" cy="199.7" r="3" fill="#3b82f6"/><circle cx="704.7" cy="199.8" r="3" fill="#3b82f6"/><circle cx="723.2" cy="200.0" r="3" fill="#3b82f6"/><circle cx="741.6" cy="200.1" r="3" fill="#3b82f6"/><circle cx="760.0" cy="200.2" r="3" fill="#3b82f6"/>

  <!-- X ekseni -->
  <text x="60.0" y="380" text-anchor="middle" font-size="10" fill="#888">14.05.2026</text>
  <text x="170.5" y="380" text-anchor="middle" font-size="10" fill="#888">20.05.2026</text>
  <text x="281.1" y="380" text-anchor="middle" font-size="10" fill="#888">26.05.2026</text>
  <text x="391.6" y="380" text-anchor="middle" font-size="10" fill="#888">01.06.2026</text>
  <text x="502.1" y="380" text-anchor="middle" font-size="10" fill="#888">07.06.2026</text>
  <text x="612.6" y="380" text-anchor="middle" font-size="10" fill="#888">13.06.2026</text>
  <text x="723.2" y="380" text-anchor="middle" font-size="10" fill="#888">19.06.2026</text>

  <!-- Legend -->
  <g transform="translate(60, 345)">
    <rect x="0" y="0" width="12" height="12" fill="#22c55e" rx="2"/>
    <text x="18" y="10" font-size="11" fill="#c9d1d9">Toplam Doluluk</text>
    <rect x="140" y="0" width="12" height="12" fill="#3b82f6" rx="2"/>
    <text x="158" y="10" font-size="11" fill="#c9d1d9">Aktif Doluluk</text>
  </g>
</svg>