<svg xmlns="http://www.w3.org/2000/svg" viewBox="0 0 800 400" width="100%" style="max-width:800px;">
  <rect width="800" height="400" fill="#0d1117" rx="6"/>
  <text x="400.0" y="25" text-anchor="middle" font-size="16" font-weight="bold" fill="#c9d1d9">Son 90 Gün - Günlük Ortalama</text>

  <!-- Y grid -->
  <line x1="60" y1="320.0" x2="760" y2="320.0" stroke="#333" stroke-width="1" stroke-dasharray="4,4" opacity="0.5"/>
  <text x="50" y="320.0" text-anchor="end" dominant-baseline="middle" font-size="10" fill="#888">0%</text>
  <line x1="60" y1="264.0" x2="760" y2="264.0" stroke="#333" stroke-width="1" stroke-dasharray="4,4" opacity="0.5"/>
  <text x="50" y="264.0" text-anchor="end" dominant-baseline="middle" font-size="10" fill="#888">20%</text>
  <line x1="60" y1="208.0" x2="760" y2="208.0" stroke="#333" stroke-width="1" stroke-dasharray="4,4" opacity="0.5"/>
  <text x="50" y="208.0" text-anchor="end" dominant-baseline="middle" font-size="10" fill="#888">40%</text>
  <line x1="60" y1="152.0" x2="760" y2="152.0" stroke="#333" stroke-width="1" stroke-dasharray="4,4" opacity="0.5"/>
  <text x="50" y="152.0" text-anchor="end" dominant-baseline="middle" font-size="10" fill="#888">60%</text>
  <line x1="60" y1="96.0" x2="760" y2="96.0" stroke="#333" stroke-width="1" stroke-dasharray="4,4" opacity="0.5"/>
  <text x="50" y="96.0" text-anchor="end" dominant-baseline="middle" font-size="10" fill="#888">80%</text>
  <line x1="60" y1="40.0" x2="760" y2="40.0" stroke="#333" stroke-width="1" stroke-dasharray="4,4" opacity="0.5"/>
  <text x="50" y="40.0" text-anchor="end" dominant-baseline="middle" font-size="10" fill="#888">100%</text>

  <!-- Referans çizgileri -->
  <line x1="60" y1="236.0" x2="760" y2="236.0" stroke="#ef4444" stroke-width="1" stroke-dasharray="2,2" opacity="0.7"/>
  <text x="745" y="236.0" dominant-baseline="middle" font-size="9" fill="#ef4444">Kritik (30%)</text>
  <line x1="60" y1="180.0" x2="760" y2="180.0" stroke="#eab308" stroke-width="1" stroke-dasharray="2,2" opacity="0.7"/>
  <text x="745" y="180.0" dominant-baseline="middle" font-size="9" fill="#eab308">Normal (50%)</text>

  <!-- Toplam doluluk -->
  <polyline points="60.0,193.2 70.6,192.5 81.2,192.0 91.8,191.6 102.4,191.1 113.0,190.8 123.6,190.4 134.2,190.1 144.8,189.6 155.5,188.8 166.1,187.8 176.7,187.0 187.3,186.2 197.9,185.6 208.5,185.0 219.1,184.3 229.7,183.6 240.3,183.2 250.9,182.9 261.5,182.7 272.1,182.7 282.7,182.4 293.3,182.3 303.9,182.3 314.5,182.2 325.2,182.2 335.8,182.2 346.4,182.2 357.0,182.3 367.6,182.4 378.2,182.5 388.8,182.6 399.4,182.7 410.0,182.9 420.6,183.1 431.2,183.2 441.8,183.3 452.4,183.4 463.0,183.5 473.6,183.7 484.2,183.9 494.8,184.2 505.5,184.4 516.1,184.7 526.7,185.0 537.3,185.3 547.9,185.6 558.5,186.0 569.1,186.3 579.7,186.6 590.3,187.0 600.9,187.3 611.5,187.6 622.1,188.0 632.7,188.3 643.3,188.6 653.9,189.0 664.5,189.3 675.2,189.6 685.8,189.9 696.4,190.2 707.0,190.5 717.6,190.8 728.2,191.1 738.8,191.4 749.4,191.6 760.0,192.0" fill="none" stroke="#22c55e" stroke-width="2.5" stroke-linecap="round" stroke-linejoin="round"/>
  <polyline points="60.0,193.2 70.6,192.5 81.2,192.0 91.8,191.6 102.4,191.1 113.0,190.8 123.6,190.4 134.2,190.1 144.8,189.6 155.5,188.8 166.1,187.8 176.7,187.0 187.3,186.2 197.9,185.6 208.5,185.0 219.1,184.3 229.7,183.6 240.3,183.2 250.9,182.9 261.5,182.7 272.1,182.7 282.7,182.4 293.3,182.3 303.9,182.3 314.5,182.2 325.2,182.2 335.8,182.2 346.4,182.2 357.0,182.3 367.6,182.4 378.2,182.5 388.8,182.6 399.4,182.7 410.0,182.9 420.6,183.1 431.2,183.2 441.8,183.3 452.4,183.4 463.0,183.5 473.6,183.7 484.2,183.9 494.8,184.2 505.5,184.4 516.1,184.7 526.7,185.0 537.3,185.3 547.9,185.6 558.5,186.0 569.1,186.3 579.7,186.6 590.3,187.0 600.9,187.3 611.5,187.6 622.1,188.0 632.7,188.3 643.3,188.6 653.9,189.0 664.5,189.3 675.2,189.6 685.8,189.9 696.4,190.2 707.0,190.5 717.6,190.8 728.2,191.1 738.8,191.4 749.4,191.6 760.0,192.0" fill="none" stroke="#22c55e" stroke-width="5" opacity="0.1" stroke-linecap="round" stroke-linejoin="round"/>

  <!-- Aktif doluluk -->
  <polyline points="60.0,211.1 70.6,210.2 81.2,209.7 91.8,209.2 102.4,208.7 113.0,208.3 123.6,207.9 134.2,207.5 144.8,207.0 155.5,206.2 166.1,205.0 176.7,204.1 187.3,203.2 197.9,202.5 208.5,201.9 219.1,201.0 229.7,200.3 240.3,199.9 250.9,199.6 261.5,199.4 272.1,199.3 282.7,199.0 293.3,198.9 303.9,198.9 314.5,198.7 325.2,198.7 335.8,198.8 346.4,198.8 357.0,198.8 367.6,198.9 378.2,199.0 388.8,199.2 399.4,199.4 410.0,199.5 420.6,199.7 431.2,199.8 441.8,200.0 452.4,200.1 463.0,200.2 473.6,200.4 484.2,200.7 494.8,201.0 505.5,201.3 516.1,201.6 526.7,201.8 537.3,202.2 547.9,202.6 558.5,203.0 569.1,203.3 579.7,203.7 590.3,204.1 600.9,204.4 611.5,204.8 622.1,205.2 632.7,205.5 643.3,205.9 653.9,206.3 664.5,206.7 675.2,207.0 685.8,207.4 696.4,207.7 707.0,208.0 717.6,208.3 728.2,208.7 738.8,209.0 749.4,209.3 760.0,209.7" fill="none" stroke="#3b82f6" stroke-width="2.5" stroke-linecap="round" stroke-linejoin="round"/>
  <polyline points="60.0,211.1 70.6,210.2 81.2,209.7 91.8,209.2 102.4,208.7 113.0,208.3 123.6,207.9 134.2,207.5 144.8,207.0 155.5,206.2 166.1,205.0 176.7,204.1 187.3,203.2 197.9,202.5 208.5,201.9 219.1,201.0 229.7,200.3 240.3,199.9 250.9,199.6 261.5,199.4 272.1,199.3 282.7,199.0 293.3,198.9 303.9,198.9 314.5,198.7 325.2,198.7 335.8,198.8 346.4,198.8 357.0,198.8 367.6,198.9 378.2,199.0 388.8,199.2 399.4,199.4 410.0,199.5 420.6,199.7 431.2,199.8 441.8,200.0 452.4,200.1 463.0,200.2 473.6,200.4 484.2,200.7 494.8,201.0 505.5,201.3 516.1,201.6 526.7,201.8 537.3,202.2 547.9,202.6 558.5,203.0 569.1,203.3 579.7,203.7 590.3,204.1 600.9,204.4 611.5,204.8 622.1,205.2 632.7,205.5 643.3,205.9 653.9,206.3 664.5,206.7 675.2,207.0 685.8,207.4 696.4,207.7 707.0,208.0 717.6,208.3 728.2,208.7 738.8,209.0 749.4,209.3 760.0,209.7" fill="none" stroke="#3b82f6" stroke-width="5" opacity="0.1" stroke-linecap="round" stroke-linejoin="round"/>

  <!-- Noktalar -->
  <circle cx="60.0" cy="193.2" r="3" fill="#22c55e"/><circle cx="70.6" cy="192.5" r="3" fill="#22c55e"/><circle cx="81.2" cy="192.0" r="3" fill="#22c55e"/><circle cx="91.8" cy="191.6" r="3" fill="#22c55e"/><circle cx="102.4" cy="191.1" r="3" fill="#22c55e"/><circle cx="113.0" cy="190.8" r="3" fill="#22c55e"/><circle cx="123.6" cy="190.4" r="3" fill="#22c55e"/><circle cx="134.2" cy="190.1" r="3" fill="#22c55e"/><circle cx="144.8" cy="189.6" r="3" fill="#22c55e"/><circle cx="155.5" cy="188.8" r="3" fill="#22c55e"/><circle cx="166.1" cy="187.8" r="3" fill="#22c55e"/><circle cx="176.7" cy="187.0" r="3" fill="#22c55e"/><circle cx="187.3" cy="186.2" r="3" fill="#22c55e"/><circle cx="197.9" cy="185.6" r="3" fill="#22c55e"/><circle cx="208.5" cy="185.0" r="3" fill="#22c55e"/><circle cx="219.1" cy="184.3" r="3" fill="#22c55e"/><circle cx="229.7" cy="183.6" r="3" fill="#22c55e"/><circle cx="240.3" cy="183.2" r="3" fill="#22c55e"/><circle cx="250.9" cy="182.9" r="3" fill="#22c55e"/><circle cx="261.5" cy="182.7" r="3" fill="#22c55e"/><circle cx="272.1" cy="182.7" r="3" fill="#22c55e"/><circle cx="282.7" cy="182.4" r="3" fill="#22c55e"/><circle cx="293.3" cy="182.3" r="3" fill="#22c55e"/><circle cx="303.9" cy="182.3" r="3" fill="#22c55e"/><circle cx="314.5" cy="182.2" r="3" fill="#22c55e"/><circle cx="325.2" cy="182.2" r="3" fill="#22c55e"/><circle cx="335.8" cy="182.2" r="3" fill="#22c55e"/><circle cx="346.4" cy="182.2" r="3" fill="#22c55e"/><circle cx="357.0" cy="182.3" r="3" fill="#22c55e"/><circle cx="367.6" cy="182.4" r="3" fill="#22c55e"/><circle cx="378.2" cy="182.5" r="3" fill="#22c55e"/><circle cx="388.8" cy="182.6" r="3" fill="#22c55e"/><circle cx="399.4" cy="182.7" r="3" fill="#22c55e"/><circle cx="410.0" cy="182.9" r="3" fill="#22c55e"/><circle cx="420.6" cy="183.1" r="3" fill="#22c55e"/><circle cx="431.2" cy="183.2" r="3" fill="#22c55e"/><circle cx="441.8" cy="183.3" r="3" fill="#22c55e"/><circle cx="452.4" cy="183.4" r="3" fill="#22c55e"/><circle cx="463.0" cy="183.5" r="3" fill="#22c55e"/><circle cx="473.6" cy="183.7" r="3" fill="#22c55e"/><circle cx="484.2" cy="183.9" r="3" fill="#22c55e"/><circle cx="494.8" cy="184.2" r="3" fill="#22c55e"/><circle cx="505.5" cy="184.4" r="3" fill="#22c55e"/><circle cx="516.1" cy="184.7" r="3" fill="#22c55e"/><circle cx="526.7" cy="185.0" r="3" fill="#22c55e"/><circle cx="537.3" cy="185.3" r="3" fill="#22c55e"/><circle cx="547.9" cy="185.6" r="3" fill="#22c55e"/><circle cx="558.5" cy="186.0" r="3" fill="#22c55e"/><circle cx="569.1" cy="186.3" r="3" fill="#22c55e"/><circle cx="579.7" cy="186.6" r="3" fill="#22c55e"/><circle cx="590.3" cy="187.0" r="3" fill="#22c55e"/><circle cx="600.9" cy="187.3" r="3" fill="#22c55e"/><circle cx="611.5" cy="187.6" r="3" fill="#22c55e"/><circle cx="622.1" cy="188.0" r="3" fill="#22c55e"/><circle cx="632.7" cy="188.3" r="3" fill="#22c55e"/><circle cx="643.3" cy="188.6" r="3" fill="#22c55e"/><circle cx="653.9" cy="189.0" r="3" fill="#22c55e"/><circle cx="664.5" cy="189.3" r="3" fill="#22c55e"/><circle cx="675.2" cy="189.6" r="3" fill="#22c55e"/><circle cx="685.8" cy="189.9" r="3" fill="#22c55e"/><circle cx="696.4" cy="190.2" r="3" fill="#22c55e"/><circle cx="707.0" cy="190.5" r="3" fill="#22c55e"/><circle cx="717.6" cy="190.8" r="3" fill="#22c55e"/><circle cx="728.2" cy="191.1" r="3" fill="#22c55e"/><circle cx="738.8" cy="191.4" r="3" fill="#22c55e"/><circle cx="749.4" cy="191.6" r="3" fill="#22c55e"/><circle cx="760.0" cy="192.0" r="3" fill="#22c55e"/>
  <circle cx="60.0" cy="211.1" r="3" fill="#3b82f6"/><circle cx="70.6" cy="210.2" r="3" fill="#3b82f6"/><circle cx="81.2" cy="209.7" r="3" fill="#3b82f6"/><circle cx="91.8" cy="209.2" r="3" fill="#3b82f6"/><circle cx="102.4" cy="208.7" r="3" fill="#3b82f6"/><circle cx="113.0" cy="208.3" r="3" fill="#3b82f6"/><circle cx="123.6" cy="207.9" r="3" fill="#3b82f6"/><circle cx="134.2" cy="207.5" r="3" fill="#3b82f6"/><circle cx="144.8" cy="207.0" r="3" fill="#3b82f6"/><circle cx="155.5" cy="206.2" r="3" fill="#3b82f6"/><circle cx="166.1" cy="205.0" r="3" fill="#3b82f6"/><circle cx="176.7" cy="204.1" r="3" fill="#3b82f6"/><circle cx="187.3" cy="203.2" r="3" fill="#3b82f6"/><circle cx="197.9" cy="202.5" r="3" fill="#3b82f6"/><circle cx="208.5" cy="201.9" r="3" fill="#3b82f6"/><circle cx="219.1" cy="201.0" r="3" fill="#3b82f6"/><circle cx="229.7" cy="200.3" r="3" fill="#3b82f6"/><circle cx="240.3" cy="199.9" r="3" fill="#3b82f6"/><circle cx="250.9" cy="199.6" r="3" fill="#3b82f6"/><circle cx="261.5" cy="199.4" r="3" fill="#3b82f6"/><circle cx="272.1" cy="199.3" r="3" fill="#3b82f6"/><circle cx="282.7" cy="199.0" r="3" fill="#3b82f6"/><circle cx="293.3" cy="198.9" r="3" fill="#3b82f6"/><circle cx="303.9" cy="198.9" r="3" fill="#3b82f6"/><circle cx="314.5" cy="198.7" r="3" fill="#3b82f6"/><circle cx="325.2" cy="198.7" r="3" fill="#3b82f6"/><circle cx="335.8" cy="198.8" r="3" fill="#3b82f6"/><circle cx="346.4" cy="198.8" r="3" fill="#3b82f6"/><circle cx="357.0" cy="198.8" r="3" fill="#3b82f6"/><circle cx="367.6" cy="198.9" r="3" fill="#3b82f6"/><circle cx="378.2" cy="199.0" r="3" fill="#3b82f6"/><circle cx="388.8" cy="199.2" r="3" fill="#3b82f6"/><circle cx="399.4" cy="199.4" r="3" fill="#3b82f6"/><circle cx="410.0" cy="199.5" r="3" fill="#3b82f6"/><circle cx="420.6" cy="199.7" r="3" fill="#3b82f6"/><circle cx="431.2" cy="199.8" r="3" fill="#3b82f6"/><circle cx="441.8" cy="200.0" r="3" fill="#3b82f6"/><circle cx="452.4" cy="200.1" r="3" fill="#3b82f6"/><circle cx="463.0" cy="200.2" r="3" fill="#3b82f6"/><circle cx="473.6" cy="200.4" r="3" fill="#3b82f6"/><circle cx="484.2" cy="200.7" r="3" fill="#3b82f6"/><circle cx="494.8" cy="201.0" r="3" fill="#3b82f6"/><circle cx="505.5" cy="201.3" r="3" fill="#3b82f6"/><circle cx="516.1" cy="201.6" r="3" fill="#3b82f6"/><circle cx="526.7" cy="201.8" r="3" fill="#3b82f6"/><circle cx="537.3" cy="202.2" r="3" fill="#3b82f6"/><circle cx="547.9" cy="202.6" r="3" fill="#3b82f6"/><circle cx="558.5" cy="203.0" r="3" fill="#3b82f6"/><circle cx="569.1" cy="203.3" r="3" fill="#3b82f6"/><circle cx="579.7" cy="203.7" r="3" fill="#3b82f6"/><circle cx="590.3" cy="204.1" r="3" fill="#3b82f6"/><circle cx="600.9" cy="204.4" r="3" fill="#3b82f6"/><circle cx="611.5" cy="204.8" r="3" fill="#3b82f6"/><circle cx="622.1" cy="205.2" r="3" fill="#3b82f6"/><circle cx="632.7" cy="205.5" r="3" fill="#3b82f6"/><circle cx="643.3" cy="205.9" r="3" fill="#3b82f6"/><circle cx="653.9" cy="206.3" r="3" fill="#3b82f6"/><circle cx="664.5" cy="206.7" r="3" fill="#3b82f6"/><circle cx="675.2" cy="207.0" r="3" fill="#3b82f6"/><circle cx="685.8" cy="207.4" r="3" fill="#3b82f6"/><circle cx="696.4" cy="207.7" r="3" fill="#3b82f6"/><circle cx="707.0" cy="208.0" r="3" fill="#3b82f6"/><circle cx="717.6" cy="208.3" r="3" fill="#3b82f6"/><circle cx="728.2" cy="208.7" r="3" fill="#3b82f6"/><circle cx="738.8" cy="209.0" r="3" fill="#3b82f6"/><circle cx="749.4" cy="209.3" r="3" fill="#3b82f6"/><circle cx="760.0" cy="209.7" r="3" fill="#3b82f6"/>

  <!-- X ekseni -->
  <text x="60.0" y="380" text-anchor="middle" font-size="10" fill="#888">14.05.2026</text>
  <text x="176.7" y="380" text-anchor="middle" font-size="10" fill="#888">25.05.2026</text>
  <text x="293.3" y="380" text-anchor="middle" font-size="10" fill="#888">05.06.2026</text>
  <text x="410.0" y="380" text-anchor="middle" font-size="10" fill="#888">16.06.2026</text>
  <text x="526.7" y="380" text-anchor="middle" font-size="10" fill="#888">27.06.2026</text>
  <text x="643.3" y="380" text-anchor="middle" font-size="10" fill="#888">08.07.2026</text>
  <text x="760.0" y="380" text-anchor="middle" font-size="10" fill="#888">19.07.2026</text>

  <!-- Legend -->
  <g transform="translate(60, 345)">
    <rect x="0" y="0" width="12" height="12" fill="#22c55e" rx="2"/>
    <text x="18" y="10" font-size="11" fill="#c9d1d9">Toplam Doluluk</text>
    <rect x="140" y="0" width="12" height="12" fill="#3b82f6" rx="2"/>
    <text x="158" y="10" font-size="11" fill="#c9d1d9">Aktif Doluluk</text>
  </g>
</svg>