<svg xmlns="http://www.w3.org/2000/svg" viewBox="0 0 900 400" width="100%" style="max-width:900px;">
  <rect width="900" height="400" fill="#0d1117" rx="6"/>
  <text x="450.0" y="25" text-anchor="middle" font-size="16" font-weight="bold" fill="#c9d1d9">Son 180 Gün - Günlük Ortalama</text>

  <!-- Y grid -->
  <line x1="60" y1="320.0" x2="860" y2="320.0" stroke="#333" stroke-width="1" stroke-dasharray="4,4" opacity="0.5"/>
  <text x="50" y="320.0" text-anchor="end" dominant-baseline="middle" font-size="10" fill="#888">0%</text>
  <line x1="60" y1="264.0" x2="860" y2="264.0" stroke="#333" stroke-width="1" stroke-dasharray="4,4" opacity="0.5"/>
  <text x="50" y="264.0" text-anchor="end" dominant-baseline="middle" font-size="10" fill="#888">20%</text>
  <line x1="60" y1="208.0" x2="860" y2="208.0" stroke="#333" stroke-width="1" stroke-dasharray="4,4" opacity="0.5"/>
  <text x="50" y="208.0" text-anchor="end" dominant-baseline="middle" font-size="10" fill="#888">40%</text>
  <line x1="60" y1="152.0" x2="860" y2="152.0" stroke="#333" stroke-width="1" stroke-dasharray="4,4" opacity="0.5"/>
  <text x="50" y="152.0" text-anchor="end" dominant-baseline="middle" font-size="10" fill="#888">60%</text>
  <line x1="60" y1="96.0" x2="860" y2="96.0" stroke="#333" stroke-width="1" stroke-dasharray="4,4" opacity="0.5"/>
  <text x="50" y="96.0" text-anchor="end" dominant-baseline="middle" font-size="10" fill="#888">80%</text>
  <line x1="60" y1="40.0" x2="860" y2="40.0" stroke="#333" stroke-width="1" stroke-dasharray="4,4" opacity="0.5"/>
  <text x="50" y="40.0" text-anchor="end" dominant-baseline="middle" font-size="10" fill="#888">100%</text>

  <!-- Referans çizgileri -->
  <line x1="60" y1="236.0" x2="860" y2="236.0" stroke="#ef4444" stroke-width="1" stroke-dasharray="2,2" opacity="0.7"/>
  <text x="845" y="236.0" dominant-baseline="middle" font-size="9" fill="#ef4444">Kritik (30%)</text>
  <line x1="60" y1="180.0" x2="860" y2="180.0" stroke="#eab308" stroke-width="1" stroke-dasharray="2,2" opacity="0.7"/>
  <text x="845" y="180.0" dominant-baseline="middle" font-size="9" fill="#eab308">Normal (50%)</text>

  <!-- Toplam doluluk -->
  <polyline points="60.0,193.2 75.4,192.5 90.8,192.0 106.2,191.6 121.5,191.1 136.9,190.8 152.3,190.4 167.7,190.1 183.1,189.6 198.5,188.8 213.8,187.8 229.2,187.0 244.6,186.2 260.0,185.6 275.4,185.0 290.8,184.3 306.2,183.6 321.5,183.2 336.9,182.9 352.3,182.7 367.7,182.7 383.1,182.4 398.5,182.3 413.8,182.3 429.2,182.2 444.6,182.2 460.0,182.2 475.4,182.2 490.8,182.3 506.2,182.4 521.5,182.5 536.9,182.6 552.3,182.7 567.7,182.9 583.1,183.1 598.5,183.2 613.8,183.3 629.2,183.4 644.6,183.5 660.0,183.7 675.4,183.9 690.8,184.2 706.2,184.4 721.5,184.7 736.9,185.0 752.3,185.3 767.7,185.6 783.1,186.0 798.5,186.3 813.8,186.6 829.2,187.0 844.6,187.3 860.0,187.6" fill="none" stroke="#22c55e" stroke-width="2.5" stroke-linecap="round" stroke-linejoin="round"/>
  <polyline points="60.0,193.2 75.4,192.5 90.8,192.0 106.2,191.6 121.5,191.1 136.9,190.8 152.3,190.4 167.7,190.1 183.1,189.6 198.5,188.8 213.8,187.8 229.2,187.0 244.6,186.2 260.0,185.6 275.4,185.0 290.8,184.3 306.2,183.6 321.5,183.2 336.9,182.9 352.3,182.7 367.7,182.7 383.1,182.4 398.5,182.3 413.8,182.3 429.2,182.2 444.6,182.2 460.0,182.2 475.4,182.2 490.8,182.3 506.2,182.4 521.5,182.5 536.9,182.6 552.3,182.7 567.7,182.9 583.1,183.1 598.5,183.2 613.8,183.3 629.2,183.4 644.6,183.5 660.0,183.7 675.4,183.9 690.8,184.2 706.2,184.4 721.5,184.7 736.9,185.0 752.3,185.3 767.7,185.6 783.1,186.0 798.5,186.3 813.8,186.6 829.2,187.0 844.6,187.3 860.0,187.6" fill="none" stroke="#22c55e" stroke-width="5" opacity="0.1" stroke-linecap="round" stroke-linejoin="round"/>

  <!-- Aktif doluluk -->
  <polyline points="60.0,211.1 75.4,210.2 90.8,209.7 106.2,209.2 121.5,208.7 136.9,208.3 152.3,207.9 167.7,207.5 183.1,207.0 198.5,206.2 213.8,205.0 229.2,204.1 244.6,203.2 260.0,202.5 275.4,201.9 290.8,201.0 306.2,200.3 321.5,199.9 336.9,199.6 352.3,199.4 367.7,199.3 383.1,199.0 398.5,198.9 413.8,198.9 429.2,198.7 444.6,198.7 460.0,198.8 475.4,198.8 490.8,198.8 506.2,198.9 521.5,199.0 536.9,199.2 552.3,199.4 567.7,199.5 583.1,199.7 598.5,199.8 613.8,200.0 629.2,200.1 644.6,200.2 660.0,200.4 675.4,200.7 690.8,201.0 706.2,201.3 721.5,201.6 736.9,201.8 752.3,202.2 767.7,202.6 783.1,203.0 798.5,203.3 813.8,203.7 829.2,204.1 844.6,204.4 860.0,204.8" fill="none" stroke="#3b82f6" stroke-width="2.5" stroke-linecap="round" stroke-linejoin="round"/>
  <polyline points="60.0,211.1 75.4,210.2 90.8,209.7 106.2,209.2 121.5,208.7 136.9,208.3 152.3,207.9 167.7,207.5 183.1,207.0 198.5,206.2 213.8,205.0 229.2,204.1 244.6,203.2 260.0,202.5 275.4,201.9 290.8,201.0 306.2,200.3 321.5,199.9 336.9,199.6 352.3,199.4 367.7,199.3 383.1,199.0 398.5,198.9 413.8,198.9 429.2,198.7 444.6,198.7 460.0,198.8 475.4,198.8 490.8,198.8 506.2,198.9 521.5,199.0 536.9,199.2 552.3,199.4 567.7,199.5 583.1,199.7 598.5,199.8 613.8,200.0 629.2,200.1 644.6,200.2 660.0,200.4 675.4,200.7 690.8,201.0 706.2,201.3 721.5,201.6 736.9,201.8 752.3,202.2 767.7,202.6 783.1,203.0 798.5,203.3 813.8,203.7 829.2,204.1 844.6,204.4 860.0,204.8" fill="none" stroke="#3b82f6" stroke-width="5" opacity="0.1" stroke-linecap="round" stroke-linejoin="round"/>

  <!-- Noktalar -->
  <circle cx="60.0" cy="193.2" r="3" fill="#22c55e"/><circle cx="75.4" cy="192.5" r="3" fill="#22c55e"/><circle cx="90.8" cy="192.0" r="3" fill="#22c55e"/><circle cx="106.2" cy="191.6" r="3" fill="#22c55e"/><circle cx="121.5" cy="191.1" r="3" fill="#22c55e"/><circle cx="136.9" cy="190.8" r="3" fill="#22c55e"/><circle cx="152.3" cy="190.4" r="3" fill="#22c55e"/><circle cx="167.7" cy="190.1" r="3" fill="#22c55e"/><circle cx="183.1" cy="189.6" r="3" fill="#22c55e"/><circle cx="198.5" cy="188.8" r="3" fill="#22c55e"/><circle cx="213.8" cy="187.8" r="3" fill="#22c55e"/><circle cx="229.2" cy="187.0" r="3" fill="#22c55e"/><circle cx="244.6" cy="186.2" r="3" fill="#22c55e"/><circle cx="260.0" cy="185.6" r="3" fill="#22c55e"/><circle cx="275.4" cy="185.0" r="3" fill="#22c55e"/><circle cx="290.8" cy="184.3" r="3" fill="#22c55e"/><circle cx="306.2" cy="183.6" r="3" fill="#22c55e"/><circle cx="321.5" cy="183.2" r="3" fill="#22c55e"/><circle cx="336.9" cy="182.9" r="3" fill="#22c55e"/><circle cx="352.3" cy="182.7" r="3" fill="#22c55e"/><circle cx="367.7" cy="182.7" r="3" fill="#22c55e"/><circle cx="383.1" cy="182.4" r="3" fill="#22c55e"/><circle cx="398.5" cy="182.3" r="3" fill="#22c55e"/><circle cx="413.8" cy="182.3" r="3" fill="#22c55e"/><circle cx="429.2" cy="182.2" r="3" fill="#22c55e"/><circle cx="444.6" cy="182.2" r="3" fill="#22c55e"/><circle cx="460.0" cy="182.2" r="3" fill="#22c55e"/><circle cx="475.4" cy="182.2" r="3" fill="#22c55e"/><circle cx="490.8" cy="182.3" r="3" fill="#22c55e"/><circle cx="506.2" cy="182.4" r="3" fill="#22c55e"/><circle cx="521.5" cy="182.5" r="3" fill="#22c55e"/><circle cx="536.9" cy="182.6" r="3" fill="#22c55e"/><circle cx="552.3" cy="182.7" r="3" fill="#22c55e"/><circle cx="567.7" cy="182.9" r="3" fill="#22c55e"/><circle cx="583.1" cy="183.1" r="3" fill="#22c55e"/><circle cx="598.5" cy="183.2" r="3" fill="#22c55e"/><circle cx="613.8" cy="183.3" r="3" fill="#22c55e"/><circle cx="629.2" cy="183.4" r="3" fill="#22c55e"/><circle cx="644.6" cy="183.5" r="3" fill="#22c55e"/><circle cx="660.0" cy="183.7" r="3" fill="#22c55e"/><circle cx="675.4" cy="183.9" r="3" fill="#22c55e"/><circle cx="690.8" cy="184.2" r="3" fill="#22c55e"/><circle cx="706.2" cy="184.4" r="3" fill="#22c55e"/><circle cx="721.5" cy="184.7" r="3" fill="#22c55e"/><circle cx="736.9" cy="185.0" r="3" fill="#22c55e"/><circle cx="752.3" cy="185.3" r="3" fill="#22c55e"/><circle cx="767.7" cy="185.6" r="3" fill="#22c55e"/><circle cx="783.1" cy="186.0" r="3" fill="#22c55e"/><circle cx="798.5" cy="186.3" r="3" fill="#22c55e"/><circle cx="813.8" cy="186.6" r="3" fill="#22c55e"/><circle cx="829.2" cy="187.0" r="3" fill="#22c55e"/><circle cx="844.6" cy="187.3" r="3" fill="#22c55e"/><circle cx="860.0" cy="187.6" r="3" fill="#22c55e"/>
  <circle cx="60.0" cy="211.1" r="3" fill="#3b82f6"/><circle cx="75.4" cy="210.2" r="3" fill="#3b82f6"/><circle cx="90.8" cy="209.7" r="3" fill="#3b82f6"/><circle cx="106.2" cy="209.2" r="3" fill="#3b82f6"/><circle cx="121.5" cy="208.7" r="3" fill="#3b82f6"/><circle cx="136.9" cy="208.3" r="3" fill="#3b82f6"/><circle cx="152.3" cy="207.9" r="3" fill="#3b82f6"/><circle cx="167.7" cy="207.5" r="3" fill="#3b82f6"/><circle cx="183.1" cy="207.0" r="3" fill="#3b82f6"/><circle cx="198.5" cy="206.2" r="3" fill="#3b82f6"/><circle cx="213.8" cy="205.0" r="3" fill="#3b82f6"/><circle cx="229.2" cy="204.1" r="3" fill="#3b82f6"/><circle cx="244.6" cy="203.2" r="3" fill="#3b82f6"/><circle cx="260.0" cy="202.5" r="3" fill="#3b82f6"/><circle cx="275.4" cy="201.9" r="3" fill="#3b82f6"/><circle cx="290.8" cy="201.0" r="3" fill="#3b82f6"/><circle cx="306.2" cy="200.3" r="3" fill="#3b82f6"/><circle cx="321.5" cy="199.9" r="3" fill="#3b82f6"/><circle cx="336.9" cy="199.6" r="3" fill="#3b82f6"/><circle cx="352.3" cy="199.4" r="3" fill="#3b82f6"/><circle cx="367.7" cy="199.3" r="3" fill="#3b82f6"/><circle cx="383.1" cy="199.0" r="3" fill="#3b82f6"/><circle cx="398.5" cy="198.9" r="3" fill="#3b82f6"/><circle cx="413.8" cy="198.9" r="3" fill="#3b82f6"/><circle cx="429.2" cy="198.7" r="3" fill="#3b82f6"/><circle cx="444.6" cy="198.7" r="3" fill="#3b82f6"/><circle cx="460.0" cy="198.8" r="3" fill="#3b82f6"/><circle cx="475.4" cy="198.8" r="3" fill="#3b82f6"/><circle cx="490.8" cy="198.8" r="3" fill="#3b82f6"/><circle cx="506.2" cy="198.9" r="3" fill="#3b82f6"/><circle cx="521.5" cy="199.0" r="3" fill="#3b82f6"/><circle cx="536.9" cy="199.2" r="3" fill="#3b82f6"/><circle cx="552.3" cy="199.4" r="3" fill="#3b82f6"/><circle cx="567.7" cy="199.5" r="3" fill="#3b82f6"/><circle cx="583.1" cy="199.7" r="3" fill="#3b82f6"/><circle cx="598.5" cy="199.8" r="3" fill="#3b82f6"/><circle cx="613.8" cy="200.0" r="3" fill="#3b82f6"/><circle cx="629.2" cy="200.1" r="3" fill="#3b82f6"/><circle cx="644.6" cy="200.2" r="3" fill="#3b82f6"/><circle cx="660.0" cy="200.4" r="3" fill="#3b82f6"/><circle cx="675.4" cy="200.7" r="3" fill="#3b82f6"/><circle cx="690.8" cy="201.0" r="3" fill="#3b82f6"/><circle cx="706.2" cy="201.3" r="3" fill="#3b82f6"/><circle cx="721.5" cy="201.6" r="3" fill="#3b82f6"/><circle cx="736.9" cy="201.8" r="3" fill="#3b82f6"/><circle cx="752.3" cy="202.2" r="3" fill="#3b82f6"/><circle cx="767.7" cy="202.6" r="3" fill="#3b82f6"/><circle cx="783.1" cy="203.0" r="3" fill="#3b82f6"/><circle cx="798.5" cy="203.3" r="3" fill="#3b82f6"/><circle cx="813.8" cy="203.7" r="3" fill="#3b82f6"/><circle cx="829.2" cy="204.1" r="3" fill="#3b82f6"/><circle cx="844.6" cy="204.4" r="3" fill="#3b82f6"/><circle cx="860.0" cy="204.8" r="3" fill="#3b82f6"/>

  <!-- X ekseni -->
  <text x="60.0" y="380" text-anchor="middle" font-size="10" fill="#888">14.05.2026</text>
  <text x="183.1" y="380" text-anchor="middle" font-size="10" fill="#888">22.05.2026</text>
  <text x="306.2" y="380" text-anchor="middle" font-size="10" fill="#888">30.05.2026</text>
  <text x="429.2" y="380" text-anchor="middle" font-size="10" fill="#888">07.06.2026</text>
  <text x="552.3" y="380" text-anchor="middle" font-size="10" fill="#888">15.06.2026</text>
  <text x="675.4" y="380" text-anchor="middle" font-size="10" fill="#888">23.06.2026</text>
  <text x="798.5" y="380" text-anchor="middle" font-size="10" fill="#888">01.07.2026</text>

  <!-- Legend -->
  <g transform="translate(60, 345)">
    <rect x="0" y="0" width="12" height="12" fill="#22c55e" rx="2"/>
    <text x="18" y="10" font-size="11" fill="#c9d1d9">Toplam Doluluk</text>
    <rect x="140" y="0" width="12" height="12" fill="#3b82f6" rx="2"/>
    <text x="158" y="10" font-size="11" fill="#c9d1d9">Aktif Doluluk</text>
  </g>
</svg>