<svg xmlns="http://www.w3.org/2000/svg" viewBox="0 0 900 400" width="100%" style="max-width:900px;">
  <rect width="900" height="400" fill="#0d1117" rx="6"/>
  <text x="450.0" y="25" text-anchor="middle" font-size="16" font-weight="bold" fill="#c9d1d9">Son 360 Gün - Günlük Ortalama</text>

  <!-- Y grid -->
  <line x1="60" y1="320.0" x2="860" y2="320.0" stroke="#333" stroke-width="1" stroke-dasharray="4,4" opacity="0.5"/>
  <text x="50" y="320.0" text-anchor="end" dominant-baseline="middle" font-size="10" fill="#888">0%</text>
  <line x1="60" y1="264.0" x2="860" y2="264.0" stroke="#333" stroke-width="1" stroke-dasharray="4,4" opacity="0.5"/>
  <text x="50" y="264.0" text-anchor="end" dominant-baseline="middle" font-size="10" fill="#888">20%</text>
  <line x1="60" y1="208.0" x2="860" y2="208.0" stroke="#333" stroke-width="1" stroke-dasharray="4,4" opacity="0.5"/>
  <text x="50" y="208.0" text-anchor="end" dominant-baseline="middle" font-size="10" fill="#888">40%</text>
  <line x1="60" y1="152.0" x2="860" y2="152.0" stroke="#333" stroke-width="1" stroke-dasharray="4,4" opacity="0.5"/>
  <text x="50" y="152.0" text-anchor="end" dominant-baseline="middle" font-size="10" fill="#888">60%</text>
  <line x1="60" y1="96.0" x2="860" y2="96.0" stroke="#333" stroke-width="1" stroke-dasharray="4,4" opacity="0.5"/>
  <text x="50" y="96.0" text-anchor="end" dominant-baseline="middle" font-size="10" fill="#888">80%</text>
  <line x1="60" y1="40.0" x2="860" y2="40.0" stroke="#333" stroke-width="1" stroke-dasharray="4,4" opacity="0.5"/>
  <text x="50" y="40.0" text-anchor="end" dominant-baseline="middle" font-size="10" fill="#888">100%</text>

  <!-- Referans çizgileri -->
  <line x1="60" y1="236.0" x2="860" y2="236.0" stroke="#ef4444" stroke-width="1" stroke-dasharray="2,2" opacity="0.7"/>
  <text x="845" y="236.0" dominant-baseline="middle" font-size="9" fill="#ef4444">Kritik (30%)</text>
  <line x1="60" y1="180.0" x2="860" y2="180.0" stroke="#eab308" stroke-width="1" stroke-dasharray="2,2" opacity="0.7"/>
  <text x="845" y="180.0" dominant-baseline="middle" font-size="9" fill="#eab308">Normal (50%)</text>

  <!-- Toplam doluluk -->
  <polyline points="60.0,193.2 74.5,192.5 89.1,192.0 103.6,191.6 118.2,191.1 132.7,190.8 147.3,190.4 161.8,190.1 176.4,189.6 190.9,188.8 205.5,187.8 220.0,187.0 234.5,186.2 249.1,185.6 263.6,185.0 278.2,184.3 292.7,183.6 307.3,183.2 321.8,182.9 336.4,182.7 350.9,182.7 365.5,182.4 380.0,182.3 394.5,182.3 409.1,182.2 423.6,182.2 438.2,182.2 452.7,182.2 467.3,182.3 481.8,182.4 496.4,182.5 510.9,182.6 525.5,182.7 540.0,182.9 554.5,183.1 569.1,183.2 583.6,183.3 598.2,183.4 612.7,183.5 627.3,183.7 641.8,183.9 656.4,184.2 670.9,184.4 685.5,184.7 700.0,185.0 714.5,185.3 729.1,185.6 743.6,186.0 758.2,186.3 772.7,186.6 787.3,187.0 801.8,187.3 816.4,187.6 830.9,188.0 845.5,188.3 860.0,188.6" fill="none" stroke="#22c55e" stroke-width="2.5" stroke-linecap="round" stroke-linejoin="round"/>
  <polyline points="60.0,193.2 74.5,192.5 89.1,192.0 103.6,191.6 118.2,191.1 132.7,190.8 147.3,190.4 161.8,190.1 176.4,189.6 190.9,188.8 205.5,187.8 220.0,187.0 234.5,186.2 249.1,185.6 263.6,185.0 278.2,184.3 292.7,183.6 307.3,183.2 321.8,182.9 336.4,182.7 350.9,182.7 365.5,182.4 380.0,182.3 394.5,182.3 409.1,182.2 423.6,182.2 438.2,182.2 452.7,182.2 467.3,182.3 481.8,182.4 496.4,182.5 510.9,182.6 525.5,182.7 540.0,182.9 554.5,183.1 569.1,183.2 583.6,183.3 598.2,183.4 612.7,183.5 627.3,183.7 641.8,183.9 656.4,184.2 670.9,184.4 685.5,184.7 700.0,185.0 714.5,185.3 729.1,185.6 743.6,186.0 758.2,186.3 772.7,186.6 787.3,187.0 801.8,187.3 816.4,187.6 830.9,188.0 845.5,188.3 860.0,188.6" fill="none" stroke="#22c55e" stroke-width="5" opacity="0.1" stroke-linecap="round" stroke-linejoin="round"/>

  <!-- Aktif doluluk -->
  <polyline points="60.0,211.1 74.5,210.2 89.1,209.7 103.6,209.2 118.2,208.7 132.7,208.3 147.3,207.9 161.8,207.5 176.4,207.0 190.9,206.2 205.5,205.0 220.0,204.1 234.5,203.2 249.1,202.5 263.6,201.9 278.2,201.0 292.7,200.3 307.3,199.9 321.8,199.6 336.4,199.4 350.9,199.3 365.5,199.0 380.0,198.9 394.5,198.9 409.1,198.7 423.6,198.7 438.2,198.8 452.7,198.8 467.3,198.8 481.8,198.9 496.4,199.0 510.9,199.2 525.5,199.4 540.0,199.5 554.5,199.7 569.1,199.8 583.6,200.0 598.2,200.1 612.7,200.2 627.3,200.4 641.8,200.7 656.4,201.0 670.9,201.3 685.5,201.6 700.0,201.8 714.5,202.2 729.1,202.6 743.6,203.0 758.2,203.3 772.7,203.7 787.3,204.1 801.8,204.4 816.4,204.8 830.9,205.2 845.5,205.5 860.0,205.9" fill="none" stroke="#3b82f6" stroke-width="2.5" stroke-linecap="round" stroke-linejoin="round"/>
  <polyline points="60.0,211.1 74.5,210.2 89.1,209.7 103.6,209.2 118.2,208.7 132.7,208.3 147.3,207.9 161.8,207.5 176.4,207.0 190.9,206.2 205.5,205.0 220.0,204.1 234.5,203.2 249.1,202.5 263.6,201.9 278.2,201.0 292.7,200.3 307.3,199.9 321.8,199.6 336.4,199.4 350.9,199.3 365.5,199.0 380.0,198.9 394.5,198.9 409.1,198.7 423.6,198.7 438.2,198.8 452.7,198.8 467.3,198.8 481.8,198.9 496.4,199.0 510.9,199.2 525.5,199.4 540.0,199.5 554.5,199.7 569.1,199.8 583.6,200.0 598.2,200.1 612.7,200.2 627.3,200.4 641.8,200.7 656.4,201.0 670.9,201.3 685.5,201.6 700.0,201.8 714.5,202.2 729.1,202.6 743.6,203.0 758.2,203.3 772.7,203.7 787.3,204.1 801.8,204.4 816.4,204.8 830.9,205.2 845.5,205.5 860.0,205.9" fill="none" stroke="#3b82f6" stroke-width="5" opacity="0.1" stroke-linecap="round" stroke-linejoin="round"/>

  <!-- Noktalar -->
  <circle cx="60.0" cy="193.2" r="3" fill="#22c55e"/><circle cx="74.5" cy="192.5" r="3" fill="#22c55e"/><circle cx="89.1" cy="192.0" r="3" fill="#22c55e"/><circle cx="103.6" cy="191.6" r="3" fill="#22c55e"/><circle cx="118.2" cy="191.1" r="3" fill="#22c55e"/><circle cx="132.7" cy="190.8" r="3" fill="#22c55e"/><circle cx="147.3" cy="190.4" r="3" fill="#22c55e"/><circle cx="161.8" cy="190.1" r="3" fill="#22c55e"/><circle cx="176.4" cy="189.6" r="3" fill="#22c55e"/><circle cx="190.9" cy="188.8" r="3" fill="#22c55e"/><circle cx="205.5" cy="187.8" r="3" fill="#22c55e"/><circle cx="220.0" cy="187.0" r="3" fill="#22c55e"/><circle cx="234.5" cy="186.2" r="3" fill="#22c55e"/><circle cx="249.1" cy="185.6" r="3" fill="#22c55e"/><circle cx="263.6" cy="185.0" r="3" fill="#22c55e"/><circle cx="278.2" cy="184.3" r="3" fill="#22c55e"/><circle cx="292.7" cy="183.6" r="3" fill="#22c55e"/><circle cx="307.3" cy="183.2" r="3" fill="#22c55e"/><circle cx="321.8" cy="182.9" r="3" fill="#22c55e"/><circle cx="336.4" cy="182.7" r="3" fill="#22c55e"/><circle cx="350.9" cy="182.7" r="3" fill="#22c55e"/><circle cx="365.5" cy="182.4" r="3" fill="#22c55e"/><circle cx="380.0" cy="182.3" r="3" fill="#22c55e"/><circle cx="394.5" cy="182.3" r="3" fill="#22c55e"/><circle cx="409.1" cy="182.2" r="3" fill="#22c55e"/><circle cx="423.6" cy="182.2" r="3" fill="#22c55e"/><circle cx="438.2" cy="182.2" r="3" fill="#22c55e"/><circle cx="452.7" cy="182.2" r="3" fill="#22c55e"/><circle cx="467.3" cy="182.3" r="3" fill="#22c55e"/><circle cx="481.8" cy="182.4" r="3" fill="#22c55e"/><circle cx="496.4" cy="182.5" r="3" fill="#22c55e"/><circle cx="510.9" cy="182.6" r="3" fill="#22c55e"/><circle cx="525.5" cy="182.7" r="3" fill="#22c55e"/><circle cx="540.0" cy="182.9" r="3" fill="#22c55e"/><circle cx="554.5" cy="183.1" r="3" fill="#22c55e"/><circle cx="569.1" cy="183.2" r="3" fill="#22c55e"/><circle cx="583.6" cy="183.3" r="3" fill="#22c55e"/><circle cx="598.2" cy="183.4" r="3" fill="#22c55e"/><circle cx="612.7" cy="183.5" r="3" fill="#22c55e"/><circle cx="627.3" cy="183.7" r="3" fill="#22c55e"/><circle cx="641.8" cy="183.9" r="3" fill="#22c55e"/><circle cx="656.4" cy="184.2" r="3" fill="#22c55e"/><circle cx="670.9" cy="184.4" r="3" fill="#22c55e"/><circle cx="685.5" cy="184.7" r="3" fill="#22c55e"/><circle cx="700.0" cy="185.0" r="3" fill="#22c55e"/><circle cx="714.5" cy="185.3" r="3" fill="#22c55e"/><circle cx="729.1" cy="185.6" r="3" fill="#22c55e"/><circle cx="743.6" cy="186.0" r="3" fill="#22c55e"/><circle cx="758.2" cy="186.3" r="3" fill="#22c55e"/><circle cx="772.7" cy="186.6" r="3" fill="#22c55e"/><circle cx="787.3" cy="187.0" r="3" fill="#22c55e"/><circle cx="801.8" cy="187.3" r="3" fill="#22c55e"/><circle cx="816.4" cy="187.6" r="3" fill="#22c55e"/><circle cx="830.9" cy="188.0" r="3" fill="#22c55e"/><circle cx="845.5" cy="188.3" r="3" fill="#22c55e"/><circle cx="860.0" cy="188.6" r="3" fill="#22c55e"/>
  <circle cx="60.0" cy="211.1" r="3" fill="#3b82f6"/><circle cx="74.5" cy="210.2" r="3" fill="#3b82f6"/><circle cx="89.1" cy="209.7" r="3" fill="#3b82f6"/><circle cx="103.6" cy="209.2" r="3" fill="#3b82f6"/><circle cx="118.2" cy="208.7" r="3" fill="#3b82f6"/><circle cx="132.7" cy="208.3" r="3" fill="#3b82f6"/><circle cx="147.3" cy="207.9" r="3" fill="#3b82f6"/><circle cx="161.8" cy="207.5" r="3" fill="#3b82f6"/><circle cx="176.4" cy="207.0" r="3" fill="#3b82f6"/><circle cx="190.9" cy="206.2" r="3" fill="#3b82f6"/><circle cx="205.5" cy="205.0" r="3" fill="#3b82f6"/><circle cx="220.0" cy="204.1" r="3" fill="#3b82f6"/><circle cx="234.5" cy="203.2" r="3" fill="#3b82f6"/><circle cx="249.1" cy="202.5" r="3" fill="#3b82f6"/><circle cx="263.6" cy="201.9" r="3" fill="#3b82f6"/><circle cx="278.2" cy="201.0" r="3" fill="#3b82f6"/><circle cx="292.7" cy="200.3" r="3" fill="#3b82f6"/><circle cx="307.3" cy="199.9" r="3" fill="#3b82f6"/><circle cx="321.8" cy="199.6" r="3" fill="#3b82f6"/><circle cx="336.4" cy="199.4" r="3" fill="#3b82f6"/><circle cx="350.9" cy="199.3" r="3" fill="#3b82f6"/><circle cx="365.5" cy="199.0" r="3" fill="#3b82f6"/><circle cx="380.0" cy="198.9" r="3" fill="#3b82f6"/><circle cx="394.5" cy="198.9" r="3" fill="#3b82f6"/><circle cx="409.1" cy="198.7" r="3" fill="#3b82f6"/><circle cx="423.6" cy="198.7" r="3" fill="#3b82f6"/><circle cx="438.2" cy="198.8" r="3" fill="#3b82f6"/><circle cx="452.7" cy="198.8" r="3" fill="#3b82f6"/><circle cx="467.3" cy="198.8" r="3" fill="#3b82f6"/><circle cx="481.8" cy="198.9" r="3" fill="#3b82f6"/><circle cx="496.4" cy="199.0" r="3" fill="#3b82f6"/><circle cx="510.9" cy="199.2" r="3" fill="#3b82f6"/><circle cx="525.5" cy="199.4" r="3" fill="#3b82f6"/><circle cx="540.0" cy="199.5" r="3" fill="#3b82f6"/><circle cx="554.5" cy="199.7" r="3" fill="#3b82f6"/><circle cx="569.1" cy="199.8" r="3" fill="#3b82f6"/><circle cx="583.6" cy="200.0" r="3" fill="#3b82f6"/><circle cx="598.2" cy="200.1" r="3" fill="#3b82f6"/><circle cx="612.7" cy="200.2" r="3" fill="#3b82f6"/><circle cx="627.3" cy="200.4" r="3" fill="#3b82f6"/><circle cx="641.8" cy="200.7" r="3" fill="#3b82f6"/><circle cx="656.4" cy="201.0" r="3" fill="#3b82f6"/><circle cx="670.9" cy="201.3" r="3" fill="#3b82f6"/><circle cx="685.5" cy="201.6" r="3" fill="#3b82f6"/><circle cx="700.0" cy="201.8" r="3" fill="#3b82f6"/><circle cx="714.5" cy="202.2" r="3" fill="#3b82f6"/><circle cx="729.1" cy="202.6" r="3" fill="#3b82f6"/><circle cx="743.6" cy="203.0" r="3" fill="#3b82f6"/><circle cx="758.2" cy="203.3" r="3" fill="#3b82f6"/><circle cx="772.7" cy="203.7" r="3" fill="#3b82f6"/><circle cx="787.3" cy="204.1" r="3" fill="#3b82f6"/><circle cx="801.8" cy="204.4" r="3" fill="#3b82f6"/><circle cx="816.4" cy="204.8" r="3" fill="#3b82f6"/><circle cx="830.9" cy="205.2" r="3" fill="#3b82f6"/><circle cx="845.5" cy="205.5" r="3" fill="#3b82f6"/><circle cx="860.0" cy="205.9" r="3" fill="#3b82f6"/>

  <!-- X ekseni -->
  <text x="60.0" y="380" text-anchor="middle" font-size="10" fill="#888">14.05.2026</text>
  <text x="190.9" y="380" text-anchor="middle" font-size="10" fill="#888">23.05.2026</text>
  <text x="321.8" y="380" text-anchor="middle" font-size="10" fill="#888">01.06.2026</text>
  <text x="452.7" y="380" text-anchor="middle" font-size="10" fill="#888">10.06.2026</text>
  <text x="583.6" y="380" text-anchor="middle" font-size="10" fill="#888">19.06.2026</text>
  <text x="714.5" y="380" text-anchor="middle" font-size="10" fill="#888">28.06.2026</text>
  <text x="845.5" y="380" text-anchor="middle" font-size="10" fill="#888">07.07.2026</text>

  <!-- Legend -->
  <g transform="translate(60, 345)">
    <rect x="0" y="0" width="12" height="12" fill="#22c55e" rx="2"/>
    <text x="18" y="10" font-size="11" fill="#c9d1d9">Toplam Doluluk</text>
    <rect x="140" y="0" width="12" height="12" fill="#3b82f6" rx="2"/>
    <text x="158" y="10" font-size="11" fill="#c9d1d9">Aktif Doluluk</text>
  </g>
</svg>