<svg xmlns="http://www.w3.org/2000/svg" viewBox="0 0 900 400" width="100%" style="max-width:900px;">
  <rect width="900" height="400" fill="#0d1117" rx="6"/>
  <text x="450.0" y="25" text-anchor="middle" font-size="16" font-weight="bold" fill="#c9d1d9">Son 180 Gün - Günlük Ortalama</text>

  <!-- Y grid -->
  <line x1="60" y1="320.0" x2="860" y2="320.0" stroke="#333" stroke-width="1" stroke-dasharray="4,4" opacity="0.5"/>
  <text x="50" y="320.0" text-anchor="end" dominant-baseline="middle" font-size="10" fill="#888">0%</text>
  <line x1="60" y1="264.0" x2="860" y2="264.0" stroke="#333" stroke-width="1" stroke-dasharray="4,4" opacity="0.5"/>
  <text x="50" y="264.0" text-anchor="end" dominant-baseline="middle" font-size="10" fill="#888">20%</text>
  <line x1="60" y1="208.0" x2="860" y2="208.0" stroke="#333" stroke-width="1" stroke-dasharray="4,4" opacity="0.5"/>
  <text x="50" y="208.0" text-anchor="end" dominant-baseline="middle" font-size="10" fill="#888">40%</text>
  <line x1="60" y1="152.0" x2="860" y2="152.0" stroke="#333" stroke-width="1" stroke-dasharray="4,4" opacity="0.5"/>
  <text x="50" y="152.0" text-anchor="end" dominant-baseline="middle" font-size="10" fill="#888">60%</text>
  <line x1="60" y1="96.0" x2="860" y2="96.0" stroke="#333" stroke-width="1" stroke-dasharray="4,4" opacity="0.5"/>
  <text x="50" y="96.0" text-anchor="end" dominant-baseline="middle" font-size="10" fill="#888">80%</text>
  <line x1="60" y1="40.0" x2="860" y2="40.0" stroke="#333" stroke-width="1" stroke-dasharray="4,4" opacity="0.5"/>
  <text x="50" y="40.0" text-anchor="end" dominant-baseline="middle" font-size="10" fill="#888">100%</text>

  <!-- Referans çizgileri -->
  <line x1="60" y1="236.0" x2="860" y2="236.0" stroke="#ef4444" stroke-width="1" stroke-dasharray="2,2" opacity="0.7"/>
  <text x="845" y="236.0" dominant-baseline="middle" font-size="9" fill="#ef4444">Kritik (30%)</text>
  <line x1="60" y1="180.0" x2="860" y2="180.0" stroke="#eab308" stroke-width="1" stroke-dasharray="2,2" opacity="0.7"/>
  <text x="845" y="180.0" dominant-baseline="middle" font-size="9" fill="#eab308">Normal (50%)</text>

  <!-- Toplam doluluk -->
  <polyline points="60.0,193.2 73.8,192.5 87.6,192.0 101.4,191.6 115.2,191.1 129.0,190.8 142.8,190.4 156.6,190.1 170.3,189.6 184.1,188.8 197.9,187.8 211.7,187.0 225.5,186.2 239.3,185.6 253.1,185.0 266.9,184.3 280.7,183.6 294.5,183.2 308.3,182.9 322.1,182.7 335.9,182.7 349.7,182.4 363.4,182.3 377.2,182.3 391.0,182.2 404.8,182.2 418.6,182.2 432.4,182.2 446.2,182.3 460.0,182.4 473.8,182.5 487.6,182.6 501.4,182.7 515.2,182.9 529.0,183.1 542.8,183.2 556.6,183.3 570.3,183.4 584.1,183.5 597.9,183.7 611.7,183.9 625.5,184.2 639.3,184.4 653.1,184.7 666.9,185.0 680.7,185.3 694.5,185.6 708.3,186.0 722.1,186.3 735.9,186.6 749.7,187.0 763.4,187.3 777.2,187.6 791.0,188.0 804.8,188.3 818.6,188.6 832.4,189.0 846.2,189.3 860.0,189.6" fill="none" stroke="#22c55e" stroke-width="2.5" stroke-linecap="round" stroke-linejoin="round"/>
  <polyline points="60.0,193.2 73.8,192.5 87.6,192.0 101.4,191.6 115.2,191.1 129.0,190.8 142.8,190.4 156.6,190.1 170.3,189.6 184.1,188.8 197.9,187.8 211.7,187.0 225.5,186.2 239.3,185.6 253.1,185.0 266.9,184.3 280.7,183.6 294.5,183.2 308.3,182.9 322.1,182.7 335.9,182.7 349.7,182.4 363.4,182.3 377.2,182.3 391.0,182.2 404.8,182.2 418.6,182.2 432.4,182.2 446.2,182.3 460.0,182.4 473.8,182.5 487.6,182.6 501.4,182.7 515.2,182.9 529.0,183.1 542.8,183.2 556.6,183.3 570.3,183.4 584.1,183.5 597.9,183.7 611.7,183.9 625.5,184.2 639.3,184.4 653.1,184.7 666.9,185.0 680.7,185.3 694.5,185.6 708.3,186.0 722.1,186.3 735.9,186.6 749.7,187.0 763.4,187.3 777.2,187.6 791.0,188.0 804.8,188.3 818.6,188.6 832.4,189.0 846.2,189.3 860.0,189.6" fill="none" stroke="#22c55e" stroke-width="5" opacity="0.1" stroke-linecap="round" stroke-linejoin="round"/>

  <!-- Aktif doluluk -->
  <polyline points="60.0,211.1 73.8,210.2 87.6,209.7 101.4,209.2 115.2,208.7 129.0,208.3 142.8,207.9 156.6,207.5 170.3,207.0 184.1,206.2 197.9,205.0 211.7,204.1 225.5,203.2 239.3,202.5 253.1,201.9 266.9,201.0 280.7,200.3 294.5,199.9 308.3,199.6 322.1,199.4 335.9,199.3 349.7,199.0 363.4,198.9 377.2,198.9 391.0,198.7 404.8,198.7 418.6,198.8 432.4,198.8 446.2,198.8 460.0,198.9 473.8,199.0 487.6,199.2 501.4,199.4 515.2,199.5 529.0,199.7 542.8,199.8 556.6,200.0 570.3,200.1 584.1,200.2 597.9,200.4 611.7,200.7 625.5,201.0 639.3,201.3 653.1,201.6 666.9,201.8 680.7,202.2 694.5,202.6 708.3,203.0 722.1,203.3 735.9,203.7 749.7,204.1 763.4,204.4 777.2,204.8 791.0,205.2 804.8,205.5 818.6,205.9 832.4,206.3 846.2,206.7 860.0,207.0" fill="none" stroke="#3b82f6" stroke-width="2.5" stroke-linecap="round" stroke-linejoin="round"/>
  <polyline points="60.0,211.1 73.8,210.2 87.6,209.7 101.4,209.2 115.2,208.7 129.0,208.3 142.8,207.9 156.6,207.5 170.3,207.0 184.1,206.2 197.9,205.0 211.7,204.1 225.5,203.2 239.3,202.5 253.1,201.9 266.9,201.0 280.7,200.3 294.5,199.9 308.3,199.6 322.1,199.4 335.9,199.3 349.7,199.0 363.4,198.9 377.2,198.9 391.0,198.7 404.8,198.7 418.6,198.8 432.4,198.8 446.2,198.8 460.0,198.9 473.8,199.0 487.6,199.2 501.4,199.4 515.2,199.5 529.0,199.7 542.8,199.8 556.6,200.0 570.3,200.1 584.1,200.2 597.9,200.4 611.7,200.7 625.5,201.0 639.3,201.3 653.1,201.6 666.9,201.8 680.7,202.2 694.5,202.6 708.3,203.0 722.1,203.3 735.9,203.7 749.7,204.1 763.4,204.4 777.2,204.8 791.0,205.2 804.8,205.5 818.6,205.9 832.4,206.3 846.2,206.7 860.0,207.0" fill="none" stroke="#3b82f6" stroke-width="5" opacity="0.1" stroke-linecap="round" stroke-linejoin="round"/>

  <!-- Noktalar -->
  <circle cx="60.0" cy="193.2" r="3" fill="#22c55e"/><circle cx="73.8" cy="192.5" r="3" fill="#22c55e"/><circle cx="87.6" cy="192.0" r="3" fill="#22c55e"/><circle cx="101.4" cy="191.6" r="3" fill="#22c55e"/><circle cx="115.2" cy="191.1" r="3" fill="#22c55e"/><circle cx="129.0" cy="190.8" r="3" fill="#22c55e"/><circle cx="142.8" cy="190.4" r="3" fill="#22c55e"/><circle cx="156.6" cy="190.1" r="3" fill="#22c55e"/><circle cx="170.3" cy="189.6" r="3" fill="#22c55e"/><circle cx="184.1" cy="188.8" r="3" fill="#22c55e"/><circle cx="197.9" cy="187.8" r="3" fill="#22c55e"/><circle cx="211.7" cy="187.0" r="3" fill="#22c55e"/><circle cx="225.5" cy="186.2" r="3" fill="#22c55e"/><circle cx="239.3" cy="185.6" r="3" fill="#22c55e"/><circle cx="253.1" cy="185.0" r="3" fill="#22c55e"/><circle cx="266.9" cy="184.3" r="3" fill="#22c55e"/><circle cx="280.7" cy="183.6" r="3" fill="#22c55e"/><circle cx="294.5" cy="183.2" r="3" fill="#22c55e"/><circle cx="308.3" cy="182.9" r="3" fill="#22c55e"/><circle cx="322.1" cy="182.7" r="3" fill="#22c55e"/><circle cx="335.9" cy="182.7" r="3" fill="#22c55e"/><circle cx="349.7" cy="182.4" r="3" fill="#22c55e"/><circle cx="363.4" cy="182.3" r="3" fill="#22c55e"/><circle cx="377.2" cy="182.3" r="3" fill="#22c55e"/><circle cx="391.0" cy="182.2" r="3" fill="#22c55e"/><circle cx="404.8" cy="182.2" r="3" fill="#22c55e"/><circle cx="418.6" cy="182.2" r="3" fill="#22c55e"/><circle cx="432.4" cy="182.2" r="3" fill="#22c55e"/><circle cx="446.2" cy="182.3" r="3" fill="#22c55e"/><circle cx="460.0" cy="182.4" r="3" fill="#22c55e"/><circle cx="473.8" cy="182.5" r="3" fill="#22c55e"/><circle cx="487.6" cy="182.6" r="3" fill="#22c55e"/><circle cx="501.4" cy="182.7" r="3" fill="#22c55e"/><circle cx="515.2" cy="182.9" r="3" fill="#22c55e"/><circle cx="529.0" cy="183.1" r="3" fill="#22c55e"/><circle cx="542.8" cy="183.2" r="3" fill="#22c55e"/><circle cx="556.6" cy="183.3" r="3" fill="#22c55e"/><circle cx="570.3" cy="183.4" r="3" fill="#22c55e"/><circle cx="584.1" cy="183.5" r="3" fill="#22c55e"/><circle cx="597.9" cy="183.7" r="3" fill="#22c55e"/><circle cx="611.7" cy="183.9" r="3" fill="#22c55e"/><circle cx="625.5" cy="184.2" r="3" fill="#22c55e"/><circle cx="639.3" cy="184.4" r="3" fill="#22c55e"/><circle cx="653.1" cy="184.7" r="3" fill="#22c55e"/><circle cx="666.9" cy="185.0" r="3" fill="#22c55e"/><circle cx="680.7" cy="185.3" r="3" fill="#22c55e"/><circle cx="694.5" cy="185.6" r="3" fill="#22c55e"/><circle cx="708.3" cy="186.0" r="3" fill="#22c55e"/><circle cx="722.1" cy="186.3" r="3" fill="#22c55e"/><circle cx="735.9" cy="186.6" r="3" fill="#22c55e"/><circle cx="749.7" cy="187.0" r="3" fill="#22c55e"/><circle cx="763.4" cy="187.3" r="3" fill="#22c55e"/><circle cx="777.2" cy="187.6" r="3" fill="#22c55e"/><circle cx="791.0" cy="188.0" r="3" fill="#22c55e"/><circle cx="804.8" cy="188.3" r="3" fill="#22c55e"/><circle cx="818.6" cy="188.6" r="3" fill="#22c55e"/><circle cx="832.4" cy="189.0" r="3" fill="#22c55e"/><circle cx="846.2" cy="189.3" r="3" fill="#22c55e"/><circle cx="860.0" cy="189.6" r="3" fill="#22c55e"/>
  <circle cx="60.0" cy="211.1" r="3" fill="#3b82f6"/><circle cx="73.8" cy="210.2" r="3" fill="#3b82f6"/><circle cx="87.6" cy="209.7" r="3" fill="#3b82f6"/><circle cx="101.4" cy="209.2" r="3" fill="#3b82f6"/><circle cx="115.2" cy="208.7" r="3" fill="#3b82f6"/><circle cx="129.0" cy="208.3" r="3" fill="#3b82f6"/><circle cx="142.8" cy="207.9" r="3" fill="#3b82f6"/><circle cx="156.6" cy="207.5" r="3" fill="#3b82f6"/><circle cx="170.3" cy="207.0" r="3" fill="#3b82f6"/><circle cx="184.1" cy="206.2" r="3" fill="#3b82f6"/><circle cx="197.9" cy="205.0" r="3" fill="#3b82f6"/><circle cx="211.7" cy="204.1" r="3" fill="#3b82f6"/><circle cx="225.5" cy="203.2" r="3" fill="#3b82f6"/><circle cx="239.3" cy="202.5" r="3" fill="#3b82f6"/><circle cx="253.1" cy="201.9" r="3" fill="#3b82f6"/><circle cx="266.9" cy="201.0" r="3" fill="#3b82f6"/><circle cx="280.7" cy="200.3" r="3" fill="#3b82f6"/><circle cx="294.5" cy="199.9" r="3" fill="#3b82f6"/><circle cx="308.3" cy="199.6" r="3" fill="#3b82f6"/><circle cx="322.1" cy="199.4" r="3" fill="#3b82f6"/><circle cx="335.9" cy="199.3" r="3" fill="#3b82f6"/><circle cx="349.7" cy="199.0" r="3" fill="#3b82f6"/><circle cx="363.4" cy="198.9" r="3" fill="#3b82f6"/><circle cx="377.2" cy="198.9" r="3" fill="#3b82f6"/><circle cx="391.0" cy="198.7" r="3" fill="#3b82f6"/><circle cx="404.8" cy="198.7" r="3" fill="#3b82f6"/><circle cx="418.6" cy="198.8" r="3" fill="#3b82f6"/><circle cx="432.4" cy="198.8" r="3" fill="#3b82f6"/><circle cx="446.2" cy="198.8" r="3" fill="#3b82f6"/><circle cx="460.0" cy="198.9" r="3" fill="#3b82f6"/><circle cx="473.8" cy="199.0" r="3" fill="#3b82f6"/><circle cx="487.6" cy="199.2" r="3" fill="#3b82f6"/><circle cx="501.4" cy="199.4" r="3" fill="#3b82f6"/><circle cx="515.2" cy="199.5" r="3" fill="#3b82f6"/><circle cx="529.0" cy="199.7" r="3" fill="#3b82f6"/><circle cx="542.8" cy="199.8" r="3" fill="#3b82f6"/><circle cx="556.6" cy="200.0" r="3" fill="#3b82f6"/><circle cx="570.3" cy="200.1" r="3" fill="#3b82f6"/><circle cx="584.1" cy="200.2" r="3" fill="#3b82f6"/><circle cx="597.9" cy="200.4" r="3" fill="#3b82f6"/><circle cx="611.7" cy="200.7" r="3" fill="#3b82f6"/><circle cx="625.5" cy="201.0" r="3" fill="#3b82f6"/><circle cx="639.3" cy="201.3" r="3" fill="#3b82f6"/><circle cx="653.1" cy="201.6" r="3" fill="#3b82f6"/><circle cx="666.9" cy="201.8" r="3" fill="#3b82f6"/><circle cx="680.7" cy="202.2" r="3" fill="#3b82f6"/><circle cx="694.5" cy="202.6" r="3" fill="#3b82f6"/><circle cx="708.3" cy="203.0" r="3" fill="#3b82f6"/><circle cx="722.1" cy="203.3" r="3" fill="#3b82f6"/><circle cx="735.9" cy="203.7" r="3" fill="#3b82f6"/><circle cx="749.7" cy="204.1" r="3" fill="#3b82f6"/><circle cx="763.4" cy="204.4" r="3" fill="#3b82f6"/><circle cx="777.2" cy="204.8" r="3" fill="#3b82f6"/><circle cx="791.0" cy="205.2" r="3" fill="#3b82f6"/><circle cx="804.8" cy="205.5" r="3" fill="#3b82f6"/><circle cx="818.6" cy="205.9" r="3" fill="#3b82f6"/><circle cx="832.4" cy="206.3" r="3" fill="#3b82f6"/><circle cx="846.2" cy="206.7" r="3" fill="#3b82f6"/><circle cx="860.0" cy="207.0" r="3" fill="#3b82f6"/>

  <!-- X ekseni -->
  <text x="60.0" y="380" text-anchor="middle" font-size="10" fill="#888">14.05.2026</text>
  <text x="184.1" y="380" text-anchor="middle" font-size="10" fill="#888">23.05.2026</text>
  <text x="308.3" y="380" text-anchor="middle" font-size="10" fill="#888">01.06.2026</text>
  <text x="432.4" y="380" text-anchor="middle" font-size="10" fill="#888">10.06.2026</text>
  <text x="556.6" y="380" text-anchor="middle" font-size="10" fill="#888">19.06.2026</text>
  <text x="680.7" y="380" text-anchor="middle" font-size="10" fill="#888">28.06.2026</text>
  <text x="804.8" y="380" text-anchor="middle" font-size="10" fill="#888">07.07.2026</text>

  <!-- Legend -->
  <g transform="translate(60, 345)">
    <rect x="0" y="0" width="12" height="12" fill="#22c55e" rx="2"/>
    <text x="18" y="10" font-size="11" fill="#c9d1d9">Toplam Doluluk</text>
    <rect x="140" y="0" width="12" height="12" fill="#3b82f6" rx="2"/>
    <text x="158" y="10" font-size="11" fill="#c9d1d9">Aktif Doluluk</text>
  </g>
</svg>