<svg xmlns="http://www.w3.org/2000/svg" viewBox="0 0 900 400" width="100%" style="max-width:900px;">
  <rect width="900" height="400" fill="#0d1117" rx="6"/>
  <text x="450.0" y="25" text-anchor="middle" font-size="16" font-weight="bold" fill="#c9d1d9">Son 180 Gün - Günlük Ortalama</text>

  <!-- Y grid -->
  <line x1="60" y1="320.0" x2="860" y2="320.0" stroke="#333" stroke-width="1" stroke-dasharray="4,4" opacity="0.5"/>
  <text x="50" y="320.0" text-anchor="end" dominant-baseline="middle" font-size="10" fill="#888">0%</text>
  <line x1="60" y1="264.0" x2="860" y2="264.0" stroke="#333" stroke-width="1" stroke-dasharray="4,4" opacity="0.5"/>
  <text x="50" y="264.0" text-anchor="end" dominant-baseline="middle" font-size="10" fill="#888">20%</text>
  <line x1="60" y1="208.0" x2="860" y2="208.0" stroke="#333" stroke-width="1" stroke-dasharray="4,4" opacity="0.5"/>
  <text x="50" y="208.0" text-anchor="end" dominant-baseline="middle" font-size="10" fill="#888">40%</text>
  <line x1="60" y1="152.0" x2="860" y2="152.0" stroke="#333" stroke-width="1" stroke-dasharray="4,4" opacity="0.5"/>
  <text x="50" y="152.0" text-anchor="end" dominant-baseline="middle" font-size="10" fill="#888">60%</text>
  <line x1="60" y1="96.0" x2="860" y2="96.0" stroke="#333" stroke-width="1" stroke-dasharray="4,4" opacity="0.5"/>
  <text x="50" y="96.0" text-anchor="end" dominant-baseline="middle" font-size="10" fill="#888">80%</text>
  <line x1="60" y1="40.0" x2="860" y2="40.0" stroke="#333" stroke-width="1" stroke-dasharray="4,4" opacity="0.5"/>
  <text x="50" y="40.0" text-anchor="end" dominant-baseline="middle" font-size="10" fill="#888">100%</text>

  <!-- Referans çizgileri -->
  <line x1="60" y1="236.0" x2="860" y2="236.0" stroke="#ef4444" stroke-width="1" stroke-dasharray="2,2" opacity="0.7"/>
  <text x="845" y="236.0" dominant-baseline="middle" font-size="9" fill="#ef4444">Kritik (30%)</text>
  <line x1="60" y1="180.0" x2="860" y2="180.0" stroke="#eab308" stroke-width="1" stroke-dasharray="2,2" opacity="0.7"/>
  <text x="845" y="180.0" dominant-baseline="middle" font-size="9" fill="#eab308">Normal (50%)</text>

  <!-- Toplam doluluk -->
  <polyline points="60.0,193.2 73.1,192.5 86.2,192.0 99.3,191.6 112.5,191.1 125.6,190.8 138.7,190.4 151.8,190.1 164.9,189.6 178.0,188.8 191.1,187.8 204.3,187.0 217.4,186.2 230.5,185.6 243.6,185.0 256.7,184.3 269.8,183.6 283.0,183.2 296.1,182.9 309.2,182.7 322.3,182.7 335.4,182.4 348.5,182.3 361.6,182.3 374.8,182.2 387.9,182.2 401.0,182.2 414.1,182.2 427.2,182.3 440.3,182.4 453.4,182.5 466.6,182.6 479.7,182.7 492.8,182.9 505.9,183.1 519.0,183.2 532.1,183.3 545.2,183.4 558.4,183.5 571.5,183.7 584.6,183.9 597.7,184.2 610.8,184.4 623.9,184.7 637.0,185.0 650.2,185.3 663.3,185.6 676.4,186.0 689.5,186.3 702.6,186.6 715.7,187.0 728.9,187.3 742.0,187.6 755.1,188.0 768.2,188.3 781.3,188.6 794.4,189.0 807.5,189.3 820.7,189.6 833.8,189.9 846.9,190.2 860.0,190.5" fill="none" stroke="#22c55e" stroke-width="2.5" stroke-linecap="round" stroke-linejoin="round"/>
  <polyline points="60.0,193.2 73.1,192.5 86.2,192.0 99.3,191.6 112.5,191.1 125.6,190.8 138.7,190.4 151.8,190.1 164.9,189.6 178.0,188.8 191.1,187.8 204.3,187.0 217.4,186.2 230.5,185.6 243.6,185.0 256.7,184.3 269.8,183.6 283.0,183.2 296.1,182.9 309.2,182.7 322.3,182.7 335.4,182.4 348.5,182.3 361.6,182.3 374.8,182.2 387.9,182.2 401.0,182.2 414.1,182.2 427.2,182.3 440.3,182.4 453.4,182.5 466.6,182.6 479.7,182.7 492.8,182.9 505.9,183.1 519.0,183.2 532.1,183.3 545.2,183.4 558.4,183.5 571.5,183.7 584.6,183.9 597.7,184.2 610.8,184.4 623.9,184.7 637.0,185.0 650.2,185.3 663.3,185.6 676.4,186.0 689.5,186.3 702.6,186.6 715.7,187.0 728.9,187.3 742.0,187.6 755.1,188.0 768.2,188.3 781.3,188.6 794.4,189.0 807.5,189.3 820.7,189.6 833.8,189.9 846.9,190.2 860.0,190.5" fill="none" stroke="#22c55e" stroke-width="5" opacity="0.1" stroke-linecap="round" stroke-linejoin="round"/>

  <!-- Aktif doluluk -->
  <polyline points="60.0,211.1 73.1,210.2 86.2,209.7 99.3,209.2 112.5,208.7 125.6,208.3 138.7,207.9 151.8,207.5 164.9,207.0 178.0,206.2 191.1,205.0 204.3,204.1 217.4,203.2 230.5,202.5 243.6,201.9 256.7,201.0 269.8,200.3 283.0,199.9 296.1,199.6 309.2,199.4 322.3,199.3 335.4,199.0 348.5,198.9 361.6,198.9 374.8,198.7 387.9,198.7 401.0,198.8 414.1,198.8 427.2,198.8 440.3,198.9 453.4,199.0 466.6,199.2 479.7,199.4 492.8,199.5 505.9,199.7 519.0,199.8 532.1,200.0 545.2,200.1 558.4,200.2 571.5,200.4 584.6,200.7 597.7,201.0 610.8,201.3 623.9,201.6 637.0,201.8 650.2,202.2 663.3,202.6 676.4,203.0 689.5,203.3 702.6,203.7 715.7,204.1 728.9,204.4 742.0,204.8 755.1,205.2 768.2,205.5 781.3,205.9 794.4,206.3 807.5,206.7 820.7,207.0 833.8,207.4 846.9,207.7 860.0,208.0" fill="none" stroke="#3b82f6" stroke-width="2.5" stroke-linecap="round" stroke-linejoin="round"/>
  <polyline points="60.0,211.1 73.1,210.2 86.2,209.7 99.3,209.2 112.5,208.7 125.6,208.3 138.7,207.9 151.8,207.5 164.9,207.0 178.0,206.2 191.1,205.0 204.3,204.1 217.4,203.2 230.5,202.5 243.6,201.9 256.7,201.0 269.8,200.3 283.0,199.9 296.1,199.6 309.2,199.4 322.3,199.3 335.4,199.0 348.5,198.9 361.6,198.9 374.8,198.7 387.9,198.7 401.0,198.8 414.1,198.8 427.2,198.8 440.3,198.9 453.4,199.0 466.6,199.2 479.7,199.4 492.8,199.5 505.9,199.7 519.0,199.8 532.1,200.0 545.2,200.1 558.4,200.2 571.5,200.4 584.6,200.7 597.7,201.0 610.8,201.3 623.9,201.6 637.0,201.8 650.2,202.2 663.3,202.6 676.4,203.0 689.5,203.3 702.6,203.7 715.7,204.1 728.9,204.4 742.0,204.8 755.1,205.2 768.2,205.5 781.3,205.9 794.4,206.3 807.5,206.7 820.7,207.0 833.8,207.4 846.9,207.7 860.0,208.0" fill="none" stroke="#3b82f6" stroke-width="5" opacity="0.1" stroke-linecap="round" stroke-linejoin="round"/>

  <!-- Noktalar -->
  <circle cx="60.0" cy="193.2" r="3" fill="#22c55e"/><circle cx="73.1" cy="192.5" r="3" fill="#22c55e"/><circle cx="86.2" cy="192.0" r="3" fill="#22c55e"/><circle cx="99.3" cy="191.6" r="3" fill="#22c55e"/><circle cx="112.5" cy="191.1" r="3" fill="#22c55e"/><circle cx="125.6" cy="190.8" r="3" fill="#22c55e"/><circle cx="138.7" cy="190.4" r="3" fill="#22c55e"/><circle cx="151.8" cy="190.1" r="3" fill="#22c55e"/><circle cx="164.9" cy="189.6" r="3" fill="#22c55e"/><circle cx="178.0" cy="188.8" r="3" fill="#22c55e"/><circle cx="191.1" cy="187.8" r="3" fill="#22c55e"/><circle cx="204.3" cy="187.0" r="3" fill="#22c55e"/><circle cx="217.4" cy="186.2" r="3" fill="#22c55e"/><circle cx="230.5" cy="185.6" r="3" fill="#22c55e"/><circle cx="243.6" cy="185.0" r="3" fill="#22c55e"/><circle cx="256.7" cy="184.3" r="3" fill="#22c55e"/><circle cx="269.8" cy="183.6" r="3" fill="#22c55e"/><circle cx="283.0" cy="183.2" r="3" fill="#22c55e"/><circle cx="296.1" cy="182.9" r="3" fill="#22c55e"/><circle cx="309.2" cy="182.7" r="3" fill="#22c55e"/><circle cx="322.3" cy="182.7" r="3" fill="#22c55e"/><circle cx="335.4" cy="182.4" r="3" fill="#22c55e"/><circle cx="348.5" cy="182.3" r="3" fill="#22c55e"/><circle cx="361.6" cy="182.3" r="3" fill="#22c55e"/><circle cx="374.8" cy="182.2" r="3" fill="#22c55e"/><circle cx="387.9" cy="182.2" r="3" fill="#22c55e"/><circle cx="401.0" cy="182.2" r="3" fill="#22c55e"/><circle cx="414.1" cy="182.2" r="3" fill="#22c55e"/><circle cx="427.2" cy="182.3" r="3" fill="#22c55e"/><circle cx="440.3" cy="182.4" r="3" fill="#22c55e"/><circle cx="453.4" cy="182.5" r="3" fill="#22c55e"/><circle cx="466.6" cy="182.6" r="3" fill="#22c55e"/><circle cx="479.7" cy="182.7" r="3" fill="#22c55e"/><circle cx="492.8" cy="182.9" r="3" fill="#22c55e"/><circle cx="505.9" cy="183.1" r="3" fill="#22c55e"/><circle cx="519.0" cy="183.2" r="3" fill="#22c55e"/><circle cx="532.1" cy="183.3" r="3" fill="#22c55e"/><circle cx="545.2" cy="183.4" r="3" fill="#22c55e"/><circle cx="558.4" cy="183.5" r="3" fill="#22c55e"/><circle cx="571.5" cy="183.7" r="3" fill="#22c55e"/><circle cx="584.6" cy="183.9" r="3" fill="#22c55e"/><circle cx="597.7" cy="184.2" r="3" fill="#22c55e"/><circle cx="610.8" cy="184.4" r="3" fill="#22c55e"/><circle cx="623.9" cy="184.7" r="3" fill="#22c55e"/><circle cx="637.0" cy="185.0" r="3" fill="#22c55e"/><circle cx="650.2" cy="185.3" r="3" fill="#22c55e"/><circle cx="663.3" cy="185.6" r="3" fill="#22c55e"/><circle cx="676.4" cy="186.0" r="3" fill="#22c55e"/><circle cx="689.5" cy="186.3" r="3" fill="#22c55e"/><circle cx="702.6" cy="186.6" r="3" fill="#22c55e"/><circle cx="715.7" cy="187.0" r="3" fill="#22c55e"/><circle cx="728.9" cy="187.3" r="3" fill="#22c55e"/><circle cx="742.0" cy="187.6" r="3" fill="#22c55e"/><circle cx="755.1" cy="188.0" r="3" fill="#22c55e"/><circle cx="768.2" cy="188.3" r="3" fill="#22c55e"/><circle cx="781.3" cy="188.6" r="3" fill="#22c55e"/><circle cx="794.4" cy="189.0" r="3" fill="#22c55e"/><circle cx="807.5" cy="189.3" r="3" fill="#22c55e"/><circle cx="820.7" cy="189.6" r="3" fill="#22c55e"/><circle cx="833.8" cy="189.9" r="3" fill="#22c55e"/><circle cx="846.9" cy="190.2" r="3" fill="#22c55e"/><circle cx="860.0" cy="190.5" r="3" fill="#22c55e"/>
  <circle cx="60.0" cy="211.1" r="3" fill="#3b82f6"/><circle cx="73.1" cy="210.2" r="3" fill="#3b82f6"/><circle cx="86.2" cy="209.7" r="3" fill="#3b82f6"/><circle cx="99.3" cy="209.2" r="3" fill="#3b82f6"/><circle cx="112.5" cy="208.7" r="3" fill="#3b82f6"/><circle cx="125.6" cy="208.3" r="3" fill="#3b82f6"/><circle cx="138.7" cy="207.9" r="3" fill="#3b82f6"/><circle cx="151.8" cy="207.5" r="3" fill="#3b82f6"/><circle cx="164.9" cy="207.0" r="3" fill="#3b82f6"/><circle cx="178.0" cy="206.2" r="3" fill="#3b82f6"/><circle cx="191.1" cy="205.0" r="3" fill="#3b82f6"/><circle cx="204.3" cy="204.1" r="3" fill="#3b82f6"/><circle cx="217.4" cy="203.2" r="3" fill="#3b82f6"/><circle cx="230.5" cy="202.5" r="3" fill="#3b82f6"/><circle cx="243.6" cy="201.9" r="3" fill="#3b82f6"/><circle cx="256.7" cy="201.0" r="3" fill="#3b82f6"/><circle cx="269.8" cy="200.3" r="3" fill="#3b82f6"/><circle cx="283.0" cy="199.9" r="3" fill="#3b82f6"/><circle cx="296.1" cy="199.6" r="3" fill="#3b82f6"/><circle cx="309.2" cy="199.4" r="3" fill="#3b82f6"/><circle cx="322.3" cy="199.3" r="3" fill="#3b82f6"/><circle cx="335.4" cy="199.0" r="3" fill="#3b82f6"/><circle cx="348.5" cy="198.9" r="3" fill="#3b82f6"/><circle cx="361.6" cy="198.9" r="3" fill="#3b82f6"/><circle cx="374.8" cy="198.7" r="3" fill="#3b82f6"/><circle cx="387.9" cy="198.7" r="3" fill="#3b82f6"/><circle cx="401.0" cy="198.8" r="3" fill="#3b82f6"/><circle cx="414.1" cy="198.8" r="3" fill="#3b82f6"/><circle cx="427.2" cy="198.8" r="3" fill="#3b82f6"/><circle cx="440.3" cy="198.9" r="3" fill="#3b82f6"/><circle cx="453.4" cy="199.0" r="3" fill="#3b82f6"/><circle cx="466.6" cy="199.2" r="3" fill="#3b82f6"/><circle cx="479.7" cy="199.4" r="3" fill="#3b82f6"/><circle cx="492.8" cy="199.5" r="3" fill="#3b82f6"/><circle cx="505.9" cy="199.7" r="3" fill="#3b82f6"/><circle cx="519.0" cy="199.8" r="3" fill="#3b82f6"/><circle cx="532.1" cy="200.0" r="3" fill="#3b82f6"/><circle cx="545.2" cy="200.1" r="3" fill="#3b82f6"/><circle cx="558.4" cy="200.2" r="3" fill="#3b82f6"/><circle cx="571.5" cy="200.4" r="3" fill="#3b82f6"/><circle cx="584.6" cy="200.7" r="3" fill="#3b82f6"/><circle cx="597.7" cy="201.0" r="3" fill="#3b82f6"/><circle cx="610.8" cy="201.3" r="3" fill="#3b82f6"/><circle cx="623.9" cy="201.6" r="3" fill="#3b82f6"/><circle cx="637.0" cy="201.8" r="3" fill="#3b82f6"/><circle cx="650.2" cy="202.2" r="3" fill="#3b82f6"/><circle cx="663.3" cy="202.6" r="3" fill="#3b82f6"/><circle cx="676.4" cy="203.0" r="3" fill="#3b82f6"/><circle cx="689.5" cy="203.3" r="3" fill="#3b82f6"/><circle cx="702.6" cy="203.7" r="3" fill="#3b82f6"/><circle cx="715.7" cy="204.1" r="3" fill="#3b82f6"/><circle cx="728.9" cy="204.4" r="3" fill="#3b82f6"/><circle cx="742.0" cy="204.8" r="3" fill="#3b82f6"/><circle cx="755.1" cy="205.2" r="3" fill="#3b82f6"/><circle cx="768.2" cy="205.5" r="3" fill="#3b82f6"/><circle cx="781.3" cy="205.9" r="3" fill="#3b82f6"/><circle cx="794.4" cy="206.3" r="3" fill="#3b82f6"/><circle cx="807.5" cy="206.7" r="3" fill="#3b82f6"/><circle cx="820.7" cy="207.0" r="3" fill="#3b82f6"/><circle cx="833.8" cy="207.4" r="3" fill="#3b82f6"/><circle cx="846.9" cy="207.7" r="3" fill="#3b82f6"/><circle cx="860.0" cy="208.0" r="3" fill="#3b82f6"/>

  <!-- X ekseni -->
  <text x="60.0" y="380" text-anchor="middle" font-size="10" fill="#888">14.05.2026</text>
  <text x="191.1" y="380" text-anchor="middle" font-size="10" fill="#888">24.05.2026</text>
  <text x="322.3" y="380" text-anchor="middle" font-size="10" fill="#888">03.06.2026</text>
  <text x="453.4" y="380" text-anchor="middle" font-size="10" fill="#888">13.06.2026</text>
  <text x="584.6" y="380" text-anchor="middle" font-size="10" fill="#888">23.06.2026</text>
  <text x="715.7" y="380" text-anchor="middle" font-size="10" fill="#888">03.07.2026</text>
  <text x="846.9" y="380" text-anchor="middle" font-size="10" fill="#888">13.07.2026</text>

  <!-- Legend -->
  <g transform="translate(60, 345)">
    <rect x="0" y="0" width="12" height="12" fill="#22c55e" rx="2"/>
    <text x="18" y="10" font-size="11" fill="#c9d1d9">Toplam Doluluk</text>
    <rect x="140" y="0" width="12" height="12" fill="#3b82f6" rx="2"/>
    <text x="158" y="10" font-size="11" fill="#c9d1d9">Aktif Doluluk</text>
  </g>
</svg>