<svg xmlns="http://www.w3.org/2000/svg" viewBox="0 0 900 400" width="100%" style="max-width:900px;">
  <rect width="900" height="400" fill="#0d1117" rx="6"/>
  <text x="450.0" y="25" text-anchor="middle" font-size="16" font-weight="bold" fill="#c9d1d9">Son 180 Gün - Günlük Ortalama</text>

  <!-- Y grid -->
  <line x1="60" y1="320.0" x2="860" y2="320.0" stroke="#333" stroke-width="1" stroke-dasharray="4,4" opacity="0.5"/>
  <text x="50" y="320.0" text-anchor="end" dominant-baseline="middle" font-size="10" fill="#888">0%</text>
  <line x1="60" y1="264.0" x2="860" y2="264.0" stroke="#333" stroke-width="1" stroke-dasharray="4,4" opacity="0.5"/>
  <text x="50" y="264.0" text-anchor="end" dominant-baseline="middle" font-size="10" fill="#888">20%</text>
  <line x1="60" y1="208.0" x2="860" y2="208.0" stroke="#333" stroke-width="1" stroke-dasharray="4,4" opacity="0.5"/>
  <text x="50" y="208.0" text-anchor="end" dominant-baseline="middle" font-size="10" fill="#888">40%</text>
  <line x1="60" y1="152.0" x2="860" y2="152.0" stroke="#333" stroke-width="1" stroke-dasharray="4,4" opacity="0.5"/>
  <text x="50" y="152.0" text-anchor="end" dominant-baseline="middle" font-size="10" fill="#888">60%</text>
  <line x1="60" y1="96.0" x2="860" y2="96.0" stroke="#333" stroke-width="1" stroke-dasharray="4,4" opacity="0.5"/>
  <text x="50" y="96.0" text-anchor="end" dominant-baseline="middle" font-size="10" fill="#888">80%</text>
  <line x1="60" y1="40.0" x2="860" y2="40.0" stroke="#333" stroke-width="1" stroke-dasharray="4,4" opacity="0.5"/>
  <text x="50" y="40.0" text-anchor="end" dominant-baseline="middle" font-size="10" fill="#888">100%</text>

  <!-- Referans çizgileri -->
  <line x1="60" y1="236.0" x2="860" y2="236.0" stroke="#ef4444" stroke-width="1" stroke-dasharray="2,2" opacity="0.7"/>
  <text x="845" y="236.0" dominant-baseline="middle" font-size="9" fill="#ef4444">Kritik (30%)</text>
  <line x1="60" y1="180.0" x2="860" y2="180.0" stroke="#eab308" stroke-width="1" stroke-dasharray="2,2" opacity="0.7"/>
  <text x="845" y="180.0" dominant-baseline="middle" font-size="9" fill="#eab308">Normal (50%)</text>

  <!-- Toplam doluluk -->
  <polyline points="60.0,193.2 79.0,192.5 98.1,192.0 117.1,191.6 136.2,191.1 155.2,190.8 174.3,190.4 193.3,190.1 212.4,189.6 231.4,188.8 250.5,187.8 269.5,187.0 288.6,186.2 307.6,185.6 326.7,185.0 345.7,184.3 364.8,183.6 383.8,183.2 402.9,182.9 421.9,182.7 441.0,182.7 460.0,182.4 479.0,182.3 498.1,182.3 517.1,182.2 536.2,182.2 555.2,182.2 574.3,182.2 593.3,182.3 612.4,182.4 631.4,182.5 650.5,182.6 669.5,182.7 688.6,182.9 707.6,183.1 726.7,183.2 745.7,183.3 764.8,183.4 783.8,183.5 802.9,183.7 821.9,183.9 841.0,184.2 860.0,184.4" fill="none" stroke="#22c55e" stroke-width="2.5" stroke-linecap="round" stroke-linejoin="round"/>
  <polyline points="60.0,193.2 79.0,192.5 98.1,192.0 117.1,191.6 136.2,191.1 155.2,190.8 174.3,190.4 193.3,190.1 212.4,189.6 231.4,188.8 250.5,187.8 269.5,187.0 288.6,186.2 307.6,185.6 326.7,185.0 345.7,184.3 364.8,183.6 383.8,183.2 402.9,182.9 421.9,182.7 441.0,182.7 460.0,182.4 479.0,182.3 498.1,182.3 517.1,182.2 536.2,182.2 555.2,182.2 574.3,182.2 593.3,182.3 612.4,182.4 631.4,182.5 650.5,182.6 669.5,182.7 688.6,182.9 707.6,183.1 726.7,183.2 745.7,183.3 764.8,183.4 783.8,183.5 802.9,183.7 821.9,183.9 841.0,184.2 860.0,184.4" fill="none" stroke="#22c55e" stroke-width="5" opacity="0.1" stroke-linecap="round" stroke-linejoin="round"/>

  <!-- Aktif doluluk -->
  <polyline points="60.0,211.1 79.0,210.2 98.1,209.7 117.1,209.2 136.2,208.7 155.2,208.3 174.3,207.9 193.3,207.5 212.4,207.0 231.4,206.2 250.5,205.0 269.5,204.1 288.6,203.2 307.6,202.5 326.7,201.9 345.7,201.0 364.8,200.3 383.8,199.9 402.9,199.6 421.9,199.4 441.0,199.3 460.0,199.0 479.0,198.9 498.1,198.9 517.1,198.7 536.2,198.7 555.2,198.8 574.3,198.8 593.3,198.8 612.4,198.9 631.4,199.0 650.5,199.2 669.5,199.4 688.6,199.5 707.6,199.7 726.7,199.8 745.7,200.0 764.8,200.1 783.8,200.2 802.9,200.4 821.9,200.7 841.0,201.0 860.0,201.3" fill="none" stroke="#3b82f6" stroke-width="2.5" stroke-linecap="round" stroke-linejoin="round"/>
  <polyline points="60.0,211.1 79.0,210.2 98.1,209.7 117.1,209.2 136.2,208.7 155.2,208.3 174.3,207.9 193.3,207.5 212.4,207.0 231.4,206.2 250.5,205.0 269.5,204.1 288.6,203.2 307.6,202.5 326.7,201.9 345.7,201.0 364.8,200.3 383.8,199.9 402.9,199.6 421.9,199.4 441.0,199.3 460.0,199.0 479.0,198.9 498.1,198.9 517.1,198.7 536.2,198.7 555.2,198.8 574.3,198.8 593.3,198.8 612.4,198.9 631.4,199.0 650.5,199.2 669.5,199.4 688.6,199.5 707.6,199.7 726.7,199.8 745.7,200.0 764.8,200.1 783.8,200.2 802.9,200.4 821.9,200.7 841.0,201.0 860.0,201.3" fill="none" stroke="#3b82f6" stroke-width="5" opacity="0.1" stroke-linecap="round" stroke-linejoin="round"/>

  <!-- Noktalar -->
  <circle cx="60.0" cy="193.2" r="3" fill="#22c55e"/><circle cx="79.0" cy="192.5" r="3" fill="#22c55e"/><circle cx="98.1" cy="192.0" r="3" fill="#22c55e"/><circle cx="117.1" cy="191.6" r="3" fill="#22c55e"/><circle cx="136.2" cy="191.1" r="3" fill="#22c55e"/><circle cx="155.2" cy="190.8" r="3" fill="#22c55e"/><circle cx="174.3" cy="190.4" r="3" fill="#22c55e"/><circle cx="193.3" cy="190.1" r="3" fill="#22c55e"/><circle cx="212.4" cy="189.6" r="3" fill="#22c55e"/><circle cx="231.4" cy="188.8" r="3" fill="#22c55e"/><circle cx="250.5" cy="187.8" r="3" fill="#22c55e"/><circle cx="269.5" cy="187.0" r="3" fill="#22c55e"/><circle cx="288.6" cy="186.2" r="3" fill="#22c55e"/><circle cx="307.6" cy="185.6" r="3" fill="#22c55e"/><circle cx="326.7" cy="185.0" r="3" fill="#22c55e"/><circle cx="345.7" cy="184.3" r="3" fill="#22c55e"/><circle cx="364.8" cy="183.6" r="3" fill="#22c55e"/><circle cx="383.8" cy="183.2" r="3" fill="#22c55e"/><circle cx="402.9" cy="182.9" r="3" fill="#22c55e"/><circle cx="421.9" cy="182.7" r="3" fill="#22c55e"/><circle cx="441.0" cy="182.7" r="3" fill="#22c55e"/><circle cx="460.0" cy="182.4" r="3" fill="#22c55e"/><circle cx="479.0" cy="182.3" r="3" fill="#22c55e"/><circle cx="498.1" cy="182.3" r="3" fill="#22c55e"/><circle cx="517.1" cy="182.2" r="3" fill="#22c55e"/><circle cx="536.2" cy="182.2" r="3" fill="#22c55e"/><circle cx="555.2" cy="182.2" r="3" fill="#22c55e"/><circle cx="574.3" cy="182.2" r="3" fill="#22c55e"/><circle cx="593.3" cy="182.3" r="3" fill="#22c55e"/><circle cx="612.4" cy="182.4" r="3" fill="#22c55e"/><circle cx="631.4" cy="182.5" r="3" fill="#22c55e"/><circle cx="650.5" cy="182.6" r="3" fill="#22c55e"/><circle cx="669.5" cy="182.7" r="3" fill="#22c55e"/><circle cx="688.6" cy="182.9" r="3" fill="#22c55e"/><circle cx="707.6" cy="183.1" r="3" fill="#22c55e"/><circle cx="726.7" cy="183.2" r="3" fill="#22c55e"/><circle cx="745.7" cy="183.3" r="3" fill="#22c55e"/><circle cx="764.8" cy="183.4" r="3" fill="#22c55e"/><circle cx="783.8" cy="183.5" r="3" fill="#22c55e"/><circle cx="802.9" cy="183.7" r="3" fill="#22c55e"/><circle cx="821.9" cy="183.9" r="3" fill="#22c55e"/><circle cx="841.0" cy="184.2" r="3" fill="#22c55e"/><circle cx="860.0" cy="184.4" r="3" fill="#22c55e"/>
  <circle cx="60.0" cy="211.1" r="3" fill="#3b82f6"/><circle cx="79.0" cy="210.2" r="3" fill="#3b82f6"/><circle cx="98.1" cy="209.7" r="3" fill="#3b82f6"/><circle cx="117.1" cy="209.2" r="3" fill="#3b82f6"/><circle cx="136.2" cy="208.7" r="3" fill="#3b82f6"/><circle cx="155.2" cy="208.3" r="3" fill="#3b82f6"/><circle cx="174.3" cy="207.9" r="3" fill="#3b82f6"/><circle cx="193.3" cy="207.5" r="3" fill="#3b82f6"/><circle cx="212.4" cy="207.0" r="3" fill="#3b82f6"/><circle cx="231.4" cy="206.2" r="3" fill="#3b82f6"/><circle cx="250.5" cy="205.0" r="3" fill="#3b82f6"/><circle cx="269.5" cy="204.1" r="3" fill="#3b82f6"/><circle cx="288.6" cy="203.2" r="3" fill="#3b82f6"/><circle cx="307.6" cy="202.5" r="3" fill="#3b82f6"/><circle cx="326.7" cy="201.9" r="3" fill="#3b82f6"/><circle cx="345.7" cy="201.0" r="3" fill="#3b82f6"/><circle cx="364.8" cy="200.3" r="3" fill="#3b82f6"/><circle cx="383.8" cy="199.9" r="3" fill="#3b82f6"/><circle cx="402.9" cy="199.6" r="3" fill="#3b82f6"/><circle cx="421.9" cy="199.4" r="3" fill="#3b82f6"/><circle cx="441.0" cy="199.3" r="3" fill="#3b82f6"/><circle cx="460.0" cy="199.0" r="3" fill="#3b82f6"/><circle cx="479.0" cy="198.9" r="3" fill="#3b82f6"/><circle cx="498.1" cy="198.9" r="3" fill="#3b82f6"/><circle cx="517.1" cy="198.7" r="3" fill="#3b82f6"/><circle cx="536.2" cy="198.7" r="3" fill="#3b82f6"/><circle cx="555.2" cy="198.8" r="3" fill="#3b82f6"/><circle cx="574.3" cy="198.8" r="3" fill="#3b82f6"/><circle cx="593.3" cy="198.8" r="3" fill="#3b82f6"/><circle cx="612.4" cy="198.9" r="3" fill="#3b82f6"/><circle cx="631.4" cy="199.0" r="3" fill="#3b82f6"/><circle cx="650.5" cy="199.2" r="3" fill="#3b82f6"/><circle cx="669.5" cy="199.4" r="3" fill="#3b82f6"/><circle cx="688.6" cy="199.5" r="3" fill="#3b82f6"/><circle cx="707.6" cy="199.7" r="3" fill="#3b82f6"/><circle cx="726.7" cy="199.8" r="3" fill="#3b82f6"/><circle cx="745.7" cy="200.0" r="3" fill="#3b82f6"/><circle cx="764.8" cy="200.1" r="3" fill="#3b82f6"/><circle cx="783.8" cy="200.2" r="3" fill="#3b82f6"/><circle cx="802.9" cy="200.4" r="3" fill="#3b82f6"/><circle cx="821.9" cy="200.7" r="3" fill="#3b82f6"/><circle cx="841.0" cy="201.0" r="3" fill="#3b82f6"/><circle cx="860.0" cy="201.3" r="3" fill="#3b82f6"/>

  <!-- X ekseni -->
  <text x="60.0" y="380" text-anchor="middle" font-size="10" fill="#888">14.05.2026</text>
  <text x="193.3" y="380" text-anchor="middle" font-size="10" fill="#888">21.05.2026</text>
  <text x="326.7" y="380" text-anchor="middle" font-size="10" fill="#888">28.05.2026</text>
  <text x="460.0" y="380" text-anchor="middle" font-size="10" fill="#888">04.06.2026</text>
  <text x="593.3" y="380" text-anchor="middle" font-size="10" fill="#888">11.06.2026</text>
  <text x="726.7" y="380" text-anchor="middle" font-size="10" fill="#888">18.06.2026</text>
  <text x="860.0" y="380" text-anchor="middle" font-size="10" fill="#888">25.06.2026</text>

  <!-- Legend -->
  <g transform="translate(60, 345)">
    <rect x="0" y="0" width="12" height="12" fill="#22c55e" rx="2"/>
    <text x="18" y="10" font-size="11" fill="#c9d1d9">Toplam Doluluk</text>
    <rect x="140" y="0" width="12" height="12" fill="#3b82f6" rx="2"/>
    <text x="158" y="10" font-size="11" fill="#c9d1d9">Aktif Doluluk</text>
  </g>
</svg>