<svg xmlns="http://www.w3.org/2000/svg" viewBox="0 0 800 400" width="100%" style="max-width:800px;">
  <rect width="800" height="400" fill="#0d1117" rx="6"/>
  <text x="400.0" y="25" text-anchor="middle" font-size="16" font-weight="bold" fill="#c9d1d9">Son 90 Gün - Günlük Ortalama</text>

  <!-- Y grid -->
  <line x1="60" y1="320.0" x2="760" y2="320.0" stroke="#333" stroke-width="1" stroke-dasharray="4,4" opacity="0.5"/>
  <text x="50" y="320.0" text-anchor="end" dominant-baseline="middle" font-size="10" fill="#888">0%</text>
  <line x1="60" y1="264.0" x2="760" y2="264.0" stroke="#333" stroke-width="1" stroke-dasharray="4,4" opacity="0.5"/>
  <text x="50" y="264.0" text-anchor="end" dominant-baseline="middle" font-size="10" fill="#888">20%</text>
  <line x1="60" y1="208.0" x2="760" y2="208.0" stroke="#333" stroke-width="1" stroke-dasharray="4,4" opacity="0.5"/>
  <text x="50" y="208.0" text-anchor="end" dominant-baseline="middle" font-size="10" fill="#888">40%</text>
  <line x1="60" y1="152.0" x2="760" y2="152.0" stroke="#333" stroke-width="1" stroke-dasharray="4,4" opacity="0.5"/>
  <text x="50" y="152.0" text-anchor="end" dominant-baseline="middle" font-size="10" fill="#888">60%</text>
  <line x1="60" y1="96.0" x2="760" y2="96.0" stroke="#333" stroke-width="1" stroke-dasharray="4,4" opacity="0.5"/>
  <text x="50" y="96.0" text-anchor="end" dominant-baseline="middle" font-size="10" fill="#888">80%</text>
  <line x1="60" y1="40.0" x2="760" y2="40.0" stroke="#333" stroke-width="1" stroke-dasharray="4,4" opacity="0.5"/>
  <text x="50" y="40.0" text-anchor="end" dominant-baseline="middle" font-size="10" fill="#888">100%</text>

  <!-- Referans çizgileri -->
  <line x1="60" y1="236.0" x2="760" y2="236.0" stroke="#ef4444" stroke-width="1" stroke-dasharray="2,2" opacity="0.7"/>
  <text x="745" y="236.0" dominant-baseline="middle" font-size="9" fill="#ef4444">Kritik (30%)</text>
  <line x1="60" y1="180.0" x2="760" y2="180.0" stroke="#eab308" stroke-width="1" stroke-dasharray="2,2" opacity="0.7"/>
  <text x="745" y="180.0" dominant-baseline="middle" font-size="9" fill="#eab308">Normal (50%)</text>

  <!-- Toplam doluluk -->
  <polyline points="60.0,193.2 103.8,192.5 147.5,192.0 191.2,191.6 235.0,191.1 278.8,190.8 322.5,190.4 366.2,190.1 410.0,189.6 453.8,188.8 497.5,187.8 541.2,187.0 585.0,186.2 628.8,185.6 672.5,185.0 716.2,184.3 760.0,183.6" fill="none" stroke="#22c55e" stroke-width="2.5" stroke-linecap="round" stroke-linejoin="round"/>
  <polyline points="60.0,193.2 103.8,192.5 147.5,192.0 191.2,191.6 235.0,191.1 278.8,190.8 322.5,190.4 366.2,190.1 410.0,189.6 453.8,188.8 497.5,187.8 541.2,187.0 585.0,186.2 628.8,185.6 672.5,185.0 716.2,184.3 760.0,183.6" fill="none" stroke="#22c55e" stroke-width="5" opacity="0.1" stroke-linecap="round" stroke-linejoin="round"/>

  <!-- Aktif doluluk -->
  <polyline points="60.0,211.1 103.8,210.2 147.5,209.7 191.2,209.2 235.0,208.7 278.8,208.3 322.5,207.9 366.2,207.5 410.0,207.0 453.8,206.2 497.5,205.0 541.2,204.1 585.0,203.2 628.8,202.5 672.5,201.9 716.2,201.0 760.0,200.3" fill="none" stroke="#3b82f6" stroke-width="2.5" stroke-linecap="round" stroke-linejoin="round"/>
  <polyline points="60.0,211.1 103.8,210.2 147.5,209.7 191.2,209.2 235.0,208.7 278.8,208.3 322.5,207.9 366.2,207.5 410.0,207.0 453.8,206.2 497.5,205.0 541.2,204.1 585.0,203.2 628.8,202.5 672.5,201.9 716.2,201.0 760.0,200.3" fill="none" stroke="#3b82f6" stroke-width="5" opacity="0.1" stroke-linecap="round" stroke-linejoin="round"/>

  <!-- Noktalar -->
  <circle cx="60.0" cy="193.2" r="3" fill="#22c55e"/><circle cx="103.8" cy="192.5" r="3" fill="#22c55e"/><circle cx="147.5" cy="192.0" r="3" fill="#22c55e"/><circle cx="191.2" cy="191.6" r="3" fill="#22c55e"/><circle cx="235.0" cy="191.1" r="3" fill="#22c55e"/><circle cx="278.8" cy="190.8" r="3" fill="#22c55e"/><circle cx="322.5" cy="190.4" r="3" fill="#22c55e"/><circle cx="366.2" cy="190.1" r="3" fill="#22c55e"/><circle cx="410.0" cy="189.6" r="3" fill="#22c55e"/><circle cx="453.8" cy="188.8" r="3" fill="#22c55e"/><circle cx="497.5" cy="187.8" r="3" fill="#22c55e"/><circle cx="541.2" cy="187.0" r="3" fill="#22c55e"/><circle cx="585.0" cy="186.2" r="3" fill="#22c55e"/><circle cx="628.8" cy="185.6" r="3" fill="#22c55e"/><circle cx="672.5" cy="185.0" r="3" fill="#22c55e"/><circle cx="716.2" cy="184.3" r="3" fill="#22c55e"/><circle cx="760.0" cy="183.6" r="3" fill="#22c55e"/>
  <circle cx="60.0" cy="211.1" r="3" fill="#3b82f6"/><circle cx="103.8" cy="210.2" r="3" fill="#3b82f6"/><circle cx="147.5" cy="209.7" r="3" fill="#3b82f6"/><circle cx="191.2" cy="209.2" r="3" fill="#3b82f6"/><circle cx="235.0" cy="208.7" r="3" fill="#3b82f6"/><circle cx="278.8" cy="208.3" r="3" fill="#3b82f6"/><circle cx="322.5" cy="207.9" r="3" fill="#3b82f6"/><circle cx="366.2" cy="207.5" r="3" fill="#3b82f6"/><circle cx="410.0" cy="207.0" r="3" fill="#3b82f6"/><circle cx="453.8" cy="206.2" r="3" fill="#3b82f6"/><circle cx="497.5" cy="205.0" r="3" fill="#3b82f6"/><circle cx="541.2" cy="204.1" r="3" fill="#3b82f6"/><circle cx="585.0" cy="203.2" r="3" fill="#3b82f6"/><circle cx="628.8" cy="202.5" r="3" fill="#3b82f6"/><circle cx="672.5" cy="201.9" r="3" fill="#3b82f6"/><circle cx="716.2" cy="201.0" r="3" fill="#3b82f6"/><circle cx="760.0" cy="200.3" r="3" fill="#3b82f6"/>

  <!-- X ekseni -->
  <text x="60.0" y="380" text-anchor="middle" font-size="10" fill="#888">14.05 00:00</text>
  <text x="147.5" y="380" text-anchor="middle" font-size="10" fill="#888">16.05 00:00</text>
  <text x="235.0" y="380" text-anchor="middle" font-size="10" fill="#888">18.05 00:00</text>
  <text x="322.5" y="380" text-anchor="middle" font-size="10" fill="#888">20.05 00:00</text>
  <text x="410.0" y="380" text-anchor="middle" font-size="10" fill="#888">22.05 00:00</text>
  <text x="497.5" y="380" text-anchor="middle" font-size="10" fill="#888">24.05 00:00</text>
  <text x="585.0" y="380" text-anchor="middle" font-size="10" fill="#888">26.05 00:00</text>
  <text x="672.5" y="380" text-anchor="middle" font-size="10" fill="#888">28.05 00:00</text>
  <text x="760.0" y="380" text-anchor="middle" font-size="10" fill="#888">30.05 00:00</text>

  <!-- Legend -->
  <g transform="translate(60, 345)">
    <rect x="0" y="0" width="12" height="12" fill="#22c55e" rx="2"/>
    <text x="18" y="10" font-size="11" fill="#c9d1d9">Toplam Doluluk</text>
    <rect x="140" y="0" width="12" height="12" fill="#3b82f6" rx="2"/>
    <text x="158" y="10" font-size="11" fill="#c9d1d9">Aktif Doluluk</text>
  </g>
</svg>