<svg xmlns="http://www.w3.org/2000/svg" viewBox="0 0 900 400" width="100%" style="max-width:900px;">
  <rect width="900" height="400" fill="#0d1117" rx="6"/>
  <text x="450.0" y="25" text-anchor="middle" font-size="16" font-weight="bold" fill="#c9d1d9">Son 360 Gün - Günlük Ortalama</text>

  <!-- Y grid -->
  <line x1="60" y1="320.0" x2="860" y2="320.0" stroke="#333" stroke-width="1" stroke-dasharray="4,4" opacity="0.5"/>
  <text x="50" y="320.0" text-anchor="end" dominant-baseline="middle" font-size="10" fill="#888">0%</text>
  <line x1="60" y1="264.0" x2="860" y2="264.0" stroke="#333" stroke-width="1" stroke-dasharray="4,4" opacity="0.5"/>
  <text x="50" y="264.0" text-anchor="end" dominant-baseline="middle" font-size="10" fill="#888">20%</text>
  <line x1="60" y1="208.0" x2="860" y2="208.0" stroke="#333" stroke-width="1" stroke-dasharray="4,4" opacity="0.5"/>
  <text x="50" y="208.0" text-anchor="end" dominant-baseline="middle" font-size="10" fill="#888">40%</text>
  <line x1="60" y1="152.0" x2="860" y2="152.0" stroke="#333" stroke-width="1" stroke-dasharray="4,4" opacity="0.5"/>
  <text x="50" y="152.0" text-anchor="end" dominant-baseline="middle" font-size="10" fill="#888">60%</text>
  <line x1="60" y1="96.0" x2="860" y2="96.0" stroke="#333" stroke-width="1" stroke-dasharray="4,4" opacity="0.5"/>
  <text x="50" y="96.0" text-anchor="end" dominant-baseline="middle" font-size="10" fill="#888">80%</text>
  <line x1="60" y1="40.0" x2="860" y2="40.0" stroke="#333" stroke-width="1" stroke-dasharray="4,4" opacity="0.5"/>
  <text x="50" y="40.0" text-anchor="end" dominant-baseline="middle" font-size="10" fill="#888">100%</text>

  <!-- Referans çizgileri -->
  <line x1="60" y1="236.0" x2="860" y2="236.0" stroke="#ef4444" stroke-width="1" stroke-dasharray="2,2" opacity="0.7"/>
  <text x="845" y="236.0" dominant-baseline="middle" font-size="9" fill="#ef4444">Kritik (30%)</text>
  <line x1="60" y1="180.0" x2="860" y2="180.0" stroke="#eab308" stroke-width="1" stroke-dasharray="2,2" opacity="0.7"/>
  <text x="845" y="180.0" dominant-baseline="middle" font-size="9" fill="#eab308">Normal (50%)</text>

  <!-- Toplam doluluk -->
  <polyline points="60.0,193.2 89.6,192.5 119.3,192.0 148.9,191.6 178.5,191.1 208.1,190.8 237.8,190.4 267.4,190.1 297.0,189.6 326.7,188.8 356.3,187.8 385.9,187.0 415.6,186.2 445.2,185.6 474.8,185.0 504.4,184.3 534.1,183.6 563.7,183.2 593.3,182.9 623.0,182.7 652.6,182.7 682.2,182.4 711.9,182.3 741.5,182.3 771.1,182.2 800.7,182.2 830.4,182.2 860.0,182.2" fill="none" stroke="#22c55e" stroke-width="2.5" stroke-linecap="round" stroke-linejoin="round"/>
  <polyline points="60.0,193.2 89.6,192.5 119.3,192.0 148.9,191.6 178.5,191.1 208.1,190.8 237.8,190.4 267.4,190.1 297.0,189.6 326.7,188.8 356.3,187.8 385.9,187.0 415.6,186.2 445.2,185.6 474.8,185.0 504.4,184.3 534.1,183.6 563.7,183.2 593.3,182.9 623.0,182.7 652.6,182.7 682.2,182.4 711.9,182.3 741.5,182.3 771.1,182.2 800.7,182.2 830.4,182.2 860.0,182.2" fill="none" stroke="#22c55e" stroke-width="5" opacity="0.1" stroke-linecap="round" stroke-linejoin="round"/>

  <!-- Aktif doluluk -->
  <polyline points="60.0,211.1 89.6,210.2 119.3,209.7 148.9,209.2 178.5,208.7 208.1,208.3 237.8,207.9 267.4,207.5 297.0,207.0 326.7,206.2 356.3,205.0 385.9,204.1 415.6,203.2 445.2,202.5 474.8,201.9 504.4,201.0 534.1,200.3 563.7,199.9 593.3,199.6 623.0,199.4 652.6,199.3 682.2,199.0 711.9,198.9 741.5,198.9 771.1,198.7 800.7,198.7 830.4,198.8 860.0,198.8" fill="none" stroke="#3b82f6" stroke-width="2.5" stroke-linecap="round" stroke-linejoin="round"/>
  <polyline points="60.0,211.1 89.6,210.2 119.3,209.7 148.9,209.2 178.5,208.7 208.1,208.3 237.8,207.9 267.4,207.5 297.0,207.0 326.7,206.2 356.3,205.0 385.9,204.1 415.6,203.2 445.2,202.5 474.8,201.9 504.4,201.0 534.1,200.3 563.7,199.9 593.3,199.6 623.0,199.4 652.6,199.3 682.2,199.0 711.9,198.9 741.5,198.9 771.1,198.7 800.7,198.7 830.4,198.8 860.0,198.8" fill="none" stroke="#3b82f6" stroke-width="5" opacity="0.1" stroke-linecap="round" stroke-linejoin="round"/>

  <!-- Noktalar -->
  <circle cx="60.0" cy="193.2" r="3" fill="#22c55e"/><circle cx="89.6" cy="192.5" r="3" fill="#22c55e"/><circle cx="119.3" cy="192.0" r="3" fill="#22c55e"/><circle cx="148.9" cy="191.6" r="3" fill="#22c55e"/><circle cx="178.5" cy="191.1" r="3" fill="#22c55e"/><circle cx="208.1" cy="190.8" r="3" fill="#22c55e"/><circle cx="237.8" cy="190.4" r="3" fill="#22c55e"/><circle cx="267.4" cy="190.1" r="3" fill="#22c55e"/><circle cx="297.0" cy="189.6" r="3" fill="#22c55e"/><circle cx="326.7" cy="188.8" r="3" fill="#22c55e"/><circle cx="356.3" cy="187.8" r="3" fill="#22c55e"/><circle cx="385.9" cy="187.0" r="3" fill="#22c55e"/><circle cx="415.6" cy="186.2" r="3" fill="#22c55e"/><circle cx="445.2" cy="185.6" r="3" fill="#22c55e"/><circle cx="474.8" cy="185.0" r="3" fill="#22c55e"/><circle cx="504.4" cy="184.3" r="3" fill="#22c55e"/><circle cx="534.1" cy="183.6" r="3" fill="#22c55e"/><circle cx="563.7" cy="183.2" r="3" fill="#22c55e"/><circle cx="593.3" cy="182.9" r="3" fill="#22c55e"/><circle cx="623.0" cy="182.7" r="3" fill="#22c55e"/><circle cx="652.6" cy="182.7" r="3" fill="#22c55e"/><circle cx="682.2" cy="182.4" r="3" fill="#22c55e"/><circle cx="711.9" cy="182.3" r="3" fill="#22c55e"/><circle cx="741.5" cy="182.3" r="3" fill="#22c55e"/><circle cx="771.1" cy="182.2" r="3" fill="#22c55e"/><circle cx="800.7" cy="182.2" r="3" fill="#22c55e"/><circle cx="830.4" cy="182.2" r="3" fill="#22c55e"/><circle cx="860.0" cy="182.2" r="3" fill="#22c55e"/>
  <circle cx="60.0" cy="211.1" r="3" fill="#3b82f6"/><circle cx="89.6" cy="210.2" r="3" fill="#3b82f6"/><circle cx="119.3" cy="209.7" r="3" fill="#3b82f6"/><circle cx="148.9" cy="209.2" r="3" fill="#3b82f6"/><circle cx="178.5" cy="208.7" r="3" fill="#3b82f6"/><circle cx="208.1" cy="208.3" r="3" fill="#3b82f6"/><circle cx="237.8" cy="207.9" r="3" fill="#3b82f6"/><circle cx="267.4" cy="207.5" r="3" fill="#3b82f6"/><circle cx="297.0" cy="207.0" r="3" fill="#3b82f6"/><circle cx="326.7" cy="206.2" r="3" fill="#3b82f6"/><circle cx="356.3" cy="205.0" r="3" fill="#3b82f6"/><circle cx="385.9" cy="204.1" r="3" fill="#3b82f6"/><circle cx="415.6" cy="203.2" r="3" fill="#3b82f6"/><circle cx="445.2" cy="202.5" r="3" fill="#3b82f6"/><circle cx="474.8" cy="201.9" r="3" fill="#3b82f6"/><circle cx="504.4" cy="201.0" r="3" fill="#3b82f6"/><circle cx="534.1" cy="200.3" r="3" fill="#3b82f6"/><circle cx="563.7" cy="199.9" r="3" fill="#3b82f6"/><circle cx="593.3" cy="199.6" r="3" fill="#3b82f6"/><circle cx="623.0" cy="199.4" r="3" fill="#3b82f6"/><circle cx="652.6" cy="199.3" r="3" fill="#3b82f6"/><circle cx="682.2" cy="199.0" r="3" fill="#3b82f6"/><circle cx="711.9" cy="198.9" r="3" fill="#3b82f6"/><circle cx="741.5" cy="198.9" r="3" fill="#3b82f6"/><circle cx="771.1" cy="198.7" r="3" fill="#3b82f6"/><circle cx="800.7" cy="198.7" r="3" fill="#3b82f6"/><circle cx="830.4" cy="198.8" r="3" fill="#3b82f6"/><circle cx="860.0" cy="198.8" r="3" fill="#3b82f6"/>

  <!-- X ekseni -->
  <text x="60.0" y="380" text-anchor="middle" font-size="10" fill="#888">14.05 00:00</text>
  <text x="178.5" y="380" text-anchor="middle" font-size="10" fill="#888">18.05 00:00</text>
  <text x="297.0" y="380" text-anchor="middle" font-size="10" fill="#888">22.05 00:00</text>
  <text x="415.6" y="380" text-anchor="middle" font-size="10" fill="#888">26.05 00:00</text>
  <text x="534.1" y="380" text-anchor="middle" font-size="10" fill="#888">30.05 00:00</text>
  <text x="652.6" y="380" text-anchor="middle" font-size="10" fill="#888">03.06 00:00</text>
  <text x="771.1" y="380" text-anchor="middle" font-size="10" fill="#888">07.06 00:00</text>

  <!-- Legend -->
  <g transform="translate(60, 345)">
    <rect x="0" y="0" width="12" height="12" fill="#22c55e" rx="2"/>
    <text x="18" y="10" font-size="11" fill="#c9d1d9">Toplam Doluluk</text>
    <rect x="140" y="0" width="12" height="12" fill="#3b82f6" rx="2"/>
    <text x="158" y="10" font-size="11" fill="#c9d1d9">Aktif Doluluk</text>
  </g>
</svg>