<svg xmlns="http://www.w3.org/2000/svg" viewBox="0 0 800 400" width="100%" style="max-width:800px;">
  <rect width="800" height="400" fill="#0d1117" rx="6"/>
  <text x="400.0" y="25" text-anchor="middle" font-size="16" font-weight="bold" fill="#c9d1d9">Son 90 Gün - Günlük Ortalama</text>

  <!-- Y grid -->
  <line x1="60" y1="320.0" x2="760" y2="320.0" stroke="#333" stroke-width="1" stroke-dasharray="4,4" opacity="0.5"/>
  <text x="50" y="320.0" text-anchor="end" dominant-baseline="middle" font-size="10" fill="#888">0%</text>
  <line x1="60" y1="264.0" x2="760" y2="264.0" stroke="#333" stroke-width="1" stroke-dasharray="4,4" opacity="0.5"/>
  <text x="50" y="264.0" text-anchor="end" dominant-baseline="middle" font-size="10" fill="#888">20%</text>
  <line x1="60" y1="208.0" x2="760" y2="208.0" stroke="#333" stroke-width="1" stroke-dasharray="4,4" opacity="0.5"/>
  <text x="50" y="208.0" text-anchor="end" dominant-baseline="middle" font-size="10" fill="#888">40%</text>
  <line x1="60" y1="152.0" x2="760" y2="152.0" stroke="#333" stroke-width="1" stroke-dasharray="4,4" opacity="0.5"/>
  <text x="50" y="152.0" text-anchor="end" dominant-baseline="middle" font-size="10" fill="#888">60%</text>
  <line x1="60" y1="96.0" x2="760" y2="96.0" stroke="#333" stroke-width="1" stroke-dasharray="4,4" opacity="0.5"/>
  <text x="50" y="96.0" text-anchor="end" dominant-baseline="middle" font-size="10" fill="#888">80%</text>
  <line x1="60" y1="40.0" x2="760" y2="40.0" stroke="#333" stroke-width="1" stroke-dasharray="4,4" opacity="0.5"/>
  <text x="50" y="40.0" text-anchor="end" dominant-baseline="middle" font-size="10" fill="#888">100%</text>

  <!-- Referans çizgileri -->
  <line x1="60" y1="236.0" x2="760" y2="236.0" stroke="#ef4444" stroke-width="1" stroke-dasharray="2,2" opacity="0.7"/>
  <text x="745" y="236.0" dominant-baseline="middle" font-size="9" fill="#ef4444">Kritik (30%)</text>
  <line x1="60" y1="180.0" x2="760" y2="180.0" stroke="#eab308" stroke-width="1" stroke-dasharray="2,2" opacity="0.7"/>
  <text x="745" y="180.0" dominant-baseline="middle" font-size="9" fill="#eab308">Normal (50%)</text>

  <!-- Toplam doluluk -->
  <polyline points="60.0,193.2 86.9,192.5 113.8,192.0 140.8,191.6 167.7,191.1 194.6,190.8 221.5,190.4 248.5,190.1 275.4,189.6 302.3,188.8 329.2,187.8 356.2,187.0 383.1,186.2 410.0,185.6 436.9,185.0 463.8,184.3 490.8,183.6 517.7,183.2 544.6,182.9 571.5,182.7 598.5,182.7 625.4,182.4 652.3,182.3 679.2,182.3 706.2,182.2 733.1,182.2 760.0,182.2" fill="none" stroke="#22c55e" stroke-width="2.5" stroke-linecap="round" stroke-linejoin="round"/>
  <polyline points="60.0,193.2 86.9,192.5 113.8,192.0 140.8,191.6 167.7,191.1 194.6,190.8 221.5,190.4 248.5,190.1 275.4,189.6 302.3,188.8 329.2,187.8 356.2,187.0 383.1,186.2 410.0,185.6 436.9,185.0 463.8,184.3 490.8,183.6 517.7,183.2 544.6,182.9 571.5,182.7 598.5,182.7 625.4,182.4 652.3,182.3 679.2,182.3 706.2,182.2 733.1,182.2 760.0,182.2" fill="none" stroke="#22c55e" stroke-width="5" opacity="0.1" stroke-linecap="round" stroke-linejoin="round"/>

  <!-- Aktif doluluk -->
  <polyline points="60.0,211.1 86.9,210.2 113.8,209.7 140.8,209.2 167.7,208.7 194.6,208.3 221.5,207.9 248.5,207.5 275.4,207.0 302.3,206.2 329.2,205.0 356.2,204.1 383.1,203.2 410.0,202.5 436.9,201.9 463.8,201.0 490.8,200.3 517.7,199.9 544.6,199.6 571.5,199.4 598.5,199.3 625.4,199.0 652.3,198.9 679.2,198.9 706.2,198.7 733.1,198.7 760.0,198.8" fill="none" stroke="#3b82f6" stroke-width="2.5" stroke-linecap="round" stroke-linejoin="round"/>
  <polyline points="60.0,211.1 86.9,210.2 113.8,209.7 140.8,209.2 167.7,208.7 194.6,208.3 221.5,207.9 248.5,207.5 275.4,207.0 302.3,206.2 329.2,205.0 356.2,204.1 383.1,203.2 410.0,202.5 436.9,201.9 463.8,201.0 490.8,200.3 517.7,199.9 544.6,199.6 571.5,199.4 598.5,199.3 625.4,199.0 652.3,198.9 679.2,198.9 706.2,198.7 733.1,198.7 760.0,198.8" fill="none" stroke="#3b82f6" stroke-width="5" opacity="0.1" stroke-linecap="round" stroke-linejoin="round"/>

  <!-- Noktalar -->
  <circle cx="60.0" cy="193.2" r="3" fill="#22c55e"/><circle cx="86.9" cy="192.5" r="3" fill="#22c55e"/><circle cx="113.8" cy="192.0" r="3" fill="#22c55e"/><circle cx="140.8" cy="191.6" r="3" fill="#22c55e"/><circle cx="167.7" cy="191.1" r="3" fill="#22c55e"/><circle cx="194.6" cy="190.8" r="3" fill="#22c55e"/><circle cx="221.5" cy="190.4" r="3" fill="#22c55e"/><circle cx="248.5" cy="190.1" r="3" fill="#22c55e"/><circle cx="275.4" cy="189.6" r="3" fill="#22c55e"/><circle cx="302.3" cy="188.8" r="3" fill="#22c55e"/><circle cx="329.2" cy="187.8" r="3" fill="#22c55e"/><circle cx="356.2" cy="187.0" r="3" fill="#22c55e"/><circle cx="383.1" cy="186.2" r="3" fill="#22c55e"/><circle cx="410.0" cy="185.6" r="3" fill="#22c55e"/><circle cx="436.9" cy="185.0" r="3" fill="#22c55e"/><circle cx="463.8" cy="184.3" r="3" fill="#22c55e"/><circle cx="490.8" cy="183.6" r="3" fill="#22c55e"/><circle cx="517.7" cy="183.2" r="3" fill="#22c55e"/><circle cx="544.6" cy="182.9" r="3" fill="#22c55e"/><circle cx="571.5" cy="182.7" r="3" fill="#22c55e"/><circle cx="598.5" cy="182.7" r="3" fill="#22c55e"/><circle cx="625.4" cy="182.4" r="3" fill="#22c55e"/><circle cx="652.3" cy="182.3" r="3" fill="#22c55e"/><circle cx="679.2" cy="182.3" r="3" fill="#22c55e"/><circle cx="706.2" cy="182.2" r="3" fill="#22c55e"/><circle cx="733.1" cy="182.2" r="3" fill="#22c55e"/><circle cx="760.0" cy="182.2" r="3" fill="#22c55e"/>
  <circle cx="60.0" cy="211.1" r="3" fill="#3b82f6"/><circle cx="86.9" cy="210.2" r="3" fill="#3b82f6"/><circle cx="113.8" cy="209.7" r="3" fill="#3b82f6"/><circle cx="140.8" cy="209.2" r="3" fill="#3b82f6"/><circle cx="167.7" cy="208.7" r="3" fill="#3b82f6"/><circle cx="194.6" cy="208.3" r="3" fill="#3b82f6"/><circle cx="221.5" cy="207.9" r="3" fill="#3b82f6"/><circle cx="248.5" cy="207.5" r="3" fill="#3b82f6"/><circle cx="275.4" cy="207.0" r="3" fill="#3b82f6"/><circle cx="302.3" cy="206.2" r="3" fill="#3b82f6"/><circle cx="329.2" cy="205.0" r="3" fill="#3b82f6"/><circle cx="356.2" cy="204.1" r="3" fill="#3b82f6"/><circle cx="383.1" cy="203.2" r="3" fill="#3b82f6"/><circle cx="410.0" cy="202.5" r="3" fill="#3b82f6"/><circle cx="436.9" cy="201.9" r="3" fill="#3b82f6"/><circle cx="463.8" cy="201.0" r="3" fill="#3b82f6"/><circle cx="490.8" cy="200.3" r="3" fill="#3b82f6"/><circle cx="517.7" cy="199.9" r="3" fill="#3b82f6"/><circle cx="544.6" cy="199.6" r="3" fill="#3b82f6"/><circle cx="571.5" cy="199.4" r="3" fill="#3b82f6"/><circle cx="598.5" cy="199.3" r="3" fill="#3b82f6"/><circle cx="625.4" cy="199.0" r="3" fill="#3b82f6"/><circle cx="652.3" cy="198.9" r="3" fill="#3b82f6"/><circle cx="679.2" cy="198.9" r="3" fill="#3b82f6"/><circle cx="706.2" cy="198.7" r="3" fill="#3b82f6"/><circle cx="733.1" cy="198.7" r="3" fill="#3b82f6"/><circle cx="760.0" cy="198.8" r="3" fill="#3b82f6"/>

  <!-- X ekseni -->
  <text x="60.0" y="380" text-anchor="middle" font-size="10" fill="#888">14.05 00:00</text>
  <text x="167.7" y="380" text-anchor="middle" font-size="10" fill="#888">18.05 00:00</text>
  <text x="275.4" y="380" text-anchor="middle" font-size="10" fill="#888">22.05 00:00</text>
  <text x="383.1" y="380" text-anchor="middle" font-size="10" fill="#888">26.05 00:00</text>
  <text x="490.8" y="380" text-anchor="middle" font-size="10" fill="#888">30.05 00:00</text>
  <text x="598.5" y="380" text-anchor="middle" font-size="10" fill="#888">03.06 00:00</text>
  <text x="706.2" y="380" text-anchor="middle" font-size="10" fill="#888">07.06 00:00</text>

  <!-- Legend -->
  <g transform="translate(60, 345)">
    <rect x="0" y="0" width="12" height="12" fill="#22c55e" rx="2"/>
    <text x="18" y="10" font-size="11" fill="#c9d1d9">Toplam Doluluk</text>
    <rect x="140" y="0" width="12" height="12" fill="#3b82f6" rx="2"/>
    <text x="158" y="10" font-size="11" fill="#c9d1d9">Aktif Doluluk</text>
  </g>
</svg>