<svg xmlns="http://www.w3.org/2000/svg" viewBox="0 0 900 400" width="100%" style="max-width:900px;">
  <rect width="900" height="400" fill="#0d1117" rx="6"/>
  <text x="450.0" y="25" text-anchor="middle" font-size="16" font-weight="bold" fill="#c9d1d9">Son 180 Gün - Günlük Ortalama</text>

  <!-- Y grid -->
  <line x1="60" y1="320.0" x2="860" y2="320.0" stroke="#333" stroke-width="1" stroke-dasharray="4,4" opacity="0.5"/>
  <text x="50" y="320.0" text-anchor="end" dominant-baseline="middle" font-size="10" fill="#888">0%</text>
  <line x1="60" y1="264.0" x2="860" y2="264.0" stroke="#333" stroke-width="1" stroke-dasharray="4,4" opacity="0.5"/>
  <text x="50" y="264.0" text-anchor="end" dominant-baseline="middle" font-size="10" fill="#888">20%</text>
  <line x1="60" y1="208.0" x2="860" y2="208.0" stroke="#333" stroke-width="1" stroke-dasharray="4,4" opacity="0.5"/>
  <text x="50" y="208.0" text-anchor="end" dominant-baseline="middle" font-size="10" fill="#888">40%</text>
  <line x1="60" y1="152.0" x2="860" y2="152.0" stroke="#333" stroke-width="1" stroke-dasharray="4,4" opacity="0.5"/>
  <text x="50" y="152.0" text-anchor="end" dominant-baseline="middle" font-size="10" fill="#888">60%</text>
  <line x1="60" y1="96.0" x2="860" y2="96.0" stroke="#333" stroke-width="1" stroke-dasharray="4,4" opacity="0.5"/>
  <text x="50" y="96.0" text-anchor="end" dominant-baseline="middle" font-size="10" fill="#888">80%</text>
  <line x1="60" y1="40.0" x2="860" y2="40.0" stroke="#333" stroke-width="1" stroke-dasharray="4,4" opacity="0.5"/>
  <text x="50" y="40.0" text-anchor="end" dominant-baseline="middle" font-size="10" fill="#888">100%</text>

  <!-- Referans çizgileri -->
  <line x1="60" y1="236.0" x2="860" y2="236.0" stroke="#ef4444" stroke-width="1" stroke-dasharray="2,2" opacity="0.7"/>
  <text x="845" y="236.0" dominant-baseline="middle" font-size="9" fill="#ef4444">Kritik (30%)</text>
  <line x1="60" y1="180.0" x2="860" y2="180.0" stroke="#eab308" stroke-width="1" stroke-dasharray="2,2" opacity="0.7"/>
  <text x="845" y="180.0" dominant-baseline="middle" font-size="9" fill="#eab308">Normal (50%)</text>

  <!-- Toplam doluluk -->
  <polyline points="60.0,193.2 72.9,192.5 85.8,192.0 98.7,191.6 111.6,191.1 124.5,190.8 137.4,190.4 150.3,190.1 163.2,189.6 176.1,188.8 189.0,187.8 201.9,187.0 214.8,186.2 227.7,185.6 240.6,185.0 253.5,184.3 266.5,183.6 279.4,183.2 292.3,182.9 305.2,182.7 318.1,182.7 331.0,182.4 343.9,182.3 356.8,182.3 369.7,182.2 382.6,182.2 395.5,182.2 408.4,182.2 421.3,182.3 434.2,182.4 447.1,182.5 460.0,182.6 472.9,182.7 485.8,182.9 498.7,183.1 511.6,183.2 524.5,183.3 537.4,183.4 550.3,183.5 563.2,183.7 576.1,183.9 589.0,184.2 601.9,184.4 614.8,184.7 627.7,185.0 640.6,185.3 653.5,185.6 666.5,186.0 679.4,186.3 692.3,186.6 705.2,187.0 718.1,187.3 731.0,187.6 743.9,188.0 756.8,188.3 769.7,188.6 782.6,189.0 795.5,189.3 808.4,189.6 821.3,189.9 834.2,190.2 847.1,190.5 860.0,190.8" fill="none" stroke="#22c55e" stroke-width="2.5" stroke-linecap="round" stroke-linejoin="round"/>
  <polyline points="60.0,193.2 72.9,192.5 85.8,192.0 98.7,191.6 111.6,191.1 124.5,190.8 137.4,190.4 150.3,190.1 163.2,189.6 176.1,188.8 189.0,187.8 201.9,187.0 214.8,186.2 227.7,185.6 240.6,185.0 253.5,184.3 266.5,183.6 279.4,183.2 292.3,182.9 305.2,182.7 318.1,182.7 331.0,182.4 343.9,182.3 356.8,182.3 369.7,182.2 382.6,182.2 395.5,182.2 408.4,182.2 421.3,182.3 434.2,182.4 447.1,182.5 460.0,182.6 472.9,182.7 485.8,182.9 498.7,183.1 511.6,183.2 524.5,183.3 537.4,183.4 550.3,183.5 563.2,183.7 576.1,183.9 589.0,184.2 601.9,184.4 614.8,184.7 627.7,185.0 640.6,185.3 653.5,185.6 666.5,186.0 679.4,186.3 692.3,186.6 705.2,187.0 718.1,187.3 731.0,187.6 743.9,188.0 756.8,188.3 769.7,188.6 782.6,189.0 795.5,189.3 808.4,189.6 821.3,189.9 834.2,190.2 847.1,190.5 860.0,190.8" fill="none" stroke="#22c55e" stroke-width="5" opacity="0.1" stroke-linecap="round" stroke-linejoin="round"/>

  <!-- Aktif doluluk -->
  <polyline points="60.0,211.1 72.9,210.2 85.8,209.7 98.7,209.2 111.6,208.7 124.5,208.3 137.4,207.9 150.3,207.5 163.2,207.0 176.1,206.2 189.0,205.0 201.9,204.1 214.8,203.2 227.7,202.5 240.6,201.9 253.5,201.0 266.5,200.3 279.4,199.9 292.3,199.6 305.2,199.4 318.1,199.3 331.0,199.0 343.9,198.9 356.8,198.9 369.7,198.7 382.6,198.7 395.5,198.8 408.4,198.8 421.3,198.8 434.2,198.9 447.1,199.0 460.0,199.2 472.9,199.4 485.8,199.5 498.7,199.7 511.6,199.8 524.5,200.0 537.4,200.1 550.3,200.2 563.2,200.4 576.1,200.7 589.0,201.0 601.9,201.3 614.8,201.6 627.7,201.8 640.6,202.2 653.5,202.6 666.5,203.0 679.4,203.3 692.3,203.7 705.2,204.1 718.1,204.4 731.0,204.8 743.9,205.2 756.8,205.5 769.7,205.9 782.6,206.3 795.5,206.7 808.4,207.0 821.3,207.4 834.2,207.7 847.1,208.0 860.0,208.3" fill="none" stroke="#3b82f6" stroke-width="2.5" stroke-linecap="round" stroke-linejoin="round"/>
  <polyline points="60.0,211.1 72.9,210.2 85.8,209.7 98.7,209.2 111.6,208.7 124.5,208.3 137.4,207.9 150.3,207.5 163.2,207.0 176.1,206.2 189.0,205.0 201.9,204.1 214.8,203.2 227.7,202.5 240.6,201.9 253.5,201.0 266.5,200.3 279.4,199.9 292.3,199.6 305.2,199.4 318.1,199.3 331.0,199.0 343.9,198.9 356.8,198.9 369.7,198.7 382.6,198.7 395.5,198.8 408.4,198.8 421.3,198.8 434.2,198.9 447.1,199.0 460.0,199.2 472.9,199.4 485.8,199.5 498.7,199.7 511.6,199.8 524.5,200.0 537.4,200.1 550.3,200.2 563.2,200.4 576.1,200.7 589.0,201.0 601.9,201.3 614.8,201.6 627.7,201.8 640.6,202.2 653.5,202.6 666.5,203.0 679.4,203.3 692.3,203.7 705.2,204.1 718.1,204.4 731.0,204.8 743.9,205.2 756.8,205.5 769.7,205.9 782.6,206.3 795.5,206.7 808.4,207.0 821.3,207.4 834.2,207.7 847.1,208.0 860.0,208.3" fill="none" stroke="#3b82f6" stroke-width="5" opacity="0.1" stroke-linecap="round" stroke-linejoin="round"/>

  <!-- Noktalar -->
  <circle cx="60.0" cy="193.2" r="3" fill="#22c55e"/><circle cx="72.9" cy="192.5" r="3" fill="#22c55e"/><circle cx="85.8" cy="192.0" r="3" fill="#22c55e"/><circle cx="98.7" cy="191.6" r="3" fill="#22c55e"/><circle cx="111.6" cy="191.1" r="3" fill="#22c55e"/><circle cx="124.5" cy="190.8" r="3" fill="#22c55e"/><circle cx="137.4" cy="190.4" r="3" fill="#22c55e"/><circle cx="150.3" cy="190.1" r="3" fill="#22c55e"/><circle cx="163.2" cy="189.6" r="3" fill="#22c55e"/><circle cx="176.1" cy="188.8" r="3" fill="#22c55e"/><circle cx="189.0" cy="187.8" r="3" fill="#22c55e"/><circle cx="201.9" cy="187.0" r="3" fill="#22c55e"/><circle cx="214.8" cy="186.2" r="3" fill="#22c55e"/><circle cx="227.7" cy="185.6" r="3" fill="#22c55e"/><circle cx="240.6" cy="185.0" r="3" fill="#22c55e"/><circle cx="253.5" cy="184.3" r="3" fill="#22c55e"/><circle cx="266.5" cy="183.6" r="3" fill="#22c55e"/><circle cx="279.4" cy="183.2" r="3" fill="#22c55e"/><circle cx="292.3" cy="182.9" r="3" fill="#22c55e"/><circle cx="305.2" cy="182.7" r="3" fill="#22c55e"/><circle cx="318.1" cy="182.7" r="3" fill="#22c55e"/><circle cx="331.0" cy="182.4" r="3" fill="#22c55e"/><circle cx="343.9" cy="182.3" r="3" fill="#22c55e"/><circle cx="356.8" cy="182.3" r="3" fill="#22c55e"/><circle cx="369.7" cy="182.2" r="3" fill="#22c55e"/><circle cx="382.6" cy="182.2" r="3" fill="#22c55e"/><circle cx="395.5" cy="182.2" r="3" fill="#22c55e"/><circle cx="408.4" cy="182.2" r="3" fill="#22c55e"/><circle cx="421.3" cy="182.3" r="3" fill="#22c55e"/><circle cx="434.2" cy="182.4" r="3" fill="#22c55e"/><circle cx="447.1" cy="182.5" r="3" fill="#22c55e"/><circle cx="460.0" cy="182.6" r="3" fill="#22c55e"/><circle cx="472.9" cy="182.7" r="3" fill="#22c55e"/><circle cx="485.8" cy="182.9" r="3" fill="#22c55e"/><circle cx="498.7" cy="183.1" r="3" fill="#22c55e"/><circle cx="511.6" cy="183.2" r="3" fill="#22c55e"/><circle cx="524.5" cy="183.3" r="3" fill="#22c55e"/><circle cx="537.4" cy="183.4" r="3" fill="#22c55e"/><circle cx="550.3" cy="183.5" r="3" fill="#22c55e"/><circle cx="563.2" cy="183.7" r="3" fill="#22c55e"/><circle cx="576.1" cy="183.9" r="3" fill="#22c55e"/><circle cx="589.0" cy="184.2" r="3" fill="#22c55e"/><circle cx="601.9" cy="184.4" r="3" fill="#22c55e"/><circle cx="614.8" cy="184.7" r="3" fill="#22c55e"/><circle cx="627.7" cy="185.0" r="3" fill="#22c55e"/><circle cx="640.6" cy="185.3" r="3" fill="#22c55e"/><circle cx="653.5" cy="185.6" r="3" fill="#22c55e"/><circle cx="666.5" cy="186.0" r="3" fill="#22c55e"/><circle cx="679.4" cy="186.3" r="3" fill="#22c55e"/><circle cx="692.3" cy="186.6" r="3" fill="#22c55e"/><circle cx="705.2" cy="187.0" r="3" fill="#22c55e"/><circle cx="718.1" cy="187.3" r="3" fill="#22c55e"/><circle cx="731.0" cy="187.6" r="3" fill="#22c55e"/><circle cx="743.9" cy="188.0" r="3" fill="#22c55e"/><circle cx="756.8" cy="188.3" r="3" fill="#22c55e"/><circle cx="769.7" cy="188.6" r="3" fill="#22c55e"/><circle cx="782.6" cy="189.0" r="3" fill="#22c55e"/><circle cx="795.5" cy="189.3" r="3" fill="#22c55e"/><circle cx="808.4" cy="189.6" r="3" fill="#22c55e"/><circle cx="821.3" cy="189.9" r="3" fill="#22c55e"/><circle cx="834.2" cy="190.2" r="3" fill="#22c55e"/><circle cx="847.1" cy="190.5" r="3" fill="#22c55e"/><circle cx="860.0" cy="190.8" r="3" fill="#22c55e"/>
  <circle cx="60.0" cy="211.1" r="3" fill="#3b82f6"/><circle cx="72.9" cy="210.2" r="3" fill="#3b82f6"/><circle cx="85.8" cy="209.7" r="3" fill="#3b82f6"/><circle cx="98.7" cy="209.2" r="3" fill="#3b82f6"/><circle cx="111.6" cy="208.7" r="3" fill="#3b82f6"/><circle cx="124.5" cy="208.3" r="3" fill="#3b82f6"/><circle cx="137.4" cy="207.9" r="3" fill="#3b82f6"/><circle cx="150.3" cy="207.5" r="3" fill="#3b82f6"/><circle cx="163.2" cy="207.0" r="3" fill="#3b82f6"/><circle cx="176.1" cy="206.2" r="3" fill="#3b82f6"/><circle cx="189.0" cy="205.0" r="3" fill="#3b82f6"/><circle cx="201.9" cy="204.1" r="3" fill="#3b82f6"/><circle cx="214.8" cy="203.2" r="3" fill="#3b82f6"/><circle cx="227.7" cy="202.5" r="3" fill="#3b82f6"/><circle cx="240.6" cy="201.9" r="3" fill="#3b82f6"/><circle cx="253.5" cy="201.0" r="3" fill="#3b82f6"/><circle cx="266.5" cy="200.3" r="3" fill="#3b82f6"/><circle cx="279.4" cy="199.9" r="3" fill="#3b82f6"/><circle cx="292.3" cy="199.6" r="3" fill="#3b82f6"/><circle cx="305.2" cy="199.4" r="3" fill="#3b82f6"/><circle cx="318.1" cy="199.3" r="3" fill="#3b82f6"/><circle cx="331.0" cy="199.0" r="3" fill="#3b82f6"/><circle cx="343.9" cy="198.9" r="3" fill="#3b82f6"/><circle cx="356.8" cy="198.9" r="3" fill="#3b82f6"/><circle cx="369.7" cy="198.7" r="3" fill="#3b82f6"/><circle cx="382.6" cy="198.7" r="3" fill="#3b82f6"/><circle cx="395.5" cy="198.8" r="3" fill="#3b82f6"/><circle cx="408.4" cy="198.8" r="3" fill="#3b82f6"/><circle cx="421.3" cy="198.8" r="3" fill="#3b82f6"/><circle cx="434.2" cy="198.9" r="3" fill="#3b82f6"/><circle cx="447.1" cy="199.0" r="3" fill="#3b82f6"/><circle cx="460.0" cy="199.2" r="3" fill="#3b82f6"/><circle cx="472.9" cy="199.4" r="3" fill="#3b82f6"/><circle cx="485.8" cy="199.5" r="3" fill="#3b82f6"/><circle cx="498.7" cy="199.7" r="3" fill="#3b82f6"/><circle cx="511.6" cy="199.8" r="3" fill="#3b82f6"/><circle cx="524.5" cy="200.0" r="3" fill="#3b82f6"/><circle cx="537.4" cy="200.1" r="3" fill="#3b82f6"/><circle cx="550.3" cy="200.2" r="3" fill="#3b82f6"/><circle cx="563.2" cy="200.4" r="3" fill="#3b82f6"/><circle cx="576.1" cy="200.7" r="3" fill="#3b82f6"/><circle cx="589.0" cy="201.0" r="3" fill="#3b82f6"/><circle cx="601.9" cy="201.3" r="3" fill="#3b82f6"/><circle cx="614.8" cy="201.6" r="3" fill="#3b82f6"/><circle cx="627.7" cy="201.8" r="3" fill="#3b82f6"/><circle cx="640.6" cy="202.2" r="3" fill="#3b82f6"/><circle cx="653.5" cy="202.6" r="3" fill="#3b82f6"/><circle cx="666.5" cy="203.0" r="3" fill="#3b82f6"/><circle cx="679.4" cy="203.3" r="3" fill="#3b82f6"/><circle cx="692.3" cy="203.7" r="3" fill="#3b82f6"/><circle cx="705.2" cy="204.1" r="3" fill="#3b82f6"/><circle cx="718.1" cy="204.4" r="3" fill="#3b82f6"/><circle cx="731.0" cy="204.8" r="3" fill="#3b82f6"/><circle cx="743.9" cy="205.2" r="3" fill="#3b82f6"/><circle cx="756.8" cy="205.5" r="3" fill="#3b82f6"/><circle cx="769.7" cy="205.9" r="3" fill="#3b82f6"/><circle cx="782.6" cy="206.3" r="3" fill="#3b82f6"/><circle cx="795.5" cy="206.7" r="3" fill="#3b82f6"/><circle cx="808.4" cy="207.0" r="3" fill="#3b82f6"/><circle cx="821.3" cy="207.4" r="3" fill="#3b82f6"/><circle cx="834.2" cy="207.7" r="3" fill="#3b82f6"/><circle cx="847.1" cy="208.0" r="3" fill="#3b82f6"/><circle cx="860.0" cy="208.3" r="3" fill="#3b82f6"/>

  <!-- X ekseni -->
  <text x="60.0" y="380" text-anchor="middle" font-size="10" fill="#888">14.05.2026</text>
  <text x="189.0" y="380" text-anchor="middle" font-size="10" fill="#888">24.05.2026</text>
  <text x="318.1" y="380" text-anchor="middle" font-size="10" fill="#888">03.06.2026</text>
  <text x="447.1" y="380" text-anchor="middle" font-size="10" fill="#888">13.06.2026</text>
  <text x="576.1" y="380" text-anchor="middle" font-size="10" fill="#888">23.06.2026</text>
  <text x="705.2" y="380" text-anchor="middle" font-size="10" fill="#888">03.07.2026</text>
  <text x="834.2" y="380" text-anchor="middle" font-size="10" fill="#888">13.07.2026</text>

  <!-- Legend -->
  <g transform="translate(60, 345)">
    <rect x="0" y="0" width="12" height="12" fill="#22c55e" rx="2"/>
    <text x="18" y="10" font-size="11" fill="#c9d1d9">Toplam Doluluk</text>
    <rect x="140" y="0" width="12" height="12" fill="#3b82f6" rx="2"/>
    <text x="158" y="10" font-size="11" fill="#c9d1d9">Aktif Doluluk</text>
  </g>
</svg>