<svg xmlns="http://www.w3.org/2000/svg" viewBox="0 0 800 400" width="100%" style="max-width:800px;">
  <rect width="800" height="400" fill="#0d1117" rx="6"/>
  <text x="400.0" y="25" text-anchor="middle" font-size="16" font-weight="bold" fill="#c9d1d9">Son 90 Gün - Günlük Ortalama</text>

  <!-- Y grid -->
  <line x1="60" y1="320.0" x2="760" y2="320.0" stroke="#333" stroke-width="1" stroke-dasharray="4,4" opacity="0.5"/>
  <text x="50" y="320.0" text-anchor="end" dominant-baseline="middle" font-size="10" fill="#888">0%</text>
  <line x1="60" y1="264.0" x2="760" y2="264.0" stroke="#333" stroke-width="1" stroke-dasharray="4,4" opacity="0.5"/>
  <text x="50" y="264.0" text-anchor="end" dominant-baseline="middle" font-size="10" fill="#888">20%</text>
  <line x1="60" y1="208.0" x2="760" y2="208.0" stroke="#333" stroke-width="1" stroke-dasharray="4,4" opacity="0.5"/>
  <text x="50" y="208.0" text-anchor="end" dominant-baseline="middle" font-size="10" fill="#888">40%</text>
  <line x1="60" y1="152.0" x2="760" y2="152.0" stroke="#333" stroke-width="1" stroke-dasharray="4,4" opacity="0.5"/>
  <text x="50" y="152.0" text-anchor="end" dominant-baseline="middle" font-size="10" fill="#888">60%</text>
  <line x1="60" y1="96.0" x2="760" y2="96.0" stroke="#333" stroke-width="1" stroke-dasharray="4,4" opacity="0.5"/>
  <text x="50" y="96.0" text-anchor="end" dominant-baseline="middle" font-size="10" fill="#888">80%</text>
  <line x1="60" y1="40.0" x2="760" y2="40.0" stroke="#333" stroke-width="1" stroke-dasharray="4,4" opacity="0.5"/>
  <text x="50" y="40.0" text-anchor="end" dominant-baseline="middle" font-size="10" fill="#888">100%</text>

  <!-- Referans çizgileri -->
  <line x1="60" y1="236.0" x2="760" y2="236.0" stroke="#ef4444" stroke-width="1" stroke-dasharray="2,2" opacity="0.7"/>
  <text x="745" y="236.0" dominant-baseline="middle" font-size="9" fill="#ef4444">Kritik (30%)</text>
  <line x1="60" y1="180.0" x2="760" y2="180.0" stroke="#eab308" stroke-width="1" stroke-dasharray="2,2" opacity="0.7"/>
  <text x="745" y="180.0" dominant-baseline="middle" font-size="9" fill="#eab308">Normal (50%)</text>

  <!-- Toplam doluluk -->
  <polyline points="60.0,193.2 71.5,192.5 83.0,192.0 94.4,191.6 105.9,191.1 117.4,190.8 128.9,190.4 140.3,190.1 151.8,189.6 163.3,188.8 174.8,187.8 186.2,187.0 197.7,186.2 209.2,185.6 220.7,185.0 232.1,184.3 243.6,183.6 255.1,183.2 266.6,182.9 278.0,182.7 289.5,182.7 301.0,182.4 312.5,182.3 323.9,182.3 335.4,182.2 346.9,182.2 358.4,182.2 369.8,182.2 381.3,182.3 392.8,182.4 404.3,182.5 415.7,182.6 427.2,182.7 438.7,182.9 450.2,183.1 461.6,183.2 473.1,183.3 484.6,183.4 496.1,183.5 507.5,183.7 519.0,183.9 530.5,184.2 542.0,184.4 553.4,184.7 564.9,185.0 576.4,185.3 587.9,185.6 599.3,186.0 610.8,186.3 622.3,186.6 633.8,187.0 645.2,187.3 656.7,187.6 668.2,188.0 679.7,188.3 691.1,188.6 702.6,189.0 714.1,189.3 725.6,189.6 737.0,189.9 748.5,190.2 760.0,190.5" fill="none" stroke="#22c55e" stroke-width="2.5" stroke-linecap="round" stroke-linejoin="round"/>
  <polyline points="60.0,193.2 71.5,192.5 83.0,192.0 94.4,191.6 105.9,191.1 117.4,190.8 128.9,190.4 140.3,190.1 151.8,189.6 163.3,188.8 174.8,187.8 186.2,187.0 197.7,186.2 209.2,185.6 220.7,185.0 232.1,184.3 243.6,183.6 255.1,183.2 266.6,182.9 278.0,182.7 289.5,182.7 301.0,182.4 312.5,182.3 323.9,182.3 335.4,182.2 346.9,182.2 358.4,182.2 369.8,182.2 381.3,182.3 392.8,182.4 404.3,182.5 415.7,182.6 427.2,182.7 438.7,182.9 450.2,183.1 461.6,183.2 473.1,183.3 484.6,183.4 496.1,183.5 507.5,183.7 519.0,183.9 530.5,184.2 542.0,184.4 553.4,184.7 564.9,185.0 576.4,185.3 587.9,185.6 599.3,186.0 610.8,186.3 622.3,186.6 633.8,187.0 645.2,187.3 656.7,187.6 668.2,188.0 679.7,188.3 691.1,188.6 702.6,189.0 714.1,189.3 725.6,189.6 737.0,189.9 748.5,190.2 760.0,190.5" fill="none" stroke="#22c55e" stroke-width="5" opacity="0.1" stroke-linecap="round" stroke-linejoin="round"/>

  <!-- Aktif doluluk -->
  <polyline points="60.0,211.1 71.5,210.2 83.0,209.7 94.4,209.2 105.9,208.7 117.4,208.3 128.9,207.9 140.3,207.5 151.8,207.0 163.3,206.2 174.8,205.0 186.2,204.1 197.7,203.2 209.2,202.5 220.7,201.9 232.1,201.0 243.6,200.3 255.1,199.9 266.6,199.6 278.0,199.4 289.5,199.3 301.0,199.0 312.5,198.9 323.9,198.9 335.4,198.7 346.9,198.7 358.4,198.8 369.8,198.8 381.3,198.8 392.8,198.9 404.3,199.0 415.7,199.2 427.2,199.4 438.7,199.5 450.2,199.7 461.6,199.8 473.1,200.0 484.6,200.1 496.1,200.2 507.5,200.4 519.0,200.7 530.5,201.0 542.0,201.3 553.4,201.6 564.9,201.8 576.4,202.2 587.9,202.6 599.3,203.0 610.8,203.3 622.3,203.7 633.8,204.1 645.2,204.4 656.7,204.8 668.2,205.2 679.7,205.5 691.1,205.9 702.6,206.3 714.1,206.7 725.6,207.0 737.0,207.4 748.5,207.7 760.0,208.0" fill="none" stroke="#3b82f6" stroke-width="2.5" stroke-linecap="round" stroke-linejoin="round"/>
  <polyline points="60.0,211.1 71.5,210.2 83.0,209.7 94.4,209.2 105.9,208.7 117.4,208.3 128.9,207.9 140.3,207.5 151.8,207.0 163.3,206.2 174.8,205.0 186.2,204.1 197.7,203.2 209.2,202.5 220.7,201.9 232.1,201.0 243.6,200.3 255.1,199.9 266.6,199.6 278.0,199.4 289.5,199.3 301.0,199.0 312.5,198.9 323.9,198.9 335.4,198.7 346.9,198.7 358.4,198.8 369.8,198.8 381.3,198.8 392.8,198.9 404.3,199.0 415.7,199.2 427.2,199.4 438.7,199.5 450.2,199.7 461.6,199.8 473.1,200.0 484.6,200.1 496.1,200.2 507.5,200.4 519.0,200.7 530.5,201.0 542.0,201.3 553.4,201.6 564.9,201.8 576.4,202.2 587.9,202.6 599.3,203.0 610.8,203.3 622.3,203.7 633.8,204.1 645.2,204.4 656.7,204.8 668.2,205.2 679.7,205.5 691.1,205.9 702.6,206.3 714.1,206.7 725.6,207.0 737.0,207.4 748.5,207.7 760.0,208.0" fill="none" stroke="#3b82f6" stroke-width="5" opacity="0.1" stroke-linecap="round" stroke-linejoin="round"/>

  <!-- Noktalar -->
  <circle cx="60.0" cy="193.2" r="3" fill="#22c55e"/><circle cx="71.5" cy="192.5" r="3" fill="#22c55e"/><circle cx="83.0" cy="192.0" r="3" fill="#22c55e"/><circle cx="94.4" cy="191.6" r="3" fill="#22c55e"/><circle cx="105.9" cy="191.1" r="3" fill="#22c55e"/><circle cx="117.4" cy="190.8" r="3" fill="#22c55e"/><circle cx="128.9" cy="190.4" r="3" fill="#22c55e"/><circle cx="140.3" cy="190.1" r="3" fill="#22c55e"/><circle cx="151.8" cy="189.6" r="3" fill="#22c55e"/><circle cx="163.3" cy="188.8" r="3" fill="#22c55e"/><circle cx="174.8" cy="187.8" r="3" fill="#22c55e"/><circle cx="186.2" cy="187.0" r="3" fill="#22c55e"/><circle cx="197.7" cy="186.2" r="3" fill="#22c55e"/><circle cx="209.2" cy="185.6" r="3" fill="#22c55e"/><circle cx="220.7" cy="185.0" r="3" fill="#22c55e"/><circle cx="232.1" cy="184.3" r="3" fill="#22c55e"/><circle cx="243.6" cy="183.6" r="3" fill="#22c55e"/><circle cx="255.1" cy="183.2" r="3" fill="#22c55e"/><circle cx="266.6" cy="182.9" r="3" fill="#22c55e"/><circle cx="278.0" cy="182.7" r="3" fill="#22c55e"/><circle cx="289.5" cy="182.7" r="3" fill="#22c55e"/><circle cx="301.0" cy="182.4" r="3" fill="#22c55e"/><circle cx="312.5" cy="182.3" r="3" fill="#22c55e"/><circle cx="323.9" cy="182.3" r="3" fill="#22c55e"/><circle cx="335.4" cy="182.2" r="3" fill="#22c55e"/><circle cx="346.9" cy="182.2" r="3" fill="#22c55e"/><circle cx="358.4" cy="182.2" r="3" fill="#22c55e"/><circle cx="369.8" cy="182.2" r="3" fill="#22c55e"/><circle cx="381.3" cy="182.3" r="3" fill="#22c55e"/><circle cx="392.8" cy="182.4" r="3" fill="#22c55e"/><circle cx="404.3" cy="182.5" r="3" fill="#22c55e"/><circle cx="415.7" cy="182.6" r="3" fill="#22c55e"/><circle cx="427.2" cy="182.7" r="3" fill="#22c55e"/><circle cx="438.7" cy="182.9" r="3" fill="#22c55e"/><circle cx="450.2" cy="183.1" r="3" fill="#22c55e"/><circle cx="461.6" cy="183.2" r="3" fill="#22c55e"/><circle cx="473.1" cy="183.3" r="3" fill="#22c55e"/><circle cx="484.6" cy="183.4" r="3" fill="#22c55e"/><circle cx="496.1" cy="183.5" r="3" fill="#22c55e"/><circle cx="507.5" cy="183.7" r="3" fill="#22c55e"/><circle cx="519.0" cy="183.9" r="3" fill="#22c55e"/><circle cx="530.5" cy="184.2" r="3" fill="#22c55e"/><circle cx="542.0" cy="184.4" r="3" fill="#22c55e"/><circle cx="553.4" cy="184.7" r="3" fill="#22c55e"/><circle cx="564.9" cy="185.0" r="3" fill="#22c55e"/><circle cx="576.4" cy="185.3" r="3" fill="#22c55e"/><circle cx="587.9" cy="185.6" r="3" fill="#22c55e"/><circle cx="599.3" cy="186.0" r="3" fill="#22c55e"/><circle cx="610.8" cy="186.3" r="3" fill="#22c55e"/><circle cx="622.3" cy="186.6" r="3" fill="#22c55e"/><circle cx="633.8" cy="187.0" r="3" fill="#22c55e"/><circle cx="645.2" cy="187.3" r="3" fill="#22c55e"/><circle cx="656.7" cy="187.6" r="3" fill="#22c55e"/><circle cx="668.2" cy="188.0" r="3" fill="#22c55e"/><circle cx="679.7" cy="188.3" r="3" fill="#22c55e"/><circle cx="691.1" cy="188.6" r="3" fill="#22c55e"/><circle cx="702.6" cy="189.0" r="3" fill="#22c55e"/><circle cx="714.1" cy="189.3" r="3" fill="#22c55e"/><circle cx="725.6" cy="189.6" r="3" fill="#22c55e"/><circle cx="737.0" cy="189.9" r="3" fill="#22c55e"/><circle cx="748.5" cy="190.2" r="3" fill="#22c55e"/><circle cx="760.0" cy="190.5" r="3" fill="#22c55e"/>
  <circle cx="60.0" cy="211.1" r="3" fill="#3b82f6"/><circle cx="71.5" cy="210.2" r="3" fill="#3b82f6"/><circle cx="83.0" cy="209.7" r="3" fill="#3b82f6"/><circle cx="94.4" cy="209.2" r="3" fill="#3b82f6"/><circle cx="105.9" cy="208.7" r="3" fill="#3b82f6"/><circle cx="117.4" cy="208.3" r="3" fill="#3b82f6"/><circle cx="128.9" cy="207.9" r="3" fill="#3b82f6"/><circle cx="140.3" cy="207.5" r="3" fill="#3b82f6"/><circle cx="151.8" cy="207.0" r="3" fill="#3b82f6"/><circle cx="163.3" cy="206.2" r="3" fill="#3b82f6"/><circle cx="174.8" cy="205.0" r="3" fill="#3b82f6"/><circle cx="186.2" cy="204.1" r="3" fill="#3b82f6"/><circle cx="197.7" cy="203.2" r="3" fill="#3b82f6"/><circle cx="209.2" cy="202.5" r="3" fill="#3b82f6"/><circle cx="220.7" cy="201.9" r="3" fill="#3b82f6"/><circle cx="232.1" cy="201.0" r="3" fill="#3b82f6"/><circle cx="243.6" cy="200.3" r="3" fill="#3b82f6"/><circle cx="255.1" cy="199.9" r="3" fill="#3b82f6"/><circle cx="266.6" cy="199.6" r="3" fill="#3b82f6"/><circle cx="278.0" cy="199.4" r="3" fill="#3b82f6"/><circle cx="289.5" cy="199.3" r="3" fill="#3b82f6"/><circle cx="301.0" cy="199.0" r="3" fill="#3b82f6"/><circle cx="312.5" cy="198.9" r="3" fill="#3b82f6"/><circle cx="323.9" cy="198.9" r="3" fill="#3b82f6"/><circle cx="335.4" cy="198.7" r="3" fill="#3b82f6"/><circle cx="346.9" cy="198.7" r="3" fill="#3b82f6"/><circle cx="358.4" cy="198.8" r="3" fill="#3b82f6"/><circle cx="369.8" cy="198.8" r="3" fill="#3b82f6"/><circle cx="381.3" cy="198.8" r="3" fill="#3b82f6"/><circle cx="392.8" cy="198.9" r="3" fill="#3b82f6"/><circle cx="404.3" cy="199.0" r="3" fill="#3b82f6"/><circle cx="415.7" cy="199.2" r="3" fill="#3b82f6"/><circle cx="427.2" cy="199.4" r="3" fill="#3b82f6"/><circle cx="438.7" cy="199.5" r="3" fill="#3b82f6"/><circle cx="450.2" cy="199.7" r="3" fill="#3b82f6"/><circle cx="461.6" cy="199.8" r="3" fill="#3b82f6"/><circle cx="473.1" cy="200.0" r="3" fill="#3b82f6"/><circle cx="484.6" cy="200.1" r="3" fill="#3b82f6"/><circle cx="496.1" cy="200.2" r="3" fill="#3b82f6"/><circle cx="507.5" cy="200.4" r="3" fill="#3b82f6"/><circle cx="519.0" cy="200.7" r="3" fill="#3b82f6"/><circle cx="530.5" cy="201.0" r="3" fill="#3b82f6"/><circle cx="542.0" cy="201.3" r="3" fill="#3b82f6"/><circle cx="553.4" cy="201.6" r="3" fill="#3b82f6"/><circle cx="564.9" cy="201.8" r="3" fill="#3b82f6"/><circle cx="576.4" cy="202.2" r="3" fill="#3b82f6"/><circle cx="587.9" cy="202.6" r="3" fill="#3b82f6"/><circle cx="599.3" cy="203.0" r="3" fill="#3b82f6"/><circle cx="610.8" cy="203.3" r="3" fill="#3b82f6"/><circle cx="622.3" cy="203.7" r="3" fill="#3b82f6"/><circle cx="633.8" cy="204.1" r="3" fill="#3b82f6"/><circle cx="645.2" cy="204.4" r="3" fill="#3b82f6"/><circle cx="656.7" cy="204.8" r="3" fill="#3b82f6"/><circle cx="668.2" cy="205.2" r="3" fill="#3b82f6"/><circle cx="679.7" cy="205.5" r="3" fill="#3b82f6"/><circle cx="691.1" cy="205.9" r="3" fill="#3b82f6"/><circle cx="702.6" cy="206.3" r="3" fill="#3b82f6"/><circle cx="714.1" cy="206.7" r="3" fill="#3b82f6"/><circle cx="725.6" cy="207.0" r="3" fill="#3b82f6"/><circle cx="737.0" cy="207.4" r="3" fill="#3b82f6"/><circle cx="748.5" cy="207.7" r="3" fill="#3b82f6"/><circle cx="760.0" cy="208.0" r="3" fill="#3b82f6"/>

  <!-- X ekseni -->
  <text x="60.0" y="380" text-anchor="middle" font-size="10" fill="#888">14.05.2026</text>
  <text x="174.8" y="380" text-anchor="middle" font-size="10" fill="#888">24.05.2026</text>
  <text x="289.5" y="380" text-anchor="middle" font-size="10" fill="#888">03.06.2026</text>
  <text x="404.3" y="380" text-anchor="middle" font-size="10" fill="#888">13.06.2026</text>
  <text x="519.0" y="380" text-anchor="middle" font-size="10" fill="#888">23.06.2026</text>
  <text x="633.8" y="380" text-anchor="middle" font-size="10" fill="#888">03.07.2026</text>
  <text x="748.5" y="380" text-anchor="middle" font-size="10" fill="#888">13.07.2026</text>

  <!-- Legend -->
  <g transform="translate(60, 345)">
    <rect x="0" y="0" width="12" height="12" fill="#22c55e" rx="2"/>
    <text x="18" y="10" font-size="11" fill="#c9d1d9">Toplam Doluluk</text>
    <rect x="140" y="0" width="12" height="12" fill="#3b82f6" rx="2"/>
    <text x="158" y="10" font-size="11" fill="#c9d1d9">Aktif Doluluk</text>
  </g>
</svg>