<svg xmlns="http://www.w3.org/2000/svg" viewBox="0 0 800 400" width="100%" style="max-width:800px;">
  <rect width="800" height="400" fill="#0d1117" rx="6"/>
  <text x="400.0" y="25" text-anchor="middle" font-size="16" font-weight="bold" fill="#c9d1d9">Son 90 Gün - Günlük Ortalama</text>

  <!-- Y grid -->
  <line x1="60" y1="320.0" x2="760" y2="320.0" stroke="#333" stroke-width="1" stroke-dasharray="4,4" opacity="0.5"/>
  <text x="50" y="320.0" text-anchor="end" dominant-baseline="middle" font-size="10" fill="#888">0%</text>
  <line x1="60" y1="264.0" x2="760" y2="264.0" stroke="#333" stroke-width="1" stroke-dasharray="4,4" opacity="0.5"/>
  <text x="50" y="264.0" text-anchor="end" dominant-baseline="middle" font-size="10" fill="#888">20%</text>
  <line x1="60" y1="208.0" x2="760" y2="208.0" stroke="#333" stroke-width="1" stroke-dasharray="4,4" opacity="0.5"/>
  <text x="50" y="208.0" text-anchor="end" dominant-baseline="middle" font-size="10" fill="#888">40%</text>
  <line x1="60" y1="152.0" x2="760" y2="152.0" stroke="#333" stroke-width="1" stroke-dasharray="4,4" opacity="0.5"/>
  <text x="50" y="152.0" text-anchor="end" dominant-baseline="middle" font-size="10" fill="#888">60%</text>
  <line x1="60" y1="96.0" x2="760" y2="96.0" stroke="#333" stroke-width="1" stroke-dasharray="4,4" opacity="0.5"/>
  <text x="50" y="96.0" text-anchor="end" dominant-baseline="middle" font-size="10" fill="#888">80%</text>
  <line x1="60" y1="40.0" x2="760" y2="40.0" stroke="#333" stroke-width="1" stroke-dasharray="4,4" opacity="0.5"/>
  <text x="50" y="40.0" text-anchor="end" dominant-baseline="middle" font-size="10" fill="#888">100%</text>

  <!-- Referans çizgileri -->
  <line x1="60" y1="236.0" x2="760" y2="236.0" stroke="#ef4444" stroke-width="1" stroke-dasharray="2,2" opacity="0.7"/>
  <text x="745" y="236.0" dominant-baseline="middle" font-size="9" fill="#ef4444">Kritik (30%)</text>
  <line x1="60" y1="180.0" x2="760" y2="180.0" stroke="#eab308" stroke-width="1" stroke-dasharray="2,2" opacity="0.7"/>
  <text x="745" y="180.0" dominant-baseline="middle" font-size="9" fill="#eab308">Normal (50%)</text>

  <!-- Toplam doluluk -->
  <polyline points="60.0,193.2 74.6,192.5 89.2,192.0 103.8,191.6 118.3,191.1 132.9,190.8 147.5,190.4 162.1,190.1 176.7,189.6 191.2,188.8 205.8,187.8 220.4,187.0 235.0,186.2 249.6,185.6 264.2,185.0 278.8,184.3 293.3,183.6 307.9,183.2 322.5,182.9 337.1,182.7 351.7,182.7 366.2,182.4 380.8,182.3 395.4,182.3 410.0,182.2 424.6,182.2 439.2,182.2 453.8,182.2 468.3,182.3 482.9,182.4 497.5,182.5 512.1,182.6 526.7,182.7 541.2,182.9 555.8,183.1 570.4,183.2 585.0,183.3 599.6,183.4 614.2,183.5 628.8,183.7 643.3,183.9 657.9,184.2 672.5,184.4 687.1,184.7 701.7,185.0 716.2,185.3 730.8,185.6 745.4,186.0 760.0,186.3" fill="none" stroke="#22c55e" stroke-width="2.5" stroke-linecap="round" stroke-linejoin="round"/>
  <polyline points="60.0,193.2 74.6,192.5 89.2,192.0 103.8,191.6 118.3,191.1 132.9,190.8 147.5,190.4 162.1,190.1 176.7,189.6 191.2,188.8 205.8,187.8 220.4,187.0 235.0,186.2 249.6,185.6 264.2,185.0 278.8,184.3 293.3,183.6 307.9,183.2 322.5,182.9 337.1,182.7 351.7,182.7 366.2,182.4 380.8,182.3 395.4,182.3 410.0,182.2 424.6,182.2 439.2,182.2 453.8,182.2 468.3,182.3 482.9,182.4 497.5,182.5 512.1,182.6 526.7,182.7 541.2,182.9 555.8,183.1 570.4,183.2 585.0,183.3 599.6,183.4 614.2,183.5 628.8,183.7 643.3,183.9 657.9,184.2 672.5,184.4 687.1,184.7 701.7,185.0 716.2,185.3 730.8,185.6 745.4,186.0 760.0,186.3" fill="none" stroke="#22c55e" stroke-width="5" opacity="0.1" stroke-linecap="round" stroke-linejoin="round"/>

  <!-- Aktif doluluk -->
  <polyline points="60.0,211.1 74.6,210.2 89.2,209.7 103.8,209.2 118.3,208.7 132.9,208.3 147.5,207.9 162.1,207.5 176.7,207.0 191.2,206.2 205.8,205.0 220.4,204.1 235.0,203.2 249.6,202.5 264.2,201.9 278.8,201.0 293.3,200.3 307.9,199.9 322.5,199.6 337.1,199.4 351.7,199.3 366.2,199.0 380.8,198.9 395.4,198.9 410.0,198.7 424.6,198.7 439.2,198.8 453.8,198.8 468.3,198.8 482.9,198.9 497.5,199.0 512.1,199.2 526.7,199.4 541.2,199.5 555.8,199.7 570.4,199.8 585.0,200.0 599.6,200.1 614.2,200.2 628.8,200.4 643.3,200.7 657.9,201.0 672.5,201.3 687.1,201.6 701.7,201.8 716.2,202.2 730.8,202.6 745.4,203.0 760.0,203.3" fill="none" stroke="#3b82f6" stroke-width="2.5" stroke-linecap="round" stroke-linejoin="round"/>
  <polyline points="60.0,211.1 74.6,210.2 89.2,209.7 103.8,209.2 118.3,208.7 132.9,208.3 147.5,207.9 162.1,207.5 176.7,207.0 191.2,206.2 205.8,205.0 220.4,204.1 235.0,203.2 249.6,202.5 264.2,201.9 278.8,201.0 293.3,200.3 307.9,199.9 322.5,199.6 337.1,199.4 351.7,199.3 366.2,199.0 380.8,198.9 395.4,198.9 410.0,198.7 424.6,198.7 439.2,198.8 453.8,198.8 468.3,198.8 482.9,198.9 497.5,199.0 512.1,199.2 526.7,199.4 541.2,199.5 555.8,199.7 570.4,199.8 585.0,200.0 599.6,200.1 614.2,200.2 628.8,200.4 643.3,200.7 657.9,201.0 672.5,201.3 687.1,201.6 701.7,201.8 716.2,202.2 730.8,202.6 745.4,203.0 760.0,203.3" fill="none" stroke="#3b82f6" stroke-width="5" opacity="0.1" stroke-linecap="round" stroke-linejoin="round"/>

  <!-- Noktalar -->
  <circle cx="60.0" cy="193.2" r="3" fill="#22c55e"/><circle cx="74.6" cy="192.5" r="3" fill="#22c55e"/><circle cx="89.2" cy="192.0" r="3" fill="#22c55e"/><circle cx="103.8" cy="191.6" r="3" fill="#22c55e"/><circle cx="118.3" cy="191.1" r="3" fill="#22c55e"/><circle cx="132.9" cy="190.8" r="3" fill="#22c55e"/><circle cx="147.5" cy="190.4" r="3" fill="#22c55e"/><circle cx="162.1" cy="190.1" r="3" fill="#22c55e"/><circle cx="176.7" cy="189.6" r="3" fill="#22c55e"/><circle cx="191.2" cy="188.8" r="3" fill="#22c55e"/><circle cx="205.8" cy="187.8" r="3" fill="#22c55e"/><circle cx="220.4" cy="187.0" r="3" fill="#22c55e"/><circle cx="235.0" cy="186.2" r="3" fill="#22c55e"/><circle cx="249.6" cy="185.6" r="3" fill="#22c55e"/><circle cx="264.2" cy="185.0" r="3" fill="#22c55e"/><circle cx="278.8" cy="184.3" r="3" fill="#22c55e"/><circle cx="293.3" cy="183.6" r="3" fill="#22c55e"/><circle cx="307.9" cy="183.2" r="3" fill="#22c55e"/><circle cx="322.5" cy="182.9" r="3" fill="#22c55e"/><circle cx="337.1" cy="182.7" r="3" fill="#22c55e"/><circle cx="351.7" cy="182.7" r="3" fill="#22c55e"/><circle cx="366.2" cy="182.4" r="3" fill="#22c55e"/><circle cx="380.8" cy="182.3" r="3" fill="#22c55e"/><circle cx="395.4" cy="182.3" r="3" fill="#22c55e"/><circle cx="410.0" cy="182.2" r="3" fill="#22c55e"/><circle cx="424.6" cy="182.2" r="3" fill="#22c55e"/><circle cx="439.2" cy="182.2" r="3" fill="#22c55e"/><circle cx="453.8" cy="182.2" r="3" fill="#22c55e"/><circle cx="468.3" cy="182.3" r="3" fill="#22c55e"/><circle cx="482.9" cy="182.4" r="3" fill="#22c55e"/><circle cx="497.5" cy="182.5" r="3" fill="#22c55e"/><circle cx="512.1" cy="182.6" r="3" fill="#22c55e"/><circle cx="526.7" cy="182.7" r="3" fill="#22c55e"/><circle cx="541.2" cy="182.9" r="3" fill="#22c55e"/><circle cx="555.8" cy="183.1" r="3" fill="#22c55e"/><circle cx="570.4" cy="183.2" r="3" fill="#22c55e"/><circle cx="585.0" cy="183.3" r="3" fill="#22c55e"/><circle cx="599.6" cy="183.4" r="3" fill="#22c55e"/><circle cx="614.2" cy="183.5" r="3" fill="#22c55e"/><circle cx="628.8" cy="183.7" r="3" fill="#22c55e"/><circle cx="643.3" cy="183.9" r="3" fill="#22c55e"/><circle cx="657.9" cy="184.2" r="3" fill="#22c55e"/><circle cx="672.5" cy="184.4" r="3" fill="#22c55e"/><circle cx="687.1" cy="184.7" r="3" fill="#22c55e"/><circle cx="701.7" cy="185.0" r="3" fill="#22c55e"/><circle cx="716.2" cy="185.3" r="3" fill="#22c55e"/><circle cx="730.8" cy="185.6" r="3" fill="#22c55e"/><circle cx="745.4" cy="186.0" r="3" fill="#22c55e"/><circle cx="760.0" cy="186.3" r="3" fill="#22c55e"/>
  <circle cx="60.0" cy="211.1" r="3" fill="#3b82f6"/><circle cx="74.6" cy="210.2" r="3" fill="#3b82f6"/><circle cx="89.2" cy="209.7" r="3" fill="#3b82f6"/><circle cx="103.8" cy="209.2" r="3" fill="#3b82f6"/><circle cx="118.3" cy="208.7" r="3" fill="#3b82f6"/><circle cx="132.9" cy="208.3" r="3" fill="#3b82f6"/><circle cx="147.5" cy="207.9" r="3" fill="#3b82f6"/><circle cx="162.1" cy="207.5" r="3" fill="#3b82f6"/><circle cx="176.7" cy="207.0" r="3" fill="#3b82f6"/><circle cx="191.2" cy="206.2" r="3" fill="#3b82f6"/><circle cx="205.8" cy="205.0" r="3" fill="#3b82f6"/><circle cx="220.4" cy="204.1" r="3" fill="#3b82f6"/><circle cx="235.0" cy="203.2" r="3" fill="#3b82f6"/><circle cx="249.6" cy="202.5" r="3" fill="#3b82f6"/><circle cx="264.2" cy="201.9" r="3" fill="#3b82f6"/><circle cx="278.8" cy="201.0" r="3" fill="#3b82f6"/><circle cx="293.3" cy="200.3" r="3" fill="#3b82f6"/><circle cx="307.9" cy="199.9" r="3" fill="#3b82f6"/><circle cx="322.5" cy="199.6" r="3" fill="#3b82f6"/><circle cx="337.1" cy="199.4" r="3" fill="#3b82f6"/><circle cx="351.7" cy="199.3" r="3" fill="#3b82f6"/><circle cx="366.2" cy="199.0" r="3" fill="#3b82f6"/><circle cx="380.8" cy="198.9" r="3" fill="#3b82f6"/><circle cx="395.4" cy="198.9" r="3" fill="#3b82f6"/><circle cx="410.0" cy="198.7" r="3" fill="#3b82f6"/><circle cx="424.6" cy="198.7" r="3" fill="#3b82f6"/><circle cx="439.2" cy="198.8" r="3" fill="#3b82f6"/><circle cx="453.8" cy="198.8" r="3" fill="#3b82f6"/><circle cx="468.3" cy="198.8" r="3" fill="#3b82f6"/><circle cx="482.9" cy="198.9" r="3" fill="#3b82f6"/><circle cx="497.5" cy="199.0" r="3" fill="#3b82f6"/><circle cx="512.1" cy="199.2" r="3" fill="#3b82f6"/><circle cx="526.7" cy="199.4" r="3" fill="#3b82f6"/><circle cx="541.2" cy="199.5" r="3" fill="#3b82f6"/><circle cx="555.8" cy="199.7" r="3" fill="#3b82f6"/><circle cx="570.4" cy="199.8" r="3" fill="#3b82f6"/><circle cx="585.0" cy="200.0" r="3" fill="#3b82f6"/><circle cx="599.6" cy="200.1" r="3" fill="#3b82f6"/><circle cx="614.2" cy="200.2" r="3" fill="#3b82f6"/><circle cx="628.8" cy="200.4" r="3" fill="#3b82f6"/><circle cx="643.3" cy="200.7" r="3" fill="#3b82f6"/><circle cx="657.9" cy="201.0" r="3" fill="#3b82f6"/><circle cx="672.5" cy="201.3" r="3" fill="#3b82f6"/><circle cx="687.1" cy="201.6" r="3" fill="#3b82f6"/><circle cx="701.7" cy="201.8" r="3" fill="#3b82f6"/><circle cx="716.2" cy="202.2" r="3" fill="#3b82f6"/><circle cx="730.8" cy="202.6" r="3" fill="#3b82f6"/><circle cx="745.4" cy="203.0" r="3" fill="#3b82f6"/><circle cx="760.0" cy="203.3" r="3" fill="#3b82f6"/>

  <!-- X ekseni -->
  <text x="60.0" y="380" text-anchor="middle" font-size="10" fill="#888">14.05.2026</text>
  <text x="176.7" y="380" text-anchor="middle" font-size="10" fill="#888">22.05.2026</text>
  <text x="293.3" y="380" text-anchor="middle" font-size="10" fill="#888">30.05.2026</text>
  <text x="410.0" y="380" text-anchor="middle" font-size="10" fill="#888">07.06.2026</text>
  <text x="526.7" y="380" text-anchor="middle" font-size="10" fill="#888">15.06.2026</text>
  <text x="643.3" y="380" text-anchor="middle" font-size="10" fill="#888">23.06.2026</text>
  <text x="760.0" y="380" text-anchor="middle" font-size="10" fill="#888">01.07.2026</text>

  <!-- Legend -->
  <g transform="translate(60, 345)">
    <rect x="0" y="0" width="12" height="12" fill="#22c55e" rx="2"/>
    <text x="18" y="10" font-size="11" fill="#c9d1d9">Toplam Doluluk</text>
    <rect x="140" y="0" width="12" height="12" fill="#3b82f6" rx="2"/>
    <text x="158" y="10" font-size="11" fill="#c9d1d9">Aktif Doluluk</text>
  </g>
</svg>