<svg xmlns="http://www.w3.org/2000/svg" viewBox="0 0 900 400" width="100%" style="max-width:900px;">
  <rect width="900" height="400" fill="#0d1117" rx="6"/>
  <text x="450.0" y="25" text-anchor="middle" font-size="16" font-weight="bold" fill="#c9d1d9">Son 180 Gün - Günlük Ortalama</text>

  <!-- Y grid -->
  <line x1="60" y1="320.0" x2="860" y2="320.0" stroke="#333" stroke-width="1" stroke-dasharray="4,4" opacity="0.5"/>
  <text x="50" y="320.0" text-anchor="end" dominant-baseline="middle" font-size="10" fill="#888">0%</text>
  <line x1="60" y1="264.0" x2="860" y2="264.0" stroke="#333" stroke-width="1" stroke-dasharray="4,4" opacity="0.5"/>
  <text x="50" y="264.0" text-anchor="end" dominant-baseline="middle" font-size="10" fill="#888">20%</text>
  <line x1="60" y1="208.0" x2="860" y2="208.0" stroke="#333" stroke-width="1" stroke-dasharray="4,4" opacity="0.5"/>
  <text x="50" y="208.0" text-anchor="end" dominant-baseline="middle" font-size="10" fill="#888">40%</text>
  <line x1="60" y1="152.0" x2="860" y2="152.0" stroke="#333" stroke-width="1" stroke-dasharray="4,4" opacity="0.5"/>
  <text x="50" y="152.0" text-anchor="end" dominant-baseline="middle" font-size="10" fill="#888">60%</text>
  <line x1="60" y1="96.0" x2="860" y2="96.0" stroke="#333" stroke-width="1" stroke-dasharray="4,4" opacity="0.5"/>
  <text x="50" y="96.0" text-anchor="end" dominant-baseline="middle" font-size="10" fill="#888">80%</text>
  <line x1="60" y1="40.0" x2="860" y2="40.0" stroke="#333" stroke-width="1" stroke-dasharray="4,4" opacity="0.5"/>
  <text x="50" y="40.0" text-anchor="end" dominant-baseline="middle" font-size="10" fill="#888">100%</text>

  <!-- Referans çizgileri -->
  <line x1="60" y1="236.0" x2="860" y2="236.0" stroke="#ef4444" stroke-width="1" stroke-dasharray="2,2" opacity="0.7"/>
  <text x="845" y="236.0" dominant-baseline="middle" font-size="9" fill="#ef4444">Kritik (30%)</text>
  <line x1="60" y1="180.0" x2="860" y2="180.0" stroke="#eab308" stroke-width="1" stroke-dasharray="2,2" opacity="0.7"/>
  <text x="845" y="180.0" dominant-baseline="middle" font-size="9" fill="#eab308">Normal (50%)</text>

  <!-- Toplam doluluk -->
  <polyline points="60.0,193.2 76.7,192.5 93.3,192.0 110.0,191.6 126.7,191.1 143.3,190.8 160.0,190.4 176.7,190.1 193.3,189.6 210.0,188.8 226.7,187.8 243.3,187.0 260.0,186.2 276.7,185.6 293.3,185.0 310.0,184.3 326.7,183.6 343.3,183.2 360.0,182.9 376.7,182.7 393.3,182.7 410.0,182.4 426.7,182.3 443.3,182.3 460.0,182.2 476.7,182.2 493.3,182.2 510.0,182.2 526.7,182.3 543.3,182.4 560.0,182.5 576.7,182.6 593.3,182.7 610.0,182.9 626.7,183.1 643.3,183.2 660.0,183.3 676.7,183.4 693.3,183.5 710.0,183.7 726.7,183.9 743.3,184.2 760.0,184.4 776.7,184.7 793.3,185.0 810.0,185.3 826.7,185.6 843.3,186.0 860.0,186.3" fill="none" stroke="#22c55e" stroke-width="2.5" stroke-linecap="round" stroke-linejoin="round"/>
  <polyline points="60.0,193.2 76.7,192.5 93.3,192.0 110.0,191.6 126.7,191.1 143.3,190.8 160.0,190.4 176.7,190.1 193.3,189.6 210.0,188.8 226.7,187.8 243.3,187.0 260.0,186.2 276.7,185.6 293.3,185.0 310.0,184.3 326.7,183.6 343.3,183.2 360.0,182.9 376.7,182.7 393.3,182.7 410.0,182.4 426.7,182.3 443.3,182.3 460.0,182.2 476.7,182.2 493.3,182.2 510.0,182.2 526.7,182.3 543.3,182.4 560.0,182.5 576.7,182.6 593.3,182.7 610.0,182.9 626.7,183.1 643.3,183.2 660.0,183.3 676.7,183.4 693.3,183.5 710.0,183.7 726.7,183.9 743.3,184.2 760.0,184.4 776.7,184.7 793.3,185.0 810.0,185.3 826.7,185.6 843.3,186.0 860.0,186.3" fill="none" stroke="#22c55e" stroke-width="5" opacity="0.1" stroke-linecap="round" stroke-linejoin="round"/>

  <!-- Aktif doluluk -->
  <polyline points="60.0,211.1 76.7,210.2 93.3,209.7 110.0,209.2 126.7,208.7 143.3,208.3 160.0,207.9 176.7,207.5 193.3,207.0 210.0,206.2 226.7,205.0 243.3,204.1 260.0,203.2 276.7,202.5 293.3,201.9 310.0,201.0 326.7,200.3 343.3,199.9 360.0,199.6 376.7,199.4 393.3,199.3 410.0,199.0 426.7,198.9 443.3,198.9 460.0,198.7 476.7,198.7 493.3,198.8 510.0,198.8 526.7,198.8 543.3,198.9 560.0,199.0 576.7,199.2 593.3,199.4 610.0,199.5 626.7,199.7 643.3,199.8 660.0,200.0 676.7,200.1 693.3,200.2 710.0,200.4 726.7,200.7 743.3,201.0 760.0,201.3 776.7,201.6 793.3,201.8 810.0,202.2 826.7,202.6 843.3,203.0 860.0,203.3" fill="none" stroke="#3b82f6" stroke-width="2.5" stroke-linecap="round" stroke-linejoin="round"/>
  <polyline points="60.0,211.1 76.7,210.2 93.3,209.7 110.0,209.2 126.7,208.7 143.3,208.3 160.0,207.9 176.7,207.5 193.3,207.0 210.0,206.2 226.7,205.0 243.3,204.1 260.0,203.2 276.7,202.5 293.3,201.9 310.0,201.0 326.7,200.3 343.3,199.9 360.0,199.6 376.7,199.4 393.3,199.3 410.0,199.0 426.7,198.9 443.3,198.9 460.0,198.7 476.7,198.7 493.3,198.8 510.0,198.8 526.7,198.8 543.3,198.9 560.0,199.0 576.7,199.2 593.3,199.4 610.0,199.5 626.7,199.7 643.3,199.8 660.0,200.0 676.7,200.1 693.3,200.2 710.0,200.4 726.7,200.7 743.3,201.0 760.0,201.3 776.7,201.6 793.3,201.8 810.0,202.2 826.7,202.6 843.3,203.0 860.0,203.3" fill="none" stroke="#3b82f6" stroke-width="5" opacity="0.1" stroke-linecap="round" stroke-linejoin="round"/>

  <!-- Noktalar -->
  <circle cx="60.0" cy="193.2" r="3" fill="#22c55e"/><circle cx="76.7" cy="192.5" r="3" fill="#22c55e"/><circle cx="93.3" cy="192.0" r="3" fill="#22c55e"/><circle cx="110.0" cy="191.6" r="3" fill="#22c55e"/><circle cx="126.7" cy="191.1" r="3" fill="#22c55e"/><circle cx="143.3" cy="190.8" r="3" fill="#22c55e"/><circle cx="160.0" cy="190.4" r="3" fill="#22c55e"/><circle cx="176.7" cy="190.1" r="3" fill="#22c55e"/><circle cx="193.3" cy="189.6" r="3" fill="#22c55e"/><circle cx="210.0" cy="188.8" r="3" fill="#22c55e"/><circle cx="226.7" cy="187.8" r="3" fill="#22c55e"/><circle cx="243.3" cy="187.0" r="3" fill="#22c55e"/><circle cx="260.0" cy="186.2" r="3" fill="#22c55e"/><circle cx="276.7" cy="185.6" r="3" fill="#22c55e"/><circle cx="293.3" cy="185.0" r="3" fill="#22c55e"/><circle cx="310.0" cy="184.3" r="3" fill="#22c55e"/><circle cx="326.7" cy="183.6" r="3" fill="#22c55e"/><circle cx="343.3" cy="183.2" r="3" fill="#22c55e"/><circle cx="360.0" cy="182.9" r="3" fill="#22c55e"/><circle cx="376.7" cy="182.7" r="3" fill="#22c55e"/><circle cx="393.3" cy="182.7" r="3" fill="#22c55e"/><circle cx="410.0" cy="182.4" r="3" fill="#22c55e"/><circle cx="426.7" cy="182.3" r="3" fill="#22c55e"/><circle cx="443.3" cy="182.3" r="3" fill="#22c55e"/><circle cx="460.0" cy="182.2" r="3" fill="#22c55e"/><circle cx="476.7" cy="182.2" r="3" fill="#22c55e"/><circle cx="493.3" cy="182.2" r="3" fill="#22c55e"/><circle cx="510.0" cy="182.2" r="3" fill="#22c55e"/><circle cx="526.7" cy="182.3" r="3" fill="#22c55e"/><circle cx="543.3" cy="182.4" r="3" fill="#22c55e"/><circle cx="560.0" cy="182.5" r="3" fill="#22c55e"/><circle cx="576.7" cy="182.6" r="3" fill="#22c55e"/><circle cx="593.3" cy="182.7" r="3" fill="#22c55e"/><circle cx="610.0" cy="182.9" r="3" fill="#22c55e"/><circle cx="626.7" cy="183.1" r="3" fill="#22c55e"/><circle cx="643.3" cy="183.2" r="3" fill="#22c55e"/><circle cx="660.0" cy="183.3" r="3" fill="#22c55e"/><circle cx="676.7" cy="183.4" r="3" fill="#22c55e"/><circle cx="693.3" cy="183.5" r="3" fill="#22c55e"/><circle cx="710.0" cy="183.7" r="3" fill="#22c55e"/><circle cx="726.7" cy="183.9" r="3" fill="#22c55e"/><circle cx="743.3" cy="184.2" r="3" fill="#22c55e"/><circle cx="760.0" cy="184.4" r="3" fill="#22c55e"/><circle cx="776.7" cy="184.7" r="3" fill="#22c55e"/><circle cx="793.3" cy="185.0" r="3" fill="#22c55e"/><circle cx="810.0" cy="185.3" r="3" fill="#22c55e"/><circle cx="826.7" cy="185.6" r="3" fill="#22c55e"/><circle cx="843.3" cy="186.0" r="3" fill="#22c55e"/><circle cx="860.0" cy="186.3" r="3" fill="#22c55e"/>
  <circle cx="60.0" cy="211.1" r="3" fill="#3b82f6"/><circle cx="76.7" cy="210.2" r="3" fill="#3b82f6"/><circle cx="93.3" cy="209.7" r="3" fill="#3b82f6"/><circle cx="110.0" cy="209.2" r="3" fill="#3b82f6"/><circle cx="126.7" cy="208.7" r="3" fill="#3b82f6"/><circle cx="143.3" cy="208.3" r="3" fill="#3b82f6"/><circle cx="160.0" cy="207.9" r="3" fill="#3b82f6"/><circle cx="176.7" cy="207.5" r="3" fill="#3b82f6"/><circle cx="193.3" cy="207.0" r="3" fill="#3b82f6"/><circle cx="210.0" cy="206.2" r="3" fill="#3b82f6"/><circle cx="226.7" cy="205.0" r="3" fill="#3b82f6"/><circle cx="243.3" cy="204.1" r="3" fill="#3b82f6"/><circle cx="260.0" cy="203.2" r="3" fill="#3b82f6"/><circle cx="276.7" cy="202.5" r="3" fill="#3b82f6"/><circle cx="293.3" cy="201.9" r="3" fill="#3b82f6"/><circle cx="310.0" cy="201.0" r="3" fill="#3b82f6"/><circle cx="326.7" cy="200.3" r="3" fill="#3b82f6"/><circle cx="343.3" cy="199.9" r="3" fill="#3b82f6"/><circle cx="360.0" cy="199.6" r="3" fill="#3b82f6"/><circle cx="376.7" cy="199.4" r="3" fill="#3b82f6"/><circle cx="393.3" cy="199.3" r="3" fill="#3b82f6"/><circle cx="410.0" cy="199.0" r="3" fill="#3b82f6"/><circle cx="426.7" cy="198.9" r="3" fill="#3b82f6"/><circle cx="443.3" cy="198.9" r="3" fill="#3b82f6"/><circle cx="460.0" cy="198.7" r="3" fill="#3b82f6"/><circle cx="476.7" cy="198.7" r="3" fill="#3b82f6"/><circle cx="493.3" cy="198.8" r="3" fill="#3b82f6"/><circle cx="510.0" cy="198.8" r="3" fill="#3b82f6"/><circle cx="526.7" cy="198.8" r="3" fill="#3b82f6"/><circle cx="543.3" cy="198.9" r="3" fill="#3b82f6"/><circle cx="560.0" cy="199.0" r="3" fill="#3b82f6"/><circle cx="576.7" cy="199.2" r="3" fill="#3b82f6"/><circle cx="593.3" cy="199.4" r="3" fill="#3b82f6"/><circle cx="610.0" cy="199.5" r="3" fill="#3b82f6"/><circle cx="626.7" cy="199.7" r="3" fill="#3b82f6"/><circle cx="643.3" cy="199.8" r="3" fill="#3b82f6"/><circle cx="660.0" cy="200.0" r="3" fill="#3b82f6"/><circle cx="676.7" cy="200.1" r="3" fill="#3b82f6"/><circle cx="693.3" cy="200.2" r="3" fill="#3b82f6"/><circle cx="710.0" cy="200.4" r="3" fill="#3b82f6"/><circle cx="726.7" cy="200.7" r="3" fill="#3b82f6"/><circle cx="743.3" cy="201.0" r="3" fill="#3b82f6"/><circle cx="760.0" cy="201.3" r="3" fill="#3b82f6"/><circle cx="776.7" cy="201.6" r="3" fill="#3b82f6"/><circle cx="793.3" cy="201.8" r="3" fill="#3b82f6"/><circle cx="810.0" cy="202.2" r="3" fill="#3b82f6"/><circle cx="826.7" cy="202.6" r="3" fill="#3b82f6"/><circle cx="843.3" cy="203.0" r="3" fill="#3b82f6"/><circle cx="860.0" cy="203.3" r="3" fill="#3b82f6"/>

  <!-- X ekseni -->
  <text x="60.0" y="380" text-anchor="middle" font-size="10" fill="#888">14.05.2026</text>
  <text x="193.3" y="380" text-anchor="middle" font-size="10" fill="#888">22.05.2026</text>
  <text x="326.7" y="380" text-anchor="middle" font-size="10" fill="#888">30.05.2026</text>
  <text x="460.0" y="380" text-anchor="middle" font-size="10" fill="#888">07.06.2026</text>
  <text x="593.3" y="380" text-anchor="middle" font-size="10" fill="#888">15.06.2026</text>
  <text x="726.7" y="380" text-anchor="middle" font-size="10" fill="#888">23.06.2026</text>
  <text x="860.0" y="380" text-anchor="middle" font-size="10" fill="#888">01.07.2026</text>

  <!-- Legend -->
  <g transform="translate(60, 345)">
    <rect x="0" y="0" width="12" height="12" fill="#22c55e" rx="2"/>
    <text x="18" y="10" font-size="11" fill="#c9d1d9">Toplam Doluluk</text>
    <rect x="140" y="0" width="12" height="12" fill="#3b82f6" rx="2"/>
    <text x="158" y="10" font-size="11" fill="#c9d1d9">Aktif Doluluk</text>
  </g>
</svg>