<svg xmlns="http://www.w3.org/2000/svg" viewBox="0 0 800 400" width="100%" style="max-width:800px;">
  <rect width="800" height="400" fill="#0d1117" rx="6"/>
  <text x="400.0" y="25" text-anchor="middle" font-size="16" font-weight="bold" fill="#c9d1d9">Son 90 Gün - Günlük Ortalama</text>

  <!-- Y grid -->
  <line x1="60" y1="320.0" x2="760" y2="320.0" stroke="#333" stroke-width="1" stroke-dasharray="4,4" opacity="0.5"/>
  <text x="50" y="320.0" text-anchor="end" dominant-baseline="middle" font-size="10" fill="#888">0%</text>
  <line x1="60" y1="264.0" x2="760" y2="264.0" stroke="#333" stroke-width="1" stroke-dasharray="4,4" opacity="0.5"/>
  <text x="50" y="264.0" text-anchor="end" dominant-baseline="middle" font-size="10" fill="#888">20%</text>
  <line x1="60" y1="208.0" x2="760" y2="208.0" stroke="#333" stroke-width="1" stroke-dasharray="4,4" opacity="0.5"/>
  <text x="50" y="208.0" text-anchor="end" dominant-baseline="middle" font-size="10" fill="#888">40%</text>
  <line x1="60" y1="152.0" x2="760" y2="152.0" stroke="#333" stroke-width="1" stroke-dasharray="4,4" opacity="0.5"/>
  <text x="50" y="152.0" text-anchor="end" dominant-baseline="middle" font-size="10" fill="#888">60%</text>
  <line x1="60" y1="96.0" x2="760" y2="96.0" stroke="#333" stroke-width="1" stroke-dasharray="4,4" opacity="0.5"/>
  <text x="50" y="96.0" text-anchor="end" dominant-baseline="middle" font-size="10" fill="#888">80%</text>
  <line x1="60" y1="40.0" x2="760" y2="40.0" stroke="#333" stroke-width="1" stroke-dasharray="4,4" opacity="0.5"/>
  <text x="50" y="40.0" text-anchor="end" dominant-baseline="middle" font-size="10" fill="#888">100%</text>

  <!-- Referans çizgileri -->
  <line x1="60" y1="236.0" x2="760" y2="236.0" stroke="#ef4444" stroke-width="1" stroke-dasharray="2,2" opacity="0.7"/>
  <text x="745" y="236.0" dominant-baseline="middle" font-size="9" fill="#ef4444">Kritik (30%)</text>
  <line x1="60" y1="180.0" x2="760" y2="180.0" stroke="#eab308" stroke-width="1" stroke-dasharray="2,2" opacity="0.7"/>
  <text x="745" y="180.0" dominant-baseline="middle" font-size="9" fill="#eab308">Normal (50%)</text>

  <!-- Toplam doluluk -->
  <polyline points="60.0,193.2 77.1,192.5 94.1,192.0 111.2,191.6 128.3,191.1 145.4,190.8 162.4,190.4 179.5,190.1 196.6,189.6 213.7,188.8 230.7,187.8 247.8,187.0 264.9,186.2 282.0,185.6 299.0,185.0 316.1,184.3 333.2,183.6 350.2,183.2 367.3,182.9 384.4,182.7 401.5,182.7 418.5,182.4 435.6,182.3 452.7,182.3 469.8,182.2 486.8,182.2 503.9,182.2 521.0,182.2 538.0,182.3 555.1,182.4 572.2,182.5 589.3,182.6 606.3,182.7 623.4,182.9 640.5,183.1 657.6,183.2 674.6,183.3 691.7,183.4 708.8,183.5 725.9,183.7 742.9,183.9 760.0,184.2" fill="none" stroke="#22c55e" stroke-width="2.5" stroke-linecap="round" stroke-linejoin="round"/>
  <polyline points="60.0,193.2 77.1,192.5 94.1,192.0 111.2,191.6 128.3,191.1 145.4,190.8 162.4,190.4 179.5,190.1 196.6,189.6 213.7,188.8 230.7,187.8 247.8,187.0 264.9,186.2 282.0,185.6 299.0,185.0 316.1,184.3 333.2,183.6 350.2,183.2 367.3,182.9 384.4,182.7 401.5,182.7 418.5,182.4 435.6,182.3 452.7,182.3 469.8,182.2 486.8,182.2 503.9,182.2 521.0,182.2 538.0,182.3 555.1,182.4 572.2,182.5 589.3,182.6 606.3,182.7 623.4,182.9 640.5,183.1 657.6,183.2 674.6,183.3 691.7,183.4 708.8,183.5 725.9,183.7 742.9,183.9 760.0,184.2" fill="none" stroke="#22c55e" stroke-width="5" opacity="0.1" stroke-linecap="round" stroke-linejoin="round"/>

  <!-- Aktif doluluk -->
  <polyline points="60.0,211.1 77.1,210.2 94.1,209.7 111.2,209.2 128.3,208.7 145.4,208.3 162.4,207.9 179.5,207.5 196.6,207.0 213.7,206.2 230.7,205.0 247.8,204.1 264.9,203.2 282.0,202.5 299.0,201.9 316.1,201.0 333.2,200.3 350.2,199.9 367.3,199.6 384.4,199.4 401.5,199.3 418.5,199.0 435.6,198.9 452.7,198.9 469.8,198.7 486.8,198.7 503.9,198.8 521.0,198.8 538.0,198.8 555.1,198.9 572.2,199.0 589.3,199.2 606.3,199.4 623.4,199.5 640.5,199.7 657.6,199.8 674.6,200.0 691.7,200.1 708.8,200.2 725.9,200.4 742.9,200.7 760.0,201.0" fill="none" stroke="#3b82f6" stroke-width="2.5" stroke-linecap="round" stroke-linejoin="round"/>
  <polyline points="60.0,211.1 77.1,210.2 94.1,209.7 111.2,209.2 128.3,208.7 145.4,208.3 162.4,207.9 179.5,207.5 196.6,207.0 213.7,206.2 230.7,205.0 247.8,204.1 264.9,203.2 282.0,202.5 299.0,201.9 316.1,201.0 333.2,200.3 350.2,199.9 367.3,199.6 384.4,199.4 401.5,199.3 418.5,199.0 435.6,198.9 452.7,198.9 469.8,198.7 486.8,198.7 503.9,198.8 521.0,198.8 538.0,198.8 555.1,198.9 572.2,199.0 589.3,199.2 606.3,199.4 623.4,199.5 640.5,199.7 657.6,199.8 674.6,200.0 691.7,200.1 708.8,200.2 725.9,200.4 742.9,200.7 760.0,201.0" fill="none" stroke="#3b82f6" stroke-width="5" opacity="0.1" stroke-linecap="round" stroke-linejoin="round"/>

  <!-- Noktalar -->
  <circle cx="60.0" cy="193.2" r="3" fill="#22c55e"/><circle cx="77.1" cy="192.5" r="3" fill="#22c55e"/><circle cx="94.1" cy="192.0" r="3" fill="#22c55e"/><circle cx="111.2" cy="191.6" r="3" fill="#22c55e"/><circle cx="128.3" cy="191.1" r="3" fill="#22c55e"/><circle cx="145.4" cy="190.8" r="3" fill="#22c55e"/><circle cx="162.4" cy="190.4" r="3" fill="#22c55e"/><circle cx="179.5" cy="190.1" r="3" fill="#22c55e"/><circle cx="196.6" cy="189.6" r="3" fill="#22c55e"/><circle cx="213.7" cy="188.8" r="3" fill="#22c55e"/><circle cx="230.7" cy="187.8" r="3" fill="#22c55e"/><circle cx="247.8" cy="187.0" r="3" fill="#22c55e"/><circle cx="264.9" cy="186.2" r="3" fill="#22c55e"/><circle cx="282.0" cy="185.6" r="3" fill="#22c55e"/><circle cx="299.0" cy="185.0" r="3" fill="#22c55e"/><circle cx="316.1" cy="184.3" r="3" fill="#22c55e"/><circle cx="333.2" cy="183.6" r="3" fill="#22c55e"/><circle cx="350.2" cy="183.2" r="3" fill="#22c55e"/><circle cx="367.3" cy="182.9" r="3" fill="#22c55e"/><circle cx="384.4" cy="182.7" r="3" fill="#22c55e"/><circle cx="401.5" cy="182.7" r="3" fill="#22c55e"/><circle cx="418.5" cy="182.4" r="3" fill="#22c55e"/><circle cx="435.6" cy="182.3" r="3" fill="#22c55e"/><circle cx="452.7" cy="182.3" r="3" fill="#22c55e"/><circle cx="469.8" cy="182.2" r="3" fill="#22c55e"/><circle cx="486.8" cy="182.2" r="3" fill="#22c55e"/><circle cx="503.9" cy="182.2" r="3" fill="#22c55e"/><circle cx="521.0" cy="182.2" r="3" fill="#22c55e"/><circle cx="538.0" cy="182.3" r="3" fill="#22c55e"/><circle cx="555.1" cy="182.4" r="3" fill="#22c55e"/><circle cx="572.2" cy="182.5" r="3" fill="#22c55e"/><circle cx="589.3" cy="182.6" r="3" fill="#22c55e"/><circle cx="606.3" cy="182.7" r="3" fill="#22c55e"/><circle cx="623.4" cy="182.9" r="3" fill="#22c55e"/><circle cx="640.5" cy="183.1" r="3" fill="#22c55e"/><circle cx="657.6" cy="183.2" r="3" fill="#22c55e"/><circle cx="674.6" cy="183.3" r="3" fill="#22c55e"/><circle cx="691.7" cy="183.4" r="3" fill="#22c55e"/><circle cx="708.8" cy="183.5" r="3" fill="#22c55e"/><circle cx="725.9" cy="183.7" r="3" fill="#22c55e"/><circle cx="742.9" cy="183.9" r="3" fill="#22c55e"/><circle cx="760.0" cy="184.2" r="3" fill="#22c55e"/>
  <circle cx="60.0" cy="211.1" r="3" fill="#3b82f6"/><circle cx="77.1" cy="210.2" r="3" fill="#3b82f6"/><circle cx="94.1" cy="209.7" r="3" fill="#3b82f6"/><circle cx="111.2" cy="209.2" r="3" fill="#3b82f6"/><circle cx="128.3" cy="208.7" r="3" fill="#3b82f6"/><circle cx="145.4" cy="208.3" r="3" fill="#3b82f6"/><circle cx="162.4" cy="207.9" r="3" fill="#3b82f6"/><circle cx="179.5" cy="207.5" r="3" fill="#3b82f6"/><circle cx="196.6" cy="207.0" r="3" fill="#3b82f6"/><circle cx="213.7" cy="206.2" r="3" fill="#3b82f6"/><circle cx="230.7" cy="205.0" r="3" fill="#3b82f6"/><circle cx="247.8" cy="204.1" r="3" fill="#3b82f6"/><circle cx="264.9" cy="203.2" r="3" fill="#3b82f6"/><circle cx="282.0" cy="202.5" r="3" fill="#3b82f6"/><circle cx="299.0" cy="201.9" r="3" fill="#3b82f6"/><circle cx="316.1" cy="201.0" r="3" fill="#3b82f6"/><circle cx="333.2" cy="200.3" r="3" fill="#3b82f6"/><circle cx="350.2" cy="199.9" r="3" fill="#3b82f6"/><circle cx="367.3" cy="199.6" r="3" fill="#3b82f6"/><circle cx="384.4" cy="199.4" r="3" fill="#3b82f6"/><circle cx="401.5" cy="199.3" r="3" fill="#3b82f6"/><circle cx="418.5" cy="199.0" r="3" fill="#3b82f6"/><circle cx="435.6" cy="198.9" r="3" fill="#3b82f6"/><circle cx="452.7" cy="198.9" r="3" fill="#3b82f6"/><circle cx="469.8" cy="198.7" r="3" fill="#3b82f6"/><circle cx="486.8" cy="198.7" r="3" fill="#3b82f6"/><circle cx="503.9" cy="198.8" r="3" fill="#3b82f6"/><circle cx="521.0" cy="198.8" r="3" fill="#3b82f6"/><circle cx="538.0" cy="198.8" r="3" fill="#3b82f6"/><circle cx="555.1" cy="198.9" r="3" fill="#3b82f6"/><circle cx="572.2" cy="199.0" r="3" fill="#3b82f6"/><circle cx="589.3" cy="199.2" r="3" fill="#3b82f6"/><circle cx="606.3" cy="199.4" r="3" fill="#3b82f6"/><circle cx="623.4" cy="199.5" r="3" fill="#3b82f6"/><circle cx="640.5" cy="199.7" r="3" fill="#3b82f6"/><circle cx="657.6" cy="199.8" r="3" fill="#3b82f6"/><circle cx="674.6" cy="200.0" r="3" fill="#3b82f6"/><circle cx="691.7" cy="200.1" r="3" fill="#3b82f6"/><circle cx="708.8" cy="200.2" r="3" fill="#3b82f6"/><circle cx="725.9" cy="200.4" r="3" fill="#3b82f6"/><circle cx="742.9" cy="200.7" r="3" fill="#3b82f6"/><circle cx="760.0" cy="201.0" r="3" fill="#3b82f6"/>

  <!-- X ekseni -->
  <text x="60.0" y="380" text-anchor="middle" font-size="10" fill="#888">14.05.2026</text>
  <text x="179.5" y="380" text-anchor="middle" font-size="10" fill="#888">21.05.2026</text>
  <text x="299.0" y="380" text-anchor="middle" font-size="10" fill="#888">28.05.2026</text>
  <text x="418.5" y="380" text-anchor="middle" font-size="10" fill="#888">04.06.2026</text>
  <text x="538.0" y="380" text-anchor="middle" font-size="10" fill="#888">11.06.2026</text>
  <text x="657.6" y="380" text-anchor="middle" font-size="10" fill="#888">18.06.2026</text>

  <!-- Legend -->
  <g transform="translate(60, 345)">
    <rect x="0" y="0" width="12" height="12" fill="#22c55e" rx="2"/>
    <text x="18" y="10" font-size="11" fill="#c9d1d9">Toplam Doluluk</text>
    <rect x="140" y="0" width="12" height="12" fill="#3b82f6" rx="2"/>
    <text x="158" y="10" font-size="11" fill="#c9d1d9">Aktif Doluluk</text>
  </g>
</svg>