<svg xmlns="http://www.w3.org/2000/svg" viewBox="0 0 900 400" width="100%" style="max-width:900px;">
  <rect width="900" height="400" fill="#0d1117" rx="6"/>
  <text x="450.0" y="25" text-anchor="middle" font-size="16" font-weight="bold" fill="#c9d1d9">Son 180 Gün - Günlük Ortalama</text>

  <!-- Y grid -->
  <line x1="60" y1="320.0" x2="860" y2="320.0" stroke="#333" stroke-width="1" stroke-dasharray="4,4" opacity="0.5"/>
  <text x="50" y="320.0" text-anchor="end" dominant-baseline="middle" font-size="10" fill="#888">0%</text>
  <line x1="60" y1="264.0" x2="860" y2="264.0" stroke="#333" stroke-width="1" stroke-dasharray="4,4" opacity="0.5"/>
  <text x="50" y="264.0" text-anchor="end" dominant-baseline="middle" font-size="10" fill="#888">20%</text>
  <line x1="60" y1="208.0" x2="860" y2="208.0" stroke="#333" stroke-width="1" stroke-dasharray="4,4" opacity="0.5"/>
  <text x="50" y="208.0" text-anchor="end" dominant-baseline="middle" font-size="10" fill="#888">40%</text>
  <line x1="60" y1="152.0" x2="860" y2="152.0" stroke="#333" stroke-width="1" stroke-dasharray="4,4" opacity="0.5"/>
  <text x="50" y="152.0" text-anchor="end" dominant-baseline="middle" font-size="10" fill="#888">60%</text>
  <line x1="60" y1="96.0" x2="860" y2="96.0" stroke="#333" stroke-width="1" stroke-dasharray="4,4" opacity="0.5"/>
  <text x="50" y="96.0" text-anchor="end" dominant-baseline="middle" font-size="10" fill="#888">80%</text>
  <line x1="60" y1="40.0" x2="860" y2="40.0" stroke="#333" stroke-width="1" stroke-dasharray="4,4" opacity="0.5"/>
  <text x="50" y="40.0" text-anchor="end" dominant-baseline="middle" font-size="10" fill="#888">100%</text>

  <!-- Referans çizgileri -->
  <line x1="60" y1="236.0" x2="860" y2="236.0" stroke="#ef4444" stroke-width="1" stroke-dasharray="2,2" opacity="0.7"/>
  <text x="845" y="236.0" dominant-baseline="middle" font-size="9" fill="#ef4444">Kritik (30%)</text>
  <line x1="60" y1="180.0" x2="860" y2="180.0" stroke="#eab308" stroke-width="1" stroke-dasharray="2,2" opacity="0.7"/>
  <text x="845" y="180.0" dominant-baseline="middle" font-size="9" fill="#eab308">Normal (50%)</text>

  <!-- Toplam doluluk -->
  <polyline points="60.0,193.2 85.8,192.5 111.6,192.0 137.4,191.6 163.2,191.1 189.0,190.8 214.8,190.4 240.6,190.1 266.5,189.6 292.3,188.8 318.1,187.8 343.9,187.0 369.7,186.2 395.5,185.6 421.3,185.0 447.1,184.3 472.9,183.6 498.7,183.2 524.5,182.9 550.3,182.7 576.1,182.7 601.9,182.4 627.7,182.3 653.5,182.3 679.4,182.2 705.2,182.2 731.0,182.2 756.8,182.2 782.6,182.3 808.4,182.4 834.2,182.5 860.0,182.6" fill="none" stroke="#22c55e" stroke-width="2.5" stroke-linecap="round" stroke-linejoin="round"/>
  <polyline points="60.0,193.2 85.8,192.5 111.6,192.0 137.4,191.6 163.2,191.1 189.0,190.8 214.8,190.4 240.6,190.1 266.5,189.6 292.3,188.8 318.1,187.8 343.9,187.0 369.7,186.2 395.5,185.6 421.3,185.0 447.1,184.3 472.9,183.6 498.7,183.2 524.5,182.9 550.3,182.7 576.1,182.7 601.9,182.4 627.7,182.3 653.5,182.3 679.4,182.2 705.2,182.2 731.0,182.2 756.8,182.2 782.6,182.3 808.4,182.4 834.2,182.5 860.0,182.6" fill="none" stroke="#22c55e" stroke-width="5" opacity="0.1" stroke-linecap="round" stroke-linejoin="round"/>

  <!-- Aktif doluluk -->
  <polyline points="60.0,211.1 85.8,210.2 111.6,209.7 137.4,209.2 163.2,208.7 189.0,208.3 214.8,207.9 240.6,207.5 266.5,207.0 292.3,206.2 318.1,205.0 343.9,204.1 369.7,203.2 395.5,202.5 421.3,201.9 447.1,201.0 472.9,200.3 498.7,199.9 524.5,199.6 550.3,199.4 576.1,199.3 601.9,199.0 627.7,198.9 653.5,198.9 679.4,198.7 705.2,198.7 731.0,198.8 756.8,198.8 782.6,198.8 808.4,198.9 834.2,199.0 860.0,199.2" fill="none" stroke="#3b82f6" stroke-width="2.5" stroke-linecap="round" stroke-linejoin="round"/>
  <polyline points="60.0,211.1 85.8,210.2 111.6,209.7 137.4,209.2 163.2,208.7 189.0,208.3 214.8,207.9 240.6,207.5 266.5,207.0 292.3,206.2 318.1,205.0 343.9,204.1 369.7,203.2 395.5,202.5 421.3,201.9 447.1,201.0 472.9,200.3 498.7,199.9 524.5,199.6 550.3,199.4 576.1,199.3 601.9,199.0 627.7,198.9 653.5,198.9 679.4,198.7 705.2,198.7 731.0,198.8 756.8,198.8 782.6,198.8 808.4,198.9 834.2,199.0 860.0,199.2" fill="none" stroke="#3b82f6" stroke-width="5" opacity="0.1" stroke-linecap="round" stroke-linejoin="round"/>

  <!-- Noktalar -->
  <circle cx="60.0" cy="193.2" r="3" fill="#22c55e"/><circle cx="85.8" cy="192.5" r="3" fill="#22c55e"/><circle cx="111.6" cy="192.0" r="3" fill="#22c55e"/><circle cx="137.4" cy="191.6" r="3" fill="#22c55e"/><circle cx="163.2" cy="191.1" r="3" fill="#22c55e"/><circle cx="189.0" cy="190.8" r="3" fill="#22c55e"/><circle cx="214.8" cy="190.4" r="3" fill="#22c55e"/><circle cx="240.6" cy="190.1" r="3" fill="#22c55e"/><circle cx="266.5" cy="189.6" r="3" fill="#22c55e"/><circle cx="292.3" cy="188.8" r="3" fill="#22c55e"/><circle cx="318.1" cy="187.8" r="3" fill="#22c55e"/><circle cx="343.9" cy="187.0" r="3" fill="#22c55e"/><circle cx="369.7" cy="186.2" r="3" fill="#22c55e"/><circle cx="395.5" cy="185.6" r="3" fill="#22c55e"/><circle cx="421.3" cy="185.0" r="3" fill="#22c55e"/><circle cx="447.1" cy="184.3" r="3" fill="#22c55e"/><circle cx="472.9" cy="183.6" r="3" fill="#22c55e"/><circle cx="498.7" cy="183.2" r="3" fill="#22c55e"/><circle cx="524.5" cy="182.9" r="3" fill="#22c55e"/><circle cx="550.3" cy="182.7" r="3" fill="#22c55e"/><circle cx="576.1" cy="182.7" r="3" fill="#22c55e"/><circle cx="601.9" cy="182.4" r="3" fill="#22c55e"/><circle cx="627.7" cy="182.3" r="3" fill="#22c55e"/><circle cx="653.5" cy="182.3" r="3" fill="#22c55e"/><circle cx="679.4" cy="182.2" r="3" fill="#22c55e"/><circle cx="705.2" cy="182.2" r="3" fill="#22c55e"/><circle cx="731.0" cy="182.2" r="3" fill="#22c55e"/><circle cx="756.8" cy="182.2" r="3" fill="#22c55e"/><circle cx="782.6" cy="182.3" r="3" fill="#22c55e"/><circle cx="808.4" cy="182.4" r="3" fill="#22c55e"/><circle cx="834.2" cy="182.5" r="3" fill="#22c55e"/><circle cx="860.0" cy="182.6" r="3" fill="#22c55e"/>
  <circle cx="60.0" cy="211.1" r="3" fill="#3b82f6"/><circle cx="85.8" cy="210.2" r="3" fill="#3b82f6"/><circle cx="111.6" cy="209.7" r="3" fill="#3b82f6"/><circle cx="137.4" cy="209.2" r="3" fill="#3b82f6"/><circle cx="163.2" cy="208.7" r="3" fill="#3b82f6"/><circle cx="189.0" cy="208.3" r="3" fill="#3b82f6"/><circle cx="214.8" cy="207.9" r="3" fill="#3b82f6"/><circle cx="240.6" cy="207.5" r="3" fill="#3b82f6"/><circle cx="266.5" cy="207.0" r="3" fill="#3b82f6"/><circle cx="292.3" cy="206.2" r="3" fill="#3b82f6"/><circle cx="318.1" cy="205.0" r="3" fill="#3b82f6"/><circle cx="343.9" cy="204.1" r="3" fill="#3b82f6"/><circle cx="369.7" cy="203.2" r="3" fill="#3b82f6"/><circle cx="395.5" cy="202.5" r="3" fill="#3b82f6"/><circle cx="421.3" cy="201.9" r="3" fill="#3b82f6"/><circle cx="447.1" cy="201.0" r="3" fill="#3b82f6"/><circle cx="472.9" cy="200.3" r="3" fill="#3b82f6"/><circle cx="498.7" cy="199.9" r="3" fill="#3b82f6"/><circle cx="524.5" cy="199.6" r="3" fill="#3b82f6"/><circle cx="550.3" cy="199.4" r="3" fill="#3b82f6"/><circle cx="576.1" cy="199.3" r="3" fill="#3b82f6"/><circle cx="601.9" cy="199.0" r="3" fill="#3b82f6"/><circle cx="627.7" cy="198.9" r="3" fill="#3b82f6"/><circle cx="653.5" cy="198.9" r="3" fill="#3b82f6"/><circle cx="679.4" cy="198.7" r="3" fill="#3b82f6"/><circle cx="705.2" cy="198.7" r="3" fill="#3b82f6"/><circle cx="731.0" cy="198.8" r="3" fill="#3b82f6"/><circle cx="756.8" cy="198.8" r="3" fill="#3b82f6"/><circle cx="782.6" cy="198.8" r="3" fill="#3b82f6"/><circle cx="808.4" cy="198.9" r="3" fill="#3b82f6"/><circle cx="834.2" cy="199.0" r="3" fill="#3b82f6"/><circle cx="860.0" cy="199.2" r="3" fill="#3b82f6"/>

  <!-- X ekseni -->
  <text x="60.0" y="380" text-anchor="middle" font-size="10" fill="#888">14.05.2026</text>
  <text x="189.0" y="380" text-anchor="middle" font-size="10" fill="#888">19.05.2026</text>
  <text x="318.1" y="380" text-anchor="middle" font-size="10" fill="#888">24.05.2026</text>
  <text x="447.1" y="380" text-anchor="middle" font-size="10" fill="#888">29.05.2026</text>
  <text x="576.1" y="380" text-anchor="middle" font-size="10" fill="#888">03.06.2026</text>
  <text x="705.2" y="380" text-anchor="middle" font-size="10" fill="#888">08.06.2026</text>
  <text x="834.2" y="380" text-anchor="middle" font-size="10" fill="#888">13.06.2026</text>

  <!-- Legend -->
  <g transform="translate(60, 345)">
    <rect x="0" y="0" width="12" height="12" fill="#22c55e" rx="2"/>
    <text x="18" y="10" font-size="11" fill="#c9d1d9">Toplam Doluluk</text>
    <rect x="140" y="0" width="12" height="12" fill="#3b82f6" rx="2"/>
    <text x="158" y="10" font-size="11" fill="#c9d1d9">Aktif Doluluk</text>
  </g>
</svg>