<svg xmlns="http://www.w3.org/2000/svg" viewBox="0 0 800 400" width="100%" style="max-width:800px;">
  <rect width="800" height="400" fill="#0d1117" rx="6"/>
  <text x="400.0" y="25" text-anchor="middle" font-size="16" font-weight="bold" fill="#c9d1d9">Son 90 Gün - Günlük Ortalama</text>

  <!-- Y grid -->
  <line x1="60" y1="320.0" x2="760" y2="320.0" stroke="#333" stroke-width="1" stroke-dasharray="4,4" opacity="0.5"/>
  <text x="50" y="320.0" text-anchor="end" dominant-baseline="middle" font-size="10" fill="#888">0%</text>
  <line x1="60" y1="264.0" x2="760" y2="264.0" stroke="#333" stroke-width="1" stroke-dasharray="4,4" opacity="0.5"/>
  <text x="50" y="264.0" text-anchor="end" dominant-baseline="middle" font-size="10" fill="#888">20%</text>
  <line x1="60" y1="208.0" x2="760" y2="208.0" stroke="#333" stroke-width="1" stroke-dasharray="4,4" opacity="0.5"/>
  <text x="50" y="208.0" text-anchor="end" dominant-baseline="middle" font-size="10" fill="#888">40%</text>
  <line x1="60" y1="152.0" x2="760" y2="152.0" stroke="#333" stroke-width="1" stroke-dasharray="4,4" opacity="0.5"/>
  <text x="50" y="152.0" text-anchor="end" dominant-baseline="middle" font-size="10" fill="#888">60%</text>
  <line x1="60" y1="96.0" x2="760" y2="96.0" stroke="#333" stroke-width="1" stroke-dasharray="4,4" opacity="0.5"/>
  <text x="50" y="96.0" text-anchor="end" dominant-baseline="middle" font-size="10" fill="#888">80%</text>
  <line x1="60" y1="40.0" x2="760" y2="40.0" stroke="#333" stroke-width="1" stroke-dasharray="4,4" opacity="0.5"/>
  <text x="50" y="40.0" text-anchor="end" dominant-baseline="middle" font-size="10" fill="#888">100%</text>

  <!-- Referans çizgileri -->
  <line x1="60" y1="236.0" x2="760" y2="236.0" stroke="#ef4444" stroke-width="1" stroke-dasharray="2,2" opacity="0.7"/>
  <text x="745" y="236.0" dominant-baseline="middle" font-size="9" fill="#ef4444">Kritik (30%)</text>
  <line x1="60" y1="180.0" x2="760" y2="180.0" stroke="#eab308" stroke-width="1" stroke-dasharray="2,2" opacity="0.7"/>
  <text x="745" y="180.0" dominant-baseline="middle" font-size="9" fill="#eab308">Normal (50%)</text>

  <!-- Toplam doluluk -->
  <polyline points="60.0,193.2 71.9,192.5 83.7,192.0 95.6,191.6 107.5,191.1 119.3,190.8 131.2,190.4 143.1,190.1 154.9,189.6 166.8,188.8 178.6,187.8 190.5,187.0 202.4,186.2 214.2,185.6 226.1,185.0 238.0,184.3 249.8,183.6 261.7,183.2 273.6,182.9 285.4,182.7 297.3,182.7 309.2,182.4 321.0,182.3 332.9,182.3 344.7,182.2 356.6,182.2 368.5,182.2 380.3,182.2 392.2,182.3 404.1,182.4 415.9,182.5 427.8,182.6 439.7,182.7 451.5,182.9 463.4,183.1 475.3,183.2 487.1,183.3 499.0,183.4 510.8,183.5 522.7,183.7 534.6,183.9 546.4,184.2 558.3,184.4 570.2,184.7 582.0,185.0 593.9,185.3 605.8,185.6 617.6,186.0 629.5,186.3 641.4,186.6 653.2,187.0 665.1,187.3 676.9,187.6 688.8,188.0 700.7,188.3 712.5,188.6 724.4,189.0 736.3,189.3 748.1,189.6 760.0,189.9" fill="none" stroke="#22c55e" stroke-width="2.5" stroke-linecap="round" stroke-linejoin="round"/>
  <polyline points="60.0,193.2 71.9,192.5 83.7,192.0 95.6,191.6 107.5,191.1 119.3,190.8 131.2,190.4 143.1,190.1 154.9,189.6 166.8,188.8 178.6,187.8 190.5,187.0 202.4,186.2 214.2,185.6 226.1,185.0 238.0,184.3 249.8,183.6 261.7,183.2 273.6,182.9 285.4,182.7 297.3,182.7 309.2,182.4 321.0,182.3 332.9,182.3 344.7,182.2 356.6,182.2 368.5,182.2 380.3,182.2 392.2,182.3 404.1,182.4 415.9,182.5 427.8,182.6 439.7,182.7 451.5,182.9 463.4,183.1 475.3,183.2 487.1,183.3 499.0,183.4 510.8,183.5 522.7,183.7 534.6,183.9 546.4,184.2 558.3,184.4 570.2,184.7 582.0,185.0 593.9,185.3 605.8,185.6 617.6,186.0 629.5,186.3 641.4,186.6 653.2,187.0 665.1,187.3 676.9,187.6 688.8,188.0 700.7,188.3 712.5,188.6 724.4,189.0 736.3,189.3 748.1,189.6 760.0,189.9" fill="none" stroke="#22c55e" stroke-width="5" opacity="0.1" stroke-linecap="round" stroke-linejoin="round"/>

  <!-- Aktif doluluk -->
  <polyline points="60.0,211.1 71.9,210.2 83.7,209.7 95.6,209.2 107.5,208.7 119.3,208.3 131.2,207.9 143.1,207.5 154.9,207.0 166.8,206.2 178.6,205.0 190.5,204.1 202.4,203.2 214.2,202.5 226.1,201.9 238.0,201.0 249.8,200.3 261.7,199.9 273.6,199.6 285.4,199.4 297.3,199.3 309.2,199.0 321.0,198.9 332.9,198.9 344.7,198.7 356.6,198.7 368.5,198.8 380.3,198.8 392.2,198.8 404.1,198.9 415.9,199.0 427.8,199.2 439.7,199.4 451.5,199.5 463.4,199.7 475.3,199.8 487.1,200.0 499.0,200.1 510.8,200.2 522.7,200.4 534.6,200.7 546.4,201.0 558.3,201.3 570.2,201.6 582.0,201.8 593.9,202.2 605.8,202.6 617.6,203.0 629.5,203.3 641.4,203.7 653.2,204.1 665.1,204.4 676.9,204.8 688.8,205.2 700.7,205.5 712.5,205.9 724.4,206.3 736.3,206.7 748.1,207.0 760.0,207.4" fill="none" stroke="#3b82f6" stroke-width="2.5" stroke-linecap="round" stroke-linejoin="round"/>
  <polyline points="60.0,211.1 71.9,210.2 83.7,209.7 95.6,209.2 107.5,208.7 119.3,208.3 131.2,207.9 143.1,207.5 154.9,207.0 166.8,206.2 178.6,205.0 190.5,204.1 202.4,203.2 214.2,202.5 226.1,201.9 238.0,201.0 249.8,200.3 261.7,199.9 273.6,199.6 285.4,199.4 297.3,199.3 309.2,199.0 321.0,198.9 332.9,198.9 344.7,198.7 356.6,198.7 368.5,198.8 380.3,198.8 392.2,198.8 404.1,198.9 415.9,199.0 427.8,199.2 439.7,199.4 451.5,199.5 463.4,199.7 475.3,199.8 487.1,200.0 499.0,200.1 510.8,200.2 522.7,200.4 534.6,200.7 546.4,201.0 558.3,201.3 570.2,201.6 582.0,201.8 593.9,202.2 605.8,202.6 617.6,203.0 629.5,203.3 641.4,203.7 653.2,204.1 665.1,204.4 676.9,204.8 688.8,205.2 700.7,205.5 712.5,205.9 724.4,206.3 736.3,206.7 748.1,207.0 760.0,207.4" fill="none" stroke="#3b82f6" stroke-width="5" opacity="0.1" stroke-linecap="round" stroke-linejoin="round"/>

  <!-- Noktalar -->
  <circle cx="60.0" cy="193.2" r="3" fill="#22c55e"/><circle cx="71.9" cy="192.5" r="3" fill="#22c55e"/><circle cx="83.7" cy="192.0" r="3" fill="#22c55e"/><circle cx="95.6" cy="191.6" r="3" fill="#22c55e"/><circle cx="107.5" cy="191.1" r="3" fill="#22c55e"/><circle cx="119.3" cy="190.8" r="3" fill="#22c55e"/><circle cx="131.2" cy="190.4" r="3" fill="#22c55e"/><circle cx="143.1" cy="190.1" r="3" fill="#22c55e"/><circle cx="154.9" cy="189.6" r="3" fill="#22c55e"/><circle cx="166.8" cy="188.8" r="3" fill="#22c55e"/><circle cx="178.6" cy="187.8" r="3" fill="#22c55e"/><circle cx="190.5" cy="187.0" r="3" fill="#22c55e"/><circle cx="202.4" cy="186.2" r="3" fill="#22c55e"/><circle cx="214.2" cy="185.6" r="3" fill="#22c55e"/><circle cx="226.1" cy="185.0" r="3" fill="#22c55e"/><circle cx="238.0" cy="184.3" r="3" fill="#22c55e"/><circle cx="249.8" cy="183.6" r="3" fill="#22c55e"/><circle cx="261.7" cy="183.2" r="3" fill="#22c55e"/><circle cx="273.6" cy="182.9" r="3" fill="#22c55e"/><circle cx="285.4" cy="182.7" r="3" fill="#22c55e"/><circle cx="297.3" cy="182.7" r="3" fill="#22c55e"/><circle cx="309.2" cy="182.4" r="3" fill="#22c55e"/><circle cx="321.0" cy="182.3" r="3" fill="#22c55e"/><circle cx="332.9" cy="182.3" r="3" fill="#22c55e"/><circle cx="344.7" cy="182.2" r="3" fill="#22c55e"/><circle cx="356.6" cy="182.2" r="3" fill="#22c55e"/><circle cx="368.5" cy="182.2" r="3" fill="#22c55e"/><circle cx="380.3" cy="182.2" r="3" fill="#22c55e"/><circle cx="392.2" cy="182.3" r="3" fill="#22c55e"/><circle cx="404.1" cy="182.4" r="3" fill="#22c55e"/><circle cx="415.9" cy="182.5" r="3" fill="#22c55e"/><circle cx="427.8" cy="182.6" r="3" fill="#22c55e"/><circle cx="439.7" cy="182.7" r="3" fill="#22c55e"/><circle cx="451.5" cy="182.9" r="3" fill="#22c55e"/><circle cx="463.4" cy="183.1" r="3" fill="#22c55e"/><circle cx="475.3" cy="183.2" r="3" fill="#22c55e"/><circle cx="487.1" cy="183.3" r="3" fill="#22c55e"/><circle cx="499.0" cy="183.4" r="3" fill="#22c55e"/><circle cx="510.8" cy="183.5" r="3" fill="#22c55e"/><circle cx="522.7" cy="183.7" r="3" fill="#22c55e"/><circle cx="534.6" cy="183.9" r="3" fill="#22c55e"/><circle cx="546.4" cy="184.2" r="3" fill="#22c55e"/><circle cx="558.3" cy="184.4" r="3" fill="#22c55e"/><circle cx="570.2" cy="184.7" r="3" fill="#22c55e"/><circle cx="582.0" cy="185.0" r="3" fill="#22c55e"/><circle cx="593.9" cy="185.3" r="3" fill="#22c55e"/><circle cx="605.8" cy="185.6" r="3" fill="#22c55e"/><circle cx="617.6" cy="186.0" r="3" fill="#22c55e"/><circle cx="629.5" cy="186.3" r="3" fill="#22c55e"/><circle cx="641.4" cy="186.6" r="3" fill="#22c55e"/><circle cx="653.2" cy="187.0" r="3" fill="#22c55e"/><circle cx="665.1" cy="187.3" r="3" fill="#22c55e"/><circle cx="676.9" cy="187.6" r="3" fill="#22c55e"/><circle cx="688.8" cy="188.0" r="3" fill="#22c55e"/><circle cx="700.7" cy="188.3" r="3" fill="#22c55e"/><circle cx="712.5" cy="188.6" r="3" fill="#22c55e"/><circle cx="724.4" cy="189.0" r="3" fill="#22c55e"/><circle cx="736.3" cy="189.3" r="3" fill="#22c55e"/><circle cx="748.1" cy="189.6" r="3" fill="#22c55e"/><circle cx="760.0" cy="189.9" r="3" fill="#22c55e"/>
  <circle cx="60.0" cy="211.1" r="3" fill="#3b82f6"/><circle cx="71.9" cy="210.2" r="3" fill="#3b82f6"/><circle cx="83.7" cy="209.7" r="3" fill="#3b82f6"/><circle cx="95.6" cy="209.2" r="3" fill="#3b82f6"/><circle cx="107.5" cy="208.7" r="3" fill="#3b82f6"/><circle cx="119.3" cy="208.3" r="3" fill="#3b82f6"/><circle cx="131.2" cy="207.9" r="3" fill="#3b82f6"/><circle cx="143.1" cy="207.5" r="3" fill="#3b82f6"/><circle cx="154.9" cy="207.0" r="3" fill="#3b82f6"/><circle cx="166.8" cy="206.2" r="3" fill="#3b82f6"/><circle cx="178.6" cy="205.0" r="3" fill="#3b82f6"/><circle cx="190.5" cy="204.1" r="3" fill="#3b82f6"/><circle cx="202.4" cy="203.2" r="3" fill="#3b82f6"/><circle cx="214.2" cy="202.5" r="3" fill="#3b82f6"/><circle cx="226.1" cy="201.9" r="3" fill="#3b82f6"/><circle cx="238.0" cy="201.0" r="3" fill="#3b82f6"/><circle cx="249.8" cy="200.3" r="3" fill="#3b82f6"/><circle cx="261.7" cy="199.9" r="3" fill="#3b82f6"/><circle cx="273.6" cy="199.6" r="3" fill="#3b82f6"/><circle cx="285.4" cy="199.4" r="3" fill="#3b82f6"/><circle cx="297.3" cy="199.3" r="3" fill="#3b82f6"/><circle cx="309.2" cy="199.0" r="3" fill="#3b82f6"/><circle cx="321.0" cy="198.9" r="3" fill="#3b82f6"/><circle cx="332.9" cy="198.9" r="3" fill="#3b82f6"/><circle cx="344.7" cy="198.7" r="3" fill="#3b82f6"/><circle cx="356.6" cy="198.7" r="3" fill="#3b82f6"/><circle cx="368.5" cy="198.8" r="3" fill="#3b82f6"/><circle cx="380.3" cy="198.8" r="3" fill="#3b82f6"/><circle cx="392.2" cy="198.8" r="3" fill="#3b82f6"/><circle cx="404.1" cy="198.9" r="3" fill="#3b82f6"/><circle cx="415.9" cy="199.0" r="3" fill="#3b82f6"/><circle cx="427.8" cy="199.2" r="3" fill="#3b82f6"/><circle cx="439.7" cy="199.4" r="3" fill="#3b82f6"/><circle cx="451.5" cy="199.5" r="3" fill="#3b82f6"/><circle cx="463.4" cy="199.7" r="3" fill="#3b82f6"/><circle cx="475.3" cy="199.8" r="3" fill="#3b82f6"/><circle cx="487.1" cy="200.0" r="3" fill="#3b82f6"/><circle cx="499.0" cy="200.1" r="3" fill="#3b82f6"/><circle cx="510.8" cy="200.2" r="3" fill="#3b82f6"/><circle cx="522.7" cy="200.4" r="3" fill="#3b82f6"/><circle cx="534.6" cy="200.7" r="3" fill="#3b82f6"/><circle cx="546.4" cy="201.0" r="3" fill="#3b82f6"/><circle cx="558.3" cy="201.3" r="3" fill="#3b82f6"/><circle cx="570.2" cy="201.6" r="3" fill="#3b82f6"/><circle cx="582.0" cy="201.8" r="3" fill="#3b82f6"/><circle cx="593.9" cy="202.2" r="3" fill="#3b82f6"/><circle cx="605.8" cy="202.6" r="3" fill="#3b82f6"/><circle cx="617.6" cy="203.0" r="3" fill="#3b82f6"/><circle cx="629.5" cy="203.3" r="3" fill="#3b82f6"/><circle cx="641.4" cy="203.7" r="3" fill="#3b82f6"/><circle cx="653.2" cy="204.1" r="3" fill="#3b82f6"/><circle cx="665.1" cy="204.4" r="3" fill="#3b82f6"/><circle cx="676.9" cy="204.8" r="3" fill="#3b82f6"/><circle cx="688.8" cy="205.2" r="3" fill="#3b82f6"/><circle cx="700.7" cy="205.5" r="3" fill="#3b82f6"/><circle cx="712.5" cy="205.9" r="3" fill="#3b82f6"/><circle cx="724.4" cy="206.3" r="3" fill="#3b82f6"/><circle cx="736.3" cy="206.7" r="3" fill="#3b82f6"/><circle cx="748.1" cy="207.0" r="3" fill="#3b82f6"/><circle cx="760.0" cy="207.4" r="3" fill="#3b82f6"/>

  <!-- X ekseni -->
  <text x="60.0" y="380" text-anchor="middle" font-size="10" fill="#888">14.05.2026</text>
  <text x="178.6" y="380" text-anchor="middle" font-size="10" fill="#888">24.05.2026</text>
  <text x="297.3" y="380" text-anchor="middle" font-size="10" fill="#888">03.06.2026</text>
  <text x="415.9" y="380" text-anchor="middle" font-size="10" fill="#888">13.06.2026</text>
  <text x="534.6" y="380" text-anchor="middle" font-size="10" fill="#888">23.06.2026</text>
  <text x="653.2" y="380" text-anchor="middle" font-size="10" fill="#888">03.07.2026</text>

  <!-- Legend -->
  <g transform="translate(60, 345)">
    <rect x="0" y="0" width="12" height="12" fill="#22c55e" rx="2"/>
    <text x="18" y="10" font-size="11" fill="#c9d1d9">Toplam Doluluk</text>
    <rect x="140" y="0" width="12" height="12" fill="#3b82f6" rx="2"/>
    <text x="158" y="10" font-size="11" fill="#c9d1d9">Aktif Doluluk</text>
  </g>
</svg>