<svg xmlns="http://www.w3.org/2000/svg" viewBox="0 0 800 400" width="100%" style="max-width:800px;">
  <rect width="800" height="400" fill="#0d1117" rx="6"/>
  <text x="400.0" y="25" text-anchor="middle" font-size="16" font-weight="bold" fill="#c9d1d9">Son 90 Gün - Günlük Ortalama</text>

  <!-- Y grid -->
  <line x1="60" y1="320.0" x2="760" y2="320.0" stroke="#333" stroke-width="1" stroke-dasharray="4,4" opacity="0.5"/>
  <text x="50" y="320.0" text-anchor="end" dominant-baseline="middle" font-size="10" fill="#888">0%</text>
  <line x1="60" y1="264.0" x2="760" y2="264.0" stroke="#333" stroke-width="1" stroke-dasharray="4,4" opacity="0.5"/>
  <text x="50" y="264.0" text-anchor="end" dominant-baseline="middle" font-size="10" fill="#888">20%</text>
  <line x1="60" y1="208.0" x2="760" y2="208.0" stroke="#333" stroke-width="1" stroke-dasharray="4,4" opacity="0.5"/>
  <text x="50" y="208.0" text-anchor="end" dominant-baseline="middle" font-size="10" fill="#888">40%</text>
  <line x1="60" y1="152.0" x2="760" y2="152.0" stroke="#333" stroke-width="1" stroke-dasharray="4,4" opacity="0.5"/>
  <text x="50" y="152.0" text-anchor="end" dominant-baseline="middle" font-size="10" fill="#888">60%</text>
  <line x1="60" y1="96.0" x2="760" y2="96.0" stroke="#333" stroke-width="1" stroke-dasharray="4,4" opacity="0.5"/>
  <text x="50" y="96.0" text-anchor="end" dominant-baseline="middle" font-size="10" fill="#888">80%</text>
  <line x1="60" y1="40.0" x2="760" y2="40.0" stroke="#333" stroke-width="1" stroke-dasharray="4,4" opacity="0.5"/>
  <text x="50" y="40.0" text-anchor="end" dominant-baseline="middle" font-size="10" fill="#888">100%</text>

  <!-- Referans çizgileri -->
  <line x1="60" y1="236.0" x2="760" y2="236.0" stroke="#ef4444" stroke-width="1" stroke-dasharray="2,2" opacity="0.7"/>
  <text x="745" y="236.0" dominant-baseline="middle" font-size="9" fill="#ef4444">Kritik (30%)</text>
  <line x1="60" y1="180.0" x2="760" y2="180.0" stroke="#eab308" stroke-width="1" stroke-dasharray="2,2" opacity="0.7"/>
  <text x="745" y="180.0" dominant-baseline="middle" font-size="9" fill="#eab308">Normal (50%)</text>

  <!-- Toplam doluluk -->
  <polyline points="60.0,193.2 75.6,192.5 91.1,192.0 106.7,191.6 122.2,191.1 137.8,190.8 153.3,190.4 168.9,190.1 184.4,189.6 200.0,188.8 215.6,187.8 231.1,187.0 246.7,186.2 262.2,185.6 277.8,185.0 293.3,184.3 308.9,183.6 324.4,183.2 340.0,182.9 355.6,182.7 371.1,182.7 386.7,182.4 402.2,182.3 417.8,182.3 433.3,182.2 448.9,182.2 464.4,182.2 480.0,182.2 495.6,182.3 511.1,182.4 526.7,182.5 542.2,182.6 557.8,182.7 573.3,182.9 588.9,183.1 604.4,183.2 620.0,183.3 635.6,183.4 651.1,183.5 666.7,183.7 682.2,183.9 697.8,184.2 713.3,184.4 728.9,184.7 744.4,185.0 760.0,185.3" fill="none" stroke="#22c55e" stroke-width="2.5" stroke-linecap="round" stroke-linejoin="round"/>
  <polyline points="60.0,193.2 75.6,192.5 91.1,192.0 106.7,191.6 122.2,191.1 137.8,190.8 153.3,190.4 168.9,190.1 184.4,189.6 200.0,188.8 215.6,187.8 231.1,187.0 246.7,186.2 262.2,185.6 277.8,185.0 293.3,184.3 308.9,183.6 324.4,183.2 340.0,182.9 355.6,182.7 371.1,182.7 386.7,182.4 402.2,182.3 417.8,182.3 433.3,182.2 448.9,182.2 464.4,182.2 480.0,182.2 495.6,182.3 511.1,182.4 526.7,182.5 542.2,182.6 557.8,182.7 573.3,182.9 588.9,183.1 604.4,183.2 620.0,183.3 635.6,183.4 651.1,183.5 666.7,183.7 682.2,183.9 697.8,184.2 713.3,184.4 728.9,184.7 744.4,185.0 760.0,185.3" fill="none" stroke="#22c55e" stroke-width="5" opacity="0.1" stroke-linecap="round" stroke-linejoin="round"/>

  <!-- Aktif doluluk -->
  <polyline points="60.0,211.1 75.6,210.2 91.1,209.7 106.7,209.2 122.2,208.7 137.8,208.3 153.3,207.9 168.9,207.5 184.4,207.0 200.0,206.2 215.6,205.0 231.1,204.1 246.7,203.2 262.2,202.5 277.8,201.9 293.3,201.0 308.9,200.3 324.4,199.9 340.0,199.6 355.6,199.4 371.1,199.3 386.7,199.0 402.2,198.9 417.8,198.9 433.3,198.7 448.9,198.7 464.4,198.8 480.0,198.8 495.6,198.8 511.1,198.9 526.7,199.0 542.2,199.2 557.8,199.4 573.3,199.5 588.9,199.7 604.4,199.8 620.0,200.0 635.6,200.1 651.1,200.2 666.7,200.4 682.2,200.7 697.8,201.0 713.3,201.3 728.9,201.6 744.4,201.8 760.0,202.2" fill="none" stroke="#3b82f6" stroke-width="2.5" stroke-linecap="round" stroke-linejoin="round"/>
  <polyline points="60.0,211.1 75.6,210.2 91.1,209.7 106.7,209.2 122.2,208.7 137.8,208.3 153.3,207.9 168.9,207.5 184.4,207.0 200.0,206.2 215.6,205.0 231.1,204.1 246.7,203.2 262.2,202.5 277.8,201.9 293.3,201.0 308.9,200.3 324.4,199.9 340.0,199.6 355.6,199.4 371.1,199.3 386.7,199.0 402.2,198.9 417.8,198.9 433.3,198.7 448.9,198.7 464.4,198.8 480.0,198.8 495.6,198.8 511.1,198.9 526.7,199.0 542.2,199.2 557.8,199.4 573.3,199.5 588.9,199.7 604.4,199.8 620.0,200.0 635.6,200.1 651.1,200.2 666.7,200.4 682.2,200.7 697.8,201.0 713.3,201.3 728.9,201.6 744.4,201.8 760.0,202.2" fill="none" stroke="#3b82f6" stroke-width="5" opacity="0.1" stroke-linecap="round" stroke-linejoin="round"/>

  <!-- Noktalar -->
  <circle cx="60.0" cy="193.2" r="3" fill="#22c55e"/><circle cx="75.6" cy="192.5" r="3" fill="#22c55e"/><circle cx="91.1" cy="192.0" r="3" fill="#22c55e"/><circle cx="106.7" cy="191.6" r="3" fill="#22c55e"/><circle cx="122.2" cy="191.1" r="3" fill="#22c55e"/><circle cx="137.8" cy="190.8" r="3" fill="#22c55e"/><circle cx="153.3" cy="190.4" r="3" fill="#22c55e"/><circle cx="168.9" cy="190.1" r="3" fill="#22c55e"/><circle cx="184.4" cy="189.6" r="3" fill="#22c55e"/><circle cx="200.0" cy="188.8" r="3" fill="#22c55e"/><circle cx="215.6" cy="187.8" r="3" fill="#22c55e"/><circle cx="231.1" cy="187.0" r="3" fill="#22c55e"/><circle cx="246.7" cy="186.2" r="3" fill="#22c55e"/><circle cx="262.2" cy="185.6" r="3" fill="#22c55e"/><circle cx="277.8" cy="185.0" r="3" fill="#22c55e"/><circle cx="293.3" cy="184.3" r="3" fill="#22c55e"/><circle cx="308.9" cy="183.6" r="3" fill="#22c55e"/><circle cx="324.4" cy="183.2" r="3" fill="#22c55e"/><circle cx="340.0" cy="182.9" r="3" fill="#22c55e"/><circle cx="355.6" cy="182.7" r="3" fill="#22c55e"/><circle cx="371.1" cy="182.7" r="3" fill="#22c55e"/><circle cx="386.7" cy="182.4" r="3" fill="#22c55e"/><circle cx="402.2" cy="182.3" r="3" fill="#22c55e"/><circle cx="417.8" cy="182.3" r="3" fill="#22c55e"/><circle cx="433.3" cy="182.2" r="3" fill="#22c55e"/><circle cx="448.9" cy="182.2" r="3" fill="#22c55e"/><circle cx="464.4" cy="182.2" r="3" fill="#22c55e"/><circle cx="480.0" cy="182.2" r="3" fill="#22c55e"/><circle cx="495.6" cy="182.3" r="3" fill="#22c55e"/><circle cx="511.1" cy="182.4" r="3" fill="#22c55e"/><circle cx="526.7" cy="182.5" r="3" fill="#22c55e"/><circle cx="542.2" cy="182.6" r="3" fill="#22c55e"/><circle cx="557.8" cy="182.7" r="3" fill="#22c55e"/><circle cx="573.3" cy="182.9" r="3" fill="#22c55e"/><circle cx="588.9" cy="183.1" r="3" fill="#22c55e"/><circle cx="604.4" cy="183.2" r="3" fill="#22c55e"/><circle cx="620.0" cy="183.3" r="3" fill="#22c55e"/><circle cx="635.6" cy="183.4" r="3" fill="#22c55e"/><circle cx="651.1" cy="183.5" r="3" fill="#22c55e"/><circle cx="666.7" cy="183.7" r="3" fill="#22c55e"/><circle cx="682.2" cy="183.9" r="3" fill="#22c55e"/><circle cx="697.8" cy="184.2" r="3" fill="#22c55e"/><circle cx="713.3" cy="184.4" r="3" fill="#22c55e"/><circle cx="728.9" cy="184.7" r="3" fill="#22c55e"/><circle cx="744.4" cy="185.0" r="3" fill="#22c55e"/><circle cx="760.0" cy="185.3" r="3" fill="#22c55e"/>
  <circle cx="60.0" cy="211.1" r="3" fill="#3b82f6"/><circle cx="75.6" cy="210.2" r="3" fill="#3b82f6"/><circle cx="91.1" cy="209.7" r="3" fill="#3b82f6"/><circle cx="106.7" cy="209.2" r="3" fill="#3b82f6"/><circle cx="122.2" cy="208.7" r="3" fill="#3b82f6"/><circle cx="137.8" cy="208.3" r="3" fill="#3b82f6"/><circle cx="153.3" cy="207.9" r="3" fill="#3b82f6"/><circle cx="168.9" cy="207.5" r="3" fill="#3b82f6"/><circle cx="184.4" cy="207.0" r="3" fill="#3b82f6"/><circle cx="200.0" cy="206.2" r="3" fill="#3b82f6"/><circle cx="215.6" cy="205.0" r="3" fill="#3b82f6"/><circle cx="231.1" cy="204.1" r="3" fill="#3b82f6"/><circle cx="246.7" cy="203.2" r="3" fill="#3b82f6"/><circle cx="262.2" cy="202.5" r="3" fill="#3b82f6"/><circle cx="277.8" cy="201.9" r="3" fill="#3b82f6"/><circle cx="293.3" cy="201.0" r="3" fill="#3b82f6"/><circle cx="308.9" cy="200.3" r="3" fill="#3b82f6"/><circle cx="324.4" cy="199.9" r="3" fill="#3b82f6"/><circle cx="340.0" cy="199.6" r="3" fill="#3b82f6"/><circle cx="355.6" cy="199.4" r="3" fill="#3b82f6"/><circle cx="371.1" cy="199.3" r="3" fill="#3b82f6"/><circle cx="386.7" cy="199.0" r="3" fill="#3b82f6"/><circle cx="402.2" cy="198.9" r="3" fill="#3b82f6"/><circle cx="417.8" cy="198.9" r="3" fill="#3b82f6"/><circle cx="433.3" cy="198.7" r="3" fill="#3b82f6"/><circle cx="448.9" cy="198.7" r="3" fill="#3b82f6"/><circle cx="464.4" cy="198.8" r="3" fill="#3b82f6"/><circle cx="480.0" cy="198.8" r="3" fill="#3b82f6"/><circle cx="495.6" cy="198.8" r="3" fill="#3b82f6"/><circle cx="511.1" cy="198.9" r="3" fill="#3b82f6"/><circle cx="526.7" cy="199.0" r="3" fill="#3b82f6"/><circle cx="542.2" cy="199.2" r="3" fill="#3b82f6"/><circle cx="557.8" cy="199.4" r="3" fill="#3b82f6"/><circle cx="573.3" cy="199.5" r="3" fill="#3b82f6"/><circle cx="588.9" cy="199.7" r="3" fill="#3b82f6"/><circle cx="604.4" cy="199.8" r="3" fill="#3b82f6"/><circle cx="620.0" cy="200.0" r="3" fill="#3b82f6"/><circle cx="635.6" cy="200.1" r="3" fill="#3b82f6"/><circle cx="651.1" cy="200.2" r="3" fill="#3b82f6"/><circle cx="666.7" cy="200.4" r="3" fill="#3b82f6"/><circle cx="682.2" cy="200.7" r="3" fill="#3b82f6"/><circle cx="697.8" cy="201.0" r="3" fill="#3b82f6"/><circle cx="713.3" cy="201.3" r="3" fill="#3b82f6"/><circle cx="728.9" cy="201.6" r="3" fill="#3b82f6"/><circle cx="744.4" cy="201.8" r="3" fill="#3b82f6"/><circle cx="760.0" cy="202.2" r="3" fill="#3b82f6"/>

  <!-- X ekseni -->
  <text x="60.0" y="380" text-anchor="middle" font-size="10" fill="#888">14.05.2026</text>
  <text x="168.9" y="380" text-anchor="middle" font-size="10" fill="#888">21.05.2026</text>
  <text x="277.8" y="380" text-anchor="middle" font-size="10" fill="#888">28.05.2026</text>
  <text x="386.7" y="380" text-anchor="middle" font-size="10" fill="#888">04.06.2026</text>
  <text x="495.6" y="380" text-anchor="middle" font-size="10" fill="#888">11.06.2026</text>
  <text x="604.4" y="380" text-anchor="middle" font-size="10" fill="#888">18.06.2026</text>
  <text x="713.3" y="380" text-anchor="middle" font-size="10" fill="#888">25.06.2026</text>

  <!-- Legend -->
  <g transform="translate(60, 345)">
    <rect x="0" y="0" width="12" height="12" fill="#22c55e" rx="2"/>
    <text x="18" y="10" font-size="11" fill="#c9d1d9">Toplam Doluluk</text>
    <rect x="140" y="0" width="12" height="12" fill="#3b82f6" rx="2"/>
    <text x="158" y="10" font-size="11" fill="#c9d1d9">Aktif Doluluk</text>
  </g>
</svg>