<svg xmlns="http://www.w3.org/2000/svg" viewBox="0 0 800 400" width="100%" style="max-width:800px;">
  <rect width="800" height="400" fill="#0d1117" rx="6"/>
  <text x="400.0" y="25" text-anchor="middle" font-size="16" font-weight="bold" fill="#c9d1d9">Son 30 Gün - Günlük Ortalama</text>

  <!-- Y grid -->
  <line x1="60" y1="320.0" x2="760" y2="320.0" stroke="#333" stroke-width="1" stroke-dasharray="4,4" opacity="0.5"/>
  <text x="50" y="320.0" text-anchor="end" dominant-baseline="middle" font-size="10" fill="#888">0%</text>
  <line x1="60" y1="264.0" x2="760" y2="264.0" stroke="#333" stroke-width="1" stroke-dasharray="4,4" opacity="0.5"/>
  <text x="50" y="264.0" text-anchor="end" dominant-baseline="middle" font-size="10" fill="#888">20%</text>
  <line x1="60" y1="208.0" x2="760" y2="208.0" stroke="#333" stroke-width="1" stroke-dasharray="4,4" opacity="0.5"/>
  <text x="50" y="208.0" text-anchor="end" dominant-baseline="middle" font-size="10" fill="#888">40%</text>
  <line x1="60" y1="152.0" x2="760" y2="152.0" stroke="#333" stroke-width="1" stroke-dasharray="4,4" opacity="0.5"/>
  <text x="50" y="152.0" text-anchor="end" dominant-baseline="middle" font-size="10" fill="#888">60%</text>
  <line x1="60" y1="96.0" x2="760" y2="96.0" stroke="#333" stroke-width="1" stroke-dasharray="4,4" opacity="0.5"/>
  <text x="50" y="96.0" text-anchor="end" dominant-baseline="middle" font-size="10" fill="#888">80%</text>
  <line x1="60" y1="40.0" x2="760" y2="40.0" stroke="#333" stroke-width="1" stroke-dasharray="4,4" opacity="0.5"/>
  <text x="50" y="40.0" text-anchor="end" dominant-baseline="middle" font-size="10" fill="#888">100%</text>

  <!-- Referans çizgileri -->
  <line x1="60" y1="236.0" x2="760" y2="236.0" stroke="#ef4444" stroke-width="1" stroke-dasharray="2,2" opacity="0.7"/>
  <text x="745" y="236.0" dominant-baseline="middle" font-size="9" fill="#ef4444">Kritik (30%)</text>
  <line x1="60" y1="180.0" x2="760" y2="180.0" stroke="#eab308" stroke-width="1" stroke-dasharray="2,2" opacity="0.7"/>
  <text x="745" y="180.0" dominant-baseline="middle" font-size="9" fill="#eab308">Normal (50%)</text>

  <!-- Toplam doluluk -->
  <polyline points="60.0,202.3 84.1,202.6 108.3,202.9 132.4,203.2 156.6,203.6 180.7,203.9 204.8,204.2 229.0,204.5 253.1,204.8 277.2,205.1 301.4,205.5 325.5,205.8 349.7,206.1 373.8,206.4 397.9,206.7 422.1,207.0 446.2,207.3 470.3,207.6 494.5,208.0 518.6,208.3 542.8,208.6 566.9,208.9 591.0,209.2 615.2,209.5 639.3,209.7 663.4,209.9 687.6,210.2 711.7,210.4 735.9,210.6 760.0,210.9" fill="none" stroke="#22c55e" stroke-width="2.5" stroke-linecap="round" stroke-linejoin="round"/>
  <polyline points="60.0,202.3 84.1,202.6 108.3,202.9 132.4,203.2 156.6,203.6 180.7,203.9 204.8,204.2 229.0,204.5 253.1,204.8 277.2,205.1 301.4,205.5 325.5,205.8 349.7,206.1 373.8,206.4 397.9,206.7 422.1,207.0 446.2,207.3 470.3,207.6 494.5,208.0 518.6,208.3 542.8,208.6 566.9,208.9 591.0,209.2 615.2,209.5 639.3,209.7 663.4,209.9 687.6,210.2 711.7,210.4 735.9,210.6 760.0,210.9" fill="none" stroke="#22c55e" stroke-width="5" opacity="0.1" stroke-linecap="round" stroke-linejoin="round"/>

  <!-- Aktif doluluk -->
  <polyline points="60.0,221.2 84.1,221.5 108.3,221.9 132.4,222.2 156.6,222.6 180.7,223.0 204.8,223.3 229.0,223.7 253.1,224.0 277.2,224.4 301.4,224.7 325.5,225.1 349.7,225.4 373.8,225.8 397.9,226.1 422.1,226.5 446.2,226.8 470.3,227.2 494.5,227.5 518.6,227.9 542.8,228.2 566.9,228.6 591.0,228.9 615.2,229.2 639.3,229.5 663.4,229.7 687.6,230.0 711.7,230.2 735.9,230.5 760.0,230.8" fill="none" stroke="#3b82f6" stroke-width="2.5" stroke-linecap="round" stroke-linejoin="round"/>
  <polyline points="60.0,221.2 84.1,221.5 108.3,221.9 132.4,222.2 156.6,222.6 180.7,223.0 204.8,223.3 229.0,223.7 253.1,224.0 277.2,224.4 301.4,224.7 325.5,225.1 349.7,225.4 373.8,225.8 397.9,226.1 422.1,226.5 446.2,226.8 470.3,227.2 494.5,227.5 518.6,227.9 542.8,228.2 566.9,228.6 591.0,228.9 615.2,229.2 639.3,229.5 663.4,229.7 687.6,230.0 711.7,230.2 735.9,230.5 760.0,230.8" fill="none" stroke="#3b82f6" stroke-width="5" opacity="0.1" stroke-linecap="round" stroke-linejoin="round"/>

  <!-- Noktalar -->
  <circle cx="60.0" cy="202.3" r="3" fill="#22c55e"/><circle cx="84.1" cy="202.6" r="3" fill="#22c55e"/><circle cx="108.3" cy="202.9" r="3" fill="#22c55e"/><circle cx="132.4" cy="203.2" r="3" fill="#22c55e"/><circle cx="156.6" cy="203.6" r="3" fill="#22c55e"/><circle cx="180.7" cy="203.9" r="3" fill="#22c55e"/><circle cx="204.8" cy="204.2" r="3" fill="#22c55e"/><circle cx="229.0" cy="204.5" r="3" fill="#22c55e"/><circle cx="253.1" cy="204.8" r="3" fill="#22c55e"/><circle cx="277.2" cy="205.1" r="3" fill="#22c55e"/><circle cx="301.4" cy="205.5" r="3" fill="#22c55e"/><circle cx="325.5" cy="205.8" r="3" fill="#22c55e"/><circle cx="349.7" cy="206.1" r="3" fill="#22c55e"/><circle cx="373.8" cy="206.4" r="3" fill="#22c55e"/><circle cx="397.9" cy="206.7" r="3" fill="#22c55e"/><circle cx="422.1" cy="207.0" r="3" fill="#22c55e"/><circle cx="446.2" cy="207.3" r="3" fill="#22c55e"/><circle cx="470.3" cy="207.6" r="3" fill="#22c55e"/><circle cx="494.5" cy="208.0" r="3" fill="#22c55e"/><circle cx="518.6" cy="208.3" r="3" fill="#22c55e"/><circle cx="542.8" cy="208.6" r="3" fill="#22c55e"/><circle cx="566.9" cy="208.9" r="3" fill="#22c55e"/><circle cx="591.0" cy="209.2" r="3" fill="#22c55e"/><circle cx="615.2" cy="209.5" r="3" fill="#22c55e"/><circle cx="639.3" cy="209.7" r="3" fill="#22c55e"/><circle cx="663.4" cy="209.9" r="3" fill="#22c55e"/><circle cx="687.6" cy="210.2" r="3" fill="#22c55e"/><circle cx="711.7" cy="210.4" r="3" fill="#22c55e"/><circle cx="735.9" cy="210.6" r="3" fill="#22c55e"/><circle cx="760.0" cy="210.9" r="3" fill="#22c55e"/>
  <circle cx="60.0" cy="221.2" r="3" fill="#3b82f6"/><circle cx="84.1" cy="221.5" r="3" fill="#3b82f6"/><circle cx="108.3" cy="221.9" r="3" fill="#3b82f6"/><circle cx="132.4" cy="222.2" r="3" fill="#3b82f6"/><circle cx="156.6" cy="222.6" r="3" fill="#3b82f6"/><circle cx="180.7" cy="223.0" r="3" fill="#3b82f6"/><circle cx="204.8" cy="223.3" r="3" fill="#3b82f6"/><circle cx="229.0" cy="223.7" r="3" fill="#3b82f6"/><circle cx="253.1" cy="224.0" r="3" fill="#3b82f6"/><circle cx="277.2" cy="224.4" r="3" fill="#3b82f6"/><circle cx="301.4" cy="224.7" r="3" fill="#3b82f6"/><circle cx="325.5" cy="225.1" r="3" fill="#3b82f6"/><circle cx="349.7" cy="225.4" r="3" fill="#3b82f6"/><circle cx="373.8" cy="225.8" r="3" fill="#3b82f6"/><circle cx="397.9" cy="226.1" r="3" fill="#3b82f6"/><circle cx="422.1" cy="226.5" r="3" fill="#3b82f6"/><circle cx="446.2" cy="226.8" r="3" fill="#3b82f6"/><circle cx="470.3" cy="227.2" r="3" fill="#3b82f6"/><circle cx="494.5" cy="227.5" r="3" fill="#3b82f6"/><circle cx="518.6" cy="227.9" r="3" fill="#3b82f6"/><circle cx="542.8" cy="228.2" r="3" fill="#3b82f6"/><circle cx="566.9" cy="228.6" r="3" fill="#3b82f6"/><circle cx="591.0" cy="228.9" r="3" fill="#3b82f6"/><circle cx="615.2" cy="229.2" r="3" fill="#3b82f6"/><circle cx="639.3" cy="229.5" r="3" fill="#3b82f6"/><circle cx="663.4" cy="229.7" r="3" fill="#3b82f6"/><circle cx="687.6" cy="230.0" r="3" fill="#3b82f6"/><circle cx="711.7" cy="230.2" r="3" fill="#3b82f6"/><circle cx="735.9" cy="230.5" r="3" fill="#3b82f6"/><circle cx="760.0" cy="230.8" r="3" fill="#3b82f6"/>

  <!-- X ekseni -->
  <text x="60.0" y="380" text-anchor="middle" font-size="10" fill="#888">23.08 00:00</text>
  <text x="180.7" y="380" text-anchor="middle" font-size="10" fill="#888">28.08 00:00</text>
  <text x="301.4" y="380" text-anchor="middle" font-size="10" fill="#888">02.09 00:00</text>
  <text x="422.1" y="380" text-anchor="middle" font-size="10" fill="#888">07.09 00:00</text>
  <text x="542.8" y="380" text-anchor="middle" font-size="10" fill="#888">12.09 00:00</text>
  <text x="663.4" y="380" text-anchor="middle" font-size="10" fill="#888">17.09 00:00</text>

  <!-- Legend -->
  <g transform="translate(60, 345)">
    <rect x="0" y="0" width="12" height="12" fill="#22c55e" rx="2"/>
    <text x="18" y="10" font-size="11" fill="#c9d1d9">Toplam Doluluk</text>
    <rect x="140" y="0" width="12" height="12" fill="#3b82f6" rx="2"/>
    <text x="158" y="10" font-size="11" fill="#c9d1d9">Aktif Doluluk</text>
  </g>
</svg>