<svg xmlns="http://www.w3.org/2000/svg" viewBox="0 0 800 400" width="100%" style="max-width:800px;">
  <rect width="800" height="400" fill="#0d1117" rx="6"/>
  <text x="400.0" y="25" text-anchor="middle" font-size="16" font-weight="bold" fill="#c9d1d9">Son 30 Gün - Günlük Ortalama</text>

  <!-- Y grid -->
  <line x1="60" y1="320.0" x2="760" y2="320.0" stroke="#333" stroke-width="1" stroke-dasharray="4,4" opacity="0.5"/>
  <text x="50" y="320.0" text-anchor="end" dominant-baseline="middle" font-size="10" fill="#888">0%</text>
  <line x1="60" y1="264.0" x2="760" y2="264.0" stroke="#333" stroke-width="1" stroke-dasharray="4,4" opacity="0.5"/>
  <text x="50" y="264.0" text-anchor="end" dominant-baseline="middle" font-size="10" fill="#888">20%</text>
  <line x1="60" y1="208.0" x2="760" y2="208.0" stroke="#333" stroke-width="1" stroke-dasharray="4,4" opacity="0.5"/>
  <text x="50" y="208.0" text-anchor="end" dominant-baseline="middle" font-size="10" fill="#888">40%</text>
  <line x1="60" y1="152.0" x2="760" y2="152.0" stroke="#333" stroke-width="1" stroke-dasharray="4,4" opacity="0.5"/>
  <text x="50" y="152.0" text-anchor="end" dominant-baseline="middle" font-size="10" fill="#888">60%</text>
  <line x1="60" y1="96.0" x2="760" y2="96.0" stroke="#333" stroke-width="1" stroke-dasharray="4,4" opacity="0.5"/>
  <text x="50" y="96.0" text-anchor="end" dominant-baseline="middle" font-size="10" fill="#888">80%</text>
  <line x1="60" y1="40.0" x2="760" y2="40.0" stroke="#333" stroke-width="1" stroke-dasharray="4,4" opacity="0.5"/>
  <text x="50" y="40.0" text-anchor="end" dominant-baseline="middle" font-size="10" fill="#888">100%</text>

  <!-- Referans çizgileri -->
  <line x1="60" y1="236.0" x2="760" y2="236.0" stroke="#ef4444" stroke-width="1" stroke-dasharray="2,2" opacity="0.7"/>
  <text x="745" y="236.0" dominant-baseline="middle" font-size="9" fill="#ef4444">Kritik (30%)</text>
  <line x1="60" y1="180.0" x2="760" y2="180.0" stroke="#eab308" stroke-width="1" stroke-dasharray="2,2" opacity="0.7"/>
  <text x="745" y="180.0" dominant-baseline="middle" font-size="9" fill="#eab308">Normal (50%)</text>

  <!-- Toplam doluluk -->
  <polyline points="60.0,193.2 89.2,192.5 118.3,192.0 147.5,191.6 176.7,191.1 205.8,190.8 235.0,190.4 264.2,190.1 293.3,189.6 322.5,188.8 351.7,187.8 380.8,187.0 410.0,186.2 439.2,185.6 468.3,185.0 497.5,184.3 526.7,183.6 555.8,183.2 585.0,182.9 614.2,182.7 643.3,182.7 672.5,182.4 701.7,182.3 730.8,182.3 760.0,182.2" fill="none" stroke="#22c55e" stroke-width="2.5" stroke-linecap="round" stroke-linejoin="round"/>
  <polyline points="60.0,193.2 89.2,192.5 118.3,192.0 147.5,191.6 176.7,191.1 205.8,190.8 235.0,190.4 264.2,190.1 293.3,189.6 322.5,188.8 351.7,187.8 380.8,187.0 410.0,186.2 439.2,185.6 468.3,185.0 497.5,184.3 526.7,183.6 555.8,183.2 585.0,182.9 614.2,182.7 643.3,182.7 672.5,182.4 701.7,182.3 730.8,182.3 760.0,182.2" fill="none" stroke="#22c55e" stroke-width="5" opacity="0.1" stroke-linecap="round" stroke-linejoin="round"/>

  <!-- Aktif doluluk -->
  <polyline points="60.0,211.1 89.2,210.2 118.3,209.7 147.5,209.2 176.7,208.7 205.8,208.3 235.0,207.9 264.2,207.5 293.3,207.0 322.5,206.2 351.7,205.0 380.8,204.1 410.0,203.2 439.2,202.5 468.3,201.9 497.5,201.0 526.7,200.3 555.8,199.9 585.0,199.6 614.2,199.4 643.3,199.3 672.5,199.0 701.7,198.9 730.8,198.9 760.0,198.7" fill="none" stroke="#3b82f6" stroke-width="2.5" stroke-linecap="round" stroke-linejoin="round"/>
  <polyline points="60.0,211.1 89.2,210.2 118.3,209.7 147.5,209.2 176.7,208.7 205.8,208.3 235.0,207.9 264.2,207.5 293.3,207.0 322.5,206.2 351.7,205.0 380.8,204.1 410.0,203.2 439.2,202.5 468.3,201.9 497.5,201.0 526.7,200.3 555.8,199.9 585.0,199.6 614.2,199.4 643.3,199.3 672.5,199.0 701.7,198.9 730.8,198.9 760.0,198.7" fill="none" stroke="#3b82f6" stroke-width="5" opacity="0.1" stroke-linecap="round" stroke-linejoin="round"/>

  <!-- Noktalar -->
  <circle cx="60.0" cy="193.2" r="3" fill="#22c55e"/><circle cx="89.2" cy="192.5" r="3" fill="#22c55e"/><circle cx="118.3" cy="192.0" r="3" fill="#22c55e"/><circle cx="147.5" cy="191.6" r="3" fill="#22c55e"/><circle cx="176.7" cy="191.1" r="3" fill="#22c55e"/><circle cx="205.8" cy="190.8" r="3" fill="#22c55e"/><circle cx="235.0" cy="190.4" r="3" fill="#22c55e"/><circle cx="264.2" cy="190.1" r="3" fill="#22c55e"/><circle cx="293.3" cy="189.6" r="3" fill="#22c55e"/><circle cx="322.5" cy="188.8" r="3" fill="#22c55e"/><circle cx="351.7" cy="187.8" r="3" fill="#22c55e"/><circle cx="380.8" cy="187.0" r="3" fill="#22c55e"/><circle cx="410.0" cy="186.2" r="3" fill="#22c55e"/><circle cx="439.2" cy="185.6" r="3" fill="#22c55e"/><circle cx="468.3" cy="185.0" r="3" fill="#22c55e"/><circle cx="497.5" cy="184.3" r="3" fill="#22c55e"/><circle cx="526.7" cy="183.6" r="3" fill="#22c55e"/><circle cx="555.8" cy="183.2" r="3" fill="#22c55e"/><circle cx="585.0" cy="182.9" r="3" fill="#22c55e"/><circle cx="614.2" cy="182.7" r="3" fill="#22c55e"/><circle cx="643.3" cy="182.7" r="3" fill="#22c55e"/><circle cx="672.5" cy="182.4" r="3" fill="#22c55e"/><circle cx="701.7" cy="182.3" r="3" fill="#22c55e"/><circle cx="730.8" cy="182.3" r="3" fill="#22c55e"/><circle cx="760.0" cy="182.2" r="3" fill="#22c55e"/>
  <circle cx="60.0" cy="211.1" r="3" fill="#3b82f6"/><circle cx="89.2" cy="210.2" r="3" fill="#3b82f6"/><circle cx="118.3" cy="209.7" r="3" fill="#3b82f6"/><circle cx="147.5" cy="209.2" r="3" fill="#3b82f6"/><circle cx="176.7" cy="208.7" r="3" fill="#3b82f6"/><circle cx="205.8" cy="208.3" r="3" fill="#3b82f6"/><circle cx="235.0" cy="207.9" r="3" fill="#3b82f6"/><circle cx="264.2" cy="207.5" r="3" fill="#3b82f6"/><circle cx="293.3" cy="207.0" r="3" fill="#3b82f6"/><circle cx="322.5" cy="206.2" r="3" fill="#3b82f6"/><circle cx="351.7" cy="205.0" r="3" fill="#3b82f6"/><circle cx="380.8" cy="204.1" r="3" fill="#3b82f6"/><circle cx="410.0" cy="203.2" r="3" fill="#3b82f6"/><circle cx="439.2" cy="202.5" r="3" fill="#3b82f6"/><circle cx="468.3" cy="201.9" r="3" fill="#3b82f6"/><circle cx="497.5" cy="201.0" r="3" fill="#3b82f6"/><circle cx="526.7" cy="200.3" r="3" fill="#3b82f6"/><circle cx="555.8" cy="199.9" r="3" fill="#3b82f6"/><circle cx="585.0" cy="199.6" r="3" fill="#3b82f6"/><circle cx="614.2" cy="199.4" r="3" fill="#3b82f6"/><circle cx="643.3" cy="199.3" r="3" fill="#3b82f6"/><circle cx="672.5" cy="199.0" r="3" fill="#3b82f6"/><circle cx="701.7" cy="198.9" r="3" fill="#3b82f6"/><circle cx="730.8" cy="198.9" r="3" fill="#3b82f6"/><circle cx="760.0" cy="198.7" r="3" fill="#3b82f6"/>

  <!-- X ekseni -->
  <text x="60.0" y="380" text-anchor="middle" font-size="10" fill="#888">14.05 00:00</text>
  <text x="176.7" y="380" text-anchor="middle" font-size="10" fill="#888">18.05 00:00</text>
  <text x="293.3" y="380" text-anchor="middle" font-size="10" fill="#888">22.05 00:00</text>
  <text x="410.0" y="380" text-anchor="middle" font-size="10" fill="#888">26.05 00:00</text>
  <text x="526.7" y="380" text-anchor="middle" font-size="10" fill="#888">30.05 00:00</text>
  <text x="643.3" y="380" text-anchor="middle" font-size="10" fill="#888">03.06 00:00</text>
  <text x="760.0" y="380" text-anchor="middle" font-size="10" fill="#888">07.06 00:00</text>

  <!-- Legend -->
  <g transform="translate(60, 345)">
    <rect x="0" y="0" width="12" height="12" fill="#22c55e" rx="2"/>
    <text x="18" y="10" font-size="11" fill="#c9d1d9">Toplam Doluluk</text>
    <rect x="140" y="0" width="12" height="12" fill="#3b82f6" rx="2"/>
    <text x="158" y="10" font-size="11" fill="#c9d1d9">Aktif Doluluk</text>
  </g>
</svg>