<svg xmlns="http://www.w3.org/2000/svg" viewBox="0 0 900 400" width="100%" style="max-width:900px;">
  <rect width="900" height="400" fill="#0d1117" rx="6"/>
  <text x="450.0" y="25" text-anchor="middle" font-size="16" font-weight="bold" fill="#c9d1d9">Son 360 Gün - Günlük Ortalama</text>

  <!-- Y grid -->
  <line x1="60" y1="320.0" x2="860" y2="320.0" stroke="#333" stroke-width="1" stroke-dasharray="4,4" opacity="0.5"/>
  <text x="50" y="320.0" text-anchor="end" dominant-baseline="middle" font-size="10" fill="#888">0%</text>
  <line x1="60" y1="264.0" x2="860" y2="264.0" stroke="#333" stroke-width="1" stroke-dasharray="4,4" opacity="0.5"/>
  <text x="50" y="264.0" text-anchor="end" dominant-baseline="middle" font-size="10" fill="#888">20%</text>
  <line x1="60" y1="208.0" x2="860" y2="208.0" stroke="#333" stroke-width="1" stroke-dasharray="4,4" opacity="0.5"/>
  <text x="50" y="208.0" text-anchor="end" dominant-baseline="middle" font-size="10" fill="#888">40%</text>
  <line x1="60" y1="152.0" x2="860" y2="152.0" stroke="#333" stroke-width="1" stroke-dasharray="4,4" opacity="0.5"/>
  <text x="50" y="152.0" text-anchor="end" dominant-baseline="middle" font-size="10" fill="#888">60%</text>
  <line x1="60" y1="96.0" x2="860" y2="96.0" stroke="#333" stroke-width="1" stroke-dasharray="4,4" opacity="0.5"/>
  <text x="50" y="96.0" text-anchor="end" dominant-baseline="middle" font-size="10" fill="#888">80%</text>
  <line x1="60" y1="40.0" x2="860" y2="40.0" stroke="#333" stroke-width="1" stroke-dasharray="4,4" opacity="0.5"/>
  <text x="50" y="40.0" text-anchor="end" dominant-baseline="middle" font-size="10" fill="#888">100%</text>

  <!-- Referans çizgileri -->
  <line x1="60" y1="236.0" x2="860" y2="236.0" stroke="#ef4444" stroke-width="1" stroke-dasharray="2,2" opacity="0.7"/>
  <text x="845" y="236.0" dominant-baseline="middle" font-size="9" fill="#ef4444">Kritik (30%)</text>
  <line x1="60" y1="180.0" x2="860" y2="180.0" stroke="#eab308" stroke-width="1" stroke-dasharray="2,2" opacity="0.7"/>
  <text x="845" y="180.0" dominant-baseline="middle" font-size="9" fill="#eab308">Normal (50%)</text>

  <!-- Toplam doluluk -->
  <polyline points="60.0,193.2 77.4,192.5 94.8,192.0 112.2,191.6 129.6,191.1 147.0,190.8 164.3,190.4 181.7,190.1 199.1,189.6 216.5,188.8 233.9,187.8 251.3,187.0 268.7,186.2 286.1,185.6 303.5,185.0 320.9,184.3 338.3,183.6 355.7,183.2 373.0,182.9 390.4,182.7 407.8,182.7 425.2,182.4 442.6,182.3 460.0,182.3 477.4,182.2 494.8,182.2 512.2,182.2 529.6,182.2 547.0,182.3 564.3,182.4 581.7,182.5 599.1,182.6 616.5,182.7 633.9,182.9 651.3,183.1 668.7,183.2 686.1,183.3 703.5,183.4 720.9,183.5 738.3,183.7 755.7,183.9 773.0,184.2 790.4,184.4 807.8,184.7 825.2,185.0 842.6,185.3 860.0,185.6" fill="none" stroke="#22c55e" stroke-width="2.5" stroke-linecap="round" stroke-linejoin="round"/>
  <polyline points="60.0,193.2 77.4,192.5 94.8,192.0 112.2,191.6 129.6,191.1 147.0,190.8 164.3,190.4 181.7,190.1 199.1,189.6 216.5,188.8 233.9,187.8 251.3,187.0 268.7,186.2 286.1,185.6 303.5,185.0 320.9,184.3 338.3,183.6 355.7,183.2 373.0,182.9 390.4,182.7 407.8,182.7 425.2,182.4 442.6,182.3 460.0,182.3 477.4,182.2 494.8,182.2 512.2,182.2 529.6,182.2 547.0,182.3 564.3,182.4 581.7,182.5 599.1,182.6 616.5,182.7 633.9,182.9 651.3,183.1 668.7,183.2 686.1,183.3 703.5,183.4 720.9,183.5 738.3,183.7 755.7,183.9 773.0,184.2 790.4,184.4 807.8,184.7 825.2,185.0 842.6,185.3 860.0,185.6" fill="none" stroke="#22c55e" stroke-width="5" opacity="0.1" stroke-linecap="round" stroke-linejoin="round"/>

  <!-- Aktif doluluk -->
  <polyline points="60.0,211.1 77.4,210.2 94.8,209.7 112.2,209.2 129.6,208.7 147.0,208.3 164.3,207.9 181.7,207.5 199.1,207.0 216.5,206.2 233.9,205.0 251.3,204.1 268.7,203.2 286.1,202.5 303.5,201.9 320.9,201.0 338.3,200.3 355.7,199.9 373.0,199.6 390.4,199.4 407.8,199.3 425.2,199.0 442.6,198.9 460.0,198.9 477.4,198.7 494.8,198.7 512.2,198.8 529.6,198.8 547.0,198.8 564.3,198.9 581.7,199.0 599.1,199.2 616.5,199.4 633.9,199.5 651.3,199.7 668.7,199.8 686.1,200.0 703.5,200.1 720.9,200.2 738.3,200.4 755.7,200.7 773.0,201.0 790.4,201.3 807.8,201.6 825.2,201.8 842.6,202.2 860.0,202.6" fill="none" stroke="#3b82f6" stroke-width="2.5" stroke-linecap="round" stroke-linejoin="round"/>
  <polyline points="60.0,211.1 77.4,210.2 94.8,209.7 112.2,209.2 129.6,208.7 147.0,208.3 164.3,207.9 181.7,207.5 199.1,207.0 216.5,206.2 233.9,205.0 251.3,204.1 268.7,203.2 286.1,202.5 303.5,201.9 320.9,201.0 338.3,200.3 355.7,199.9 373.0,199.6 390.4,199.4 407.8,199.3 425.2,199.0 442.6,198.9 460.0,198.9 477.4,198.7 494.8,198.7 512.2,198.8 529.6,198.8 547.0,198.8 564.3,198.9 581.7,199.0 599.1,199.2 616.5,199.4 633.9,199.5 651.3,199.7 668.7,199.8 686.1,200.0 703.5,200.1 720.9,200.2 738.3,200.4 755.7,200.7 773.0,201.0 790.4,201.3 807.8,201.6 825.2,201.8 842.6,202.2 860.0,202.6" fill="none" stroke="#3b82f6" stroke-width="5" opacity="0.1" stroke-linecap="round" stroke-linejoin="round"/>

  <!-- Noktalar -->
  <circle cx="60.0" cy="193.2" r="3" fill="#22c55e"/><circle cx="77.4" cy="192.5" r="3" fill="#22c55e"/><circle cx="94.8" cy="192.0" r="3" fill="#22c55e"/><circle cx="112.2" cy="191.6" r="3" fill="#22c55e"/><circle cx="129.6" cy="191.1" r="3" fill="#22c55e"/><circle cx="147.0" cy="190.8" r="3" fill="#22c55e"/><circle cx="164.3" cy="190.4" r="3" fill="#22c55e"/><circle cx="181.7" cy="190.1" r="3" fill="#22c55e"/><circle cx="199.1" cy="189.6" r="3" fill="#22c55e"/><circle cx="216.5" cy="188.8" r="3" fill="#22c55e"/><circle cx="233.9" cy="187.8" r="3" fill="#22c55e"/><circle cx="251.3" cy="187.0" r="3" fill="#22c55e"/><circle cx="268.7" cy="186.2" r="3" fill="#22c55e"/><circle cx="286.1" cy="185.6" r="3" fill="#22c55e"/><circle cx="303.5" cy="185.0" r="3" fill="#22c55e"/><circle cx="320.9" cy="184.3" r="3" fill="#22c55e"/><circle cx="338.3" cy="183.6" r="3" fill="#22c55e"/><circle cx="355.7" cy="183.2" r="3" fill="#22c55e"/><circle cx="373.0" cy="182.9" r="3" fill="#22c55e"/><circle cx="390.4" cy="182.7" r="3" fill="#22c55e"/><circle cx="407.8" cy="182.7" r="3" fill="#22c55e"/><circle cx="425.2" cy="182.4" r="3" fill="#22c55e"/><circle cx="442.6" cy="182.3" r="3" fill="#22c55e"/><circle cx="460.0" cy="182.3" r="3" fill="#22c55e"/><circle cx="477.4" cy="182.2" r="3" fill="#22c55e"/><circle cx="494.8" cy="182.2" r="3" fill="#22c55e"/><circle cx="512.2" cy="182.2" r="3" fill="#22c55e"/><circle cx="529.6" cy="182.2" r="3" fill="#22c55e"/><circle cx="547.0" cy="182.3" r="3" fill="#22c55e"/><circle cx="564.3" cy="182.4" r="3" fill="#22c55e"/><circle cx="581.7" cy="182.5" r="3" fill="#22c55e"/><circle cx="599.1" cy="182.6" r="3" fill="#22c55e"/><circle cx="616.5" cy="182.7" r="3" fill="#22c55e"/><circle cx="633.9" cy="182.9" r="3" fill="#22c55e"/><circle cx="651.3" cy="183.1" r="3" fill="#22c55e"/><circle cx="668.7" cy="183.2" r="3" fill="#22c55e"/><circle cx="686.1" cy="183.3" r="3" fill="#22c55e"/><circle cx="703.5" cy="183.4" r="3" fill="#22c55e"/><circle cx="720.9" cy="183.5" r="3" fill="#22c55e"/><circle cx="738.3" cy="183.7" r="3" fill="#22c55e"/><circle cx="755.7" cy="183.9" r="3" fill="#22c55e"/><circle cx="773.0" cy="184.2" r="3" fill="#22c55e"/><circle cx="790.4" cy="184.4" r="3" fill="#22c55e"/><circle cx="807.8" cy="184.7" r="3" fill="#22c55e"/><circle cx="825.2" cy="185.0" r="3" fill="#22c55e"/><circle cx="842.6" cy="185.3" r="3" fill="#22c55e"/><circle cx="860.0" cy="185.6" r="3" fill="#22c55e"/>
  <circle cx="60.0" cy="211.1" r="3" fill="#3b82f6"/><circle cx="77.4" cy="210.2" r="3" fill="#3b82f6"/><circle cx="94.8" cy="209.7" r="3" fill="#3b82f6"/><circle cx="112.2" cy="209.2" r="3" fill="#3b82f6"/><circle cx="129.6" cy="208.7" r="3" fill="#3b82f6"/><circle cx="147.0" cy="208.3" r="3" fill="#3b82f6"/><circle cx="164.3" cy="207.9" r="3" fill="#3b82f6"/><circle cx="181.7" cy="207.5" r="3" fill="#3b82f6"/><circle cx="199.1" cy="207.0" r="3" fill="#3b82f6"/><circle cx="216.5" cy="206.2" r="3" fill="#3b82f6"/><circle cx="233.9" cy="205.0" r="3" fill="#3b82f6"/><circle cx="251.3" cy="204.1" r="3" fill="#3b82f6"/><circle cx="268.7" cy="203.2" r="3" fill="#3b82f6"/><circle cx="286.1" cy="202.5" r="3" fill="#3b82f6"/><circle cx="303.5" cy="201.9" r="3" fill="#3b82f6"/><circle cx="320.9" cy="201.0" r="3" fill="#3b82f6"/><circle cx="338.3" cy="200.3" r="3" fill="#3b82f6"/><circle cx="355.7" cy="199.9" r="3" fill="#3b82f6"/><circle cx="373.0" cy="199.6" r="3" fill="#3b82f6"/><circle cx="390.4" cy="199.4" r="3" fill="#3b82f6"/><circle cx="407.8" cy="199.3" r="3" fill="#3b82f6"/><circle cx="425.2" cy="199.0" r="3" fill="#3b82f6"/><circle cx="442.6" cy="198.9" r="3" fill="#3b82f6"/><circle cx="460.0" cy="198.9" r="3" fill="#3b82f6"/><circle cx="477.4" cy="198.7" r="3" fill="#3b82f6"/><circle cx="494.8" cy="198.7" r="3" fill="#3b82f6"/><circle cx="512.2" cy="198.8" r="3" fill="#3b82f6"/><circle cx="529.6" cy="198.8" r="3" fill="#3b82f6"/><circle cx="547.0" cy="198.8" r="3" fill="#3b82f6"/><circle cx="564.3" cy="198.9" r="3" fill="#3b82f6"/><circle cx="581.7" cy="199.0" r="3" fill="#3b82f6"/><circle cx="599.1" cy="199.2" r="3" fill="#3b82f6"/><circle cx="616.5" cy="199.4" r="3" fill="#3b82f6"/><circle cx="633.9" cy="199.5" r="3" fill="#3b82f6"/><circle cx="651.3" cy="199.7" r="3" fill="#3b82f6"/><circle cx="668.7" cy="199.8" r="3" fill="#3b82f6"/><circle cx="686.1" cy="200.0" r="3" fill="#3b82f6"/><circle cx="703.5" cy="200.1" r="3" fill="#3b82f6"/><circle cx="720.9" cy="200.2" r="3" fill="#3b82f6"/><circle cx="738.3" cy="200.4" r="3" fill="#3b82f6"/><circle cx="755.7" cy="200.7" r="3" fill="#3b82f6"/><circle cx="773.0" cy="201.0" r="3" fill="#3b82f6"/><circle cx="790.4" cy="201.3" r="3" fill="#3b82f6"/><circle cx="807.8" cy="201.6" r="3" fill="#3b82f6"/><circle cx="825.2" cy="201.8" r="3" fill="#3b82f6"/><circle cx="842.6" cy="202.2" r="3" fill="#3b82f6"/><circle cx="860.0" cy="202.6" r="3" fill="#3b82f6"/>

  <!-- X ekseni -->
  <text x="60.0" y="380" text-anchor="middle" font-size="10" fill="#888">14.05.2026</text>
  <text x="181.7" y="380" text-anchor="middle" font-size="10" fill="#888">21.05.2026</text>
  <text x="303.5" y="380" text-anchor="middle" font-size="10" fill="#888">28.05.2026</text>
  <text x="425.2" y="380" text-anchor="middle" font-size="10" fill="#888">04.06.2026</text>
  <text x="547.0" y="380" text-anchor="middle" font-size="10" fill="#888">11.06.2026</text>
  <text x="668.7" y="380" text-anchor="middle" font-size="10" fill="#888">18.06.2026</text>
  <text x="790.4" y="380" text-anchor="middle" font-size="10" fill="#888">25.06.2026</text>

  <!-- Legend -->
  <g transform="translate(60, 345)">
    <rect x="0" y="0" width="12" height="12" fill="#22c55e" rx="2"/>
    <text x="18" y="10" font-size="11" fill="#c9d1d9">Toplam Doluluk</text>
    <rect x="140" y="0" width="12" height="12" fill="#3b82f6" rx="2"/>
    <text x="158" y="10" font-size="11" fill="#c9d1d9">Aktif Doluluk</text>
  </g>
</svg>