<svg xmlns="http://www.w3.org/2000/svg" viewBox="0 0 900 400" width="100%" style="max-width:900px;">
  <rect width="900" height="400" fill="#0d1117" rx="6"/>
  <text x="450.0" y="25" text-anchor="middle" font-size="16" font-weight="bold" fill="#c9d1d9">Son 360 Gün - Günlük Ortalama</text>

  <!-- Y grid -->
  <line x1="60" y1="320.0" x2="860" y2="320.0" stroke="#333" stroke-width="1" stroke-dasharray="4,4" opacity="0.5"/>
  <text x="50" y="320.0" text-anchor="end" dominant-baseline="middle" font-size="10" fill="#888">0%</text>
  <line x1="60" y1="264.0" x2="860" y2="264.0" stroke="#333" stroke-width="1" stroke-dasharray="4,4" opacity="0.5"/>
  <text x="50" y="264.0" text-anchor="end" dominant-baseline="middle" font-size="10" fill="#888">20%</text>
  <line x1="60" y1="208.0" x2="860" y2="208.0" stroke="#333" stroke-width="1" stroke-dasharray="4,4" opacity="0.5"/>
  <text x="50" y="208.0" text-anchor="end" dominant-baseline="middle" font-size="10" fill="#888">40%</text>
  <line x1="60" y1="152.0" x2="860" y2="152.0" stroke="#333" stroke-width="1" stroke-dasharray="4,4" opacity="0.5"/>
  <text x="50" y="152.0" text-anchor="end" dominant-baseline="middle" font-size="10" fill="#888">60%</text>
  <line x1="60" y1="96.0" x2="860" y2="96.0" stroke="#333" stroke-width="1" stroke-dasharray="4,4" opacity="0.5"/>
  <text x="50" y="96.0" text-anchor="end" dominant-baseline="middle" font-size="10" fill="#888">80%</text>
  <line x1="60" y1="40.0" x2="860" y2="40.0" stroke="#333" stroke-width="1" stroke-dasharray="4,4" opacity="0.5"/>
  <text x="50" y="40.0" text-anchor="end" dominant-baseline="middle" font-size="10" fill="#888">100%</text>

  <!-- Referans çizgileri -->
  <line x1="60" y1="236.0" x2="860" y2="236.0" stroke="#ef4444" stroke-width="1" stroke-dasharray="2,2" opacity="0.7"/>
  <text x="845" y="236.0" dominant-baseline="middle" font-size="9" fill="#ef4444">Kritik (30%)</text>
  <line x1="60" y1="180.0" x2="860" y2="180.0" stroke="#eab308" stroke-width="1" stroke-dasharray="2,2" opacity="0.7"/>
  <text x="845" y="180.0" dominant-baseline="middle" font-size="9" fill="#eab308">Normal (50%)</text>

  <!-- Toplam doluluk -->
  <polyline points="60.0,193.2 71.8,192.5 83.5,192.0 95.3,191.6 107.1,191.1 118.8,190.8 130.6,190.4 142.4,190.1 154.1,189.6 165.9,188.8 177.6,187.8 189.4,187.0 201.2,186.2 212.9,185.6 224.7,185.0 236.5,184.3 248.2,183.6 260.0,183.2 271.8,182.9 283.5,182.7 295.3,182.7 307.1,182.4 318.8,182.3 330.6,182.3 342.4,182.2 354.1,182.2 365.9,182.2 377.6,182.2 389.4,182.3 401.2,182.4 412.9,182.5 424.7,182.6 436.5,182.7 448.2,182.9 460.0,183.1 471.8,183.2 483.5,183.3 495.3,183.4 507.1,183.5 518.8,183.7 530.6,183.9 542.4,184.2 554.1,184.4 565.9,184.7 577.6,185.0 589.4,185.3 601.2,185.6 612.9,186.0 624.7,186.3 636.5,186.6 648.2,187.0 660.0,187.3 671.8,187.6 683.5,188.0 695.3,188.3 707.1,188.6 718.8,189.0 730.6,189.3 742.4,189.6 754.1,189.9 765.9,190.2 777.6,190.5 789.4,190.8 801.2,191.1 812.9,191.4 824.7,191.6 836.5,192.0 848.2,192.3 860.0,192.6" fill="none" stroke="#22c55e" stroke-width="2.5" stroke-linecap="round" stroke-linejoin="round"/>
  <polyline points="60.0,193.2 71.8,192.5 83.5,192.0 95.3,191.6 107.1,191.1 118.8,190.8 130.6,190.4 142.4,190.1 154.1,189.6 165.9,188.8 177.6,187.8 189.4,187.0 201.2,186.2 212.9,185.6 224.7,185.0 236.5,184.3 248.2,183.6 260.0,183.2 271.8,182.9 283.5,182.7 295.3,182.7 307.1,182.4 318.8,182.3 330.6,182.3 342.4,182.2 354.1,182.2 365.9,182.2 377.6,182.2 389.4,182.3 401.2,182.4 412.9,182.5 424.7,182.6 436.5,182.7 448.2,182.9 460.0,183.1 471.8,183.2 483.5,183.3 495.3,183.4 507.1,183.5 518.8,183.7 530.6,183.9 542.4,184.2 554.1,184.4 565.9,184.7 577.6,185.0 589.4,185.3 601.2,185.6 612.9,186.0 624.7,186.3 636.5,186.6 648.2,187.0 660.0,187.3 671.8,187.6 683.5,188.0 695.3,188.3 707.1,188.6 718.8,189.0 730.6,189.3 742.4,189.6 754.1,189.9 765.9,190.2 777.6,190.5 789.4,190.8 801.2,191.1 812.9,191.4 824.7,191.6 836.5,192.0 848.2,192.3 860.0,192.6" fill="none" stroke="#22c55e" stroke-width="5" opacity="0.1" stroke-linecap="round" stroke-linejoin="round"/>

  <!-- Aktif doluluk -->
  <polyline points="60.0,211.1 71.8,210.2 83.5,209.7 95.3,209.2 107.1,208.7 118.8,208.3 130.6,207.9 142.4,207.5 154.1,207.0 165.9,206.2 177.6,205.0 189.4,204.1 201.2,203.2 212.9,202.5 224.7,201.9 236.5,201.0 248.2,200.3 260.0,199.9 271.8,199.6 283.5,199.4 295.3,199.3 307.1,199.0 318.8,198.9 330.6,198.9 342.4,198.7 354.1,198.7 365.9,198.8 377.6,198.8 389.4,198.8 401.2,198.9 412.9,199.0 424.7,199.2 436.5,199.4 448.2,199.5 460.0,199.7 471.8,199.8 483.5,200.0 495.3,200.1 507.1,200.2 518.8,200.4 530.6,200.7 542.4,201.0 554.1,201.3 565.9,201.6 577.6,201.8 589.4,202.2 601.2,202.6 612.9,203.0 624.7,203.3 636.5,203.7 648.2,204.1 660.0,204.4 671.8,204.8 683.5,205.2 695.3,205.5 707.1,205.9 718.8,206.3 730.6,206.7 742.4,207.0 754.1,207.4 765.9,207.7 777.6,208.0 789.4,208.3 801.2,208.7 812.9,209.0 824.7,209.3 836.5,209.7 848.2,210.0 860.0,210.4" fill="none" stroke="#3b82f6" stroke-width="2.5" stroke-linecap="round" stroke-linejoin="round"/>
  <polyline points="60.0,211.1 71.8,210.2 83.5,209.7 95.3,209.2 107.1,208.7 118.8,208.3 130.6,207.9 142.4,207.5 154.1,207.0 165.9,206.2 177.6,205.0 189.4,204.1 201.2,203.2 212.9,202.5 224.7,201.9 236.5,201.0 248.2,200.3 260.0,199.9 271.8,199.6 283.5,199.4 295.3,199.3 307.1,199.0 318.8,198.9 330.6,198.9 342.4,198.7 354.1,198.7 365.9,198.8 377.6,198.8 389.4,198.8 401.2,198.9 412.9,199.0 424.7,199.2 436.5,199.4 448.2,199.5 460.0,199.7 471.8,199.8 483.5,200.0 495.3,200.1 507.1,200.2 518.8,200.4 530.6,200.7 542.4,201.0 554.1,201.3 565.9,201.6 577.6,201.8 589.4,202.2 601.2,202.6 612.9,203.0 624.7,203.3 636.5,203.7 648.2,204.1 660.0,204.4 671.8,204.8 683.5,205.2 695.3,205.5 707.1,205.9 718.8,206.3 730.6,206.7 742.4,207.0 754.1,207.4 765.9,207.7 777.6,208.0 789.4,208.3 801.2,208.7 812.9,209.0 824.7,209.3 836.5,209.7 848.2,210.0 860.0,210.4" fill="none" stroke="#3b82f6" stroke-width="5" opacity="0.1" stroke-linecap="round" stroke-linejoin="round"/>

  <!-- Noktalar -->
  <circle cx="60.0" cy="193.2" r="3" fill="#22c55e"/><circle cx="71.8" cy="192.5" r="3" fill="#22c55e"/><circle cx="83.5" cy="192.0" r="3" fill="#22c55e"/><circle cx="95.3" cy="191.6" r="3" fill="#22c55e"/><circle cx="107.1" cy="191.1" r="3" fill="#22c55e"/><circle cx="118.8" cy="190.8" r="3" fill="#22c55e"/><circle cx="130.6" cy="190.4" r="3" fill="#22c55e"/><circle cx="142.4" cy="190.1" r="3" fill="#22c55e"/><circle cx="154.1" cy="189.6" r="3" fill="#22c55e"/><circle cx="165.9" cy="188.8" r="3" fill="#22c55e"/><circle cx="177.6" cy="187.8" r="3" fill="#22c55e"/><circle cx="189.4" cy="187.0" r="3" fill="#22c55e"/><circle cx="201.2" cy="186.2" r="3" fill="#22c55e"/><circle cx="212.9" cy="185.6" r="3" fill="#22c55e"/><circle cx="224.7" cy="185.0" r="3" fill="#22c55e"/><circle cx="236.5" cy="184.3" r="3" fill="#22c55e"/><circle cx="248.2" cy="183.6" r="3" fill="#22c55e"/><circle cx="260.0" cy="183.2" r="3" fill="#22c55e"/><circle cx="271.8" cy="182.9" r="3" fill="#22c55e"/><circle cx="283.5" cy="182.7" r="3" fill="#22c55e"/><circle cx="295.3" cy="182.7" r="3" fill="#22c55e"/><circle cx="307.1" cy="182.4" r="3" fill="#22c55e"/><circle cx="318.8" cy="182.3" r="3" fill="#22c55e"/><circle cx="330.6" cy="182.3" r="3" fill="#22c55e"/><circle cx="342.4" cy="182.2" r="3" fill="#22c55e"/><circle cx="354.1" cy="182.2" r="3" fill="#22c55e"/><circle cx="365.9" cy="182.2" r="3" fill="#22c55e"/><circle cx="377.6" cy="182.2" r="3" fill="#22c55e"/><circle cx="389.4" cy="182.3" r="3" fill="#22c55e"/><circle cx="401.2" cy="182.4" r="3" fill="#22c55e"/><circle cx="412.9" cy="182.5" r="3" fill="#22c55e"/><circle cx="424.7" cy="182.6" r="3" fill="#22c55e"/><circle cx="436.5" cy="182.7" r="3" fill="#22c55e"/><circle cx="448.2" cy="182.9" r="3" fill="#22c55e"/><circle cx="460.0" cy="183.1" r="3" fill="#22c55e"/><circle cx="471.8" cy="183.2" r="3" fill="#22c55e"/><circle cx="483.5" cy="183.3" r="3" fill="#22c55e"/><circle cx="495.3" cy="183.4" r="3" fill="#22c55e"/><circle cx="507.1" cy="183.5" r="3" fill="#22c55e"/><circle cx="518.8" cy="183.7" r="3" fill="#22c55e"/><circle cx="530.6" cy="183.9" r="3" fill="#22c55e"/><circle cx="542.4" cy="184.2" r="3" fill="#22c55e"/><circle cx="554.1" cy="184.4" r="3" fill="#22c55e"/><circle cx="565.9" cy="184.7" r="3" fill="#22c55e"/><circle cx="577.6" cy="185.0" r="3" fill="#22c55e"/><circle cx="589.4" cy="185.3" r="3" fill="#22c55e"/><circle cx="601.2" cy="185.6" r="3" fill="#22c55e"/><circle cx="612.9" cy="186.0" r="3" fill="#22c55e"/><circle cx="624.7" cy="186.3" r="3" fill="#22c55e"/><circle cx="636.5" cy="186.6" r="3" fill="#22c55e"/><circle cx="648.2" cy="187.0" r="3" fill="#22c55e"/><circle cx="660.0" cy="187.3" r="3" fill="#22c55e"/><circle cx="671.8" cy="187.6" r="3" fill="#22c55e"/><circle cx="683.5" cy="188.0" r="3" fill="#22c55e"/><circle cx="695.3" cy="188.3" r="3" fill="#22c55e"/><circle cx="707.1" cy="188.6" r="3" fill="#22c55e"/><circle cx="718.8" cy="189.0" r="3" fill="#22c55e"/><circle cx="730.6" cy="189.3" r="3" fill="#22c55e"/><circle cx="742.4" cy="189.6" r="3" fill="#22c55e"/><circle cx="754.1" cy="189.9" r="3" fill="#22c55e"/><circle cx="765.9" cy="190.2" r="3" fill="#22c55e"/><circle cx="777.6" cy="190.5" r="3" fill="#22c55e"/><circle cx="789.4" cy="190.8" r="3" fill="#22c55e"/><circle cx="801.2" cy="191.1" r="3" fill="#22c55e"/><circle cx="812.9" cy="191.4" r="3" fill="#22c55e"/><circle cx="824.7" cy="191.6" r="3" fill="#22c55e"/><circle cx="836.5" cy="192.0" r="3" fill="#22c55e"/><circle cx="848.2" cy="192.3" r="3" fill="#22c55e"/><circle cx="860.0" cy="192.6" r="3" fill="#22c55e"/>
  <circle cx="60.0" cy="211.1" r="3" fill="#3b82f6"/><circle cx="71.8" cy="210.2" r="3" fill="#3b82f6"/><circle cx="83.5" cy="209.7" r="3" fill="#3b82f6"/><circle cx="95.3" cy="209.2" r="3" fill="#3b82f6"/><circle cx="107.1" cy="208.7" r="3" fill="#3b82f6"/><circle cx="118.8" cy="208.3" r="3" fill="#3b82f6"/><circle cx="130.6" cy="207.9" r="3" fill="#3b82f6"/><circle cx="142.4" cy="207.5" r="3" fill="#3b82f6"/><circle cx="154.1" cy="207.0" r="3" fill="#3b82f6"/><circle cx="165.9" cy="206.2" r="3" fill="#3b82f6"/><circle cx="177.6" cy="205.0" r="3" fill="#3b82f6"/><circle cx="189.4" cy="204.1" r="3" fill="#3b82f6"/><circle cx="201.2" cy="203.2" r="3" fill="#3b82f6"/><circle cx="212.9" cy="202.5" r="3" fill="#3b82f6"/><circle cx="224.7" cy="201.9" r="3" fill="#3b82f6"/><circle cx="236.5" cy="201.0" r="3" fill="#3b82f6"/><circle cx="248.2" cy="200.3" r="3" fill="#3b82f6"/><circle cx="260.0" cy="199.9" r="3" fill="#3b82f6"/><circle cx="271.8" cy="199.6" r="3" fill="#3b82f6"/><circle cx="283.5" cy="199.4" r="3" fill="#3b82f6"/><circle cx="295.3" cy="199.3" r="3" fill="#3b82f6"/><circle cx="307.1" cy="199.0" r="3" fill="#3b82f6"/><circle cx="318.8" cy="198.9" r="3" fill="#3b82f6"/><circle cx="330.6" cy="198.9" r="3" fill="#3b82f6"/><circle cx="342.4" cy="198.7" r="3" fill="#3b82f6"/><circle cx="354.1" cy="198.7" r="3" fill="#3b82f6"/><circle cx="365.9" cy="198.8" r="3" fill="#3b82f6"/><circle cx="377.6" cy="198.8" r="3" fill="#3b82f6"/><circle cx="389.4" cy="198.8" r="3" fill="#3b82f6"/><circle cx="401.2" cy="198.9" r="3" fill="#3b82f6"/><circle cx="412.9" cy="199.0" r="3" fill="#3b82f6"/><circle cx="424.7" cy="199.2" r="3" fill="#3b82f6"/><circle cx="436.5" cy="199.4" r="3" fill="#3b82f6"/><circle cx="448.2" cy="199.5" r="3" fill="#3b82f6"/><circle cx="460.0" cy="199.7" r="3" fill="#3b82f6"/><circle cx="471.8" cy="199.8" r="3" fill="#3b82f6"/><circle cx="483.5" cy="200.0" r="3" fill="#3b82f6"/><circle cx="495.3" cy="200.1" r="3" fill="#3b82f6"/><circle cx="507.1" cy="200.2" r="3" fill="#3b82f6"/><circle cx="518.8" cy="200.4" r="3" fill="#3b82f6"/><circle cx="530.6" cy="200.7" r="3" fill="#3b82f6"/><circle cx="542.4" cy="201.0" r="3" fill="#3b82f6"/><circle cx="554.1" cy="201.3" r="3" fill="#3b82f6"/><circle cx="565.9" cy="201.6" r="3" fill="#3b82f6"/><circle cx="577.6" cy="201.8" r="3" fill="#3b82f6"/><circle cx="589.4" cy="202.2" r="3" fill="#3b82f6"/><circle cx="601.2" cy="202.6" r="3" fill="#3b82f6"/><circle cx="612.9" cy="203.0" r="3" fill="#3b82f6"/><circle cx="624.7" cy="203.3" r="3" fill="#3b82f6"/><circle cx="636.5" cy="203.7" r="3" fill="#3b82f6"/><circle cx="648.2" cy="204.1" r="3" fill="#3b82f6"/><circle cx="660.0" cy="204.4" r="3" fill="#3b82f6"/><circle cx="671.8" cy="204.8" r="3" fill="#3b82f6"/><circle cx="683.5" cy="205.2" r="3" fill="#3b82f6"/><circle cx="695.3" cy="205.5" r="3" fill="#3b82f6"/><circle cx="707.1" cy="205.9" r="3" fill="#3b82f6"/><circle cx="718.8" cy="206.3" r="3" fill="#3b82f6"/><circle cx="730.6" cy="206.7" r="3" fill="#3b82f6"/><circle cx="742.4" cy="207.0" r="3" fill="#3b82f6"/><circle cx="754.1" cy="207.4" r="3" fill="#3b82f6"/><circle cx="765.9" cy="207.7" r="3" fill="#3b82f6"/><circle cx="777.6" cy="208.0" r="3" fill="#3b82f6"/><circle cx="789.4" cy="208.3" r="3" fill="#3b82f6"/><circle cx="801.2" cy="208.7" r="3" fill="#3b82f6"/><circle cx="812.9" cy="209.0" r="3" fill="#3b82f6"/><circle cx="824.7" cy="209.3" r="3" fill="#3b82f6"/><circle cx="836.5" cy="209.7" r="3" fill="#3b82f6"/><circle cx="848.2" cy="210.0" r="3" fill="#3b82f6"/><circle cx="860.0" cy="210.4" r="3" fill="#3b82f6"/>

  <!-- X ekseni -->
  <text x="60.0" y="380" text-anchor="middle" font-size="10" fill="#888">14.05.2026</text>
  <text x="189.4" y="380" text-anchor="middle" font-size="10" fill="#888">25.05.2026</text>
  <text x="318.8" y="380" text-anchor="middle" font-size="10" fill="#888">05.06.2026</text>
  <text x="448.2" y="380" text-anchor="middle" font-size="10" fill="#888">16.06.2026</text>
  <text x="577.6" y="380" text-anchor="middle" font-size="10" fill="#888">27.06.2026</text>
  <text x="707.1" y="380" text-anchor="middle" font-size="10" fill="#888">08.07.2026</text>
  <text x="836.5" y="380" text-anchor="middle" font-size="10" fill="#888">19.07.2026</text>

  <!-- Legend -->
  <g transform="translate(60, 345)">
    <rect x="0" y="0" width="12" height="12" fill="#22c55e" rx="2"/>
    <text x="18" y="10" font-size="11" fill="#c9d1d9">Toplam Doluluk</text>
    <rect x="140" y="0" width="12" height="12" fill="#3b82f6" rx="2"/>
    <text x="158" y="10" font-size="11" fill="#c9d1d9">Aktif Doluluk</text>
  </g>
</svg>