<svg xmlns="http://www.w3.org/2000/svg" viewBox="0 0 900 400" width="100%" style="max-width:900px;">
  <rect width="900" height="400" fill="#0d1117" rx="6"/>
  <text x="450.0" y="25" text-anchor="middle" font-size="16" font-weight="bold" fill="#c9d1d9">Son 180 Gün - Günlük Ortalama</text>

  <!-- Y grid -->
  <line x1="60" y1="320.0" x2="860" y2="320.0" stroke="#333" stroke-width="1" stroke-dasharray="4,4" opacity="0.5"/>
  <text x="50" y="320.0" text-anchor="end" dominant-baseline="middle" font-size="10" fill="#888">0%</text>
  <line x1="60" y1="264.0" x2="860" y2="264.0" stroke="#333" stroke-width="1" stroke-dasharray="4,4" opacity="0.5"/>
  <text x="50" y="264.0" text-anchor="end" dominant-baseline="middle" font-size="10" fill="#888">20%</text>
  <line x1="60" y1="208.0" x2="860" y2="208.0" stroke="#333" stroke-width="1" stroke-dasharray="4,4" opacity="0.5"/>
  <text x="50" y="208.0" text-anchor="end" dominant-baseline="middle" font-size="10" fill="#888">40%</text>
  <line x1="60" y1="152.0" x2="860" y2="152.0" stroke="#333" stroke-width="1" stroke-dasharray="4,4" opacity="0.5"/>
  <text x="50" y="152.0" text-anchor="end" dominant-baseline="middle" font-size="10" fill="#888">60%</text>
  <line x1="60" y1="96.0" x2="860" y2="96.0" stroke="#333" stroke-width="1" stroke-dasharray="4,4" opacity="0.5"/>
  <text x="50" y="96.0" text-anchor="end" dominant-baseline="middle" font-size="10" fill="#888">80%</text>
  <line x1="60" y1="40.0" x2="860" y2="40.0" stroke="#333" stroke-width="1" stroke-dasharray="4,4" opacity="0.5"/>
  <text x="50" y="40.0" text-anchor="end" dominant-baseline="middle" font-size="10" fill="#888">100%</text>

  <!-- Referans çizgileri -->
  <line x1="60" y1="236.0" x2="860" y2="236.0" stroke="#ef4444" stroke-width="1" stroke-dasharray="2,2" opacity="0.7"/>
  <text x="845" y="236.0" dominant-baseline="middle" font-size="9" fill="#ef4444">Kritik (30%)</text>
  <line x1="60" y1="180.0" x2="860" y2="180.0" stroke="#eab308" stroke-width="1" stroke-dasharray="2,2" opacity="0.7"/>
  <text x="845" y="180.0" dominant-baseline="middle" font-size="9" fill="#eab308">Normal (50%)</text>

  <!-- Toplam doluluk -->
  <polyline points="60.0,193.2 83.5,192.5 107.1,192.0 130.6,191.6 154.1,191.1 177.6,190.8 201.2,190.4 224.7,190.1 248.2,189.6 271.8,188.8 295.3,187.8 318.8,187.0 342.4,186.2 365.9,185.6 389.4,185.0 412.9,184.3 436.5,183.6 460.0,183.2 483.5,182.9 507.1,182.7 530.6,182.7 554.1,182.4 577.6,182.3 601.2,182.3 624.7,182.2 648.2,182.2 671.8,182.2 695.3,182.2 718.8,182.3 742.4,182.4 765.9,182.5 789.4,182.6 812.9,182.7 836.5,182.9 860.0,183.1" fill="none" stroke="#22c55e" stroke-width="2.5" stroke-linecap="round" stroke-linejoin="round"/>
  <polyline points="60.0,193.2 83.5,192.5 107.1,192.0 130.6,191.6 154.1,191.1 177.6,190.8 201.2,190.4 224.7,190.1 248.2,189.6 271.8,188.8 295.3,187.8 318.8,187.0 342.4,186.2 365.9,185.6 389.4,185.0 412.9,184.3 436.5,183.6 460.0,183.2 483.5,182.9 507.1,182.7 530.6,182.7 554.1,182.4 577.6,182.3 601.2,182.3 624.7,182.2 648.2,182.2 671.8,182.2 695.3,182.2 718.8,182.3 742.4,182.4 765.9,182.5 789.4,182.6 812.9,182.7 836.5,182.9 860.0,183.1" fill="none" stroke="#22c55e" stroke-width="5" opacity="0.1" stroke-linecap="round" stroke-linejoin="round"/>

  <!-- Aktif doluluk -->
  <polyline points="60.0,211.1 83.5,210.2 107.1,209.7 130.6,209.2 154.1,208.7 177.6,208.3 201.2,207.9 224.7,207.5 248.2,207.0 271.8,206.2 295.3,205.0 318.8,204.1 342.4,203.2 365.9,202.5 389.4,201.9 412.9,201.0 436.5,200.3 460.0,199.9 483.5,199.6 507.1,199.4 530.6,199.3 554.1,199.0 577.6,198.9 601.2,198.9 624.7,198.7 648.2,198.7 671.8,198.8 695.3,198.8 718.8,198.8 742.4,198.9 765.9,199.0 789.4,199.2 812.9,199.4 836.5,199.5 860.0,199.7" fill="none" stroke="#3b82f6" stroke-width="2.5" stroke-linecap="round" stroke-linejoin="round"/>
  <polyline points="60.0,211.1 83.5,210.2 107.1,209.7 130.6,209.2 154.1,208.7 177.6,208.3 201.2,207.9 224.7,207.5 248.2,207.0 271.8,206.2 295.3,205.0 318.8,204.1 342.4,203.2 365.9,202.5 389.4,201.9 412.9,201.0 436.5,200.3 460.0,199.9 483.5,199.6 507.1,199.4 530.6,199.3 554.1,199.0 577.6,198.9 601.2,198.9 624.7,198.7 648.2,198.7 671.8,198.8 695.3,198.8 718.8,198.8 742.4,198.9 765.9,199.0 789.4,199.2 812.9,199.4 836.5,199.5 860.0,199.7" fill="none" stroke="#3b82f6" stroke-width="5" opacity="0.1" stroke-linecap="round" stroke-linejoin="round"/>

  <!-- Noktalar -->
  <circle cx="60.0" cy="193.2" r="3" fill="#22c55e"/><circle cx="83.5" cy="192.5" r="3" fill="#22c55e"/><circle cx="107.1" cy="192.0" r="3" fill="#22c55e"/><circle cx="130.6" cy="191.6" r="3" fill="#22c55e"/><circle cx="154.1" cy="191.1" r="3" fill="#22c55e"/><circle cx="177.6" cy="190.8" r="3" fill="#22c55e"/><circle cx="201.2" cy="190.4" r="3" fill="#22c55e"/><circle cx="224.7" cy="190.1" r="3" fill="#22c55e"/><circle cx="248.2" cy="189.6" r="3" fill="#22c55e"/><circle cx="271.8" cy="188.8" r="3" fill="#22c55e"/><circle cx="295.3" cy="187.8" r="3" fill="#22c55e"/><circle cx="318.8" cy="187.0" r="3" fill="#22c55e"/><circle cx="342.4" cy="186.2" r="3" fill="#22c55e"/><circle cx="365.9" cy="185.6" r="3" fill="#22c55e"/><circle cx="389.4" cy="185.0" r="3" fill="#22c55e"/><circle cx="412.9" cy="184.3" r="3" fill="#22c55e"/><circle cx="436.5" cy="183.6" r="3" fill="#22c55e"/><circle cx="460.0" cy="183.2" r="3" fill="#22c55e"/><circle cx="483.5" cy="182.9" r="3" fill="#22c55e"/><circle cx="507.1" cy="182.7" r="3" fill="#22c55e"/><circle cx="530.6" cy="182.7" r="3" fill="#22c55e"/><circle cx="554.1" cy="182.4" r="3" fill="#22c55e"/><circle cx="577.6" cy="182.3" r="3" fill="#22c55e"/><circle cx="601.2" cy="182.3" r="3" fill="#22c55e"/><circle cx="624.7" cy="182.2" r="3" fill="#22c55e"/><circle cx="648.2" cy="182.2" r="3" fill="#22c55e"/><circle cx="671.8" cy="182.2" r="3" fill="#22c55e"/><circle cx="695.3" cy="182.2" r="3" fill="#22c55e"/><circle cx="718.8" cy="182.3" r="3" fill="#22c55e"/><circle cx="742.4" cy="182.4" r="3" fill="#22c55e"/><circle cx="765.9" cy="182.5" r="3" fill="#22c55e"/><circle cx="789.4" cy="182.6" r="3" fill="#22c55e"/><circle cx="812.9" cy="182.7" r="3" fill="#22c55e"/><circle cx="836.5" cy="182.9" r="3" fill="#22c55e"/><circle cx="860.0" cy="183.1" r="3" fill="#22c55e"/>
  <circle cx="60.0" cy="211.1" r="3" fill="#3b82f6"/><circle cx="83.5" cy="210.2" r="3" fill="#3b82f6"/><circle cx="107.1" cy="209.7" r="3" fill="#3b82f6"/><circle cx="130.6" cy="209.2" r="3" fill="#3b82f6"/><circle cx="154.1" cy="208.7" r="3" fill="#3b82f6"/><circle cx="177.6" cy="208.3" r="3" fill="#3b82f6"/><circle cx="201.2" cy="207.9" r="3" fill="#3b82f6"/><circle cx="224.7" cy="207.5" r="3" fill="#3b82f6"/><circle cx="248.2" cy="207.0" r="3" fill="#3b82f6"/><circle cx="271.8" cy="206.2" r="3" fill="#3b82f6"/><circle cx="295.3" cy="205.0" r="3" fill="#3b82f6"/><circle cx="318.8" cy="204.1" r="3" fill="#3b82f6"/><circle cx="342.4" cy="203.2" r="3" fill="#3b82f6"/><circle cx="365.9" cy="202.5" r="3" fill="#3b82f6"/><circle cx="389.4" cy="201.9" r="3" fill="#3b82f6"/><circle cx="412.9" cy="201.0" r="3" fill="#3b82f6"/><circle cx="436.5" cy="200.3" r="3" fill="#3b82f6"/><circle cx="460.0" cy="199.9" r="3" fill="#3b82f6"/><circle cx="483.5" cy="199.6" r="3" fill="#3b82f6"/><circle cx="507.1" cy="199.4" r="3" fill="#3b82f6"/><circle cx="530.6" cy="199.3" r="3" fill="#3b82f6"/><circle cx="554.1" cy="199.0" r="3" fill="#3b82f6"/><circle cx="577.6" cy="198.9" r="3" fill="#3b82f6"/><circle cx="601.2" cy="198.9" r="3" fill="#3b82f6"/><circle cx="624.7" cy="198.7" r="3" fill="#3b82f6"/><circle cx="648.2" cy="198.7" r="3" fill="#3b82f6"/><circle cx="671.8" cy="198.8" r="3" fill="#3b82f6"/><circle cx="695.3" cy="198.8" r="3" fill="#3b82f6"/><circle cx="718.8" cy="198.8" r="3" fill="#3b82f6"/><circle cx="742.4" cy="198.9" r="3" fill="#3b82f6"/><circle cx="765.9" cy="199.0" r="3" fill="#3b82f6"/><circle cx="789.4" cy="199.2" r="3" fill="#3b82f6"/><circle cx="812.9" cy="199.4" r="3" fill="#3b82f6"/><circle cx="836.5" cy="199.5" r="3" fill="#3b82f6"/><circle cx="860.0" cy="199.7" r="3" fill="#3b82f6"/>

  <!-- X ekseni -->
  <text x="60.0" y="380" text-anchor="middle" font-size="10" fill="#888">14.05.2026</text>
  <text x="177.6" y="380" text-anchor="middle" font-size="10" fill="#888">19.05.2026</text>
  <text x="295.3" y="380" text-anchor="middle" font-size="10" fill="#888">24.05.2026</text>
  <text x="412.9" y="380" text-anchor="middle" font-size="10" fill="#888">29.05.2026</text>
  <text x="530.6" y="380" text-anchor="middle" font-size="10" fill="#888">03.06.2026</text>
  <text x="648.2" y="380" text-anchor="middle" font-size="10" fill="#888">08.06.2026</text>
  <text x="765.9" y="380" text-anchor="middle" font-size="10" fill="#888">13.06.2026</text>

  <!-- Legend -->
  <g transform="translate(60, 345)">
    <rect x="0" y="0" width="12" height="12" fill="#22c55e" rx="2"/>
    <text x="18" y="10" font-size="11" fill="#c9d1d9">Toplam Doluluk</text>
    <rect x="140" y="0" width="12" height="12" fill="#3b82f6" rx="2"/>
    <text x="158" y="10" font-size="11" fill="#c9d1d9">Aktif Doluluk</text>
  </g>
</svg>