<svg xmlns="http://www.w3.org/2000/svg" viewBox="0 0 800 400" width="100%" style="max-width:800px;">
  <rect width="800" height="400" fill="#0d1117" rx="6"/>
  <text x="400.0" y="25" text-anchor="middle" font-size="16" font-weight="bold" fill="#c9d1d9">Son 30 Gün - Günlük Ortalama</text>

  <!-- Y grid -->
  <line x1="60" y1="320.0" x2="760" y2="320.0" stroke="#333" stroke-width="1" stroke-dasharray="4,4" opacity="0.5"/>
  <text x="50" y="320.0" text-anchor="end" dominant-baseline="middle" font-size="10" fill="#888">0%</text>
  <line x1="60" y1="264.0" x2="760" y2="264.0" stroke="#333" stroke-width="1" stroke-dasharray="4,4" opacity="0.5"/>
  <text x="50" y="264.0" text-anchor="end" dominant-baseline="middle" font-size="10" fill="#888">20%</text>
  <line x1="60" y1="208.0" x2="760" y2="208.0" stroke="#333" stroke-width="1" stroke-dasharray="4,4" opacity="0.5"/>
  <text x="50" y="208.0" text-anchor="end" dominant-baseline="middle" font-size="10" fill="#888">40%</text>
  <line x1="60" y1="152.0" x2="760" y2="152.0" stroke="#333" stroke-width="1" stroke-dasharray="4,4" opacity="0.5"/>
  <text x="50" y="152.0" text-anchor="end" dominant-baseline="middle" font-size="10" fill="#888">60%</text>
  <line x1="60" y1="96.0" x2="760" y2="96.0" stroke="#333" stroke-width="1" stroke-dasharray="4,4" opacity="0.5"/>
  <text x="50" y="96.0" text-anchor="end" dominant-baseline="middle" font-size="10" fill="#888">80%</text>
  <line x1="60" y1="40.0" x2="760" y2="40.0" stroke="#333" stroke-width="1" stroke-dasharray="4,4" opacity="0.5"/>
  <text x="50" y="40.0" text-anchor="end" dominant-baseline="middle" font-size="10" fill="#888">100%</text>

  <!-- Referans çizgileri -->
  <line x1="60" y1="236.0" x2="760" y2="236.0" stroke="#ef4444" stroke-width="1" stroke-dasharray="2,2" opacity="0.7"/>
  <text x="745" y="236.0" dominant-baseline="middle" font-size="9" fill="#ef4444">Kritik (30%)</text>
  <line x1="60" y1="180.0" x2="760" y2="180.0" stroke="#eab308" stroke-width="1" stroke-dasharray="2,2" opacity="0.7"/>
  <text x="745" y="180.0" dominant-baseline="middle" font-size="9" fill="#eab308">Normal (50%)</text>

  <!-- Toplam doluluk -->
  <polyline points="60.0,183.4 84.1,183.5 108.3,183.7 132.4,183.9 156.6,184.2 180.7,184.4 204.8,184.7 229.0,185.0 253.1,185.3 277.2,185.6 301.4,186.0 325.5,186.3 349.7,186.6 373.8,187.0 397.9,187.3 422.1,187.6 446.2,188.0 470.3,188.3 494.5,188.6 518.6,189.0 542.8,189.3 566.9,189.6 591.0,189.9 615.2,190.2 639.3,190.5 663.4,190.8 687.6,191.1 711.7,191.4 735.9,191.6 760.0,192.0" fill="none" stroke="#22c55e" stroke-width="2.5" stroke-linecap="round" stroke-linejoin="round"/>
  <polyline points="60.0,183.4 84.1,183.5 108.3,183.7 132.4,183.9 156.6,184.2 180.7,184.4 204.8,184.7 229.0,185.0 253.1,185.3 277.2,185.6 301.4,186.0 325.5,186.3 349.7,186.6 373.8,187.0 397.9,187.3 422.1,187.6 446.2,188.0 470.3,188.3 494.5,188.6 518.6,189.0 542.8,189.3 566.9,189.6 591.0,189.9 615.2,190.2 639.3,190.5 663.4,190.8 687.6,191.1 711.7,191.4 735.9,191.6 760.0,192.0" fill="none" stroke="#22c55e" stroke-width="5" opacity="0.1" stroke-linecap="round" stroke-linejoin="round"/>

  <!-- Aktif doluluk -->
  <polyline points="60.0,200.1 84.1,200.2 108.3,200.4 132.4,200.7 156.6,201.0 180.7,201.3 204.8,201.6 229.0,201.8 253.1,202.2 277.2,202.6 301.4,203.0 325.5,203.3 349.7,203.7 373.8,204.1 397.9,204.4 422.1,204.8 446.2,205.2 470.3,205.5 494.5,205.9 518.6,206.3 542.8,206.7 566.9,207.0 591.0,207.4 615.2,207.7 639.3,208.0 663.4,208.3 687.6,208.7 711.7,209.0 735.9,209.3 760.0,209.7" fill="none" stroke="#3b82f6" stroke-width="2.5" stroke-linecap="round" stroke-linejoin="round"/>
  <polyline points="60.0,200.1 84.1,200.2 108.3,200.4 132.4,200.7 156.6,201.0 180.7,201.3 204.8,201.6 229.0,201.8 253.1,202.2 277.2,202.6 301.4,203.0 325.5,203.3 349.7,203.7 373.8,204.1 397.9,204.4 422.1,204.8 446.2,205.2 470.3,205.5 494.5,205.9 518.6,206.3 542.8,206.7 566.9,207.0 591.0,207.4 615.2,207.7 639.3,208.0 663.4,208.3 687.6,208.7 711.7,209.0 735.9,209.3 760.0,209.7" fill="none" stroke="#3b82f6" stroke-width="5" opacity="0.1" stroke-linecap="round" stroke-linejoin="round"/>

  <!-- Noktalar -->
  <circle cx="60.0" cy="183.4" r="3" fill="#22c55e"/><circle cx="84.1" cy="183.5" r="3" fill="#22c55e"/><circle cx="108.3" cy="183.7" r="3" fill="#22c55e"/><circle cx="132.4" cy="183.9" r="3" fill="#22c55e"/><circle cx="156.6" cy="184.2" r="3" fill="#22c55e"/><circle cx="180.7" cy="184.4" r="3" fill="#22c55e"/><circle cx="204.8" cy="184.7" r="3" fill="#22c55e"/><circle cx="229.0" cy="185.0" r="3" fill="#22c55e"/><circle cx="253.1" cy="185.3" r="3" fill="#22c55e"/><circle cx="277.2" cy="185.6" r="3" fill="#22c55e"/><circle cx="301.4" cy="186.0" r="3" fill="#22c55e"/><circle cx="325.5" cy="186.3" r="3" fill="#22c55e"/><circle cx="349.7" cy="186.6" r="3" fill="#22c55e"/><circle cx="373.8" cy="187.0" r="3" fill="#22c55e"/><circle cx="397.9" cy="187.3" r="3" fill="#22c55e"/><circle cx="422.1" cy="187.6" r="3" fill="#22c55e"/><circle cx="446.2" cy="188.0" r="3" fill="#22c55e"/><circle cx="470.3" cy="188.3" r="3" fill="#22c55e"/><circle cx="494.5" cy="188.6" r="3" fill="#22c55e"/><circle cx="518.6" cy="189.0" r="3" fill="#22c55e"/><circle cx="542.8" cy="189.3" r="3" fill="#22c55e"/><circle cx="566.9" cy="189.6" r="3" fill="#22c55e"/><circle cx="591.0" cy="189.9" r="3" fill="#22c55e"/><circle cx="615.2" cy="190.2" r="3" fill="#22c55e"/><circle cx="639.3" cy="190.5" r="3" fill="#22c55e"/><circle cx="663.4" cy="190.8" r="3" fill="#22c55e"/><circle cx="687.6" cy="191.1" r="3" fill="#22c55e"/><circle cx="711.7" cy="191.4" r="3" fill="#22c55e"/><circle cx="735.9" cy="191.6" r="3" fill="#22c55e"/><circle cx="760.0" cy="192.0" r="3" fill="#22c55e"/>
  <circle cx="60.0" cy="200.1" r="3" fill="#3b82f6"/><circle cx="84.1" cy="200.2" r="3" fill="#3b82f6"/><circle cx="108.3" cy="200.4" r="3" fill="#3b82f6"/><circle cx="132.4" cy="200.7" r="3" fill="#3b82f6"/><circle cx="156.6" cy="201.0" r="3" fill="#3b82f6"/><circle cx="180.7" cy="201.3" r="3" fill="#3b82f6"/><circle cx="204.8" cy="201.6" r="3" fill="#3b82f6"/><circle cx="229.0" cy="201.8" r="3" fill="#3b82f6"/><circle cx="253.1" cy="202.2" r="3" fill="#3b82f6"/><circle cx="277.2" cy="202.6" r="3" fill="#3b82f6"/><circle cx="301.4" cy="203.0" r="3" fill="#3b82f6"/><circle cx="325.5" cy="203.3" r="3" fill="#3b82f6"/><circle cx="349.7" cy="203.7" r="3" fill="#3b82f6"/><circle cx="373.8" cy="204.1" r="3" fill="#3b82f6"/><circle cx="397.9" cy="204.4" r="3" fill="#3b82f6"/><circle cx="422.1" cy="204.8" r="3" fill="#3b82f6"/><circle cx="446.2" cy="205.2" r="3" fill="#3b82f6"/><circle cx="470.3" cy="205.5" r="3" fill="#3b82f6"/><circle cx="494.5" cy="205.9" r="3" fill="#3b82f6"/><circle cx="518.6" cy="206.3" r="3" fill="#3b82f6"/><circle cx="542.8" cy="206.7" r="3" fill="#3b82f6"/><circle cx="566.9" cy="207.0" r="3" fill="#3b82f6"/><circle cx="591.0" cy="207.4" r="3" fill="#3b82f6"/><circle cx="615.2" cy="207.7" r="3" fill="#3b82f6"/><circle cx="639.3" cy="208.0" r="3" fill="#3b82f6"/><circle cx="663.4" cy="208.3" r="3" fill="#3b82f6"/><circle cx="687.6" cy="208.7" r="3" fill="#3b82f6"/><circle cx="711.7" cy="209.0" r="3" fill="#3b82f6"/><circle cx="735.9" cy="209.3" r="3" fill="#3b82f6"/><circle cx="760.0" cy="209.7" r="3" fill="#3b82f6"/>

  <!-- X ekseni -->
  <text x="60.0" y="380" text-anchor="middle" font-size="10" fill="#888">20.06 00:00</text>
  <text x="180.7" y="380" text-anchor="middle" font-size="10" fill="#888">25.06 00:00</text>
  <text x="301.4" y="380" text-anchor="middle" font-size="10" fill="#888">30.06 00:00</text>
  <text x="422.1" y="380" text-anchor="middle" font-size="10" fill="#888">05.07 00:00</text>
  <text x="542.8" y="380" text-anchor="middle" font-size="10" fill="#888">10.07 00:00</text>
  <text x="663.4" y="380" text-anchor="middle" font-size="10" fill="#888">15.07 00:00</text>

  <!-- Legend -->
  <g transform="translate(60, 345)">
    <rect x="0" y="0" width="12" height="12" fill="#22c55e" rx="2"/>
    <text x="18" y="10" font-size="11" fill="#c9d1d9">Toplam Doluluk</text>
    <rect x="140" y="0" width="12" height="12" fill="#3b82f6" rx="2"/>
    <text x="158" y="10" font-size="11" fill="#c9d1d9">Aktif Doluluk</text>
  </g>
</svg>