<svg xmlns="http://www.w3.org/2000/svg" viewBox="0 0 900 400" width="100%" style="max-width:900px;">
  <rect width="900" height="400" fill="#0d1117" rx="6"/>
  <text x="450.0" y="25" text-anchor="middle" font-size="16" font-weight="bold" fill="#c9d1d9">Son 180 Gün - Günlük Ortalama</text>

  <!-- Y grid -->
  <line x1="60" y1="320.0" x2="860" y2="320.0" stroke="#333" stroke-width="1" stroke-dasharray="4,4" opacity="0.5"/>
  <text x="50" y="320.0" text-anchor="end" dominant-baseline="middle" font-size="10" fill="#888">0%</text>
  <line x1="60" y1="264.0" x2="860" y2="264.0" stroke="#333" stroke-width="1" stroke-dasharray="4,4" opacity="0.5"/>
  <text x="50" y="264.0" text-anchor="end" dominant-baseline="middle" font-size="10" fill="#888">20%</text>
  <line x1="60" y1="208.0" x2="860" y2="208.0" stroke="#333" stroke-width="1" stroke-dasharray="4,4" opacity="0.5"/>
  <text x="50" y="208.0" text-anchor="end" dominant-baseline="middle" font-size="10" fill="#888">40%</text>
  <line x1="60" y1="152.0" x2="860" y2="152.0" stroke="#333" stroke-width="1" stroke-dasharray="4,4" opacity="0.5"/>
  <text x="50" y="152.0" text-anchor="end" dominant-baseline="middle" font-size="10" fill="#888">60%</text>
  <line x1="60" y1="96.0" x2="860" y2="96.0" stroke="#333" stroke-width="1" stroke-dasharray="4,4" opacity="0.5"/>
  <text x="50" y="96.0" text-anchor="end" dominant-baseline="middle" font-size="10" fill="#888">80%</text>
  <line x1="60" y1="40.0" x2="860" y2="40.0" stroke="#333" stroke-width="1" stroke-dasharray="4,4" opacity="0.5"/>
  <text x="50" y="40.0" text-anchor="end" dominant-baseline="middle" font-size="10" fill="#888">100%</text>

  <!-- Referans çizgileri -->
  <line x1="60" y1="236.0" x2="860" y2="236.0" stroke="#ef4444" stroke-width="1" stroke-dasharray="2,2" opacity="0.7"/>
  <text x="845" y="236.0" dominant-baseline="middle" font-size="9" fill="#ef4444">Kritik (30%)</text>
  <line x1="60" y1="180.0" x2="860" y2="180.0" stroke="#eab308" stroke-width="1" stroke-dasharray="2,2" opacity="0.7"/>
  <text x="845" y="180.0" dominant-baseline="middle" font-size="9" fill="#eab308">Normal (50%)</text>

  <!-- Toplam doluluk -->
  <polyline points="60.0,193.2 104.4,192.5 148.9,192.0 193.3,191.6 237.8,191.1 282.2,190.8 326.7,190.4 371.1,190.1 415.6,189.6 460.0,188.8 504.4,187.8 548.9,187.0 593.3,186.2 637.8,185.6 682.2,185.0 726.7,184.3 771.1,183.6 815.6,183.2 860.0,182.9" fill="none" stroke="#22c55e" stroke-width="2.5" stroke-linecap="round" stroke-linejoin="round"/>
  <polyline points="60.0,193.2 104.4,192.5 148.9,192.0 193.3,191.6 237.8,191.1 282.2,190.8 326.7,190.4 371.1,190.1 415.6,189.6 460.0,188.8 504.4,187.8 548.9,187.0 593.3,186.2 637.8,185.6 682.2,185.0 726.7,184.3 771.1,183.6 815.6,183.2 860.0,182.9" fill="none" stroke="#22c55e" stroke-width="5" opacity="0.1" stroke-linecap="round" stroke-linejoin="round"/>

  <!-- Aktif doluluk -->
  <polyline points="60.0,211.1 104.4,210.2 148.9,209.7 193.3,209.2 237.8,208.7 282.2,208.3 326.7,207.9 371.1,207.5 415.6,207.0 460.0,206.2 504.4,205.0 548.9,204.1 593.3,203.2 637.8,202.5 682.2,201.9 726.7,201.0 771.1,200.3 815.6,199.9 860.0,199.6" fill="none" stroke="#3b82f6" stroke-width="2.5" stroke-linecap="round" stroke-linejoin="round"/>
  <polyline points="60.0,211.1 104.4,210.2 148.9,209.7 193.3,209.2 237.8,208.7 282.2,208.3 326.7,207.9 371.1,207.5 415.6,207.0 460.0,206.2 504.4,205.0 548.9,204.1 593.3,203.2 637.8,202.5 682.2,201.9 726.7,201.0 771.1,200.3 815.6,199.9 860.0,199.6" fill="none" stroke="#3b82f6" stroke-width="5" opacity="0.1" stroke-linecap="round" stroke-linejoin="round"/>

  <!-- Noktalar -->
  <circle cx="60.0" cy="193.2" r="3" fill="#22c55e"/><circle cx="104.4" cy="192.5" r="3" fill="#22c55e"/><circle cx="148.9" cy="192.0" r="3" fill="#22c55e"/><circle cx="193.3" cy="191.6" r="3" fill="#22c55e"/><circle cx="237.8" cy="191.1" r="3" fill="#22c55e"/><circle cx="282.2" cy="190.8" r="3" fill="#22c55e"/><circle cx="326.7" cy="190.4" r="3" fill="#22c55e"/><circle cx="371.1" cy="190.1" r="3" fill="#22c55e"/><circle cx="415.6" cy="189.6" r="3" fill="#22c55e"/><circle cx="460.0" cy="188.8" r="3" fill="#22c55e"/><circle cx="504.4" cy="187.8" r="3" fill="#22c55e"/><circle cx="548.9" cy="187.0" r="3" fill="#22c55e"/><circle cx="593.3" cy="186.2" r="3" fill="#22c55e"/><circle cx="637.8" cy="185.6" r="3" fill="#22c55e"/><circle cx="682.2" cy="185.0" r="3" fill="#22c55e"/><circle cx="726.7" cy="184.3" r="3" fill="#22c55e"/><circle cx="771.1" cy="183.6" r="3" fill="#22c55e"/><circle cx="815.6" cy="183.2" r="3" fill="#22c55e"/><circle cx="860.0" cy="182.9" r="3" fill="#22c55e"/>
  <circle cx="60.0" cy="211.1" r="3" fill="#3b82f6"/><circle cx="104.4" cy="210.2" r="3" fill="#3b82f6"/><circle cx="148.9" cy="209.7" r="3" fill="#3b82f6"/><circle cx="193.3" cy="209.2" r="3" fill="#3b82f6"/><circle cx="237.8" cy="208.7" r="3" fill="#3b82f6"/><circle cx="282.2" cy="208.3" r="3" fill="#3b82f6"/><circle cx="326.7" cy="207.9" r="3" fill="#3b82f6"/><circle cx="371.1" cy="207.5" r="3" fill="#3b82f6"/><circle cx="415.6" cy="207.0" r="3" fill="#3b82f6"/><circle cx="460.0" cy="206.2" r="3" fill="#3b82f6"/><circle cx="504.4" cy="205.0" r="3" fill="#3b82f6"/><circle cx="548.9" cy="204.1" r="3" fill="#3b82f6"/><circle cx="593.3" cy="203.2" r="3" fill="#3b82f6"/><circle cx="637.8" cy="202.5" r="3" fill="#3b82f6"/><circle cx="682.2" cy="201.9" r="3" fill="#3b82f6"/><circle cx="726.7" cy="201.0" r="3" fill="#3b82f6"/><circle cx="771.1" cy="200.3" r="3" fill="#3b82f6"/><circle cx="815.6" cy="199.9" r="3" fill="#3b82f6"/><circle cx="860.0" cy="199.6" r="3" fill="#3b82f6"/>

  <!-- X ekseni -->
  <text x="60.0" y="380" text-anchor="middle" font-size="10" fill="#888">14.05 00:00</text>
  <text x="193.3" y="380" text-anchor="middle" font-size="10" fill="#888">17.05 00:00</text>
  <text x="326.7" y="380" text-anchor="middle" font-size="10" fill="#888">20.05 00:00</text>
  <text x="460.0" y="380" text-anchor="middle" font-size="10" fill="#888">23.05 00:00</text>
  <text x="593.3" y="380" text-anchor="middle" font-size="10" fill="#888">26.05 00:00</text>
  <text x="726.7" y="380" text-anchor="middle" font-size="10" fill="#888">29.05 00:00</text>
  <text x="860.0" y="380" text-anchor="middle" font-size="10" fill="#888">01.06 00:00</text>

  <!-- Legend -->
  <g transform="translate(60, 345)">
    <rect x="0" y="0" width="12" height="12" fill="#22c55e" rx="2"/>
    <text x="18" y="10" font-size="11" fill="#c9d1d9">Toplam Doluluk</text>
    <rect x="140" y="0" width="12" height="12" fill="#3b82f6" rx="2"/>
    <text x="158" y="10" font-size="11" fill="#c9d1d9">Aktif Doluluk</text>
  </g>
</svg>