<svg xmlns="http://www.w3.org/2000/svg" viewBox="0 0 900 400" width="100%" style="max-width:900px;">
  <rect width="900" height="400" fill="#0d1117" rx="6"/>
  <text x="450.0" y="25" text-anchor="middle" font-size="16" font-weight="bold" fill="#c9d1d9">Son 360 Gün - Günlük Ortalama</text>

  <!-- Y grid -->
  <line x1="60" y1="320.0" x2="860" y2="320.0" stroke="#333" stroke-width="1" stroke-dasharray="4,4" opacity="0.5"/>
  <text x="50" y="320.0" text-anchor="end" dominant-baseline="middle" font-size="10" fill="#888">0%</text>
  <line x1="60" y1="264.0" x2="860" y2="264.0" stroke="#333" stroke-width="1" stroke-dasharray="4,4" opacity="0.5"/>
  <text x="50" y="264.0" text-anchor="end" dominant-baseline="middle" font-size="10" fill="#888">20%</text>
  <line x1="60" y1="208.0" x2="860" y2="208.0" stroke="#333" stroke-width="1" stroke-dasharray="4,4" opacity="0.5"/>
  <text x="50" y="208.0" text-anchor="end" dominant-baseline="middle" font-size="10" fill="#888">40%</text>
  <line x1="60" y1="152.0" x2="860" y2="152.0" stroke="#333" stroke-width="1" stroke-dasharray="4,4" opacity="0.5"/>
  <text x="50" y="152.0" text-anchor="end" dominant-baseline="middle" font-size="10" fill="#888">60%</text>
  <line x1="60" y1="96.0" x2="860" y2="96.0" stroke="#333" stroke-width="1" stroke-dasharray="4,4" opacity="0.5"/>
  <text x="50" y="96.0" text-anchor="end" dominant-baseline="middle" font-size="10" fill="#888">80%</text>
  <line x1="60" y1="40.0" x2="860" y2="40.0" stroke="#333" stroke-width="1" stroke-dasharray="4,4" opacity="0.5"/>
  <text x="50" y="40.0" text-anchor="end" dominant-baseline="middle" font-size="10" fill="#888">100%</text>

  <!-- Referans çizgileri -->
  <line x1="60" y1="236.0" x2="860" y2="236.0" stroke="#ef4444" stroke-width="1" stroke-dasharray="2,2" opacity="0.7"/>
  <text x="845" y="236.0" dominant-baseline="middle" font-size="9" fill="#ef4444">Kritik (30%)</text>
  <line x1="60" y1="180.0" x2="860" y2="180.0" stroke="#eab308" stroke-width="1" stroke-dasharray="2,2" opacity="0.7"/>
  <text x="845" y="180.0" dominant-baseline="middle" font-size="9" fill="#eab308">Normal (50%)</text>

  <!-- Toplam doluluk -->
  <polyline points="60.0,193.2 71.9,192.5 83.9,192.0 95.8,191.6 107.8,191.1 119.7,190.8 131.6,190.4 143.6,190.1 155.5,189.6 167.5,188.8 179.4,187.8 191.3,187.0 203.3,186.2 215.2,185.6 227.2,185.0 239.1,184.3 251.0,183.6 263.0,183.2 274.9,182.9 286.9,182.7 298.8,182.7 310.7,182.4 322.7,182.3 334.6,182.3 346.6,182.2 358.5,182.2 370.4,182.2 382.4,182.2 394.3,182.3 406.3,182.4 418.2,182.5 430.1,182.6 442.1,182.7 454.0,182.9 466.0,183.1 477.9,183.2 489.9,183.3 501.8,183.4 513.7,183.5 525.7,183.7 537.6,183.9 549.6,184.2 561.5,184.4 573.4,184.7 585.4,185.0 597.3,185.3 609.3,185.6 621.2,186.0 633.1,186.3 645.1,186.6 657.0,187.0 669.0,187.3 680.9,187.6 692.8,188.0 704.8,188.3 716.7,188.6 728.7,189.0 740.6,189.3 752.5,189.6 764.5,189.9 776.4,190.2 788.4,190.5 800.3,190.8 812.2,191.1 824.2,191.4 836.1,191.6 848.1,192.0 860.0,192.3" fill="none" stroke="#22c55e" stroke-width="2.5" stroke-linecap="round" stroke-linejoin="round"/>
  <polyline points="60.0,193.2 71.9,192.5 83.9,192.0 95.8,191.6 107.8,191.1 119.7,190.8 131.6,190.4 143.6,190.1 155.5,189.6 167.5,188.8 179.4,187.8 191.3,187.0 203.3,186.2 215.2,185.6 227.2,185.0 239.1,184.3 251.0,183.6 263.0,183.2 274.9,182.9 286.9,182.7 298.8,182.7 310.7,182.4 322.7,182.3 334.6,182.3 346.6,182.2 358.5,182.2 370.4,182.2 382.4,182.2 394.3,182.3 406.3,182.4 418.2,182.5 430.1,182.6 442.1,182.7 454.0,182.9 466.0,183.1 477.9,183.2 489.9,183.3 501.8,183.4 513.7,183.5 525.7,183.7 537.6,183.9 549.6,184.2 561.5,184.4 573.4,184.7 585.4,185.0 597.3,185.3 609.3,185.6 621.2,186.0 633.1,186.3 645.1,186.6 657.0,187.0 669.0,187.3 680.9,187.6 692.8,188.0 704.8,188.3 716.7,188.6 728.7,189.0 740.6,189.3 752.5,189.6 764.5,189.9 776.4,190.2 788.4,190.5 800.3,190.8 812.2,191.1 824.2,191.4 836.1,191.6 848.1,192.0 860.0,192.3" fill="none" stroke="#22c55e" stroke-width="5" opacity="0.1" stroke-linecap="round" stroke-linejoin="round"/>

  <!-- Aktif doluluk -->
  <polyline points="60.0,211.1 71.9,210.2 83.9,209.7 95.8,209.2 107.8,208.7 119.7,208.3 131.6,207.9 143.6,207.5 155.5,207.0 167.5,206.2 179.4,205.0 191.3,204.1 203.3,203.2 215.2,202.5 227.2,201.9 239.1,201.0 251.0,200.3 263.0,199.9 274.9,199.6 286.9,199.4 298.8,199.3 310.7,199.0 322.7,198.9 334.6,198.9 346.6,198.7 358.5,198.7 370.4,198.8 382.4,198.8 394.3,198.8 406.3,198.9 418.2,199.0 430.1,199.2 442.1,199.4 454.0,199.5 466.0,199.7 477.9,199.8 489.9,200.0 501.8,200.1 513.7,200.2 525.7,200.4 537.6,200.7 549.6,201.0 561.5,201.3 573.4,201.6 585.4,201.8 597.3,202.2 609.3,202.6 621.2,203.0 633.1,203.3 645.1,203.7 657.0,204.1 669.0,204.4 680.9,204.8 692.8,205.2 704.8,205.5 716.7,205.9 728.7,206.3 740.6,206.7 752.5,207.0 764.5,207.4 776.4,207.7 788.4,208.0 800.3,208.3 812.2,208.7 824.2,209.0 836.1,209.3 848.1,209.7 860.0,210.0" fill="none" stroke="#3b82f6" stroke-width="2.5" stroke-linecap="round" stroke-linejoin="round"/>
  <polyline points="60.0,211.1 71.9,210.2 83.9,209.7 95.8,209.2 107.8,208.7 119.7,208.3 131.6,207.9 143.6,207.5 155.5,207.0 167.5,206.2 179.4,205.0 191.3,204.1 203.3,203.2 215.2,202.5 227.2,201.9 239.1,201.0 251.0,200.3 263.0,199.9 274.9,199.6 286.9,199.4 298.8,199.3 310.7,199.0 322.7,198.9 334.6,198.9 346.6,198.7 358.5,198.7 370.4,198.8 382.4,198.8 394.3,198.8 406.3,198.9 418.2,199.0 430.1,199.2 442.1,199.4 454.0,199.5 466.0,199.7 477.9,199.8 489.9,200.0 501.8,200.1 513.7,200.2 525.7,200.4 537.6,200.7 549.6,201.0 561.5,201.3 573.4,201.6 585.4,201.8 597.3,202.2 609.3,202.6 621.2,203.0 633.1,203.3 645.1,203.7 657.0,204.1 669.0,204.4 680.9,204.8 692.8,205.2 704.8,205.5 716.7,205.9 728.7,206.3 740.6,206.7 752.5,207.0 764.5,207.4 776.4,207.7 788.4,208.0 800.3,208.3 812.2,208.7 824.2,209.0 836.1,209.3 848.1,209.7 860.0,210.0" fill="none" stroke="#3b82f6" stroke-width="5" opacity="0.1" stroke-linecap="round" stroke-linejoin="round"/>

  <!-- Noktalar -->
  <circle cx="60.0" cy="193.2" r="3" fill="#22c55e"/><circle cx="71.9" cy="192.5" r="3" fill="#22c55e"/><circle cx="83.9" cy="192.0" r="3" fill="#22c55e"/><circle cx="95.8" cy="191.6" r="3" fill="#22c55e"/><circle cx="107.8" cy="191.1" r="3" fill="#22c55e"/><circle cx="119.7" cy="190.8" r="3" fill="#22c55e"/><circle cx="131.6" cy="190.4" r="3" fill="#22c55e"/><circle cx="143.6" cy="190.1" r="3" fill="#22c55e"/><circle cx="155.5" cy="189.6" r="3" fill="#22c55e"/><circle cx="167.5" cy="188.8" r="3" fill="#22c55e"/><circle cx="179.4" cy="187.8" r="3" fill="#22c55e"/><circle cx="191.3" cy="187.0" r="3" fill="#22c55e"/><circle cx="203.3" cy="186.2" r="3" fill="#22c55e"/><circle cx="215.2" cy="185.6" r="3" fill="#22c55e"/><circle cx="227.2" cy="185.0" r="3" fill="#22c55e"/><circle cx="239.1" cy="184.3" r="3" fill="#22c55e"/><circle cx="251.0" cy="183.6" r="3" fill="#22c55e"/><circle cx="263.0" cy="183.2" r="3" fill="#22c55e"/><circle cx="274.9" cy="182.9" r="3" fill="#22c55e"/><circle cx="286.9" cy="182.7" r="3" fill="#22c55e"/><circle cx="298.8" cy="182.7" r="3" fill="#22c55e"/><circle cx="310.7" cy="182.4" r="3" fill="#22c55e"/><circle cx="322.7" cy="182.3" r="3" fill="#22c55e"/><circle cx="334.6" cy="182.3" r="3" fill="#22c55e"/><circle cx="346.6" cy="182.2" r="3" fill="#22c55e"/><circle cx="358.5" cy="182.2" r="3" fill="#22c55e"/><circle cx="370.4" cy="182.2" r="3" fill="#22c55e"/><circle cx="382.4" cy="182.2" r="3" fill="#22c55e"/><circle cx="394.3" cy="182.3" r="3" fill="#22c55e"/><circle cx="406.3" cy="182.4" r="3" fill="#22c55e"/><circle cx="418.2" cy="182.5" r="3" fill="#22c55e"/><circle cx="430.1" cy="182.6" r="3" fill="#22c55e"/><circle cx="442.1" cy="182.7" r="3" fill="#22c55e"/><circle cx="454.0" cy="182.9" r="3" fill="#22c55e"/><circle cx="466.0" cy="183.1" r="3" fill="#22c55e"/><circle cx="477.9" cy="183.2" r="3" fill="#22c55e"/><circle cx="489.9" cy="183.3" r="3" fill="#22c55e"/><circle cx="501.8" cy="183.4" r="3" fill="#22c55e"/><circle cx="513.7" cy="183.5" r="3" fill="#22c55e"/><circle cx="525.7" cy="183.7" r="3" fill="#22c55e"/><circle cx="537.6" cy="183.9" r="3" fill="#22c55e"/><circle cx="549.6" cy="184.2" r="3" fill="#22c55e"/><circle cx="561.5" cy="184.4" r="3" fill="#22c55e"/><circle cx="573.4" cy="184.7" r="3" fill="#22c55e"/><circle cx="585.4" cy="185.0" r="3" fill="#22c55e"/><circle cx="597.3" cy="185.3" r="3" fill="#22c55e"/><circle cx="609.3" cy="185.6" r="3" fill="#22c55e"/><circle cx="621.2" cy="186.0" r="3" fill="#22c55e"/><circle cx="633.1" cy="186.3" r="3" fill="#22c55e"/><circle cx="645.1" cy="186.6" r="3" fill="#22c55e"/><circle cx="657.0" cy="187.0" r="3" fill="#22c55e"/><circle cx="669.0" cy="187.3" r="3" fill="#22c55e"/><circle cx="680.9" cy="187.6" r="3" fill="#22c55e"/><circle cx="692.8" cy="188.0" r="3" fill="#22c55e"/><circle cx="704.8" cy="188.3" r="3" fill="#22c55e"/><circle cx="716.7" cy="188.6" r="3" fill="#22c55e"/><circle cx="728.7" cy="189.0" r="3" fill="#22c55e"/><circle cx="740.6" cy="189.3" r="3" fill="#22c55e"/><circle cx="752.5" cy="189.6" r="3" fill="#22c55e"/><circle cx="764.5" cy="189.9" r="3" fill="#22c55e"/><circle cx="776.4" cy="190.2" r="3" fill="#22c55e"/><circle cx="788.4" cy="190.5" r="3" fill="#22c55e"/><circle cx="800.3" cy="190.8" r="3" fill="#22c55e"/><circle cx="812.2" cy="191.1" r="3" fill="#22c55e"/><circle cx="824.2" cy="191.4" r="3" fill="#22c55e"/><circle cx="836.1" cy="191.6" r="3" fill="#22c55e"/><circle cx="848.1" cy="192.0" r="3" fill="#22c55e"/><circle cx="860.0" cy="192.3" r="3" fill="#22c55e"/>
  <circle cx="60.0" cy="211.1" r="3" fill="#3b82f6"/><circle cx="71.9" cy="210.2" r="3" fill="#3b82f6"/><circle cx="83.9" cy="209.7" r="3" fill="#3b82f6"/><circle cx="95.8" cy="209.2" r="3" fill="#3b82f6"/><circle cx="107.8" cy="208.7" r="3" fill="#3b82f6"/><circle cx="119.7" cy="208.3" r="3" fill="#3b82f6"/><circle cx="131.6" cy="207.9" r="3" fill="#3b82f6"/><circle cx="143.6" cy="207.5" r="3" fill="#3b82f6"/><circle cx="155.5" cy="207.0" r="3" fill="#3b82f6"/><circle cx="167.5" cy="206.2" r="3" fill="#3b82f6"/><circle cx="179.4" cy="205.0" r="3" fill="#3b82f6"/><circle cx="191.3" cy="204.1" r="3" fill="#3b82f6"/><circle cx="203.3" cy="203.2" r="3" fill="#3b82f6"/><circle cx="215.2" cy="202.5" r="3" fill="#3b82f6"/><circle cx="227.2" cy="201.9" r="3" fill="#3b82f6"/><circle cx="239.1" cy="201.0" r="3" fill="#3b82f6"/><circle cx="251.0" cy="200.3" r="3" fill="#3b82f6"/><circle cx="263.0" cy="199.9" r="3" fill="#3b82f6"/><circle cx="274.9" cy="199.6" r="3" fill="#3b82f6"/><circle cx="286.9" cy="199.4" r="3" fill="#3b82f6"/><circle cx="298.8" cy="199.3" r="3" fill="#3b82f6"/><circle cx="310.7" cy="199.0" r="3" fill="#3b82f6"/><circle cx="322.7" cy="198.9" r="3" fill="#3b82f6"/><circle cx="334.6" cy="198.9" r="3" fill="#3b82f6"/><circle cx="346.6" cy="198.7" r="3" fill="#3b82f6"/><circle cx="358.5" cy="198.7" r="3" fill="#3b82f6"/><circle cx="370.4" cy="198.8" r="3" fill="#3b82f6"/><circle cx="382.4" cy="198.8" r="3" fill="#3b82f6"/><circle cx="394.3" cy="198.8" r="3" fill="#3b82f6"/><circle cx="406.3" cy="198.9" r="3" fill="#3b82f6"/><circle cx="418.2" cy="199.0" r="3" fill="#3b82f6"/><circle cx="430.1" cy="199.2" r="3" fill="#3b82f6"/><circle cx="442.1" cy="199.4" r="3" fill="#3b82f6"/><circle cx="454.0" cy="199.5" r="3" fill="#3b82f6"/><circle cx="466.0" cy="199.7" r="3" fill="#3b82f6"/><circle cx="477.9" cy="199.8" r="3" fill="#3b82f6"/><circle cx="489.9" cy="200.0" r="3" fill="#3b82f6"/><circle cx="501.8" cy="200.1" r="3" fill="#3b82f6"/><circle cx="513.7" cy="200.2" r="3" fill="#3b82f6"/><circle cx="525.7" cy="200.4" r="3" fill="#3b82f6"/><circle cx="537.6" cy="200.7" r="3" fill="#3b82f6"/><circle cx="549.6" cy="201.0" r="3" fill="#3b82f6"/><circle cx="561.5" cy="201.3" r="3" fill="#3b82f6"/><circle cx="573.4" cy="201.6" r="3" fill="#3b82f6"/><circle cx="585.4" cy="201.8" r="3" fill="#3b82f6"/><circle cx="597.3" cy="202.2" r="3" fill="#3b82f6"/><circle cx="609.3" cy="202.6" r="3" fill="#3b82f6"/><circle cx="621.2" cy="203.0" r="3" fill="#3b82f6"/><circle cx="633.1" cy="203.3" r="3" fill="#3b82f6"/><circle cx="645.1" cy="203.7" r="3" fill="#3b82f6"/><circle cx="657.0" cy="204.1" r="3" fill="#3b82f6"/><circle cx="669.0" cy="204.4" r="3" fill="#3b82f6"/><circle cx="680.9" cy="204.8" r="3" fill="#3b82f6"/><circle cx="692.8" cy="205.2" r="3" fill="#3b82f6"/><circle cx="704.8" cy="205.5" r="3" fill="#3b82f6"/><circle cx="716.7" cy="205.9" r="3" fill="#3b82f6"/><circle cx="728.7" cy="206.3" r="3" fill="#3b82f6"/><circle cx="740.6" cy="206.7" r="3" fill="#3b82f6"/><circle cx="752.5" cy="207.0" r="3" fill="#3b82f6"/><circle cx="764.5" cy="207.4" r="3" fill="#3b82f6"/><circle cx="776.4" cy="207.7" r="3" fill="#3b82f6"/><circle cx="788.4" cy="208.0" r="3" fill="#3b82f6"/><circle cx="800.3" cy="208.3" r="3" fill="#3b82f6"/><circle cx="812.2" cy="208.7" r="3" fill="#3b82f6"/><circle cx="824.2" cy="209.0" r="3" fill="#3b82f6"/><circle cx="836.1" cy="209.3" r="3" fill="#3b82f6"/><circle cx="848.1" cy="209.7" r="3" fill="#3b82f6"/><circle cx="860.0" cy="210.0" r="3" fill="#3b82f6"/>

  <!-- X ekseni -->
  <text x="60.0" y="380" text-anchor="middle" font-size="10" fill="#888">14.05.2026</text>
  <text x="191.3" y="380" text-anchor="middle" font-size="10" fill="#888">25.05.2026</text>
  <text x="322.7" y="380" text-anchor="middle" font-size="10" fill="#888">05.06.2026</text>
  <text x="454.0" y="380" text-anchor="middle" font-size="10" fill="#888">16.06.2026</text>
  <text x="585.4" y="380" text-anchor="middle" font-size="10" fill="#888">27.06.2026</text>
  <text x="716.7" y="380" text-anchor="middle" font-size="10" fill="#888">08.07.2026</text>
  <text x="848.1" y="380" text-anchor="middle" font-size="10" fill="#888">19.07.2026</text>

  <!-- Legend -->
  <g transform="translate(60, 345)">
    <rect x="0" y="0" width="12" height="12" fill="#22c55e" rx="2"/>
    <text x="18" y="10" font-size="11" fill="#c9d1d9">Toplam Doluluk</text>
    <rect x="140" y="0" width="12" height="12" fill="#3b82f6" rx="2"/>
    <text x="158" y="10" font-size="11" fill="#c9d1d9">Aktif Doluluk</text>
  </g>
</svg>