<svg xmlns="http://www.w3.org/2000/svg" viewBox="0 0 800 400" width="100%" style="max-width:800px;">
  <rect width="800" height="400" fill="#0d1117" rx="6"/>
  <text x="400.0" y="25" text-anchor="middle" font-size="16" font-weight="bold" fill="#c9d1d9">Son 90 Gün - Günlük Ortalama</text>

  <!-- Y grid -->
  <line x1="60" y1="320.0" x2="760" y2="320.0" stroke="#333" stroke-width="1" stroke-dasharray="4,4" opacity="0.5"/>
  <text x="50" y="320.0" text-anchor="end" dominant-baseline="middle" font-size="10" fill="#888">0%</text>
  <line x1="60" y1="264.0" x2="760" y2="264.0" stroke="#333" stroke-width="1" stroke-dasharray="4,4" opacity="0.5"/>
  <text x="50" y="264.0" text-anchor="end" dominant-baseline="middle" font-size="10" fill="#888">20%</text>
  <line x1="60" y1="208.0" x2="760" y2="208.0" stroke="#333" stroke-width="1" stroke-dasharray="4,4" opacity="0.5"/>
  <text x="50" y="208.0" text-anchor="end" dominant-baseline="middle" font-size="10" fill="#888">40%</text>
  <line x1="60" y1="152.0" x2="760" y2="152.0" stroke="#333" stroke-width="1" stroke-dasharray="4,4" opacity="0.5"/>
  <text x="50" y="152.0" text-anchor="end" dominant-baseline="middle" font-size="10" fill="#888">60%</text>
  <line x1="60" y1="96.0" x2="760" y2="96.0" stroke="#333" stroke-width="1" stroke-dasharray="4,4" opacity="0.5"/>
  <text x="50" y="96.0" text-anchor="end" dominant-baseline="middle" font-size="10" fill="#888">80%</text>
  <line x1="60" y1="40.0" x2="760" y2="40.0" stroke="#333" stroke-width="1" stroke-dasharray="4,4" opacity="0.5"/>
  <text x="50" y="40.0" text-anchor="end" dominant-baseline="middle" font-size="10" fill="#888">100%</text>

  <!-- Referans çizgileri -->
  <line x1="60" y1="236.0" x2="760" y2="236.0" stroke="#ef4444" stroke-width="1" stroke-dasharray="2,2" opacity="0.7"/>
  <text x="745" y="236.0" dominant-baseline="middle" font-size="9" fill="#ef4444">Kritik (30%)</text>
  <line x1="60" y1="180.0" x2="760" y2="180.0" stroke="#eab308" stroke-width="1" stroke-dasharray="2,2" opacity="0.7"/>
  <text x="745" y="180.0" dominant-baseline="middle" font-size="9" fill="#eab308">Normal (50%)</text>

  <!-- Toplam doluluk -->
  <polyline points="60.0,193.2 70.0,192.5 80.0,192.0 90.0,191.6 100.0,191.1 110.0,190.8 120.0,190.4 130.0,190.1 140.0,189.6 150.0,188.8 160.0,187.8 170.0,187.0 180.0,186.2 190.0,185.6 200.0,185.0 210.0,184.3 220.0,183.6 230.0,183.2 240.0,182.9 250.0,182.7 260.0,182.7 270.0,182.4 280.0,182.3 290.0,182.3 300.0,182.2 310.0,182.2 320.0,182.2 330.0,182.2 340.0,182.3 350.0,182.4 360.0,182.5 370.0,182.6 380.0,182.7 390.0,182.9 400.0,183.1 410.0,183.2 420.0,183.3 430.0,183.4 440.0,183.5 450.0,183.7 460.0,183.9 470.0,184.2 480.0,184.4 490.0,184.7 500.0,185.0 510.0,185.3 520.0,185.6 530.0,186.0 540.0,186.3 550.0,186.6 560.0,187.0 570.0,187.3 580.0,187.6 590.0,188.0 600.0,188.3 610.0,188.6 620.0,189.0 630.0,189.3 640.0,189.6 650.0,189.9 660.0,190.2 670.0,190.5 680.0,190.8 690.0,191.1 700.0,191.4 710.0,191.6 720.0,192.0 730.0,192.3 740.0,192.6 750.0,193.0 760.0,193.3" fill="none" stroke="#22c55e" stroke-width="2.5" stroke-linecap="round" stroke-linejoin="round"/>
  <polyline points="60.0,193.2 70.0,192.5 80.0,192.0 90.0,191.6 100.0,191.1 110.0,190.8 120.0,190.4 130.0,190.1 140.0,189.6 150.0,188.8 160.0,187.8 170.0,187.0 180.0,186.2 190.0,185.6 200.0,185.0 210.0,184.3 220.0,183.6 230.0,183.2 240.0,182.9 250.0,182.7 260.0,182.7 270.0,182.4 280.0,182.3 290.0,182.3 300.0,182.2 310.0,182.2 320.0,182.2 330.0,182.2 340.0,182.3 350.0,182.4 360.0,182.5 370.0,182.6 380.0,182.7 390.0,182.9 400.0,183.1 410.0,183.2 420.0,183.3 430.0,183.4 440.0,183.5 450.0,183.7 460.0,183.9 470.0,184.2 480.0,184.4 490.0,184.7 500.0,185.0 510.0,185.3 520.0,185.6 530.0,186.0 540.0,186.3 550.0,186.6 560.0,187.0 570.0,187.3 580.0,187.6 590.0,188.0 600.0,188.3 610.0,188.6 620.0,189.0 630.0,189.3 640.0,189.6 650.0,189.9 660.0,190.2 670.0,190.5 680.0,190.8 690.0,191.1 700.0,191.4 710.0,191.6 720.0,192.0 730.0,192.3 740.0,192.6 750.0,193.0 760.0,193.3" fill="none" stroke="#22c55e" stroke-width="5" opacity="0.1" stroke-linecap="round" stroke-linejoin="round"/>

  <!-- Aktif doluluk -->
  <polyline points="60.0,211.1 70.0,210.2 80.0,209.7 90.0,209.2 100.0,208.7 110.0,208.3 120.0,207.9 130.0,207.5 140.0,207.0 150.0,206.2 160.0,205.0 170.0,204.1 180.0,203.2 190.0,202.5 200.0,201.9 210.0,201.0 220.0,200.3 230.0,199.9 240.0,199.6 250.0,199.4 260.0,199.3 270.0,199.0 280.0,198.9 290.0,198.9 300.0,198.7 310.0,198.7 320.0,198.8 330.0,198.8 340.0,198.8 350.0,198.9 360.0,199.0 370.0,199.2 380.0,199.4 390.0,199.5 400.0,199.7 410.0,199.8 420.0,200.0 430.0,200.1 440.0,200.2 450.0,200.4 460.0,200.7 470.0,201.0 480.0,201.3 490.0,201.6 500.0,201.8 510.0,202.2 520.0,202.6 530.0,203.0 540.0,203.3 550.0,203.7 560.0,204.1 570.0,204.4 580.0,204.8 590.0,205.2 600.0,205.5 610.0,205.9 620.0,206.3 630.0,206.7 640.0,207.0 650.0,207.4 660.0,207.7 670.0,208.0 680.0,208.3 690.0,208.7 700.0,209.0 710.0,209.3 720.0,209.7 730.0,210.0 740.0,210.4 750.0,210.8 760.0,211.1" fill="none" stroke="#3b82f6" stroke-width="2.5" stroke-linecap="round" stroke-linejoin="round"/>
  <polyline points="60.0,211.1 70.0,210.2 80.0,209.7 90.0,209.2 100.0,208.7 110.0,208.3 120.0,207.9 130.0,207.5 140.0,207.0 150.0,206.2 160.0,205.0 170.0,204.1 180.0,203.2 190.0,202.5 200.0,201.9 210.0,201.0 220.0,200.3 230.0,199.9 240.0,199.6 250.0,199.4 260.0,199.3 270.0,199.0 280.0,198.9 290.0,198.9 300.0,198.7 310.0,198.7 320.0,198.8 330.0,198.8 340.0,198.8 350.0,198.9 360.0,199.0 370.0,199.2 380.0,199.4 390.0,199.5 400.0,199.7 410.0,199.8 420.0,200.0 430.0,200.1 440.0,200.2 450.0,200.4 460.0,200.7 470.0,201.0 480.0,201.3 490.0,201.6 500.0,201.8 510.0,202.2 520.0,202.6 530.0,203.0 540.0,203.3 550.0,203.7 560.0,204.1 570.0,204.4 580.0,204.8 590.0,205.2 600.0,205.5 610.0,205.9 620.0,206.3 630.0,206.7 640.0,207.0 650.0,207.4 660.0,207.7 670.0,208.0 680.0,208.3 690.0,208.7 700.0,209.0 710.0,209.3 720.0,209.7 730.0,210.0 740.0,210.4 750.0,210.8 760.0,211.1" fill="none" stroke="#3b82f6" stroke-width="5" opacity="0.1" stroke-linecap="round" stroke-linejoin="round"/>

  <!-- Noktalar -->
  <circle cx="60.0" cy="193.2" r="3" fill="#22c55e"/><circle cx="70.0" cy="192.5" r="3" fill="#22c55e"/><circle cx="80.0" cy="192.0" r="3" fill="#22c55e"/><circle cx="90.0" cy="191.6" r="3" fill="#22c55e"/><circle cx="100.0" cy="191.1" r="3" fill="#22c55e"/><circle cx="110.0" cy="190.8" r="3" fill="#22c55e"/><circle cx="120.0" cy="190.4" r="3" fill="#22c55e"/><circle cx="130.0" cy="190.1" r="3" fill="#22c55e"/><circle cx="140.0" cy="189.6" r="3" fill="#22c55e"/><circle cx="150.0" cy="188.8" r="3" fill="#22c55e"/><circle cx="160.0" cy="187.8" r="3" fill="#22c55e"/><circle cx="170.0" cy="187.0" r="3" fill="#22c55e"/><circle cx="180.0" cy="186.2" r="3" fill="#22c55e"/><circle cx="190.0" cy="185.6" r="3" fill="#22c55e"/><circle cx="200.0" cy="185.0" r="3" fill="#22c55e"/><circle cx="210.0" cy="184.3" r="3" fill="#22c55e"/><circle cx="220.0" cy="183.6" r="3" fill="#22c55e"/><circle cx="230.0" cy="183.2" r="3" fill="#22c55e"/><circle cx="240.0" cy="182.9" r="3" fill="#22c55e"/><circle cx="250.0" cy="182.7" r="3" fill="#22c55e"/><circle cx="260.0" cy="182.7" r="3" fill="#22c55e"/><circle cx="270.0" cy="182.4" r="3" fill="#22c55e"/><circle cx="280.0" cy="182.3" r="3" fill="#22c55e"/><circle cx="290.0" cy="182.3" r="3" fill="#22c55e"/><circle cx="300.0" cy="182.2" r="3" fill="#22c55e"/><circle cx="310.0" cy="182.2" r="3" fill="#22c55e"/><circle cx="320.0" cy="182.2" r="3" fill="#22c55e"/><circle cx="330.0" cy="182.2" r="3" fill="#22c55e"/><circle cx="340.0" cy="182.3" r="3" fill="#22c55e"/><circle cx="350.0" cy="182.4" r="3" fill="#22c55e"/><circle cx="360.0" cy="182.5" r="3" fill="#22c55e"/><circle cx="370.0" cy="182.6" r="3" fill="#22c55e"/><circle cx="380.0" cy="182.7" r="3" fill="#22c55e"/><circle cx="390.0" cy="182.9" r="3" fill="#22c55e"/><circle cx="400.0" cy="183.1" r="3" fill="#22c55e"/><circle cx="410.0" cy="183.2" r="3" fill="#22c55e"/><circle cx="420.0" cy="183.3" r="3" fill="#22c55e"/><circle cx="430.0" cy="183.4" r="3" fill="#22c55e"/><circle cx="440.0" cy="183.5" r="3" fill="#22c55e"/><circle cx="450.0" cy="183.7" r="3" fill="#22c55e"/><circle cx="460.0" cy="183.9" r="3" fill="#22c55e"/><circle cx="470.0" cy="184.2" r="3" fill="#22c55e"/><circle cx="480.0" cy="184.4" r="3" fill="#22c55e"/><circle cx="490.0" cy="184.7" r="3" fill="#22c55e"/><circle cx="500.0" cy="185.0" r="3" fill="#22c55e"/><circle cx="510.0" cy="185.3" r="3" fill="#22c55e"/><circle cx="520.0" cy="185.6" r="3" fill="#22c55e"/><circle cx="530.0" cy="186.0" r="3" fill="#22c55e"/><circle cx="540.0" cy="186.3" r="3" fill="#22c55e"/><circle cx="550.0" cy="186.6" r="3" fill="#22c55e"/><circle cx="560.0" cy="187.0" r="3" fill="#22c55e"/><circle cx="570.0" cy="187.3" r="3" fill="#22c55e"/><circle cx="580.0" cy="187.6" r="3" fill="#22c55e"/><circle cx="590.0" cy="188.0" r="3" fill="#22c55e"/><circle cx="600.0" cy="188.3" r="3" fill="#22c55e"/><circle cx="610.0" cy="188.6" r="3" fill="#22c55e"/><circle cx="620.0" cy="189.0" r="3" fill="#22c55e"/><circle cx="630.0" cy="189.3" r="3" fill="#22c55e"/><circle cx="640.0" cy="189.6" r="3" fill="#22c55e"/><circle cx="650.0" cy="189.9" r="3" fill="#22c55e"/><circle cx="660.0" cy="190.2" r="3" fill="#22c55e"/><circle cx="670.0" cy="190.5" r="3" fill="#22c55e"/><circle cx="680.0" cy="190.8" r="3" fill="#22c55e"/><circle cx="690.0" cy="191.1" r="3" fill="#22c55e"/><circle cx="700.0" cy="191.4" r="3" fill="#22c55e"/><circle cx="710.0" cy="191.6" r="3" fill="#22c55e"/><circle cx="720.0" cy="192.0" r="3" fill="#22c55e"/><circle cx="730.0" cy="192.3" r="3" fill="#22c55e"/><circle cx="740.0" cy="192.6" r="3" fill="#22c55e"/><circle cx="750.0" cy="193.0" r="3" fill="#22c55e"/><circle cx="760.0" cy="193.3" r="3" fill="#22c55e"/>
  <circle cx="60.0" cy="211.1" r="3" fill="#3b82f6"/><circle cx="70.0" cy="210.2" r="3" fill="#3b82f6"/><circle cx="80.0" cy="209.7" r="3" fill="#3b82f6"/><circle cx="90.0" cy="209.2" r="3" fill="#3b82f6"/><circle cx="100.0" cy="208.7" r="3" fill="#3b82f6"/><circle cx="110.0" cy="208.3" r="3" fill="#3b82f6"/><circle cx="120.0" cy="207.9" r="3" fill="#3b82f6"/><circle cx="130.0" cy="207.5" r="3" fill="#3b82f6"/><circle cx="140.0" cy="207.0" r="3" fill="#3b82f6"/><circle cx="150.0" cy="206.2" r="3" fill="#3b82f6"/><circle cx="160.0" cy="205.0" r="3" fill="#3b82f6"/><circle cx="170.0" cy="204.1" r="3" fill="#3b82f6"/><circle cx="180.0" cy="203.2" r="3" fill="#3b82f6"/><circle cx="190.0" cy="202.5" r="3" fill="#3b82f6"/><circle cx="200.0" cy="201.9" r="3" fill="#3b82f6"/><circle cx="210.0" cy="201.0" r="3" fill="#3b82f6"/><circle cx="220.0" cy="200.3" r="3" fill="#3b82f6"/><circle cx="230.0" cy="199.9" r="3" fill="#3b82f6"/><circle cx="240.0" cy="199.6" r="3" fill="#3b82f6"/><circle cx="250.0" cy="199.4" r="3" fill="#3b82f6"/><circle cx="260.0" cy="199.3" r="3" fill="#3b82f6"/><circle cx="270.0" cy="199.0" r="3" fill="#3b82f6"/><circle cx="280.0" cy="198.9" r="3" fill="#3b82f6"/><circle cx="290.0" cy="198.9" r="3" fill="#3b82f6"/><circle cx="300.0" cy="198.7" r="3" fill="#3b82f6"/><circle cx="310.0" cy="198.7" r="3" fill="#3b82f6"/><circle cx="320.0" cy="198.8" r="3" fill="#3b82f6"/><circle cx="330.0" cy="198.8" r="3" fill="#3b82f6"/><circle cx="340.0" cy="198.8" r="3" fill="#3b82f6"/><circle cx="350.0" cy="198.9" r="3" fill="#3b82f6"/><circle cx="360.0" cy="199.0" r="3" fill="#3b82f6"/><circle cx="370.0" cy="199.2" r="3" fill="#3b82f6"/><circle cx="380.0" cy="199.4" r="3" fill="#3b82f6"/><circle cx="390.0" cy="199.5" r="3" fill="#3b82f6"/><circle cx="400.0" cy="199.7" r="3" fill="#3b82f6"/><circle cx="410.0" cy="199.8" r="3" fill="#3b82f6"/><circle cx="420.0" cy="200.0" r="3" fill="#3b82f6"/><circle cx="430.0" cy="200.1" r="3" fill="#3b82f6"/><circle cx="440.0" cy="200.2" r="3" fill="#3b82f6"/><circle cx="450.0" cy="200.4" r="3" fill="#3b82f6"/><circle cx="460.0" cy="200.7" r="3" fill="#3b82f6"/><circle cx="470.0" cy="201.0" r="3" fill="#3b82f6"/><circle cx="480.0" cy="201.3" r="3" fill="#3b82f6"/><circle cx="490.0" cy="201.6" r="3" fill="#3b82f6"/><circle cx="500.0" cy="201.8" r="3" fill="#3b82f6"/><circle cx="510.0" cy="202.2" r="3" fill="#3b82f6"/><circle cx="520.0" cy="202.6" r="3" fill="#3b82f6"/><circle cx="530.0" cy="203.0" r="3" fill="#3b82f6"/><circle cx="540.0" cy="203.3" r="3" fill="#3b82f6"/><circle cx="550.0" cy="203.7" r="3" fill="#3b82f6"/><circle cx="560.0" cy="204.1" r="3" fill="#3b82f6"/><circle cx="570.0" cy="204.4" r="3" fill="#3b82f6"/><circle cx="580.0" cy="204.8" r="3" fill="#3b82f6"/><circle cx="590.0" cy="205.2" r="3" fill="#3b82f6"/><circle cx="600.0" cy="205.5" r="3" fill="#3b82f6"/><circle cx="610.0" cy="205.9" r="3" fill="#3b82f6"/><circle cx="620.0" cy="206.3" r="3" fill="#3b82f6"/><circle cx="630.0" cy="206.7" r="3" fill="#3b82f6"/><circle cx="640.0" cy="207.0" r="3" fill="#3b82f6"/><circle cx="650.0" cy="207.4" r="3" fill="#3b82f6"/><circle cx="660.0" cy="207.7" r="3" fill="#3b82f6"/><circle cx="670.0" cy="208.0" r="3" fill="#3b82f6"/><circle cx="680.0" cy="208.3" r="3" fill="#3b82f6"/><circle cx="690.0" cy="208.7" r="3" fill="#3b82f6"/><circle cx="700.0" cy="209.0" r="3" fill="#3b82f6"/><circle cx="710.0" cy="209.3" r="3" fill="#3b82f6"/><circle cx="720.0" cy="209.7" r="3" fill="#3b82f6"/><circle cx="730.0" cy="210.0" r="3" fill="#3b82f6"/><circle cx="740.0" cy="210.4" r="3" fill="#3b82f6"/><circle cx="750.0" cy="210.8" r="3" fill="#3b82f6"/><circle cx="760.0" cy="211.1" r="3" fill="#3b82f6"/>

  <!-- X ekseni -->
  <text x="60.0" y="380" text-anchor="middle" font-size="10" fill="#888">14.05.2026</text>
  <text x="170.0" y="380" text-anchor="middle" font-size="10" fill="#888">25.05.2026</text>
  <text x="280.0" y="380" text-anchor="middle" font-size="10" fill="#888">05.06.2026</text>
  <text x="390.0" y="380" text-anchor="middle" font-size="10" fill="#888">16.06.2026</text>
  <text x="500.0" y="380" text-anchor="middle" font-size="10" fill="#888">27.06.2026</text>
  <text x="610.0" y="380" text-anchor="middle" font-size="10" fill="#888">08.07.2026</text>
  <text x="720.0" y="380" text-anchor="middle" font-size="10" fill="#888">19.07.2026</text>

  <!-- Legend -->
  <g transform="translate(60, 345)">
    <rect x="0" y="0" width="12" height="12" fill="#22c55e" rx="2"/>
    <text x="18" y="10" font-size="11" fill="#c9d1d9">Toplam Doluluk</text>
    <rect x="140" y="0" width="12" height="12" fill="#3b82f6" rx="2"/>
    <text x="158" y="10" font-size="11" fill="#c9d1d9">Aktif Doluluk</text>
  </g>
</svg>