<svg xmlns="http://www.w3.org/2000/svg" viewBox="0 0 800 400" width="100%" style="max-width:800px;">
  <rect width="800" height="400" fill="#0d1117" rx="6"/>
  <text x="400.0" y="25" text-anchor="middle" font-size="16" font-weight="bold" fill="#c9d1d9">Son 90 Gün - Günlük Ortalama</text>

  <!-- Y grid -->
  <line x1="60" y1="320.0" x2="760" y2="320.0" stroke="#333" stroke-width="1" stroke-dasharray="4,4" opacity="0.5"/>
  <text x="50" y="320.0" text-anchor="end" dominant-baseline="middle" font-size="10" fill="#888">0%</text>
  <line x1="60" y1="264.0" x2="760" y2="264.0" stroke="#333" stroke-width="1" stroke-dasharray="4,4" opacity="0.5"/>
  <text x="50" y="264.0" text-anchor="end" dominant-baseline="middle" font-size="10" fill="#888">20%</text>
  <line x1="60" y1="208.0" x2="760" y2="208.0" stroke="#333" stroke-width="1" stroke-dasharray="4,4" opacity="0.5"/>
  <text x="50" y="208.0" text-anchor="end" dominant-baseline="middle" font-size="10" fill="#888">40%</text>
  <line x1="60" y1="152.0" x2="760" y2="152.0" stroke="#333" stroke-width="1" stroke-dasharray="4,4" opacity="0.5"/>
  <text x="50" y="152.0" text-anchor="end" dominant-baseline="middle" font-size="10" fill="#888">60%</text>
  <line x1="60" y1="96.0" x2="760" y2="96.0" stroke="#333" stroke-width="1" stroke-dasharray="4,4" opacity="0.5"/>
  <text x="50" y="96.0" text-anchor="end" dominant-baseline="middle" font-size="10" fill="#888">80%</text>
  <line x1="60" y1="40.0" x2="760" y2="40.0" stroke="#333" stroke-width="1" stroke-dasharray="4,4" opacity="0.5"/>
  <text x="50" y="40.0" text-anchor="end" dominant-baseline="middle" font-size="10" fill="#888">100%</text>

  <!-- Referans çizgileri -->
  <line x1="60" y1="236.0" x2="760" y2="236.0" stroke="#ef4444" stroke-width="1" stroke-dasharray="2,2" opacity="0.7"/>
  <text x="745" y="236.0" dominant-baseline="middle" font-size="9" fill="#ef4444">Kritik (30%)</text>
  <line x1="60" y1="180.0" x2="760" y2="180.0" stroke="#eab308" stroke-width="1" stroke-dasharray="2,2" opacity="0.7"/>
  <text x="745" y="180.0" dominant-baseline="middle" font-size="9" fill="#eab308">Normal (50%)</text>

  <!-- Toplam doluluk -->
  <polyline points="60.0,193.2 73.5,192.5 86.9,192.0 100.4,191.6 113.8,191.1 127.3,190.8 140.8,190.4 154.2,190.1 167.7,189.6 181.2,188.8 194.6,187.8 208.1,187.0 221.5,186.2 235.0,185.6 248.5,185.0 261.9,184.3 275.4,183.6 288.8,183.2 302.3,182.9 315.8,182.7 329.2,182.7 342.7,182.4 356.2,182.3 369.6,182.3 383.1,182.2 396.5,182.2 410.0,182.2 423.5,182.2 436.9,182.3 450.4,182.4 463.8,182.5 477.3,182.6 490.8,182.7 504.2,182.9 517.7,183.1 531.2,183.2 544.6,183.3 558.1,183.4 571.5,183.5 585.0,183.7 598.5,183.9 611.9,184.2 625.4,184.4 638.8,184.7 652.3,185.0 665.8,185.3 679.2,185.6 692.7,186.0 706.2,186.3 719.6,186.6 733.1,187.0 746.5,187.3 760.0,187.6" fill="none" stroke="#22c55e" stroke-width="2.5" stroke-linecap="round" stroke-linejoin="round"/>
  <polyline points="60.0,193.2 73.5,192.5 86.9,192.0 100.4,191.6 113.8,191.1 127.3,190.8 140.8,190.4 154.2,190.1 167.7,189.6 181.2,188.8 194.6,187.8 208.1,187.0 221.5,186.2 235.0,185.6 248.5,185.0 261.9,184.3 275.4,183.6 288.8,183.2 302.3,182.9 315.8,182.7 329.2,182.7 342.7,182.4 356.2,182.3 369.6,182.3 383.1,182.2 396.5,182.2 410.0,182.2 423.5,182.2 436.9,182.3 450.4,182.4 463.8,182.5 477.3,182.6 490.8,182.7 504.2,182.9 517.7,183.1 531.2,183.2 544.6,183.3 558.1,183.4 571.5,183.5 585.0,183.7 598.5,183.9 611.9,184.2 625.4,184.4 638.8,184.7 652.3,185.0 665.8,185.3 679.2,185.6 692.7,186.0 706.2,186.3 719.6,186.6 733.1,187.0 746.5,187.3 760.0,187.6" fill="none" stroke="#22c55e" stroke-width="5" opacity="0.1" stroke-linecap="round" stroke-linejoin="round"/>

  <!-- Aktif doluluk -->
  <polyline points="60.0,211.1 73.5,210.2 86.9,209.7 100.4,209.2 113.8,208.7 127.3,208.3 140.8,207.9 154.2,207.5 167.7,207.0 181.2,206.2 194.6,205.0 208.1,204.1 221.5,203.2 235.0,202.5 248.5,201.9 261.9,201.0 275.4,200.3 288.8,199.9 302.3,199.6 315.8,199.4 329.2,199.3 342.7,199.0 356.2,198.9 369.6,198.9 383.1,198.7 396.5,198.7 410.0,198.8 423.5,198.8 436.9,198.8 450.4,198.9 463.8,199.0 477.3,199.2 490.8,199.4 504.2,199.5 517.7,199.7 531.2,199.8 544.6,200.0 558.1,200.1 571.5,200.2 585.0,200.4 598.5,200.7 611.9,201.0 625.4,201.3 638.8,201.6 652.3,201.8 665.8,202.2 679.2,202.6 692.7,203.0 706.2,203.3 719.6,203.7 733.1,204.1 746.5,204.4 760.0,204.8" fill="none" stroke="#3b82f6" stroke-width="2.5" stroke-linecap="round" stroke-linejoin="round"/>
  <polyline points="60.0,211.1 73.5,210.2 86.9,209.7 100.4,209.2 113.8,208.7 127.3,208.3 140.8,207.9 154.2,207.5 167.7,207.0 181.2,206.2 194.6,205.0 208.1,204.1 221.5,203.2 235.0,202.5 248.5,201.9 261.9,201.0 275.4,200.3 288.8,199.9 302.3,199.6 315.8,199.4 329.2,199.3 342.7,199.0 356.2,198.9 369.6,198.9 383.1,198.7 396.5,198.7 410.0,198.8 423.5,198.8 436.9,198.8 450.4,198.9 463.8,199.0 477.3,199.2 490.8,199.4 504.2,199.5 517.7,199.7 531.2,199.8 544.6,200.0 558.1,200.1 571.5,200.2 585.0,200.4 598.5,200.7 611.9,201.0 625.4,201.3 638.8,201.6 652.3,201.8 665.8,202.2 679.2,202.6 692.7,203.0 706.2,203.3 719.6,203.7 733.1,204.1 746.5,204.4 760.0,204.8" fill="none" stroke="#3b82f6" stroke-width="5" opacity="0.1" stroke-linecap="round" stroke-linejoin="round"/>

  <!-- Noktalar -->
  <circle cx="60.0" cy="193.2" r="3" fill="#22c55e"/><circle cx="73.5" cy="192.5" r="3" fill="#22c55e"/><circle cx="86.9" cy="192.0" r="3" fill="#22c55e"/><circle cx="100.4" cy="191.6" r="3" fill="#22c55e"/><circle cx="113.8" cy="191.1" r="3" fill="#22c55e"/><circle cx="127.3" cy="190.8" r="3" fill="#22c55e"/><circle cx="140.8" cy="190.4" r="3" fill="#22c55e"/><circle cx="154.2" cy="190.1" r="3" fill="#22c55e"/><circle cx="167.7" cy="189.6" r="3" fill="#22c55e"/><circle cx="181.2" cy="188.8" r="3" fill="#22c55e"/><circle cx="194.6" cy="187.8" r="3" fill="#22c55e"/><circle cx="208.1" cy="187.0" r="3" fill="#22c55e"/><circle cx="221.5" cy="186.2" r="3" fill="#22c55e"/><circle cx="235.0" cy="185.6" r="3" fill="#22c55e"/><circle cx="248.5" cy="185.0" r="3" fill="#22c55e"/><circle cx="261.9" cy="184.3" r="3" fill="#22c55e"/><circle cx="275.4" cy="183.6" r="3" fill="#22c55e"/><circle cx="288.8" cy="183.2" r="3" fill="#22c55e"/><circle cx="302.3" cy="182.9" r="3" fill="#22c55e"/><circle cx="315.8" cy="182.7" r="3" fill="#22c55e"/><circle cx="329.2" cy="182.7" r="3" fill="#22c55e"/><circle cx="342.7" cy="182.4" r="3" fill="#22c55e"/><circle cx="356.2" cy="182.3" r="3" fill="#22c55e"/><circle cx="369.6" cy="182.3" r="3" fill="#22c55e"/><circle cx="383.1" cy="182.2" r="3" fill="#22c55e"/><circle cx="396.5" cy="182.2" r="3" fill="#22c55e"/><circle cx="410.0" cy="182.2" r="3" fill="#22c55e"/><circle cx="423.5" cy="182.2" r="3" fill="#22c55e"/><circle cx="436.9" cy="182.3" r="3" fill="#22c55e"/><circle cx="450.4" cy="182.4" r="3" fill="#22c55e"/><circle cx="463.8" cy="182.5" r="3" fill="#22c55e"/><circle cx="477.3" cy="182.6" r="3" fill="#22c55e"/><circle cx="490.8" cy="182.7" r="3" fill="#22c55e"/><circle cx="504.2" cy="182.9" r="3" fill="#22c55e"/><circle cx="517.7" cy="183.1" r="3" fill="#22c55e"/><circle cx="531.2" cy="183.2" r="3" fill="#22c55e"/><circle cx="544.6" cy="183.3" r="3" fill="#22c55e"/><circle cx="558.1" cy="183.4" r="3" fill="#22c55e"/><circle cx="571.5" cy="183.5" r="3" fill="#22c55e"/><circle cx="585.0" cy="183.7" r="3" fill="#22c55e"/><circle cx="598.5" cy="183.9" r="3" fill="#22c55e"/><circle cx="611.9" cy="184.2" r="3" fill="#22c55e"/><circle cx="625.4" cy="184.4" r="3" fill="#22c55e"/><circle cx="638.8" cy="184.7" r="3" fill="#22c55e"/><circle cx="652.3" cy="185.0" r="3" fill="#22c55e"/><circle cx="665.8" cy="185.3" r="3" fill="#22c55e"/><circle cx="679.2" cy="185.6" r="3" fill="#22c55e"/><circle cx="692.7" cy="186.0" r="3" fill="#22c55e"/><circle cx="706.2" cy="186.3" r="3" fill="#22c55e"/><circle cx="719.6" cy="186.6" r="3" fill="#22c55e"/><circle cx="733.1" cy="187.0" r="3" fill="#22c55e"/><circle cx="746.5" cy="187.3" r="3" fill="#22c55e"/><circle cx="760.0" cy="187.6" r="3" fill="#22c55e"/>
  <circle cx="60.0" cy="211.1" r="3" fill="#3b82f6"/><circle cx="73.5" cy="210.2" r="3" fill="#3b82f6"/><circle cx="86.9" cy="209.7" r="3" fill="#3b82f6"/><circle cx="100.4" cy="209.2" r="3" fill="#3b82f6"/><circle cx="113.8" cy="208.7" r="3" fill="#3b82f6"/><circle cx="127.3" cy="208.3" r="3" fill="#3b82f6"/><circle cx="140.8" cy="207.9" r="3" fill="#3b82f6"/><circle cx="154.2" cy="207.5" r="3" fill="#3b82f6"/><circle cx="167.7" cy="207.0" r="3" fill="#3b82f6"/><circle cx="181.2" cy="206.2" r="3" fill="#3b82f6"/><circle cx="194.6" cy="205.0" r="3" fill="#3b82f6"/><circle cx="208.1" cy="204.1" r="3" fill="#3b82f6"/><circle cx="221.5" cy="203.2" r="3" fill="#3b82f6"/><circle cx="235.0" cy="202.5" r="3" fill="#3b82f6"/><circle cx="248.5" cy="201.9" r="3" fill="#3b82f6"/><circle cx="261.9" cy="201.0" r="3" fill="#3b82f6"/><circle cx="275.4" cy="200.3" r="3" fill="#3b82f6"/><circle cx="288.8" cy="199.9" r="3" fill="#3b82f6"/><circle cx="302.3" cy="199.6" r="3" fill="#3b82f6"/><circle cx="315.8" cy="199.4" r="3" fill="#3b82f6"/><circle cx="329.2" cy="199.3" r="3" fill="#3b82f6"/><circle cx="342.7" cy="199.0" r="3" fill="#3b82f6"/><circle cx="356.2" cy="198.9" r="3" fill="#3b82f6"/><circle cx="369.6" cy="198.9" r="3" fill="#3b82f6"/><circle cx="383.1" cy="198.7" r="3" fill="#3b82f6"/><circle cx="396.5" cy="198.7" r="3" fill="#3b82f6"/><circle cx="410.0" cy="198.8" r="3" fill="#3b82f6"/><circle cx="423.5" cy="198.8" r="3" fill="#3b82f6"/><circle cx="436.9" cy="198.8" r="3" fill="#3b82f6"/><circle cx="450.4" cy="198.9" r="3" fill="#3b82f6"/><circle cx="463.8" cy="199.0" r="3" fill="#3b82f6"/><circle cx="477.3" cy="199.2" r="3" fill="#3b82f6"/><circle cx="490.8" cy="199.4" r="3" fill="#3b82f6"/><circle cx="504.2" cy="199.5" r="3" fill="#3b82f6"/><circle cx="517.7" cy="199.7" r="3" fill="#3b82f6"/><circle cx="531.2" cy="199.8" r="3" fill="#3b82f6"/><circle cx="544.6" cy="200.0" r="3" fill="#3b82f6"/><circle cx="558.1" cy="200.1" r="3" fill="#3b82f6"/><circle cx="571.5" cy="200.2" r="3" fill="#3b82f6"/><circle cx="585.0" cy="200.4" r="3" fill="#3b82f6"/><circle cx="598.5" cy="200.7" r="3" fill="#3b82f6"/><circle cx="611.9" cy="201.0" r="3" fill="#3b82f6"/><circle cx="625.4" cy="201.3" r="3" fill="#3b82f6"/><circle cx="638.8" cy="201.6" r="3" fill="#3b82f6"/><circle cx="652.3" cy="201.8" r="3" fill="#3b82f6"/><circle cx="665.8" cy="202.2" r="3" fill="#3b82f6"/><circle cx="679.2" cy="202.6" r="3" fill="#3b82f6"/><circle cx="692.7" cy="203.0" r="3" fill="#3b82f6"/><circle cx="706.2" cy="203.3" r="3" fill="#3b82f6"/><circle cx="719.6" cy="203.7" r="3" fill="#3b82f6"/><circle cx="733.1" cy="204.1" r="3" fill="#3b82f6"/><circle cx="746.5" cy="204.4" r="3" fill="#3b82f6"/><circle cx="760.0" cy="204.8" r="3" fill="#3b82f6"/>

  <!-- X ekseni -->
  <text x="60.0" y="380" text-anchor="middle" font-size="10" fill="#888">14.05.2026</text>
  <text x="167.7" y="380" text-anchor="middle" font-size="10" fill="#888">22.05.2026</text>
  <text x="275.4" y="380" text-anchor="middle" font-size="10" fill="#888">30.05.2026</text>
  <text x="383.1" y="380" text-anchor="middle" font-size="10" fill="#888">07.06.2026</text>
  <text x="490.8" y="380" text-anchor="middle" font-size="10" fill="#888">15.06.2026</text>
  <text x="598.5" y="380" text-anchor="middle" font-size="10" fill="#888">23.06.2026</text>
  <text x="706.2" y="380" text-anchor="middle" font-size="10" fill="#888">01.07.2026</text>

  <!-- Legend -->
  <g transform="translate(60, 345)">
    <rect x="0" y="0" width="12" height="12" fill="#22c55e" rx="2"/>
    <text x="18" y="10" font-size="11" fill="#c9d1d9">Toplam Doluluk</text>
    <rect x="140" y="0" width="12" height="12" fill="#3b82f6" rx="2"/>
    <text x="158" y="10" font-size="11" fill="#c9d1d9">Aktif Doluluk</text>
  </g>
</svg>