<svg xmlns="http://www.w3.org/2000/svg" viewBox="0 0 800 400" width="100%" style="max-width:800px;">
  <rect width="800" height="400" fill="#0d1117" rx="6"/>
  <text x="400.0" y="25" text-anchor="middle" font-size="16" font-weight="bold" fill="#c9d1d9">Son 30 Gün - Günlük Ortalama</text>

  <!-- Y grid -->
  <line x1="60" y1="320.0" x2="760" y2="320.0" stroke="#333" stroke-width="1" stroke-dasharray="4,4" opacity="0.5"/>
  <text x="50" y="320.0" text-anchor="end" dominant-baseline="middle" font-size="10" fill="#888">0%</text>
  <line x1="60" y1="264.0" x2="760" y2="264.0" stroke="#333" stroke-width="1" stroke-dasharray="4,4" opacity="0.5"/>
  <text x="50" y="264.0" text-anchor="end" dominant-baseline="middle" font-size="10" fill="#888">20%</text>
  <line x1="60" y1="208.0" x2="760" y2="208.0" stroke="#333" stroke-width="1" stroke-dasharray="4,4" opacity="0.5"/>
  <text x="50" y="208.0" text-anchor="end" dominant-baseline="middle" font-size="10" fill="#888">40%</text>
  <line x1="60" y1="152.0" x2="760" y2="152.0" stroke="#333" stroke-width="1" stroke-dasharray="4,4" opacity="0.5"/>
  <text x="50" y="152.0" text-anchor="end" dominant-baseline="middle" font-size="10" fill="#888">60%</text>
  <line x1="60" y1="96.0" x2="760" y2="96.0" stroke="#333" stroke-width="1" stroke-dasharray="4,4" opacity="0.5"/>
  <text x="50" y="96.0" text-anchor="end" dominant-baseline="middle" font-size="10" fill="#888">80%</text>
  <line x1="60" y1="40.0" x2="760" y2="40.0" stroke="#333" stroke-width="1" stroke-dasharray="4,4" opacity="0.5"/>
  <text x="50" y="40.0" text-anchor="end" dominant-baseline="middle" font-size="10" fill="#888">100%</text>

  <!-- Referans çizgileri -->
  <line x1="60" y1="236.0" x2="760" y2="236.0" stroke="#ef4444" stroke-width="1" stroke-dasharray="2,2" opacity="0.7"/>
  <text x="745" y="236.0" dominant-baseline="middle" font-size="9" fill="#ef4444">Kritik (30%)</text>
  <line x1="60" y1="180.0" x2="760" y2="180.0" stroke="#eab308" stroke-width="1" stroke-dasharray="2,2" opacity="0.7"/>
  <text x="745" y="180.0" dominant-baseline="middle" font-size="9" fill="#eab308">Normal (50%)</text>

  <!-- Toplam doluluk -->
  <polyline points="60.0,195.6 84.1,195.9 108.3,196.2 132.4,196.5 156.6,196.9 180.7,197.2 204.8,197.5 229.0,197.8 253.1,198.1 277.2,198.3 301.4,198.6 325.5,198.9 349.7,199.2 373.8,199.5 397.9,199.8 422.1,200.0 446.2,200.3 470.3,200.6 494.5,200.9 518.6,201.1 542.8,201.4 566.9,201.7 591.0,202.0 615.2,202.3 639.3,202.6 663.4,202.9 687.6,203.2 711.7,203.6 735.9,203.9 760.0,204.2" fill="none" stroke="#22c55e" stroke-width="2.5" stroke-linecap="round" stroke-linejoin="round"/>
  <polyline points="60.0,195.6 84.1,195.9 108.3,196.2 132.4,196.5 156.6,196.9 180.7,197.2 204.8,197.5 229.0,197.8 253.1,198.1 277.2,198.3 301.4,198.6 325.5,198.9 349.7,199.2 373.8,199.5 397.9,199.8 422.1,200.0 446.2,200.3 470.3,200.6 494.5,200.9 518.6,201.1 542.8,201.4 566.9,201.7 591.0,202.0 615.2,202.3 639.3,202.6 663.4,202.9 687.6,203.2 711.7,203.6 735.9,203.9 760.0,204.2" fill="none" stroke="#22c55e" stroke-width="5" opacity="0.1" stroke-linecap="round" stroke-linejoin="round"/>

  <!-- Aktif doluluk -->
  <polyline points="60.0,213.7 84.1,214.0 108.3,214.4 132.4,214.8 156.6,215.2 180.7,215.5 204.8,215.8 229.0,216.1 253.1,216.5 277.2,216.8 301.4,217.1 325.5,217.4 349.7,217.7 373.8,218.1 397.9,218.4 422.1,218.7 446.2,219.0 470.3,219.3 494.5,219.6 518.6,219.9 542.8,220.2 566.9,220.5 591.0,220.8 615.2,221.2 639.3,221.5 663.4,221.9 687.6,222.2 711.7,222.6 735.9,223.0 760.0,223.3" fill="none" stroke="#3b82f6" stroke-width="2.5" stroke-linecap="round" stroke-linejoin="round"/>
  <polyline points="60.0,213.7 84.1,214.0 108.3,214.4 132.4,214.8 156.6,215.2 180.7,215.5 204.8,215.8 229.0,216.1 253.1,216.5 277.2,216.8 301.4,217.1 325.5,217.4 349.7,217.7 373.8,218.1 397.9,218.4 422.1,218.7 446.2,219.0 470.3,219.3 494.5,219.6 518.6,219.9 542.8,220.2 566.9,220.5 591.0,220.8 615.2,221.2 639.3,221.5 663.4,221.9 687.6,222.2 711.7,222.6 735.9,223.0 760.0,223.3" fill="none" stroke="#3b82f6" stroke-width="5" opacity="0.1" stroke-linecap="round" stroke-linejoin="round"/>

  <!-- Noktalar -->
  <circle cx="60.0" cy="195.6" r="3" fill="#22c55e"/><circle cx="84.1" cy="195.9" r="3" fill="#22c55e"/><circle cx="108.3" cy="196.2" r="3" fill="#22c55e"/><circle cx="132.4" cy="196.5" r="3" fill="#22c55e"/><circle cx="156.6" cy="196.9" r="3" fill="#22c55e"/><circle cx="180.7" cy="197.2" r="3" fill="#22c55e"/><circle cx="204.8" cy="197.5" r="3" fill="#22c55e"/><circle cx="229.0" cy="197.8" r="3" fill="#22c55e"/><circle cx="253.1" cy="198.1" r="3" fill="#22c55e"/><circle cx="277.2" cy="198.3" r="3" fill="#22c55e"/><circle cx="301.4" cy="198.6" r="3" fill="#22c55e"/><circle cx="325.5" cy="198.9" r="3" fill="#22c55e"/><circle cx="349.7" cy="199.2" r="3" fill="#22c55e"/><circle cx="373.8" cy="199.5" r="3" fill="#22c55e"/><circle cx="397.9" cy="199.8" r="3" fill="#22c55e"/><circle cx="422.1" cy="200.0" r="3" fill="#22c55e"/><circle cx="446.2" cy="200.3" r="3" fill="#22c55e"/><circle cx="470.3" cy="200.6" r="3" fill="#22c55e"/><circle cx="494.5" cy="200.9" r="3" fill="#22c55e"/><circle cx="518.6" cy="201.1" r="3" fill="#22c55e"/><circle cx="542.8" cy="201.4" r="3" fill="#22c55e"/><circle cx="566.9" cy="201.7" r="3" fill="#22c55e"/><circle cx="591.0" cy="202.0" r="3" fill="#22c55e"/><circle cx="615.2" cy="202.3" r="3" fill="#22c55e"/><circle cx="639.3" cy="202.6" r="3" fill="#22c55e"/><circle cx="663.4" cy="202.9" r="3" fill="#22c55e"/><circle cx="687.6" cy="203.2" r="3" fill="#22c55e"/><circle cx="711.7" cy="203.6" r="3" fill="#22c55e"/><circle cx="735.9" cy="203.9" r="3" fill="#22c55e"/><circle cx="760.0" cy="204.2" r="3" fill="#22c55e"/>
  <circle cx="60.0" cy="213.7" r="3" fill="#3b82f6"/><circle cx="84.1" cy="214.0" r="3" fill="#3b82f6"/><circle cx="108.3" cy="214.4" r="3" fill="#3b82f6"/><circle cx="132.4" cy="214.8" r="3" fill="#3b82f6"/><circle cx="156.6" cy="215.2" r="3" fill="#3b82f6"/><circle cx="180.7" cy="215.5" r="3" fill="#3b82f6"/><circle cx="204.8" cy="215.8" r="3" fill="#3b82f6"/><circle cx="229.0" cy="216.1" r="3" fill="#3b82f6"/><circle cx="253.1" cy="216.5" r="3" fill="#3b82f6"/><circle cx="277.2" cy="216.8" r="3" fill="#3b82f6"/><circle cx="301.4" cy="217.1" r="3" fill="#3b82f6"/><circle cx="325.5" cy="217.4" r="3" fill="#3b82f6"/><circle cx="349.7" cy="217.7" r="3" fill="#3b82f6"/><circle cx="373.8" cy="218.1" r="3" fill="#3b82f6"/><circle cx="397.9" cy="218.4" r="3" fill="#3b82f6"/><circle cx="422.1" cy="218.7" r="3" fill="#3b82f6"/><circle cx="446.2" cy="219.0" r="3" fill="#3b82f6"/><circle cx="470.3" cy="219.3" r="3" fill="#3b82f6"/><circle cx="494.5" cy="219.6" r="3" fill="#3b82f6"/><circle cx="518.6" cy="219.9" r="3" fill="#3b82f6"/><circle cx="542.8" cy="220.2" r="3" fill="#3b82f6"/><circle cx="566.9" cy="220.5" r="3" fill="#3b82f6"/><circle cx="591.0" cy="220.8" r="3" fill="#3b82f6"/><circle cx="615.2" cy="221.2" r="3" fill="#3b82f6"/><circle cx="639.3" cy="221.5" r="3" fill="#3b82f6"/><circle cx="663.4" cy="221.9" r="3" fill="#3b82f6"/><circle cx="687.6" cy="222.2" r="3" fill="#3b82f6"/><circle cx="711.7" cy="222.6" r="3" fill="#3b82f6"/><circle cx="735.9" cy="223.0" r="3" fill="#3b82f6"/><circle cx="760.0" cy="223.3" r="3" fill="#3b82f6"/>

  <!-- X ekseni -->
  <text x="60.0" y="380" text-anchor="middle" font-size="10" fill="#888">31.07 00:00</text>
  <text x="180.7" y="380" text-anchor="middle" font-size="10" fill="#888">05.08 00:00</text>
  <text x="301.4" y="380" text-anchor="middle" font-size="10" fill="#888">10.08 00:00</text>
  <text x="422.1" y="380" text-anchor="middle" font-size="10" fill="#888">15.08 00:00</text>
  <text x="542.8" y="380" text-anchor="middle" font-size="10" fill="#888">20.08 00:00</text>
  <text x="663.4" y="380" text-anchor="middle" font-size="10" fill="#888">25.08 00:00</text>

  <!-- Legend -->
  <g transform="translate(60, 345)">
    <rect x="0" y="0" width="12" height="12" fill="#22c55e" rx="2"/>
    <text x="18" y="10" font-size="11" fill="#c9d1d9">Toplam Doluluk</text>
    <rect x="140" y="0" width="12" height="12" fill="#3b82f6" rx="2"/>
    <text x="158" y="10" font-size="11" fill="#c9d1d9">Aktif Doluluk</text>
  </g>
</svg>