<svg xmlns="http://www.w3.org/2000/svg" viewBox="0 0 900 400" width="100%" style="max-width:900px;">
  <rect width="900" height="400" fill="#0d1117" rx="6"/>
  <text x="450.0" y="25" text-anchor="middle" font-size="16" font-weight="bold" fill="#c9d1d9">Son 360 Gün - Günlük Ortalama</text>

  <!-- Y grid -->
  <line x1="60" y1="320.0" x2="860" y2="320.0" stroke="#333" stroke-width="1" stroke-dasharray="4,4" opacity="0.5"/>
  <text x="50" y="320.0" text-anchor="end" dominant-baseline="middle" font-size="10" fill="#888">0%</text>
  <line x1="60" y1="264.0" x2="860" y2="264.0" stroke="#333" stroke-width="1" stroke-dasharray="4,4" opacity="0.5"/>
  <text x="50" y="264.0" text-anchor="end" dominant-baseline="middle" font-size="10" fill="#888">20%</text>
  <line x1="60" y1="208.0" x2="860" y2="208.0" stroke="#333" stroke-width="1" stroke-dasharray="4,4" opacity="0.5"/>
  <text x="50" y="208.0" text-anchor="end" dominant-baseline="middle" font-size="10" fill="#888">40%</text>
  <line x1="60" y1="152.0" x2="860" y2="152.0" stroke="#333" stroke-width="1" stroke-dasharray="4,4" opacity="0.5"/>
  <text x="50" y="152.0" text-anchor="end" dominant-baseline="middle" font-size="10" fill="#888">60%</text>
  <line x1="60" y1="96.0" x2="860" y2="96.0" stroke="#333" stroke-width="1" stroke-dasharray="4,4" opacity="0.5"/>
  <text x="50" y="96.0" text-anchor="end" dominant-baseline="middle" font-size="10" fill="#888">80%</text>
  <line x1="60" y1="40.0" x2="860" y2="40.0" stroke="#333" stroke-width="1" stroke-dasharray="4,4" opacity="0.5"/>
  <text x="50" y="40.0" text-anchor="end" dominant-baseline="middle" font-size="10" fill="#888">100%</text>

  <!-- Referans çizgileri -->
  <line x1="60" y1="236.0" x2="860" y2="236.0" stroke="#ef4444" stroke-width="1" stroke-dasharray="2,2" opacity="0.7"/>
  <text x="845" y="236.0" dominant-baseline="middle" font-size="9" fill="#ef4444">Kritik (30%)</text>
  <line x1="60" y1="180.0" x2="860" y2="180.0" stroke="#eab308" stroke-width="1" stroke-dasharray="2,2" opacity="0.7"/>
  <text x="845" y="180.0" dominant-baseline="middle" font-size="9" fill="#eab308">Normal (50%)</text>

  <!-- Toplam doluluk -->
  <polyline points="60.0,193.2 71.0,192.5 81.9,192.0 92.9,191.6 103.8,191.1 114.8,190.8 125.8,190.4 136.7,190.1 147.7,189.6 158.6,188.8 169.6,187.8 180.5,187.0 191.5,186.2 202.5,185.6 213.4,185.0 224.4,184.3 235.3,183.6 246.3,183.2 257.3,182.9 268.2,182.7 279.2,182.7 290.1,182.4 301.1,182.3 312.1,182.3 323.0,182.2 334.0,182.2 344.9,182.2 355.9,182.2 366.8,182.3 377.8,182.4 388.8,182.5 399.7,182.6 410.7,182.7 421.6,182.9 432.6,183.1 443.6,183.2 454.5,183.3 465.5,183.4 476.4,183.5 487.4,183.7 498.4,183.9 509.3,184.2 520.3,184.4 531.2,184.7 542.2,185.0 553.2,185.3 564.1,185.6 575.1,186.0 586.0,186.3 597.0,186.6 607.9,187.0 618.9,187.3 629.9,187.6 640.8,188.0 651.8,188.3 662.7,188.6 673.7,189.0 684.7,189.3 695.6,189.6 706.6,189.9 717.5,190.2 728.5,190.5 739.5,190.8 750.4,191.1 761.4,191.4 772.3,191.6 783.3,192.0 794.2,192.3 805.2,192.6 816.2,193.0 827.1,193.3 838.1,193.6 849.0,193.8 860.0,194.0" fill="none" stroke="#22c55e" stroke-width="2.5" stroke-linecap="round" stroke-linejoin="round"/>
  <polyline points="60.0,193.2 71.0,192.5 81.9,192.0 92.9,191.6 103.8,191.1 114.8,190.8 125.8,190.4 136.7,190.1 147.7,189.6 158.6,188.8 169.6,187.8 180.5,187.0 191.5,186.2 202.5,185.6 213.4,185.0 224.4,184.3 235.3,183.6 246.3,183.2 257.3,182.9 268.2,182.7 279.2,182.7 290.1,182.4 301.1,182.3 312.1,182.3 323.0,182.2 334.0,182.2 344.9,182.2 355.9,182.2 366.8,182.3 377.8,182.4 388.8,182.5 399.7,182.6 410.7,182.7 421.6,182.9 432.6,183.1 443.6,183.2 454.5,183.3 465.5,183.4 476.4,183.5 487.4,183.7 498.4,183.9 509.3,184.2 520.3,184.4 531.2,184.7 542.2,185.0 553.2,185.3 564.1,185.6 575.1,186.0 586.0,186.3 597.0,186.6 607.9,187.0 618.9,187.3 629.9,187.6 640.8,188.0 651.8,188.3 662.7,188.6 673.7,189.0 684.7,189.3 695.6,189.6 706.6,189.9 717.5,190.2 728.5,190.5 739.5,190.8 750.4,191.1 761.4,191.4 772.3,191.6 783.3,192.0 794.2,192.3 805.2,192.6 816.2,193.0 827.1,193.3 838.1,193.6 849.0,193.8 860.0,194.0" fill="none" stroke="#22c55e" stroke-width="5" opacity="0.1" stroke-linecap="round" stroke-linejoin="round"/>

  <!-- Aktif doluluk -->
  <polyline points="60.0,211.1 71.0,210.2 81.9,209.7 92.9,209.2 103.8,208.7 114.8,208.3 125.8,207.9 136.7,207.5 147.7,207.0 158.6,206.2 169.6,205.0 180.5,204.1 191.5,203.2 202.5,202.5 213.4,201.9 224.4,201.0 235.3,200.3 246.3,199.9 257.3,199.6 268.2,199.4 279.2,199.3 290.1,199.0 301.1,198.9 312.1,198.9 323.0,198.7 334.0,198.7 344.9,198.8 355.9,198.8 366.8,198.8 377.8,198.9 388.8,199.0 399.7,199.2 410.7,199.4 421.6,199.5 432.6,199.7 443.6,199.8 454.5,200.0 465.5,200.1 476.4,200.2 487.4,200.4 498.4,200.7 509.3,201.0 520.3,201.3 531.2,201.6 542.2,201.8 553.2,202.2 564.1,202.6 575.1,203.0 586.0,203.3 597.0,203.7 607.9,204.1 618.9,204.4 629.9,204.8 640.8,205.2 651.8,205.5 662.7,205.9 673.7,206.3 684.7,206.7 695.6,207.0 706.6,207.4 717.5,207.7 728.5,208.0 739.5,208.3 750.4,208.7 761.4,209.0 772.3,209.3 783.3,209.7 794.2,210.0 805.2,210.4 816.2,210.8 827.1,211.1 838.1,211.5 849.0,211.7 860.0,212.0" fill="none" stroke="#3b82f6" stroke-width="2.5" stroke-linecap="round" stroke-linejoin="round"/>
  <polyline points="60.0,211.1 71.0,210.2 81.9,209.7 92.9,209.2 103.8,208.7 114.8,208.3 125.8,207.9 136.7,207.5 147.7,207.0 158.6,206.2 169.6,205.0 180.5,204.1 191.5,203.2 202.5,202.5 213.4,201.9 224.4,201.0 235.3,200.3 246.3,199.9 257.3,199.6 268.2,199.4 279.2,199.3 290.1,199.0 301.1,198.9 312.1,198.9 323.0,198.7 334.0,198.7 344.9,198.8 355.9,198.8 366.8,198.8 377.8,198.9 388.8,199.0 399.7,199.2 410.7,199.4 421.6,199.5 432.6,199.7 443.6,199.8 454.5,200.0 465.5,200.1 476.4,200.2 487.4,200.4 498.4,200.7 509.3,201.0 520.3,201.3 531.2,201.6 542.2,201.8 553.2,202.2 564.1,202.6 575.1,203.0 586.0,203.3 597.0,203.7 607.9,204.1 618.9,204.4 629.9,204.8 640.8,205.2 651.8,205.5 662.7,205.9 673.7,206.3 684.7,206.7 695.6,207.0 706.6,207.4 717.5,207.7 728.5,208.0 739.5,208.3 750.4,208.7 761.4,209.0 772.3,209.3 783.3,209.7 794.2,210.0 805.2,210.4 816.2,210.8 827.1,211.1 838.1,211.5 849.0,211.7 860.0,212.0" fill="none" stroke="#3b82f6" stroke-width="5" opacity="0.1" stroke-linecap="round" stroke-linejoin="round"/>

  <!-- Noktalar -->
  <circle cx="60.0" cy="193.2" r="3" fill="#22c55e"/><circle cx="71.0" cy="192.5" r="3" fill="#22c55e"/><circle cx="81.9" cy="192.0" r="3" fill="#22c55e"/><circle cx="92.9" cy="191.6" r="3" fill="#22c55e"/><circle cx="103.8" cy="191.1" r="3" fill="#22c55e"/><circle cx="114.8" cy="190.8" r="3" fill="#22c55e"/><circle cx="125.8" cy="190.4" r="3" fill="#22c55e"/><circle cx="136.7" cy="190.1" r="3" fill="#22c55e"/><circle cx="147.7" cy="189.6" r="3" fill="#22c55e"/><circle cx="158.6" cy="188.8" r="3" fill="#22c55e"/><circle cx="169.6" cy="187.8" r="3" fill="#22c55e"/><circle cx="180.5" cy="187.0" r="3" fill="#22c55e"/><circle cx="191.5" cy="186.2" r="3" fill="#22c55e"/><circle cx="202.5" cy="185.6" r="3" fill="#22c55e"/><circle cx="213.4" cy="185.0" r="3" fill="#22c55e"/><circle cx="224.4" cy="184.3" r="3" fill="#22c55e"/><circle cx="235.3" cy="183.6" r="3" fill="#22c55e"/><circle cx="246.3" cy="183.2" r="3" fill="#22c55e"/><circle cx="257.3" cy="182.9" r="3" fill="#22c55e"/><circle cx="268.2" cy="182.7" r="3" fill="#22c55e"/><circle cx="279.2" cy="182.7" r="3" fill="#22c55e"/><circle cx="290.1" cy="182.4" r="3" fill="#22c55e"/><circle cx="301.1" cy="182.3" r="3" fill="#22c55e"/><circle cx="312.1" cy="182.3" r="3" fill="#22c55e"/><circle cx="323.0" cy="182.2" r="3" fill="#22c55e"/><circle cx="334.0" cy="182.2" r="3" fill="#22c55e"/><circle cx="344.9" cy="182.2" r="3" fill="#22c55e"/><circle cx="355.9" cy="182.2" r="3" fill="#22c55e"/><circle cx="366.8" cy="182.3" r="3" fill="#22c55e"/><circle cx="377.8" cy="182.4" r="3" fill="#22c55e"/><circle cx="388.8" cy="182.5" r="3" fill="#22c55e"/><circle cx="399.7" cy="182.6" r="3" fill="#22c55e"/><circle cx="410.7" cy="182.7" r="3" fill="#22c55e"/><circle cx="421.6" cy="182.9" r="3" fill="#22c55e"/><circle cx="432.6" cy="183.1" r="3" fill="#22c55e"/><circle cx="443.6" cy="183.2" r="3" fill="#22c55e"/><circle cx="454.5" cy="183.3" r="3" fill="#22c55e"/><circle cx="465.5" cy="183.4" r="3" fill="#22c55e"/><circle cx="476.4" cy="183.5" r="3" fill="#22c55e"/><circle cx="487.4" cy="183.7" r="3" fill="#22c55e"/><circle cx="498.4" cy="183.9" r="3" fill="#22c55e"/><circle cx="509.3" cy="184.2" r="3" fill="#22c55e"/><circle cx="520.3" cy="184.4" r="3" fill="#22c55e"/><circle cx="531.2" cy="184.7" r="3" fill="#22c55e"/><circle cx="542.2" cy="185.0" r="3" fill="#22c55e"/><circle cx="553.2" cy="185.3" r="3" fill="#22c55e"/><circle cx="564.1" cy="185.6" r="3" fill="#22c55e"/><circle cx="575.1" cy="186.0" r="3" fill="#22c55e"/><circle cx="586.0" cy="186.3" r="3" fill="#22c55e"/><circle cx="597.0" cy="186.6" r="3" fill="#22c55e"/><circle cx="607.9" cy="187.0" r="3" fill="#22c55e"/><circle cx="618.9" cy="187.3" r="3" fill="#22c55e"/><circle cx="629.9" cy="187.6" r="3" fill="#22c55e"/><circle cx="640.8" cy="188.0" r="3" fill="#22c55e"/><circle cx="651.8" cy="188.3" r="3" fill="#22c55e"/><circle cx="662.7" cy="188.6" r="3" fill="#22c55e"/><circle cx="673.7" cy="189.0" r="3" fill="#22c55e"/><circle cx="684.7" cy="189.3" r="3" fill="#22c55e"/><circle cx="695.6" cy="189.6" r="3" fill="#22c55e"/><circle cx="706.6" cy="189.9" r="3" fill="#22c55e"/><circle cx="717.5" cy="190.2" r="3" fill="#22c55e"/><circle cx="728.5" cy="190.5" r="3" fill="#22c55e"/><circle cx="739.5" cy="190.8" r="3" fill="#22c55e"/><circle cx="750.4" cy="191.1" r="3" fill="#22c55e"/><circle cx="761.4" cy="191.4" r="3" fill="#22c55e"/><circle cx="772.3" cy="191.6" r="3" fill="#22c55e"/><circle cx="783.3" cy="192.0" r="3" fill="#22c55e"/><circle cx="794.2" cy="192.3" r="3" fill="#22c55e"/><circle cx="805.2" cy="192.6" r="3" fill="#22c55e"/><circle cx="816.2" cy="193.0" r="3" fill="#22c55e"/><circle cx="827.1" cy="193.3" r="3" fill="#22c55e"/><circle cx="838.1" cy="193.6" r="3" fill="#22c55e"/><circle cx="849.0" cy="193.8" r="3" fill="#22c55e"/><circle cx="860.0" cy="194.0" r="3" fill="#22c55e"/>
  <circle cx="60.0" cy="211.1" r="3" fill="#3b82f6"/><circle cx="71.0" cy="210.2" r="3" fill="#3b82f6"/><circle cx="81.9" cy="209.7" r="3" fill="#3b82f6"/><circle cx="92.9" cy="209.2" r="3" fill="#3b82f6"/><circle cx="103.8" cy="208.7" r="3" fill="#3b82f6"/><circle cx="114.8" cy="208.3" r="3" fill="#3b82f6"/><circle cx="125.8" cy="207.9" r="3" fill="#3b82f6"/><circle cx="136.7" cy="207.5" r="3" fill="#3b82f6"/><circle cx="147.7" cy="207.0" r="3" fill="#3b82f6"/><circle cx="158.6" cy="206.2" r="3" fill="#3b82f6"/><circle cx="169.6" cy="205.0" r="3" fill="#3b82f6"/><circle cx="180.5" cy="204.1" r="3" fill="#3b82f6"/><circle cx="191.5" cy="203.2" r="3" fill="#3b82f6"/><circle cx="202.5" cy="202.5" r="3" fill="#3b82f6"/><circle cx="213.4" cy="201.9" r="3" fill="#3b82f6"/><circle cx="224.4" cy="201.0" r="3" fill="#3b82f6"/><circle cx="235.3" cy="200.3" r="3" fill="#3b82f6"/><circle cx="246.3" cy="199.9" r="3" fill="#3b82f6"/><circle cx="257.3" cy="199.6" r="3" fill="#3b82f6"/><circle cx="268.2" cy="199.4" r="3" fill="#3b82f6"/><circle cx="279.2" cy="199.3" r="3" fill="#3b82f6"/><circle cx="290.1" cy="199.0" r="3" fill="#3b82f6"/><circle cx="301.1" cy="198.9" r="3" fill="#3b82f6"/><circle cx="312.1" cy="198.9" r="3" fill="#3b82f6"/><circle cx="323.0" cy="198.7" r="3" fill="#3b82f6"/><circle cx="334.0" cy="198.7" r="3" fill="#3b82f6"/><circle cx="344.9" cy="198.8" r="3" fill="#3b82f6"/><circle cx="355.9" cy="198.8" r="3" fill="#3b82f6"/><circle cx="366.8" cy="198.8" r="3" fill="#3b82f6"/><circle cx="377.8" cy="198.9" r="3" fill="#3b82f6"/><circle cx="388.8" cy="199.0" r="3" fill="#3b82f6"/><circle cx="399.7" cy="199.2" r="3" fill="#3b82f6"/><circle cx="410.7" cy="199.4" r="3" fill="#3b82f6"/><circle cx="421.6" cy="199.5" r="3" fill="#3b82f6"/><circle cx="432.6" cy="199.7" r="3" fill="#3b82f6"/><circle cx="443.6" cy="199.8" r="3" fill="#3b82f6"/><circle cx="454.5" cy="200.0" r="3" fill="#3b82f6"/><circle cx="465.5" cy="200.1" r="3" fill="#3b82f6"/><circle cx="476.4" cy="200.2" r="3" fill="#3b82f6"/><circle cx="487.4" cy="200.4" r="3" fill="#3b82f6"/><circle cx="498.4" cy="200.7" r="3" fill="#3b82f6"/><circle cx="509.3" cy="201.0" r="3" fill="#3b82f6"/><circle cx="520.3" cy="201.3" r="3" fill="#3b82f6"/><circle cx="531.2" cy="201.6" r="3" fill="#3b82f6"/><circle cx="542.2" cy="201.8" r="3" fill="#3b82f6"/><circle cx="553.2" cy="202.2" r="3" fill="#3b82f6"/><circle cx="564.1" cy="202.6" r="3" fill="#3b82f6"/><circle cx="575.1" cy="203.0" r="3" fill="#3b82f6"/><circle cx="586.0" cy="203.3" r="3" fill="#3b82f6"/><circle cx="597.0" cy="203.7" r="3" fill="#3b82f6"/><circle cx="607.9" cy="204.1" r="3" fill="#3b82f6"/><circle cx="618.9" cy="204.4" r="3" fill="#3b82f6"/><circle cx="629.9" cy="204.8" r="3" fill="#3b82f6"/><circle cx="640.8" cy="205.2" r="3" fill="#3b82f6"/><circle cx="651.8" cy="205.5" r="3" fill="#3b82f6"/><circle cx="662.7" cy="205.9" r="3" fill="#3b82f6"/><circle cx="673.7" cy="206.3" r="3" fill="#3b82f6"/><circle cx="684.7" cy="206.7" r="3" fill="#3b82f6"/><circle cx="695.6" cy="207.0" r="3" fill="#3b82f6"/><circle cx="706.6" cy="207.4" r="3" fill="#3b82f6"/><circle cx="717.5" cy="207.7" r="3" fill="#3b82f6"/><circle cx="728.5" cy="208.0" r="3" fill="#3b82f6"/><circle cx="739.5" cy="208.3" r="3" fill="#3b82f6"/><circle cx="750.4" cy="208.7" r="3" fill="#3b82f6"/><circle cx="761.4" cy="209.0" r="3" fill="#3b82f6"/><circle cx="772.3" cy="209.3" r="3" fill="#3b82f6"/><circle cx="783.3" cy="209.7" r="3" fill="#3b82f6"/><circle cx="794.2" cy="210.0" r="3" fill="#3b82f6"/><circle cx="805.2" cy="210.4" r="3" fill="#3b82f6"/><circle cx="816.2" cy="210.8" r="3" fill="#3b82f6"/><circle cx="827.1" cy="211.1" r="3" fill="#3b82f6"/><circle cx="838.1" cy="211.5" r="3" fill="#3b82f6"/><circle cx="849.0" cy="211.7" r="3" fill="#3b82f6"/><circle cx="860.0" cy="212.0" r="3" fill="#3b82f6"/>

  <!-- X ekseni -->
  <text x="60.0" y="380" text-anchor="middle" font-size="10" fill="#888">14.05.2026</text>
  <text x="191.5" y="380" text-anchor="middle" font-size="10" fill="#888">26.05.2026</text>
  <text x="323.0" y="380" text-anchor="middle" font-size="10" fill="#888">07.06.2026</text>
  <text x="454.5" y="380" text-anchor="middle" font-size="10" fill="#888">19.06.2026</text>
  <text x="586.0" y="380" text-anchor="middle" font-size="10" fill="#888">01.07.2026</text>
  <text x="717.5" y="380" text-anchor="middle" font-size="10" fill="#888">13.07.2026</text>
  <text x="849.0" y="380" text-anchor="middle" font-size="10" fill="#888">25.07.2026</text>

  <!-- Legend -->
  <g transform="translate(60, 345)">
    <rect x="0" y="0" width="12" height="12" fill="#22c55e" rx="2"/>
    <text x="18" y="10" font-size="11" fill="#c9d1d9">Toplam Doluluk</text>
    <rect x="140" y="0" width="12" height="12" fill="#3b82f6" rx="2"/>
    <text x="158" y="10" font-size="11" fill="#c9d1d9">Aktif Doluluk</text>
  </g>
</svg>