<svg xmlns="http://www.w3.org/2000/svg" viewBox="0 0 900 400" width="100%" style="max-width:900px;">
  <rect width="900" height="400" fill="#0d1117" rx="6"/>
  <text x="450.0" y="25" text-anchor="middle" font-size="16" font-weight="bold" fill="#c9d1d9">Son 180 Gün - Günlük Ortalama</text>

  <!-- Y grid -->
  <line x1="60" y1="320.0" x2="860" y2="320.0" stroke="#333" stroke-width="1" stroke-dasharray="4,4" opacity="0.5"/>
  <text x="50" y="320.0" text-anchor="end" dominant-baseline="middle" font-size="10" fill="#888">0%</text>
  <line x1="60" y1="264.0" x2="860" y2="264.0" stroke="#333" stroke-width="1" stroke-dasharray="4,4" opacity="0.5"/>
  <text x="50" y="264.0" text-anchor="end" dominant-baseline="middle" font-size="10" fill="#888">20%</text>
  <line x1="60" y1="208.0" x2="860" y2="208.0" stroke="#333" stroke-width="1" stroke-dasharray="4,4" opacity="0.5"/>
  <text x="50" y="208.0" text-anchor="end" dominant-baseline="middle" font-size="10" fill="#888">40%</text>
  <line x1="60" y1="152.0" x2="860" y2="152.0" stroke="#333" stroke-width="1" stroke-dasharray="4,4" opacity="0.5"/>
  <text x="50" y="152.0" text-anchor="end" dominant-baseline="middle" font-size="10" fill="#888">60%</text>
  <line x1="60" y1="96.0" x2="860" y2="96.0" stroke="#333" stroke-width="1" stroke-dasharray="4,4" opacity="0.5"/>
  <text x="50" y="96.0" text-anchor="end" dominant-baseline="middle" font-size="10" fill="#888">80%</text>
  <line x1="60" y1="40.0" x2="860" y2="40.0" stroke="#333" stroke-width="1" stroke-dasharray="4,4" opacity="0.5"/>
  <text x="50" y="40.0" text-anchor="end" dominant-baseline="middle" font-size="10" fill="#888">100%</text>

  <!-- Referans çizgileri -->
  <line x1="60" y1="236.0" x2="860" y2="236.0" stroke="#ef4444" stroke-width="1" stroke-dasharray="2,2" opacity="0.7"/>
  <text x="845" y="236.0" dominant-baseline="middle" font-size="9" fill="#ef4444">Kritik (30%)</text>
  <line x1="60" y1="180.0" x2="860" y2="180.0" stroke="#eab308" stroke-width="1" stroke-dasharray="2,2" opacity="0.7"/>
  <text x="845" y="180.0" dominant-baseline="middle" font-size="9" fill="#eab308">Normal (50%)</text>

  <!-- Toplam doluluk -->
  <polyline points="60.0,193.2 77.0,192.5 94.0,192.0 111.1,191.6 128.1,191.1 145.1,190.8 162.1,190.4 179.1,190.1 196.2,189.6 213.2,188.8 230.2,187.8 247.2,187.0 264.3,186.2 281.3,185.6 298.3,185.0 315.3,184.3 332.3,183.6 349.4,183.2 366.4,182.9 383.4,182.7 400.4,182.7 417.4,182.4 434.5,182.3 451.5,182.3 468.5,182.2 485.5,182.2 502.6,182.2 519.6,182.2 536.6,182.3 553.6,182.4 570.6,182.5 587.7,182.6 604.7,182.7 621.7,182.9 638.7,183.1 655.7,183.2 672.8,183.3 689.8,183.4 706.8,183.5 723.8,183.7 740.9,183.9 757.9,184.2 774.9,184.4 791.9,184.7 808.9,185.0 826.0,185.3 843.0,185.6 860.0,186.0" fill="none" stroke="#22c55e" stroke-width="2.5" stroke-linecap="round" stroke-linejoin="round"/>
  <polyline points="60.0,193.2 77.0,192.5 94.0,192.0 111.1,191.6 128.1,191.1 145.1,190.8 162.1,190.4 179.1,190.1 196.2,189.6 213.2,188.8 230.2,187.8 247.2,187.0 264.3,186.2 281.3,185.6 298.3,185.0 315.3,184.3 332.3,183.6 349.4,183.2 366.4,182.9 383.4,182.7 400.4,182.7 417.4,182.4 434.5,182.3 451.5,182.3 468.5,182.2 485.5,182.2 502.6,182.2 519.6,182.2 536.6,182.3 553.6,182.4 570.6,182.5 587.7,182.6 604.7,182.7 621.7,182.9 638.7,183.1 655.7,183.2 672.8,183.3 689.8,183.4 706.8,183.5 723.8,183.7 740.9,183.9 757.9,184.2 774.9,184.4 791.9,184.7 808.9,185.0 826.0,185.3 843.0,185.6 860.0,186.0" fill="none" stroke="#22c55e" stroke-width="5" opacity="0.1" stroke-linecap="round" stroke-linejoin="round"/>

  <!-- Aktif doluluk -->
  <polyline points="60.0,211.1 77.0,210.2 94.0,209.7 111.1,209.2 128.1,208.7 145.1,208.3 162.1,207.9 179.1,207.5 196.2,207.0 213.2,206.2 230.2,205.0 247.2,204.1 264.3,203.2 281.3,202.5 298.3,201.9 315.3,201.0 332.3,200.3 349.4,199.9 366.4,199.6 383.4,199.4 400.4,199.3 417.4,199.0 434.5,198.9 451.5,198.9 468.5,198.7 485.5,198.7 502.6,198.8 519.6,198.8 536.6,198.8 553.6,198.9 570.6,199.0 587.7,199.2 604.7,199.4 621.7,199.5 638.7,199.7 655.7,199.8 672.8,200.0 689.8,200.1 706.8,200.2 723.8,200.4 740.9,200.7 757.9,201.0 774.9,201.3 791.9,201.6 808.9,201.8 826.0,202.2 843.0,202.6 860.0,203.0" fill="none" stroke="#3b82f6" stroke-width="2.5" stroke-linecap="round" stroke-linejoin="round"/>
  <polyline points="60.0,211.1 77.0,210.2 94.0,209.7 111.1,209.2 128.1,208.7 145.1,208.3 162.1,207.9 179.1,207.5 196.2,207.0 213.2,206.2 230.2,205.0 247.2,204.1 264.3,203.2 281.3,202.5 298.3,201.9 315.3,201.0 332.3,200.3 349.4,199.9 366.4,199.6 383.4,199.4 400.4,199.3 417.4,199.0 434.5,198.9 451.5,198.9 468.5,198.7 485.5,198.7 502.6,198.8 519.6,198.8 536.6,198.8 553.6,198.9 570.6,199.0 587.7,199.2 604.7,199.4 621.7,199.5 638.7,199.7 655.7,199.8 672.8,200.0 689.8,200.1 706.8,200.2 723.8,200.4 740.9,200.7 757.9,201.0 774.9,201.3 791.9,201.6 808.9,201.8 826.0,202.2 843.0,202.6 860.0,203.0" fill="none" stroke="#3b82f6" stroke-width="5" opacity="0.1" stroke-linecap="round" stroke-linejoin="round"/>

  <!-- Noktalar -->
  <circle cx="60.0" cy="193.2" r="3" fill="#22c55e"/><circle cx="77.0" cy="192.5" r="3" fill="#22c55e"/><circle cx="94.0" cy="192.0" r="3" fill="#22c55e"/><circle cx="111.1" cy="191.6" r="3" fill="#22c55e"/><circle cx="128.1" cy="191.1" r="3" fill="#22c55e"/><circle cx="145.1" cy="190.8" r="3" fill="#22c55e"/><circle cx="162.1" cy="190.4" r="3" fill="#22c55e"/><circle cx="179.1" cy="190.1" r="3" fill="#22c55e"/><circle cx="196.2" cy="189.6" r="3" fill="#22c55e"/><circle cx="213.2" cy="188.8" r="3" fill="#22c55e"/><circle cx="230.2" cy="187.8" r="3" fill="#22c55e"/><circle cx="247.2" cy="187.0" r="3" fill="#22c55e"/><circle cx="264.3" cy="186.2" r="3" fill="#22c55e"/><circle cx="281.3" cy="185.6" r="3" fill="#22c55e"/><circle cx="298.3" cy="185.0" r="3" fill="#22c55e"/><circle cx="315.3" cy="184.3" r="3" fill="#22c55e"/><circle cx="332.3" cy="183.6" r="3" fill="#22c55e"/><circle cx="349.4" cy="183.2" r="3" fill="#22c55e"/><circle cx="366.4" cy="182.9" r="3" fill="#22c55e"/><circle cx="383.4" cy="182.7" r="3" fill="#22c55e"/><circle cx="400.4" cy="182.7" r="3" fill="#22c55e"/><circle cx="417.4" cy="182.4" r="3" fill="#22c55e"/><circle cx="434.5" cy="182.3" r="3" fill="#22c55e"/><circle cx="451.5" cy="182.3" r="3" fill="#22c55e"/><circle cx="468.5" cy="182.2" r="3" fill="#22c55e"/><circle cx="485.5" cy="182.2" r="3" fill="#22c55e"/><circle cx="502.6" cy="182.2" r="3" fill="#22c55e"/><circle cx="519.6" cy="182.2" r="3" fill="#22c55e"/><circle cx="536.6" cy="182.3" r="3" fill="#22c55e"/><circle cx="553.6" cy="182.4" r="3" fill="#22c55e"/><circle cx="570.6" cy="182.5" r="3" fill="#22c55e"/><circle cx="587.7" cy="182.6" r="3" fill="#22c55e"/><circle cx="604.7" cy="182.7" r="3" fill="#22c55e"/><circle cx="621.7" cy="182.9" r="3" fill="#22c55e"/><circle cx="638.7" cy="183.1" r="3" fill="#22c55e"/><circle cx="655.7" cy="183.2" r="3" fill="#22c55e"/><circle cx="672.8" cy="183.3" r="3" fill="#22c55e"/><circle cx="689.8" cy="183.4" r="3" fill="#22c55e"/><circle cx="706.8" cy="183.5" r="3" fill="#22c55e"/><circle cx="723.8" cy="183.7" r="3" fill="#22c55e"/><circle cx="740.9" cy="183.9" r="3" fill="#22c55e"/><circle cx="757.9" cy="184.2" r="3" fill="#22c55e"/><circle cx="774.9" cy="184.4" r="3" fill="#22c55e"/><circle cx="791.9" cy="184.7" r="3" fill="#22c55e"/><circle cx="808.9" cy="185.0" r="3" fill="#22c55e"/><circle cx="826.0" cy="185.3" r="3" fill="#22c55e"/><circle cx="843.0" cy="185.6" r="3" fill="#22c55e"/><circle cx="860.0" cy="186.0" r="3" fill="#22c55e"/>
  <circle cx="60.0" cy="211.1" r="3" fill="#3b82f6"/><circle cx="77.0" cy="210.2" r="3" fill="#3b82f6"/><circle cx="94.0" cy="209.7" r="3" fill="#3b82f6"/><circle cx="111.1" cy="209.2" r="3" fill="#3b82f6"/><circle cx="128.1" cy="208.7" r="3" fill="#3b82f6"/><circle cx="145.1" cy="208.3" r="3" fill="#3b82f6"/><circle cx="162.1" cy="207.9" r="3" fill="#3b82f6"/><circle cx="179.1" cy="207.5" r="3" fill="#3b82f6"/><circle cx="196.2" cy="207.0" r="3" fill="#3b82f6"/><circle cx="213.2" cy="206.2" r="3" fill="#3b82f6"/><circle cx="230.2" cy="205.0" r="3" fill="#3b82f6"/><circle cx="247.2" cy="204.1" r="3" fill="#3b82f6"/><circle cx="264.3" cy="203.2" r="3" fill="#3b82f6"/><circle cx="281.3" cy="202.5" r="3" fill="#3b82f6"/><circle cx="298.3" cy="201.9" r="3" fill="#3b82f6"/><circle cx="315.3" cy="201.0" r="3" fill="#3b82f6"/><circle cx="332.3" cy="200.3" r="3" fill="#3b82f6"/><circle cx="349.4" cy="199.9" r="3" fill="#3b82f6"/><circle cx="366.4" cy="199.6" r="3" fill="#3b82f6"/><circle cx="383.4" cy="199.4" r="3" fill="#3b82f6"/><circle cx="400.4" cy="199.3" r="3" fill="#3b82f6"/><circle cx="417.4" cy="199.0" r="3" fill="#3b82f6"/><circle cx="434.5" cy="198.9" r="3" fill="#3b82f6"/><circle cx="451.5" cy="198.9" r="3" fill="#3b82f6"/><circle cx="468.5" cy="198.7" r="3" fill="#3b82f6"/><circle cx="485.5" cy="198.7" r="3" fill="#3b82f6"/><circle cx="502.6" cy="198.8" r="3" fill="#3b82f6"/><circle cx="519.6" cy="198.8" r="3" fill="#3b82f6"/><circle cx="536.6" cy="198.8" r="3" fill="#3b82f6"/><circle cx="553.6" cy="198.9" r="3" fill="#3b82f6"/><circle cx="570.6" cy="199.0" r="3" fill="#3b82f6"/><circle cx="587.7" cy="199.2" r="3" fill="#3b82f6"/><circle cx="604.7" cy="199.4" r="3" fill="#3b82f6"/><circle cx="621.7" cy="199.5" r="3" fill="#3b82f6"/><circle cx="638.7" cy="199.7" r="3" fill="#3b82f6"/><circle cx="655.7" cy="199.8" r="3" fill="#3b82f6"/><circle cx="672.8" cy="200.0" r="3" fill="#3b82f6"/><circle cx="689.8" cy="200.1" r="3" fill="#3b82f6"/><circle cx="706.8" cy="200.2" r="3" fill="#3b82f6"/><circle cx="723.8" cy="200.4" r="3" fill="#3b82f6"/><circle cx="740.9" cy="200.7" r="3" fill="#3b82f6"/><circle cx="757.9" cy="201.0" r="3" fill="#3b82f6"/><circle cx="774.9" cy="201.3" r="3" fill="#3b82f6"/><circle cx="791.9" cy="201.6" r="3" fill="#3b82f6"/><circle cx="808.9" cy="201.8" r="3" fill="#3b82f6"/><circle cx="826.0" cy="202.2" r="3" fill="#3b82f6"/><circle cx="843.0" cy="202.6" r="3" fill="#3b82f6"/><circle cx="860.0" cy="203.0" r="3" fill="#3b82f6"/>

  <!-- X ekseni -->
  <text x="60.0" y="380" text-anchor="middle" font-size="10" fill="#888">14.05.2026</text>
  <text x="196.2" y="380" text-anchor="middle" font-size="10" fill="#888">22.05.2026</text>
  <text x="332.3" y="380" text-anchor="middle" font-size="10" fill="#888">30.05.2026</text>
  <text x="468.5" y="380" text-anchor="middle" font-size="10" fill="#888">07.06.2026</text>
  <text x="604.7" y="380" text-anchor="middle" font-size="10" fill="#888">15.06.2026</text>
  <text x="740.9" y="380" text-anchor="middle" font-size="10" fill="#888">23.06.2026</text>

  <!-- Legend -->
  <g transform="translate(60, 345)">
    <rect x="0" y="0" width="12" height="12" fill="#22c55e" rx="2"/>
    <text x="18" y="10" font-size="11" fill="#c9d1d9">Toplam Doluluk</text>
    <rect x="140" y="0" width="12" height="12" fill="#3b82f6" rx="2"/>
    <text x="158" y="10" font-size="11" fill="#c9d1d9">Aktif Doluluk</text>
  </g>
</svg>