<svg xmlns="http://www.w3.org/2000/svg" viewBox="0 0 800 400" width="100%" style="max-width:800px;">
  <rect width="800" height="400" fill="#0d1117" rx="6"/>
  <text x="400.0" y="25" text-anchor="middle" font-size="16" font-weight="bold" fill="#c9d1d9">Son 90 Gün - Günlük Ortalama</text>

  <!-- Y grid -->
  <line x1="60" y1="320.0" x2="760" y2="320.0" stroke="#333" stroke-width="1" stroke-dasharray="4,4" opacity="0.5"/>
  <text x="50" y="320.0" text-anchor="end" dominant-baseline="middle" font-size="10" fill="#888">0%</text>
  <line x1="60" y1="264.0" x2="760" y2="264.0" stroke="#333" stroke-width="1" stroke-dasharray="4,4" opacity="0.5"/>
  <text x="50" y="264.0" text-anchor="end" dominant-baseline="middle" font-size="10" fill="#888">20%</text>
  <line x1="60" y1="208.0" x2="760" y2="208.0" stroke="#333" stroke-width="1" stroke-dasharray="4,4" opacity="0.5"/>
  <text x="50" y="208.0" text-anchor="end" dominant-baseline="middle" font-size="10" fill="#888">40%</text>
  <line x1="60" y1="152.0" x2="760" y2="152.0" stroke="#333" stroke-width="1" stroke-dasharray="4,4" opacity="0.5"/>
  <text x="50" y="152.0" text-anchor="end" dominant-baseline="middle" font-size="10" fill="#888">60%</text>
  <line x1="60" y1="96.0" x2="760" y2="96.0" stroke="#333" stroke-width="1" stroke-dasharray="4,4" opacity="0.5"/>
  <text x="50" y="96.0" text-anchor="end" dominant-baseline="middle" font-size="10" fill="#888">80%</text>
  <line x1="60" y1="40.0" x2="760" y2="40.0" stroke="#333" stroke-width="1" stroke-dasharray="4,4" opacity="0.5"/>
  <text x="50" y="40.0" text-anchor="end" dominant-baseline="middle" font-size="10" fill="#888">100%</text>

  <!-- Referans çizgileri -->
  <line x1="60" y1="236.0" x2="760" y2="236.0" stroke="#ef4444" stroke-width="1" stroke-dasharray="2,2" opacity="0.7"/>
  <text x="745" y="236.0" dominant-baseline="middle" font-size="9" fill="#ef4444">Kritik (30%)</text>
  <line x1="60" y1="180.0" x2="760" y2="180.0" stroke="#eab308" stroke-width="1" stroke-dasharray="2,2" opacity="0.7"/>
  <text x="745" y="180.0" dominant-baseline="middle" font-size="9" fill="#eab308">Normal (50%)</text>

  <!-- Toplam doluluk -->
  <polyline points="60.0,193.2 71.3,192.5 82.6,192.0 93.9,191.6 105.2,191.1 116.5,190.8 127.7,190.4 139.0,190.1 150.3,189.6 161.6,188.8 172.9,187.8 184.2,187.0 195.5,186.2 206.8,185.6 218.1,185.0 229.4,184.3 240.6,183.6 251.9,183.2 263.2,182.9 274.5,182.7 285.8,182.7 297.1,182.4 308.4,182.3 319.7,182.3 331.0,182.2 342.3,182.2 353.5,182.2 364.8,182.2 376.1,182.3 387.4,182.4 398.7,182.5 410.0,182.6 421.3,182.7 432.6,182.9 443.9,183.1 455.2,183.2 466.5,183.3 477.7,183.4 489.0,183.5 500.3,183.7 511.6,183.9 522.9,184.2 534.2,184.4 545.5,184.7 556.8,185.0 568.1,185.3 579.4,185.6 590.6,186.0 601.9,186.3 613.2,186.6 624.5,187.0 635.8,187.3 647.1,187.6 658.4,188.0 669.7,188.3 681.0,188.6 692.3,189.0 703.5,189.3 714.8,189.6 726.1,189.9 737.4,190.2 748.7,190.5 760.0,190.8" fill="none" stroke="#22c55e" stroke-width="2.5" stroke-linecap="round" stroke-linejoin="round"/>
  <polyline points="60.0,193.2 71.3,192.5 82.6,192.0 93.9,191.6 105.2,191.1 116.5,190.8 127.7,190.4 139.0,190.1 150.3,189.6 161.6,188.8 172.9,187.8 184.2,187.0 195.5,186.2 206.8,185.6 218.1,185.0 229.4,184.3 240.6,183.6 251.9,183.2 263.2,182.9 274.5,182.7 285.8,182.7 297.1,182.4 308.4,182.3 319.7,182.3 331.0,182.2 342.3,182.2 353.5,182.2 364.8,182.2 376.1,182.3 387.4,182.4 398.7,182.5 410.0,182.6 421.3,182.7 432.6,182.9 443.9,183.1 455.2,183.2 466.5,183.3 477.7,183.4 489.0,183.5 500.3,183.7 511.6,183.9 522.9,184.2 534.2,184.4 545.5,184.7 556.8,185.0 568.1,185.3 579.4,185.6 590.6,186.0 601.9,186.3 613.2,186.6 624.5,187.0 635.8,187.3 647.1,187.6 658.4,188.0 669.7,188.3 681.0,188.6 692.3,189.0 703.5,189.3 714.8,189.6 726.1,189.9 737.4,190.2 748.7,190.5 760.0,190.8" fill="none" stroke="#22c55e" stroke-width="5" opacity="0.1" stroke-linecap="round" stroke-linejoin="round"/>

  <!-- Aktif doluluk -->
  <polyline points="60.0,211.1 71.3,210.2 82.6,209.7 93.9,209.2 105.2,208.7 116.5,208.3 127.7,207.9 139.0,207.5 150.3,207.0 161.6,206.2 172.9,205.0 184.2,204.1 195.5,203.2 206.8,202.5 218.1,201.9 229.4,201.0 240.6,200.3 251.9,199.9 263.2,199.6 274.5,199.4 285.8,199.3 297.1,199.0 308.4,198.9 319.7,198.9 331.0,198.7 342.3,198.7 353.5,198.8 364.8,198.8 376.1,198.8 387.4,198.9 398.7,199.0 410.0,199.2 421.3,199.4 432.6,199.5 443.9,199.7 455.2,199.8 466.5,200.0 477.7,200.1 489.0,200.2 500.3,200.4 511.6,200.7 522.9,201.0 534.2,201.3 545.5,201.6 556.8,201.8 568.1,202.2 579.4,202.6 590.6,203.0 601.9,203.3 613.2,203.7 624.5,204.1 635.8,204.4 647.1,204.8 658.4,205.2 669.7,205.5 681.0,205.9 692.3,206.3 703.5,206.7 714.8,207.0 726.1,207.4 737.4,207.7 748.7,208.0 760.0,208.3" fill="none" stroke="#3b82f6" stroke-width="2.5" stroke-linecap="round" stroke-linejoin="round"/>
  <polyline points="60.0,211.1 71.3,210.2 82.6,209.7 93.9,209.2 105.2,208.7 116.5,208.3 127.7,207.9 139.0,207.5 150.3,207.0 161.6,206.2 172.9,205.0 184.2,204.1 195.5,203.2 206.8,202.5 218.1,201.9 229.4,201.0 240.6,200.3 251.9,199.9 263.2,199.6 274.5,199.4 285.8,199.3 297.1,199.0 308.4,198.9 319.7,198.9 331.0,198.7 342.3,198.7 353.5,198.8 364.8,198.8 376.1,198.8 387.4,198.9 398.7,199.0 410.0,199.2 421.3,199.4 432.6,199.5 443.9,199.7 455.2,199.8 466.5,200.0 477.7,200.1 489.0,200.2 500.3,200.4 511.6,200.7 522.9,201.0 534.2,201.3 545.5,201.6 556.8,201.8 568.1,202.2 579.4,202.6 590.6,203.0 601.9,203.3 613.2,203.7 624.5,204.1 635.8,204.4 647.1,204.8 658.4,205.2 669.7,205.5 681.0,205.9 692.3,206.3 703.5,206.7 714.8,207.0 726.1,207.4 737.4,207.7 748.7,208.0 760.0,208.3" fill="none" stroke="#3b82f6" stroke-width="5" opacity="0.1" stroke-linecap="round" stroke-linejoin="round"/>

  <!-- Noktalar -->
  <circle cx="60.0" cy="193.2" r="3" fill="#22c55e"/><circle cx="71.3" cy="192.5" r="3" fill="#22c55e"/><circle cx="82.6" cy="192.0" r="3" fill="#22c55e"/><circle cx="93.9" cy="191.6" r="3" fill="#22c55e"/><circle cx="105.2" cy="191.1" r="3" fill="#22c55e"/><circle cx="116.5" cy="190.8" r="3" fill="#22c55e"/><circle cx="127.7" cy="190.4" r="3" fill="#22c55e"/><circle cx="139.0" cy="190.1" r="3" fill="#22c55e"/><circle cx="150.3" cy="189.6" r="3" fill="#22c55e"/><circle cx="161.6" cy="188.8" r="3" fill="#22c55e"/><circle cx="172.9" cy="187.8" r="3" fill="#22c55e"/><circle cx="184.2" cy="187.0" r="3" fill="#22c55e"/><circle cx="195.5" cy="186.2" r="3" fill="#22c55e"/><circle cx="206.8" cy="185.6" r="3" fill="#22c55e"/><circle cx="218.1" cy="185.0" r="3" fill="#22c55e"/><circle cx="229.4" cy="184.3" r="3" fill="#22c55e"/><circle cx="240.6" cy="183.6" r="3" fill="#22c55e"/><circle cx="251.9" cy="183.2" r="3" fill="#22c55e"/><circle cx="263.2" cy="182.9" r="3" fill="#22c55e"/><circle cx="274.5" cy="182.7" r="3" fill="#22c55e"/><circle cx="285.8" cy="182.7" r="3" fill="#22c55e"/><circle cx="297.1" cy="182.4" r="3" fill="#22c55e"/><circle cx="308.4" cy="182.3" r="3" fill="#22c55e"/><circle cx="319.7" cy="182.3" r="3" fill="#22c55e"/><circle cx="331.0" cy="182.2" r="3" fill="#22c55e"/><circle cx="342.3" cy="182.2" r="3" fill="#22c55e"/><circle cx="353.5" cy="182.2" r="3" fill="#22c55e"/><circle cx="364.8" cy="182.2" r="3" fill="#22c55e"/><circle cx="376.1" cy="182.3" r="3" fill="#22c55e"/><circle cx="387.4" cy="182.4" r="3" fill="#22c55e"/><circle cx="398.7" cy="182.5" r="3" fill="#22c55e"/><circle cx="410.0" cy="182.6" r="3" fill="#22c55e"/><circle cx="421.3" cy="182.7" r="3" fill="#22c55e"/><circle cx="432.6" cy="182.9" r="3" fill="#22c55e"/><circle cx="443.9" cy="183.1" r="3" fill="#22c55e"/><circle cx="455.2" cy="183.2" r="3" fill="#22c55e"/><circle cx="466.5" cy="183.3" r="3" fill="#22c55e"/><circle cx="477.7" cy="183.4" r="3" fill="#22c55e"/><circle cx="489.0" cy="183.5" r="3" fill="#22c55e"/><circle cx="500.3" cy="183.7" r="3" fill="#22c55e"/><circle cx="511.6" cy="183.9" r="3" fill="#22c55e"/><circle cx="522.9" cy="184.2" r="3" fill="#22c55e"/><circle cx="534.2" cy="184.4" r="3" fill="#22c55e"/><circle cx="545.5" cy="184.7" r="3" fill="#22c55e"/><circle cx="556.8" cy="185.0" r="3" fill="#22c55e"/><circle cx="568.1" cy="185.3" r="3" fill="#22c55e"/><circle cx="579.4" cy="185.6" r="3" fill="#22c55e"/><circle cx="590.6" cy="186.0" r="3" fill="#22c55e"/><circle cx="601.9" cy="186.3" r="3" fill="#22c55e"/><circle cx="613.2" cy="186.6" r="3" fill="#22c55e"/><circle cx="624.5" cy="187.0" r="3" fill="#22c55e"/><circle cx="635.8" cy="187.3" r="3" fill="#22c55e"/><circle cx="647.1" cy="187.6" r="3" fill="#22c55e"/><circle cx="658.4" cy="188.0" r="3" fill="#22c55e"/><circle cx="669.7" cy="188.3" r="3" fill="#22c55e"/><circle cx="681.0" cy="188.6" r="3" fill="#22c55e"/><circle cx="692.3" cy="189.0" r="3" fill="#22c55e"/><circle cx="703.5" cy="189.3" r="3" fill="#22c55e"/><circle cx="714.8" cy="189.6" r="3" fill="#22c55e"/><circle cx="726.1" cy="189.9" r="3" fill="#22c55e"/><circle cx="737.4" cy="190.2" r="3" fill="#22c55e"/><circle cx="748.7" cy="190.5" r="3" fill="#22c55e"/><circle cx="760.0" cy="190.8" r="3" fill="#22c55e"/>
  <circle cx="60.0" cy="211.1" r="3" fill="#3b82f6"/><circle cx="71.3" cy="210.2" r="3" fill="#3b82f6"/><circle cx="82.6" cy="209.7" r="3" fill="#3b82f6"/><circle cx="93.9" cy="209.2" r="3" fill="#3b82f6"/><circle cx="105.2" cy="208.7" r="3" fill="#3b82f6"/><circle cx="116.5" cy="208.3" r="3" fill="#3b82f6"/><circle cx="127.7" cy="207.9" r="3" fill="#3b82f6"/><circle cx="139.0" cy="207.5" r="3" fill="#3b82f6"/><circle cx="150.3" cy="207.0" r="3" fill="#3b82f6"/><circle cx="161.6" cy="206.2" r="3" fill="#3b82f6"/><circle cx="172.9" cy="205.0" r="3" fill="#3b82f6"/><circle cx="184.2" cy="204.1" r="3" fill="#3b82f6"/><circle cx="195.5" cy="203.2" r="3" fill="#3b82f6"/><circle cx="206.8" cy="202.5" r="3" fill="#3b82f6"/><circle cx="218.1" cy="201.9" r="3" fill="#3b82f6"/><circle cx="229.4" cy="201.0" r="3" fill="#3b82f6"/><circle cx="240.6" cy="200.3" r="3" fill="#3b82f6"/><circle cx="251.9" cy="199.9" r="3" fill="#3b82f6"/><circle cx="263.2" cy="199.6" r="3" fill="#3b82f6"/><circle cx="274.5" cy="199.4" r="3" fill="#3b82f6"/><circle cx="285.8" cy="199.3" r="3" fill="#3b82f6"/><circle cx="297.1" cy="199.0" r="3" fill="#3b82f6"/><circle cx="308.4" cy="198.9" r="3" fill="#3b82f6"/><circle cx="319.7" cy="198.9" r="3" fill="#3b82f6"/><circle cx="331.0" cy="198.7" r="3" fill="#3b82f6"/><circle cx="342.3" cy="198.7" r="3" fill="#3b82f6"/><circle cx="353.5" cy="198.8" r="3" fill="#3b82f6"/><circle cx="364.8" cy="198.8" r="3" fill="#3b82f6"/><circle cx="376.1" cy="198.8" r="3" fill="#3b82f6"/><circle cx="387.4" cy="198.9" r="3" fill="#3b82f6"/><circle cx="398.7" cy="199.0" r="3" fill="#3b82f6"/><circle cx="410.0" cy="199.2" r="3" fill="#3b82f6"/><circle cx="421.3" cy="199.4" r="3" fill="#3b82f6"/><circle cx="432.6" cy="199.5" r="3" fill="#3b82f6"/><circle cx="443.9" cy="199.7" r="3" fill="#3b82f6"/><circle cx="455.2" cy="199.8" r="3" fill="#3b82f6"/><circle cx="466.5" cy="200.0" r="3" fill="#3b82f6"/><circle cx="477.7" cy="200.1" r="3" fill="#3b82f6"/><circle cx="489.0" cy="200.2" r="3" fill="#3b82f6"/><circle cx="500.3" cy="200.4" r="3" fill="#3b82f6"/><circle cx="511.6" cy="200.7" r="3" fill="#3b82f6"/><circle cx="522.9" cy="201.0" r="3" fill="#3b82f6"/><circle cx="534.2" cy="201.3" r="3" fill="#3b82f6"/><circle cx="545.5" cy="201.6" r="3" fill="#3b82f6"/><circle cx="556.8" cy="201.8" r="3" fill="#3b82f6"/><circle cx="568.1" cy="202.2" r="3" fill="#3b82f6"/><circle cx="579.4" cy="202.6" r="3" fill="#3b82f6"/><circle cx="590.6" cy="203.0" r="3" fill="#3b82f6"/><circle cx="601.9" cy="203.3" r="3" fill="#3b82f6"/><circle cx="613.2" cy="203.7" r="3" fill="#3b82f6"/><circle cx="624.5" cy="204.1" r="3" fill="#3b82f6"/><circle cx="635.8" cy="204.4" r="3" fill="#3b82f6"/><circle cx="647.1" cy="204.8" r="3" fill="#3b82f6"/><circle cx="658.4" cy="205.2" r="3" fill="#3b82f6"/><circle cx="669.7" cy="205.5" r="3" fill="#3b82f6"/><circle cx="681.0" cy="205.9" r="3" fill="#3b82f6"/><circle cx="692.3" cy="206.3" r="3" fill="#3b82f6"/><circle cx="703.5" cy="206.7" r="3" fill="#3b82f6"/><circle cx="714.8" cy="207.0" r="3" fill="#3b82f6"/><circle cx="726.1" cy="207.4" r="3" fill="#3b82f6"/><circle cx="737.4" cy="207.7" r="3" fill="#3b82f6"/><circle cx="748.7" cy="208.0" r="3" fill="#3b82f6"/><circle cx="760.0" cy="208.3" r="3" fill="#3b82f6"/>

  <!-- X ekseni -->
  <text x="60.0" y="380" text-anchor="middle" font-size="10" fill="#888">14.05.2026</text>
  <text x="172.9" y="380" text-anchor="middle" font-size="10" fill="#888">24.05.2026</text>
  <text x="285.8" y="380" text-anchor="middle" font-size="10" fill="#888">03.06.2026</text>
  <text x="398.7" y="380" text-anchor="middle" font-size="10" fill="#888">13.06.2026</text>
  <text x="511.6" y="380" text-anchor="middle" font-size="10" fill="#888">23.06.2026</text>
  <text x="624.5" y="380" text-anchor="middle" font-size="10" fill="#888">03.07.2026</text>
  <text x="737.4" y="380" text-anchor="middle" font-size="10" fill="#888">13.07.2026</text>

  <!-- Legend -->
  <g transform="translate(60, 345)">
    <rect x="0" y="0" width="12" height="12" fill="#22c55e" rx="2"/>
    <text x="18" y="10" font-size="11" fill="#c9d1d9">Toplam Doluluk</text>
    <rect x="140" y="0" width="12" height="12" fill="#3b82f6" rx="2"/>
    <text x="158" y="10" font-size="11" fill="#c9d1d9">Aktif Doluluk</text>
  </g>
</svg>