<svg xmlns="http://www.w3.org/2000/svg" viewBox="0 0 800 400" width="100%" style="max-width:800px;">
  <rect width="800" height="400" fill="#0d1117" rx="6"/>
  <text x="400.0" y="25" text-anchor="middle" font-size="16" font-weight="bold" fill="#c9d1d9">Son 90 Gün - Günlük Ortalama</text>

  <!-- Y grid -->
  <line x1="60" y1="320.0" x2="760" y2="320.0" stroke="#333" stroke-width="1" stroke-dasharray="4,4" opacity="0.5"/>
  <text x="50" y="320.0" text-anchor="end" dominant-baseline="middle" font-size="10" fill="#888">0%</text>
  <line x1="60" y1="264.0" x2="760" y2="264.0" stroke="#333" stroke-width="1" stroke-dasharray="4,4" opacity="0.5"/>
  <text x="50" y="264.0" text-anchor="end" dominant-baseline="middle" font-size="10" fill="#888">20%</text>
  <line x1="60" y1="208.0" x2="760" y2="208.0" stroke="#333" stroke-width="1" stroke-dasharray="4,4" opacity="0.5"/>
  <text x="50" y="208.0" text-anchor="end" dominant-baseline="middle" font-size="10" fill="#888">40%</text>
  <line x1="60" y1="152.0" x2="760" y2="152.0" stroke="#333" stroke-width="1" stroke-dasharray="4,4" opacity="0.5"/>
  <text x="50" y="152.0" text-anchor="end" dominant-baseline="middle" font-size="10" fill="#888">60%</text>
  <line x1="60" y1="96.0" x2="760" y2="96.0" stroke="#333" stroke-width="1" stroke-dasharray="4,4" opacity="0.5"/>
  <text x="50" y="96.0" text-anchor="end" dominant-baseline="middle" font-size="10" fill="#888">80%</text>
  <line x1="60" y1="40.0" x2="760" y2="40.0" stroke="#333" stroke-width="1" stroke-dasharray="4,4" opacity="0.5"/>
  <text x="50" y="40.0" text-anchor="end" dominant-baseline="middle" font-size="10" fill="#888">100%</text>

  <!-- Referans çizgileri -->
  <line x1="60" y1="236.0" x2="760" y2="236.0" stroke="#ef4444" stroke-width="1" stroke-dasharray="2,2" opacity="0.7"/>
  <text x="745" y="236.0" dominant-baseline="middle" font-size="9" fill="#ef4444">Kritik (30%)</text>
  <line x1="60" y1="180.0" x2="760" y2="180.0" stroke="#eab308" stroke-width="1" stroke-dasharray="2,2" opacity="0.7"/>
  <text x="745" y="180.0" dominant-baseline="middle" font-size="9" fill="#eab308">Normal (50%)</text>

  <!-- Toplam doluluk -->
  <polyline points="60.0,193.2 70.1,192.5 80.3,192.0 90.4,191.6 100.6,191.1 110.7,190.8 120.9,190.4 131.0,190.1 141.2,189.6 151.3,188.8 161.4,187.8 171.6,187.0 181.7,186.2 191.9,185.6 202.0,185.0 212.2,184.3 222.3,183.6 232.5,183.2 242.6,182.9 252.8,182.7 262.9,182.7 273.0,182.4 283.2,182.3 293.3,182.3 303.5,182.2 313.6,182.2 323.8,182.2 333.9,182.2 344.1,182.3 354.2,182.4 364.3,182.5 374.5,182.6 384.6,182.7 394.8,182.9 404.9,183.1 415.1,183.2 425.2,183.3 435.4,183.4 445.5,183.5 455.7,183.7 465.8,183.9 475.9,184.2 486.1,184.4 496.2,184.7 506.4,185.0 516.5,185.3 526.7,185.6 536.8,186.0 547.0,186.3 557.1,186.6 567.2,187.0 577.4,187.3 587.5,187.6 597.7,188.0 607.8,188.3 618.0,188.6 628.1,189.0 638.3,189.3 648.4,189.6 658.6,189.9 668.7,190.2 678.8,190.5 689.0,190.8 699.1,191.1 709.3,191.4 719.4,191.6 729.6,192.0 739.7,192.3 749.9,192.6 760.0,193.0" fill="none" stroke="#22c55e" stroke-width="2.5" stroke-linecap="round" stroke-linejoin="round"/>
  <polyline points="60.0,193.2 70.1,192.5 80.3,192.0 90.4,191.6 100.6,191.1 110.7,190.8 120.9,190.4 131.0,190.1 141.2,189.6 151.3,188.8 161.4,187.8 171.6,187.0 181.7,186.2 191.9,185.6 202.0,185.0 212.2,184.3 222.3,183.6 232.5,183.2 242.6,182.9 252.8,182.7 262.9,182.7 273.0,182.4 283.2,182.3 293.3,182.3 303.5,182.2 313.6,182.2 323.8,182.2 333.9,182.2 344.1,182.3 354.2,182.4 364.3,182.5 374.5,182.6 384.6,182.7 394.8,182.9 404.9,183.1 415.1,183.2 425.2,183.3 435.4,183.4 445.5,183.5 455.7,183.7 465.8,183.9 475.9,184.2 486.1,184.4 496.2,184.7 506.4,185.0 516.5,185.3 526.7,185.6 536.8,186.0 547.0,186.3 557.1,186.6 567.2,187.0 577.4,187.3 587.5,187.6 597.7,188.0 607.8,188.3 618.0,188.6 628.1,189.0 638.3,189.3 648.4,189.6 658.6,189.9 668.7,190.2 678.8,190.5 689.0,190.8 699.1,191.1 709.3,191.4 719.4,191.6 729.6,192.0 739.7,192.3 749.9,192.6 760.0,193.0" fill="none" stroke="#22c55e" stroke-width="5" opacity="0.1" stroke-linecap="round" stroke-linejoin="round"/>

  <!-- Aktif doluluk -->
  <polyline points="60.0,211.1 70.1,210.2 80.3,209.7 90.4,209.2 100.6,208.7 110.7,208.3 120.9,207.9 131.0,207.5 141.2,207.0 151.3,206.2 161.4,205.0 171.6,204.1 181.7,203.2 191.9,202.5 202.0,201.9 212.2,201.0 222.3,200.3 232.5,199.9 242.6,199.6 252.8,199.4 262.9,199.3 273.0,199.0 283.2,198.9 293.3,198.9 303.5,198.7 313.6,198.7 323.8,198.8 333.9,198.8 344.1,198.8 354.2,198.9 364.3,199.0 374.5,199.2 384.6,199.4 394.8,199.5 404.9,199.7 415.1,199.8 425.2,200.0 435.4,200.1 445.5,200.2 455.7,200.4 465.8,200.7 475.9,201.0 486.1,201.3 496.2,201.6 506.4,201.8 516.5,202.2 526.7,202.6 536.8,203.0 547.0,203.3 557.1,203.7 567.2,204.1 577.4,204.4 587.5,204.8 597.7,205.2 607.8,205.5 618.0,205.9 628.1,206.3 638.3,206.7 648.4,207.0 658.6,207.4 668.7,207.7 678.8,208.0 689.0,208.3 699.1,208.7 709.3,209.0 719.4,209.3 729.6,209.7 739.7,210.0 749.9,210.4 760.0,210.8" fill="none" stroke="#3b82f6" stroke-width="2.5" stroke-linecap="round" stroke-linejoin="round"/>
  <polyline points="60.0,211.1 70.1,210.2 80.3,209.7 90.4,209.2 100.6,208.7 110.7,208.3 120.9,207.9 131.0,207.5 141.2,207.0 151.3,206.2 161.4,205.0 171.6,204.1 181.7,203.2 191.9,202.5 202.0,201.9 212.2,201.0 222.3,200.3 232.5,199.9 242.6,199.6 252.8,199.4 262.9,199.3 273.0,199.0 283.2,198.9 293.3,198.9 303.5,198.7 313.6,198.7 323.8,198.8 333.9,198.8 344.1,198.8 354.2,198.9 364.3,199.0 374.5,199.2 384.6,199.4 394.8,199.5 404.9,199.7 415.1,199.8 425.2,200.0 435.4,200.1 445.5,200.2 455.7,200.4 465.8,200.7 475.9,201.0 486.1,201.3 496.2,201.6 506.4,201.8 516.5,202.2 526.7,202.6 536.8,203.0 547.0,203.3 557.1,203.7 567.2,204.1 577.4,204.4 587.5,204.8 597.7,205.2 607.8,205.5 618.0,205.9 628.1,206.3 638.3,206.7 648.4,207.0 658.6,207.4 668.7,207.7 678.8,208.0 689.0,208.3 699.1,208.7 709.3,209.0 719.4,209.3 729.6,209.7 739.7,210.0 749.9,210.4 760.0,210.8" fill="none" stroke="#3b82f6" stroke-width="5" opacity="0.1" stroke-linecap="round" stroke-linejoin="round"/>

  <!-- Noktalar -->
  <circle cx="60.0" cy="193.2" r="3" fill="#22c55e"/><circle cx="70.1" cy="192.5" r="3" fill="#22c55e"/><circle cx="80.3" cy="192.0" r="3" fill="#22c55e"/><circle cx="90.4" cy="191.6" r="3" fill="#22c55e"/><circle cx="100.6" cy="191.1" r="3" fill="#22c55e"/><circle cx="110.7" cy="190.8" r="3" fill="#22c55e"/><circle cx="120.9" cy="190.4" r="3" fill="#22c55e"/><circle cx="131.0" cy="190.1" r="3" fill="#22c55e"/><circle cx="141.2" cy="189.6" r="3" fill="#22c55e"/><circle cx="151.3" cy="188.8" r="3" fill="#22c55e"/><circle cx="161.4" cy="187.8" r="3" fill="#22c55e"/><circle cx="171.6" cy="187.0" r="3" fill="#22c55e"/><circle cx="181.7" cy="186.2" r="3" fill="#22c55e"/><circle cx="191.9" cy="185.6" r="3" fill="#22c55e"/><circle cx="202.0" cy="185.0" r="3" fill="#22c55e"/><circle cx="212.2" cy="184.3" r="3" fill="#22c55e"/><circle cx="222.3" cy="183.6" r="3" fill="#22c55e"/><circle cx="232.5" cy="183.2" r="3" fill="#22c55e"/><circle cx="242.6" cy="182.9" r="3" fill="#22c55e"/><circle cx="252.8" cy="182.7" r="3" fill="#22c55e"/><circle cx="262.9" cy="182.7" r="3" fill="#22c55e"/><circle cx="273.0" cy="182.4" r="3" fill="#22c55e"/><circle cx="283.2" cy="182.3" r="3" fill="#22c55e"/><circle cx="293.3" cy="182.3" r="3" fill="#22c55e"/><circle cx="303.5" cy="182.2" r="3" fill="#22c55e"/><circle cx="313.6" cy="182.2" r="3" fill="#22c55e"/><circle cx="323.8" cy="182.2" r="3" fill="#22c55e"/><circle cx="333.9" cy="182.2" r="3" fill="#22c55e"/><circle cx="344.1" cy="182.3" r="3" fill="#22c55e"/><circle cx="354.2" cy="182.4" r="3" fill="#22c55e"/><circle cx="364.3" cy="182.5" r="3" fill="#22c55e"/><circle cx="374.5" cy="182.6" r="3" fill="#22c55e"/><circle cx="384.6" cy="182.7" r="3" fill="#22c55e"/><circle cx="394.8" cy="182.9" r="3" fill="#22c55e"/><circle cx="404.9" cy="183.1" r="3" fill="#22c55e"/><circle cx="415.1" cy="183.2" r="3" fill="#22c55e"/><circle cx="425.2" cy="183.3" r="3" fill="#22c55e"/><circle cx="435.4" cy="183.4" r="3" fill="#22c55e"/><circle cx="445.5" cy="183.5" r="3" fill="#22c55e"/><circle cx="455.7" cy="183.7" r="3" fill="#22c55e"/><circle cx="465.8" cy="183.9" r="3" fill="#22c55e"/><circle cx="475.9" cy="184.2" r="3" fill="#22c55e"/><circle cx="486.1" cy="184.4" r="3" fill="#22c55e"/><circle cx="496.2" cy="184.7" r="3" fill="#22c55e"/><circle cx="506.4" cy="185.0" r="3" fill="#22c55e"/><circle cx="516.5" cy="185.3" r="3" fill="#22c55e"/><circle cx="526.7" cy="185.6" r="3" fill="#22c55e"/><circle cx="536.8" cy="186.0" r="3" fill="#22c55e"/><circle cx="547.0" cy="186.3" r="3" fill="#22c55e"/><circle cx="557.1" cy="186.6" r="3" fill="#22c55e"/><circle cx="567.2" cy="187.0" r="3" fill="#22c55e"/><circle cx="577.4" cy="187.3" r="3" fill="#22c55e"/><circle cx="587.5" cy="187.6" r="3" fill="#22c55e"/><circle cx="597.7" cy="188.0" r="3" fill="#22c55e"/><circle cx="607.8" cy="188.3" r="3" fill="#22c55e"/><circle cx="618.0" cy="188.6" r="3" fill="#22c55e"/><circle cx="628.1" cy="189.0" r="3" fill="#22c55e"/><circle cx="638.3" cy="189.3" r="3" fill="#22c55e"/><circle cx="648.4" cy="189.6" r="3" fill="#22c55e"/><circle cx="658.6" cy="189.9" r="3" fill="#22c55e"/><circle cx="668.7" cy="190.2" r="3" fill="#22c55e"/><circle cx="678.8" cy="190.5" r="3" fill="#22c55e"/><circle cx="689.0" cy="190.8" r="3" fill="#22c55e"/><circle cx="699.1" cy="191.1" r="3" fill="#22c55e"/><circle cx="709.3" cy="191.4" r="3" fill="#22c55e"/><circle cx="719.4" cy="191.6" r="3" fill="#22c55e"/><circle cx="729.6" cy="192.0" r="3" fill="#22c55e"/><circle cx="739.7" cy="192.3" r="3" fill="#22c55e"/><circle cx="749.9" cy="192.6" r="3" fill="#22c55e"/><circle cx="760.0" cy="193.0" r="3" fill="#22c55e"/>
  <circle cx="60.0" cy="211.1" r="3" fill="#3b82f6"/><circle cx="70.1" cy="210.2" r="3" fill="#3b82f6"/><circle cx="80.3" cy="209.7" r="3" fill="#3b82f6"/><circle cx="90.4" cy="209.2" r="3" fill="#3b82f6"/><circle cx="100.6" cy="208.7" r="3" fill="#3b82f6"/><circle cx="110.7" cy="208.3" r="3" fill="#3b82f6"/><circle cx="120.9" cy="207.9" r="3" fill="#3b82f6"/><circle cx="131.0" cy="207.5" r="3" fill="#3b82f6"/><circle cx="141.2" cy="207.0" r="3" fill="#3b82f6"/><circle cx="151.3" cy="206.2" r="3" fill="#3b82f6"/><circle cx="161.4" cy="205.0" r="3" fill="#3b82f6"/><circle cx="171.6" cy="204.1" r="3" fill="#3b82f6"/><circle cx="181.7" cy="203.2" r="3" fill="#3b82f6"/><circle cx="191.9" cy="202.5" r="3" fill="#3b82f6"/><circle cx="202.0" cy="201.9" r="3" fill="#3b82f6"/><circle cx="212.2" cy="201.0" r="3" fill="#3b82f6"/><circle cx="222.3" cy="200.3" r="3" fill="#3b82f6"/><circle cx="232.5" cy="199.9" r="3" fill="#3b82f6"/><circle cx="242.6" cy="199.6" r="3" fill="#3b82f6"/><circle cx="252.8" cy="199.4" r="3" fill="#3b82f6"/><circle cx="262.9" cy="199.3" r="3" fill="#3b82f6"/><circle cx="273.0" cy="199.0" r="3" fill="#3b82f6"/><circle cx="283.2" cy="198.9" r="3" fill="#3b82f6"/><circle cx="293.3" cy="198.9" r="3" fill="#3b82f6"/><circle cx="303.5" cy="198.7" r="3" fill="#3b82f6"/><circle cx="313.6" cy="198.7" r="3" fill="#3b82f6"/><circle cx="323.8" cy="198.8" r="3" fill="#3b82f6"/><circle cx="333.9" cy="198.8" r="3" fill="#3b82f6"/><circle cx="344.1" cy="198.8" r="3" fill="#3b82f6"/><circle cx="354.2" cy="198.9" r="3" fill="#3b82f6"/><circle cx="364.3" cy="199.0" r="3" fill="#3b82f6"/><circle cx="374.5" cy="199.2" r="3" fill="#3b82f6"/><circle cx="384.6" cy="199.4" r="3" fill="#3b82f6"/><circle cx="394.8" cy="199.5" r="3" fill="#3b82f6"/><circle cx="404.9" cy="199.7" r="3" fill="#3b82f6"/><circle cx="415.1" cy="199.8" r="3" fill="#3b82f6"/><circle cx="425.2" cy="200.0" r="3" fill="#3b82f6"/><circle cx="435.4" cy="200.1" r="3" fill="#3b82f6"/><circle cx="445.5" cy="200.2" r="3" fill="#3b82f6"/><circle cx="455.7" cy="200.4" r="3" fill="#3b82f6"/><circle cx="465.8" cy="200.7" r="3" fill="#3b82f6"/><circle cx="475.9" cy="201.0" r="3" fill="#3b82f6"/><circle cx="486.1" cy="201.3" r="3" fill="#3b82f6"/><circle cx="496.2" cy="201.6" r="3" fill="#3b82f6"/><circle cx="506.4" cy="201.8" r="3" fill="#3b82f6"/><circle cx="516.5" cy="202.2" r="3" fill="#3b82f6"/><circle cx="526.7" cy="202.6" r="3" fill="#3b82f6"/><circle cx="536.8" cy="203.0" r="3" fill="#3b82f6"/><circle cx="547.0" cy="203.3" r="3" fill="#3b82f6"/><circle cx="557.1" cy="203.7" r="3" fill="#3b82f6"/><circle cx="567.2" cy="204.1" r="3" fill="#3b82f6"/><circle cx="577.4" cy="204.4" r="3" fill="#3b82f6"/><circle cx="587.5" cy="204.8" r="3" fill="#3b82f6"/><circle cx="597.7" cy="205.2" r="3" fill="#3b82f6"/><circle cx="607.8" cy="205.5" r="3" fill="#3b82f6"/><circle cx="618.0" cy="205.9" r="3" fill="#3b82f6"/><circle cx="628.1" cy="206.3" r="3" fill="#3b82f6"/><circle cx="638.3" cy="206.7" r="3" fill="#3b82f6"/><circle cx="648.4" cy="207.0" r="3" fill="#3b82f6"/><circle cx="658.6" cy="207.4" r="3" fill="#3b82f6"/><circle cx="668.7" cy="207.7" r="3" fill="#3b82f6"/><circle cx="678.8" cy="208.0" r="3" fill="#3b82f6"/><circle cx="689.0" cy="208.3" r="3" fill="#3b82f6"/><circle cx="699.1" cy="208.7" r="3" fill="#3b82f6"/><circle cx="709.3" cy="209.0" r="3" fill="#3b82f6"/><circle cx="719.4" cy="209.3" r="3" fill="#3b82f6"/><circle cx="729.6" cy="209.7" r="3" fill="#3b82f6"/><circle cx="739.7" cy="210.0" r="3" fill="#3b82f6"/><circle cx="749.9" cy="210.4" r="3" fill="#3b82f6"/><circle cx="760.0" cy="210.8" r="3" fill="#3b82f6"/>

  <!-- X ekseni -->
  <text x="60.0" y="380" text-anchor="middle" font-size="10" fill="#888">14.05.2026</text>
  <text x="171.6" y="380" text-anchor="middle" font-size="10" fill="#888">25.05.2026</text>
  <text x="283.2" y="380" text-anchor="middle" font-size="10" fill="#888">05.06.2026</text>
  <text x="394.8" y="380" text-anchor="middle" font-size="10" fill="#888">16.06.2026</text>
  <text x="506.4" y="380" text-anchor="middle" font-size="10" fill="#888">27.06.2026</text>
  <text x="618.0" y="380" text-anchor="middle" font-size="10" fill="#888">08.07.2026</text>
  <text x="729.6" y="380" text-anchor="middle" font-size="10" fill="#888">19.07.2026</text>

  <!-- Legend -->
  <g transform="translate(60, 345)">
    <rect x="0" y="0" width="12" height="12" fill="#22c55e" rx="2"/>
    <text x="18" y="10" font-size="11" fill="#c9d1d9">Toplam Doluluk</text>
    <rect x="140" y="0" width="12" height="12" fill="#3b82f6" rx="2"/>
    <text x="158" y="10" font-size="11" fill="#c9d1d9">Aktif Doluluk</text>
  </g>
</svg>